
<svg xmlns="http://www.w3.org/2000/svg" version="1.1" xmlns:xlink="http://www.w3.org/1999/xlink" preserveAspectRatio="none" x="0px" y="0px" width="1280px" height="720px" viewBox="0 0 1280 720">
<defs>
<g id="Layer2_0_FILL">
<path fill="#FFFFFF" stroke="none" d="
M 1280 720
L 1280 0 0 0 0 720 1280 720 Z"/>
</g>

<g id="Layer0_0_FILL">
<path fill="#000000" stroke="none" d="
M 629.8 253.45
Q 629.75 254.4802734375 629.75 255.5 629.75 259.8576171875 630.6 263.85 631.769921875 264.65 633.2 264.65 635.4 264.65 636.95 262.8 638.55 260.95 638.55 258.35 638.55 255.75 636.95 253.9 635.4 252.05 633.2 252.05 631.2662109375 252.05 629.8 253.45
M 714.65 261.15
Q 713 259.5 710.6 259.5 708.2 259.5 706.5 261.15 706.481640625 261.1689453125 706.45 261.2 706.4107421875 261.5705078125 706.35 261.95 706.25 263.4298828125 706.25 264.95 706.25 267.1599609375 706.45 269.25
L 706.5 269.3
Q 708.2 271 710.6 271 713 271 714.65 269.3 716.35 267.65 716.35 265.25 716.35 262.85 714.65 261.15 Z"/>
</g>

<path id="Layer0_0_1_STROKES" stroke="#000000" stroke-width="1" stroke-linejoin="round" stroke-linecap="round" fill="none" d="
M 858 130.1
Q 869.15 127.1 878.35 119.85 879.1 119.3 880.65 118.2 882 117.3 883.1 117.25 885.55 117.05 887.85 119.35 889.45 121.35 889.8 124.2 890.15 126.8 889.35 129.5 888.7 131.7 887.1 134.25 886.3 135.45 884 138.6 887.2 138.25 890.25 140.75 892.8 142.85 894.6 146.35 898.35 153.2 895.6 157.35 894.1 159.65 890.85 160.6 888.55 161.25 884.55 161.425 885.084375 163.03125 885.6 164.75 894.05 192.25 893.7 228.35 893.5 250.4 888.75 293.1 886.75 311.1 885.6 320.05 883.6 335 881.35 346.85 880.75 350.05 879.45 356.5 878.4 362.1 878.1 366.25 876.4 385.85 885.35 404.35 894.3349609375 422.819140625 912.5 435.85
L 1020.8 389.65
Q 1021.6740234375 391.594140625 1023.6 394.075 1025.0587890625 395.9466796875 1026.625 397.275 1027.13125 397.70234375 1027.65 398.075 1029.1173828125 399.1337890625 1031.775 400.625 1032.92109375 401.269921875 1034.3 402 1035.2142578125 402.4796875 1036.375 403.05 1039.0955078125 404.3490234375 1043.175 406.1
L 1049.7 403.35
Q 1051 402.7 1052.1 402.85 1053.4447265625 403.0962890625 1054.1 403.925 1054.766796875 404.7568359375 1055.125 405.7 1055.475390625 406.6470703125 1055.5 407.75 1055.8453125 410.6640625 1054.725 413.25 1053.6015625 415.8453125 1051.75 419.6
L 1035.35 453.975 1026.425 472.675
Q 1029.3 477.6 1030.35 481.1 1031.9 485.95 1031.1 490 1030.45 493.2 1028.3 496 1026.170703125 498.7234375 1023.15 500.325 1023.8443359375 500.417578125 1024.5 500.8 1025.7 501.5 1026.35 502.75 1027.55 504.7 1027.1 508 1026.65 511.8 1024.5 513.6 1023.25 514.85 1020.25 515.85 1017.66015625 516.7888671875 1015.75 517.35 1016.7240234375 517.4474609375 1017.65 518.25 1019.15 519.55 1019.25 521.35 1019.4 524.7 1016.1 527.5 1013.15 530.2 1008.95 531.45 1005.15 532.55 1000.75 532.35 998.521875 532.253125 996.9 531.7
L 984.775 560.575 971.6 591.95
Q 953.11875 598.1751953125 934.825 604.125 885.58203125 620.16328125 837.75 634.225 834.9962890625 635.047265625 831.2 635.7 829.9654296875 638.15390625 827.95 640.25 825.5 642.75 822.35 644.35 816.6 647.45 809.1 647.6 802.85 647.8 796.7 646.15 791.0099609375 644.60859375 787.95 643.075 784.8998046875 641.5474609375 784.575 641.5
L 784.6 641.475
Q 779.2005859375 641.200390625 773.8 640.9 698.93984375 636.63203125 623.325 625.725 599.2474609375 622.2470703125 575.1 618.1
L 584.15 574.4
Q 579.85 571 576.25 566.75 573.5 563.65 571.85 560 570.15 556.15 570.15 550.85 570.15 549.0333984375 570.375 546.525 556.5998046875 524.434375 556.25 503.85 555.9 487.75 563.05 471.3 569.55 456.4 581.35 443 582.9556640625 441.175390625 584.7 439.35 588.8587890625 434.943359375 593.775 430.5 599.4423828125 425.378125 606.1 420.2 612.1671875 415.465625 623.2 407.675 627.5435546875 404.628125 632.65 401.1 632.2787109375 398.7619140625 632.45 396.45 632.771875 392.449609375 634.65 389.3 628.1681640625 383.8994140625 622.6 377.25 606.5 358 604.25 335.1 602.4 317 609.6 299.6 616.8447265625 282.2126953125 632.525 270.175 631.2841796875 267.1361328125 630.6 263.875 629.75 259.8576171875 629.75 255.5 629.75 254.4802734375 629.8 253.475 630.224609375 244.2259765625 634.6 236.6 632.3673828125 232.446484375 629.6 228.175 626.8251953125 223.9029296875 621.075 207.075 615.3328125 190.246484375 617.85 166.75 619.35 153.25 624.6 141.45 630.15 128.95 639.25 120.1 650.55 109 668.1 102.8 682.5 97.75 701.85 95.85 741.6 91.85 781.35 100.45 805.0767578125 105.58984375 827.025 114.825 841.56328125 120.9345703125 855.325 128.85 855.5408203125 128.9791015625 855.75 129.1 863.15 133.35 867.85 137 874.1 141.85 877.85 147.25 881.6046875 152.734375 884.55 161.425
M 689 222.35
Q 714.55 210.65 737.1 193.35 759.55 176.05 777.5 154.35 775.15 191.85 787 228.45 788.706640625 233.721484375 790.675 238.825 793.3302734375 237.1890625 795.85 235.1
M 778.6 243.85
Q 784.9677734375 242.3517578125 790.675 238.825 793.3369140625 245.79296875 796.475 252.475 799.171484375 251.8505859375 802.85 250.85
M 778.85 236.5
Q 764.65 232.35 752.1 224.85 746.9 221.8 743.55 218.85 739.35 215.05 737.2 207.45
M 706.475 269.275
Q 707.312890625 277.048046875 711.225 283.575 725.75 280.75 740.5 284.25 755.2 287.7 766.85 296.5
M 711.25 282.25
Q 718.55 277.75 727.75 275.35 733.95 273.75 737.6 274.85 739.25 275.45 742.45 277.55 745.45 279.55 747.35 280.1 748.5 280.4 751.05 280.65 753.55 280.85 754.85 281.25 757.95 282.1 763.05 286.85 767.95 291.5 771.875 293.075 772.6177734375 292.4068359375 773.35 291.7 784.85 280.65 784.85 264.95 784.85 258.823828125 783.1 253.4 780.3626953125 244.91875 773.35 238.15 761.85 227.1 745.55 227.1 729.25 227.1 717.75 238.15 708.6224609375 246.96015625 706.725 258.675 706.6359375 259.9451171875 706.475 261.2 706.481640625 261.1689453125 706.5 261.15 708.2 259.5 710.6 259.5 713 259.5 714.65 261.15 716.35 262.85 716.35 265.25 716.35 267.65 714.65 269.3 713 271 710.6 271 708.2 271 706.5 269.3
L 706.475 269.275
Q 706.25 267.1599609375 706.25 264.95 706.25 263.4298828125 706.35 261.95 705.93046875 264.628125 705.15 267.15 703.6953125 271.8646484375 701 276.05 703.3009765625 276.7265625 705.25 278
M 783.1 253.4
Q 787.65 254 793.15 253.15 794.56953125 252.903125 796.475 252.475 806.9716796875 274.914453125 822.725 294.075 825.42265625 292.035546875 828.5 290.55 831.077734375 289.2935546875 833.725 288.525 840.800390625 231.5908203125 840.85 201.25 840.9 152.1 827.025 114.825
M 641.6 222
Q 645.573046875 222.04921875 649.5 221.75 657.525390625 221.115625 665.35 219 668.475390625 218.10390625 671.05 217.025 674.3578125 215.660546875 676.75 214 682.45 209.9 683.75 204
M 632.525 270.175
Q 633.201953125 271.82265625 634.05 273.4 636.95 273.25 640.55 270.9 644.4 268.35 646.35 268.1 648.45 267.9 652.1 269.55 655.95 271.3 657.75 271.35 659 271.45 661.65 271 664.2 270.55 665.5 270.75 667 271.05 668.7 272.15 669.65 272.8 671.6 274.25 675.8 277.3 681.725 279.325 683.90703125 277.7478515625 687.1 276.75 691.8 275.15 696.4 275.35 698.84921875 275.44609375 701 276.05
M 681.725 279.325
Q 679.5275390625 280.9203125 678.35 283.1 676.65 286.05 677.15 289.8 677.40078125 291.4419921875 678.025 292.9 678.7490234375 294.6314453125 680 296.1 682.2 298.65 685.65 300.05 688.9 301.35 692.5 301.25 698.9 301.05 705.6 296.85
M 678.025 292.9
Q 673.3953125 294.05 668.3 294.05 652.35 294.05 641.05 282.75 636.715625 278.415625 634.05 273.4
M 635.5 275
Q 646.1 273.4 656.95 275.15 667.65 276.9 678.4 282.05
M 706.475 261.2
Q 706.4107421875 261.5705078125 706.35 261.95
M 671.05 217.025
Q 685.235546875 217.935546875 695.55 228.25 706.85 239.55 706.85 255.5 706.85 257.1068359375 706.725 258.675
M 771.875 293.075
Q 760.812109375 302.8 745.55 302.8 729.25 302.8 717.75 291.7 713.8087890625 287.912890625 711.225 283.575
M 719.75 316.1
L 706.85 316.1
Q 705.8 316.2 705.25 316.35 704.35 316.55 703.85 317.1 703.5 317.75 703.5 319.1 703.35 322 703.25 327.75 703.25 330.05 704.35 330.75 704.75 331 705.85 331
L 717.85 331
Q 719 331 719.5 330.9 720.3 330.7 720.75 330.1 721.4 329.3 721.1 327.35 720.5 323.95 721.1 319.1 721.4 317.85 721 317 720.8 316.5 720.35 316.25 720.03359375 316.07734375 719.75 316.1 Z
M 687.525 321.75
Q 684.15 322.4 679.6 324.1 677.1 325.1 676.35 326.35 675.7 327.7 676 330.35
L 676.75 337.35
Q 676.95 339.05 677.75 339.5 678.15 339.7 678.75 339.65 679.1 339.65 679.75 339.5 683 338.35 687.1 337.1 688.95 336.6 689.35 335.75 689.7 335.1 689.5 333.5 689.05390625 329.8328125 687.525 321.75 Z
M 721.45 338.875
Q 722.3302734375 338.6767578125 723.275 338.55 727.21875 338.062890625 732.3 338.95 735.95 339.55 743.25 341.5 749.45 342.85 754.6 341.8 760.7 340.55 763.25 336.1 765.05 333.05 764.5 329.1 764.05 325.45 761.85 322.25 758.2 317.3 750.1 313.85 736.75 308.2 720.35 308.9 705.95 309.5 690.25 315 684.3 317 680.4 319.25 675.3 322.2 672.5 326.1 669.2 330.55 669.35 336.25 669.5 342.2 673.5 345.35 676.7 347.9 681.75 348.1 685.45 348.25 690.85 347.1 698.1 345.55 707.2 343.05 711.2505859375 341.89921875 721.45 338.875 Z
M 804.45 315.15
Q 804.45 321.6 799.9 326.15 795.35 330.7 788.9 330.7 782.45 330.7 777.9 326.15 773.35 321.6 773.35 315.15 773.35 308.7 777.9 304.15 782.45 299.6 788.9 299.6 795.35 299.6 799.9 304.15 804.45 308.7 804.45 315.15 Z
M 747.6 318
Q 750.05 318.2 750.85 319.1 751.25 319.6 751.45 320.35 751.45 320.55 751.6 321.75 751.8 325.45 751.6 329.1 751.6 330.35 751.25 331 750.8 331.95 748.85 332.5 747 332.85 744.3 332.5 741.2 331.95 739.6 331.75 738 331.6 737.45 331.4 736.25 331.05 735.75 330.25 735.25 329.5 735.25 327.75
L 735.25 320
Q 735.25 318.5 735.675 317.775 736.1 317.05 736.725 316.925 737.1064453125 316.8486328125 737.575 316.875
L 747.6 318 Z
M 808.1 351.75
Q 811.5 357 821.35 358 833.35 359.05 844.3 353.85 855.65 348.55 861.35 338.6 865.6 331.55 866.85 321.35 868.65 306.85 862.75 298.1 859.25 292.85 853.15 289.95 850.7232421875 288.7982421875 848.2 288.15 844.5763671875 287.2322265625 840.75 287.35 837.1794921875 287.5201171875 833.725 288.525
M 855.325 128.85
Q 864.45 168.85 862.5 210.15 860.5541015625 250.4298828125 848.2 288.15
M 822.725 294.075
Q 820.3390625 295.8701171875 818.25 298.1
M 634.65 389.3
Q 646.176953125 398.871484375 660.6 404.5 672.1908203125 409.0810546875 684.95 410.925 695.3158203125 412.413671875 706.45 412.1 712.2564453125 411.934375 718.1 411.275 735.196484375 409.387109375 752.6 403.35 755.98671875 402.1818359375 759.225 400.9 775.287890625 394.5595703125 787.85 385.45 804.9 373.1 813.85 356.75
M 838 471.35
Q 845.4275390625 481.7607421875 861.45 483.425 877.4638671875 485.0876953125 884.65 483.35 891.848046875 481.609765625 894.05 479.65 894.370703125 479.3654296875 894.65 479.075
L 896.25 475.1 904.55 471.6 1022.5 421.85 1017.825 416.775 889.15 470.975
Q 889.176171875 471.1908203125 889.2 471.4 889.45 473.9 887.85 475.35 886.75 476.35 883.35 476.85 864.2 478.75 849 472.6 845.95 471.4 844.75 469.85 843.8 468.9 843.5 467.65 843.34609375 466.983203125 843.425 466.375 843.4234375 466.2859375 843.425 466.2 740.0162109375 454.6212890625 691.225 445.45 642.4341796875 436.2822265625 628.975 434.35 624.1009765625 433.639453125 622.875 433.65 618.25546875 433.696484375 616.6 439.55
L 617.2 439.65
Q 641.4103515625 443.7802734375 665.55 447.625 748.4240234375 460.7806640625 830.55 470.475 834.2708984375 470.9166015625 838 471.35
L 784.75 641.475
Q 784.704296875 641.47265625 784.65 641.475
L 784.6 641.475
M 917.9 478.875
Q 915.4 477.75 913.5 477.75 910.85 477.75 909.6 479.5 908.4 480.9 908.6 483.35 908.95 486.5 911.55 489.25 913.8 491.6 917.25 493.25 921.55 495.3 924 493.75 925.4 492.85 926.25 490.85 927.85 487.65 928.75 482.1 929.25 478.3 928.75 476.35 928.35 474.95 927.35 473.9 926.2 472.75 924.85 472.5 923.6 472.3 922.3 472.95 921.15 473.5 920.25 474.5 919.07265625 475.81875 917.9 478.875 Z
M 953.55 471.5
Q 955.05 469.9 956.7 469.6 958.4 469.35 959.5 470.35 960.45 471.25 960.5 472.7 960.55 474.1 959.85 475.35 958.85 476.85 956.5 479.2 954.694921875 480.975390625 951.45 482.3 949.75 483.1 948.35 482.75 946.95 482.3 946.6 479.5 946.35 477.6 946.35 471.5 946.35 470.3 946.75 468.85 947.4 467.3 948.6 467.1 950.25 466.6 951.85 468.5 952.6 469.5 953.55 471.5 Z
M 991.35 477.85
Q 993.45 473.7 998 471.75 999.45 471.1 1000.9 471.2 1002.6 471.3 1003.35 472.35 1004.55 474.05 1003.1 476.75 1002.3 478.3 1000.6 479.85 999.75 480.65 997.5 482.35 995.75 483.6 995.75 484.85 995.65 485.45 996 486.1 996.1 486.25 996.75 487.25 999.4 492.1 995.25 500 991.8806640625 506.4017578125 987.575 511.45 987.648046875 511.7486328125 987.725 512.05 989.1693359375 518.596484375 987.4 525.1 985.5 531.9 980.75 536.75 979 538.45 978.25 539.35 976.9 540.9 976.5 542.35 976.3 543.05 976.05 547.15 975.85 550.1 974.5 551.25 972.25 552.95 967.25 550.75 963.9 554.7 961.8 556.75 958.6 559.95 955.5 561.85 951.8 564.05 947.85 564.55 943.5 565.1 940 563.5 938.6 565.85 937.55 567.1 936 568.95 934.25 569.85 932.3 570.95 930.05 570.45 927.65 569.9 926.75 568 922.95 571.55 920.55 573.45 917 576.3 913.75 578 909.8 579.95 905.8 580.45 901.4 580.95 898.1 579.35 894.95 577.95 891.25 582.75 889.45 585.05 888.45 585.9 886.65 587.45 884.85 587.35 882.95 587.3 881.7 585.4 880.55 583.5 881.1 581.6 881.55 579.75 883.25 578.4 884.75 577.15 886.75 576.75 883 568.2 886.15 558.55 889.35 548.95 897.5 544.25 896.2 536.6 898.8 528.8 901.35 521.1 907 515.75 905.2 513.55 905.6 510.5 906.05 507.45 908.35 505.85 910.6 504.15 913.65 504.85 916.1470703125 505.423046875 917.95 507.75 924.8248046875 501.57734375 933.5 498.3 942.55 494.9 952.1 494.35 952.95 491.9 953.7 490.55 954.85 488.55 956.35 487.6 958.2 486.55 960.35 487.3 962.55 488.1 962.75 490 968.4 484.35 975.9 481.25 983.4 478.1 991.25 478.1
M 843.425 466.2
Q 843.43515625 465.689453125 843.55 465.2 843.861328125 463.7748046875 844.975 462.45
L 734.85 442.85
M 844.975 462.45
Q 846.280078125 460.9447265625 848.65 459.575
L 814.3 452.05
M 906.8 454.15
L 885.15 464.2
Q 886.5693359375 465.6375 887.5 467.1 888.812109375 469.000390625 889.15 470.975
M 923.15 439.75
L 879.225 459.55
Q 882.837890625 461.8435546875 885.15 464.2
M 912.5 435.85
L 867.5 455.05
Q 872.0384765625 455.5775390625 877.5 458.5 878.3943359375 459.0216796875 879.225 459.55
M 848.65 459.575
Q 849.5431640625 459.051171875 850.6 458.55 852.9263671875 457.4767578125 855.1 456.725
L 793.075 443.7 766.475 438.125 710.35 426.7 665.8 417.625 647.7 413.95
Q 646.29140625 417.847265625 642.975 421.8
L 665.9 425.25
M 855.1 456.725
Q 857.2755859375 455.966015625 859.3 455.525 860.5427734375 455.2556640625 861.75 455.1 829.7466796875 444.4193359375 801.75 426.9 802.3 429.8 800.1 433.6 798.8 436 796.8 438.75 796.1 439.75 793.075 443.7
M 861.75 455.1
Q 864.5021484375 454.755078125 867.1 455 867.2966796875 455.01875 867.5 455.05
M 862.05 514.7
Q 862.05 516.8 860.55 518.25 859.1 519.75 857 519.75 854.9 519.75 853.4 518.25 851.95 516.8 851.95 514.7 851.95 512.6 853.4 511.1 854.9 509.65 857 509.65 859.1 509.65 860.55 511.1 862.05 512.6 862.05 514.7 Z
M 949.25 527.35
Q 951.95 520.25 953.6 514.35
L 954.75 518.6
Q 957.1 514.9 960.35 510.6 958.1 518.9 954.5 526.75
M 969.35 506.25
Q 968.75 507 967 507.9 965.25 508.75 964.6 509.5 964.15 510 963.6 511.5 963.3025390625 512.3748046875 962.875 513.55
L 967.85 513.25
M 969.925 510.3
Q 970.400390625 508.2564453125 971 507 971.65 505.85 972.25 505.5 973 504.9 974.1 505.1 974.7 505.1 975.1 505.5 975.8 506 975.25 507.6 973.85 509.95 969.925 510.3 969.8494140625 510.6755859375 969.775 511.075 970.4 511.9 971.6 513.15 972.9 514.5 973.35 515.1 975.2 517.35 975.35 520.1
M 969.775 511.075
Q 969.42734375 512.956640625 969.075 515.55 968.634765625 518.7001953125 967.75 520.6
M 962.875 513.55
Q 962.08515625 515.7494140625 960.85 519 960.25 520.5 960.85 521.1 961.3 521.6 962.4 521.55 963.85 521.5 964.25 521.6
M 939.675 544.25
Q 939.562109375 546.64765625 938.175 547.975 936.7884765625 549.299609375 936.1 549.075 935.410546875 548.851171875 935.375 547.475 935.3427734375 546.098828125 935.45 543.95 935.5509765625 541.8001953125 936.1 540.25 936.69453125 538.752734375 938.175 538.925 939.6658203125 539.091796875 939.725 540.475 939.7865234375 541.855078125 939.675 544.25 Z
M 943.55 539.9
Q 946 539.7 947.05 538.65 948.05 537.6 948.25 536.25 948.4 535.2 948.1 534.6 947.7 533.75 946.85 533.75 945.6 533.9 945.1 535.6 944.2474609375 537.8513671875 943.55 539.9 941.5935546875 545.5287109375 940.75 549.6
M 943.85 540.35
Q 944 540.75 944.5 541.6
L 945.6 544.1
Q 946.1 545.6 947.25 548.5
M 972.35 528.6
Q 972.15 527.6 971.4 526.85 970.6 526.05 969.6 526 968.6 525.8 967.65 526.35 966.75 526.9 966.35 527.85 966.15 528.65 966.35 529.8 966.4 530.05 966.85 531.85 967.2 532.8 967.5 535.25 967.7 537.9 966.25 538.75 964.8 539.4 962.6 537.75
M 963.25 528.1
Q 962.7 528.6 961.25 529.2 959.8 529.75 959.25 530.25 958.5 531 958 533 956.8 537 956.1 540.5 956.1 541.85 956.35 542.1 956.75 542.6 957.75 542.6 959.6 542.8 962 542.35
M 957.5 535.75
Q 958 535.65 960.5 534.75
L 962 534
M 937.5 530.35
Q 941.35 523.45 942.85 516.85 943.35 518.35 944.25 520.1 945.6 517.25 948.5 514.35 947.05 523 944.1 529.75
M 933.35 519.75
Q 930.95 524.4 929.6 529.5 929.35 530.75 929.35 531.1 929.6 532.2 930.35 532.35 931.35 532.65 932.5 531.25 936.4 525.85 937.5 519.6
M 930.25 512.85
Q 924.35 514.85 921.4 516.2 916.6 518.45 913.6 521.35 910.9 524 908.7 528.35 907.45 530.8 905.25 536.35 898.45 554.1 892 574 902.15 571.7 914.6 567.1 921.25 564.65 936.6 558.35
L 962.25 547.6
Q 965.45 546.3 966.95 545.5 969.55 544.15 971.1 542.5 973.55 539.9 975 535.15 976.35 529.5 977.1 526.75 978.8 520.1 984.35 509.3 990.6 497.2 992.35 492.1 993.3 489.65 992.75 488.35 992.45 487.4 991.5 487 990.73046875 486.6537109375 990.1 486.9 989.9779296875 486.950390625 989.85 487.025 961.7572265625 501.735546875 930.25 512.85 Z
M 929.35 520.25
Q 926.45 519.85 924.75 522 923.65 523.6 923.5 525.6 923.4 526.65 923.45 528.15 923.45 529 923.5 530.6 923.2 533.75 921.85 535.35 921.1 536.3 919.85 536.7 918.6 537.1 917.5 536.6 915.9 535.8 915.75 534 915.75 532.25 917.25 531.25
M 923.25 543.25
Q 920.15 544.35 919.25 545.35 918.3 546.45 917.85 548.35 917.7125 548.7453125 917.4 549.675 919.5 549.55 921.35 549.75
M 917.4 549.675
Q 916.7796875 551.4765625 915.5 555.25 915.2 555.9 915.35 556.25 915.6 556.6 916.25 556.75 917.5 556.85 920 556.85
M 902.5 563.6
Q 903.15 562.55 904.85 558.6 907.05 552.95 908.5 547.5 909.75 550 909.75 552.1 913.05 548.05 916.35 544.35 913.15 554.2 909.25 562.35
M 939.65 580.3
Q 939.75 579.2 939.75 578.6 939.95 576.5 938.75 575.6 937.65 574.75 936.1 575.35 934.35 575.85 932.85 577.65 931.85 578.8 930.5 581.1
L 925.6 589.75
Q 924.2 592.35 925.25 593.35 925.95 594.2 928 594 934.8 593 940.6 589.6 943.55 588.05 945.75 585.85 947.25 584.15 947.1 582.85 947.05 581.7 946 580.95 945 580.25 943.75 580.25 942.0599609375 580.3439453125 939.5 581.85 939.65 581.1146484375 939.65 580.3 Z
M 923.25 555.25
Q 926.3 545.8 927.35 541.25 928.25 544.85 928.75 546 931.45 542.55 933.85 539 932.3 546.1 929.5 554
M 953.55 530.5
L 950.05 547.2
M 785.55 387.6
Q 789.8 393 790.15 399.5 790.45 405.5 788 411.35 785.9 416.35 781.65 421.65 779.05 424.95 773.5 430.6 770.7 433.7 766.475 438.125
M 786 416.25
Q 793.7123046875 421.8529296875 801.75 426.9
M 718.1 411.275
L 718.1 418.55
Q 726.7873046875 417.4646484375 735.05 414.7 748.9 410.1 759.225 400.9
M 753.35 406.85
Q 756.05 409.2 757.2 413.15 758.25 416.75 757.75 420.75 757.25 424.2 755.5 427.9 754.15 430.75 751.75 434.5
M 653.25 405.75
Q 659.5421875 408.9421875 665.8 411.375 686.726953125 419.5193359375 707.35 419.25 709.107421875 419.2376953125 710.85 419.15 714.510546875 418.998828125 718.1 418.55
M 710.85 419.15
L 710.35 426.7
M 684.95 410.925
L 685.5 416.75
M 665.8 411.375
L 665.8 417.625
M 646.6 480.35
Q 644.55 480.65 643.6 481.6 642.7 482.4 642.6 483.8 642.5 485.05 643 486.35 644.2 490.2 648.6 492.6 651.25 494.15 656.6 495.6 660.75 496.95 662.75 495.5 663.7 494.9 664.75 492.75 666.55 489.15 667.75 485 668.9 481.35 668.6 479 668.15 475.2 665.25 474.1 663.8 473.5 662.05 473.95 660.401953125 474.397265625 659.025 476.025 657.6435546875 477.6578125 656.4 481.9 651.3787109375 479.8345703125 646.6 480.35 Z
M 676.1 428.75
L 704.4 433.85
M 733.45 583.35
Q 734.25 580.35 733.6 577.6 732.95 574.65 730.85 572.45 728.7 570.15 725.85 569.6 722.65 569 719.1 570.65 716.05 572 713.25 574.75 707.3 580.35 701.6 591 698.35 596.7 694.25 605.85 692.85 609.05 693.85 610.6 694.45 611.45 695.55 611.85 696.2 612.1 697.6 612.35
L 705.85 613.5
Q 712.1 614.45 716 614.7 721.55 615.1 726.1 614.6 731.5 614 735.95 612 740.85 609.8 744 606.1 746.4 603.2 747.15 599.8 747.95 596.05 746.35 593.1 744.6 589.9 740.15 588.5 737 587.5 730.75 588.6 732.879296875 585.3830078125 733.45 583.35 Z
M 824.1 614.95
Q 824.1 616.85 822.75 618.2 821.4 619.55 819.5 619.55 817.6 619.55 816.25 618.2 814.9 616.85 814.9 614.95 814.9 613.05 816.25 611.7 817.6 610.35 819.5 610.35 821.4 610.35 822.75 611.7 824.1 613.05 824.1 614.95 Z
M 894.65 479.075
L 831.75 634.5
Q 831.498046875 635.110546875 831.2 635.7
M 830.55 470.475
L 773.8 640.9
M 904.55 471.6
L 837.75 634.225
M 810.5 432.85
Q 809.35 440 804.5 445.75
M 1017.825 416.775
L 1043.175 406.1
M 996.9 531.7
Q 995.15703125 531.10859375 994.1 530 992.6 528.1 992.6 525 992.7 521.45 995.1 518.5 997.475390625 515.6296875 1000.925 514.775 999.557421875 512.8634765625 999.25 510.25 998.9 506.9 1000.55 503.65 1002.20078125 500.542578125 1005.075 498.85 1004.20390625 497.85625 1003.85 496.6 1003.35 494.05 1005 491.35 1006.55 488.4 1009.3 486.2 1012 484.05 1015.25 483 1015.85 482.75 1018.75 481.9 1020.9 481.25 1022.1 480.5 1022.5734375 480.2130859375 1022.975 479.875
L 1026.425 472.675
M 1055.5 407.75
Q 1035.6099609375 416.0896484375 1022.5 421.85
L 1035.35 453.975
M 994.75 409.9
L 1026.625 397.275
M 1012 414.5
L 1036.375 403.05
M 1023.15 500.325
L 1023.1 500.35
Q 1017 503.6 1010 501.6 1006.67265625 500.6630859375 1005.075 498.85
M 1000.925 514.775
Q 1001.341015625 515.341015625 1001.85 515.85 1003.8 517.8 1007.25 518.25 1010.15 518.65 1013.85 517.85 1014.1822265625 517.773828125 1014.55 517.675 1015.1099609375 517.5359375 1015.75 517.35
M 984.775 560.575
L 934.825 604.125
M 963.9 429.55
L 1031.775 400.625
M 634.6 236.6
Q 637.1515625 232.1484375 641.05 228.25 644.991015625 224.308984375 649.5 221.75
M 629.8 253.475
Q 631.2662109375 252.05 633.2 252.05 635.4 252.05 636.95 253.9 638.55 255.75 638.55 258.35 638.55 260.95 636.95 262.8 635.4 264.65 633.2 264.65 631.769921875 264.65 630.6 263.875
M 632.5 291.95
Q 632.298828125 291.95 632.1 291.95 628.5650390625 292.0572265625 625.3 293.95 621.9 295.9 619.75 299.1 617.6 302.15 616.85 306.05 616.05 309.8 616.75 313.6 616.95 316.1 618.35 317.5 619.7 319.15 622.5 319.35 626 319.85 629.45 318.2 632.75 316.6 634.85 313.6 638.95 308.2 638.5 300 638.2 296.45 637 294.5 636.1 293.2 634.85 292.55 633.69609375 291.908984375 632.5 291.95 Z
M 623.2 407.675
L 624.35 411.35
Q 625.35 414.1 626.5 415.1 627.65 416 629.25 416.2 630.75 416.35 632.25 415.85 634.6 414.9 637.25 412.5
M 632.65 401.1
Q 632.920703125 402.840625 633.5 404.6 635.85 411.55 642.75 418
M 610.25 462.25
Q 605.55 462.4 602 460 599.6 458 598.35 457.25 597.5 456.9 597.25 457 596.6 457 596.1 458 595.65 459.1 595.35 462 595.2 463.75 595.25 464.15 595.25 465.45 595.75 466.25 596.6 467.9 599.75 468.75 604.4908203125 469.798046875 608.675 469.8
L 616.575 439.55 616.6 439.55
M 642.975 421.8
Q 642.772265625 422.044140625 642.55 422.3 640.768359375 424.319140625 637.25 427.55
L 674.75 434.3
M 637.25 427.55
Q 636.3408203125 428.41328125 635.3 429.35 632.65 431.75 631 432.95 629.4189453125 434.056640625 628.975 434.35
M 584.7 439.35
Q 588.118359375 438.752734375 591.15 439.2 594.2 439.6 596.85 441.1 598.75 442.35 599.85 442.35 601.05 442.2 602.35 441.35 604.15 440.15 605.85 438 607.3 436.3 607.1 434.75 606.75 432.75 603.75 431.75 598.76484375 429.755859375 593.775 430.5
M 564.25 487.5
Q 561.4 492.75 561.1 498.6 561.1 500.85 561.6 501.85 562.4 503.05 564.25 504 565.8 504.75 566.5 504.5 567.7 504.05 568.25 501.6 569.95 492.7 576.75 486.5 578.6 484.85 578.5 483.6 578.3 482.7 577.1 481.75 575.4 480.2 573.925 479.5 572.4560546875 478.8025390625 572.025 478.875 571.8287109375 478.9044921875 571.65 478.975 571.4666015625 479.1267578125 571.275 479.275 571.07578125 479.417578125 570.875 479.575 566.798828125 482.7599609375 564.25 487.5 Z
M 597 491.75
Q 597.844921875 493.3955078125 601.175 498.55
L 606.075 479.8
Q 597.4900390625 479.4076171875 591.3 484.1 585.1 488.85 583.5 495.85 582.6732421875 499.6529296875 583.2 503.9 583.4736328125 506.064453125 584.1 508.35 585.7 513.7 588.35 516.35 590.55 518.55 593.4 519.6 594.5638671875 520.0287109375 595.75 520.225 596.6076171875 520.3734375 597.475 520.4 598.1626953125 520.4310546875 598.85 520.375 599.0548828125 520.36953125 599.25 520.35 601.7 520.05 603.75 518.8 605.95 517.45 606.75 515.35 607.85 512.4 606.5 508.35 605.35 504.9 602.05 499.9 601.596875 499.2037109375 601.175 498.55
M 608.675 469.8
L 606.075 479.8
M 583.2 503.9
Q 579.65 507.7 578.95 512.5 578.2 517.25 579.6 521.75 579.641796875 521.894921875 579.675 522.05 581.00625 526.3642578125 584.2 529.8 587.45 533.3 591.85 535 595.1 536.2 598.25 536.15 598.5587890625 536.13671875 598.85 536.1 600.322265625 535.9875 601.6 535.575 603.0423828125 535.0953125 604.25 534.25 607 532.2 607.65 528.75 608.3 525.15 606.1 522.85 604.45 521 601.35 520.55 600.3177734375 520.3951171875 598.85 520.375
M 579.675 522.05
Q 577.55 525.7 577.25 529.7 576.9 533.8 578.1 537.6 579.4 541.45 582.2 544.5 585 547.55 588.75 549.1 589.0494140625 549.216015625 589.35 549.325 594.5455078125 551.1556640625 598.85 549.5 601.35 548.65 603.1 546.65 604.9 544.6 605.35 542.1 605.8 538.85 604 536.85 603.08125 535.8345703125 601.6 535.575
M 623.325 625.725
Q 605.8 601.75 584.8 571.3
L 584.15 574.4
M 589.35 549.325
L 584.8 571.3
M 571 541.25
Q 570.5912109375 544.183984375 570.375 546.525
M 607.35 476.6
Q 636.45 463.1 665.55 447.625"/>
</defs>

<g transform="matrix( 1, 0, 0, 1, 0,0) ">
<use xlink:href="#Layer2_0_FILL"/>
</g>

<g transform="matrix( 1, 0, 0, 1, 0,0) ">
<use xlink:href="#Layer0_0_FILL"/>

<use xlink:href="#Layer0_0_1_STROKES"/>
</g>
</svg>
