
<svg xmlns="http://www.w3.org/2000/svg" version="1.1" xmlns:xlink="http://www.w3.org/1999/xlink" preserveAspectRatio="none" x="0px" y="0px" width="1280px" height="720px" viewBox="0 0 1280 720">
<defs>
<g id="Layer1_0_FILL">
<path fill="#FFFFFF" stroke="none" d="
M 1280 720
L 1280 0 0 0 0 720 1280 720 Z"/>
</g>

<g id="Layer0_0_FILL">
<path fill="#000000" stroke="none" d="
M 652.1 363.95
Q 647.4 379.45 648.25 392.25 648.45 396.1 649.75 398.85 651.35 402.2 654.25 403 656.25 403.45 658.25 402.65 660.15 401.9 661.6 400.25 662.75 398.9 663.75 396.85 664.35 395.65 665.35 393 673.0958984375 370.512109375 674.35 346.95
L 662.6 336.75
Q 654.85 354.85 652.1 363.95 Z"/>
</g>

<path id="Layer0_0_1_STROKES" stroke="#000000" stroke-width="1" stroke-linejoin="round" stroke-linecap="round" fill="none" d="
M 670.35 9
L 637.45 181.7 603.3 175.8 603.3 191.85 712.35 212.7 716.35 195.45 679.65 189.75 709.9 15.65 670.35 9 Z
M 417.6 559
Q 414.044921875 556.9412109375 413.175 556 412.3015625 555.0578125 410.55 551.25 408.79453125 547.4390625 408.725 544.175 408.662890625 540.917578125 408.975 539.025 409.2818359375 537.1205078125 411.45 535 410.969140625 535.051953125 410.5 535.025 408.2564453125 534.958203125 406.35 533.3 401.50078125 529.09453125 401.85 524.85 402.25 520.55 405.95 517.65 409.65 514.7 413.85 515.35 407.4 509.6 397.65 502.5 386.3 494.5 380.7 490.5 360.05 475.65 350.35 463 345.7 456.95 344.2 450.9 342.35 443.6 345.85 438.6 348.5 434.8 354.05 433.1 358.05 431.85 364.35 431.5 392.65 430 420.8 434.1 448.690625 438.1126953125 475.1 447.425
L 643 218.6
Q 645.9021484375 214.0009765625 649.375 211.875 652.849609375 209.74609375 655.05 209.7 657.249609375 209.6521484375 659.5 210.65 661.55 211.6 663.25 213.35 665.43984375 215.6890625 668.25 221.05
L 668.225 221.05 775.525 525.3
Q 781.52109375 526.9130859375 790.7 530.55 802.7 535.3 807.6 536.75 817.15 539.55 825.55 539.25 835.4 538.95 842.5 534.5 852.45 528.1 856.55 513.9 859.5 503.65 859.75 487.25 860.3 444.3 856.6 406.85 860.5 404.05 863.45 399.6 866.4 395.1 866.5 390 866.31796875 386.6517578125 866.25 384.55 862.95 382.35 858.35 381.6 854.8 381.25 850.6 382.1 847.95 382.6 846.6 383.75 846.01953125 384.253125 845.65 384.9 845.0806640625 385.9400390625 845.05 387.35 845 389.6 846.25 391.65 846.8751953125 391.881640625 847.75 392.25 850.15 393.25 852.55 393.35 855.2 393.45 857.35 392.5
M 648.35 308.1
L 642.1 326.4
Q 642.3001953125 326.450390625 642.5 326.5 653.2982421875 329.10859375 663.05 336.45
L 675.25 322.9
M 663.05 336.45
Q 668.887890625 340.839453125 674.35 346.925 674.79609375 347.429296875 675.25 347.95 685.95 360.2 697.6 382.6 701.65 390.5 703.05 395.7 705.1 403.25 703.1 409.25 701.75 413.25 698.2 417 695.45 419.95 691 423.1 674.9 434.8 655.9 440.05 654.048046875 440.5580078125 652.2 441
L 655.35 467.45
M 674.35 346.95
L 662.6 336.75
Q 654.85 354.85 652.1 363.95 647.4 379.45 648.25 392.25 648.45 396.1 649.75 398.85 651.35 402.2 654.25 403 656.25 403.45 658.25 402.65 660.15 401.9 661.6 400.25 662.75 398.9 663.75 396.85 664.35 395.65 665.35 393 673.0958984375 370.512109375 674.35 346.95
L 674.35 346.925
M 866.25 384.55
Q 866.213671875 383.7623046875 866.2 383.15 866.15 379.15 867.6 376.75 869.15 374.25 872.9 372.75 873.75 372.4 879.75 370.75 883.6 369.75 886.1 367.55 889.05 364.95 888.6 361.75 888.35 359.75 886.7 358.2 885.15 356.7 883 356.1 879.901953125 355.251953125 870.475 358.95 861.04375 362.643359375 853.25 367.45 845.4560546875 372.2564453125 842.175 373.075 838.8978515625 373.89765625 837 371.6 835.65 370.05 836.05 365.7 836.5 361.3 835.25 359.6 833.6 357.4 830.4 358.3 827.25 359.15 826.1 361.85 825.05 364.15 825.35 367.4 825.55 369.05 826.5 373.1 837.05 412.45 838.35 454.35 838.5 470.2 838.2 478.55 837.7 492 835.85 502.7 835.15 506.65 834.2 508.9 832.85 512.1 830.5 513.7 828.3 515.25 825.05 515.4 822.7 515.55 819.1 514.95 792.35 511.05 768 497.85
M 845 402.35
Q 843.2 401.15 842.15 399.15 841.1 397.1 841.1 394.85 841.1 392.5 842.6 391.5 843.6 390.9 845.1 391.25 845.5046875 391.3580078125 846.25 391.65
M 866.25 379
Q 863.6 375.6 859.4 374.2 855.1 372.75 851 373.85 847.65 374.75 846.1 377.1 844.31953125 379.817578125 845.65 384.9
M 750.9 501.9
L 712.15 496.4 713.05 531.525 764.5 539.6
M 712.15 496.4
L 602.175 480.75 597.5 507.3
Q 601.1990234375 507.741796875 605.65 506.7 608.7 505.9 613.85 503.85 622.6 500.5 640.25 493.6 642.95 492.5 644.25 493.35 645.95 494.6 645.1 498.1 643.8279296875 503.8619140625 640.4 520.05
L 641.65 520.35 671.9 525.075 713.05 531.525
M 671.9 525.075
L 670.7 559.375 747.475 571.375 775.45 575.75
M 747.475 571.375
L 748.725 611.35 774.325 615.375 785.5 616.35
Q 789.8 616.75 792.2 616.45 795.8400390625 615.9416015625 798.825 613.8 801.8201171875 611.6666015625 802.525 608.825 803.2208984375 605.9720703125 802.55 603.05 801.88828125 600.1359375 801.425 598.65 801.3337890625 598.394921875 801.225 598.175
L 775.525 525.3
Q 774.6013671875 525.051171875 773.75 524.85
M 670.7 559.375
L 535.075 538.2 526.05 576.2 630.675 592.725 649.55 595.7 748.725 611.35
M 570.45 448.7
L 583.05 431.45
Q 581.84921875 430.746484375 580.65 430 563.35 419.25 553.25 402.75 548.55 395.25 546.3 387.65 544.956640625 383.109375 544.575 378.75 544.4333984375 377.12421875 544.425 375.525 544.413671875 374.981640625 544.65 374.5 545.3162109375 373.0771484375 546.25 371.725 556.2369140625 357.32421875 570.75 346.45 583.1416015625 337.15625 597.2 331.675
L 591.9 311.9
M 597.2 331.675
Q 602.6470703125 329.5515625 608.35 328 613.7455078125 326.542578125 618.8 325.775
L 617.6 305.8
M 618.8 325.775
Q 631.5345703125 323.8732421875 642.1 326.4
M 627.6 463.25
L 627.6 443.725
Q 622.4123046875 443.6470703125 617.25 443 610.5412109375 442.1634765625 604.15 440.375
L 601.7 456.4
M 604.15 440.375
Q 593.13359375 437.3162109375 583.05 431.45
M 499.25 497.4
L 510.075 467.65 465.85 461.35
Q 465.428515625 461.246875 465 461.15
L 443.05 491 529.425 503.2 548.5 505.85
Q 549.713671875 494.10234375 552.1 482.6 552.65 479.7 554 478.75 554.5513671875 478.2634765625 555.275 478.175 555.3841796875 478.155078125 555.5 478.15 555.7865234375 478.1498046875 556.1 478.2 557.35 478.4 558.5 479.2 569.8787109375 487.6357421875 581.25 497.5 586.3 501.9 588.65 503.5 593.05 506.5 597.1 507.25 597.30390625 507.2791015625 597.5 507.3
M 640.4 520.05
Q 639.246875 525.48046875 637.85 532.1 637.1 535.25 636.25 536.95 634.95 539.5 632.85 540.25 629.6 541.45 624.5 537.85 616.25 532.2 608.35 525.1 604.1 521.3 602.45 520.15 598.85 517.65 595.5 517.25 593.35 517 590.55 517.55 588.8 517.85 585.6 518.85 580.45 520.4 551.6 529.25 550.3 529.6 549.6 529.6 548.4 529.6 547.75 528.85 547.25 528.25 547.25 526.35 547.435546875 516.008203125 548.5 505.85
M 417.9 559.15
L 493.35 571.05 515.45 574.525 526.05 576.2
M 529.425 503.2
L 519.225 535.725 535.075 538.2
M 510.075 467.65
L 602.175 480.75
M 475.6 447.6
Q 475.354296875 447.512890625 475.1 447.425
L 465 461.15
Q 422.5314453125 450.826953125 380.35 448.5 377.45 448.35 375.7 448.65 373.1 449.05 371.6 450.5 369.9 452.2 369.85 454.9 369.8 457.45 371.1 459.75 372.25 461.6 374.45 463.4 375.8 464.55 378.5 466.35
L 427.35 499.1
Q 429.4 500.55 430.3 501.45 431.75 502.95 432 504.6 432.077734375 505.3509765625 431.9 506.15
L 443.05 491
M 431.9 506.15
Q 431.7357421875 506.9044921875 431.35 507.7 430.85 508.7 429.6 510.5 425.9470703125 515.3705078125 422.125 520.55
L 519.225 535.725
M 431.9 506.15
L 421.775 520.5 422.125 520.55
Q 417.7958984375 526.449609375 413.25 532.75 412.5919921875 534.277734375 411.65 534.875
L 411.6 534.95 411.45 535
Q 411.4736328125 534.9859375 411.5 534.975 411.5736328125 534.925 411.65 534.875
L 421.775 520.5
M 411.6 534.95
Q 411.5474609375 534.9609375 411.5 534.975
M 493.35 571.05
Q 487.437109375 575.3419921875 481.45 581.95 477.45 586.35 470 596 460.55 608.5 456.8 614.05 449.8 624.4 446 633.5 443.25 639.7 440 638.5 437.4 622.15 436.35 614.85 435.4 608.95 433.85 605.6 431.65 600.8 427.75 599.35 424.75 598.25 421.35 599.4 418.1 600.5 415.85 603.1 412.25 607.4 411.1 615.25 409.25 627.9 413.75 643.35 416.5 652.9 424.35 670.35 426.25 674.75 428.05 677.15 430.6 680.55 433.85 681.5 437.45 682.6 441.25 680.8 444.7 679.15 447.1 675.75 449.05 673 450.55 668.85 450.8 668.1 452.85 661.5 459.55 640.9 479.9 616.6 503.9833984375 590.0236328125 515.45 574.525
M 630.675 592.725
L 600.5 632.25
Q 590.65 645.2 586.3 652.65 579.35 664.55 577.6 675.5
L 569 645.1
Q 567.6 640.15 565.45 637.25 562.6 633.5 558.85 634 554.9 634.45 551.85 640 539.4 663.1 558.75 701.75 561.65 707.5 564.65 710.55 568.75 714.75 573.35 714.6 578.4 714.45 582.35 709.4 585.1 705.9 587.75 699.25 594.65 681.65 604.5 663.1 622.470703125 629.2583984375 649.55 595.7
M 652.2 441
Q 639.8291015625 443.9275390625 627.6 443.725"/>
</defs>

<g transform="matrix( 1, 0, 0, 1, 0,0) ">
<use xlink:href="#Layer1_0_FILL"/>
</g>

<g transform="matrix( 1, 0, 0, 1, 0,0) ">
<use xlink:href="#Layer0_0_FILL"/>

<use xlink:href="#Layer0_0_1_STROKES"/>
</g>
</svg>
