
<svg xmlns="http://www.w3.org/2000/svg" version="1.1" xmlns:xlink="http://www.w3.org/1999/xlink" preserveAspectRatio="none" x="0px" y="0px" width="1280px" height="720px" viewBox="0 0 1280 720">
<defs>
<g id="Layer2_0_FILL">
<path fill="#FFFFFF" stroke="none" d="
M 1280 720
L 1280 0 0 0 0 720 1280 720 Z"/>
</g>

<g id="Layer0_0_FILL">
<path fill="#000000" stroke="none" d="
M 553.95 241.7
Q 551 241.7 548.9 243.75 546.85 245.85 546.85 248.8 546.85 251.75 548.9 253.8 551 255.9 553.95 255.9 556.9 255.9 558.95 253.8 561.05 251.75 561.05 248.8 561.05 245.85 558.95 243.75 556.9 241.7 553.95 241.7
M 619.75 263.7
Q 621.65 261.65 621.65 258.7 621.65 255.75 619.75 253.65 617.85 251.6 615.15 251.6 612.45 251.6 610.55 253.65 608.65 255.75 608.65 258.7 608.65 261.65 610.55 263.7 612.45 265.8 615.15 265.8 617.85 265.8 619.75 263.7 Z"/>
</g>

<path id="Layer0_0_1_STROKES" stroke="#000000" stroke-width="1" stroke-linejoin="round" stroke-linecap="round" fill="none" d="
M 592.85 721.85
Q 593.05 718.7 592.5 714.85 592.1140625 712.2935546875 592.1 711.875 581.8826171875 710.508984375 571.775 708.425 569.25390625 707.9111328125 566.75 707.35 560.9 706.15 559.6 703.1 558.8 701.3 559.85 697.35
L 569.475 661.275
Q 555.8361328125 654.5998046875 551.5 643.35 548.2 634.8 550.5 623.15 551.7 617.15 556.75 602.85 559.60546875 595.0138671875 562 587.25 551.35 605.8 538.25 614 530.2 618.9 521.15 619.8 511.4 620.75 503.75 616.6 494.05 611.5 488 599 481.5 585.65 482.05 570.35 482.6 554.95 490.1 542.1 492.8 537.5 496.9 532.45 499.45 529.25 504.6 523.5
L 535.95 488.025 560.175 460.6
Q 555.2001953125 454.78359375 551.25 448 545.9 438.95 545.6 432.1 545.4 427.6 547.1 423.7 548.95 419.5 552.7 416.65 539.4544921875 410.8025390625 528 401.95 506.4 385.3 497.25 362.35 487.45 338.1 494.8 311.95 502.35 285 525.3 271.55 518.3 261.8404296875 518.3 249.2 518.3 233.1 529.65 221.7 531.988671875 219.371484375 534.525 217.525 519.7322265625 199.9236328125 519.125 177.05 518.512890625 154.1552734375 525.95 133.825 533.395703125 113.498046875 552.15 99.35 569.8 86.1 592 79.85 629.55 69.3 679.85 78.6 709.56640625 83.96640625 734.2 94.775 743.2935546875 98.7638671875 751.7 103.5 758.1568359375 107.1306640625 764.25 111.475 781.929296875 108.8466796875 799 102.75 802.65 101.45 803.9 101.1 806.7 100.25 809 100.1 811.7 100 814.05 101 816.65 102.05 818 104.1 819.6 106.6 819.05 110.05 818.55 113.25 816.5 115.85 814.7 118 811.65 119.9 809.95 120.9 806 122.85
M 806.1 123.25
Q 810.6 125.3 813.75 129.4 816.9 133.45 817.75 138.35 818.25 141.65 817.6 144.45 816.85 147.7 814.75 149.75 811.2990234375 153.0064453125 804.025 153.1 808.0203125 159.0052734375 811.75 165.425 836.044140625 207.2408203125 814.65 292.9 814.506640625 294.541015625 812.925 304.5 811.340234375 314.4669921875 808.825 329.875 806.303125 345.2673828125 803.5 360.775 800.7017578125 376.29765625 799.1 384.75 794.2 410.95 797.5 432.15 801.5 457.75 817.1 472.75 821.15 476.65 830.75 483.55 840.05 490.25 844.25 494.5 853.3 503.55 857.3 516.35 861.0328125 528.2017578125 859.375 540.05 859.259765625 540.835546875 859.125 541.625 855.99765625 552.8857421875 851.4 560.175 846.8009765625 567.45703125 839.725 574.175 832.6498046875 580.8984375 824 585.05 820.3763671875 586.80390625 816.65 587.8 818.8943359375 593.229296875 819.4 600 820.45 614.1 813.85 627.5 806.8 641.9 793.7 652.55 780.9 662.95 765.1 667.5 749.7 671.95 732.95 670.35 716.7130859375 668.801171875 700.875 662.15 705.4474609375 675.730078125 708.45 683.325 711.7642578125 691.7123046875 712.875 694.9 713.9923828125 698.094921875 712.9 700.875 711.80390625 703.6509765625 706.525 705 702.26015625 706.0908203125 698.35 706.95 699.1 713.9 699.1 721.1
M 629.1 189.6
Q 632.85 187.75 637.15 187.3 641.45 186.85 645.5 187.85 649.7 188.9 653.2 191.3 656.85 193.7 659.25 197.1
M 764.25 111.475
Q 786.6716796875 127.469140625 804.025 153.1
M 734.2 94.775
Q 754.0576171875 135.98125 752.25 192.85 751.6 215.7 747.15 243.95 744.45 261.25 737.8 294.725 741.36875 293.5142578125 745.2 293 752.8 292 759.85 293.85 760.105078125 293.9125 760.35 293.975 776.3501953125 249.9384765625 777.3 203.1 778.2 156.3 764.25 111.475
M 534.525 217.525
Q 544.3529296875 210.35 557.15 210.35 573.25 210.35 584.6 221.7 591.7544921875 228.8544921875 594.425 237.85 596.519921875 234.718359375 599.25 231.85 611.15 219.45 627.95 219.45 644.75 219.45 656.6 231.85 658.2169921875 233.541796875 659.625 235.325 660.9609375 235.059375 662.4 234.1 663.3 233.55 665 232.1 668.45 229.05 669.9 227.4 672.5 224.6 674.325 222.025 667.28515625 183.4494140625 671 143.6 626.9 183.85 574.1 213.55
M 665.1 243.75
Q 671.15 242 677.35 238.1
M 737.8 294.725
Q 734.4072265625 295.8513671875 731.25 297.6 724.85 301.2 720.05 307 715.25 312.85 713 319.85 688.05 281.5 677.3 236.2 675.63359375 229.1298828125 674.325 222.025
M 659.625 235.325
Q 668.5 246.69140625 668.5 261.9 668.5 279.5 656.6 291.9 644.75 304.35 627.95 304.35 611.15 304.35 599.25 291.9 593.6966796875 286.0888671875 590.75 279.125 586.8478515625 277.556640625 584.65 276.6 582.8771484375 275.80390625 581.8 275.4 577.05 273.6 573 273.25 568.2 272.85 564 274.45 559.4 276.2 557 279.85 554.6263671875 283.4708984375 555 288 555.09609375 289.0974609375 555.35 290.25 556.6 295.95 561 299.6 565.15 302.95 571 303.8 576.4 304.6 582 303.1
M 684.7 326.1
Q 684.7 332.75 680.3 337.4 675.9 342.1 669.65 342.1 663.4 342.1 659 337.4 654.6 332.75 654.6 326.1 654.6 319.45 659 314.75 663.4 310.1 669.65 310.1 675.9 310.1 680.3 314.75 684.7 319.45 684.7 326.1 Z
M 652 305.5
Q 647.6 311 645.8 318.1 645.5880859375 318.953515625 645.425 319.8 644.207421875 325.99140625 645.35 332.1 645.601953125 333.4662109375 645.975 334.8 647.4736328125 340.303125 650.9 345.1 651.6173828125 346.095703125 652.4 347.025 656.196484375 351.590625 661.35 354.5
M 552.7 416.65
Q 562.872265625 421.1353515625 574.1 423.85 605.78125 431.603125 638.025 424.3 646.7396484375 422.3263671875 655.5 419.25 662.81640625 416.671875 669.6 413.55 685.9251953125 405.9986328125 699.125 395.25 711.2609375 385.3798828125 720.75 372.8
L 723.85 373.75
M 762.7 380.5
L 763.7 383.35
Q 764.4845703125 384.90625 766.05 385.95 769.05 387.9 771.85 386.6 772.7232421875 386.16328125 773.425 385.475 774.18359375 384.75390625 774.75 383.75 775.75 381.9 775.85 379.75 775.85 375.85 773.35 371.85 769.5 365.45 762.65 361.75 755.7 358 748.25 358.35 740.75 358.65 734.2 362.95 727.65 367.25 724.25 374 723.05 376.35 722.8 378.5 722.5 381.05 723.6 382.85 724.85 385.1 727.75 385.85 730.068359375 386.408203125 732.35 385.75 732.725390625 385.64140625 733.1 385.5 735.25 384.65 737.55 382.7 739 381.5 741.45 378.75
L 742.6 376.15
M 732.35 385.75
Q 729.6 386.9 727.55 389.25 725.55 391.45 724.5 394.35 722.7 399.75 724.35 406.1 725.8 411.4 729.5 412.75 730.3640625 413.0216796875 731.3 413 732.2375 412.9791015625 733.25 412.65 735.15 412.05 736.5 410.6 738.480078125 408.7099609375 740.025 404.875 740.1849609375 404.4498046875 740.45 403.5
M 766.3 363.35
Q 779.4 350.8 782.1 328.6 783.5 317.8 780.85 310.85 778.4 304.5 772.55 299.9 767.198046875 295.7533203125 760.35 293.975
M 741.45 378.75
Q 741.3326171875 382.425390625 741.6 384.45 742.15 388.7 744.25 391.35 746.55 394.45 750.65 395.3 754.75 396.15 758.25 394.25 761.65 392.35 763.1 388.45 763.9875 385.9462890625 763.7 383.35
M 763.25 403.8
L 763.8 405.975
Q 764.9 407.7 766.95 408.5 768.95 409.2 771 408.75 772.6646484375 408.2681640625 774.025 407.025 774.2142578125 406.8419921875 774.4 406.65 775.8 405.15 776.6 403.1 777.9 399.5 777.1 395.1 776.409375 390.2166015625 773.425 385.475
M 731.3 413
Q 730.8232421875 417.0099609375 731.2 419.6 731.8 423.5 734.35 425.35 736.45 426.9 739.5 426.75 742.1 426.6 744.85 425.25 746 428.45 749.05 430.4 752.15 432.4 755.5 432 758.85 431.7 761.55 429.2 764.2 426.75 764.75 423.35 767.35 423.7 769.85 422 772.15 420.3 773.25 417.6 774.8791015625 413.5521484375 774.025 407.025
M 740.025 404.875
Q 740.359375 407.8373046875 740.8 409.6 741.5 412.15 742.85 413.85 744.65 416.1 747.4 417.1 750.15 418.1 753 417.6 755.65 417.15 758 415.4 760.3 413.75 761.75 411.25 762.997265625 408.96328125 763.8 405.975
M 699.125 395.25
Q 702.949609375 397.6025390625 705.6 402.05 708.1 406.3 709.35 412.1 711.0240234375 419.800390625 710.2 427.75 724.5 425.5 735.85 433.6 746 440.8 752.25 453 755.75 459.7 761.6 476.3 767 491.55 771.6 499.25 774.65 504.4 780.75 512.25 788.2 521.85 790.35 525 802.55 542.75 805.35 563.75 806.141796875 569.748828125 806 575.2 813.7875 580.862890625 816.65 587.8 810.706640625 589.36875 804.5 589
M 710.2 427.75
Q 710.052734375 429.293359375 709.8 430.85 708.2 440.45 703.45 449.325 705.241015625 449.1607421875 706.85 449.35 710.35 449.8 713.65 452.1 716.55 454.1 719 457.25 724.55 464.2 726 473.35 727.4484375 482.53984375 723.75 491.325 725.2775390625 493.068359375 726.9 494.85 728.52890625 496.630078125 730.25 498.45 740.5859375 509.405078125 746.625 516.075 751.81875 521.7876953125 753.85 524.35 765.85 539.55 770.3 555.55 775.5 574.1 768.85 589 763.2 601.45 750.25 608.6 737.5 615.6 723.5 614.35 715.094140625 613.6083984375 707.35 610.125 711.45 622.6 712.45 629.25 713.2083984375 634.2890625 712.75 638.65 731.6 641.25 749 635 766.5 628.7 781.25 618 795 607.95 800.6 597.25 805.7119140625 587.6521484375 806 575.2
M 669.6 413.55
Q 676.9708984375 422.4849609375 678.25 436.85 678.75 442.6 678.25 449.6 677.9 454.45 677.1 463.6 678.6939453125 462.100390625 680.4 460.7 687.05 455.2 694.85 451.75 699.5732421875 449.696484375 703.45 449.325
M 668.85 496.25
Q 662.55 494.55 655.75 495.1 653.0853515625 495.25078125 651.175 495.95 649.2685546875 496.6318359375 648.1 497.85 646.75 499.3 646.35 501.45 646 503.4 646.5 505.5 647.1482421875 508.395703125 650.6 512.2 651.387890625 509.942578125 654.15 509.1 656.9 508.3 659.5 509.35 661.65 510.35 663.65 512.65 664.85 514.1 666.75 517.1 680.6109375 537.741796875 696.4 555.15 698.8115234375 549.051171875 699.7 541.8 700.9984375 531.3646484375 698.525 519.875 698.4291015625 519.40859375 698.325 518.95 695.2884765625 508.8134765625 693.9 504.6 693.6107421875 503.711328125 693.325 502.85 690.8712890625 495.4611328125 688.5 489.6 687.2 486.25 686.15 484.35 684.7 481.65 682.75 479.85 679.6 477.05 673.75 475.5 670.4052734375 474.5255859375 667.7 474.45 665.266796875 474.3611328125 663.35 475 660.8 475.85 659.15 478.05 657.4619140625 480.2685546875 657.825 482.675 658.5630859375 482.4572265625 659.35 482.35 662.55 482.05 667.1 483.6 670.75 484.85 672.5 485.6
M 657.825 482.675
Q 656.48828125 483.061328125 655.3 483.8 653.3 485 652.1 486.85 651.2 488.2 650.775 489.8 650.6375 490.3375 650.55 490.9 650.2 493.2 651.175 495.95
M 677.1 463.6
Q 672.4396484375 467.9951171875 667.7 474.45
M 723.75 491.325
Q 713.7724609375 479.9109375 708.25 470.4 706.1142578125 470.908203125 703.85 471.85 693.6 476 686.1 483.6
M 714.35 469.85
Q 711.44375 469.640234375 708.25 470.4
M 726.9 494.85
Q 720.55 495.5 714.5 500.25 710.65 503.15 704.975 510 708.472265625 512.865234375 715.25 519.25
L 737.65 540.7 744.75 547.5
M 693.325 502.85
Q 698.8701171875 505.19453125 704.85 509.9 704.9119140625 509.9505859375 704.975 510
M 650.6 512.2
Q 650.1125 513.4169921875 650.425 522.375 650.73203125 531.3462890625 656.1 548.05 661.4708984375 564.74296875 677.2 578.05 673.391796875 568.5580078125 672.6 557.7 672.225 552.752734375 672.5 547.825 669.2451171875 540.401171875 668.6 533.95 667.9 527.3 669 521
M 678.85 534.5
Q 676.8 548.6 680.35 562.35 681.4 566.85 683.85 567.85 685.9 568.7 688.35 567.25 690.35 566 692 563.6 694.6248046875 559.694921875 696.4 555.15
M 650 520.85
Q 631.45 524.05 612.5 523.05 593.55 522.05 575.25 517.05 575.9677734375 519.0072265625 576.1 521.85 576.4 526 574.35 528.35 574.2908203125 528.4169921875 574.225 528.475 573.290625 536.8728515625 571.925 545.15 570.7271484375 552.3091796875 569.225 559.4 574.3248046875 558.28359375 577.8 551.2 581.2685546875 544.112109375 581.85 542.175 582.440234375 540.24453125 583.6 540.25 584.9 540.25 585.9 542.45
L 593.25 559.1
Q 594.6 562.1 595.15 563.7 596.05 566.35 596.1 568.5 592.1 568.9 588.25 567.35 593.25 579.5 601.1 589.25 599.55 590.25 597.5 590.2 595.45 590.15 593.85 589 597.6177734375 600.398828125 605.35 608.7 605.96484375 609.316796875 607.025 610 608.0841796875 610.6796875 611.65 610.65 615.2240234375 610.6283203125 617.775 609.575 620.3171875 608.5142578125 621.7 605.175 623.0939453125 601.8447265625 625.25 597.75 626.4 595.4 626.75 594.2 627.4044921875 592.1447265625 627.225 590.475 627.036328125 588.8154296875 625.05 588.1 623.0681640625 587.379296875 621.4 589.05 625.75 577.65 632.1 568.75 631.4 567.55 628.75 569.15 625.9 570.9 625 570 624.15 569.05 625 567.25
L 636 540.1
Q 636.75 538.35 637.75 538.5 638.45 538.5 639 539.6 647.3 553.45 655.35 567.1
L 649.1 567 663 588.35 655.35 587.25
Q 655.65 593.05 659.35 597.85 663.05 602.65 668.5 604.35 674 606.15 679.85 604.35 685.65 602.55 689.1 598
M 707.35 610.125
Q 702.57578125 607.9890625 698.05 604.8 686.5 596.6 680 584.1 678.4380859375 581.1484375 677.2 578.05
M 672.5 547.825
Q 672.9966796875 538.9919921875 675.6 530.25
M 746.625 516.075
Q 747 529.25 747.1 531.85 747.1 535.65 748.35 537.35 749.25 538.65 750.75 538.9 752.35 539.2 753.25 538.1 753.85 545.15 753.5 550.75 753.2 553.9 754.1 555.25 754.3 555.45 755 556.1 755.55 556.7 755.85 557.1 756.6 558.1 756.6 560.6 756.45 565.4 754.1 568.25 752.85 569.9 750.85 570.6 748.75 571.35 746.85 570.6 744 569.55 742 564.6 737.25 553.35 737.65 540.7
M 569.475 661.275
Q 578.3296875 665.5994140625 591.1 668 612.6 671.95 634.55 671.65 656.45 671.35 677.85 666.85 689.5 664.4 697 660.4 706.75 655.2 710.5 647 712.2876953125 643.1947265625 712.75 638.65
M 700.875 662.15
Q 700.396484375 660.73828125 699.9 659.25
M 592.1 711.875
Q 611.671875 714.5 631.65 714.5 652.0099609375 714.5 671.975 711.775 684.3111328125 710.08203125 696.5 707.35 697.4103515625 707.158203125 698.35 706.95
M 671.975 711.775
L 672.75 721.85
M 553.6 184.1
Q 560 179.95 568 180.35 575.9 180.95 581.85 186
M 584.65 276.6
Q 586.7830078125 274.4685546875 588.5 272.175 587.4 267.2837890625 587.4 261.9 587.4 248.3548828125 594.425 237.85
M 590.75 279.125
Q 589.3201171875 275.7865234375 588.5 272.175
M 621.65 258.7
Q 621.65 261.65 619.75 263.7 617.85 265.8 615.15 265.8 612.45 265.8 610.55 263.7 608.65 261.65 608.65 258.7 608.65 255.75 610.55 253.65 612.45 251.6 615.15 251.6 617.85 251.6 619.75 253.65 621.65 255.75 621.65 258.7 Z
M 561.05 248.8
Q 561.05 251.75 558.95 253.8 556.9 255.9 553.95 255.9 551 255.9 548.9 253.8 546.85 251.75 546.85 248.8 546.85 245.85 548.9 243.75 551 241.7 553.95 241.7 556.9 241.7 558.95 243.75 561.05 245.85 561.05 248.8 Z
M 518.25 208.1
Q 519 212.6 521.5 216.55 524 220.45 527.75 223.1
M 507 222.85
Q 509.05 226.8 512.9 229.4 516.7 232 521.1 232.5
M 519.125 293.175
Q 518.858984375 293.1423828125 518.6 293.125 514.9822265625 292.9162109375 511.35 295.85 509 298 506.35 302.5 502.35 309.2 501.75 313.85 501.3 317.35 502.6 319.5 503.55 321.05 505.4 321.9 507.25 322.7 509.25 322.5 512.75 321.95 515.85 319 517.95 316.9 520.75 312.1 524.25 305.95 524.25 301.6 524.25 298.75 522.75 296.35 521.31953125 293.9806640625 519.125 293.175 Z
M 555 288
Q 540.2828125 287.2828125 529.65 276.65 527.2111328125 274.2111328125 525.3 271.55
M 645.425 319.8
Q 635.603125 321.6841796875 623.6 321.975
L 623.6 326.6
Q 623.4 329.35 621.85 330.6 620.75 331.4 618.1 331.6 612.6 331.9 609.35 331.5 607.1 331.25 606 330.25 604.35 328.95 604.35 326.1 604.3 325.4 604.35 323.85 604.45 322.4 604.35 321.5 596.04375 320.65078125 589.025 320.025 589.15 324.65 588 328.1 587.55 329.95 586.25 330.6 585.85 330.85 585.15 330.9 584.4 330.85 584 330.85 583.1 330.75 577.5 330.35 575.1 330.05 574.5 329.9 572.85 329.5 571.85 328.6 570.15 327.2 569.85 323.75 569.8 322.8 569.95 321.1 570.077734375 319.43984375 570.1 318.625 566.764453125 318.4322265625 564 318.35 559.8 318.25 557.35 318.65 554.9181640625 319.0552734375 553.1 320.025 553.0359375 320.0662109375 552.975 320.1 552.7685546875 323.2201171875 554.5 326.25 556.1 329.15 559 331.1 561.45 332.9 564.95 334.1 567.4 334.9 571.5 335.75 581.6 337.65 594.45 338 602.45 338.25 617.6 337.85 627.05 337.6 631.75 337.2 639.65 336.5 645.975 334.8
M 552.975 320.1
Q 552.1787109375 320.5419921875 551.5 321.1 548.45 323.65 547.7 328.35 547.1 332.35 548.25 336.85 551.35 348.5 562.1 357.1 571.75 364.85 585 368.35 590.0857421875 369.7025390625 595.15 370.375 597.01328125 364.4986328125 602.6 359.95 607.45 356 614.35 353.6 622.55 350.75 630.35 350.95 639.15 351.15 645.65 355.3 649.533203125 351.51640625 652.4 347.025
M 589.025 320.025
Q 577.9732421875 319.046875 570.1 318.625
M 595.15 370.375
Q 599.431640625 370.93125 603.7 371 613.55 371.15 622.35 368.6 631.75 365.9 639.5 360.4 642.840234375 358.0349609375 645.65 355.3
M 623.6 321.975
Q 614.58984375 322.185546875 604.35 321.5
M 590 427.35
Q 585.3 431.2 583.75 436 582.4 439.9 582.9 444.95 583.25 448.65 584.85 454.1 590.177734375 471.576953125 599.675 486.975 625.2576171875 496.07421875 650.775 489.8
M 560.175 460.6
Q 560.3369140625 460.7888671875 560.5 460.975 567.319921875 468.8423828125 576.05 474.925 584.2751953125 480.68125 594.2 484.85 596.9365234375 485.9986328125 599.675 486.975
M 576.05 474.925
L 572.1 488.25
M 558.35 495.75
Q 563.1 495.85 565.6 496.25 569.6 496.85 572.35 498.6 572.5076171875 498.6966796875 572.65 498.8 574.15 498.45 575.2 497.85 576.2 497.3 576.5 496.25 577.2 494.35 575.75 492.25 573.2 488 567 486.5 560.7740234375 484.623046875 554.5 486.05 553.9283203125 486.1896484375 553.35 486.35 546.15 488.35 542.5 493.85 540.2 497.35 539.55 502.45 539.05 506.3 539.5 511.85 539.6208984375 513.4046875 539.8 515.625 539.98359375 517.83203125 540.225 520.7 540.6525390625 525.683984375 539.725 529.075 539.594921875 529.5751953125 539.425 530.05 538.4216796875 544.137890625 539 558.5 539.1041015625 560.186328125 539.225 561.5 550.5015625 555.1560546875 557.825 545.125 556.7056640625 537.723046875 555.55 527.85 558.509375 526.6298828125 561.575 526.075 564.6416015625 525.5142578125 565.425 525.525 565.627734375 525.530078125 565.825 525.625 566.423828125 525.8912109375 567.05 526.875 567.89921875 528.2009765625 568.35 528.75 569.45 530 571.35 529.85 573.1046875 529.6603515625 574.225 528.475
M 638.025 424.3
Q 645.5052734375 439.7173828125 645.8 457.45 646.05 475.55 638.75 491.35
M 560.5 460.975
Q 556.3517578125 473.117578125 554.5 486.05
M 535.95 488.025
Q 536.07109375 488.4421875 536.35 489 538.55 492.5 542.75 492.75
M 486.35 550.5
Q 489.15 549.95 491.35 547.9 493.5 545.85 494.35 543.1 495.2 540.1 495.45 539.55 496.3 537.65 497.75 537.35 498.45 537.3 499.55 537.6 500.95 537.95 501.35 538 502.75 538.05 504.2 537.05 505.45 536.2 506.35 534.75 506.8 534 507.6 531.95 508.4 530.05 509 529.1 509.75 527.95 511.35 526.2 513.25 524.2 513.85 523.35 516.05 520.65 516.8 517.2 517.6 513.7 516.75 510.35
M 483 564.35
Q 490.2 564.2 495.75 560 501.5 555.25 502.2 548.85 519.17578125 529.6970703125 539.8 515.625
M 557.825 545.125
Q 557.8857421875 545.55546875 557.95 545.975 558.4498046875 549.215234375 558.95 551.975 559.4755859375 554.9470703125 560 557.35 561.05 562.4 562.15 565.4 563.684765625 569.6080078125 566.2 572.3 567.839453125 565.878125 569.225 559.4
M 558.95 551.975
Q 557.9919921875 558.683984375 556.25 566 554.8 571.6 551.85 573.35 549.45 574.8 546.3 573.7 543.35 572.6 541.6 570 540.2 567.75 539.6 564.5 539.4546875 563.690625 539.325 562.525 539.2734375 562.0478515625 539.225 561.5
M 566.2 572.3
Q 564.2798828125 579.8171875 562 587.25
M 572.65 498.8
Q 574.6611328125 500.096875 576.1 502 577.65 504.1 578.1 506.5 578.6 508.95 577.75 511.4 576.95 513.9 575 515.5
M 558.35 509.25
Q 564.05 509.45 567.1 510.25 572.1 511.7 574.35 515.25 574.8751953125 516.0294921875 575.25 517.05
M 565.825 525.625
Q 566.15 529.25 568.15 535.7 569.38203125 539.7361328125 571.925 545.15
M 570.75 708.5
Q 569.3 717.7 568.6 720.85"/>
</defs>

<g transform="matrix( 1, 0, 0, 1, 0,0) ">
<use xlink:href="#Layer2_0_FILL"/>
</g>

<g transform="matrix( 1, 0, 0, 1, 0,0) ">
<use xlink:href="#Layer0_0_FILL"/>

<use xlink:href="#Layer0_0_1_STROKES"/>
</g>
</svg>
