
<svg xmlns="http://www.w3.org/2000/svg" version="1.1" xmlns:xlink="http://www.w3.org/1999/xlink" preserveAspectRatio="none" x="0px" y="0px" width="1280px" height="720px" viewBox="0 0 1280 720">
<defs>
<g id="Layer2_0_FILL">
<path fill="#FFFFFF" stroke="none" d="
M 1280 720
L 1280 0 0 0 0 720 1280 720 Z"/>
</g>

<g id="Layer0_0_FILL">
<path fill="#000000" stroke="none" d="
M 800.65 279.55
Q 802.5 277.85 802.5 275.4 802.5 272.95 800.65 271.2 798.85 269.5 796.25 269.5 793.65 269.5 791.8 271.2 790 272.95 790 275.4 790 277.85 791.8 279.55 793.65 281.3 796.25 281.3 798.85 281.3 800.65 279.55
M 705.4 269.7
Q 707.4 267.7 707.4 264.9 707.4 262.1 705.4 260.1 703.4 258.1 700.6 258.1 697.8 258.1 695.8 260.1 693.8 262.1 693.8 264.9 693.8 267.7 695.8 269.7 697.8 271.7 700.6 271.7 703.4 271.7 705.4 269.7 Z"/>
</g>

<path id="Layer0_0_1_STROKES" stroke="#000000" stroke-width="1" stroke-linejoin="round" stroke-linecap="round" fill="none" d="
M 707.85 224.85
Q 729.45 194.45 744.5 160.15 759.6 125.8 767.35 89.35 803.2 113.9 819.05 157.2 826.55859375 177.688671875 827.925 197.85 838.25 179.6 841.15 159.65 844 139.85 840.6 120.75 837.05 101.05 827.35 85.35 817.05 68.65 801.1 58.75 788.5 50.85 770.85 46.45 758.45 43.3 738.1 40.85 701.75 36.55 672.95 36.55 637.8 36.6 608.1 42.85 594.19609375 45.7595703125 581.25 50.1 557.4 108.15 546.25 169.4 535.3453125 229.4001953125 537.15 289.775 543.3994140625 290.757421875 549.35 293.6 563.55 300.6 573.6 316.5 575.65 319.6 576.7 320.7 578.7 322.8 581 323.25 582.5 323.5 584.3 322.95 585.35 322.6 587.5 321.6 611.8 309.65 630.05 290.825 629.03046875 288.000390625 628.35 285.025 626.95 278.9845703125 626.95 272.35 626.95 263.973828125 629.175 256.525 624.0099609375 257.493359375 618.7 256.6 613.3 255.65 608.75 252.85
M 656.6 190.75
Q 665.75 184.25 676.65 181.15 687.6 178.05 698.75 178.85
M 768 183
Q 779.05 181.95 789.9 185.6 800.75 189.25 809 196.75
M 746.6 336.25
Q 757.2 340.25 768.35 338.1 777.2 336.25 781.1 331.35 783.6666015625 328.0873046875 784.05 323.725 784.0935546875 323.07578125 784.1 322.4 784.15 317.3 781.5 313.1 778.5 308.35 773 305.55 767.9 303 761.85 302.6 756.6 302.25 750.35 303.3 746.0951171875 303.9431640625 739.15 305.725 733.878515625 299.68671875 730.8 292.75 730.0904296875 294.4896484375 729.25 296.175 725.4162109375 303.8546875 718.85 310.4 708.57734375 320.7052734375 695.525 324.3 697.021484375 325.0365234375 698.5 325.85
M 784.05 323.725
Q 802.4498046875 322.1001953125 815.95 308.6 820.9380859375 303.6119140625 824.3 297.95 831.3 286.1986328125 831.3 271.55 831.3 267.073046875 830.65 262.875 828.966796875 252.0474609375 822.95 243.025 819.9861328125 238.5361328125 815.95 234.5 800.6 219.15 778.9 219.15 757.2 219.15 741.85 234.5 734.3044921875 242.0455078125 730.475 251.125 734.65 260.87734375 734.65 272.35 734.65 283.34921875 730.8 292.75
M 802.5 275.4
Q 802.5 277.85 800.65 279.55 798.85 281.3 796.25 281.3 793.65 281.3 791.8 279.55 790 277.85 790 275.4 790 272.95 791.8 271.2 793.65 269.5 796.25 269.5 798.85 269.5 800.65 271.2 802.5 272.95 802.5 275.4 Z
M 707.4 264.9
Q 707.4 267.7 705.4 269.7 703.4 271.7 700.6 271.7 697.8 271.7 695.8 269.7 693.8 267.7 693.8 264.9 693.8 262.1 695.8 260.1 697.8 258.1 700.6 258.1 703.4 258.1 705.4 260.1 707.4 262.1 707.4 264.9 Z
M 629.175 256.525
Q 632.8658203125 244.1154296875 642.7 234.25 658.5 218.5 680.8 218.5 703.1 218.5 718.85 234.25 726.521484375 241.921484375 730.475 251.125
M 630.05 290.825
Q 633.93203125 301.63203125 642.7 310.4 646.078125 313.778125 649.75 316.425 659.4609375 315.2451171875 669.5 316.5 683.340625 318.2357421875 695.525 324.3
M 673.075 349.8
Q 673.3728515625 349.85 673.85 349.75 673.5798828125 349.7150390625 673.3 349.75 673.183203125 349.7666015625 673.075 349.8 672.883203125 349.866796875 672.75 350 672.45 350.25 672.25 351.25 671.85 354.75 671 362 670.7 363.55 671.25 364.25 671.7 365.05 673.1 365.5 675.9 366.2 682.25 366.5 687.85 366.65 693.6 366.5 695.95 366.5 697.1 365.5 697.7 364.9 697.95 363.95 698.1 363.45 698.25 362.1 698.6 358.6 698 354.25 697.65 352.05 696.75 351.25 695.6 350.1 692.6 350.1 677.714453125 349.8708984375 673.85 349.75
M 642.775 391.575
Q 650.3162109375 386.846484375 659.35 384.95 668.3 383 677.25 384.25 686.15 385.55 694.2 389.9 701.8775390625 394.048828125 707.7 400.375 707.7703125 400.377734375 707.85 400.375 713.230859375 400.4666015625 720.475 401.675 721.3708984375 401.828515625 722.3 402 727.1 402.95 736.7 405.05 754.25 408.55 764.35 404 767.65 402.55 769.9 400.3 772.5 397.75 773.1 394.75 774.45 387.7 765.6 379.35 764.1498046875 377.94609375 762.675 376.575 731.9 380.4 701.4 377.45 671.003515625 374.469921875 642.125 365.225 641.328125 367.90234375 640.75 370.85 638.507421875 383.3794921875 642.775 391.575 642.8865234375 391.79296875 643 392 647.7 400.35 658.8 403.45 668.2 406.05 679.75 404.5 686.55 403.65 700.25 401.05 704.168359375 400.511328125 707.7 400.375
M 762.675 376.575
Q 752.5298828125 367.2990234375 740.75 360
L 737.75 366.35
Q 736.8 367.9 736.35 368.25 735.4 369 733.5 369 724.55 369.4 716.6 368.1 715.15 367.9 714.75 367.25 714.25 366.75 714.25 365.25 714.1 363.25 714.1 359.25 714.1 357.5 714.25 356.65 714.45 355.25 715.1 354.25 716.1 352.85 718.75 351.95 721.6328125 350.947265625 722.675 350.425 710.5072265625 345.0017578125 697.5 341.75 668.2 334.65 653.25 347.25 645.59140625 353.7740234375 642.125 365.225
M 740.75 360
Q 737.4619140625 357.9771484375 734.05 356.1 728.45390625 353.0197265625 722.675 350.425
M 838.6 355.75
Q 838.6 364.35 832.7 370.45 826.85 376.55 818.55 376.55 810.25 376.55 804.35 370.45 798.5 364.35 798.5 355.75 798.5 347.15 804.35 341.05 810.25 334.95 818.55 334.95 826.85 334.95 832.7 341.05 838.6 347.15 838.6 355.75 Z
M 628.35 285.025
Q 653.5 278.8 679.75 281.7 705.95 284.6 729.25 296.175
M 830.65 262.875
Q 839.6 261.55 847.6 258.35
M 828.75 253.75
Q 832.55 251.9 836.5 248.55 839.35 246.15 843.35 242
M 824.3 297.95
Q 846 320 854.7 348.2 863.7 377.4 857.1 405 850.05 434.25 826.7 457.05 804.25 478.95 774.1 488 752.875 494.367578125 729.65 494.05 722.064453125 498.3564453125 712.75 500.05 703.6 501.75 693.6 500.75 690.00390625 500.3578125 686.175 499.6 672.9119140625 496.9833984375 656.85 490 642.17109375 483.5779296875 632.5 476.45 631.6296875 475.798046875 630.8 475.15 617.85 465.05 613.025 452.3 607.6984375 448.480859375 602.4 444.3 588.92734375 433.6796875 576.4 419.275 569.587890625 425.395703125 566.95 434.7 564.25 444.4 567.325 453.625 574.170703125 449.0001953125 581.25 448.5 588.7 447.95 596.05 452.05 602.8 455.85 607.75 462.5 611.95 468.3 614.8 476.35 617 482.4 619 491.5 622.5642578125 507.253125 624.175 523.525 650.4591796875 548.151171875 686.2 552.45 721.95 556.75 751 539.5 766.25 530.35 774.75 516.65 775.0775390625 516.1216796875 775.4 515.6 784.1783203125 500.735546875 780.75 486.25
M 822.95 243.025
Q 829.42734375 220.2330078125 827.925 197.85
M 844.95 722.2
Q 850.1169921875 712.3904296875 850.975 701.675 846.884765625 703.3546875 841.6 703.9 837.6 704.35 830.1 704.25 825.2 704.25 822.45 703.85 818.3 703.25 815.35 701.5 812.55 699.8 810.25 696.45 808.55 693.95 806.75 689.85 801.8 678.25 800.85 665.3 799.9 652.45 803.1 640.1 805.85 629.85 811 624.75 814.9 620.95 823.45 617.7 833.41484375 613.8220703125 839.95 612.875 838.15234375 607.86015625 838.35 600.1 838.5 596.05 839.15 593.35 840 589.7 842 587.25 844.15 584.4 847.65 583.45 851.3 582.45 854 584.35 855.8830078125 585.616796875 857.075 588.275 864.35 579.9 868.45 576.2 875.3 570 882.1 567.5 886.6 565.9 889.85 566.5 891.85 567 893.25 568.35 894.8 569.85 895 571.75 895.25 573.3 894.4 575.2 893.95 576.15 892.6 578.35 887.5443359375 585.7779296875 882.65 594.45 890.1876953125 591.5384765625 894.25 590.3 900.9 588.3 906.5 587.85 912.4 587.65 915.5 589.35 917.55 590.55 918.7 592.55 919.95 594.7 919.5 596.85 919.15 598.95 917.2 600.85 915.85 602.2 913.25 603.75 899.85 611.85 894.25 615.65 900.85 615.35 905.25 615.6 911.95 616 917 618 921.3 619.9 922.5 622.75 923.75 625.75 921.5 629 919.45 631.95 915.85 633.5 911.5 635.4 901.65 636.3 891.95 637.25 887.5 639.25 882.65 641.4 877.05 647.1 875.1484375 649.03515625 873.625 650.575 872.45 666.8 871.85 670.05 870.55 677.05 868.6 682.25 866.15 688.5 862.25 693.2 857.95 698.4 852.5 701 851.75859375 701.3626953125 850.975 701.675
M 857.075 588.275
Q 857.605859375 589.48671875 858 591 858.9 594.75 859.05 600.55 859.1 603.8 859.25 610.25
M 686.175 499.6
L 685.75 487.825
Q 669.9001953125 483.592578125 654.35 476.5 643.3603515625 471.4953125 632.5 465.05
L 632.5 476.45
M 729.65 494.05
Q 721.6939453125 493.943359375 713.5 493.05 699.5123046875 491.51640625 685.75 487.825
M 740.35 607.85
Q 730.9345703125 604.3384765625 721.1 603.2 718.1943359375 602.8755859375 715.25 602.75 713.488671875 602.6572265625 712.5 602.575 712.423046875 602.5572265625 712.35 602.55 710.7 602.35 709.6 601.85 706.7 600.55 704.05 595.05 701.15 589.1 698.85 587.5 697.35 586.35 695.85 586.85 694.55 587.25 694.1 589.1 693.6 590.65 694.1 592.75 694.15 592.9 695.25 596.35 696.35 600.15 696.25 603.8 696.165625 607.2578125 695.05 610.075 697.2646484375 610.1408203125 698.75 610.6 700.8 611.2 702.4 612.5 704.1 613.95 704.75 615.75 705.4 617.65 704.55 619.75 703.7 621.85 699.2 623.55 699.6 623.7685546875 700 624 707.6 628.4 712 634 715.023828125 638.012890625 716.225 642.125 716.4177734375 637.346484375 718 632.6 718.75 630.75 719.5 630.1 720.7 629 723.6 629
L 739.05 628.25
Q 741.0921875 597.9302734375 745.5 567.6
M 712.5 602.575
Q 712.522265625 600.5357421875 713 597 713.7 591.2 715.6 588.6 716.4 587.5 717.4 586.95 718.55 586.3 719.6 586.75 720.75 587.2 721.25 588.85 721.9 590.7 721.6 594.1 721.5001953125 595.54609375 721.1 603.2
M 775.4 515.6
Q 778.7 523.5 783.6 538.35 785.3 543.5 785.9 546.4 786.85 550.9 786.35 554.6 786.2 556.65 785.1 558.1 783.65 560.05 780.8 559.85 778.1 559.7 776.25 557.85 774.65 556.35 773.65 553.75 773 552.2 772.25 549
L 783.2 605.675
Q 784.740625 605.409765625 786.25 605.25 795.85 604.3 805.2 607.75 814.55 611.25 821.1 618.25
M 783.2 605.675
Q 776.0984375 606.9490234375 768.45 610.65 761.6 613.95 752.25 620.35
M 721.7 613.9
Q 721.7 616.45 720.15 618.2 718.65 620 716.5 620 714.35 620 712.8 618.2 711.3 616.45 711.3 613.9 711.3 611.35 712.8 609.55 714.35 607.8 716.5 607.8 718.65 607.8 720.15 609.55 721.7 611.35 721.7 613.9 Z
M 617.85 551
Q 622.9876953125 575.241796875 617.375 600.125 619.015234375 600.64375 620.6 601.25 627.95 604.15 633.75 609.05 638.9021484375 613.3642578125 645.25 620.925 667.4 611.9 690.75 610.25 693.164453125 610.0201171875 695.05 610.075
M 675.6 652.75
Q 681.4 658.65 684.65 662.7 689.3 668.5 691.85 674 693.2478515625 677.1453125 693.625 680.15 700.203515625 678.0919921875 702.6 672.75 704.8 667.7 704.1 662.1 704.014453125 661.3822265625 703.875 660.65 702.393359375 652.44765625 695 642.85 689.95 636 685.1 634.25
M 668.15 675.525
Q 666.6955078125 673.7771484375 665 673 663.1 672.1 660.45 672.15 659.9892578125 672.15 658.5 672.3 658.35 685.6 651.5 696.35 647.95 702.25 643.75 702.25 640.6 702.3 638.15 699.15 636.25 696.7 635.1 692.75 631.8294921875 681.25703125 631.825 669.4 631.828515625 661.845703125 633.15 654.15 636.2654296875 635.961328125 645.4 621.1 640.5763671875 620.2888671875 634.025 620.075 627.463671875 619.8560546875 620.8 620.175 614.1462890625 620.4984375 607.5 625 600.3 629.7 595 641.75 587.5 658.35 586 676.35 584.3 695.9 593.1 705.85 596.35 709.45 601.45 712.1 605.3 714.1 611.25 716 629.65 721.8 641.6 716.75 647.3990234375 714.26875 652.125 709.225 655.573828125 705.52578125 658.45 700.45 662.9962890625 692.306640625 668.15 675.525 668.7423828125 676.2548828125 669.3 677.15 670.4 678.95 672.25 682.75 675.45 688.55 679.85 690.85 682.5 692.15 685.35 692 688.4 691.85 690.5 690.1 693.65 687.6 693.75 682.7 693.780078125 681.435546875 693.625 680.15
M 658.5 672.3
Q 657.40390625 672.4091796875 655.75 672.6 641.5080078125 674.34296875 631.825 669.4
M 707.6 720.35
Q 711.75 706.55 713.65 688.55 714.7494140625 678.2548828125 715.35 655.075 714.8111328125 656.1009765625 714.1 657 712.7 658.8 710.6 659.8 708.45 660.8 703.875 660.65
M 716.225 642.125
Q 717.1521484375 645.282421875 717 648.5 716.8171875 652.26796875 715.35 655.075
M 683.5 617.85
Q 690.7583984375 618.805078125 699.2 623.55
M 652.125 709.225
Q 653.8 711.05 656.45 711.8 658.4 712.35 661.5 712.5 670.85 713.15 682.5 713 684.3 713 685.1 713.15 686.5 713.35 687.35 714.1 688.5 715.2 688.7 717.8 689 721.3 689.25 722.1
M 699.5 711.75
Q 700 716.55 700 721.75
M 739.05 628.25
Q 735.8392578125 676.0107421875 738.5 723.75
M 862 616.5
Q 865.95 619.75 867.25 626.1 868.2 630.15 868 637.35
M 882.65 594.45
Q 881.238671875 596.9224609375 879.85 599.5
M 873.625 650.575
Q 868.3375 655.9177734375 867.6 656.5 865.304296875 658.4130859375 862.75 659.925 862.349609375 668.0529296875 862.1 670.3 861.65 674.1 860.25 676.75 858.7 679.9 855.5 681.55 852.15 683.3 849.1 682.1 845.85 680.9 843.25 676.1 840.8390625 671.3841796875 839.65 665.15 838.5939453125 659.596484375 838.5 652.85 838.15 642.05 840.1 630.5 841.15 624.15 841.05 621.15 840.9 615.9 839.95 612.9
L 839.95 612.875
M 862.75 659.925
Q 858.9599609375 662.15625 854.6 663.5 847.3 665.8 839.65 665.15
M 759.6 577.85
Q 756.8 591.05 759.6 604.25
M 581.25 50.1
Q 563.0529296875 56.209765625 546.75 65.15 546.2392578125 65.4302734375 545.725 65.725 543.6609375 66.873046875 541.65 68.05 523.4837890625 129.93046875 516.7 179.2 508.1953125 240.3744140625 515.275 292.8 516.0044921875 292.428515625 516.75 292.1 524.3 288.8 533.15 289.35 535.1705078125 289.4708984375 537.15 289.775
M 545.725 65.725
Q 529.423828125 53.7236328125 508.2 51.7 485.6 49.6 466.35 59.6 458.55 63.65 457.25 68.6 456 72.95 458.95 77.3 461.75 81.4 466.35 82.85 470.4 84.2 475.55 83.8 476.666796875 83.71796875 478.05 83.525 480.8880859375 83.123046875 484.85 82.25
M 541.65 68.05
Q 515.4431640625 83.4568359375 497.375 105.075 497.028515625 105.5650390625 496.675 106.05 472.27109375 141.2314453125 463.1 200.35 459.65 222.85 458.35 254.25 457.65 272.4 457 308.35 454.8802734375 410.6564453125 431.4 509.75 429.098046875 517.498046875 420.575 522.45 412.0505859375 527.4005859375 401 529.75 393.8 531.3 380.6 532.1 366.15 533 360.1 534 346.1 536.2 333.85 542.45 321.05 549 312 559.1 302.85 569.05 296.5 584.1 290.25 598.3 288.85 612 287.1 629.4 293.05 646.25 299 663.2 311.35 675.35 323.75 687.6 340.9 693 357.0166015625 698.153515625 374.25 695.9 376.859375 688.1876953125 382.6 681.475 388.3466796875 674.7541015625 396.35 670.5 400.15 668.45 403.75 668.1 408 667.65 410.85 669.75 412.65 671.15 413.5 673.45 414.35 675.7 413.85 677.85 412.65 682.85 405 686.85 391.6859375 693.410546875 374.25 695.9 370.5634765625 702.6498046875 369.25 711.275 367.936328125 719.896484375 373.55 724.8
M 478.05 83.525
Q 475.8193359375 84.195703125 473.65 85.2 468.25 87.7 464.1 91.85 461.75 94.1 460.65 96.55 459.35 99.45 460.1 102 461.9 107.7 472.5 108 485.19140625 108 497.375 105.075
M 619.6 236
Q 621.3 239.5 625.75 242 628.65 243.75 633.85 245.1
M 576.4 419.275
Q 568.3052734375 409.92890625 560.6 399 547.2 402.1 533.35 398.65 519.5 395.25 509.1 386.25 498.6 377.25 493.15 364.1 487.7 350.95 488.75 337.25 489.3 329.25 492.05 321.55 494.75 313.95 499.35 307.35 506.1111328125 297.347265625 515.275 292.8
M 635.5 346.6
Q 635.5 355.65 628.8 362.05 622.15 368.45 612.75 368.45 603.35 368.45 596.65 362.05 590 355.65 590 346.6 590 337.55 596.65 331.15 603.35 324.75 612.75 324.75 622.15 324.75 628.8 331.15 635.5 337.55 635.5 346.6 Z
M 632.5 465.05
Q 622.71015625 459.261328125 613.025 452.3
M 504.7 722.4
L 504.7 701.75
Q 504.4994140625 701.00390625 504.3 700.25 501.25 688.75 501.35 675.35 501.35 664.3 503.65 650.55 504.829296875 643.342578125 507.55 626.675 505.1423828125 638.8943359375 500.55 647 495.048828125 656.7046875 490.6 655.6 487.8 654.85 486.7 651.35 485.85 648.4 486.35 644.6 487.35 636.1 490.5 626 492.65 619.1 497 608 515.5970703125 559.757421875 538.4 510.425 538.3466796875 510.4078125 538.3 510.4 535.2 509.9 533.75 507.6 532.6 505.9 532.6 503.25 532.6 497.9912109375 536.95 491
L 549.5 472.5
Q 557.3 461.9 563.25 456.75 565.278515625 454.998046875 567.325 453.625
M 577.85 489.75
Q 575.7 497.5 571.1 505 568.15 509.65 565.75 511.5 562.1 514.45 558 514.1 556.2 513.9 555.25 513.1 554.05 512.1 553.6 509.75 553.1 506.25 554.5 502 555.40234375 499.340625 557.625 495.05 553.85 499.6 552.1 502 551.816015625 502.3609375 551.55 502.7 551.4486328125 502.825390625 551.35 502.95 549.4875 505.2625 548.4 506.35 546.2 508.6 543.85 509.6 541.291015625 510.8794921875 538.4 510.425
M 624.175 523.525
Q 625.07734375 532.798828125 625.35 542.25
M 579.5 576.75
Q 583.5 563.5 584.4 549.65 585.3 535.8 583 522.25
M 645.25 620.925
Q 645.328125 621.0140625 645.4 621.1
M 529.35 624.75
Q 541.7 613 557.6 605.95 573.5 598.9 590.5 597.6 605.37109375 596.3681640625 617.375 600.125
M 507.55 626.675
L 507.85 625.025
Q 508.1419921875 623.369140625 508.4 621.65
M 555.75 720.5
Q 550.15 719.45 546.35 715.5
M 524 702.6
Q 524.95 708.15 527.65 713.1 530.4 718.1 534.6 721.75
M 504.7 701.75
Q 508.113671875 713.6662109375 514.75 722.75
M 639.1 318.5
Q 644.37578125 317.0919921875 649.75 316.425"/>
</defs>

<g transform="matrix( 1, 0, 0, 1, 0,0) ">
<use xlink:href="#Layer2_0_FILL"/>
</g>

<g transform="matrix( 1, 0, 0, 1, 0,0) ">
<use xlink:href="#Layer0_0_FILL"/>

<use xlink:href="#Layer0_0_1_STROKES"/>
</g>
</svg>
