
<svg xmlns="http://www.w3.org/2000/svg" version="1.1" xmlns:xlink="http://www.w3.org/1999/xlink" preserveAspectRatio="none" x="0px" y="0px" width="1280px" height="720px" viewBox="0 0 1280 720">
<defs>
<g id="Layer2_0_FILL">
<path fill="#FFFFFF" stroke="none" d="
M 1280 720
L 1280 0 0 0 0 720 1280 720 Z"/>
</g>

<path id="Layer0_0_1_STROKES" stroke="#000000" stroke-width="1" stroke-linejoin="round" stroke-linecap="round" fill="none" d="
M 329.7 282.15
Q 331.55 284.85 334.55 286.5 336.75 287.8 340.7 289.25 340.755078125 284.8416015625 341.45 280.7 341.4833984375 280.4619140625 341.525 280.225 341.6369140625 279.53359375 341.775 278.85 343.1078125 272.2798828125 345.65 267.2 332.55 239.65 326.6 213.45 320 184.55 322.85 157.75 325.75 131.65 337.1 108.75 344.4 93.75 353.35 84.6 362.996875 74.89375 375.225 66.775 387.45703125 58.667578125 422.55 48.025 457.648046875 37.3720703125 513.725 44.2 554.96640625 49.2302734375 583.45 58.975 593.7041015625 62.466796875 602.3 66.575 614.39609375 72.353125 623.725 77.25 624.2486328125 77.521875 624.775 77.8 632.607421875 81.9255859375 638.4 85.4 653.7 79.15 672.25 75.75 681.2 73.85 684.6 77.85 686.25 79.85 686.05 82.8 685.85 85.65 684.1 87.85 681.6041015625 91.24609375 676.25 93.35 674.2515625 94.1384765625 672.575 94.7 680.7 93.6 686 96 689.2 97.45 691.25 100.3 693.45 103.35 693.25 106.6 693.05 110.4 690.1 113.75 687.25 116.85 683.35 118.4 679.365234375 119.944140625 674.725 119.8 683.373828125 133.705859375 688.15 152.35 692.5 169.15 694.5 194 695.55 207.9 697.5 235.85 699.9373046875 259.7591796875 707.6 278.475 715.2544921875 297.183203125 722.15 311.4 729.0580078125 325.6220703125 739.425 343.4 749.7859375 361.18359375 757.95 369.55 769.2212890625 368.204296875 779.35 367.5 806.35 365.55 826.25 369.85 829.2388671875 370.4943359375 832.1 371.3 848.9859375 376.0427734375 861.45 386.35
L 860.65 385.625
Q 861.053125 385.95859375 861.45 386.3 864.8068359375 381.29375 865.55 377.275 866.2927734375 373.2583984375 866.85 368.325 867.3984375 363.392578125 871.775 361.2 876.1560546875 359.0017578125 880.375 365.7 884.59765625 372.4056640625 882.85 385.15 889.167578125 376.787109375 896.675 369.9 904.1939453125 363.004296875 908.5 365.25 910.35 366.15 911.3 368.35 912.2 370.35 912 372.6 911.9 374.55 911 376.75 910.4529296875 378.15390625 904.625 387.65 898.789453125 397.1447265625 898.55 402.05 899.5802734375 402.7455078125 907.075 396.375 914.5578125 389.99609375 918.1 388.25 921.9 386.35 926.1 387.4 930.6 388.5 931.25 392.25 931.65 394.75 929.35 398.75 926.25 403.95 920.55 410.25 913.95 417.3 910.75 420.85 906.2 425.55 905.5 429.6 904.65 434.35 908.7 440.4 909.85 442.1 912.3 445.5 914.5 448.55 915.5 450.75 917.9 455.75 915.75 459.1 914.7 460.8 912.4 461.6 910.3 462.3 908 462 902.5248046875 461.3376953125 896.15 454.875 900.1748046875 467.92421875 898.9 481.85 897.55 496.05 891 508.25 884.45 520.45 873.3 529.4 862.15 538.35 848.85 542.1 851.65 572.5 833.55 599.6 815.4 626.75 785.4 634.1
M 672.575 94.7
Q 667.349609375 95.5533203125 665.375 95.9 663.399609375 96.24453125 662.6 96.45
M 674.725 119.8
Q 673.0650390625 117.1119140625 671.25 114.6 661.95 101.8 647.25 91.15 643.6625 88.5419921875 638.4 85.4
M 579 297.25
Q 579.35 296.75 580.25 295.85 583.1 293 587.55 292.55 591.9 292.1 595.6 294 599.15 295.7 601.7 299.3 604.1 302.7 605 306.85 606.3 313.45 605.4 320.2 604.45 327 601.5 333.45 603.800390625 334.89765625 605.7 336.9 609.6 341 610.25 346.1 610.85 350.7 608.6 355.65 606.65 360 602.85 363.85 597.6 369.3 589.7 373.5 583.45 376.8 574.5 379.85 568.580078125 381.8521484375 562.575 383.5 569.1939453125 405.21875 563.3 423.5 559.2775390625 436.00234375 551.275 446.325
L 551.3 446.325
Q 567.958984375 439.572265625 581.075 429.125 588.850390625 422.9490234375 595.375 415.475 597.70625 412.793359375 599.925 409.95 600.4193359375 409.3279296875 600.9 408.7 620.144140625 383.6076171875 623.4 353.7 630.41875 351.5064453125 638.3 346.3 645.05 341.75 651.35 333.75 662.45 319.5 664.75 305.85 667.25 290.75 659 276.5 650.7 262.2 636.35 256.85 631.54765625 255.088671875 626.625 254.5 616.748828125 253.34453125 606.4 256.95 602.9623046875 258.14375 599.875 259.7 589.3580078125 265.0021484375 582.8 274.525 544.6 242.95 518.6 199.5 492.55 156 484.95 107.55 457.8166015625 157.625390625 433.9 189.875 409.9833984375 222.124609375 384.65 244.225 385.7478515625 244.1681640625 386.85 244.1 396.7 243.65 403.3 241.75 406.525 240.81015625 409.275 239.475 414.0033203125 237.19140625 417.35 233.75
M 622.45 362.6
Q 635.4703125 368.712890625 639.675 381.5 641.8556640625 388.1255859375 642.475 397.2 673.9484375 386.7263671875 694.775 381.2 694.865234375 381.1724609375 694.95 381.15 704.7603515625 378.55078125 712.2 377.05 736.53984375 372.142578125 757.95 369.55 767.6583984375 379.7251953125 772.35 393.8 776.85 407.35 776.35 422.1 775.3037109375 448.902734375 758.625 475.8 776.8244140625 478.1197265625 798.25 481 815.95 483.45 825.8 483.4 829.7900390625 483.3609375 833.5 483 838.95 466.75 842 454.35 845.6 439.6 846.25 426.35 846.85 411.55 843.65 398.1 840.2 383.6 832.1 371.3
M 833.5 483
Q 844.061328125 481.950390625 852.35 478.25 864.05 472.95 872.05 461.95 879.95 451.05 881.75 438.1 883.6 425.4 879.3 412.65 875.1 400.05 866 390.6 863.8345703125 388.3388671875 861.45 386.3
L 861.45 386.35
M 881.6 441.5
Q 885.85 443.5 894.45 453.05 895.139453125 453.8193359375 895.825 454.525 895.9 454.598828125 895.975 454.675 896.0677734375 454.7703125 896.15 454.875
M 848.775 542.1
Q 848.7421875 538.7916015625 846.975 535.475 845.2025390625 532.152734375 842 530 838.55 527.45 835.5 527.1 833.55 527 831.95 527.85 830.25 528.7 829.5 530.35 828.75 531.8 829.1 533.65 829.45 535.4 830.6 536.75 832.25 538.7 836.35 540.35 842.40859375 542.4853515625 848.775 542.1 848.806640625 542.102734375 848.85 542.1
M 642.475 397.2
Q 643.05078125 405.626953125 642.275 416.175 641.0025390625 433.359765625 630.2 452.725 627.2587890625 458.0017578125 623.6 463.45 613.112109375 479.0908203125 598.95 490.25 590.3560546875 496.9794921875 580 502 563.128515625 510.2154296875 544.675 511.95 533.8103515625 512.9724609375 522.4 511.75 515.7767578125 511.047265625 509.35 509.6 520.5345703125 522.632421875 527 535.675 531.1654296875 537.16953125 536.4 537.35 540.45 537.45 547 536.75 585.55 532.15 620.3 512.9 653.18515625 494.7353515625 676.725 466.875 669.48359375 466.3619140625 664.75 466.3
M 537.5 606.85
Q 555.05 611.25 572.95 610.4 575.588671875 607.1931640625 578.55 603.95 568.64296875 595.19296875 561.65 584.225 560.2419921875 585.93828125 558.35 588.2 554.4 592.8 551.6 594.85 548.5 597.05 545.85 597.25 542.1 597.6 538 593.9 537.8478515625 596.7916015625 537.55 600.425 537.3525390625 602.8498046875 537.075 605.6
L 537.075 605.65
Q 536.56875 610.896484375 535.8 617.35 533.7 634.95 533.6 644.1 533.6 648.9517578125 534.05 653.5 565.4 671.2 603.4 673.8 640.2 676.35 675.35 664.25 709.05 652.7 738.6 628.85 764.784375 607.6884765625 784.775 579.3 779.79921875 565.80390625 769.4 551.35 762.6 541.9 748 525.35 715.1 487.85 694.1 468.35 684.106640625 467.377734375 676.725 466.875
M 694.1 468.35
Q 700.9 446.5 701.15 424.2 701.3994140625 401.9509765625 694.775 381.2
M 640.3 553.25
Q 641.6 549.25 643.7 546.3 645.85 543.4 648.85 541.5 650.85 540.3 654.65 539 659 537.5 660.6 536.75 666.6 533.8 670.1 528.25 672.9 523.75 672.25 520.1 671.75 517.6 669.5 515.25 668.1 513.75 665 511.5 661.15 508.65 658.6 509.35 657.05 509.95 656 511.95 655.35 513.3 654.75 515.75 653.75 519.75 651.9 522.3 649.65 525.5 646.5 525.75 646 525.8 643.6 525.55 641.85 525.35 640.75 525.75 638.7 526.2 636.85 528.75 629.8 537.35 627.75 548.35 631.2224609375 548.108203125 634.35 549.25 637.7142578125 550.466015625 640.3 553.25 640.89140625 553.9115234375 641.45 554.65 644.15 558.25 645.25 563 645.4642578125 563.8724609375 645.65 565.1 657.3876953125 565.2548828125 665.5 564.775 673.6091796875 564.2962890625 675.65 564.35 677.696875 564.401171875 680.35 564.6 682.5630859375 564.98828125 684 565.625 711.7912109375 540.651953125 734 513.525 734.6748046875 512.683984375 735.35 511.85
M 645.65 565.1
Q 646.041796875 567.8857421875 646.25 572.5 648.0095703125 572.659765625 655.125 573.225 662.2423828125 573.7953125 668.95 573.325 675.6537109375 572.84765625 677.5 573.15 680.4453125 573.6302734375 682.5 574.875 684.45 574.6 685.85 573.15 687.3 571.65 687.25 569.85 687 567.45 684.75 566 684.4037109375 565.798828125 684 565.625
M 578.55 603.95
Q 580.8501953125 605.9892578125 583.3 607.9
L 573.85 623
Q 572.9265625 624.567578125 571.95 625.725 571.7673828125 625.9615234375 571.575 626.175 571.47890625 626.2890625 571.375 626.4 571.2591796875 626.52421875 571.15 626.65 570.79140625 627.13203125 570.6 627.85 570.3 629.1 570.5 630.6 570.8 632.6 571.85 634 573.05 635.65 574.75 635.75 576.8 635.75 579.35 633 582.15 629.5 584.85 624.5 585.8 622.9 594.1 607.1 602.45 604.25 606.65 602.6 613.55 599.9 618.6 597 631.560546875 589.5513671875 640.375 578 659.262890625 584.2501953125 676.5 584.6 679.05 584.6 680.55 584.35 682.8 583.95 684.25 582.85 686 581.55 686 579.75 686 578 684.5 576.5 683.63671875 575.56484375 682.5 574.875
M 534.05 653.5
Q 534.9486328125 662.797265625 537.7 670.85 542.4 684.65 552 692.75 558.9 698.7 569.35 702.2 577.25 704.8 589.1 706.5 626.8 711.75 664.95 705 703.1 698.25 736.75 680.35 753.3 671.45 764.35 661.65 777.85 649.7 784.1 635.75 784.4775390625 634.9259765625 784.825 634.1 789.859765625 622.2283203125 790 608.4 790.15 594.3 785.25 580.6 785.02265625 579.9521484375 784.775 579.3
M 758.625 475.8
Q 718.5560546875 470.708984375 694.1 468.35
M 784.825 634.1
Q 793.95 651.25 798.85 660.25 801.7 665.8 802.75 668.6 804.5 673.4 804.35 677.5 804 684.05 798.75 690.55 795.594921875 694.39609375 786.05 703.45 776.5146484375 712.5115234375 765.4 720.85
M 599.875 259.7
Q 603.69609375 192.422265625 601.95 157.1 599.2029296875 101.0787109375 583.45 58.975
M 626.625 254.5
Q 636.29375 210.14296875 635.35 164.1 634.4400390625 119.7984375 623.725 77.25
M 439.25 227.25
Q 445.15 232.5 455 234.3 461.35 235.5 473 235.5 473.7357421875 235.49375 474.45 235.475 490.8783203125 235.31015625 499.5 234.4 501.6517578125 234.172265625 503.725 233.875 515.74375 232.1890625 525 228.35
M 342.5 302.6
Q 346.7189453125 301.6818359375 350.975 300.925 356.39609375 299.9712890625 361.9 299.275 378.1841796875 297.256640625 395.1 297.6 420.2712890625 297.991796875 439.3 304.475 436.35 296.18203125 436.35 286.7 436.35 275.4294921875 440.525 265.825 436.837890625 258.737890625 430.75 252.65 421.23046875 243.13046875 409.275 239.475
M 440.525 265.825
Q 444.61328125 256.4146484375 452.7 248.6 462.391015625 239.2931640625 474.45 235.475
M 361.75 244
Q 364.2435546875 244.184765625 366.775 244.3 375.51015625 244.6890625 384.65 244.225
M 345.65 267.2
Q 349.8181640625 258.9818359375 356.15 252.65 361.1283203125 247.6716796875 366.775 244.3
M 328.7 294.65
Q 334.05 299.15 341.6 299.9 340.901171875 296.1873046875 340.75 292.325 340.7 291.144921875 340.7 289.95 340.7 289.59921875 340.7 289.25
M 442.25 340.7
Q 437.45 342.65 431.9 342.7 426.1 342.75 421.6 339.9 419.5267578125 338.598828125 418 336.8 406.9509765625 342.7 393.45 342.7 371.6 342.7 356.15 327.25 354.6259765625 325.7259765625 354.4 325.4 347.53359375 333.17578125 344.45 343.65 341.306640625 354.1779296875 340.8 366.6 341.000390625 366.5236328125 341.2 366.45 349.45 363.45 365 360.75
L 378.825 358.4 456.475 345.15 485.525 340.2
Q 466.6548828125 338.1943359375 452.7 324.75 447.802734375 320.032421875 444.375 314.725 443.2 314.45 442.25 314.15 441.4609375 313.916796875 440.7 313.7 439.3685546875 313.338671875 438.15 313.05 432.75 311.75 428.25 312.4 427.85 312.45 427.45 312.55 423.75 313.2 420.7 315.15 417.15 317.5 415.5 321.05 414.85 322.35 414.55 323.75 413.65 327.35 415.05 331.45 416.083984375 334.5240234375 418 336.8
M 354.4 325.4
Q 344.2076171875 313.68125 341.6 299.9
M 378.825 358.4
Q 370.8962890625 371.5267578125 368.55 388.1 366.4 403.5 369.35 419.85 372 434.55 378.8 450.05 384.41484375 462.93984375 393.425 477.4 404.0146484375 480.7080078125 415.15 482.8 432.493359375 486.0322265625 449.675 486.05 455.2697265625 486.062890625 460.85 485.725 470.7509765625 485.1541015625 480.6 483.5 480.683203125 483.4861328125 480.775 483.475 472.686328125 476.779296875 466.15 466.9 461.15 459.35 455.75 447.6 449.35 433.6 445.85 422.35 441.55 408.3 440.85 395.85 440 381.65 443.7 368.9 447.75 355.1 456.475 345.15
M 485.525 340.2
L 522.925 331.9 522.925 331.875
Q 522.821875 331.1400390625 522.75 330.45 521.5 317.95 525.5 308.75 528.8 301.35 534.6 297.6 537.8 295.6 541.45 295 544.6708984375 294.441796875 547.625 295.1 548.25 291.0234375 548.25 286.7 548.25 285.6099609375 548.2 284.525 546.401171875 283.9248046875 545.55 283.625 538.849609375 281.3390625 531.1 280.825 525.68125 280.4525390625 519.75 280.95 507.8 282 491.85 286.85 466.3693359375 294.730078125 443.775 306.225 442.4365234375 306.9021484375 441.1 307.6
M 444.375 314.725
Q 443.126171875 312.8001953125 442.075 310.8 441.441796875 312.275390625 440.7 313.7
M 442.075 310.8
Q 440.46171875 307.7291015625 439.3 304.475
M 503.725 233.875
Q 519.6826171875 236.8791015625 531.85 248.6 541.57421875 257.9685546875 545.525 269.625 549.1615234375 265.453125 551.6 260.5
M 531.1 280.825
Q 537.85 277.35 543.15 272.15 544.3994140625 270.9244140625 545.525 269.625 547.5556640625 275.5845703125 548.075 282.15 550.8806640625 280.5072265625 553.95 278.3 556.3 276.6 561.75 272.25
M 537.5 316.25
Q 537.5 317.42890625 537.525 318.5 537.5759765625 323.039453125 537.9 325.55 538.5 330.7 540.5 334.35 542.85 338.6 547.35 340.5 552.15 342.5 556.1 340.35 562.35 336.95 562.35 324.25 562.35 319.1 562 315.7 561.45 311 560.1 307.35 558.5 303.1 555.65 300 552.55 296.6 548.6 295.35 548.1203125 295.208984375 547.625 295.1
M 548.2 284.525
Q 548.167578125 283.3328125 548.075 282.15 546.8099609375 282.8794921875 545.55 283.625
M 601.5 333.45
Q 599.3046875 332.1015625 596.75 331.25 591.2421875 329.4763671875 584.55 330.1 580.4939453125 330.4849609375 576 331.75 567.2 333.9 565 339.25 563.6 342.65 565.3 346.45 566.9 350.2 570.35 352.1 576.35 355.4 585.1 352.85 588.05234375 352.0447265625 591.35 350.725 594.6427734375 349.415625 598.3 346
M 522.925 331.9
Q 523.473046875 336.1361328125 524.775 341.775 525.901953125 346.656640625 527.6 352.6
M 517.75 390.6
Q 535.49921875 389.6943359375 552.5 385.975 557.565234375 384.858984375 562.575 383.5
M 552.5 385.975
Q 553.9822265625 403.564453125 552.55 410.45 551.112890625 417.3412109375 549.7 420.775 548.295703125 424.2029296875 545.35 426 542.9 427.45 539.7 427.25 536.6 427 534 425.35 529.6 422.65 526.1 416.5 517.05 401.15 516.7 381.6 516.400390625 363.3291015625 524.775 341.775
M 554.85 298.75
Q 557.2 294.65 562.4 293.35 567.3 292.1 572.1 293.85 576.2 295.3 579.3 298.4 582.4 301.55 583.6 305.6 584.89765625 309.6 584.875 317.5 584.856640625 325.3619140625 584.55 330.1
M 340.8 366.6
Q 328.3427734375 371.2806640625 321.6 379.5 314.1 388.65 313.6 401.95 313.15 414.45 319 425.85 324.15 436.05 333.9 445.1 342 452.6 353.85 459.75 372.6005859375 470.9142578125 393.425 477.4
M 630.2 452.725
Q 626.15 436.85 620.1 427.5 616.35 421.4 611.45 417 606.15 412.25 599.925 409.95
M 581.075 429.125
L 585.325 439.25
Q 586.6818359375 437.751953125 587.85 436.25 591.5 431.45 593.45 426.1 595.4146484375 420.7208984375 595.375 415.475
M 551.3 446.325
L 556.2 460.15
Q 563.7865234375 456.4869140625 570.75 451.75 571.2984375 451.3638671875 571.825 450.975 580.051953125 445.0623046875 585.325 439.25
M 571.825 450.975
Q 580.35 457.4 587.65 468.65 592.1 475.5 598.95 490.25
M 480.775 483.475
Q 499.7173828125 480.2701171875 515.1 473.45 517.8373046875 472.246484375 520.45 470.925 534.403515625 463.9201171875 544.6 453.85 546.751171875 451.70703125 548.7 449.45 550.035546875 447.91484375 551.275 446.325
M 520.45 470.925
Q 537.252734375 468.441796875 551.85 462.125 554.048828125 461.176953125 556.2 460.15
M 627.75 548.35
Q 624.22734375 548.58828125 620.35 550.25 617.35 551.5 614.05 553.75 612.3 554.95 608.25 558.1 605.572265625 560.153515625 602.9 562.175
L 602.875 562.2
Q 601.9201171875 562.9283203125 600.975 563.65 597.1220703125 566.577734375 593.3 569.45 592.6994140625 569.900390625 592.1 570.35 589.4 571.5 585.65 570.8 583.45 570.4 579.1 568.75 571.6 565.65 568.65 564.15 562.9 561.3 559.05 558.25 559.0359375 557.962890625 559.025 557.675 558.890625 555.042578125 558.75 552.775 558.6376953125 551.185546875 558.525 549.775 558.2845703125 546.50234375 558 544.25 557.7 542.65 557.35 542.1 556.75 540.85 555.6 540.85 553.45 541 552.3 541.35 550.5 541.85 549.85 543.1 549.65 543.55 549.55 544.3 549.45 544.75 549.35 545.6 549.35 547.2552734375 549.875 553.25 549.917578125 553.5923828125 549.95 553.95 549.958984375 554.041796875 549.975 554.125 550.3974609375 558.58203125 550.575 561.875 550.5865234375 562.164453125 550.6 562.45 546.95 563.05 544.65 566.05 544.050390625 566.862890625 543.575 567.725 543.289453125 568.2150390625 543.05 568.725 542.1267578125 570.6345703125 541.75 572.75 541.25 575.75 541.35 581.85 541.17265625 586.902734375 538.75 589.625 538.446484375 589.9876953125 538.1 590.3 538.1037109375 590.44453125 538.1 590.6 538.0740234375 592.1072265625 538 593.9
M 559.025 557.675
Q 560.103515625 557.2185546875 561.4 556.2 562.2 555.6 563.75 554.35 566.9 552.2 569.25 553 570.4 553.45 571.2 554.55 571.9 555.65 572.1 557 572.2134765625 557.74921875 572.175 558.85 572.5400390625 557.9599609375 573.25 557.25 574.1 556.3 575.45 556.1 576.85 555.85 577.85 556.6 579.1 557.65 579.5 559.5 579.725390625 560.305078125 580.025 561.625 580.0384765625 561.395703125 580.1 561.15 580.35 560 581.25 559.25 582.65 557.65 585.35 557.85 589 557.95 591.6 561.15 594.15 564.25 593.3 569.45
M 550.6 562.45
L 532.2 548.525
Q 532.2248046875 548.5951171875 532.25 548.675 532.4240234375 549.259375 532.6 549.85 532.727734375 550.278125 532.85 550.7 532.965234375 551.078125 533.075 551.45 534.0009765625 554.7 534.75 557.975 534.8302734375 558.2689453125 534.9 558.575 535.0341796875 559.166796875 535.175 559.75
L 543.575 567.725
M 527 535.675
Q 530.104296875 541.9810546875 532.125 548.3 532.1626953125 548.406640625 532.2 548.525
M 559.8 573.5
Q 559.8 575.55 558.3 577 556.85 578.5 554.8 578.5 552.75 578.5 551.25 577 549.8 575.55 549.8 573.5 549.8 571.45 551.25 569.95 552.75 568.5 554.8 568.5 556.85 568.5 558.3 569.95 559.8 571.45 559.8 573.5 Z
M 561.65 584.225
Q 563.4828125 581.999609375 564.5 580.7
M 535.175 559.75
Q 538.444140625 574.871875 538.1 590.3
M 512.6 474.85
Q 517.4 486.4 525.8 495.9 534.1689453125 505.36484375 544.675 511.95
M 571.85 562
Q 572.25859375 560.399609375 572.175 558.85
M 580.025 561.625
Q 580.1720703125 562.3599609375 580.35 563.7
M 625.85 560.55
Q 625.4892578125 559.73203125 625.55 558.7 625.6 557 626.75 556 627.75 554.9 629.45 554.75 631.15 554.65 632.35 555.6 633.75 556.8 634.475 559.95 635.1927734375 563.1044921875 635.15 565.75 635.1134765625 568.391015625 632.3 568.6 629.4822265625 568.8107421875 629.35 568.8 629.216796875 568.7912109375 625.6 568.25 623.3 567.75 622.35 567.25 620.45 566.1 620.1 564.6 619.75 563.05 620.85 561.5 622 559.75 623.75 559.75 624.65 559.75 625.4 560.2 625.65078125 560.356640625 625.85 560.55 626.2939453125 560.95078125 626.5 561.5
M 449.675 486.05
Q 459.6208984375 510.7044921875 476.25 535.25 495.95 564.2 520.75 586.6 527.135546875 592.38671875 537.55 600.425
M 572.95 610.4
Q 570.1716796875 613.7701171875 567.75 617.1 566.05 619.45 565.5 621.1 564.5 623.8 565.25 626.6 565.75 627.95 566.5 628.35 567.7 629.05 569.35 628.1 570.2634765625 627.536328125 571.15 626.65 571.3349609375 626.374609375 571.575 626.175
M 551.85 693.1
Q 547.25 703.45 539 711.1 538.05 712.05 536.15 713.95 534.6 715.6 533.85 717.1 533 719 533.35 721.05 533.75 723.25 535.35 724.25
M 460.85 485.725
Q 485.6681640625 504.2916015625 509.35 509.6"/>
</defs>

<g transform="matrix( 1, 0, 0, 1, 0,0) ">
<use xlink:href="#Layer2_0_FILL"/>
</g>

<g transform="matrix( 1, 0, 0, 1, 0,0) ">
<use xlink:href="#Layer0_0_1_STROKES"/>
</g>
</svg>
