
<svg xmlns="http://www.w3.org/2000/svg" version="1.1" xmlns:xlink="http://www.w3.org/1999/xlink" preserveAspectRatio="none" x="0px" y="0px" width="1280px" height="720px" viewBox="0 0 1280 720">
<defs>
<g id="Layer2_0_FILL">
<path fill="#FFFFFF" stroke="none" d="
M 1280 720
L 1280 0 0 0 0 720 1280 720 Z"/>
</g>

<g id="Layer1_0_FILL">
<path fill="#C1D348" stroke="none" d="
M 638.5 573.95
Q 641.95 574.05 645.45 574.1 645.5 574 645.65 573.8 650.5 566.55 654.1 558.95 632.6 558.15 611.3 556.3 608.4 564.15 605 571.75 621.55 573.4 638.5 573.95
M 851.4 605.25
Q 851.3 604.95 851.2 604.6 850.5 604.9 849.9 605.25 852.9 636.2 853.7 667.6 861.65 664.9 869.45 661.7 868.7 658.9 867.95 656.1 867.1 652.8 866.15 649.5 865.7 648 865.25 646.45 865.2 646.25 865.15 646.1 864.7 644.45 864.2 642.85 858.7 624.6 851.4 605.25
M 901.85 548.2
Q 898.9 552.2 897.05 554.5 891.3 561.8 884.5 568.1 903.15 590.4 920.25 614.1 931.2 604.05 939.8 591.9 939.35 591.4 938.9 590.85 920.9 568.8 902.35 548.7 902.1 548.45 901.85 548.2 Z"/>

<path fill="#45FF8E" stroke="none" d="
M 621.1 519.75
Q 620.9 519.8 620.7 519.9 617.7 521.2 614.6 522.45 613.8 522.75 613 523.05 595.4 529.85 576.8 533.55 572.1 534.5 567.45 535.25 564.4 543 560.55 550.4 585.8 554.1 611.3 556.3 613.25 550.8 614.95 545.25 618.8 532.65 621.1 519.75
M 925.4 621.4
Q 922.85 617.7 920.25 614.1 911.1 622.5 900.3 629.45 883.5 640.3 865.15 646.1 865.2 646.25 865.25 646.45 865.7 648 866.15 649.5 868 655.45 869.9 661.5 869.95 661.6 870 661.65 876.45 682.1 883.6 704.05 895.3 701.9 906.95 697.1 924.6 689.9 940.4 677.55 947.5 671.95 954.35 665.3 940.6 642.9 925.4 621.4
M 678.05 661.9
Q 677.95 662.1 677.9 662.3 668.3 687.85 655.95 712.2 663.2 716.15 670.8 719.6 671.1 719.75 671.45 719.9 672.9 720.55 674.4 721.2
L 853.35 721.2
Q 853.4 720.55 853.4 719.9 853.4 719.75 853.4 719.6 854.3 693.45 853.7 667.6 815.25 680.4 773.15 680.35 723 680.3 678.05 661.9 Z"/>

<path fill="#36DB70" stroke="none" d="
M 560.55 550.4
Q 557.35 556.5 553.6 562.4 563.8 565.25 575.7 567.4 589.9 569.9 604.4 571.7 604.7 571.7 605 571.75 608.4 564.15 611.3 556.3 585.8 554.1 560.55 550.4
M 869.5 661.85
Q 869.45 661.8 869.45 661.7 861.65 664.9 853.7 667.6 854.3 693.45 853.4 719.6 853.4 719.75 853.4 719.9 853.4 720.55 853.35 721.2
L 867.7 721.2 867.75 721.15
Q 869.3 720.5 870.85 719.9 871.2 719.75 871.6 719.6 875.55 717.9 879.55 716.15 878.9 710.6 878.1 704.9 878.1 704.75 878.1 704.6 875.05 683.7 869.5 661.85
M 920.25 614.1
Q 922.85 617.7 925.4 621.4 940.6 642.9 954.35 665.3 965.8 654.05 976.3 639.75 968.5 628.8 960.35 618.1 950 604.5 939.8 591.9 931.2 604.05 920.25 614.1 Z"/>

<path fill="#8655E2" stroke="none" d="
M 563.4 535.85
Q 564.9 535.65 566.4 535.4 566.9 535.35 567.45 535.25 572.1 534.5 576.8 533.55 595.4 529.85 613 523.05 613.8 522.75 614.6 522.45 616.35 511.25 616.15 500.1 602.6 506.95 587.9 512.25 575.7 516.65 563.4 519.75 563.9 527.75 563.4 535.85 Z"/>

<path fill="#53C2F5" stroke="none" d="
M 566.4 535.4
Q 564.9 535.65 563.4 535.85 563.05 535.9 562.7 535.95
L 562.65 535.95
Q 550.7 537.55 538.75 537.8 538.65 538.4 538.65 538.95 538.5 542.05 539.9 544.15 541.35 546.2 544.25 547.4 546.3 548.2 549.8 548.7 555.2 549.6 560.55 550.4 564.4 543 567.45 535.25 566.9 535.35 566.4 535.4
M 532.4 442.3
Q 532.25 442.45 532.15 442.55 504.85 466.55 492.65 493.9 490.85 498.1 490 500.95 488.85 504.95 488.9 508.35 489.05 516.05 494.85 524.75 495.3 525.45 495.8 526.2 520.05 527.45 543.95 523.65 553.7 522.1 563.4 519.75 562.35 502.9 556.9 486.25 548.8 461.7 532.45 442.25
L 532.4 442.3
M 954.35 665.3
Q 947.5 671.95 940.4 677.55 924.6 689.9 906.95 697.1 895.3 701.9 883.6 704.05 883.65 704.15 883.7 704.25 886.15 711.8 888.7 719.6 888.7 719.7 888.8 719.9 889 720.5 889.2 721.2
L 976.2 721.2
Q 977.05 720.55 977.9 719.95 977.9 719.9 978 719.9 978.2 719.7 978.4 719.6 980.9 717.75 983.1 716.1 969.65 690.2 954.35 665.3
M 655.95 712.2
Q 655.9 712.3 655.8 712.45 653.9 716.2 651.95 719.9 651.6 720.55 651.3 721.2
L 674.4 721.2
Q 672.9 720.55 671.45 719.9 671.1 719.75 670.8 719.6 663.2 716.15 655.95 712.2 Z"/>

<path fill="#419CC6" stroke="none" d="
M 563.4 519.75
Q 553.7 522.1 543.95 523.65 520.05 527.45 495.8 526.2 507.55 543.25 530.15 553.85 540.3 558.6 553.15 562.25 553.35 562.3 553.6 562.4 557.35 556.5 560.55 550.4 555.2 549.6 549.8 548.7 546.3 548.2 544.25 547.4 541.35 546.2 539.9 544.15 538.5 542.05 538.65 538.95 538.65 538.4 538.75 537.8 550.7 537.55 562.65 535.95
L 562.7 535.95
Q 563.05 535.9 563.4 535.85 563.9 527.75 563.4 519.75
M 976.6 640.2
Q 976.4 640 976.3 639.75 965.8 654.05 954.35 665.3 969.65 690.2 983.1 716.1 985.4 714.35 987.35 712.75 1000.7 702 1010.2 690.65 1010 690.35 1009.8 690.1 1006.75 685.1 1003.6 680.2 990.65 659.9 976.6 640.2
M 867.75 721.15
L 867.8 721.2 880.1 721.2
Q 880 720.55 879.95 719.9 879.9 719.75 879.9 719.6 879.75 717.9 879.55 716.15 875.55 717.9 871.6 719.6 871.2 719.75 870.85 719.9 869.3 720.5 867.75 721.15 Z"/>

<path fill="#7E5CD5" stroke="none" d="
M 579 409.65
Q 578.4 409.95 577.85 410.3 556.2 422.25 535.6 439.55 533.85 441.05 532.45 442.25 548.8 461.7 556.9 486.25 562.35 502.9 563.4 519.75 575.7 516.65 587.9 512.25 602.6 506.95 616.15 500.1 615.8 480.25 609.2 460.35 599.55 430.95 579 409.65
M 985.75 721.2
Q 985.4 720.55 985.1 719.95
L 985.1 719.9
Q 985 719.75 984.9 719.6 984 717.8 983.1 716.1 980.9 717.75 978.4 719.6 978.2 719.7 978 719.9 977.9 719.9 977.9 719.95 977.05 720.55 976.2 721.2
L 985.75 721.2 Z"/>

<path fill="#7141B6" stroke="none" d="
M 1013.2 695.55
L 1012.55 694.5
Q 1012.42421875 694.3017578125 1012.3 694.1 1012 693.6 1011.7 693.1 1010.95 691.9 1010.2 690.65 1000.7 702 987.35 712.75 985.4 714.35 983.1 716.1 984 717.8 984.9 719.6 985 719.75 985.1 719.9
L 985.1 719.95
Q 985.4 720.55 985.75 721.2
L 1028.3 721.2
Q 1027.95 720.6 1027.6 719.95
L 1027.55 719.9
Q 1027.45 719.75 1027.4 719.6 1021.8 710 1014.65 698 1013.9 696.8 1013.2 695.55 Z"/>

<path fill="#F1FF5A" stroke="none" d="
M 695.5 605.4
Q 690.8 624.5 684.6 643.3 681.5 652.7 678.05 661.9 723 680.3 773.15 680.35 815.25 680.4 853.7 667.6 852.9 636.2 849.9 605.25 814.25 622.15 773.05 622.3 731.5 622.4 695.5 605.4
M 660.55 490.65
Q 660.2 491.45 659.85 492.3 658.2 495.85 655.6 498.75 648.65 506.15 639.85 510.75 631.3 515.25 621.3 519.65 621.2 519.65 621.1 519.75 618.8 532.65 614.95 545.25 613.25 550.8 611.3 556.3 632.6 558.15 654.1 558.95 660.4 545.65 662.9 531.2 666.6 509.55 660.55 490.65
M 848.4 591.5
Q 847.4 591.95 846.4 592.35 846.55 592.8 846.7 593.2 848.05 596.5 849.3 599.8 850.25 602.2 851.2 604.6 851.3 604.95 851.4 605.25 858.7 624.6 864.2 642.85 864.7 644.45 865.15 646.1 883.5 640.3 900.3 629.45 911.1 622.5 920.25 614.1 903.15 590.4 884.5 568.1 877.7 574.45 869.85 579.8 859.6 586.75 848.4 591.5 Z"/>

<path fill="#BF7C42" stroke="none" d="
M 702.5 571.5
Q 703.5 565.6 704.5 559.35 679.2 559.85 654.1 558.95 650.5 566.55 645.65 573.8 645.5 574 645.45 574.1 646.1 574.1 646.75 574.15 674.4 574.5 702.5 571.5
M 861.9 524.9
Q 858.2 528.95 853.5 533.05 869.5 550.1 884.5 568.1 891.3 561.8 897.05 554.5 898.9 552.2 901.85 548.2 886 531.05 869.6 514.95 866.35 520.05 861.9 524.9 Z"/>

<path fill="#B41FB3" stroke="none" d="
M 662.6 478.8
Q 662.6 473.85 662.35 469.1 641.2 487.35 616.15 500.1 616.35 511.25 614.6 522.45 617.7 521.2 620.7 519.9 620.9 519.8 621.1 519.75 621.2 519.65 621.3 519.65 631.3 515.25 639.85 510.75 648.65 506.15 655.6 498.75 658.2 495.85 659.85 492.3 660.2 491.45 660.55 490.65 662.5 485.4 662.6 478.8 Z"/>

<path fill="#DA2BDD" stroke="none" d="
M 657.7 438.95
Q 657.05 436.25 654.35 429.5 651.6 422.75 646.2 413.45 640.8 404.15 634.4 397.9 628.65 392.3 623.4 391.3 622.75 391.15 622.15 391.1 616.3 390.55 610 393.55 603.6 396.5 580.55 408.85 579.8 409.25 579 409.65 599.55 430.95 609.2 460.35 615.8 480.25 616.15 500.1 641.2 487.35 662.35 469.1 661.9 461.65 660.65 454.5 659.9 450.1 659.1 445.55 658.3 441.55 657.7 438.95 Z"/>

<path fill="#EE41AE" stroke="none" d="
M 785.25 437.15
Q 785.4 433.95 786.45 430.7 787.95 425.85 792.1 419.95 796.2 414.05 805.2 409.75 810.3 407.25 815.35 406 794.8 402.15 781.6 400 768.35 397.85 765.4 396.85
L 765.35 396.8
Q 764.6 397.3 764.05 397.85 761.7 400.1 760.9 403.45 760.1 406.75 761.2 409.9 761.95 411.85 763.3 413.45 762.65 414.55 762.15 415.75 761.3 417.95 761 420.15 759.75 418.75 758.05 418 756.1 417.05 753.8 417.1 751.5 417.15 749.5 418.05 746.75 419.45 745.4 421.75 743.8 424.65 744.65 428.25 744.9 429.25 745.4 430.35 754.4 433.1 763.6 434.75 772.75 436.4 782.05 437 783.65 437.1 785.25 437.15 Z"/>

<path fill="#F09C51" stroke="none" d="
M 843.8 540.65
Q 843.6 540.85 843.4 540.95 822.5 555.9 798.4 564.3 770.2 574.3 749.7 568.7 740.2 566.1 730.45 559.55 722.75 554.4 713.7 545.9 704.5 537.15 698.8 529.65 691.55 520.05 688.3 510.4 685.95 503.3 685.9 496.2 678.35 493.65 670.45 492.15 665.5 491.15 660.55 490.65 666.6 509.55 662.9 531.2 660.4 545.65 654.1 558.95 679.2 559.85 704.5 559.35 703.5 565.6 702.5 571.5 699.6 588.6 695.5 605.4 731.5 622.4 773.05 622.3 814.25 622.15 849.9 605.25 849.6 602.5 849.3 599.8 848.05 596.5 846.7 593.2 846.55 592.8 846.4 592.35 847.4 591.95 848.4 591.5 859.6 586.75 869.85 579.8 877.7 574.45 884.5 568.1 869.5 550.1 853.5 533.05 849.1 536.85 843.8 540.65 Z"/>

<path fill="#E83049" stroke="none" d="
M 844.1 523.15
Q 843.7 513.4 841.9 503.45 840.05 493.65 836.95 484.55 811.55 493.8 784.65 494.35 748.1 495.1 713.65 479.65 712.1 478.95 710.55 478.25 702.7 474.55 695.5 470.25 693.35 472.35 691.7 474.85 687.85 480.7 686.5 488.5 685.85 492.35 685.9 496.2 685.95 503.3 688.3 510.4 691.55 520.05 698.8 529.65 704.5 537.15 713.7 545.9 722.75 554.4 730.45 559.55 740.2 566.1 749.7 568.7 770.2 574.3 798.4 564.3 822.5 555.9 843.4 540.95 844.4 532.15 844.1 523.15 Z"/>

<path fill="#BA2639" stroke="none" d="
M 877.9 481.4
Q 876.9 472.95 873 466.45 864.45 472.1 855 476.8 846.05 481.25 836.95 484.55 840.05 493.65 841.9 503.45 843.7 513.4 844.1 523.15 844.4 532.15 843.4 540.95 843.6 540.85 843.8 540.65 849.1 536.85 853.5 533.05 858.2 528.95 861.9 524.9 866.35 520.05 869.6 514.95 872.7 510.1 874.7 505.05 879.4 493.5 877.9 481.4 Z"/>

<path fill="#DA7C77" stroke="none" d="
M 835.9 420.65
Q 833.4 420.75 831.7 420 829.9 419.2 828.2 416.95 826.6 414.85 826.15 412.05 825.9 410.25 826.1 408.05 820.7 407 815.35 406 810.3 407.25 805.2 409.75 796.2 414.05 792.1 419.95 787.95 425.85 786.45 430.7 785.4 433.95 785.25 437.15 805.05 438 823 433.65 836.6 430.3 847.9 424.25 847 423.95 846.75 423.85 845.25 423.25 844.15 422.55 841.3 420.65 840.6 419.75 838.4 420.55 835.9 420.65 Z"/>

<path fill="#73E5E5" stroke="none" d="
M 859.9 416.65
Q 860.55 416.15 861.2 415.65 859.4 415.25 857.6 414.85 841.85 411.15 826.1 408.05 825.9 410.25 826.15 412.05 826.6 414.85 828.2 416.95 829.9 419.2 831.7 420 833.4 420.75 835.9 420.65 838.4 420.55 840.6 419.75 841.3 420.65 844.15 422.55 845.25 423.25 846.75 423.85 847 423.95 847.9 424.25 853.8 421.15 859.05 417.3 859.5 416.95 859.9 416.65
M 885.9 371.1
Q 884.35 369.1 881.4 368.25 878.4 367.4 874.9 368.05 871.3 368.65 869.05 371 866.7 373.45 866.3 375.35 861.2 373.65 857.6 374.55 853.95 375.4 852.7 377.45 868.45 380.25 884.3 383.15 884.55 382.25 884.9 380.75 885.95 375.85 885.9 371.1 Z"/>

<path fill="#C3A28C" stroke="none" d="
M 900.45 443.85
Q 897.15 436.25 895.65 429 888.5 432.95 882.95 435.95 852.6 452.05 827 463.25 825.1 464.15 806.65 469.95 788.2 475.7 760.3 478.35 732.35 480.95 710.55 478.25 712.1 478.95 713.65 479.65 748.1 495.1 784.65 494.35 811.55 493.8 836.95 484.55 846.05 481.25 855 476.8 864.45 472.1 873 466.45 888.05 456.55 900.45 443.85 Z"/>

<path fill="#DD22DE" stroke="none" d="
M 938.15 410.7
Q 936.1 411.35 934.1 412.55 931.05 414.45 928 418.4 926.2 415.15 924.2 412.55 921.1 408.55 917.65 406.25 914.05 403.85 909.9 403.4 905.5 402.9 902 404.85 897.1 407.6 895.45 414.25 894.1 419.8 895.2 426.65 895.4 427.85 895.65 429 897.15 436.25 900.45 443.85 901.5 447.25 907.6 456.85 913.65 466.4 916.1 467.55 917.4 467.45 919.4 466.65 924 458.85 928.15 451.05 932.3 443.45 934.45 438.15 937.4 430.9 938.2 424.5 939.1 418.15 938.15 410.7 Z"/>

<path fill="#B019B1" stroke="none" d="
M 955.6 417.05
Q 955 415.8 954.15 414.75 951.95 411.9 948.25 410.65 944.7 409.4 941 410 939.55 410.2 938.15 410.7 939.1 418.15 938.2 424.5 937.4 430.9 934.45 438.15 932.3 443.45 928.15 451.05 924 458.85 919.4 466.65 922.35 465.4 926.8 462.65 934.1 458.05 939.65 453.55 945.2 448.95 949.7 443.2 954.15 437.4 956.05 430.85 957.35 426.4 957 422.4 957 422.05 956.95 421.75 956.6 419.15 955.6 417.05 Z"/>

<path fill="#6D394A" stroke="none" d="
M 884 358.65
Q 882.2 352.65 879.1 348.05 847.15 361.05 811.4 362.95 784.95 364.3 765.4 362.55 808.95 369.75 852.7 377.45 853.95 375.4 857.6 374.55 861.2 373.65 866.3 375.35 866.7 373.45 869.05 371 871.3 368.65 874.9 368.05 878.4 367.4 881.4 368.25 884.35 369.1 885.9 371.1 885.9 364.8 884 358.65
M 709.2 350.25
Q 708.5 351 707.75 351.75 705.2 354.25 695.7 362.8 686.2 371.35 682.5 373 698.55 367.8 715.55 361.9 719.9 360.35 722.6 359.75 726.55 358.95 729.8 359.5 733.6 360.15 736.3 362.85 739.1 365.7 738.9 369.25 738.5 375.25 729.4 379.35 725.65 380.95 720.45 383.05 722.3 382.5 724.15 382 729.2 380.55 732.9 380.75 737.8 381 740.15 384.15 742.8 387.75 740.6 392.95 738.7 397.35 734.3 401.05 728.05 406.4 720.7 410.2 714.85 413.2 709.8 415 724.4 423.45 740.55 428.85 742.95 429.65 745.4 430.35 744.9 429.25 744.65 428.25 743.8 424.65 745.4 421.75 746.75 419.45 749.5 418.05 751.5 417.15 753.8 417.1 756.1 417.05 758.05 418 759.75 418.75 761 420.15 761.3 417.95 762.15 415.75 762.65 414.55 763.3 413.45 761.95 411.85 761.2 409.9 760.1 406.75 760.9 403.45 761.7 400.1 764.05 397.85 764.6 397.3 765.35 396.8 762.45 395.75 761.7 393.85 760.9 391.9 760.05 387.55
L 755.2 361.35
Q 753.8 361.15 752.5 360.95 729.3 357.05 721.7 354.85 714.1 352.7 709.2 350.25 Z"/>

<path fill="#94C1B3" stroke="none" d="
M 822.5 333.3
Q 822.7 338.95 824 344.5 824.3 346.45 825.15 347.25 825.7 347.8 826.6 348.05 827.5 348.3 832.7 348.4 837.9 348.45 843.55 347.35 849.2 346.3 849.9 345.65 850.6 345 850.35 340.4 850.1 335.75 850.55 332.4 847.6 332 843.6 331.95 837.2 331.85 827.75 332.75 824.95 333.05 822.5 333.3
M 801 334.95
Q 788.7 335.25 773.35 334.35 772.65 340.7 773.5 347.15 773.85 349.25 774.55 350.05 775.1 350.55 777 351.15 788.2 353.8 799.2 351.15 800.6 350.85 801.2 350.15 801.75 349.45 801.55 347.9 800.5 341.45 801 334.95
M 725.55 330.05
Q 725.5 337.45 726.7 343.85 727.1 345.6 727.65 346.25 728.4 347.1 730.4 347.55 734 348.35 741.55 349 746 349.35 747.9 349.55 749 349.55 749.15 349.55 749.9 349.5 750.3 349.15 751.6 348.45 751.4 345.55
L 750.65 332.6
Q 739.3 331.55 730.45 330.45 727.95 330.15 725.55 330.05 Z"/>

<path fill="#CDC9C4" stroke="none" d="
M 796.1 298.05
Q 786.7 295.1 774.2 288.6 777.9 296.15 784.2 302.65 799.6 318.7 821.4 318.7 843.2 318.7 858.65 302.65 874.1 286.65 874.1 264.05 874.1 257.8 872.9 252.1 868.4 268.25 858.4 280.7 845.95 296.2 829 300.25 814.1 303.8 796.1 298.05
M 720.95 281.95
Q 720.8 278.75 721.55 275.85 707.85 271.7 695.5 264.75 698.3 269 702.1 272.85 710.5 281.45 720.95 285.2 721.15 285.25 721.3 285.35
L 721.35 285.35
Q 721 283.65 720.95 281.95
M 768.75 264.05
Q 768.75 263.15 768.8 262.3 765.85 265.95 763 269.35 766.5 272.3 769.85 276.25
L 769.9 276.25
Q 769.9 276.2 769.95 276.15 768.75 270.35 768.75 264.05 Z"/>

<path fill="#F095CE" stroke="none" d="
M 765.4 362.55
Q 760 362.05 755.2 361.35
L 760.05 387.55
Q 760.9 391.9 761.7 393.85 762.45 395.75 765.35 396.8
L 765.4 396.85
Q 768.35 397.85 781.6 400 794.8 402.15 815.35 406 820.7 407 826.1 408.05 841.85 411.15 857.6 414.85 859.4 415.25 861.2 415.65 869.75 408.95 875.65 400.85 881.55 392.6 884.3 383.15 868.45 380.25 852.7 377.45 808.95 369.75 765.4 362.55 Z"/>

<path fill="#F8CBB1" stroke="none" d="
M 710.8 334
Q 709.45 332.75 707.7 332.25 705.5 331.55 702.7 331.95 698.6 332.55 694 335.25 685.95 339.95 671.55 351.9 663.1 358.95 656.85 363.45 658.35 353.85 656.8 346.95 655.2 340 653.35 338.05 651.45 336.15 649.3 335.2 647.1 334.25 644.7 334.5 642.25 334.7 640.75 335.5 639.2 336.25 638.3 337.3 637.4 338.3 636.6 340.05 635.8 341.85 635.35 346.7 634.9 351.55 635.3 356.75 635.75 362 635.4 368.65 635.1 374.4 633.2 378.25 632.6 379.6 631.15 381.45 630 382.95 628.35 384.75 624.6 388.85 623.4 391.3 628.65 392.3 634.4 397.9 640.8 404.15 646.2 413.45 651.6 422.75 654.35 429.5 657.05 436.25 657.7 438.95 658.3 441.55 659.1 445.55 662.7 445.65 665.15 445.55 665.2 445.55 665.3 445.55 672.3 445.25 677.65 443.65 684.1 441.65 689.1 437.4 694.1 433.15 695.4 428.95 696.7 424.7 696.85 423.7 697 422.65 697.55 420.75 698.1 418.85 699.6 418.25 701.15 417.7 707.25 415.85 708.5 415.45 709.8 415 714.85 413.2 720.7 410.2 728.05 406.4 734.3 401.05 738.7 397.35 740.6 392.95 742.8 387.75 740.15 384.15 737.8 381 732.9 380.75 729.2 380.55 724.15 382 722.3 382.5 720.45 383.05 725.65 380.95 729.4 379.35 738.5 375.25 738.9 369.25 739.1 365.7 736.3 362.85 733.6 360.15 729.8 359.5 726.55 358.95 722.6 359.75 719.9 360.35 715.55 361.9 698.55 367.8 682.5 373 686.2 371.35 695.7 362.8 705.2 354.25 707.75 351.75 708.5 351 709.2 350.25 710.8 348.4 712 346.4 713.7 343.5 713.5 340 713.25 336.2 710.8 334 Z"/>

<path fill="#F6CCB2" stroke="none" d="
M 981.1 381.85
Q 984.7 371.05 982.2 361.65 979.6 351.55 970.45 344.4 968 342.55 965.4 341.05 958.6 337.25 950.65 336.25 940.5 335 929.45 338.15 926.1 339.15 922.7 340.45 920.15 343.65 918.55 347.3 917.8 345.15 917.1 342.95 901.5 295.15 897.35 244.3 897.1 241.1 896.9 237.95 893.65 188.85 901.5 140.85 879.65 159.55 858.8 171.55 855.95 173.15 853.15 174.65 823.9 190.2 778.35 205.7 784.25 213.6 786.6 222.95 801.3 209.35 821.4 209.35 843.2 209.35 858.65 225.35 863.75 230.65 867.2 236.7 871.25 243.85 872.9 252.1 874.1 257.8 874.1 264.05 874.1 286.65 858.65 302.65 843.2 318.7 821.4 318.7 799.6 318.7 784.2 302.65 777.9 296.15 774.2 288.6 771.6 283.25 770.2 277.35 770.1 276.9 770 276.45 769.9 276.35 769.85 276.25 766.5 272.3 763 269.35 761.65 268.25 760.3 267.3 754.1 262.85 747.5 261.55 740.25 260.15 733.35 262.9 726.15 265.8 723 272 722.05 273.85 721.55 275.85 720.8 278.75 720.95 281.95 721 283.65 721.35 285.35
L 721.3 285.35
Q 721.15 285.25 720.95 285.2 710.5 281.45 702.1 272.85 698.3 269 695.5 264.75 692.7 263.15 690 261.45 678.6 268.45 669.2 276.75 657.25 287.3 649 299.55 641.35 310.8 636.7 323.75 632.05 336.65 630.7 350.25 629.8 360.25 630.5 372.7 630.7 376.4 631.15 381.45 632.6 379.6 633.2 378.25 635.1 374.4 635.4 368.65 635.75 362 635.3 356.75 634.9 351.55 635.35 346.7 635.8 341.85 636.6 340.05 637.4 338.3 638.3 337.3 639.2 336.25 640.75 335.5 642.25 334.7 644.7 334.5 647.1 334.25 649.3 335.2 651.45 336.15 653.35 338.05 655.2 340 656.8 346.95 658.35 353.85 656.85 363.45 663.1 358.95 671.55 351.9 685.95 339.95 694 335.25 698.6 332.55 702.7 331.95 705.5 331.55 707.7 332.25 715.95 329.65 725.55 330.05 727.95 330.15 730.45 330.45 739.3 331.55 750.65 332.6 755.2 333 760.2 333.45 767.05 334 773.35 334.35 788.7 335.25 801 334.95 806.8 334.8 812 334.35 815.75 334 822.5 333.3 824.95 333.05 827.75 332.75 837.2 331.85 843.6 331.95 847.6 332 850.55 332.4 863.85 334.05 872.05 340.5 876.15 343.7 879.1 348.05 882.2 352.65 884 358.65 885.9 364.8 885.9 371.1 885.95 375.85 884.9 380.75 884.55 382.25 884.3 383.15 881.55 392.6 875.65 400.85 869.75 408.95 861.2 415.65 860.55 416.15 859.9 416.65 859.5 416.95 859.05 417.3 853.8 421.15 847.9 424.25 836.6 430.3 823 433.65 805.05 438 785.25 437.15 783.65 437.1 782.05 437 772.75 436.4 763.6 434.75 754.4 433.1 745.4 430.35 742.95 429.65 740.55 428.85 724.4 423.45 709.8 415 708.5 415.45 707.25 415.85 701.15 417.7 699.6 418.25 698.1 418.85 697.55 420.75 697 422.65 696.85 423.7 696.7 424.7 695.4 428.95 694.1 433.15 689.1 437.4 684.1 441.65 677.65 443.65 672.3 445.25 665.3 445.55 665.2 445.55 665.15 445.55 678.05 459.8 695.5 470.25 702.7 474.55 710.55 478.25 732.35 480.95 760.3 478.35 788.2 475.7 806.65 469.95 825.1 464.15 827 463.25 852.6 452.05 882.95 435.95 888.5 432.95 895.65 429 895.4 427.85 895.2 426.65 894.1 419.8 895.45 414.25 897.1 407.6 902 404.85 905.5 402.9 909.9 403.4 914.05 403.85 917.65 406.25 921.1 408.55 924.2 412.55 926.2 415.15 928 418.4 931.05 414.45 934.1 412.55 936.1 411.35 938.15 410.7 939.55 410.2 941 410 944.7 409.4 948.25 410.65 951.95 411.9 954.15 414.75 955 415.8 955.6 417.05 957.95 414.75 959.5 413.2 966.35 406.35 971.05 400.25 978.1 391.05 981.1 381.85
M 676.95 294.15
Q 683.75 291 688.5 294.35 693.25 297.75 693.25 305.75 693.25 313.75 688.45 321.65 683.65 329.55 676.9 332.75 670.1 335.95 665.3 332.6 660.6 329.2 660.6 321.2 660.65 313.15 665.4 305.25 670.2 297.35 676.95 294.15
M 883.05 341.35
Q 876.2 336.95 872.7 328.65 869.3 320.35 871.25 313 873.2 305.6 879.35 303.5 885.5 301.35 892.3 305.75 899.1 310.05 902.6 318.35 906.1 326.7 904.15 334.05 902.2 341.45 896 343.55 889.85 345.65 883.05 341.35 Z"/>

<path fill="#F5AD94" stroke="none" d="
M 872.7 328.65
Q 876.2 336.95 883.05 341.35 889.85 345.65 896 343.55 902.2 341.45 904.15 334.05 906.1 326.7 902.6 318.35 899.1 310.05 892.3 305.75 885.5 301.35 879.35 303.5 873.2 305.6 871.25 313 869.3 320.35 872.7 328.65
M 688.5 294.35
Q 683.75 291 676.95 294.15 670.2 297.35 665.4 305.25 660.65 313.15 660.6 321.2 660.6 329.2 665.3 332.6 670.1 335.95 676.9 332.75 683.65 329.55 688.45 321.65 693.25 313.75 693.25 305.75 693.25 297.75 688.5 294.35 Z"/>

<path fill="#C8A28A" stroke="none" d="
M 978.55 334.95
Q 977.5 334 976.05 332.85 973.7 331.1 970.9 329.9 969.9 329.45 968.9 329.05 963.5 327.05 956.3 326.4 954.45 326.2 951.05 326.35
L 951 326.35
Q 950.95 326.35 950.8 326.35 946.15 326.65 941.35 328.2 933.65 330.65 927.55 335.65 924.8 337.85 922.7 340.45 926.1 339.15 929.45 338.15 940.5 335 950.65 336.25 958.6 337.25 965.4 341.05 968 342.55 970.45 344.4 979.6 351.55 982.2 361.65 984.7 371.05 981.1 381.85 978.1 391.05 971.05 400.25 966.35 406.35 959.5 413.2 957.95 414.75 955.6 417.05 956.6 419.15 956.95 421.75 965.35 417.3 973.2 409.55 983.25 399.7 988.35 387.4 993.8 374.15 992.05 361.4 990.8 351.95 985.8 343.65 982.65 338.6 978.55 334.95 Z"/>

<path fill="#7F49E0" stroke="none" d="
M 994.65 116.05
Q 990.85 112.65 986.65 109.35 992.1 163.25 982.9 218.8 973.7 274.35 951 326.35
L 951.05 326.35
Q 954.45 326.2 956.3 326.4 963.5 327.05 968.9 329.05 969.9 329.45 970.9 329.9 990.6 288.5 1001.7 243.15 1014.9 189.25 1014.7 134.65 1012.1 132.15 1009.3 129.5 1002.6 123.2 994.65 116.05 Z"/>

<path fill="#75422A" stroke="none" d="
M 986.65 109.35
Q 985.9 108.75 985.2 108.15 958.5 87.65 915.7 71.35 864.8 51.9 825.95 52.1 787.1 52.3 765.25 60.55 743.4 68.75 726.3 88 709.2 107.2 704.25 137.3 699.3 167.4 707.7 195 707.7 194.95 707.75 194.95 720.7 184.9 737.8 184.9 758.7 184.9 773.45 199.95 776.15 202.75 778.35 205.7 823.9 190.2 853.15 174.65 855.95 173.15 858.8 171.55 879.65 159.55 901.5 140.85 893.65 188.85 896.9 237.95 897.1 241.1 897.35 244.3 901.5 295.15 917.1 342.95 917.8 345.15 918.55 347.3 920.15 343.65 922.7 340.45 924.8 337.85 927.55 335.65 933.65 330.65 941.35 328.2 946.15 326.65 950.8 326.35 950.95 326.35 951 326.35 973.7 274.35 982.9 218.8 992.1 163.25 986.65 109.35 Z"/>

<path fill="#693CB7" stroke="none" d="
M 1020.15 139.95
Q 1017.6 137.4 1014.7 134.65 1014.9 189.25 1001.7 243.15 990.6 288.5 970.9 329.9 973.7 331.1 976.05 332.85 1001.65 277.2 1012.5 231.1 1023.35 185 1020.15 139.95 Z"/>

<path fill="#5D3620" stroke="none" d="
M 1014.7 129.75
Q 1013.6 129.75 1012.55 129.75 1010.7 129.7 1009.3 129.5 1012.1 132.15 1014.7 134.65 1017.6 137.4 1020.15 139.95 1023.35 185 1012.5 231.1 1001.65 277.2 976.05 332.85 977.5 334 978.55 334.95 982.65 338.6 985.8 343.65 990.8 351.95 992.05 361.4 993.8 374.15 988.35 387.4 983.25 399.7 973.2 409.55 965.35 417.3 956.95 421.75 957 422.05 957 422.4 957.35 426.4 956.05 430.85 954.15 437.4 949.7 443.2 945.2 448.95 939.65 453.55 934.1 458.05 926.8 462.65 922.35 465.4 919.4 466.65 917.4 467.45 916.1 467.55 913.65 466.4 907.6 456.85 901.5 447.25 900.45 443.85 888.05 456.55 873 466.45 876.9 472.95 877.9 481.4 879.4 493.5 874.7 505.05 872.7 510.1 869.6 514.95 886 531.05 901.85 548.2 902.1 548.45 902.35 548.7 920.9 568.8 938.9 590.85 939.35 591.4 939.8 591.9 950 604.5 960.35 618.1 968.5 628.8 976.3 639.75 976.4 640 976.6 640.2 990.65 659.9 1003.6 680.2 1006.75 685.1 1009.8 690.1 1010 690.35 1010.2 690.65 1010.95 691.9 1011.7 693.1 1012 693.6 1012.3 694.1 1012.42421875 694.3017578125 1012.55 694.5
L 1013.2 695.55
Q 1013.5693359375 696.1453125 1013.95 696.75
L 1014.65 698
Q 1021.8 710 1027.4 719.6 1027.45 719.75 1027.55 719.9
L 1027.6 719.95
Q 1027.95 720.6 1028.3 721.2
L 1041.4 721.2
Q 1041.3 720.55 1041.3 719.95 1041.25 719.9 1041.3 719.9 1041.25 719.7 1041.25 719.6 1040 707.3 1035 698.3 1034.35 697.2 1033.7 696.15 1038.25 695.9 1042.8 694.9 1058.1 691.4 1073.35 679.8 1088.6 668.2 1096.5 649.05 1104.35 629.9 1099.7 609.3 1095.1 588.65 1086.55 577.5 1078 566.35 1070.3 559.5 1062.6 552.65 1052.35 544.35 1042.1 536.05 1034.45 526.25 1026.8 516.4 1026.9 503.15 1027 489.9 1037.8 432.4 1048.6 374.85 1055.7 311.55 1062.8 248.2 1061.6 226.55 1060.45 204.9 1053.4 187.2 1052.05 183.85 1050.6 180.65 1055.1 181.9 1059.7 181.9 1063.9 181.9 1067.1 180.6 1070.9 179.05 1072.55 176 1074.55 172.35 1073 167.4 1071.8 164.05 1067.35 158.85 1062.85 153.6 1058.4 150.85 1053.9 148.1 1050.65 147.6 1054.6 147.35 1055.9 147.25 1062.9 146.65 1069.55 144.35 1073.4 143.05 1075.9 141 1078.9 138.45 1079.15 135.35 1079.5 131.75 1076.3 128.7 1073.55 126.1 1069.3 124.85 1058.9 121.75 1041.25 125.35 1031.7 127.45 1026.9 128.3 1020.05 129.55 1014.7 129.75 Z"/>
</g>

<g id="Layer0_0_FILL">
<path fill="#BF7C42" stroke="none" d="
M 849.3 599.8
Q 849.6 602.5 849.9 605.25 850.5 604.9 851.2 604.6 850.25 602.2 849.3 599.8 Z"/>

<path fill="#000000" stroke="none" d="
M 806.75 252.45
Q 806.75 255.75 809.05 258.05 811.4 260.35 814.7 260.35 818 260.35 820.3 258.05 822.6 255.75 822.6 252.45 822.6 249.15 820.3 246.8 818 244.5 814.7 244.5 811.4 244.5 809.05 246.8 806.75 249.15 806.75 252.45
M 742.65 232.2
Q 744.6 230.25 744.6 227.45 744.6 224.65 742.65 222.65 740.7 220.7 737.9 220.7 735.1 220.7 733.1 222.65 731.15 224.65 731.15 227.45 731.15 230.25 733.1 232.2 735.1 234.15 737.9 234.15 740.7 234.15 742.65 232.2 Z"/>
</g>

<path id="Layer0_0_1_STROKES" stroke="#000000" stroke-width="3" stroke-linejoin="round" stroke-linecap="round" fill="none" d="
M 694.55 176.55
Q 698.3 184.15 703.75 190.6 705 192.1 707.7 195 699.3 167.4 704.25 137.3 709.2 107.2 726.3 88 743.4 68.75 765.25 60.55 787.1 52.3 825.95 52.1 864.8 51.9 915.7 71.35 958.5 87.65 985.2 108.15 985.9 108.75 986.65 109.35 990.85 112.65 994.65 116.05 1002.6 123.2 1009.3 129.5 1010.7 129.7 1012.55 129.75 1013.6 129.75 1014.7 129.75 1020.05 129.55 1026.9 128.3 1031.7 127.45 1041.25 125.35 1058.9 121.75 1069.3 124.85 1073.55 126.1 1076.3 128.7 1079.5 131.75 1079.15 135.35 1078.9 138.45 1075.9 141 1073.4 143.05 1069.55 144.35 1062.9 146.65 1055.9 147.25 1054.6 147.35 1050.65 147.6 1053.9 148.1 1058.4 150.85 1062.85 153.6 1067.35 158.85 1071.8 164.05 1073 167.4 1074.55 172.35 1072.55 176 1070.9 179.05 1067.1 180.6 1063.9 181.9 1059.7 181.9 1055.1 181.9 1050.6 180.65 1052.05 183.85 1053.4 187.2 1060.45 204.9 1061.6 226.55 1062.8 248.2 1055.7 311.55 1048.6 374.85 1037.8 432.4 1027 489.9 1026.9 503.15 1026.8 516.4 1034.45 526.25 1042.1 536.05 1052.35 544.35 1062.6 552.65 1070.3 559.5 1078 566.35 1086.55 577.5 1095.1 588.65 1099.7 609.3 1104.35 629.9 1096.5 649.05 1088.6 668.2 1073.35 679.8 1058.1 691.4 1042.8 694.9 1038.25 695.9 1033.7 696.15 1034.35 697.2 1035 698.3 1040 707.3 1041.25 719.6 1041.25 719.7 1041.3 719.9 1041.25 719.9 1041.3 719.95 1041.3 720.55 1041.4 721.2
M 1009.3 129.5
Q 1012.1 132.15 1014.7 134.65 1017.6 137.4 1020.15 139.95 1029.1 148.85 1034.55 155.4 1044.1 166.85 1050.6 180.65
M 1020.15 139.95
Q 1023.35 185 1012.5 231.1 1001.65 277.2 976.05 332.85 977.5 334 978.55 334.95 982.65 338.6 985.8 343.65 990.8 351.95 992.05 361.4 993.8 374.15 988.35 387.4 983.25 399.7 973.2 409.55 965.35 417.3 956.95 421.75 957 422.05 957 422.4 957.35 426.4 956.05 430.85 954.15 437.4 949.7 443.2 945.2 448.95 939.65 453.55 934.1 458.05 926.8 462.65 922.35 465.4 919.4 466.65 917.4 467.45 916.1 467.55 913.65 466.4 907.6 456.85 901.5 447.25 900.45 443.85 888.05 456.55 873 466.45 876.9 472.95 877.9 481.4 879.4 493.5 874.7 505.05 872.7 510.1 869.6 514.95 886 531.05 901.85 548.2 902.1 548.45 902.35 548.7 920.9 568.8 938.9 590.85 939.35 591.4 939.8 591.9 950 604.5 960.35 618.1 968.5 628.8 976.3 639.75 976.4 640 976.6 640.2 990.65 659.9 1003.6 680.2 1010.15 679.5 1016.6 682 1016.7 682.05 1016.75 682.1 1019.1 683 1021.4 684.4 1028.95 688.85 1033.7 696.15 1022.8 696.75 1011.7 693.1
L 1013.2 695.55
Q 1013.5693359375 696.1453125 1013.95 696.75
L 1014.65 698
Q 1021.8 710 1027.4 719.6 1027.45 719.75 1027.55 719.9
L 1027.6 719.95
Q 1027.95 720.6 1028.3 721.2
M 986.65 109.35
Q 992.1 163.25 982.9 218.8 973.7 274.35 951 326.35
L 951.05 326.35
Q 954.45 326.2 956.3 326.4 963.5 327.05 968.9 329.05 969.9 329.45 970.9 329.9 973.7 331.1 976.05 332.85
M 826.15 169.55
Q 832.4 167.35 839.2 167.15 845.95 166.95 852.3 168.9 855.7 169.95 858.8 171.55 879.65 159.55 901.5 140.85 893.65 188.85 896.9 237.95 897.1 241.1 897.35 244.3 901.5 295.15 917.1 342.95 917.8 345.15 918.55 347.3 920.15 343.65 922.7 340.45 924.8 337.85 927.55 335.65 933.65 330.65 941.35 328.2 946.15 326.65 950.8 326.35 950.95 326.35 951 326.35
M 858.8 171.55
Q 861.6 172.95 864.25 174.8 869.8 178.75 873.7 184.05
M 707.7 195
Q 707.7 194.95 707.75 194.95 720.7 184.9 737.8 184.9 758.7 184.9 773.45 199.95 776.15 202.75 778.35 205.7 823.9 190.2 853.15 174.65 855.95 173.15 858.8 171.55
M 684.9 190.05
Q 691.35 197.75 699.85 202.4 700.9 201.15 702.1 199.95 703.7 198.35 705.4 196.85 706.1 196.25 706.85 195.65 707.25 195.3 707.7 195
M 725.7 151.15
Q 730.95 147.75 737.2 146.35 743.45 144.95 749.65 145.85 755.8 146.7 761.4 149.75 767 152.8 771.15 157.5
M 699.85 202.4
Q 687.3 216.75 687.3 236.45 687.3 249.15 692.6 259.65 692.6 259.75 692.7 259.85 693.95 262.35 695.5 264.75 698.3 269 702.1 272.85 710.5 281.45 720.95 285.2 721.15 285.25 721.3 285.35
L 721.35 285.35
Q 721 283.65 720.95 281.95 720.8 278.75 721.55 275.85 722.05 273.85 723 272 726.15 265.8 733.35 262.9 740.25 260.15 747.5 261.55 754.1 262.85 760.3 267.3 761.65 268.25 763 269.35 766.5 272.3 769.85 276.25
L 769.9 276.25
Q 769.9 276.2 769.95 276.15 768.75 270.35 768.75 264.05 768.75 263.15 768.8 262.3 769.35 240.75 784.2 225.35 785.4 224.15 786.6 222.95 784.25 213.6 778.35 205.7
M 744.6 227.45
Q 744.6 230.25 742.65 232.2 740.7 234.15 737.9 234.15 735.1 234.15 733.1 232.2 731.15 230.25 731.15 227.45 731.15 224.65 733.1 222.65 735.1 220.7 737.9 220.7 740.7 220.7 742.65 222.65 744.6 224.65 744.6 227.45 Z
M 822.6 252.45
Q 822.6 255.75 820.3 258.05 818 260.35 814.7 260.35 811.4 260.35 809.05 258.05 806.75 255.75 806.75 252.45 806.75 249.15 809.05 246.8 811.4 244.5 814.7 244.5 818 244.5 820.3 246.8 822.6 249.15 822.6 252.45 Z
M 885.9 224.75
Q 877.6 232.05 867.2 236.7 871.25 243.85 872.9 252.1 874.1 257.8 874.1 264.05 874.1 286.65 858.65 302.65 843.2 318.7 821.4 318.7 799.6 318.7 784.2 302.65 777.9 296.15 774.2 288.6 771.6 283.25 770.2 277.35 770.1 276.9 770 276.45 769.9 276.35 769.85 276.25
M 770 276.45
Q 770 276.3 769.95 276.15
M 692.7 259.85
Q 691.35 260.65 690 261.45 678.6 268.45 669.2 276.75 657.25 287.3 649 299.55 641.35 310.8 636.7 323.75 632.05 336.65 630.7 350.25 629.8 360.25 630.5 372.7 630.7 376.4 631.15 381.45 632.6 379.6 633.2 378.25 635.1 374.4 635.4 368.65 635.75 362 635.3 356.75 634.9 351.55 635.35 346.7 635.8 341.85 636.6 340.05 637.4 338.3 638.3 337.3 639.2 336.25 640.75 335.5 642.25 334.7 644.7 334.5 647.1 334.25 649.3 335.2 651.45 336.15 653.35 338.05 655.2 340 656.8 346.95 658.35 353.85 656.85 363.45 663.1 358.95 671.55 351.9 685.95 339.95 694 335.25 698.6 332.55 702.7 331.95 705.5 331.55 707.7 332.25 715.95 329.65 725.55 330.05 727.95 330.15 730.45 330.45 739.3 331.55 750.65 332.6 755.2 333 760.2 333.45 767.05 334 773.35 334.35 788.7 335.25 801 334.95 806.8 334.8 812 334.35 815.75 334 822.5 333.3 824.95 333.05 827.75 332.75 837.2 331.85 843.6 331.95 847.6 332 850.55 332.4 863.85 334.05 872.05 340.5 876.15 343.7 879.1 348.05 882.2 352.65 884 358.65 885.9 364.8 885.9 371.1 885.95 375.85 884.9 380.75 884.55 382.25 884.3 383.15 881.55 392.6 875.65 400.85 869.75 408.95 861.2 415.65 860.55 416.15 859.9 416.65 859.5 416.95 859.05 417.3 853.8 421.15 847.9 424.25 836.6 430.3 823 433.65 805.05 438 785.25 437.15 783.65 437.1 782.05 437 772.75 436.4 763.6 434.75 754.4 433.1 745.4 430.35 742.95 429.65 740.55 428.85 724.4 423.45 709.8 415 708.5 415.45 707.25 415.85 701.15 417.7 699.6 418.25 698.1 418.85 697.55 420.75 697 422.65 696.85 423.7 696.7 424.7 695.4 428.95 694.1 433.15 689.1 437.4 684.1 441.65 677.65 443.65 672.3 445.25 665.3 445.55 665.2 445.55 665.15 445.55 678.05 459.8 695.5 470.25 702.7 474.55 710.55 478.25 712.1 478.95 713.65 479.65 748.1 495.1 784.65 494.35 811.55 493.8 836.95 484.55 846.05 481.25 855 476.8 864.45 472.1 873 466.45
M 721.35 285.35
Q 721.95 288.7 723.5 292 727.15 299.6 733.4 302.9 737.3 305 744.55 306.05 750.8 307.05 755.35 306.85 761.25 306.65 765.7 304.55
M 707.7 332.25
Q 709.45 332.75 710.8 334 713.25 336.2 713.5 340 713.7 343.5 712 346.4 710.8 348.4 709.2 350.25 714.1 352.7 721.7 354.85 729.3 357.05 752.5 360.95 753.8 361.15 755.2 361.35 760 362.05 765.4 362.55 784.95 364.3 811.4 362.95 847.15 361.05 879.1 348.05
M 649.15 368.55
Q 652.45 366.65 656.85 363.45
M 679.8 397.35
Q 683 396.35 685.95 395.45 686.7 395.2 687.4 394.95 695.7 392.25 701.9 390.05 710.7 386.85 717.7 384.15 719.1 383.55 720.45 383.05 725.65 380.95 729.4 379.35 738.5 375.25 738.9 369.25 739.1 365.7 736.3 362.85 733.6 360.15 729.8 359.5 726.55 358.95 722.6 359.75 719.9 360.35 715.55 361.9 698.55 367.8 682.5 373 679.9 373.85 677.35 374.65 674.9 375.4 672.75 375.95
M 709.2 350.25
Q 708.5 351 707.75 351.75 705.2 354.25 695.7 362.8 686.2 371.35 682.5 373
M 720.45 383.05
Q 722.3 382.5 724.15 382 729.2 380.55 732.9 380.75 737.8 381 740.15 384.15 742.8 387.75 740.6 392.95 738.7 397.35 734.3 401.05 728.05 406.4 720.7 410.2 714.85 413.2 709.8 415
M 755.2 361.35
L 760.05 387.55
Q 760.9 391.9 761.7 393.85 762.45 395.75 765.35 396.8
L 765.4 396.85
Q 768.35 397.85 781.6 400 794.8 402.15 815.35 406 820.7 407 826.1 408.05 841.85 411.15 857.6 414.85 859.4 415.25 861.2 415.65
M 786.6 222.95
Q 801.3 209.35 821.4 209.35 843.2 209.35 858.65 225.35 863.75 230.65 867.2 236.7
M 872.55 247.9
Q 873.3 247.8 874.05 247.65 880.2 246.55 886 244.1 891.8 241.65 896.9 237.95
M 885.9 371.1
Q 884.35 369.1 881.4 368.25 878.4 367.4 874.9 368.05 871.3 368.65 869.05 371 866.7 373.45 866.3 375.35 861.2 373.65 857.6 374.55 853.95 375.4 852.7 377.45 868.45 380.25 884.3 383.15
M 765.4 362.55
Q 808.95 369.75 852.7 377.45
M 956.95 421.75
Q 956.6 419.15 955.6 417.05 955 415.8 954.15 414.75 951.95 411.9 948.25 410.65 944.7 409.4 941 410 939.55 410.2 938.15 410.7 936.1 411.35 934.1 412.55 931.05 414.45 928 418.4 926.2 415.15 924.2 412.55 921.1 408.55 917.65 406.25 914.05 403.85 909.9 403.4 905.5 402.9 902 404.85 897.1 407.6 895.45 414.25 894.1 419.8 895.2 426.65 895.4 427.85 895.65 429 897.15 436.25 900.45 443.85
M 826.1 408.05
Q 825.9 410.25 826.15 412.05 826.6 414.85 828.2 416.95 829.9 419.2 831.7 420 833.4 420.75 835.9 420.65 838.4 420.55 840.6 419.75 841.3 420.65 844.15 422.55 845.25 423.25 846.75 423.85 847 423.95 847.9 424.25
M 695.5 470.25
Q 693.35 472.35 691.7 474.85 687.85 480.7 686.5 488.5 685.85 492.35 685.9 496.2 685.95 503.3 688.3 510.4 691.55 520.05 698.8 529.65 704.5 537.15 713.7 545.9 722.75 554.4 730.45 559.55 740.2 566.1 749.7 568.7 770.2 574.3 798.4 564.3 822.5 555.9 843.4 540.95 843.6 540.85 843.8 540.65 849.1 536.85 853.5 533.05 858.2 528.95 861.9 524.9 866.35 520.05 869.6 514.95
M 845.7 590.7
Q 846.05 591.5 846.4 592.35 846.55 592.8 846.7 593.2 848.05 596.5 849.3 599.8 850.25 602.2 851.2 604.6 851.3 604.95 851.4 605.25 858.7 624.6 864.2 642.85 864.7 644.45 865.15 646.1 865.2 646.25 865.25 646.45 865.7 648 866.15 649.5 868 655.45 869.9 661.5 869.95 661.6 870 661.65 876.45 682.1 883.6 704.05 883.65 704.15 883.7 704.25 886.15 711.8 888.7 719.6 888.7 719.7 888.8 719.9 889 720.5 889.2 721.2
M 785.25 437.15
Q 785.4 433.95 786.45 430.7 787.95 425.85 792.1 419.95 796.2 414.05 805.2 409.75 810.3 407.25 815.35 406
M 783.45 411.1
Q 782.6 410.95 781.8 411 781.25 411 780.7 411.05 778.8 411.35 777.25 412.35 775.7 413.4 774.95 414.95 774.9 415 774.9 415.05 774 417.05 774.3 420.35 774.4 421.15 774.5 422 775.65 421.85 776.55 422.05
M 764.55 431.65
Q 764.65 430.85 764.9 430.25 765.2 429.55 765.55 428.9 766.8 426.65 768.6 425 770.55 423.25 772.8 422.4 773.7 422.1 774.5 422
M 765.35 396.8
Q 764.6 397.3 764.05 397.85 761.7 400.1 760.9 403.45 760.1 406.75 761.2 409.9 761.95 411.85 763.3 413.45 764.1 414.3 765.1 415.05 767.9 417.15 771.15 417.35
M 745.4 430.35
Q 744.9 429.25 744.65 428.25 743.8 424.65 745.4 421.75 746.75 419.45 749.5 418.05 751.5 417.15 753.8 417.1 756.1 417.05 758.05 418 759.75 418.75 761 420.15 761.3 417.95 762.15 415.75 762.65 414.55 763.3 413.45
M 761 420.15
Q 760.8 421.95 761 423.85
M 631.15 381.45
Q 630 382.95 628.35 384.75 624.6 388.85 623.4 391.3 628.65 392.3 634.4 397.9 640.8 404.15 646.2 413.45 651.6 422.75 654.35 429.5 657.05 436.25 657.7 438.95 658.3 441.55 659.1 445.55 662.7 445.65 665.15 445.55
M 659.1 445.55
Q 659.9 450.1 660.65 454.5 661.9 461.65 662.35 469.1 662.6 473.85 662.6 478.8 662.5 485.4 660.55 490.65 665.5 491.15 670.45 492.15 678.35 493.65 685.9 496.2
M 660.55 490.65
Q 660.2 491.45 659.85 492.3 658.2 495.85 655.6 498.75 648.65 506.15 639.85 510.75 631.3 515.25 621.3 519.65 621.2 519.65 621.1 519.75 620.9 519.8 620.7 519.9 617.7 521.2 614.6 522.45 613.8 522.75 613 523.05 595.4 529.85 576.8 533.55 572.1 534.5 567.45 535.25 566.9 535.35 566.4 535.4 564.9 535.65 563.4 535.85 563.05 535.9 562.7 535.95
L 562.65 535.95
Q 550.7 537.55 538.75 537.8 534.85 537.9 531 537.85
M 704.5 559.35
Q 703.5 565.6 702.5 571.5 699.6 588.6 695.5 605.4 690.8 624.5 684.6 643.3 681.5 652.7 678.05 661.9 677.95 662.1 677.9 662.3 668.3 687.85 655.95 712.2 655.9 712.3 655.8 712.45 653.9 716.2 651.95 719.9 651.6 720.55 651.3 721.2
M 869.9 661.5
Q 869.7 661.6 869.45 661.7 869.45 661.8 869.5 661.85 869.7 661.75 870 661.65
M 866.15 649.5
Q 867.1 652.8 867.95 656.1 868.7 658.9 869.45 661.7
M 869.5 661.85
Q 875.05 683.7 878.1 704.6 878.1 704.75 878.1 704.9 878.9 710.6 879.55 716.15 879.75 717.9 879.9 719.6 879.9 719.75 879.95 719.9 880 720.55 880.1 721.2
M 1003.6 680.2
Q 1006.75 685.1 1009.8 690.1 1010 690.35 1010.2 690.65 1010.95 691.9 1011.7 693.1
M 1013.2 695.55
Q 1013.9 696.8 1014.65 698
M 976.2 721.2
Q 977.05 720.55 977.9 719.95 977.9 719.9 978 719.9 978.2 719.7 978.4 719.6 980.9 717.75 983.1 716.1 985.4 714.35 987.35 712.75 1000.7 702 1010.2 690.65
M 702.5 571.5
Q 674.4 574.5 646.75 574.15 646.1 574.1 645.45 574.1 641.95 574.05 638.5 573.95 621.55 573.4 605 571.75 604.7 571.7 604.4 571.7 589.9 569.9 575.7 567.4 563.8 565.25 553.6 562.4 553.35 562.3 553.15 562.25 540.3 558.6 530.15 553.85 507.55 543.25 495.8 526.2 495.3 525.45 494.85 524.75 489.05 516.05 488.9 508.35 488.85 504.95 490 500.95 490.85 498.1 492.65 493.9 504.85 466.55 532.15 442.55 532.25 442.45 532.4 442.3
L 532.45 442.25
Q 533.85 441.05 535.6 439.55 556.2 422.25 577.85 410.3 578.4 409.95 579 409.65 579.8 409.25 580.55 408.85 603.6 396.5 610 393.55 616.3 390.55 622.15 391.1 622.75 391.15 623.4 391.3"/>
</defs>

<g transform="matrix( 1, 0, 0, 1, 0,0) ">
<use xlink:href="#Layer2_0_FILL"/>
</g>

<g transform="matrix( 1, 0, 0, 1, 0,0) ">
<use xlink:href="#Layer1_0_FILL"/>
</g>

<g transform="matrix( 1, 0, 0, 1, 0,0) ">
<use xlink:href="#Layer0_0_FILL"/>

<use xlink:href="#Layer0_0_1_STROKES"/>
</g>
</svg>
