
<svg xmlns="http://www.w3.org/2000/svg" version="1.1" xmlns:xlink="http://www.w3.org/1999/xlink" preserveAspectRatio="none" x="0px" y="0px" width="1280px" height="720px" viewBox="0 0 1280 720">
<defs>
<g id="Layer1_0_FILL">
<path fill="#FFFFFF" stroke="none" d="
M 1280 720
L 1280 0 0 0 0 720 1280 720 Z"/>
</g>

<g id="Layer0_0_FILL">
<path fill="#000000" stroke="none" d="
M 608.9 340.75
Q 610.31328125 339.4279296875 610.45 337.6 610.45 337.430859375 610.45 337.25 610.45 336.72734375 610.35 336.25 610.0548828125 334.8302734375 608.9 333.75 607.35 332.3 605.15 332.3 602.95 332.3 601.4 333.75 599.85 335.2 599.85 337.25 599.85 339.3 601.4 340.75 602.95 342.2 605.15 342.2 607.35 342.2 608.9 340.75
M 539.5 334.85
Q 537.8 333.15 535.4 333.15 533 333.15 531.25 334.85 529.55 336.6 529.55 339 529.55 341.4 531.25 343.1 533 344.85 535.4 344.85 537.8 344.85 539.5 343.1 541.25 341.4 541.25 339 541.25 336.6 539.5 334.85
M 773.7 323.2
Q 773.7 319.5 771.5 316.9 769.35 314.3 766.3 314.3 763.25 314.3 761.05 316.9 760.2478515625 317.869921875 759.75 319 761.2546875 325.8380859375 764.65 331.9 765.447265625 332.1 766.3 332.1 769.35 332.1 771.5 329.5 773.7 326.9 773.7 323.2
M 694.55 328.4
Q 694.55 325.3 692.45 323.1 690.4 320.95 687.5 320.95 684.6 320.95 682.5 323.1 681.714453125 323.94296875 681.2 324.9 682.4919921875 330.394140625 684.95 335.35 686.1416015625 335.85 687.5 335.85 690.4 335.85 692.45 333.65 694.55 331.5 694.55 328.4 Z"/>
</g>

<path id="Layer0_0_1_STROKES" stroke="#000000" stroke-width="1" stroke-linejoin="round" stroke-linecap="round" fill="none" d="
M 81.25 721.05
L 79.775 720.1
Q 68.8365234375 712.3861328125 62.4 697.65 53.55 677.45 57.25 655 59.7390625 639.221484375 66.925 629.175 67.0234375 629.0396484375 67.125 628.9 67.49765625 628.3947265625 67.875 627.9 68.434765625 627.194921875 69 626.525 68.980859375 626.5078125 68.95 626.5
L 68.95 626.475
Q 68.888671875 626.4513671875 68.825 626.425 67.0333984375 625.8203125 65.25 625.05 55.5 620.85 47.7 612.45 40.05 604.25 35.85 593.8 31.55 583 31.85 572.1 32.5 550.8 46.95 531.75 60.4 513.95 81.25 503.75 99.5 494.8 123.3 491.2 142 488.35 167.75 488.5 178.75 488.5 183.9 487.8 192.85 486.55 198.75 482.5 203.9 478.95 207.9 472.25 210.75 467.45 213.85 459.35 223.8 433.2 231.55 397.65 234.5 383.9 243.55 334.15 250.7 294.8 257 271.25 266.1 237.3 279 211.35 292.2099609375 184.80703125 308.875 168.6
L 307.6 168.35
Q 303.3 167.15 300.4 164.05 297.2 160.6 297.5 156.6 297.55 153.55 299.75 150.85 301.8 148.4 304.85 147 307.45 145.75 310.95 145.2 313.05 144.85 317.35 144.6 316.2 144.5 310.05 144.35 305.55 144.3 302.85 143.5 299.05 142.4 296.8 139.25 294.3 135.95 295.5 132.6 296.85 128.55 304 126.5 318.05 122.65 332.75 126.1 347.45 129.55 358.35 139.25
L 359.1 139.95
Q 362.6919921875 138.6951171875 366.625 137.425 370.9783203125 136.0212890625 375.75 134.6 386.5671875 131.4048828125 396.95 128.85 431.246484375 120.396875 460.8 118.9 507.5 116.55 544.6 131.25
L 549.5 133.4
Q 556.0830078125 130.5810546875 563.6 130.1 570.1470703125 129.7041015625 577.425 130.95 606.7603515625 132.4927734375 630.35 141.675 645.882421875 147.7166015625 676.5 158.925
L 674.5 155.6
Q 667 144.1 669.2 128.7 671.15 114.35 680.35 102.5 688.25 92.4 701.35 83.55 710.15 77.6 726.25 69.25 749.3 57.35 763.7 52.8 785.2 46 803 49.1 816.3 51.4 833.6 61 836.25 62.45 848.1 69.4 856.95 74.6 862.75 77.5 872.6392578125 82.376953125 886.725 87.075 886.2 81.65 889 76.6 891.7 71.65 896.5 68.85 901.05 66.1 906.75 65.65 912.15 65.2 917.6 66.85 926.95 69.5 935.75 78.5 941.95 84.85 942.35 90.6 942.65 94.2 940.4 97.3 938.05 100.55 934.775 101.15 939.646875 102.5599609375 940.5 102.85 988.9 118.65 1006 148.75 1018.55 170.85 1015.55 202.8 1013.5 224.05 1002.5 259.25
L 1001.35 263.225
Q 1006.773828125 262.399609375 1012.6 262.75 1028.45 263.7 1040.25 273 1045.95 277.45 1048.3 283.75 1050.9 290.8 1047 295.5 1043.8 299.35 1037.35 299.6 1032.75 299.75 1025.85 298 1041.8 308.15 1048.7 327.05 1055.6 346 1049.85 364 1047 373.05 1041.1 375.6 1037.65 377 1033.7 375.8 1030 374.65 1027.25 371.75 1026.0341796875 370.401953125 1025.05 368.775 1027.4306640625 380.17890625 1024.6 392.6 1020.35 411.35 1006.5 422.75
L 1003.825 425.1
Q 1021.5298828125 432.8701171875 1026.375 442.55 1031.219140625 452.2419921875 1026.775 459.8 1022.330078125 467.3498046875 1015.25 475.3 1026.9607421875 479.1365234375 1041.25 483.85 1045.4451171875 485.2658203125 1049.4 486.625 1079.5783203125 496.9205078125 1095.1 503.2 1124.5 515.2 1145.75 529 1151.7 532.9 1155 536.35 1159.5 541.05 1160.5 546.25 1161.6 551.8 1158.7 558.1 1156.45 562.9 1151.6 568.6 1142.7 578.85 1129.25 589.3 1121.2 595.55 1104.25 607 1075.3 626.4 1057.8 634.25 1051.058203125 637.2615234375 1044.525 639.4
L 1088.5 725.9
M 934.775 101.15
Q 933.2103515625 100.6935546875 931.225 100.125 942.9611328125 114.03203125 949.25 132.75 955.2 150.45 955.5 170.1 955.85 188.65 951.1 211.35 948.30625 224.7505859375 941.3 249 963.1611328125 256.173046875 987.05 264
L 991.9 265.675
Q 996.4611328125 263.96953125 1001.35 263.225
M 984 269.5
Q 987.812890625 267.20625 991.9 265.675
M 931.1 323.75
Q 934.0212890625 327.19296875 936.725 332.175
L 937.5 331.35
Q 943.4 324.4 952.05 320.55 960.7 316.7 969.85 317 975.9 317.1 981.5 319.05 987.3 321.05 991.75 324.75 1000.05 331.7 1002.7 343.3 1005.25 354.4 1001.85 365.25 998.75 375.25 991.2 384.4 984.55 392.5 974.85 399.35 969.55 403.05 965.05 405.2 959.55 407.8 954.35 408.5 948.5 409.3 943.05 407.45 937.25 405.45 934 401.1
L 927.85 411.6
M 1021.35 357.6
Q 1023.8548828125 363.0607421875 1025.05 368.775
M 886.725 87.075
Q 893.437109375 89.3060546875 901.1 91.5 921.0615234375 97.180078125 930.95 100.05 931.0857421875 100.0845703125 931.225 100.125
M 721.075 201.775
Q 717.027734375 199.581640625 712.9 197.3 678.75 178.15 661.6 168.8 657.9763671875 166.8234375 654.45 164.925 647.59140625 166.5408203125 641.05 169.65 633.05 173.45 626.25 179.1 618.3 185.55 616 192.6 614.65 196.9 615.5 201.25 616.45 205.85 619.6 208.5 623.8 211.85 631.35 211.85 639.35 211.8 646.8 208.25 654.2 204.7 659.35 198.6 656.25 203.2 654.5 206.55 652.15 211 651.25 215.1 650.1 219.9 650.7 224.5 651.3 229.35 653.85 233 656.55 236.85 661.25 239.2 665.65 241.35 670.75 241.75 678.664453125 242.3119140625 686.675 239.05 687.2080078125 238.8376953125 687.75 238.6 695.6 235.15 702.25 228.6 707.95 223.15 713.3 215.05 716.5359375 210.151171875 721.075 201.775 779.1431640625 233.371875 818.6 247.35 886.9 271.55 927.35 248.35
L 931.225 245.7
Q 875.0216796875 227.2806640625 832.75 213.4 770.6326171875 193.0076171875 712.275 171.925 692.36640625 164.7326171875 676.5 158.925
M 768.1 73.9
Q 749.25 94.8 731.85 118.5 743.85 117.5 750.05 117.75 737.32265625 132.8119140625 729.35 150.85 740.5 151.2 752.55 149.15 752.3619140625 157.6998046875 751.2 163.725 750.036328125 169.754296875 750.05 171.375 750.06875 172.9916015625 751.675 173.15 753.295703125 173.3091796875 755.925 173.35 758.5408203125 173.403515625 763.9 174.15 769.272265625 174.8859375 769.475 172.375 769.6705078125 169.8619140625 769.325 160.85 768.9783203125 151.84296875 769.35 145
L 797.2 152.35 781.75 117.85 791.6 117.85
Q 782.7 99.95 768.1 73.9 Z
M 756.5 262.35
Q 750.9537109375 263.1263671875 745.4 263.75 757.490234375 267.190234375 767.05 276.75 767.65078125 277.35078125 768.225 277.95 770.476953125 274.973046875 773.25 272.2 781.396484375 264.053515625 791.4 260.425 782.74296875 260.03984375 774.1 258.85
M 686.675 239.05
Q 687.815234375 250.945703125 690.9 262.25 692.6724609375 268.7703125 695.1 275.1
L 695.55 276.05
Q 702.24453125 269.587109375 710.15 266.05 703.508984375 266.1888671875 696.85 266.1
M 681.225 324.925
Q 679.9 319.1599609375 679.9 312.85 679.9 291.7 694.85 276.75 695.201171875 276.398828125 695.55 276.05
M 549.5 133.4
Q 545.11640625 135.2599609375 541.15 138.15 530.5 145.9 528.6 157.25 525.4 175.95 547.6 197.75 557.602734375 207.6466796875 568.7 216.15 584.4763671875 228.2177734375 602.475 237.475 607.6427734375 240.1240234375 613 242.55 616.9072265625 244.3140625 620.85 245.925 654.286328125 259.594921875 689.85 262.1
L 690.9 262.25
M 681.225 324.925
Q 681.714453125 323.94296875 682.5 323.1 684.6 320.95 687.5 320.95 690.4 320.95 692.45 323.1 694.55 325.3 694.55 328.4 694.55 331.5 692.45 333.65 690.4 335.85 687.5 335.85 686.1416015625 335.85 684.95 335.375 686.8693359375 339.219921875 689.5 342.775 691.8822265625 345.9822265625 694.85 348.95 707.1248046875 361.2248046875 723.575 363.425 723.8828125 359.9056640625 725.75 356.75 728.65 351.95 734.85 348.5 742.7 344.1 752.15 343.9 760.951953125 343.71171875 768.65 347.3 770.813671875 344.95625 772.625 342.475 767.8236328125 337.521875 764.65 331.9 761.2546875 325.8380859375 759.75 319 758.55 313.5673828125 758.55 307.65 758.55 290.814453125 768.225 277.95
M 684.95 335.375
Q 682.4919921875 330.394140625 681.225 324.925
M 723.575 363.425
Q 723.3044921875 366.589453125 724.3 370.05 726.35 377.3 732.5 380.5 737.3 383.1 743.85 382.65 749 382.3 755.6 380 767.3 375.95 773 369.5
M 689.5 342.775
Q 671.5826171875 362.279296875 669.35 391.4 667.15 420.55 681.5 445.1 695.2 468.6 720.7 483.4 721.3595703125 483.7841796875 722.025 484.15 745.7763671875 497.6232421875 773.6 500.25 790.2904296875 501.8814453125 807.75 499.625 818.1138671875 498.3009765625 828.75 495.6 853.9279296875 489.2208984375 878.775 475.7 877.844921875 466.273828125 877.6 456.75 877.35 446.1 878.85 439.05 880.8 429.45 886.25 423.6 891.6 417.85 900.8 415.05 907.6 413.05 918.1 412.35 967.8 409.2 1003.6 425 1003.714453125 425.0498046875 1003.825 425.1
M 759.75 319
Q 760.2478515625 317.869921875 761.05 316.9 763.25 314.3 766.3 314.3 769.35 314.3 771.5 316.9 773.7 319.5 773.7 323.2 773.7 326.9 771.5 329.5 769.35 332.1 766.3 332.1 765.447265625 332.1 764.65 331.9
M 837.5 256.75
Q 829.8521484375 258.301171875 822.225 259.225 834.489453125 262.539453125 844.15 272.2 858.85 286.9 858.85 307.65 858.85 328.4 844.15 343.1 829.45 357.8 808.7 357.8 787.95 357.8 773.25 343.1 772.934765625 342.784765625 772.625 342.475
M 832.1 384.85
Q 827.15 380.5 820.9 378.3 814.5 376 808.1 376.5 801.5 376.95 795.7 380.4 789.9 383.9 786.6 389.5
M 769.6 347.75
Q 769.1251953125 347.5125 768.65 347.3
M 710.15 266.05
Q 727.8353515625 265.6947265625 745.4 263.75
M 931.225 245.7
Q 936.20625 247.3337890625 941.3 249
M 899.55 258.65
Q 890.4 269 887.1 285 885 295.3 884.5 314.35 884 330.95 885.25 340.3 887.15 354.55 893.5 364.1 897.400390625 369.7515625 902.325 370.8 907.244921875 371.8390625 909.025 368.825 910.8095703125 365.8162109375 911.15 361.475 911.4892578125 357.1361328125 910.35 352.4 909.9810546875 351.0443359375 909.275 348.45 908.5611328125 345.85546875 907.3 341.4
M 868.85 311.75
Q 870.2 322.4 864.1 335.25 860.4 342.95 855.1 348.15 848.95 354.15 841.75 355.75
M 936.725 332.175
Q 939.20390625 336.740234375 941.5 342.6 943.3 347.1 943.8 350.45 944.5 354.85 943.25 358.25 941.5 363.1 936.15 365.5 931 367.85 925.75 366.5 920.85 365.1 916.9 361.1 913.237890625 357.289453125 910.35 352.4
M 791.4 260.425
Q 806.7845703125 261.101171875 822.225 259.225
M 878.775 475.7
Q 881.6603515625 504.7576171875 891.1 532.85
L 892.15 536.05
Q 904.951171875 532.8068359375 920.4 529.05 952.4609375 519.36953125 975.75 508.8 965.55 505.95 959.45 502.25 953.35 498.5 951.1 492.25 948.95 486.05 951.35 479.35 953.75 472.6 959.35 469.1 964.7 465.9 972.45 465.9 978.05 465.9 986.35 467.75 998.7 470.4 1014 475.05 1016.06171875 475.6814453125 1015.25 475.3
M 896.85 551.5
Q 887.7 548.7 879.6 547 873.6 545.5 870.5 546.6 868.6 547.25 866.65 548.95 866.2 549.3 863.35 552.1 859.7998046875 555.9140625 856.275 559.375 851.110546875 564.4416015625 846 568.75
L 844.45 569.9
Q 847.27578125 568.894921875 850.25 567.85 893.75 552.85 915.6 545.6
M 856.275 559.375
L 854.5 559.9
Q 834.609375 565.3662109375 822.275 570.875 809.946875 576.39453125 798.1 582.75 768.15 598.9 751.725 620.55 755.8142578125 620.9548828125 760.7 622.3 760.8263671875 622.0828125 761.55 620.1 762.2673828125 618.11875 763.6 614.85 765.3404296875 614.162109375 767.075 613.475
L 770.75 609.5
Q 785.3 595.5 807.95 584.6 820.940625 578.3501953125 844.45 569.9
M 922.35 542.25
Q 944.25 535.55 964.35 526.1 971.25 522.95 973.2 522.25 978.35 520.25 982.7 519.8
L 984.6 513.075 986 508.2 984 509.5
Q 959.5 524 921.15 533.95 909.65 536.9 887.8 541.7 864.901953125 546.695703125 841.325 553.925 817.7470703125 561.1650390625 788.075 577.275 758.398046875 593.3759765625 743.425 620.425 747.576171875 620.1267578125 751.725 620.55
M 949.45 547.225
Q 962.85 555.6 971.75 559 984.494921875 563.864453125 995.875 561.875 993.423828125 558.094921875 989.725 550.05 986.0158203125 542.020703125 980.4 539.475 974.79140625 536.9162109375 969.475 539.225 965.835546875 540.8099609375 949.45 547.225 941.8841796875 550.1841796875 931.6 554.175 899.0421875 566.812109375 802.2 607.75 803.45 616.5 800.8 625.1 798.15 633.75 792.35 640.1 788 644.75 783.975 644.825
L 822.15 721.75
M 767.075 613.475
Q 860.0693359375 576.6818359375 910.575 554.75 962.0240234375 532.40390625 969.225 529.725 974.7619140625 527.6703125 980.25 528.375
L 982.7 519.8
M 722.025 484.15
L 719.1 485
Q 714.95 486.3 711.7 489.4 708.45 492.5 706.85 496.6 705.35 500.7 705.75 505.15 706.1 509.65 708.35 513.35 711.95 519.35 720 523.05 725.15 525.4 735.25 527.75
L 764.725 533.4 779.65 536.25 788.7 572.475
Q 815.1458984375 557.5529296875 852 546.75 866.951953125 542.40703125 892.15 536.05
M 604.75 363.6
Q 624.35 384.8 623.95 416.95 623.6 448.25 604.85 471.75 587.1 494.05 557.6 504.75 529.6 514.85 499.35 511.75 491.6056640625 510.957421875 483.825 509.35 486.37890625 509.9359375 488.2 512.2 489.9 514.35 490.35 517.25 490.8 519.65 490.3 522.7 490.0958984375 523.966015625 489.425 526.775 489.2740234375 527.39453125 489.1 528.1 485.8 540.25 480.75 555.65 478.55 562.5 471.5 583
L 470.5 585.5
Q 477.4001953125 580.863671875 485.75 574.8 500.05 564.3 507.25 559.1 519.25 550.6 525.35 546.5 531.1 542.4 535 541.1 539.7 539.6 545.25 540.4 550.041796875 541.0708984375 554.85 543.3
L 554.875 543.325
Q 555.397265625 542.8953125 556 542.4
L 556.425 542.075
Q 557.2009765625 541.452734375 558.1 540.75 560.324609375 539.0255859375 563.35 536.75 581.3 522.4 593.25 503.35 595.35 500.1 596.65 498.8 598.85 496.6 601.25 496.6 604.95 496.6 606.8 500.85 608.45 504.5 608 509 606.85 521.05 601.25 531.1 613.65 536.05 649.75 550 653.4 551.35 655.5 553.35 658.15 555.8 657.35 558.6 656.5 561.6 652.6 562.15 650.6623046875 562.4224609375 648.5 562.075 652.2 563.3 654.25 564.7 657.15 566.7 657.5 569.5 657.85 572.4 655.3 574.85 653 577 649.6 577.75 645.9 578.6 641.3 578.05 640.4779296875 577.9572265625 639.5 577.8 640.7970703125 578.2234375 641.85 578.75 644.55 580 645.6 582.25 646.65 584.35 646.25 587.1 646.1 588.1 645.65 589.5 645.4 590.3 644.85 591.85
M 807.75 499.625
L 809.25 501.6
Q 826 524.7 832.1 552.6
M 764.725 533.4
L 752.825 598.775
Q 767.073828125 585.0388671875 786.3 573.85 787.4943359375 573.1548828125 788.7 572.475
M 789.95 623.55
Q 789.95 625.4 788.9 626.7 787.85 628 786.35 628 784.85 628 783.8 626.7 782.75 625.4 782.75 623.55 782.75 621.7 783.8 620.4 784.85 619.1 786.35 619.1 787.85 619.1 788.9 620.4 789.95 621.7 789.95 623.55 Z
M 802.2 607.75
Q 787.734765625 613.8771484375 772.4 620.4
M 713.85 700.5
Q 712.4 699.95 711.55 698.45 710.75 697.05 710.85 695.35 711.05 693.85 711.9 692.45 712.8 691.05 714.1 690.25 716.6 688.6 720.1 688.35 723.6 688.15 725.6 689.1 725.6708984375 689.13359375 725.75 689.175 726.1578125 683.4326171875 726.55 678.25 728.2017578125 656.031640625 729.475 644.1 729.53359375 643.45859375 729.6 642.85 730.55 633.65 731.8 628.65 732.642578125 625.1205078125 733.85 622.1 734.244921875 621.1083984375 734.675 620.175 736.1123046875 618.0650390625 737.65 616 738.751171875 614.5126953125 739.9 613.05 734.5 611.75 731.35 613.45 730.15234375 614.0888671875 729.15 614.95 727.611328125 616.227734375 726.5 618 724.9 620.4 723.95 623.95 723.35 626.05 722.6 630.5 722.1439453125 633.5484375 721.7 636.8 721.171484375 640.8033203125 720.675 645.125 719.8970703125 651.9 719.2 659.45 718.45 667.5 716.85 688.5
M 733.85 622.1
Q 738.6396484375 620.7837890625 743.425 620.425
M 760.7 622.3
Q 760.45703125 623.5150390625 759.65 625.525 758.850390625 627.5306640625 757.575 628.675 756.2892578125 629.8298828125 749.3 632 742.325390625 634.1494140625 731.05 635.35
M 729.475 644.1
L 747.3 640.55 751.725 639.625 762.7 637.35 771.95 620.6 783.975 644.825
M 739.9 613.05
Q 745.748828125 605.598828125 752.825 598.775
M 726.55 678.25
L 727.6 679.85 730.65 685.6
Q 756.5 684.05 782.1 677
L 783.325 676.65 762.7 637.35
M 783.85 676.35
Q 784.75 675.55 785.65 674.25 785.85 673.95 787.1 671.85
L 792.35 662.85
M 783.325 676.65
L 788.85 687.2
Q 788.978125 687.1439453125 789.1 687.1 792.3 682.1 795.25 677.1 797 674.3 797.5 672.75
M 751.725 639.625
L 762.35 661.6
M 747.3 640.55
L 751.75 651.15
M 583.75 603.75
Q 530.2646484375 608.048828125 477.775 602.6
L 468.9 612.05
Q 469.313671875 612.07421875 469.75 612.1
L 702.725 626.7
Q 703.504296875 626.8705078125 704.075 626.975 704.6388671875 627.083203125 705.6 627.375 706.5556640625 627.655859375 707.5 628.1 709.8423828125 629.1306640625 710.95 631.075 713.2955078125 629.08125 716.175 628.025 689.2794921875 613.9478515625 653.8 610.15 631.45 607.75 589.35 608.5
M 633.85 604
Q 659.25 604.4 683.35 609.35 694.9 611.7 702.6 614.95 712.75 619.15 719.9 627.1 721.3640625 626.90703125 722.85 627
M 716.175 628.025
Q 716.3583984375 627.96484375 716.55 627.9 718.2103515625 627.3107421875 719.9 627.1
M 710.95 631.075
Q 711.0306640625 631.214453125 711.1 631.35
L 712.15 634.15
Q 712.75 635.8 713.75 636.5 714.8 637.25 716.75 637.25 718.4 637.25 721.7 636.8
M 639.05 673.3
Q 638.944921875 672.67734375 639.575 669.775 640.2056640625 666.8703125 641.625 663.425 643.047265625 659.9708984375 643.75 659.5 644.44765625 659.042578125 645.1 659.325 645.76328125 659.5994140625 646.35 660.125 646.930859375 660.6591796875 647.25 660.95 652.412109375 665.3333984375 656.5 669.75 657.6 670.85 658.275 671.9 658.95078125 672.950390625 658.35 673.825 657.7474609375 674.6916015625 652.95 675.15 648.1501953125 675.6185546875 643.9 675.4 639.7984375 675.182421875 639.05 675.15
L 639 675.15
Q 637.9109375 675.3171875 634.25 675.1
L 621.1 675
Q 619.114453125 675.0484375 618.725 674.4 618.3259765625 673.75078125 618.9 671.75 619.473828125 669.7505859375 620.225 666.6 620.9767578125 663.457421875 621.425 662.625 621.8669921875 661.7912109375 622.325 660.7 622.794140625 659.6029296875 623.6 659.6 624.9017578125 659.7861328125 627.675 662.225 630.441796875 664.6724609375 634.9 668.525 638.4916015625 671.628515625 639.05 673.3
L 639.05 675.15
M 468.9 612.05
Q 459.53359375 611.6732421875 456.2 615.425 477.1314453125 616.516796875 498.1 617.775 504.673046875 618.167578125 511.25 618.575 523.6669921875 619.346484375 536.1 620.175 536.66875 620.212890625 537.25 620.25 555.5263671875 621.473046875 573.85 622.825 637.531640625 627.4916015625 701.65 633.65
L 709.9 647.6 720.675 645.125
M 718.15 661.55
L 709.9 647.6
M 728.6 700.25
Q 730.25 698.75 730.25 695.85 730.15 693.7 728.85 691.9 727.6443359375 690.115625 725.75 689.175
M 725.45 618.85
Q 696.4 604.25 665.55 599.05 634.65 593.9 604.1 598
M 731.85 720.1
L 729.6 706
Q 729.2978515625 703.2486328125 728.6 701.6 727.906640625 699.955078125 726.375 699.2 724.8408203125 698.4431640625 722.375 698.5 719.91171875 698.5501953125 717.15 698.825 714.390234375 699.10078125 713.3 702.95 712.203515625 706.8029296875 711.5 712.1 711.1 714.75 710.5 719.85
M 730.65 685.6
L 736.175 696.1 736.75 696.1
Q 737.1501953125 696.1037109375 737.55 696.1 747.0529296875 696.145703125 756.45 694.975 759.1544921875 694.6376953125 761.85 694.2 775.4638671875 691.9861328125 788.85 687.2
L 806.5 720.8
M 756.45 694.975
L 764.7 712.3
M 736.175 696.1
L 749.15 720.7
M 761.85 694.2
L 771.45 714.85
M 729.15 614.95
Q 702.05 598.8 668.65 594.5 642.65 591.15 606.75 593.1 605.877734375 593.1646484375 605.025 593.225 591.058203125 594.257421875 579.5 595.025 574.3076171875 595.379296875 569.6 595.675 561.8693359375 596.1572265625 555.45 596.5 549.726953125 596.80703125 545.05 597 541.237890625 597.1548828125 537.55 597.25 506.7017578125 598.1244140625 484.55 595.4
L 477.775 602.6
M 1017.55 720.4
Q 1014.5025390625 712.6955078125 1009.775 701.625 1005.0470703125 690.55859375 999.475 676.625 993.9025390625 662.6875 986.15 652.3
L 977.1 658.25
Q 976.25 659.9 976.5 662.45 976.65 664.2 977.5 667.1 980.85 678.55 982 690.5 956.9966796875 648.1365234375 950.85 636.875 944.7119140625 625.625390625 943.975 624 943.2396484375 622.3755859375 941.775 621.55 940.309375 620.71640625 937.35 621.825 934.395703125 622.93515625 931.825 623.9 929.246484375 624.8693359375 930.475 629.2 931.709765625 633.525 939.075 647.6 944.0912109375 657.200390625 950.3 671.3 953.1955078125 677.8900390625 956.35 685.45 942.7345703125 662.39296875 930.575 642.275 918.416015625 622.1619140625 917.6 619.35 915.2337890625 619.5865234375 911.6 621.35 907.9658203125 623.1181640625 906.1 623.95 904.2333984375 624.771875 904.85 626.425 905.46953125 628.08046875 905.875 629.2 906.273828125 630.316796875 914.625 647.575 922.9751953125 664.83515625 936.35 696.1 914.1208984375 658.6990234375 906.425 642.375 898.7208984375 626.0525390625 896.9 625.575 895.0802734375 625.091796875 893.225 625.95 891.378125 626.818359375 889.875 627.675 888.3626953125 628.52265625 886.3 629.5 884.24765625 630.4875 883.65 631.825 883.0466796875 633.1509765625 883.175 634.7 883.3083984375 636.2546875 892.1 654.875 900.888671875 673.49375 915.3 708.3 899.910546875 680.5833984375 893.975 669.3 888.0369140625 658.01640625 884.675 650.925 881.3177734375 643.830859375 880.35 642.425 879.378515625 641.0197265625 878.625 641.2 877.8740234375 641.3787109375 875.1 643.375 872.32421875 645.379296875 870.45 646.9 868.5771484375 648.4150390625 869.45 651.35 870.31328125 654.292578125 871.175 656.725 872.0470703125 659.1521484375 876.4 670.7 880.6453125 681.9830078125 894.35 719.7 894.670703125 720.5931640625 895 721.5
M 894.35 719.7
Q 876.32421875 690.85 866.8 662.85 864.9001953125 662.731640625 861.75 664.35 858.60625 665.9677734375 858.5 668 858.3873046875 670.0240234375 858.975 671.675 859.5568359375 673.348046875 860.45 677.475 861.33828125 681.5931640625 863.1 687.175 864.862109375 692.7591796875 868.975 704.075 873.092578125 715.3943359375 876.55 722.25
M 946.6 720.85
Q 955.8283203125 706.674609375 969.8 695.95 944.4375 708.484375 916.85 720.6
M 971.5 695.1
Q 970.6552734375 695.519921875 969.8 695.95
M 1049.4 486.625
L 1048.75 487.35
Q 1040.3 495.9 1036.05 507.45 1031.9228515625 518.666015625 1032.7 530.3 1065.241015625 541.3998046875 1096 552.5 1096.0482421875 552.459375 1096.1 552.425 1102.2912109375 547.1921875 1108 541.25
M 1032.7 530.3
Q 1028.2166015625 528.778125 1023.7 527.25 1040.5990234375 551.5296875 1053.975 577.375 1054.0123046875 577.3669921875 1054.05 577.35 1055.210546875 577.1015625 1056.6 576.5 1078.31171875 567.3794921875 1096 552.5
M 1023.7 527.25
Q 1010.0521484375 522.61953125 996.1 518
L 994.875 517.575 1010.425 547.8 1012.85 547.25
Q 1018.1 546.35 1023.65 547.9 1028.95 549.4 1033.35 552.85 1041.3 559.2 1045.75 570.5 1046.85 573.35 1047.8 574.7 1049.25 576.85 1051.25 577.35 1052.3935546875 577.6931640625 1053.975 577.375
M 975.75 508.8
Q 981.906640625 506.0060546875 987.45 503.15
L 994.875 517.575
M 987.45 503.15
L 986 508.2 1017.05 570.15
M 980.25 528.375
Q 981.8890625 528.571875 983.525 529.025 990.63984375 530.9884765625 994 537.65 997.357421875 544.321484375 1002.85 555.35 1008.331640625 566.3646484375 1011.3 572.475 1014.2724609375 578.595703125 1016.425 582.925 1022.5177734375 578.4009765625 1026.75 572.35
M 981.75 548.85
Q 981.75 550.25 980.35 551.2 978.95 552.2 977 552.2 975.05 552.2 973.65 551.2 972.25 550.25 972.25 548.85 972.25 547.45 973.65 546.45 975.05 545.5 977 545.5 978.95 545.5 980.35 546.45 981.75 547.45 981.75 548.85 Z
M 1009.15 586.8
Q 1005.6744140625 580.3953125 1001.45 572.6 998.893359375 567.881640625 995.875 561.875
M 1016.425 582.925
Q 1013.3072265625 585.236328125 1009.7 587.15 999.55 592.55 987.85 593.6 985 593.9 983.55 594.05 981 594.35 979.35 594.85 974.5 596.55 973 600.1 971.8 603.25 973.7 606.7 975.5 609.95 978.85 611.5 979.9572265625 611.958203125 981.225 612.275 983.2580078125 612.7572265625 985.7 612.85 986.04453125 612.85859375 986.475 612.85 994.511328125 613.4611328125 1004 611.65 1011.6 610.2 1025.35 605.75
M 1010.425 547.8
L 1024.3 574.75
M 984.6 513.075
L 1011.2 564.7
M 1044.525 639.4
Q 1040.8453125 640.61484375 1037.225 641.55
L 1076.85 725.45
M 1037.225 641.55
Q 1021.4474609375 645.6630859375 1007 644.5 999.45 643.85 993.9 639.15 988.131640625 634.2326171875 990.85 628.35 985.0486328125 626.8986328125 982.25 624.1 980.2 622.3 979.2 619.85 978.15 617.3 978.5 614.75 978.65 613.4 979.6 612.6 980.1 612.25 980.85 612.25 980.9943359375 612.25 981.225 612.275
M 990.85 628.35
Q 1010.06171875 631.994140625 1029.75 625.1
M 1057.6 655.7
L 1093.05 722.2
M 1056.3 635.2
L 1100.2 722.35
M 654.45 164.925
Q 629.1486328125 151.3189453125 609.35 142.1 595.85 135.9 587.05 133.25 582.0845703125 131.7642578125 577.425 130.95
M 396.95 128.85
L 395.85 130.85
Q 371.95 180.45 363.8 235.7 355.6 291 364.1 345.35
L 364.5 348.475
Q 370.63828125 350.566015625 376.3 355.3 388.2 365.3 388.85 379.35 405.85 375.75 421.9 368.35 437.144140625 361.373046875 450.525 351.425 448.65 345.053125 448.65 337.9 448.65 328.6376953125 451.775 320.675 450.2 320.8 448 320.35 441.4 318.8 436.25 314.75
M 366.625 137.425
L 364.6 139.6
Q 357.25 148 352 160.25 348.05 169.5 344.35 183.5 334.35 222.5 334.05 263.05 333.7 303.6 343.1 342.75
L 344.55 348.35
Q 347.38671875 347.496875 350.35 347.1 357.7154296875 346.1826171875 364.5 348.475
M 359.1 139.95
Q 351.0072265625 142.784765625 344.65 145.55 328.15 152.7 316.35 162 312.535546875 165.0515625 308.875 168.6
M 344.55 348.35
Q 336.6630859375 350.7166015625 329.75 356.6 321.4 363.8 317.1 374.35 312.75 384.85 313.6 395.85 314.45 406.8 320.4 416.55 326.3 426.25 335.6 432.1
L 341.05 435.425
Q 346.258203125 434.21484375 351.5 433.35 376.5 429.15 387 440.6 392.4 446.6 393.6 456.55 393.9994140625 459.8154296875 393.95 464.025 415.71640625 481.641796875 438.2 493.05 440.746484375 494.3388671875 443.3 495.55 463.6173828125 505.168359375 483.75 509.325
L 483.825 509.35
M 451.775 320.675
Q 454.7955078125 312.9810546875 460.725 306.5 456.4896484375 305.9439453125 452.7 303.7 448.9 301.4 446.35 297.85
M 460.725 306.5
Q 461.489453125 305.6634765625 462.3 304.85 476 291.2 495.35 291.2 505.427734375 291.2 513.95 294.9 531.5423828125 279.23984375 545.2 259.9 558.95 240.45 567.85 218.6
L 568.7 216.15
M 464.95 394.5
Q 464.95 403.35 458.35 409.6 451.8 415.9 442.5 415.9 433.2 415.9 426.6 409.6 420.05 403.35 420.05 394.5 420.05 385.65 426.6 379.35 433.2 373.1 442.5 373.1 451.8 373.1 458.35 379.35 464.95 385.65 464.95 394.5 Z
M 535 396
Q 542.9 398.75 548.6 398.85 552.2 398.95 555.55 398 559.1 397 561.75 395 564.25 393.1 566.35 390 568.621484375 386.69609375 569.425 383.625 569.9935546875 381.5091796875 569.85 379.5 569.65 376.1 567.45 373.05 565.35 370.1 562.1 368.35 556.1 365.4 548.25 366.5 545.1 366.9 541.3 368.05 539.5306640625 368.56796875 535.75 369.9 535.5041015625 369.98515625 535.25 370.075 533.626171875 368.38359375 532.225 366.6 530.4462890625 368.811328125 528.35 370.9 514.7 384.6 495.35 384.6 476 384.6 462.3 370.9 453.69609375 362.29609375 450.525 351.425
M 620.85 245.925
L 620.6 246.75
Q 616.5 257.85 604.35 267.5
M 602.475 237.475
L 602.6 239.35
Q 603.25 251.55 603.85 267.6 604.6 282 604.35 289.6 603.95 301.75 601.25 311.1
L 600.7 312.55
Q 609.284765625 322.8505859375 610.35 336.25 610.45 336.72734375 610.45 337.25 610.45 337.430859375 610.45 337.6 610.5 338.8396484375 610.5 340.1 610.5 358.15 597.7 370.9 585.8533203125 382.7931640625 569.425 383.625
M 578.25 227
Q 574.5 228.25 571.25 230.6
M 516.35 225.1
Q 510.7 221.85 504 220.95 497.45 220.1 491 221.6 478.25 224.4 468.6 234.6
M 513.95 294.9
Q 521.8091796875 298.3091796875 528.35 304.85 531.51796875 308.01796875 533.95 311.5 534.9544921875 310.3498046875 536.05 309.25 548.85 296.5 566.9 296.5 584.95 296.5 597.7 309.25 599.3029296875 310.8529296875 600.7 312.55
M 541.25 339
Q 541.25 341.4 539.5 343.1 537.8 344.85 535.4 344.85 533 344.85 531.25 343.1 529.55 341.4 529.55 339 529.55 336.6 531.25 334.85 533 333.15 535.4 333.15 537.8 333.15 539.5 334.85 541.25 336.6 541.25 339 Z
M 533.95 311.5
Q 542.05 323.0244140625 542.05 337.9 542.05 354.2890625 532.225 366.6
M 601.35 312.6
Q 605.8 311.2 609.6 308.25 613.3 305.3 615.75 301.25
M 610.45 337.6
Q 610.31328125 339.4279296875 608.9 340.75 607.35 342.2 605.15 342.2 602.95 342.2 601.4 340.75 599.85 339.3 599.85 337.25 599.85 335.2 601.4 333.75 602.95 332.3 605.15 332.3 607.35 332.3 608.9 333.75 610.0548828125 334.8302734375 610.35 336.25
M 618.7 400.15
Q 618.7 407.1 614.65 412 610.65 416.95 605 416.95 599.35 416.95 595.3 412 591.3 407.1 591.3 400.15 591.3 393.2 595.3 388.25 599.35 383.35 605 383.35 610.65 383.35 614.65 388.25 618.7 393.2 618.7 400.15 Z
M 607 322
Q 616.15 321.6 624.25 317
M 282.75 494.85
Q 282.05 501.95 282 502.5 281.7 506.8 281.85 510.1 282.093359375 518.3255859375 285.175 524.425 290.5740234375 507.0056640625 297.25 490
M 285.175 524.425
Q 278.6158203125 545.6078125 273.95 567.4 265.5 607.1 263.6 647.5 262.95 659.7 263.7 668 264.8 679.15 268.6 687.6 276.1 703.7 294.65 712.4 299.6208984375 714.7392578125 304.825 716.325 317.454296875 720.1369140625 331.5 719.5 359.25 718.35 381.75 701.25 394.7990234375 691.3451171875 402 678.95 407.7318359375 669.065625 409.75 657.6
M 341.05 435.425
Q 296.92734375 445.652734375 255.6 480.45 218.85 511.35 182.5 563.6 167.55 585.15 158.7 601.5 147.1 622.85 141.6 642.5 133.5787109375 671.878515625 144.15 688.8 144.3255859375 689.0814453125 144.5 689.35 150.95 699.3 164.2 705.35 174.05 709.8 189.6 712.75 242.85 722.65 297.35 717.1
L 304.825 716.325
M 69.575 626.675
Q 77.126953125 628.672265625 85.3 628.175 93.4513671875 627.69375 98 624.925 102.55 622.15078125 103.875 619.625 105.19765625 617.0974609375 103.225 615.2 101.2537109375 613.3095703125 96.8 612.975 92.34453125 612.6181640625 87.575 614.25 82.8185546875 615.884765625 79.55 618 76.2744140625 620.124609375 73.125 622.6 69.9765625 625.0685546875 68.95 626.475 69.3078125 626.4322265625 69.575 626.675 69.2931640625 626.5982421875 69 626.525
L 69.025 626.5
Q 68.9892578125 626.487890625 68.95 626.475
M 144.15 688.8
Q 141.9314453125 691.8837890625 139.75 697.5 134.85 709.3 131.1 721.35
M 565.05 421
Q 567.95 420.9 569.9 420.75 572.5841796875 420.612890625 572.525 422 572.4603515625 423.393359375 572.475 425.075 572.493359375 426.7517578125 572.5 429.6 572.5 431.25 571.85 431.75 571.35 432.25 570.35 432.25 567.2498046875 432.5998046875 563.625 432.6 560.00390625 432.6005859375 559.6 432.325 559.190234375 432.0470703125 559.225 428.275 559.25859375 424.5068359375 559.45 423.3 559.647265625 422.090625 559.9 421.675 560.1556640625 421.251171875 560.4 421.125 560.5837890625 421.044140625 560.8 421.025 561.0005859375 421.04140625 561.225 421.05 561.3591796875 421.0474609375 561.5 421.05 562.7875 421.063671875 565.05 421 Z
M 475.35 400.6
Q 480.300390625 405.45234375 482.075 412.75 505.45 408.5 521.1 407.75 542.6 406.7 559.75 411.1 567.95 413.2 572.6 416.6 575.6 418.9 577.4 421.85 579.4 425.1 579.6 428.5 579.9 433.8 575.85 438.35 572.15 442.55 566.5 444.35 561.85 445.8 555.65 445.6 552.1 445.55 544.5 444.6 510.2 440.65 476.575 439.725 476.315234375 440.1158203125 476.05 440.5 472.05 446.25 466.25 451.1
M 531.2 418.125
Q 532.49765625 418.1548828125 534.75 418.1 541.29921875 417.85234375 541.7 420.175 542.1001953125 422.49921875 542.1 424.85 542.3 426.8 541.75 429 541.4 430.2 541.1 430.5 540.1 431.5 537.6 431.5 531.75 431.35 528.75 431.35 527 431.35 526.35 430.85 525.85 430.45 525.65 429.6 525.55 429.25 525.35 428 525.15 423.3 525.75 420.35 525.75 419.35 526.25 418.85 526.7025390625 418.3974609375 527.15 418.25 527.3921875 418.181640625 528.65 418.125 529.902734375 418.0818359375 531.2 418.125 Z
M 482.075 412.75
Q 482.1154296875 412.901953125 482.15 413.05 482.6044921875 415.0330078125 482.8 417.025
L 493 417.1
Q 495.25 417.1 496.25 417.6 498.3 418.6 498.75 421.75 499 423.35 498.85 426.75 498.85 427.2 498.85 428.1 498.8 428.85 498.5 429.35 498.1 430.05 496.5 430.6 495.1 430.85 492.1 430.85
L 481.5 430.5
M 554.85 543.3
Q 553.0181640625 544.715625 551.55 545.8 548.865234375 547.7841796875 547.75 548.55 546.644921875 549.305078125 545.5 550.6 544.05 552.3 543.15 554.9 542.6 556.6 542 559.6 539.65 573.75 538.75 596.35
M 568.1 554.6
Q 569.9 552.45 572.9 551.4 575.7 550.4 578.75 550.6 584.25 551.15 589.5 555.1 593.15 557.95 597.85 563.35
M 555.45 596.5
L 557 595.25
Q 562.3876953125 590.264453125 568.55 585.55 570.0525390625 584.3861328125 571.6 583.25 574.4 581.25 576.25 581 576.945703125 580.9546875 577.775 581.125 579.6994140625 581.5306640625 582.35 583.1 593.244140625 589.4400390625 605.025 593.225
M 568.55 585.55
Q 568.8173828125 585.7474609375 569 586.25 569.1 586.55 569.25 587.1 570.1 591.9 569.6 595.675
M 639.5 577.8
Q 638.3361328125 577.6009765625 636.95 577.3 635.1609375 576.9109375 633 576.35 621.05 573.45 608.75 568.75
M 648.5 562.075
Q 647.0990234375 561.8431640625 645.6 561.35 630.55 557 615 551.6
M 482.8 417.025
Q 483.304296875 422.2466796875 482 427.5 480.49765625 433.79140625 476.575 439.725
M 393.95 464.025
Q 393.8861328125 468.7857421875 393.25 474.75 392.432421875 482.9931640625 391.475 491.25
L 402.775 487.45
Q 397.660546875 478.4037109375 394.1 467.25
M 402.25 575.1
Q 407.6 572.25 414.2 575 420.3 577.55 424 583.25 426.75 587.55 428.9 594.8 430.15 598.85 432.5 607.1 436.05 617.7 442.25 626.1 445.95 631.05 446.4 631.65 448.6 634.9 449.5 637.75 450.5 641.25 449.5 644.65 448.45 648.35 445.5 649.85 443.35 650.9 440.65 650.5 438.2 650.15 435.75 648.75 431.9083984375 646.6443359375 428.75 643.5 432.0615234375 647.8578125 433 652.6 433.65 655.55 432.95 658.4 432.15 661.4 430 663.1 427.3 665.45 423.2 665.15 419.4 664.9 416.25 662.6 413.6 660.7 411.2 657.35 409.85 655.4 407.35 651 403.46796875 643.89453125 401.175 638.8 402.45625 642.2158203125 403.2 644.1 404.35 647.15 404.5 649.75 404.6 652.9 403.35 655.5 401.95 658.45 399.35 659.6 396.4 661 392.65 659.7 390.846484375 659.0619140625 389.15 657.925
L 389.25 659.75
Q 389.1 665.05 388.75 667.5 388.2 671.75 386.6 674.75 384.75 678.3 381.35 680.25 377.7 682.35 374.1 681.35 368.3 679.75 365 669.75 360.490625 656.5099609375 359 642.6 358.173828125 634.7544921875 358.3 626.7 358.6 604.45 366.1 583.75 360.839453125 581.228515625 357.725 579.475
L 355.75 579.85
Q 342.7 582.5 332.15 591.3 321.65 600.1 316.75 612.5
M 405.75 590.1
Q 406.5 582.35 402 575.2 398.1505859375 569.1263671875 392.175 566.225 391.1697265625 565.7474609375 390.1 565.35 388.95 564.95 383.55 563.65 382.0396484375 563.2771484375 380.775 562.875 378.6609375 562.165234375 377.25 561.35 373.75 559.4 366.8 550.55 360.9 543 355.5 542.1 350.45 541.35 346.05 545.15 341.75 548.85 341 554.1 340.3 559.05 342.5 564.2 344.5 568.85 348.5 572.75 351.85 576 356.85 578.95 357.267578125 579.1978515625 357.725 579.475
M 380.775 562.875
L 381 561.75
Q 387.43828125 526.4001953125 391.475 491.25
M 438.2 493.05
L 421.15 509.45
Q 429.733203125 516.2984375 439.95 519.6 442.6205078125 520.4607421875 445.275 521.025 454.59921875 523.05859375 463.6 521.5
M 402.775 487.45
Q 409.5640625 499.4703125 419.1 507.75 420.1123046875 508.627734375 421.15 509.45
M 489.425 526.775
Q 485.6125 536.738671875 480.2 541.6 474.793359375 546.4681640625 468.825 550.075 462.8544921875 553.6857421875 456.775 556.2 450.69765625 558.70390625 443.35 560.75 418.15 567.45 393.1 566.35
M 470.5 585.5
Q 466.9869140625 587.8599609375 463.85 589.85
M 445.275 521.025
Q 441.9 534.85 425.6 547.6 410.3478515625 559.58046875 392.175 566.225
M 526 721
Q 522.2455078125 715.8658203125 495.55 679.675 480.6482421875 659.4751953125 458.6 629.6 456.15 626.15 455.25 623.9 453.85 620.5 454.85 617.75 455.309765625 616.4423828125 456.2 615.425
M 470.5 629.1
Q 471.05 631.9 471.5 633 472.1 634.45 473.5 636.35
M 428.75 643.5
Q 425.3337890625 640.0427734375 421 632 416.6673828125 623.95859375 414.85 618.35
M 372 604.25
Q 370.651953125 617.037109375 373.45 629.55 374.294140625 633.2904296875 375.5 637 379.6 649.15 386.5 655.75 387.7908203125 656.9962890625 389.15 657.925
M 401.175 638.8
Q 401.1634765625 638.774609375 401.15 638.75 400.14765625 636.5349609375 399.45 634.7 395.95 625.3 396.35 617.25
M 402 678.95
L 402.75 679.5
Q 412.35 687.35 420.5 692 430.75 697.9 440.5 699.85 454.25 702.7 471.45 698.75 482.25 696.25 501.6 688.75
M 373.45 629.55
Q 367.569140625 637.4685546875 359 642.6
M 572.5 686.75
Q 573.65 687.9 573.85 688.35 574.15 688.75 574.2 689.3 574.25 689.9 574 690.35 573.4 691.15 571.75 691.35 569.5 691.65 560.85 692.25 559.85 692.25 559.5 692 558.9 691.65 558.8 690.85 558.75 690.45 558.85 689.35 559.35 686.3 560.6 682.35 561.1978515625 680.9529296875 561.9 680.325 562.6021484375 679.6875 563.475 679.7 564.353515625 679.7244140625 564.875 680.225 565.3919921875 680.7173828125 565.6 680.8 568.0748046875 682.8837890625 572.5 686.75 Z
M 588.05 688.1
Q 588.05 695.6 582.35 700.85 576.65 706.15 568.55 706.15 560.45 706.15 554.75 700.85 549.05 695.6 549.05 688.1 549.05 680.6 554.75 675.3 560.45 670.05 568.55 670.05 576.65 670.05 582.35 675.3 588.05 680.6 588.05 688.1 Z
M 573.85 622.825
Q 573.872265625 638.0439453125 576 651.85 571.9 651.4 567.65 647.45 562.6490234375 642.8380859375 560.275 640.7 557.9083984375 638.5560546875 549.55 631.5 541.1833984375 624.4529296875 537.25 620.25
M 511.25 618.575
Q 516.163671875 628.1458984375 519.35 633.75 522.5447265625 639.34921875 524.6 639.425 526.6453125 639.501953125 529.4 633.95 532.15625 628.391015625 535.6 620.5
M 498.1 617.775
Q 500.54453125 621.069921875 501.95 625.15 503.5 629.65 503.5 634.25 503.45 635.65 502.75 641.75 502.25 646.3 502.6 649.1 502.8 650.25 503.25 652.55 503.5 654.55 503.1 656 502.8 657.1 501.8 658.5 500.45 660.45 500.25 660.85 498.9 663.35 498.5 670.95 498.210546875 677.2197265625 495.55 679.675
M 484.1 633.6
Q 484.45 636.55 486.45 639.2 488.25 641.5 491 643.25
M 627.75 713.75
Q 625.44375 709.778125 622.8 705.625 622.55625 705.240234375 622.3 704.85 616.3333984375 704.901953125 612.25 704.95 619.15 717.45 621.5 721.8
M 644 719.2
L 638.1 704.7
Q 629.35 704.75 622.8 704.85 622.553125 704.851953125 622.3 704.85 618.9681640625 699.6220703125 615.1 694.1 632.35 695.25 648.75 694.75
M 577.775 581.125
Q 579.957421875 588.0017578125 579.5 595.025
M 482.1 598.75
Q 525.7 604.4 569.75 601.75
M 475 606.1
Q 526.7 614.25 578.5 609.75
M 481.75 648.25
Q 485.8 653.9 491 658.1
M 690.1 622
Q 635.9 610 581.35 613.35"/>
</defs>

<g transform="matrix( 1, 0, 0, 1, 0,0) ">
<use xlink:href="#Layer1_0_FILL"/>
</g>

<g transform="matrix( 1, 0, 0, 1, 0,0) ">
<use xlink:href="#Layer0_0_FILL"/>

<use xlink:href="#Layer0_0_1_STROKES"/>
</g>
</svg>
