
<svg xmlns="http://www.w3.org/2000/svg" version="1.1" xmlns:xlink="http://www.w3.org/1999/xlink" preserveAspectRatio="none" x="0px" y="0px" width="1280px" height="720px" viewBox="0 0 1280 720">
<defs>
<g id="Layer1_0_FILL">
<path fill="#FFFFFF" stroke="none" d="
M 1280 720
L 1280 0 0 0 0 720 1280 720 Z"/>
</g>

<path id="Layer0_0_1_STROKES" stroke="#000000" stroke-width="1" stroke-linejoin="round" stroke-linecap="round" fill="none" d="
M 626.55 667.475
Q 790.975 595.547265625 951 510.25 957.7 506.65 961.15 503.85 966.2 499.7 968 494.75 970.5 487.8 966.6 479.1 964.355859375 474.10234375 956.15 458.05 947.930859375 442.0021484375 933.75 413.25 919.5779296875 384.4884765625 912.525 368.325 905.4681640625 352.1642578125 897.45 337.4 889.4271484375 322.6349609375 877.2 295.775 864.9826171875 268.9125 858.975 257.425 852.95390625 245.946875 844.05 225.85 839.3 215.15 828.6 189.75 801.25 124.85 792.75 104.35 790.05 98.2 788.25 95.4 785.3 90.75 781.35 88.75 777.3 86.55 771.6 86.9 767.65 87.1 761.35 88.75 740.4 94.4 715.35 105.25 700.75 111.55 671 126.1 622.75 149.85 445.1 237 435.55 241.7 430.65 245.5 423.35 251.15 421 258.1 418.65 265.05 421.05 274 422.6 279.8 427.35 289.5 444 323 477.1 390
L 480.3 396.3
Q 482.3919921875 396.55546875 484.55 397.1 495.3 399.8 501.1 408.25 504.5 413.3 506.15 420.4 507.19453125 424.9125 507.675 431.2
L 515.25 451.5
Q 555.58984375 562.108984375 617.8 661.825 617.8931640625 661.9439453125 617.975 662.075
L 619.6 664.5 621.25 666.25 622.1 667
Q 623.45 668.2 626.1 667.5
M 627.5 553.85
Q 624.1 554.3 621.85 554 620.75 554 620.25 553.75 619.39921875 553.3044921875 618.725 552.525 618.5720703125 552.34921875 618.425 552.15
L 487.175 286.35
Q 486.9 285.15 487.65 283.8 487.9 283.25 489.25 281.8 490.3 280.6 491.25 279.95 492 279.25 494.75 277.95 497.1 276.95 499.65 275.85
L 748.6 150.4 748.825 150.175 750.05 149.65
Q 752.0609375 148.8126953125 752.9 148.625 753.751953125 148.4482421875 754.65 149.175 755.54921875 149.9001953125 755.875 150.3 756.18828125 150.6904296875 756.325 151.175 756.463671875 151.66171875 756.95 152.625 757.4357421875 153.58671875 757.725 154.2
L 884 411.85
Q 885.55 414.5 884.85 418.35 884.45 420.95 882.5 424.75 880.9 427.95 879.1 428.85
L 627.75 553.9
M 480.3 396.3
Q 472.0146484375 395.327734375 464.75 399 454.8 404.15 449.15 416.6 444.65 426.5 443.1 440.6 441.15 458.35 442 481.5 442.65 495.7 442.35 501.3 441.8 512.35 438.25 520.25 435.3 526.95 426.7 537 422.155859375 542.269140625 418.4 546.35
L 405.675 560.075
Q 371.216015625 595.3390625 336.5 627.75 314 648.8 284.9 674.8 269.45 688.55 232.5 721
M 503.25 481.85
Q 509 458.55 507.85 433.75 507.7759765625 432.443359375 507.675 431.2
M 527.35 521.85
Q 530.45 529.55 530.85 538.4 531.2 546.9 529 555.35 524.9 570.9 512.6 584.85
M 593.35 624.25
Q 541.0197265625 674.4423828125 482.9 724.575
M 413.1 553.1
Q 456.534375 635.3732421875 481.775 724.625"/>
</defs>

<g transform="matrix( 1, 0, 0, 1, 0,0) ">
<use xlink:href="#Layer1_0_FILL"/>
</g>

<g transform="matrix( 1, 0, 0, 1, 0,0) ">
<use xlink:href="#Layer0_0_1_STROKES"/>
</g>
</svg>
