
<svg xmlns="http://www.w3.org/2000/svg" version="1.1" xmlns:xlink="http://www.w3.org/1999/xlink" preserveAspectRatio="none" x="0px" y="0px" width="1280px" height="720px" viewBox="0 0 1280 720">
<defs>
<g id="Layer1_0_FILL">
<path fill="#FFFFFF" stroke="none" d="
M 1280 720
L 1280 0 0 0 0 720 1280 720 Z"/>
</g>

<g id="Layer0_0_FILL">
<path fill="#000000" stroke="none" d="
M 534.35 341.75
Q 536.5 339.9 536.5 337.3 536.5 334.7 534.35 332.85 532.2 331 529.2 331 526.2 331 524.05 332.85 521.9 334.7 521.9 337.3 521.9 339.9 524.05 341.75 526.2 343.6 529.2 343.6 532.2 343.6 534.35 341.75
M 475.55 361.8
Q 477.35 360 477.35 357.45 477.35 354.9 475.55 353.1 473.75 351.3 471.2 351.3 468.65 351.3 466.85 353.1 465.05 354.9 465.05 357.45 465.05 360 466.85 361.8 468.65 363.6 471.2 363.6 473.75 363.6 475.55 361.8
M 519.6 524.15
Q 519.6 523.15 518.8 522.45 518 521.75 516.85 521.75 515.7 521.75 514.9 522.45 514.1 523.15 514.1 524.15 514.1 525.15 514.9 525.85 515.7 526.55 516.85 526.55 518 526.55 518.8 525.85 519.6 525.15 519.6 524.15
M 539.35 523.8
Q 539.35 522.65 538.5 521.8 537.7 521 536.55 521 535.4 521 534.55 521.8 533.75 522.65 533.75 523.8 533.75 524.95 534.55 525.75 535.4 526.6 536.55 526.6 537.7 526.6 538.5 525.75 539.35 524.95 539.35 523.8 Z"/>
</g>

<path id="Layer0_0_1_STROKES" stroke="#000000" stroke-width="1" stroke-linejoin="round" stroke-linecap="round" fill="none" d="
M 416.1 371.25
Q 420.45 374 425.6 374.25 428.1212890625 374.25 429.65 373.55 429.65 373.2486328125 429.65 372.95 429.65 367.8125 431.15 363.3
L 428.25 360.35
Q 409.15 339.85 402.75 312.1 396.15 283.6 405.75 258.25 410.2076171875 246.3439453125 417.725 236.225 429.90859375 219.780078125 450.15 208.05 460.1236328125 202.259375 470.75 198.3 492.5083984375 190.18671875 517 189.75 529.9423828125 189.456640625 541.6 191.275
L 542.85 189
Q 549.15 178.3 554 172.75 561.05 164.5 569.25 161.25 572.85 159.85 576.1 160.1 579.9 160.4 581.75 163 583.4 165.25 582.85 168.55 582.4 171.4 580.5 174.25 578.05 177.5 576.9 179.15 574.8 182.1 574.1 184.5 581.65 183.9 586.1 184.3 592.65 184.9 597.1 187.75 599.9 189.45 601.15 192.3 602.5 195.4 600.75 197.6 599.6 198.95 596.85 199.85 589.15 202.75 580.1 203.75
L 577.65 203.95
Q 578.8927734375 204.7029296875 580.1 205.5 595.35 215.55 606.3 232.6 616.25 248.1 621.5 267.6 626 284.3 627.4 305.15 628.45 320.45 628 343.35
L 628.025 347.825 634.15 344.25 634.05 356 666 323.375 666.4 322.95
Q 665.401171875 320.054296875 664.75 317.8 662.85 311.35 662.35 305.85 661.7 299.45 662.8 293.65 662.8794921875 293.2490234375 662.975 292.85
L 661 289.85
Q 657.9 285 658.5 279.25 659.3 273.55 663.25 269.95 661.35 267.55 660.7 265.15 660.05 262.85 660.85 260.5 661.8 257.4 666 253 711.6 204.7 756.1 160.85 757.462890625 159.4146484375 759.575 159.3 759.7685546875 159.3029296875 761.2 159.35 762.634375 159.3859375 764.05 159.525 765.4609375 159.6654296875 768.525 160.625 771.596484375 161.594921875 774.425 163.475 777.25 165.35 780.05 169.6
L 780.925 170.975 847.575 109.8 847.575 109.775
Q 846.2013671875 105.4990234375 848.05 101.35 850.215234375 101.94921875 852.65 101.2 853.3017578125 101.0017578125 853.95 100.725 855.5591796875 100.0041015625 857.1 98.75 858.7 97.45 860.7 95.2 861.85 93.9 864.1 91.35 869.65 85.65 877.35 83.35 882.15 81.95 886.55 82.65 891.45 83.5 894.1 86.85 897.15 90.6 896.2 96.3 895.3 101.55 891.6 105.6 888.9 108.65 883.7 112.15 875.95 117.35 875.1 118 872.5 120.05 871.85 121.75 871.4 122.95 871.7 124.25 871.803515625 124.7154296875 872 125.1 889.491796875 144.31015625 899.425 159.7 909.352734375 175.096484375 910.5 192.75 911.65 210.2 902.7 227.95 894.7 243.85 880.1 257.25 867.95 268.3 852.75 276.25 873 275.9 877 275.75 864.5 282.7 846.55 282.8 834.8 282.9 814.25 279.5 832.35 259.3 844.6 235.1 846.7 248.15 843.35 261.35 856.85 258 867.9 248.8 878.95 239.65 884.75 227 890.65 214.35 890.45 200 890.3 185.65 884.1 173.1 879.25 163.25 869.8 153.15 864.03203125 146.9943359375 852.35 136.75
L 793.125 186.675 794.15 188.85
Q 797.5828125 196.25 798.35 202.1 799.1056640625 207.95 796.75 213 795.75 215.05 793.95 217.3 792.95 218.5 790.5 221.1 779.05546875 232.54453125 764.8 241.725
L 765 242.75
Q 765.6630859375 245.5125 764.6 248.15 764.5896484375 248.17421875 764.575 248.2
L 764.6 248.2
Q 764.5125 252.4958984375 763.25 254.6 761.85 256.85 759.65 258.65 757.4646484375 260.3982421875 754.1 260.5
L 754.125 260.55 754.175 260.6 777.45 287.75 758.55 301.75
M 853.95 100.725
Q 852.35 107 855 112.25 857.88125 117.6361328125 862.05 119.9 866.21875 122.1638671875 871.35 122.25
M 852.35 136.75
L 863.7 126.25
Q 862.9037109375 125.95859375 862.075 125.575 858.6708984375 123.9955078125 853.8 119.025 848.9583984375 114.076953125 847.575 109.8
M 872 125.1
Q 872.2970703125 125.663671875 872.8 126.05 870.755078125 127.201171875 868.325 127.175 866.167578125 127.15390625 863.7 126.25
M 833.1 122
Q 834 114.85 830.6 107.45 827.5 100.7 821.6 95.1 810.55 84.4 794.3 80.95 778.55 77.65 763.25 82.1 748.55 86.5 736.25 97.4 724.4 107.85 717.25 122.1 730.9 124.35 747.35 124.35 718.85 133.35 693.85 150.25 690.6 131.55 691.35 120.2 692.4 103.5 701.35 93.85
L 702.1 112.1
Q 710.3 100 721 89.95 731.7 79.9 744.25 72.5 756.65 65.2 768.9 62 782.7 58.35 795.25 60.25 811.8 62.6 826.15 74.35 839.55 85.4 847.5 101.6
M 759.575 159.3
Q 758.4232421875 168.1546875 760.4 177.05 762.4 186.05 767.25 193.6 772 201.2 779.3 206.8 786.6 212.4 795.25 215.1
M 768.45 182.45
L 774.525 176.875 773.35 175.75
Q 772.05 175.2 770.55 175.85 769.05 176.5 768.35 177.85 767.65 179.1 767.65 180.75 767.65 182.2 768.25 183.6 768.95 185.4 771.5 188.75 776.3 194.55 779.35 196.85 779.8099609375 197.1888671875 780.3 197.475
L 786.9 191.925 793.125 186.675
M 780.3 197.475
Q 781.7947265625 198.334765625 783.5 198.6 786.05 199.05 787.6 197.5 788.45 196.65 788.6 195.45 788.75 194.3 788.1 193.35
L 786.9 191.925
M 780.925 170.975
L 774.525 176.875
M 707.9 278.8
L 700.7 269.5 735.9 237.3 738.85 234.7 740.05 236
Q 741.1 237.15 745.6 242.35 749.25 246.6 752.5 247 755.8 247.4 760.75 244.25 762.8046875 243.007421875 764.8 241.725
M 764.6 248.2
Q 764.1013671875 249.2111328125 763.75 249.775 763.67734375 249.8822265625 763.6 250 761.2 253.2 757.25 253.6 752.05 254.2 745.5 248.35 740.139453125 243.43203125 735.9 237.3
M 746.65 349.5
L 762.85 384.5 777.95 384.5 760.275 348.75
Q 757.85 345.55 755.5 345.1 754.25 344.95 752.7 345.55 752.25 345.75 750.1 346.85 740.7 351.95 732.75 350.25 728.2 349.35 724.85 346.1 721.35 342.75 720.85 338.35 720.6802734375 336.45859375 721.1 334.6 714.15 335.1 711.75 331.35 710.1 328.75 711.35 323.6 713.15 317.5 717.2 312.4 719.84453125 308.9953125 723.175 306.425
L 718.1 297.775
Q 716.5486328125 297.8841796875 715.1 297.75 712.1 297.35 709.7 295.65 707.15 293.85 706.25 291.25 704.95 287.1 707.75 281.75 711.55 274.35 719.3 269.6 726.65 265.05 735.5 264 739.48359375 263.4859375 742 264.4
L 746.9 260.15 753.9 260.5 754.1 260.5
M 753.9 260.5
Q 754.04140625 260.623046875 754.175 260.6
M 718.1 297.775
Q 719.436328125 297.678125 720.85 297.4 723.2 296.95 726.5 295.85 738.6 291.7 745 284.85
L 746.1 283.75
Q 747.5236328125 278.6109375 747.075 273.425 746.9876953125 272.5111328125 746.85 271.6 746.4 267.7 744.35 265.85 743.4025390625 264.9025390625 742 264.4
M 733.7 293.6
L 736.75 298.45 738.275 297.175 738.35 297.1
Q 743.35 292.25 745.6 285.4 745.8779296875 284.5724609375 746.1 283.75
M 738.275 297.175
L 756.75 284.65 747.075 273.425
M 736.75 298.45
L 737.7 299.925
Q 738.1919921875 299.8359375 738.7 299.75 745.009375 298.706640625 751.275 299.825
L 768.45 286.1 746.9 260.15
M 777.45 287.75
L 768.45 286.1
M 719.25 251.1
Q 715.9 246.95 708.35 246.75 702.25 246.55 695.95 249.15 690.25 251.45 684.85 255.75 680.5 259.3 675.8 264.75 673.3 267.6 667.75 274.75
M 675.75 305.5
Q 677.05 311.95 682.25 316.7 684.3779296875 318.64375 686.725 319.9 690.1302734375 321.716015625 694 322.1 700.1 322.85 703.5 319.75 707.75 315.95 706.75 307.25 705.9 299.6 702.15 292.6 698.4 285.6 692.5 280.6 689 277.65 685.25 276.2 680.95 274.6 677.1 275.35 673.461328125 276.1623046875 670.425 278.95 668.8033203125 280.4337890625 667.35 282.5 664.26015625 287.0412109375 662.975 292.85
M 663.25 269.95
L 670.425 278.95
M 737.7 299.925
Q 731.7740234375 301.09609375 726.75 304 724.869140625 305.1013671875 723.175 306.425
M 686.725 319.9
Q 690.2875 323.7599609375 693.5 328.9 696.9 334.35 701 343.25 708.3498046875 359.2052734375 714.55 375.45
L 726 402.6 727.55 406.3 762.85 384.5
M 721.1 334.6
Q 721.5669921875 332.6314453125 722.7 330.7 724.75 327.1 728.35 324.85 733.9 321.35 743.75 320.25 750.25 319.6 755.75 319.6 759.65 319.6 761.5 320.85 761.6357421875 320.9615234375 761.775 321.075
L 762.1 320.35
Q 763.45 316 763.65 313.05 763.95 308.85 762.25 306 759.35 301.25 751.35 299.85 751.3095703125 299.842578125 751.275 299.825
M 666 323.375
Q 666.472265625 323.7681640625 666.85 324.25 666.61953125 323.5810546875 666.4 322.95
M 666.85 324.25
Q 667.51875 326.105859375 668.15 328.2 668.3900390625 329.14140625 668.3 330.2 668.05 333.55 666 338.5 661.7 349.25 659.6 360.75 655.65 382.05 660.3 403.75 661.113671875 407.5064453125 662.15 411.15
L 714.55 375.45
Q 714.5978515625 375.58828125 714.65 375.725
L 714.6 380.25
Q 713.75 398.4 712.7 407.65 711 422.85 707.25 434.5 705.9 438.65 704.55 441.35 702.75 444.95 700.35 447.35 697.75 450.2 694.2 451.45 690.45 452.75 687 451.75 684.15 450.9 681.5 448.4 679.65 446.6 677.35 443.25 667.137890625 428.5314453125 662.15 411.15
M 761.775 321.075
Q 762.9921875 322.2279296875 763.85 324.35 766.05 329.8 765.05 335.8 764.1 341.85 760.35 346.25
L 759.55 347.15
M 760.275 348.75
L 759.75 347.7
M 726 402.6
Q 724.3904296875 409.0607421875 721.475 420.85 718.5525390625 432.621875 713.2 446.525 707.850390625 460.44453125 693.25 468.6 689.8671875 470.4701171875 685.825 471.775 690.3728515625 489.441015625 686.75 508.25 684.25 520.4 678.6 527.6 675.3 532 670.75 534.7 665.9 537.6 660.75 537.85 656.694140625 538.075390625 652.975 536.55 652.56484375 540.7626953125 650.55 545.05 646.2 554.2 637.5 557.5
M 685.825 471.775
Q 682.50703125 472.825 678.75 473.5 672.45 474.65 663.25 474.85 626.25 476 590.075 467.875 605.0431640625 485.443359375 613.05 507.325 616.3 515.95 612.95 520.95 612.4947265625 521.594921875 612.025 522.225
L 631.275 549.4 657.675 586.7 671.525 606.3
Q 671.586328125 606.39375 672.925 608.175 680.227734375 612.57421875 683.95 615.1 690.95 619.85 695.85 624.5 701.65 630.15 705.2 636.6 709.1 643.7 709.75 650.85 710.2 655.4 708.35 657.85 705.8 661.35 698.85 660.35 692.85 659.5 686.15 656.35 681.4 654.15 674.5 649.75 667.15 645.1 662.6 641.6 656.4 636.8 652.25 631.85 647.4 626.05 645.05 619.45 642.45 612.25 643.35 605.5
M 663.85 443.15
L 658.5 455.1 665.45 463.3 670.2 453.35 663.85 443.15 Z
M 652.975 536.55
Q 653.4443359375 531.7765625 651.85 527.1 650.75 523.9 648.85 522.5 647.6 521.7 646.15 521.85 644.6 522 643.85 523.1 642.7 524.5 643.75 527.6 645.6 532.45 650.55 535.35 651.7447265625 536.046875 652.975 536.55 Z
M 727.55 406.3
L 747.1 406.3 777.95 384.5
M 657.675 586.7
Q 655.1 592.2 649.8 595.6 644.5 599.05 638.425 599.175
L 643.45 605
Q 655.25 620.55 662.95 628.2 674.8 640 687.2 645 689.8 646.1 692.05 646.1 694.70390625 646.0482421875 696.85 643.775 698.990625 641.507421875 695.275 635.375 691.5625 629.2287109375 685.2 622.55 678.8302734375 615.8845703125 675.225 611.175 673.8064453125 609.314453125 672.925 608.175
M 541.6 191.275
Q 545.832421875 191.953125 549.9 192.9 565.42421875 196.4859375 577.65 203.95
M 470.75 198.3
L 477.5 198.1
Q 504.15 197.15 519.55 199.15 542.6 202.15 558.1 212.5 569.5 220 578.1 232.15 586.05 243.45 590.75 257.5 594.85 270.1 596.6 285.15 598.1 297.75 598.1 313.5
L 598.05 315.95
Q 599.748828125 316.4921875 601.25 317.35 605.7 320 609.35 326.6 612.1 331.8 613.25 337.6 614.4 343.4 613.85 349.1
L 613.575 350.425 619.15 353 628.025 347.825
M 417.725 236.225
Q 442.55 218.6 468.5 212.5 498.05 205.5 522.1 215.6 535.45 221.25 546.7 232.15 557.2 242.4 564.6 256 577.3 279.05 581.35 313
L 581.75 316.675
Q 585.7869140625 315.10859375 590.35 315 594.605078125 314.832421875 598.05 315.95
M 504.1 281.1
Q 506.9146484375 279.89375 509.9 279.3 506.355859375 271.5775390625 504.25 263.6 503.871484375 264.9298828125 503.475 266.25 491.59921875 306.567578125 468.75 342.1
L 467.25 344.3
Q 474.5439453125 346.2439453125 480.25 351.95 480.6455078125 352.3455078125 481.025 352.75 482.0130859375 340.43125 491 331.4 501.15 321.3 515.45 321.3 529.75 321.3 539.85 331.4 550 341.55 550 355.85 550 370.15 539.85 380.25 529.75 390.4 515.45 390.4 501.15 390.4 491 380.25 489.8291015625 379.0791015625 488.8 377.85 488.752734375 378.4828125 488.7 379.1 488.4986328125 381.512109375 488.35 382.8 488.1 384.85 487.1 386.1 486.4146484375 387.0791015625 485.05 387.775
L 485 387.8
Q 484.3 388.2 482.5 388.85 479.2 390.2 477.55 391.3 475 392.95 474 395.1 473.2140625 396.97109375 473.25 399.2 473.2494140625 399.9576171875 473.35 400.75 473.75 404 475.6 406.6 477.3 408.9 480.4 410.05 483.1 411.1 486.35 411.1 490.55 411.1 494.55 409.45 498.5 407.75 501.5 404.75
M 431.15 363.3
Q 433.262890625 357.0162109375 438.3 351.95 447 343.3 459.3 343.3 463.486328125 343.3 467.25 344.3
M 448.1 321.75
Q 443.05 324.45 439.05 328.75 435.05 332.95 432.5 338.25
M 638.425 599.175
L 610.075 566.375
Q 604.854296875 569.6177734375 599.2 572.35 579.9 581.7 559 583.5 538.1 585.2 517.45 579.15 509.7150390625 576.9025390625 502.525 573.725
L 494.5 581.55
Q 494.05 582.8 494.85 584.25 497.0525390625 588.1130859375 499.65 592.4 504.2408203125 599.9505859375 510.075 608.825 510.276171875 609.1234375 510.475 609.425 510.6197265625 609.6412109375 510.75 609.85 512.62265625 612.6533203125 513.4 614.15 514.190625 615.6408203125 514.3 616.725 514.3947265625 617.816015625 513.85 619.25 513.310546875 620.6765625 509.5 624 497.95 634.3 486.1 642.35 477.1 648.5 469.85 651.35 460.4 655.05 452 654 448 653.55 446.1 651.5 443.9 649.45 444.1 644.85 444.55 639.3 448.7 633.75 451.45 630.1 457.35 624.75 461.775 620.795703125 465.075 618.225 467.0361328125 616.692578125 468.6 615.65 475.2 611.15 481.5 610
L 483.225 609.75
Q 480.2134765625 605.8427734375 477.375 600.9 477.0404296875 600.3126953125 476.7 599.7 474.15 595.2 470.35 587.1 468.65 583.65 468 581.5 467 578.3 467.35 575.6 467.85 571.9 471.15 568.25 472.522265625 566.7251953125 475.65 564.1 472.8296875 562.88203125 471.275 561.075 469.72421875 559.27578125 469.1 557.15 468.4775390625 555.01484375 468.325 552.85 462.4412109375 553.1978515625 455 550.85 447.35 548.3 442 543.9 436.611328125 539.3875 434.6 533.725 429.9716796875 532.31953125 426.85 529.35 423.8931640625 526.6431640625 422.05 522.275 421.5052734375 523.3810546875 420.55 525.25 419.55 527.2 418.6 528.35 415.8 531.7 412.5 532.25 410.95 532.4 409.75 531.85 408.15 530.9 407.85 528.25 407.3 523.55 410 519.85 408.3 518.45 405.35 517.15 402 515.75 400.35 515 394.05 511.8 393 507.5 392.55 505.3 393.5 504.35 394.65 503.2 397 504 397.7068359375 504.1611328125 398.4 504.35 397.15 503.65 396.55 502.5 395.9 501.35 396.1 500.1 396.45 499.55 396.5 499.5 396.75 499.15 397.5 498.85 399.95 498.3 402.5 499.1 403.1 499.280078125 403.825 499.6 402.95 499.15 402.45 498.4 401.85 497.6 402.1 496.7 402.3 495.3 404.35 494.8 405.15 494.7 407.5 495.3 414.0123046875 497.6341796875 418.975 501.3 419.0875 500.7333984375 419.25 500.225 420.1052734375 497.51875 422.1 496.125 425.137109375 477.6474609375 434.1 461.75 437.706640625 455.02421875 441.65 452.15 434.2583984375 441.7197265625 432.1 428.5 429.2 410.75 437.35 396.6
L 438.6 394.2
Q 438.450390625 394.050390625 438.3 393.9 432.912890625 388.512890625 430.875 381.7 427 383.8 421.85 382.75 421.15 382.6 418.75 381.75
M 430.875 381.7
Q 429.7259765625 377.8580078125 429.65 373.55
M 488.8 377.85
Q 480.9 368.4923828125 480.9 355.85 480.9 354.2740234375 481.025 352.75
M 477.35 357.45
Q 477.35 360 475.55 361.8 473.75 363.6 471.2 363.6 468.65 363.6 466.85 361.8 465.05 360 465.05 357.45 465.05 354.9 466.85 353.1 468.65 351.3 471.2 351.3 473.75 351.3 475.55 353.1 477.35 354.9 477.35 357.45 Z
M 530.5 282.6
Q 524.55 279.2 517.5 278.8 513.5720703125 278.5787109375 509.9 279.3 516.253515625 293.2314453125 527.25 306.35 532.4671875 312.59921875 539.15 319.025 539.745703125 317.99375 540.05 317.25 540.75 315.55 540.5 314.1
M 542.1 333.35
Q 544.7 333.05 547.6 330.35 548.15 329.85 548.6 329.25 548.85 329 549.05 328.6 549.1509765625 328.34765625 549.225 328.15 543.8259765625 323.5466796875 539.15 319.025 538.85625 319.5330078125 538.5 320.1 535.6 324.25 534 325.75
M 536.5 337.3
Q 536.5 339.9 534.35 341.75 532.2 343.6 529.2 343.6 526.2 343.6 524.05 341.75 521.9 339.9 521.9 337.3 521.9 334.7 524.05 332.85 526.2 331 529.2 331 532.2 331 534.35 332.85 536.5 334.7 536.5 337.3 Z
M 549.225 328.15
Q 549.300390625 327.973828125 549.35 327.85 549.5 327.55 550.35 325.1
M 549.225 328.15
Q 556.0203125 333.9560546875 563.95 339.9 564.915234375 340.080859375 565.5 339.35 566 338.8 566.25 337.85 566.35 337.35 566.5 336 567.25 330.45 570.55 325.65 573.85 320.85 578.75 318.1 580.211328125 317.28671875 581.75 316.675
M 574.4 372.4
Q 574.4 376.05 571.6 378.6 568.85 381.2 564.9 381.2 560.95 381.2 558.15 378.6 555.4 376.05 555.4 372.4 555.4 368.75 558.15 366.15 560.95 363.6 564.9 363.6 568.85 363.6 571.6 366.15 574.4 368.75 574.4 372.4 Z
M 502.15 411.9
Q 507 409.35 528.6 395.6 532.75 393 534.95 391.9 538.6 390 541.85 389.35 545.55 388.5 549.15 389.25 552.95 390.05 555.5 392.5 558.55 395.45 559.05 400.35 559.5 404.9 557.6 409.1 555.9 412.8 552.55 416.35 550.05 418.95 545.85 422.25 532.75 432.2 518.75 437.5 503.4 443.35 488.5 443 479.8 442.75 474.6 439.6 471.4 437.65 469.6 434.4 467.7 430.95 468.25 427.5 468.85 423.85 472.25 421.65 474.0220703125 420.5107421875 475.75 420.1 477.2640625 419.925390625 478.85 419.725 489.7728515625 418.3076171875 502.15 411.9 Z
M 613.575 350.425
L 599.55 343.95 599.55 365.4 584.4 379.6 605 385.8 634.05 356
M 636.8 365.85
L 632.6 379.25 640.55 385.65 645.2 374.85 636.8 365.85 Z
M 616.9 427.45
L 610.25 439.15 617.3 447.45 622.5 437.4 616.9 427.45 Z
M 546.65 395.25
Q 544.85 394.95 542.65 396.05 541.45 396.7 539 398.35 538.25 398.95 530.6 404.5 528.5 406.05 528.25 407.35 528.05 408.85 529.5 410.75
L 531.35 413.6
Q 531.75 414.35 532.5 414.75 533.25 415.2 534.5 414.5 536.95 413.5 539.6 411.6 539.9505859375 411.3423828125 542.225 410.025 544.4986328125 408.7126953125 545.4 408.05 546.301171875 407.3873046875 547.9 406.375 549.49921875 405.3576171875 550.35 404.75 551.85 403.75 551.85 402.6 551.7 401.85 551.1 401.1
L 546.65 395.25 Z
M 520.175 414.875
Q 519.4408203125 413.8615234375 519.275 413.8 518.1453125 413.4681640625 516.7 413.95 515.89765625 414.2056640625 513.65 415.25 511.406640625 416.2826171875 506.75 417.6 502.09296875 418.9173828125 500.15 419.525 498.202734375 420.143359375 498 421.975 497.798828125 423.805859375 499.4 427.35 500.2443359375 429.295703125 502.75 430.05 504.3 430.4658203125 507.775 429.25 511.25 428.0380859375 516.75 426.05 522.2515625 424.0529296875 522.75 422.575 523.2412109375 421.1029296875 522.075 418.5 520.913671875 415.8892578125 520.175 414.875 Z
M 472.7 423.75
Q 471.8412109375 427.7482421875 472.875 430.55 473.90703125 433.3498046875 474.325 433.6 474.7427734375 433.849609375 476.575 433.825 478.3947265625 433.7818359375 483.4 433.675 488.41484375 433.5708984375 490.075 433.375 491.7349609375 433.18515625 491.95 432.9 492.1548828125 432.60390625 492.15 432.3 492.1 431.95 492.1 431.75 491.75 428.75 491.1 425.25 490.950390625 423.755859375 490.3 423.3 489.6427734375 422.8298828125 486.025 423.05 482.4205078125 423.28671875 478.4 423.5 474.3697265625 423.6984375 474 423.75
L 472.7 423.75 Z
M 497.9 479.825
Q 497.6423828125 480.65390625 497.55 481.6 497.4 483.5 498 485.25 498.85 487.9 501.85 491.6 504.5 494.55 507.75 497.6
L 508.3 498.225
Q 511.65625 497.925 515.1 497.1 524.2 494.95 532.25 489.5 535.7763671875 487.0693359375 539.05 484.05 535.3 482.75 532 479.85 530.65 478.5 530.25 477.5 529.5888671875 475.9416015625 530.4 474.875 519.3181640625 478.74453125 507.25 479.6 502.5248046875 479.9708984375 497.9 479.825 485.709375 479.4802734375 474.25 475.6 471.9765625 474.833203125 469.8 473.95 472.35 482.95 479.9 489.4 487.2 495.7 496.6 497.6 502.3072265625 498.754296875 508.3 498.225
M 530.4 474.875
Q 544.0060546875 470.122265625 556.125 460.825 560.6619140625 457.3322265625 565 453.2 590.35 429.1 594.35 396.75
L 605 385.8
M 539.05 484.05
Q 548.7373046875 475.0580078125 556.125 460.825
M 553.7 520.25
Q 555.7 509.6 554.3 498.25 545.7 503.4 539.05 511.75
L 538.4 512.5
Q 540.0623046875 512.894921875 541.825 513.425 542.147265625 513.5220703125 542.45 513.625 543.25 512.7498046875 544.75 511.65 546.25 510.550390625 546.925 510.025 547.6 509.4994140625 548.95 508.275 550.3 507.05 551.5 506.75 551.5 514.25 551.2 518.05 552.8455078125 519.458984375 553.8 521.1 555.787109375 524.5154296875 555.25 528.15
L 567.85 526.65
M 545.45 523.75
Q 545.45 526.6 542.9 528.6 540.4 530.65 536.8 530.65 533.2 530.65 530.65 528.6 528.15 526.6 528.15 523.75 528.15 520.9 530.65 518.85 533.2 516.85 536.8 516.85 540.4 516.85 542.9 518.85 545.45 520.9 545.45 523.75 Z
M 539.35 523.8
Q 539.35 524.95 538.5 525.75 537.7 526.6 536.55 526.6 535.4 526.6 534.55 525.75 533.75 524.95 533.75 523.8 533.75 522.65 534.55 521.8 535.4 521 536.55 521 537.7 521 538.5 521.8 539.35 522.65 539.35 523.8 Z
M 534.9 535.5
L 527.9 534.8
Q 528.65 535.45 528.65 536.35 528.65 537.25 527.9 537.85 527.2 538.5 526.15 538.5 525.1 538.5 524.35 537.85 523.65 537.25 523.65 536.35 523.65 535.45 524.35 534.8 524.386328125 534.7708984375 524.425 534.75
L 516.35 534.15
M 549.75 532.85
L 553.575 532.85
Q 553.9388671875 532.1337890625 554.275 531.375 555.00390625 529.73828125 555.25 528.15
L 551.8 528.55
M 567.15 532.85
L 553.575 532.85
Q 551.2892578125 537.20546875 547.6 540 540.45 545.2 528 544.75 521.1978515625 544.5537109375 515.65 542.2 510.10546875 539.8390625 508.2 535.6 507.0296875 532.99375 506.625 530.3
L 498.95 529.9
M 542.45 513.625
Q 548.076171875 515.4044921875 551.2 518.05
M 514.5 514.35
Q 514.1 514.35 513.25 513.75 511.15 512.15 509.25 509.85 509 511.5 509.25 514.5 509.25 515.85 509.5 517.5
M 499.15 522.25
L 506.475 525.3
Q 506.7294921875 522.0900390625 507.7 520.525 507.81171875 520.343359375 507.925 520.175 509.0240234375 518.4564453125 510.3 517.2 511.717578125 515.812890625 515.825 514.05 516.257421875 513.8646484375 516.725 513.7
L 516.35 513
Q 512.75 507.25 506.75 503.75 505.9 503.2 505.5 503.5 505.1 503.75 505.1 504.6 505.1 511.25 507.45 520.2
M 516.725 513.7
Q 520.6 512.209765625 526.325 511.5 531.487109375 510.846484375 538.4 512.5
M 434.6 533.725
Q 436.0513671875 534.163671875 437.65 534.45 443.2 535.45 450.1 534.5 462.29765625 532.8052734375 472.65 527.875 483.0064453125 522.9337890625 490.175 516.025
L 493.65 511.65
M 612.025 522.225
Q 605.5390625 531.0447265625 596.4 538.425 586.5998046875 546.3462890625 575.1 551.6 563.05 557.1 550.6 558.5 537.75 560.05 525.2 556.9 512.3 553.65 502.25 546 492.9 539.05 489.85 530.5 488.2 525.5 488.95 520.5 489.309765625 518.09453125 490.175 516.025
M 519.6 524.15
Q 519.6 525.15 518.8 525.85 518 526.55 516.85 526.55 515.7 526.55 514.9 525.85 514.1 525.15 514.1 524.15 514.1 523.15 514.9 522.45 515.7 521.75 516.85 521.75 518 521.75 518.8 522.45 519.6 523.15 519.6 524.15 Z
M 524 524.3
Q 524 526.75 522 528.45 520 530.2 517.2 530.2 514.4 530.2 512.4 528.45 510.4 526.75 510.4 524.3 510.4 521.85 512.4 520.1 514.4 518.4 517.2 518.4 520 518.4 522 520.1 524 521.85 524 524.3 Z
M 506.625 530.3
Q 506.3595703125 528.619140625 506.4 526.9 506.4193359375 526.055859375 506.475 525.3
M 508.4 530.4
L 506.625 530.3
M 526.2 532.9
L 524.45 534.725
Q 525.1765625 534.2 526.15 534.2 527.2 534.2 527.9 534.8
L 526.2 532.9 523.85 530.3
M 524.425 534.75
L 524.45 534.725
M 528.5 530.5
L 526.2 532.9
M 575.2 492.6
L 572.35 501.55 577.95 507.15 581.95 499.25 575.2 492.6 Z
M 587.75 513.7
L 584.75 522.45 591.35 525.25 593.55 517.85 587.75 513.7 Z
M 610.075 566.375
Q 621.7515625 559.1494140625 631.275 549.4
M 460.65 420.55
Q 460.65 424.3 457.75 426.95 454.9 429.65 450.8 429.65 446.7 429.65 443.8 426.95 440.95 424.3 440.95 420.55 440.95 416.8 443.8 414.1 446.7 411.45 450.8 411.45 454.9 411.45 457.75 414.1 460.65 416.8 460.65 420.55 Z
M 473.25 399.2
Q 466.9822265625 402.6 459.3 402.6 447.2126953125 402.6 438.6 394.2
M 441.65 452.15
Q 443.8416015625 455.246875 446.5 458.1 455.3134765625 467.59453125 467.825 473.1 468.8068359375 473.53671875 469.8 473.95
M 467.825 473.1
L 466.85 473.5
Q 443.375 483.5607421875 422.5 495.85 422.2888671875 495.9771484375 422.1 496.125
M 403.825 499.6
Q 404.3099609375 499.819921875 404.85 500.1 405.6 500.45 407.1 501.25
L 411.35 503.5
M 468.325 552.85
Q 469.84140625 552.7654296875 471.25 552.5 475.45 551.75 478.9 549.3 482.5 546.75 484.25 543.1 486 539.05 483.85 537.1 482.7 536.1 480.6 536.1 475.95 536.1 472.45 540.2 469.2 544 468.5 549.1 468.20703125 551.0833984375 468.325 552.85 Z
M 450.1 490.5
L 447.15 501 454.1 507 457.15 497.7 450.1 490.5 Z
M 418.975 501.3
Q 418.2189453125 504.69140625 419 509.85 420.05 516.65 421.35 520.45 421.67578125 521.394140625 422.05 522.275 422.1568359375 522.0447265625 422.25 521.85
M 502.525 573.725
Q 490.5353515625 568.40234375 480.075 560.475 478.926953125 561.415625 477.75 562.35 476.6095703125 563.2765625 475.65 564.1
M 398.4 504.35
Q 403.2765625 505.7587890625 407.35 509
M 477.375 600.9
L 479.6 601.6
Q 482.35 602.65 485.45 602.4 488.45 602.2 491.25 600.85 496.35 598.3 499.65 592.4
M 483.225 609.75
Q 483.85390625 610.5681640625 484.5 611.35
M 465.075 618.225
L 464.1 620.1
Q 461.15 624.85 460.1 629.85 459.15 633.25 460.35 635.25 461.4 637.3 464.2 637.85 466.5 638.25 469.25 637.6 472.8 636.75 476.8 634.8 479.5 633.45 483.75 630.85 493.85 624.5 502.1 618 504.9 615.8 506.45 614.2 508.65 611.9 509.85 609.6
L 510.075 608.825
M 498.35 543.75
Q 490.0998046875 552.3140625 480.075 560.475"/>
</defs>

<g transform="matrix( 1, 0, 0, 1, 0,0) ">
<use xlink:href="#Layer1_0_FILL"/>
</g>

<g transform="matrix( 1, 0, 0, 1, 0,0) ">
<use xlink:href="#Layer0_0_FILL"/>

<use xlink:href="#Layer0_0_1_STROKES"/>
</g>
</svg>
