
<svg xmlns="http://www.w3.org/2000/svg" version="1.1" xmlns:xlink="http://www.w3.org/1999/xlink" preserveAspectRatio="none" x="0px" y="0px" width="1280px" height="720px" viewBox="0 0 1280 720">
<defs>
<g id="Layer1_0_FILL">
<path fill="#FFFFFF" stroke="none" d="
M 1280 720
L 1280 0 0 0 0 720 1280 720 Z"/>
</g>

<g id="Layer0_0_FILL">
<path fill="#000000" stroke="none" d="
M 307.65 219.65
Q 309.85 217.45 309.85 214.3 309.85 211.15 307.65 208.95 305.45 206.75 302.3 206.75 299.15 206.75 296.95 208.95 294.75 211.15 294.75 214.3 294.75 217.45 296.95 219.65 299.15 221.85 302.3 221.85 305.45 221.85 307.65 219.65
M 262.3 219.05
Q 262.3 215.75 259.95 213.4 257.65 211.1 254.35 211.1 251.05 211.1 248.7 213.4 246.4 215.75 246.4 219.05 246.4 222.35 248.7 224.65 251.05 227 254.35 227 257.65 227 259.95 224.65 262.3 222.35 262.3 219.05 Z"/>
</g>

<path id="Layer0_0_1_STROKES" stroke="#000000" stroke-width="1" stroke-linejoin="round" stroke-linecap="round" fill="none" d="
M 179.85 394.85
Q 160.7 380.4 147.25 359.85 144.9 356.05 143.9 353.45 142.55 349.75 143.1 346.6 143.6265625 344.1287109375 145.275 341.975
L 143 341.6
Q 121.6 338.2 106.05 320.9 91.2341796875 304.321484375 89.625 283.875 89.394921875 286.15078125 87.45 288.2 84.75 291.1 81.1 291.1 77.65 291.05 74.55 288.7 71.65 286.5 70.1 283.1 67.8 278.05 68.25 269.1 69.15 254.05 74.85 240.25 76.6 236.35 78.3 234.1 79.142578125 232.9642578125 80.075 232.1 76.437890625 233.405859375 71.8 231.65 64.8 228.95 64.1 222.6 63.55 216.7 68.65 211.85 73.25 207.45 79.85 206 84.1 205 92.3 204.75 100.4599609375 204.5142578125 104.4 203.825 93.663671875 185.5890625 88.7 156.75 86.3 142.8 86.45 132.6 86.7 119.4 91.05 109.35 96.35 97.3 108.15 88 117.7701171875 80.4150390625 130.6 75.4
L 130.1 74.35
Q 128.65 71.05 128.1 69.2 127.25 66.25 127.5 63.75 128 59.9 131.3 56.45 133.8 53.85 138.25 51.1 143.05 48.2 146.65 46.75 151.5 44.85 155.75 44.85 160.7 44.85 164.8 47.55 169.1 50.4 170.1 54.85
L 170.5 56.925
Q 178.050390625 52.8150390625 185.35 48.35 208.6 34.05 213.55 31.5 229.7654296875 23.1212890625 243.55 21.875 243.7140625 21.8634765625 243.875 21.85 243.9119140625 21.853125 243.95 21.85 258.0341796875 22.1873046875 274.55 28.35 285.05 32.25 303.8 41.75 311.1 45.45 314.4 47.55 320.15 51.15 323.55 55.25 329.55 62.25 331.85 73.7 333.3 81.05 333.65 94.6 363.7513671875 81.497265625 393.25 73.5 397.2060546875 72.430078125 401.15 71.45 413.1 68.45 421.6 69 432.9 69.65 439 76.45 442.8 80.7 444 86.9 445.1 92.7 443.75 98.7 441.5 108.35 432.5 119.2 416.25 139.15 387.95 154.65 370.2 164.35 334.75 178.2
L 331.475 179.4
Q 331.179296875 181.6861328125 330.75 184
L 330.25 185.35
Q 332.625390625 187.3033203125 334.5 189.75 338.5 195.15 340 202.4 341.35 209 340.5 216.35 339.5517578125 225.3587890625 335.625 233
L 337.1 235
M 170.5 56.925
Q 158.696484375 63.3353515625 146.275 68.875
L 145.6 69.75
Q 145.375390625 69.9806640625 145.15 70.2 139.9466796875 75.5794921875 137.5 78.65 133.3 83.85 131.25 88.85 128.7 95.1 128.35 103.25 128.1 109.3 129.1 118.1 133.1 152.15 145.7 184.45
L 333.575 94.625 333.65 94.6
M 331.275 155.6
Q 332.4345703125 156.08984375 333.6 156.5 340.45 158.95 345.5 157.35 350 156.05 352.9 151.45 355.6 147.25 356 142 356.35 137.7 355.05 132.3 354.3 129.1 352.1 122.75 356.15 125.5 358.25 126.75 361.85 128.75 365 129.5 368.75 130.3 372.25 129.25 376.05 128.15 378.1 125.25 380.9 121.25 379 115.75 377.25 110.7 372.85 107.35 369.5 104.95 363.7 102.75 357.296484375 100.2677734375 355.15 99.425
L 304.5 133.85
Q 304.328125 133.953125 304.15 134.05 312.2724609375 142.58046875 317.2 146.75 324.3056640625 152.6572265625 331.275 155.6 333.0951171875 167.2818359375 331.475 179.4
M 393.25 73.5
L 355.15 99.425
M 335.625 233
Q 334.598046875 235.0201171875 333.35 236.95 326.95 246.8 317.1 250.5
M 336.85 233.6
Q 350.4 249.5 355.6 269.05 361.1 289.75 355.35 308.35 350.45 324.45 337.55 337.45 337.1015625 337.9021484375 336.65 338.35
L 340 339.25
Q 343.9 340.4 346.05 344.5 348.1 348.35 347.5 352.75 346.35 359.75 338.75 366.5 337.25 367.8 324.75 376.3 316.2 382.15 312.5 387.75 306.45 396.65 307.1 412.1 307.353515625 416.1962890625 308.125 423.3 308.8919921875 430.4138671875 309.175 433.25 309.45546875 436.0763671875 309.675 437.5 313.6619140625 468.10703125 315.85 485.85 317.05 494.55 317.3 499.5 317.7 507.05 316.6 513.1 315.4 520.3 312 525.95 308.25 532.25 302.5 535.35 297.7 538.05 294.35 536.35 293.5765625 536.001953125 292.925 535.4 292.5876953125 535.669921875 292.25 535.925
L 292.5 536.85
Q 298.2482421875 563.0603515625 299.3 589.6 300.1 590.55 301 590.75 301 590.85 301.25 590.85 302.2 591.1 303.1 590.85
L 303.6 590.75
Q 304.09765625 590.55859375 304.35 590.125 304.3615234375 589.9818359375 304.375 589.85 304.858203125 584.38984375 307 579.6
M 241.6 75.6
Q 246.840625 73.9837890625 254.2 70.975 254.342578125 70.8751953125 254.475 70.825 255.101953125 70.5640625 255.75 71.05 256.55 71.65 256.6 72.6 256.9 73.95 255.85 76 249.9267578125 88.344140625 240.575 100.75 240.55625 100.7751953125 240.525 100.8 240.5181640625 100.8259765625 240.5 100.85 240.39609375 101.1103515625 240.6 101.6 240.85 101.85 241.5 102.1 242.9 102.35 245.6 101.85 253.01640625 100.180078125 259.125 96.15 259.240234375 96.0734375 259.35 96 259.9408203125 95.81171875 260.6 96.1 261.35 96.4 261.75 97.1 262.25 98 262.25 100.1 262.1 105.1 262 115.25 266.25 113.85 274.6 111 275.7 110.8 275.5 108.85 274.9 103.05 271.85 97.85 271.1 96.6 271.25 96 271.55 94.6 274 94.6 282.62265625 94.45546875 292 94.725 292.2373046875 94.742578125 292.475 94.75 292.6041015625 94.7634765625 292.725 94.75 293.075 94.7046875 293.45 94.4 294.3 93.7 294.1 92.75 294 91.5 292 90 281.3 81.9 272.5 72 271.9 71.4 271.75 70.75 271.75 69.2 274.5 69 279.5 69 284.5 70 285.15 70.3 285.6 69.65 286.05 69 285.85 68.25 285.6 67.4 284.1 66.1 269.65 54.7 259.25 39.5
L 257.65 37.65
Q 256.991015625 39.4802734375 254.5 49.125 252.008984375 58.7697265625 241.25 75.6
M 145.7 184.45
Q 160.9 192.9 177.85 193.525 178.9658203125 193.4154296875 180.1 193.25 188.15 192.1 197.6 188.2 203.6 185.75 214.25 180.25 296.5 138.5 304.15 134.05
M 284.7 217.85
Q 284.7 234.25 273.8 245.8 262.95 257.4 247.55 257.4 232.15 257.4 221.25 245.8 210.4 234.25 210.4 217.85 210.4 201.45 221.25 189.85 232.15 178.3 247.55 178.3 262.95 178.3 273.8 189.85 284.7 201.45 284.7 217.85 Z
M 278.6 193.85
Q 283.4 187.3 290.65 183.2 297.9 179.1 306 178.35 314.2 177.6 321.8 180.5 326.6126953125 182.3462890625 330.25 185.35
M 298 156.25
Q 303.45 153.8 309.65 154.75 315.85 155.65 320.25 159.6
M 146.275 68.875
Q 139.58046875 71.865234375 132.7 74.6 131.6388671875 74.9900390625 130.6 75.4
M 152.75 245.25
Q 145.8 242.5 140.75 241.25 134.1 239.65 128.35 240 121.8 240.45 116.35 243.7 110.55 247.1 108.1 252.6 106.85 255.5 106.5 259.3 106.25 262.05 106.5 266.25 107.3 276.85 111.15 285.7 115.45 295.5 122.85 301.5 130.75 307.95 141.3 308.3 152.2 308.7 159.35 302.1
M 104.925 203.925
Q 104.6291015625 203.792578125 104.4 203.825 104.4712890625 203.9669921875 104.55 204.1
L 104.925 203.925 145.7 184.45
M 89.625 283.875
Q 89.7291015625 282.88828125 89.5 281.85
M 177.85 193.525
Q 183.65 214.9 185.85 226.55 189.3 245.05 188.75 260.1 188.45 267.25 186.5 270.75 185 273.3 182.6 274.7 180 276.2 177.35 275.75 174.9 275.3 173.1 273.1 171.35 271.1 170.75 268.35 170.15 266.15 170.35 263.25 170.45 262 171 258 170.3 262.5 169.55 265.05 168.45 268.9 166.6 271.5 164.4 274.55 161.1 276 157.5 277.5 154.25 276.25 150.6 274.85 149 270.45 147.55 266.45 148.35 262 148.8 259.5 150.7 254 152.45 248.85 152.85 245.85
M 180.125 395.05
Q 180.060546875 395.1951171875 180 395.325 160.384375 438.319921875 147.25 483.5 145.1 490.95 144.4 495.35 143.3 502 144.25 507.35 146.15 518.3 156.2 527.15 164.3 534.3 177.25 539.75
L 181.6 541.6
Q 187.2 515.15 188.35 468.6 188.659765625 455.75390625 188.875 447.25 189.2033203125 435.1662109375 189.35 431.85 190.25 411 192.35 395.25 193.4 387.8 196.3 382.85 200 376.6 205.6 376.6 211.3 376.6 214.95 382.85 217.85 387.75 218.85 395.25 223.45 429.5 220.5 472.7 218.7203125 498.652734375 211.9 548.95 221.68984375 551.906640625 231.75 546 232.073046875 545.8013671875 232.4 545.6 242.25 539.55 247 528.75 250.9 519.9 252 507.2 252.2 504.3 252.75 484.75 252.85 477.9 254.15 452.25 255.2 432.15 254.75 419.75 254.2818359375 408.571484375 252.6 398.625 249.375 379.512109375 241.675 364.95 239.683984375 361.180078125 237.4 357.725 235.5697265625 355.526953125 233.75 352.7 226.5 341.5 224 339 217.15 332.3 205.5 330.35 197.632421875 328.9755859375 185.45 329.675 184.782421875 329.7056640625 184.1 329.75 174 330.3 167.9 331.4 159.15 332.95 152.6 336.35 147.7220703125 338.81875 145.275 341.975
M 83.5 230
Q 81.9140625 231.4509765625 80.075 232.1 81.6625 230.63359375 83.5 230 Z
M 309.85 214.3
Q 309.85 217.45 307.65 219.65 305.45 221.85 302.3 221.85 299.15 221.85 296.95 219.65 294.75 217.45 294.75 214.3 294.75 211.15 296.95 208.95 299.15 206.75 302.3 206.75 305.45 206.75 307.65 208.95 309.85 211.15 309.85 214.3 Z
M 279.85 238.25
Q 280.55 240.25 281.75 241.35 281.85 241.5 282.25 241.75 282.5 242 283.1 242.35 283.8365234375 242.7181640625 284.7 242.75 287.8 240.4 291.55 239.3 295.35 238.25 299.2 238.6 307.2 239.2 312.95 245.1 317 249.25 317.2 254 317.4 258.2 314.25 261.85 311.35 265.25 306.95 266.85 301.95 268.75 296.55 268.3 291.15 267.85 286.55 265.1
M 262.3 219.05
Q 262.3 222.35 259.95 224.65 257.65 227 254.35 227 251.05 227 248.7 224.65 246.4 222.35 246.4 219.05 246.4 215.75 248.7 213.4 251.05 211.1 254.35 211.1 257.65 211.1 259.95 213.4 262.3 215.75 262.3 219.05 Z
M 281.25 306
Q 275.05 298.95 265.95 295.4 256.85 291.9 247.5 293 241.4 293.65 238.375 296.9 247.282421875 304.0486328125 259.45 306.5 272.55 309.2 285.6 305.75 300 302.05 305.25 292.85 307.35 289.3 306.35 286.5 304.9 281.75 295.35 281.5 283.95 281.25 270 279.7 261.6673828125 278.753125 246.575 276.475 245.7181640625 276.3564453125 244.85 276.225 239.8904296875 276.3083984375 236.35 278.1 234 279.5 232.6 281.7 231.05 284.1 231.25 286.6 231.35 290.7 236.25 295.1 237.287109375 296.039453125 238.375 296.9
M 233 281.6
Q 242.25 286.55 255.25 288.2 263.55 289.25 278.85 289.25 287 289.35 291.75 288.45 298.8 287.1 303 283.25
M 205.1 240.6
Q 207.65 249.35 215.85 255.75 222.7 260.9 232.85 263.6
M 159.85 301.6
Q 162.4 309.05 167.6 315.4 172.75 321.7 179.6 325.75
L 185.45 329.675
M 336.65 338.35
Q 324.73984375 350.0017578125 308.75 356.6 303.5951171875 358.780859375 298.1 360.45
L 297.5 362.85
Q 293.3236328125 377.7734375 290.425 392.925 288.1294921875 404.912890625 286.625 417.05 284.9205078125 430.9033203125 284.25 444.95 282.626953125 479.0333984375 287.25 512.4 288.336328125 520.140625 289.75 527.85 290.35 531 291.15 532.8 291.8859375 534.4251953125 292.925 535.4
M 252.6 398.625
Q 257.75 403.5 265.1 404.7 272.5 405.9 278.75 402.75 281.5 401.4 284.35 398.95 286.2 397.4 289.25 394.25
L 290.425 392.925
M 315.85 384.1
Q 316.6 387 317.1 390.7 317.35 392.65 317.75 397.35 318.75 408.35 322 447
L 327.375 525.6
Q 327.4443359375 527.19453125 327.5 528.75 328.151171875 546.8974609375 327 560.25 325.45 579 320.1 593.85 319.15 596.9 317.35 598.8 315.2 601 312.85 600.25 311.3 599.75 310.35 598 309.814453125 596.8931640625 309.6 595.575 309.75 598.2 308.6 598.85 307.4 599.55 306 598.35 304.25 596.9 304.25 593 304.25 591.5443359375 304.35 590.125
M 298.1 360.45
Q 273.4068359375 367.900390625 241.675 364.95
M 310 436.75
Q 310.85 436.35 312.85 435.85 318 434.3 320.6 435.1
M 286.625 417.05
Q 285.4185546875 417.8451171875 283.35 419.5 273.7 426.6 261.85 427.75
M 188.875 447.25
Q 196.7 444.8 204.9 444.55 213.1 444.25 220.85 446.25
M 190.75 606
Q 191.65 605 193.15 603 196.05 598.75 196.8 597.6 198.8 594.5 200 592.05
L 200 592
Q 202.85 585.7 203.95 583.05 206.15 578 207.4 573.85 208.95 568.7 210.1 562.05 210.75 558.1 211.75 550.1 211.8287109375 549.5208984375 211.9 548.95 211.7533203125 548.8986328125 211.6 548.85
M 297.75 577.5
Q 293.75 579.5 288.25 580.65 284.75 581.35 278.25 582.1 273.65 582.75 270 583.1 268.05 583.5 266.85 582.85 265.5 581.95 265.5 578.85 265.7 571.85 266.1 567.1
L 266.075 566.275
Q 261.5361328125 568.0384765625 255.75 568.5 252.6 568.85 248.45 568.7 247.65 568.7 241.1 568.35
L 240.2 568.35
Q 242.948046875 597.982421875 241.025 626.85
L 240.025 638.175 237.9 662
Q 238.1236328125 662 238.35 662 242.4 662.2 243.6 663.85 244.7 665.45 243.85 669.1 242.0064453125 676.3796875 239.325 682.775 247.128515625 682.1037109375 254.85 682 265.9013671875 681.85625 276.775 682.875 277.01171875 682.897265625 277.25 682.925 284.54140625 683.6255859375 291.75 684.85 303.45 686.85 311.2 690.6 315.758984375 692.8 319.15 695.65
L 320.25 695.7
Q 320.5265625 695.714453125 320.8 695.725 342.34375 696.8373046875 353.6 695.85 372.05 694.25 384.9 687.1
L 385.75 686.5
Q 384.4 684.8 382.2 683.4 380.75 682.45 378 681.1 361.25 673.05 342.7 669.65 339.61796875 669.0736328125 336.525 668.625 332.6 670.35 329.4 673.05 326.15 675.8 324.1 679.35
M 206.5 578.25
Q 207.6 579.45 210.25 580.6 212.17578125 581.4951171875 214.15 582.225 219.4927734375 584.1576171875 225.25 584.85 233.15 585.75 240.85 584.25
M 181.6 542.1
Q 181.05 556.15 176.95 569.85 172.8 583.55 165.5 595.6 162.7 600.05 164.6 602.1 165.55 603.25 168 603.25 171.85 603.25 175.35 600.75
L 177.825 598.825 177.875 598.775 181.9 593.6
M 287.25 512.4
Q 283.05859375 519.185546875 276.4 523.9 269.5 528.8 261.5 530.35
M 269.6 564.6
Q 267.9466796875 565.5427734375 266.075 566.275
M 231.75 546
Q 239.1 549.3 247.5 550.1 255.6 550.85 263.85 549.25 279.196875 546.1515625 292.25 535.925
M 314.85 549.5
Q 311.5 551.3 308.75 555.35 306.15 559.35 306.6 562.6 306.85 564.25 307.85 564.75 308.4 564.95 309.85 564.6 313.2 563.4 316.25 560.6
M 309.6 595.575
Q 309.528515625 595.0576171875 309.5 594.5 309.35 590.55 311.15 585.95 312.25 583.1 315.1 578
M 299.3 589.6
Q 299.914453125 605.41796875 298.875 621.35 298.858203125 621.4755859375 298.85 621.6 298.939453125 627.2966796875 298.85 633 298.7255859375 642.740234375 298.1 652.5
M 274.6 634
Q 277.75 635.25 283.25 635.25 291.25 635.25 298.85 633
M 298.85 621.6
Q 285.810546875 621.846875 275.35 622.825 275.4013671875 622.2375 275.45 621.65
L 273.2 641.75
Q 271.85 654.1 270.85 661.2 269.644140625 669.525 268.1 676.575 270.825 676.484375 275.75 676.35 279.5 676.35 281.35 675.85 283.99375 675.3029296875 285.65 673.975 285.7998046875 673.8369140625 285.95 673.7 286.8548828125 671.6572265625 286.9 667.95 287 663.3 287.5 661.6 288.9 657.4 293.75 654.75 296.55 653.25 302.75 651.75 307.05 650.65 308.85 652.35 309.9 653.2 310.2 654.95 310.45 656.4 310.1 658.1 309.25 663.05 305.875 667.575 315.848046875 666.847265625 325.775 667.5 331.1595703125 667.8623046875 336.525 668.625
M 254.85 682
Q 253.85 683.1 252 685.35 251.9 685.7 251 686.6 250.45 687.65 250.25 687.75
L 249.1 689.75
M 268.1 676.575
Q 267.9 677.15 267.5 678.525 267.1 679.9 266.35 681.6
M 276.775 682.875
Q 275.3580078125 682.878125 273.6 683.65 270.15 685.1 266.8 688.1 264.55 690.15 261.1 694.15
M 325.775 667.5
Q 322.05 668.2 318.8 670.45 315.65 672.65 313.75 676
M 240.6 626.6
Q 227.3 627 214.1 626.5 212.9330078125 632.45390625 211.6 638.375 215.7142578125 639.4529296875 221.25 639.7 223.85 639.85 231.25 639.85 234.3 639.75 235.2 639.65 237.45 639.4 239.1 638.75
L 240.025 638.175
M 214.15 582.225
Q 215.7453125 591.93046875 215.5 604.1 215.35 611.6 214.1 626.5
M 189.1 595.25
L 183.825 604.275
Q 183.3609375 605.26875 184.05 606.45 184.75 607.6 186 607.85 187.95 608.15 190.35 606.25
M 177.825 598.825
L 177.825 598.85
Q 177.8001953125 598.8990234375 177.775 598.95 176.1849609375 601.3865234375 175.25 603.35 174.3 605.3 174.1 606.6 174.1 607.85 174.5 608.35 175.35 609.4 177.1 609.1 179.25 608.85 181.1 607.5 182.88515625 606.1611328125 183.825 604.275
M 211.6 638.375
Q 206.49765625 660.949609375 198.925 683.05 202.9921875 685.407421875 207.8 686.25 212.6 687.1 217.35 686.25 219.4 685.75 220.1 684.75 220.55 684.1 220.45 683.05 220.4 682.55 220.1 681.25 218.25 674.55 220.1 670.25 221.2 667.9 223.3 666.05 225.3 664.35 227.85 663.35 231.851953125 662.048046875 237.9 662
M 319 696.1
Q 292.95 708.65 257.35 706.1 243.35 705.1 226.1 701.6 216.35 699.65 195.25 694.5
M 198.925 683.05
Q 195.2408203125 693.77734375 190.975 704.4 232.1232421875 713.07890625 254.4 714.8 290.7 717.6 318.25 708.5 320.75 707.65 322.2 706.75 324.25 705.5 325.1 703.75
L 325.4 703.125
Q 323.05390625 698.953515625 319.15 695.65
M 274.1 583.1
Q 277.0119140625 602.221875 275.45 621.65
M 325.4 703.125
L 325.55 702.825
Q 352.1087890625 704.4720703125 379 699.25 381.75 698.6 383.25 697.95 385.55 696.95 386.6 695.35 387.85 693.5 387.55 690.9 387.2 688.5 385.75 686.5"/>
</defs>

<g transform="matrix( 1, 0, 0, 1, 0,0) ">
<use xlink:href="#Layer1_0_FILL"/>
</g>

<g transform="matrix( 1, 0, 0, 1, 0,0) ">
<use xlink:href="#Layer0_0_FILL"/>

<use xlink:href="#Layer0_0_1_STROKES"/>
</g>
</svg>
