
<svg xmlns="http://www.w3.org/2000/svg" version="1.1" xmlns:xlink="http://www.w3.org/1999/xlink" preserveAspectRatio="none" x="0px" y="0px" width="1280px" height="720px" viewBox="0 0 1280 720">
<defs>
<g id="Layer2_0_FILL">
<path fill="#FFFFFF" stroke="none" d="
M 1280 720
L 1280 0 0 0 0 720 1280 720 Z"/>
</g>

<g id="Layer0_0_FILL">
<path fill="#000000" stroke="none" d="
M 645.1 399.15
Q 642.9 396.95 639.75 396.95 636.6 396.95 634.35 399.15 632.15 401.4 632.15 404.55 632.15 405.30859375 632.25 406 632.7478515625 406.4638671875 633.2 406.9 640.126953125 404.4623046875 647.2 403 646.77890625 400.82890625 645.1 399.15
M 707.4 389.25
Q 704.15 389.25 701.85 391.5 699.7830078125 393.612890625 699.6 396.5 700.4060546875 397.3501953125 701.25 398.15 701.39296875 398.2849609375 701.5 398.4 708.29296875 397.10859375 715.15 396.15 714.8828125 393.4828125 712.9 391.5 710.65 389.25 707.4 389.25 Z"/>
</g>

<path id="Layer0_0_1_STROKES" stroke="#000000" stroke-width="1" stroke-linejoin="round" stroke-linecap="round" fill="none" d="
M 859.1 152.25
Q 859.30625 152.2078125 859.525 152.15 860.0728515625 152.038671875 860.725 151.9 863.4431640625 151.1568359375 865.7 148.9 868.15 146.4 869.5 142.75 871.45 137 870 132.75 869.05 130.3 866.9 128.75 864.7 127.05 862.25 127.25 859.75 127.35 856.1 130.25 853.85 132.15 843.2 143.85 835.45 152.3 828.45 155.25 848.8541015625 160.8859375 864.35 171.575 872.3736328125 171.3359375 875.75 170.95 882.35 170.25 887.25 168.25 890.3 166.95 891.25 165.5 892.25 164.15 892.25 161.85 892.3 158.65 890.3 155.7 888.35 152.9 885.25 151.35 880 148.7 872.25 149.6 869.55 149.9 865.65 150.8 862.697265625 151.4787109375 860.725 151.9
M 619 350.75
Q 621.0056640625 350.8142578125 623.025 350.625 599.694140625 320.3013671875 590.75 288.5 583.1 261.55 587.25 240.75 591.5 219.95 607.6 201.9 622 185.8 643.25 174.6 666.95 162.1 697.6 155.85 722.5 150.75 755.25 149.25 774.228125 148.3810546875 790.2 149.325 802.6958984375 150.0546875 813.35 151.9 819.0265625 152.8826171875 824.375 154.2 826.439453125 154.69765625 828.45 155.25
M 864.35 171.575
Q 865.1791015625 172.1587890625 866 172.75 886.15 187.25 900 212.2 911.95 233.75 918.6 262 923.15 280.8 927.5 314.1 932.449609375 351.9017578125 935.25 368.075 938.04609375 384.2501953125 942.425 405.125 946.797265625 425.99296875 948.15 431.35 949.50078125 436.7025390625 952.05 445.575 954.6037109375 454.4458984375 957.275 461.1 959.94296875 467.759375 962.675 472.2 965.4025390625 476.646484375 970 481.75 974.95 487.3 984.25 491.8 989.6 494.4 1000.6 499 1020.45 508.3 1033.5 525.95 1047.05 544.25 1048.25 565.1 1049.4 586.9 1036.15 605.4 1022.6 624.4 1005.65 624.6 1009.5 639.45 1007.6 656.3 1005.65 673.1 997.5 687.5 992.8 695.6 987.1 701.1 979.4 708.85 967.35 714.55 959.62109375 718.215625 942.8 720.6 941.6712890625 721.809765625 940.5 723
M 669.4 317.5
Q 664.208984375 325.5005859375 659.95 329.15 655.691015625 332.798828125 651.75 336.05 656.1474609375 334.75 660.7 334.75 664.0240234375 334.75 667.15 335.2 689.2412109375 313.9486328125 704.5 286.8 719.85 259.45 726.75 229.1 741.2 268.55 770 300.55 798.8 332.5 838.2 354.55 839.6 345.85 844.45 339.3 848.726171875 333.570703125 854.275 330.075 855.030078125 275.21328125 841.35 232.5 833.4 207.7 820.6 186.75 807.4572265625 165.23046875 790.2 149.325
M 706.35 314.85
Q 708.1330078125 316.5296875 710 318.1 710.3486328125 318.3900390625 710.7 318.675 715.7138671875 322.7521484375 721.325 325.975 728.5216796875 330.0974609375 736.7 332.8 751.1205078125 337.5654296875 765.725 336.975 768.727734375 336.8509765625 771.75 336.5
M 667.15 335.2
Q 680.151953125 337.101953125 689.9 346.85 691.065234375 348.015234375 692.125 349.225 695.40390625 342.6896484375 701.25 337.15 710.0826171875 328.81171875 721.325 325.975
M 699.625 396.525
Q 699.7830078125 393.612890625 701.85 391.5 704.15 389.25 707.4 389.25 710.65 389.25 712.9 391.5 714.8828125 393.4828125 715.15 396.175 741.5326171875 392.571484375 769.325 394.575 779.3 383.047265625 779.3 367.65 779.3 349.8 765.9 337.15 765.8064453125 337.061328125 765.725 336.975
M 699.625 396.525
Q 698.6560546875 395.5306640625 697.775 394.5 687.9 383.003125 687.9 367.65 687.9 357.616796875 692.125 349.225
M 774.85 347.6
Q 779 346.2 782.5 343.4 786 340.6 788.25 336.85
M 778.85 359.5
Q 788.7 356.9 797 350.75
M 632.275 406
Q 631.8865234375 405.6365234375 631.5 405.25 630.346484375 404.096484375 629.3 402.9 619 418.15 617.4 436.5 615.85 454.75 622.85 471.1 629.9 487.4 644.9 499.9 655.9142578125 509.1046875 669.525 514.925 673.218359375 516.5169921875 677.1 517.85 689.0908203125 522.0611328125 701.725 523.65 717.5814453125 525.6212890625 734.45 523.45 740.7951171875 522.6255859375 746.975 521.25 762.058203125 517.9041015625 776.1 511.3 780.5541015625 509.19765625 784.9 506.775 787.090625 505.5515625 789.25 504.25 795.7369140625 500.355078125 801.825 495.825 802.0201171875 495.3146484375 802.2 494.85 804.0484375 490.0111328125 806.275 486 808.128125 482.63359375 810.25 479.85 815.7 472.7 823.5 469.15 827.7123046875 467.2419921875 831.8 466.775 832.1771484375 466.3185546875 832.55 465.85 840.152734375 456.2619140625 846.05 445.625 854.098046875 431.091015625 858.95 414.6 869.25 414.7 879.7 408.3 889.85 402.1 895.5 391.85 900.9 381.95 901.5 369.95 902.1 358.4 898.25 347.25 894.35 336.2 887.5 330.6 881.15 325.65 872.45 325.2 872.1501953125 325.1857421875 871.85 325.175 863.7375 324.9400390625 856.6 328.75 855.4123046875 329.3693359375 854.275 330.075
M 824.375 154.2
Q 850.9572265625 191.2755859375 863.25 235.5 875.5970703125 279.6892578125 871.85 325.175
M 818.3 417.8
Q 818.3 425.8 812.4 431.45 806.5 437.15 798.15 437.15 789.8 437.15 783.9 431.45 778 425.8 778 417.8 778 409.8 783.9 404.1 789.8 398.45 798.15 398.45 806.5 398.45 812.4 404.1 818.3 409.8 818.3 417.8 Z
M 806.275 486
Q 819.00859375 486.001953125 832.35 489.1 834.6 489.6 835.35 490.5 836.4 491.7 836.1 494.35 835.95 497.35 835.35 500.35 835.15 502.3 834 503 832.85 503.7 830.6 503 815.7 498.55 800.225 500.55 798.7908203125 505.0314453125 797.1 511.25 791.2236328125 532.2154296875 785.5 551.5 784.0302734375 556.42890625 782.575 561.25 781.7572265625 563.9544921875 780.95 566.625 787.548828125 568.2859375 794.55 573.45 798.85 576.6 806.35 583.75 808.4 585.75 809.3 587.2 810.6 589.3 810.25 591.25 809.947265625 593.0546875 808.275 595.85 806.6140625 598.6416015625 805.7 599.475 804.774609375 600.2931640625 804.125 600.7 803.484375 601.1125 802.35 601.25 801.20546875 601.394921875 799.5 600.1 797.1 598.3 794 595.15 789.1 590.2 788.75 589.85 785.5 586.9 782.9 585.25 779.45 583.1 776.025 582.475 775.7015625 583.516796875 775.375 584.55 773.3119140625 591.1248046875 771.225 598.4 776.2572265625 598.133984375 781.75 597.85
M 886.1 548.35
L 876.75 557.75
Q 874.55 559.65 874.1 561.35 873.75 562.85 874.75 565.85
L 876.6 571.5
Q 877.1 573.15 878 573.75 879.05 574.5 881.1 573.75 884.5 572.5 887.05 569.85 889.637109375 567.2130859375 891.225 563.825 885.125390625 542.1712890625 876.075 520.15 876.0322265625 520.0462890625 876 519.95 870.4591796875 506.5369140625 863.85 493 859.83671875 484.6869140625 856 479.4 855.8857421875 479.25 855.775 479.1 855.031640625 478.0888671875 854.3 477.2 847.85 469.4 840 467.35 835.9646484375 466.316015625 831.8 466.775
M 905.1 525.1
Q 904.55 543.55 912.9 562.55 921.3 581.6 936.35 595 939.8 598.1 942.65 599.7 946.350390625 601.7498046875 952.175 602.2 957.9986328125 602.6501953125 962.775 596.575 967.551171875 590.499609375 966.65 581.7 965.7494140625 572.9 962.5 563.5 959.9 556 954.6 546.85 940.65 523.15 920.7 507.6 898.8 490.55 871.35 489.825 874.0076171875 491.663671875 874.4 492 883.8 499.85 887.5 508.25 891.75 518.2 891.3 533.7 883.93203125 525.596875 876.075 520.15
M 856 479.4
Q 866.86484375 486.7267578125 871.35 489.825
M 846.05 445.625
Q 849.9158203125 448.3220703125 852.75 452.3 855.55 456.25 856.85 460.85 859.4412109375 470.04140625 855.775 479.1
M 756.35 599.5
Q 755.25 604.4 758.25 610.75 759 612.4 760.95 615.9 762.8 619.15 763.6 621 764.4 623 764 624 763.5 625.15 761.25 625.85 757.85 627 754.25 627.75 749.95 628.45 747.85 627.25 746.15 626.1 744.85 622.85 741.8 616.05 740.5 611.7 738.6509765625 605.6173828125 738.85 600.4 734.5482421875 600.7060546875 731 601 726.354296875 601.3794921875 721.85 601.8 710.05 611.45 706.3 627.75 703.771875 638.7189453125 704.725 652.075 704.9533203125 655.1048828125 705.35 658.25 706.80546875 669.2466796875 709.925 678.675 713.03359375 688.109765625 719.8 692.5 722.6705078125 694.3623046875 725.775 695.5 730.016796875 697.0427734375 734.7 697.25 742.84453125 697.603125 753.75 697 764.784765625 696.3177734375 773.225 695.225 779.02421875 694.455859375 783.6 693.5 788.975 692.4083984375 793.825 690.9 803.620703125 687.8515625 811.25 683.1 820.854296875 677.16953125 829.25 668.575 821.2365234375 665.5802734375 815.6 661.95 808.35 657.25 804.35 651 802.5 648.2 802.6 646 802.7 643.65 804.7 641.6 805.95 640.3 808.85 638.35 810.25 637.65 810.3 637.65 811.15 637.3 811.85 637.35 813.45 637.5 815.25 640 819.65 645.7 825.9 649.6 832.15 653.45 839.8 655.2 845.112109375 646.989453125 850.6 635.525 852.14375 632.3 853.55 628.825 861.19375 610.071484375 864.975 584.2 866.903515625 570.995703125 867.625 557.8 859.65 554.45 851.95 554.75 844.4 555.05 837.1 557.25 834.2 558.15 832.85 559.5 831.45 560.9 831.05 563.35 830.75 565.05 831 567.85 831 569.7 831.85 570.25 832.3 570.6 832.95 570.6 833.25 570.6 834.25 570.5 850.55 568.35 865.85 573.25
M 867.625 557.8
Q 868.5892578125 540.3669921875 867.45 522.95
M 769.325 394.575
Q 767.7412109375 396.4119140625 765.9 398.15 752.55 410.8 733.6 410.8 720.2619140625 410.8 709.675 404.525 706.7162109375 402.7861328125 703.975 400.55 701.945703125 400.3083984375 700.2 400.125 696.9873046875 399.77265625 694.7 399.6 693.821875 399.5296875 693.05 399.5 687.3 399.2 682.75 400.5 681.2453125 400.91328125 679.85 401.525 677.042578125 402.7255859375 674.7 404.7 671 407.8 669.35 412 668.439453125 414.303125 668.325 416.7 668.2125 418.790625 668.7 420.95 669.75 425.75 673.25 428.6 677 431.65 683.35 432.1 689.45 432.6 695.45 430.4 701.45 428.15 705.85 423.85
M 765.5 429
Q 752.2 423.75 737.4 426.9 722.65 430 712.6 440.25
M 701.525 398.425
Q 701.39296875 398.2849609375 701.25 398.15 700.4060546875 397.3501953125 699.625 396.525
M 703.975 400.55
Q 702.73515625 399.53359375 701.525 398.425 708.29296875 397.10859375 715.15 396.175
M 651.8 441.7
Q 651.8 449.05 648.1 454.25 644.4 459.45 639.2 459.45 634 459.45 630.3 454.25 626.6 449.05 626.6 441.7 626.6 434.35 630.3 429.15 634 423.95 639.2 423.95 644.4 423.95 648.1 429.15 651.8 434.35 651.8 441.7 Z
M 647.2 403
Q 651.74140625 402.07734375 656.35 401.55 668.2 400.2 679.85 401.525
M 668.325 416.7
Q 664.641796875 417.35 660.7 417.35 649.4603515625 417.35 640.375 412.125 636.6171875 409.9619140625 633.225 406.9 632.7478515625 406.4638671875 632.275 406 632.15 405.30859375 632.15 404.55 632.15 401.4 634.35 399.15 636.6 396.95 639.75 396.95 642.9 396.95 645.1 399.15 646.77890625 400.82890625 647.2 403 640.126953125 404.4623046875 633.225 406.9
M 701.725 523.65
Q 702.7927734375 526.10703125 705.25 527.95 707.55 529.7 710.6 530.6 713.2 531.25 716.55 531.3 718.6 531.35 722.5 531.1 723.419140625 531.0208984375 724.325 530.925 737.119921875 529.678125 748.425 526.4
L 746.975 521.25
M 669.525 514.925
Q 670.3 526.6 678.45 537.45 683.091796875 543.5955078125 689.6 548.875 693.0357421875 551.687890625 697 554.25 697.7626953125 554.7494140625 698.525 555.225 717.4435546875 567.1337890625 739.45 569.2 742.285546875 569.465234375 745.05 569.55 741.972265625 566.9673828125 738.8 563.25 736.55 560.6 733.25 556.1 727.9 549.1 725.85 544.5 722.7693359375 537.444140625 724.325 530.925
M 655.8 508.35
Q 645.505859375 519.0111328125 635.975 530.075 648.03359375 535.5798828125 657.5 544.85 659.05 546.15 658.85 547.35 658.8 547.95 658.35 548.5 658.2 548.75 657.5 549.5
L 651.5 555.1
Q 650 556.6 649 556.75 648.2 556.8 647.2 556.4 646.9 556.25 645.5 555.5 642.264453125 553.26015625 625.9 542.1 617.558203125 552.3873046875 609.85 563 600.95 575.25 595.4 584.85 588.3 597.15 584.6 608.6 583.2765625 612.6791015625 582.375 616.725 588.7453125 608.6478515625 598.05 602.85 604.640625 598.7783203125 612 596.225 615.294921875 595.08671875 618.75 594.25 629.4 591.7 641.1 592.25 643.91328125 592.39140625 647.95 592.85 650.306640625 589.8326171875 653.075 588.35 655.84296875 586.8794921875 659 587.5 661.15 588.2 661.85 589.35 663.5 591.45 661.95 595.65 662.60546875 595.8158203125 663.25 596 668 597.35 670.95 599.75 674.6 602.75 675 607.75
M 655.75 580.85
Q 649.0974609375 585.59765625 645 592.25 640.45 586.9 636 581.25 634.25 579 634.35 577.5 634.446484375 576.252734375 635.4 575.3 636.360546875 574.341796875 637.1 573.55 637.839453125 572.758203125 639.8 571.2 641.753515625 569.647265625 643.1 569.5 644.05 569.4 645.15 570 645.7978515625 570.29921875 647.3 571.5 648.801953125 572.70546875 651.725 575.975 654.6470703125 579.242578125 655.75 580.85 655.9986328125 580.67421875 656.25 580.5 660.7 577.3 665.75 575.6 671.05 573.85 676.25 574.1 681.75 574.4 686.5 576.95 688.7208984375 578.14921875 690.55 579.475 688.903515625 571.8060546875 689.1 560.75 689.1 555.4 689.6 548.875
M 722.375 577.35
L 718.1 569.6
Q 717.9 569.2 717.75 569 717.55 568.65 717.25 568.5 716.6 568.1 715.1 568.6 712.25 569.75 709.3 572.3 707.527734375 573.8259765625 704.35 577.15 707.2943359375 576.117578125 710.5 575.75 717.0376953125 574.992578125 722.375 577.35
L 722.4 577.35
Q 731.4 580.25 739 586.2 746.42265625 591.973046875 751.675 599.525 757.3759765625 599.176953125 763.95 598.8 761.473046875 597.0626953125 759.25 594 757.8 592.05 755.6 588.1 754.7 586.35 754.5 585.85 754 584.55 754 583.5 754 581.1 756.75 577.85 758.75 575.6 760.1 574.35 761.1 573.35 762 573.35 763.25 573.35 764.35 575.6 766.5 579.6 768.5 581.5 771.55 584.3 775.375 584.55
M 698.525 555.225
Q 699.7833984375 564.652734375 702.6 577.825 703.46328125 577.4552734375 704.35 577.15
M 690.55 579.475
Q 690.6330078125 579.5361328125 690.725 579.6 692.8818359375 581.217578125 694.475 583.025 695.38828125 582.2267578125 696.35 581.5 699.301953125 579.2275390625 702.6 577.825
M 722.4 577.35
Q 723.7357421875 577.9572265625 725 578.75 729.95 581.75 733.65 587.85 736.09453125 591.841015625 740.025 600.3 745.312890625 599.9294921875 751.675 599.525
M 801.825 495.825
Q 801.0677734375 497.878515625 800.225 500.55
M 784.9 506.775
Q 781.2189453125 510.136328125 777.05 513.05 780.801171875 520.376171875 782.75 530.25 784.0974609375 537.187109375 785.5 551.5
M 748.425 526.4
Q 752.61171875 525.1923828125 756.6 523.7 767.9806640625 519.416015625 777.05 513.05
M 780.95 566.625
Q 778.4736328125 574.7123046875 776.025 582.475
M 745.05 569.55
Q 765.6515625 570.222265625 782.575 561.25
M 740.025 600.3
Q 739.4248046875 600.3439453125 738.85 600.4
M 733.35 649.35
Q 731.2 649.1 730.35 652.35 724.8 670.55 729.25 685.1 729.9 687.85 731.5 689 732.45 689.65 735.35 690 739.85 690 742 689.85 744.5 689.85 745.5 688.85 747.4 687.1 745.1 682.25 742.45 676.1 743.05 668.55 743.6 661.8 746.6 654.75 747.15 653.35 747.3 652.8 747.55 651.65 747.1 650.85 746.25 649.4 743.25 649.1 737.5 648.95 733.35 649.35 Z
M 771.225 598.4
Q 767.45703125 598.6060546875 763.95 598.8
M 712 602.5
Q 706.35 598 699.25 596.85 693.15 595.6 688.35 597.85 685.85 599 684.2 601.35 682.5 603.75 682.5 606.5
M 721.85 601.8
Q 699.477734375 603.9318359375 680.5 607.25 680.19765625 607.3025390625 679.9 607.35 673.4291015625 608.51796875 669.7 610 665.3794921875 611.7283203125 662.7 614.45 661.80859375 615.3431640625 661.1 616.35 659.65 618.45 659.1 620.8 658.55 623.4 659.25 625.6 659.9 628 662 629.55 663.78984375 630.913671875 665.95 630.55 668.0169921875 625.8201171875 671.9 621.75 676 617.4 681.35 614.85
M 648 630.75
Q 653.45 630.6 656.7 630.9 661.5 631.3 665.1 632.75 665.279296875 632.1943359375 665.5 631.6 665.6447265625 631.24609375 665.95 630.55
M 681 632.25
Q 676.7 633.75 672.95 636.55 670.123828125 638.66015625 667.95 641.3 667.240625 642.176171875 666.6 643.1 665.869921875 644.2087890625 665.325 645.25 663.859375 648.0923828125 663.75 650.5 663.65 652.65 664.5 654.5 665.4 656.45 667.1 657.35 669.4 658.6 672.7 657.8 674.55 657.35 678.25 655.6 690.95 650.05 704.725 652.075
M 665.1 632.75
Q 664.26796875 635.48203125 664.6 637.35 664.9 638.95 665.9 640.05 666.79765625 641.1185546875 667.95 641.3
M 619.6 646.25
Q 632.2033203125 644.9423828125 643.525 645.5 654.8556640625 646.060546875 658.375 645.975 661.88984375 645.8859375 665.325 645.25
M 725.775 695.5
Q 724.9451171875 707.56796875 723.175 721.85
M 673 658
Q 669.7744140625 679.0583984375 665.4 716.9 676 720.1 687.65 720.7
M 665.4 716.9
Q 665.1517578125 719.0486328125 664.9 721.25
M 818.1 720.6
L 832.25 710.85
Q 835.2 708.9 835.75 707.1 836.6 704.8 835 702.25 833.85 700.65 831.35 698.6 829.65 697.1 828.35 697.25 827.4 697.35 826.1 698.5 820.8 702.8 814.4 705.6 808.05 708.35 801.15 709.4 804.319140625 715.33359375 808.425 720.8
M 773.225 695.225
Q 773.3919921875 708.5587890625 771.525 721.05
M 793.825 690.9
Q 796.4685546875 700.655859375 801.15 709.4
M 891.225 563.825
Q 901.228515625 599.272265625 903.35 633.75 910.3646484375 635.5888671875 918.525 636.5 918.63828125 630.249609375 919.3 624.1
M 853.55 628.825
Q 858.4 636.55 865.85 642.55 873 648.3 881.85 651.85 886.68828125 653.7560546875 891.875 654.975 898.0642578125 656.4369140625 904.75 656.925 911.5892578125 657.4181640625 918.95 656.9
M 904.75 656.925
Q 906.5 675.15 903.55 692 901.6720703125 702.7578125 898.1 712.875 896.75 716.7390625 895.15 720.5
M 918.525 636.5
Q 918.1900390625 654.32578125 922.3 672.95
M 860.85 607.1
Q 870.95 619.85 886.1 627.3 894.490234375 631.425390625 903.35 633.75
M 829.25 668.575
Q 830.3333984375 667.4583984375 831.4 666.3 835.544140625 661.7998046875 839.8 655.2
M 878.35 650.75
Q 870.5 656.25 861.5 657 859.9 657.1 859.05 657.3 857.75 657.65 857 658.5 856.1 659.5 856.1 662 856.1 662.9 856.35 667.25 856.7 669.1 857.1 669.75 858.25 671.5 861.75 671.5 873 671.65 882.85 667.1 887.25 665.15 889.5 662.6 892.6 659.1 891.875 654.975
M 898.1 712.875
Q 886 708.35 870.1 708.75 867.95 708.75 867.1 709.6 866.1 710.5 866.1 712.75 865.85 715.6 865.5 721.5
M 942.8 720.6
Q 940.5806640625 720.908203125 938.2 721.2
M 679.9 607.35
Q 683.477734375 591.1896484375 694.475 583.025
M 999.85 616
Q 997.65 614.1 995 613.15 992.25 612.2 989.5 612.5 987.1 612.7 986 614.1 985.45 614.95 985.45 616.1 985.45 617.2 986 618.25 987.15 620.6 991 622.5 997.95 625.6 1005.625 624.6 1003.7646484375 619.1599609375 999.85 616 Z
M 965.35 592.85
Q 979.05 625.2 972.1 661.6 965.4802734375 696.2228515625 942.8 720.6
M 629.3 402.9
Q 619.4 391.5197265625 619.4 376.05 619.4 371.1228515625 620.4 366.6 616 365.7 613.5 364.6 610 363.05 607.6 360.5
M 620.4 366.6
Q 621.9109375 359.85078125 625.675 354.025 624.3236328125 352.330859375 623.025 350.625 626.001953125 350.362109375 629 349.55 638.1728515625 347.0521484375 647.5 339.5 649.6369140625 337.7822265625 651.75 336.05
M 597.75 374.6
Q 602.7 376.65 608.15 377.4 613.6 378.15 619 377.5
M 625.675 354.025
Q 627.1658203125 351.70859375 629 349.55
M 635.975 530.075
Q 630.82421875 536.024609375 625.9 542.1
M 661.95 595.65
Q 654.903515625 593.7173828125 647.95 592.85 643.79765625 594.7884765625 639.7 597.8 636.8 599.9 632.85 604.1 624.55 613.1 621.75 620.5 618.75 627.85 618.75 638.1 618.7470703125 647.4953125 621.325 656.825 623.9083984375 666.1640625 629.65 674.05 631.8451171875 659.941796875 633.95 645.95
M 612 596.225
Q 603.5 605.7 598.75 617.5 598.1 618.95 597.9 619.25 597.35 620.2 596.6 620.6 595.65 621.2 593.25 621 586.9712890625 620.17265625 582.4 616.75 580.3666015625 625.9169921875 580.4 634.4 580.4 648.35 585.6 659.75 585.6587890625 659.8802734375 585.725 660 588.11953125 655.199609375 589.7 652.55 592.35 648.1 595.1 645 597.4 642.5 599.5 642.5 600.85 642.5 602.85 644 605.25 645.8 608.25 649.25 609.4 650.7 609.1 651.75 608.95 652.25 608.35 652.65 608.2 652.75 607.25 653.25 602.45 655.8 599 661.85 596.75 666.2 594.675 673.325 598.021875 676.8673828125 602.15 679.8 613.65 687.95 627.4 688.5 628.5234375 681.2478515625 629.65 674.05
M 585.725 660
Q 589.14375 667.4896484375 594.675 673.325
M 665.4 716.9
Q 644.2255859375 717.4947265625 623.7 713.1 623.09921875 717.162109375 622.5 721.25
M 627.4 688.5
Q 625.5359375 700.7083984375 623.7 713.1
M 647.75 610.6
Q 655.8 610.2 662.7 614.45"/>
</defs>

<g transform="matrix( 1, 0, 0, 1, 0,0) ">
<use xlink:href="#Layer2_0_FILL"/>
</g>

<g transform="matrix( 1, 0, 0, 1, 0,0) ">
<use xlink:href="#Layer0_0_FILL"/>

<use xlink:href="#Layer0_0_1_STROKES"/>
</g>
</svg>
