
<svg xmlns="http://www.w3.org/2000/svg" version="1.1" xmlns:xlink="http://www.w3.org/1999/xlink" preserveAspectRatio="none" x="0px" y="0px" width="1280px" height="720px" viewBox="0 0 1280 720">
<defs>
<g id="Layer2_0_FILL">
<path fill="#FFFFFF" stroke="none" d="
M 1280 720
L 1280 0 0 0 0 720 1280 720 Z"/>
</g>

<g id="Layer0_0_FILL">
<path fill="#000000" stroke="none" d="
M 539.3 194.35
Q 536.35 191.4 532.15 191.4 527.95 191.4 525 194.35 522.05 197.3 522.05 201.5 522.05 205.7 525 208.65 527.95 211.6 532.15 211.6 536.35 211.6 539.3 208.65 542.25 205.7 542.25 201.5 542.25 197.3 539.3 194.35
M 630.1 245.25
Q 633.6 241.4 633.6 235.95 633.6 230.5 630.1 226.6 626.65 222.75 621.7 222.75 616.75 222.75 613.25 226.6 609.8 230.5 609.8 235.95 609.8 241.4 613.25 245.25 616.75 249.15 621.7 249.15 626.65 249.15 630.1 245.25 Z"/>
</g>

<path id="Layer0_0_1_STROKES" stroke="#000000" stroke-width="1" stroke-linejoin="round" stroke-linecap="round" fill="none" d="
M 495.1 127.85
Q 516.65 84.95 542.6 56.95 574.05 22.95 611.5 11.25 650.4 -0.8 695.1 10.95 735.5 21.6 772.1 49 804.2 73.05 830.3 106.3 855.2 138.1 873 176.25 894.769140625 223.0517578125 901.8 270.675 910.4529296875 272.1064453125 918.35 276.25 926.4 280.5 932.6 287 938.85 293.6 942.7 301.8 946.55 310.15 947.5 319 948.15 324 946.5 326.6 944.35 329.8 939.6 330.25 936.2 330.5 932.6 329.05 929.35 327.65 926.5 325.1 924.05 323.1 921.55 319.8 920.568359375 318.5728515625 917.475 314.025 917.6 314.85 919.95 321.1 921.55 325.35 922 328.25 922.6 332.2 921.5 335.7 920.25 339.6 917.25 341.5 913.95 343.7 909.25 342.6 905.6 341.8 901.8 338.725 900.5587890625 343.98671875 898.85 348.85 891.55 369.8 871.85 391.9 864.9 399.75 853.75 410.6 841.2 422.7 835.1 428.75 813.45 450.25 802.5 469.8 792.4576171875 487.6970703125 790.775 504.85 811.15 486.1 827.85 476.6 849.45 464.25 870 464.6 886.9 464.9 902.4 473.75 917.65 482.45 927.25 496.85 936.65 510.8 939.6 528.35 942.45 545.35 938.75 562.35 933.85 584 918.95 600 910.30546875 609.2462890625 900.275 614.25 900.2927734375 614.2841796875 900.3 614.325 906.9810546875 627.1888671875 905.65 643.65 904.3 660.7 895 676.35 887.2 689.55 873.4 702.8 864.6 711.15 847 725
M 649 141
Q 651.8 160.05 654.55 170.05 655.344140625 172.934375 656.25 175.65 660.3056640625 187.794140625 666.6 196.5 675.3 208.5 691.2 218.25 698.676953125 222.7962890625 711.95 228.975 716.329296875 231.025390625 721.35 233.25
M 711.95 228.975
Q 714.3 237.86171875 714.3 247.65 714.3 267.5466796875 704.55 283.7 715.1908203125 288.565234375 724.5 295.25
M 707 314.6
Q 705.15 310.35 699.5 305 696.2 301.85 692.325 298.975 691.498828125 299.7640625 690.65 300.55 676.859375 313.347265625 659.7 318.675 647.503515625 322.45 633.6 322.45 600.15 322.45 576.5 300.55 559.4955078125 284.7705078125 554.75 264.275 554.6044921875 263.6587890625 554.475 263.05 553.7974609375 260.571484375 552.95 258.15 552.05 255.7 551.05 253.35 545.25 238.9 535.55 234.75 529.2 232.05 522 234.15 514.95 236.2 510.55 241.75 507.245703125 245.784375 505.85 251 505.4431640625 252.5712890625 505.2 254.25 504.65 258.05 505.05 261.75 505.35 264.95 506.45 268.1 508.55 274.5 513.25 280.05 517.7 285.3 523.8 289
M 612.5 332.25
Q 626 339.35 643.85 338.1 651.3 337.6 659.8 335.5 666.55 333.85 675.25 330.85
M 557.85 272.5
Q 561.35 269.6 566.65 270.9 571.25 272 575.35 275.6 577.85 277.75 582.65 282.3 586.95 286 590.85 287.1 594.25 288 601.15 287.15 608.2 286.25 611.5 287 617.25 288.2 625.05 295.95 633.5 304.4 638.25 306.25 640.35 307.15 644.3 307.8 648.85 308.6 650.5 309.1 653.9 310.15 656.2 312.15 658.85 314.45 659.7 318.675
M 682.55 386.75
Q 682.55 402.1 670.45 412.95 658.35 423.85 641.2 423.85 624.05 423.85 611.95 412.95 599.85 402.1 599.85 386.75 599.85 371.4 611.95 360.5 624.05 349.65 641.2 349.65 658.35 349.65 670.45 360.5 682.55 371.4 682.55 386.75 Z
M 589.25 120.25
Q 575.6294921875 127.173828125 560.8 130.55 565.741015625 133.3583984375 570.325 136.975 679.5 123.65 791.95 140 755.3 189.95 737.8 250.2 720.35 310.4 718 372.5 725.8 367 735.75 366.6 745 366.2 754.45 370.15 763.7 374.05 770.95 381.15 778.45 388.5 782.1 397.5 790.45 418.1 782 440.7 773.55 463.2 753.75 473.35 733.95 483.45 710.7 477.05 702.12890625 474.672265625 695.125 470.6 693.1857421875 475.6357421875 691.1 480.425 696.75 512.95 708.5 539.4 714.590625 553.110546875 722.3 565.75 729.45078125 577.5130859375 738 588.35 743.9416015625 595.9119140625 756.4 610.525 756.6205078125 610.7810546875 756.85 611.05 767.75 624.5 773.25 635.35 776.5521484375 641.9544921875 778.375 648.65 780.4171875 656.241796875 780.55 663.95 780.7671875 677.888671875 774.425 688.1 777.059375 687.3513671875 779.25 687.65 781.35 687.95 783.1 689.25 786.3 691.55 787.6 696.25 789.3 702.8 786.75 710.75 784.85 716 780.25 723.85
M 704.55 283.7
Q 699.6646484375 291.803515625 692.325 298.975
M 901.8 270.675
Q 903.27421875 280.6931640625 904.1 290.75 905.5 307.05 904.55 320.2 903.8318359375 330.00390625 901.8 338.725
M 695.125 470.6
Q 683.13671875 463.6509765625 675.75 451.75 661.620703125 466.4015625 644.05 476.3 647.3814453125 477.4900390625 650.6 482.25 657.5 492.4 660.1 504.7 662.730078125 516.9572265625 660.625 528.925 662.5328125 526.776171875 664.4 524.55 679.9248046875 505.9958984375 691.1 480.425
M 722.3 565.75
Q 717.85 571.65 706.3 578.55 694.55 585.55 690.6 590.85 689.55 592.3 687.25 596.25 685.25 599.7 683.75 601.5 680.6 605.35 675.6 607.65 671.1 609.75 665.6 610.35 660.9 610.85 655.2 610.35 651.45 610.05 644.625 609.35 645.7544921875 614.85859375 646.65 620.9 647.5 626.9 650.5 656.35 651.037109375 661.7578125 651.625 666.625 662.1 668.3 666.75 668.8 675.1 669.7 681.75 669.1 689.65 668.5 696.4 665.75 703.8 662.7 708.75 657.5 710.3 655.85 717.25 645.85 722.2 638.65 727.1 636.1 729.55 634.85 737.75 632.85 744.499609375 631.245703125 747.675 628.5 750.8509765625 625.76171875 752.35 621.75 753.848046875 617.735546875 756.4 610.525
M 790.775 504.85
Q 790.1138671875 511.6068359375 790.75 518.25
M 778.375 648.65
Q 769.2 651.3 761.95 662.75 757.7 669.4 756.1 671.5 752.55 676.15 748.75 678.5 746.2 680.05 740.45 682 734.7 683.9 732.1 685.5 727.6 688.35 722.45 695.85 716.35 704.75 713.6 707.35 708.9 711.7 702.25 713.95 696.1 716 689.1 716.1 683.2 716.25 675.9 715.05 671.5390625 714.3640625 663.2 712.425 665.75625 717.91953125 668.85 722.75
M 774.425 688.1
Q 773.4615234375 689.63984375 772.35 691.1
M 651.625 666.625
L 651.625 666.65
Q 653.439453125 681.2580078125 655.8 691 656.6427734375 694.445703125 657.625 697.725 659.9974609375 705.5892578125 663.2 712.425
M 900.3 614.325
Q 896.490234375 607.9958984375 889.8 605.15 883.05 602.25 876.25 603.5 873 604.1 870.7 605.75 868 607.65 867.35 610.35 866.75 612.8 868.1 615.35 869.4 617.75 871.85 619.1 875.756640625 621.40703125 883.45 620.45 891.13984375 619.484765625 900.3 614.325 Z
M 484.75 124.6
Q 487.32734375 125.6443359375 489.925 126.575 512.65 134.631640625 537.5 133.6 549.5013671875 133.102734375 560.8 130.55
M 542.25 201.5
Q 542.25 205.7 539.3 208.65 536.35 211.6 532.15 211.6 527.95 211.6 525 208.65 522.05 205.7 522.05 201.5 522.05 197.3 525 194.35 527.95 191.4 532.15 191.4 536.35 191.4 539.3 194.35 542.25 197.3 542.25 201.5 Z
M 570.325 136.975
Q 573.02734375 139.09921875 575.6 141.5 593.629296875 158.2873046875 597.2 180.625 613.665625 172.85 633.6 172.85 645.554296875 172.85 656.25 175.65
M 554.475 263.05
Q 553.8724609375 260.1875 553.5 257.225 552.9 252.54765625 552.9 247.65 552.9 216.65 576.5 194.75 586.055859375 185.901171875 597.2 180.625
M 526.5 721.25
Q 523.4 717.15 521.85 712.2 520.3 707.35 520.35 702.25 511.05 699.85 504.2 695.05 496.35 689.55 493.35 681.85 491.6564453125 677.4466796875 491.5 671.8 491.3919921875 669.1853515625 491.65 666.25 491.9 663.15 494.25 650.25 498.25 627.45 495.8 604.2 495.5369140625 601.650390625 495.2 599.1 492.4029296875 578.3486328125 484.3 557.125 471.2646484375 545.720703125 461.15 529.25 446.3 505.1 440.05 470.65 419.3447265625 460.139453125 402.1 445.85 374.1 422.65 357.55 390.85 340.3 357.8 339.5 323 339.1 303.7 343.95 286.5 349.20078125 267.8462890625 356.625 256.525 364.04453125 245.209765625 371.925 237.525 373.84296875 235.6578125 376.125 233.65 383.18359375 227.378515625 393.675 219.7 396.687890625 217.4943359375 399.65 215.5 410.3390625 208.3501953125 420.425 204.025 427.6275390625 200.93359375 434.8 198.95 439.784375 197.570703125 444.75 196.725 444.6 194.4134765625 444.6 192.05 444.6 162.45 467.05 141.5 477.4900390625 131.7791015625 489.925 126.575
M 446.85 171.6
Q 444 169.8 442.5 169.1 438 167 433.25 167
M 444 186.6
Q 435.45 185.4 428 189.25
M 452.95 223.9
Q 455.7 222.65 458.15 223.7 460.15 224.6 462.1 226.6 463.2 227.8 465.25 230.3 467.1 232.35 469 233.25 471.15 234.25 474.6 234.15 476.55 234.15 480.5 234 492.83125 234.299609375 505.85 251
M 434.8 198.95
Q 435.25 209.6 438.7 219.7 442.15 229.85 448.25 238.35
M 399.65 215.5
Q 402.495703125 215.05 405.55 215.05 418.45 215.05 427.55 223.2 436.65 231.35 436.65 242.9 436.65 254.45 427.55 262.6 418.45 270.75 405.55 270.75 392.65 270.75 383.55 262.6 374.45 254.45 374.45 242.9 374.45 237.9615234375 376.125 233.65
M 469.1 300.75
Q 470.25 296.75 475.2 296 479.8 295.3 483.85 297.6 484.6 298 491.2 302.5 495.6 305.5 499 306.1 502.3 306.65 507.25 305.4 510 304.7 515.5 303.25 523.3 301.8 530.95 305.2 538.65 308.6 542.85 315.35 544.05 317.3 547.3 324.8 549.9 330.7 552.6 333.6 555.5 336.65 561.35 339.35 570.5 343.55 571 343.85 578.7 348.45 583.05 356.85 587.4 365.25 586.75 374.25
M 633.6 235.95
Q 633.6 241.4 630.1 245.25 626.65 249.15 621.7 249.15 616.75 249.15 613.25 245.25 609.8 241.4 609.8 235.95 609.8 230.5 613.25 226.6 616.75 222.75 621.7 222.75 626.65 222.75 630.1 226.6 633.6 230.5 633.6 235.95 Z
M 505.05 261.75
Q 482.887109375 257.34609375 467.05 242.6 446.392578125 223.3228515625 444.75 196.725
M 440.05 470.65
Q 451.2208984375 476.326171875 463.4 480.9 469.776953125 483.292578125 476.3 485.35 503.21796875 493.775 532.75 496.35 544.5056640625 497.3703125 555.8 497.325 574.558984375 497.2267578125 592.05 494.175 600.680859375 492.6740234375 609 490.45 627.9630859375 485.362890625 644.05 476.3
M 476.3 485.35
Q 487.431640625 495.4966796875 501.325 501.625 501.5392578125 501.7083984375 501.75 501.8 515.95 507.95 531.1 509.35 544.1658203125 510.5654296875 557.3 508.1
L 555.8 497.325
M 557.3 508.1
Q 559.302734375 507.7115234375 561.3 507.25 567.9888671875 505.6892578125 574.825 502.925 583.3212890625 499.476953125 592.05 494.175
M 501.325 501.625
Q 496.49375 505.21171875 493.6 510.65 490.9 515.65 490.1 521.75 489.5 526.95 490.4 533.15 491.1 537.85 492.85 544.5 496.9265625 558.408203125 502.625 569.875 528.419921875 583.779296875 560.55 581.7 576.3001953125 580.67734375 591.125 576.025 596.14765625 560.4646484375 595.1 544.15 594.1 527.85 586.75 513.75 581.45 504 574.825 502.925
M 484.3 557.125
Q 492.6123046875 564.389453125 502.1 569.6 502.35625 569.7400390625 502.625 569.875
M 591.125 576.025
Q 605.284765625 571.5947265625 618.6 563.85 641.355859375 550.6515625 660.625 528.925
M 511.6 584.75
Q 520.4806640625 593.594140625 522.4 609.75 529.1814453125 609.7666015625 533.975 613.7 538.762890625 617.643359375 543.925 617.95 549.0970703125 618.2501953125 557 616.8 565.95 615.15 569.5 615.1 575.35 614.95 584.3 617.3 596.45 620.45 599 620.85 610.6 622.85 622.45 619.85 634.2 616.8 644.625 609.35 642 596.704296875 638.1 586.85
M 522.4 609.75
Q 523.1083984375 615.789453125 522.85 622.85 522.6 629.7 521.4 643.3 520.9029296875 651.2849609375 521.325 657.6 525.45 661.65 531.5 663.55 536.75 665.2 543.1 665.1 546.5 665.05 554.7 664.15 562.05 663.35 566.25 663.5 573.55 663.65 584.65 666.55 600 670.6 602.85 671.1 614.7 673.35 626.8 672.2 638.9900390625 671.0009765625 651.625 666.65
M 495.2 599.1
Q 495.786328125 599.3931640625 496.6 599.95 497.15 600.35 498.25 601.1 503.1 605.05 509.15 607.2 515.15 609.4 521.7 609.55
M 521.325 657.6
Q 521.54453125 660.8169921875 522 663.6 524.75 680.3 537.8 697.1 546.15 707.85 564.5 724.75
M 496.25 639.85
Q 500.55 644 507.5 645.85 512.65 647.3 520.7 646.85
M 491.5 671.8
Q 493 671.75 494.45 671.4 495.65 671.2 496.6 671.35 498.15 671.55 500 672.75 506.25 676.4 512.45 677.7 519.45 679.15 525.5 677.5
M 657.625 697.725
Q 649.186328125 703.1025390625 638.95 704.95 630.25 706.5 619.85 704.6 616.85 704.05 601.5 700 590.35 697.1 583 696.75 571.2 697.2 565.35 697.25 554.95 697.4 548.6 694.1 543.1 690.65 540.3 689.2 535.4 686.7 531.75 687.85"/>
</defs>

<g transform="matrix( 1, 0, 0, 1, 0,0) ">
<use xlink:href="#Layer2_0_FILL"/>
</g>

<g transform="matrix( 1, 0, 0, 1, 0,0) ">
<use xlink:href="#Layer0_0_FILL"/>

<use xlink:href="#Layer0_0_1_STROKES"/>
</g>
</svg>
