
<svg xmlns="http://www.w3.org/2000/svg" version="1.1" xmlns:xlink="http://www.w3.org/1999/xlink" preserveAspectRatio="none" x="0px" y="0px" width="1280px" height="720px" viewBox="0 0 1280 720">
<defs>
<g id="Layer2_0_FILL">
<path fill="#FFFFFF" stroke="none" d="
M 1280 720
L 1280 0 0 0 0 720 1280 720 Z"/>
</g>

<g id="Layer1_0_FILL">
<path fill="#FAB9EE" stroke="none" d="
M 338.95 659.05
Q 339.05 668.4 337.15 677.85 335.9 684.1 332.75 694.75 330.45 702.7 327.25 720
L 399.75 720
Q 395.65 677.05 394.45 664.8 384.15 669.5 369.65 668.7 352.85 667.8 338.95 659.05 Z"/>

<path fill="#FF0F9F" stroke="none" d="
M 420.2 623.4
Q 419.15 630.85 417.1 637.15 411.65 653.85 399.75 661.75 397.25 663.45 394.45 664.8 395.65 677.05 399.75 720
L 421.45 720 419.55 674.25
Q 429.5 699.65 446.15 719
L 420.2 623.4
M 428.95 519.45
Q 428.9 511.1 428.25 496.1 423.8 496.5 420.2 496.9 416.9 497.25 413.55 497.8 403.65 499.25 394.5 501.45 401 513.2 406 525.8 407 528.5 408 531.25 410.65 523.85 411.85 516.6 413 509.4 413.55 497.85 420.2 513.55 423.4 523.95 426.3 533.45 427.75 543.4 427.75 543.25 427.8 543.05 429 532.6 428.95 519.45
M 419.25 434.4
Q 417.25 436.15 415.2 437.85 407.1 444.45 399.45 448.7 400.7 455.25 398.05 462.05 395.55 468.3 390.5 473.1 387.3 476.15 383.15 478.65 382.55 479 381.9 479.35 403.1 470.25 431.15 458.1 426.6 445.15 419.25 434.4
M 230.15 550.3
Q 229.2 550.6 228.3 550.9 190.4 564 177.65 563.75 165.15 563.5 156.8 555.85
L 156.75 555.85
Q 152.2 554.7 146.5 556.15 142.95 557 136.6 559.75 133.25 561.3 130.7 562.3 138.4 593.25 141 614.35 145.3 647.65 140.1 676.35 135.7 700.95 124.75 720
L 327.25 720
Q 330.45 702.7 332.75 694.75 335.9 684.1 337.15 677.85 339.05 668.4 338.95 659.05 335.75 657 332.7 654.6 315.4 640.85 313.35 621.2 312.25 610.75 316.05 596.65 321.15 580.5 323.4 572.5 327.35 558.45 328.4 543.65 329.45 528.9 329.55 514.7 281.3 532.3 246.35 544.6 237.8 547.6 230.15 550.3
M 309.75 215.7
Q 306.9 217.55 305.55 219.65 303.7 222.5 303.45 227.85 303.45 227.9 303.55 232.15 303.55 234.7 303.65 236.35 304.1 236.35 305.1 234.9 305.85 233.8 306.4 233.25 308 231.6 311.3 230.65 313.15 230.15 316.8 229.1 319.75 227.9 321.15 225.8 322.4 224.15 322.5 221.85 322.7 219.6 321.7 217.75 320.7 215.85 318.85 214.75 316.95 213.65 314.85 213.85 312.5 213.95 309.75 215.7
M 371.25 219.6
Q 370.9 215.55 370.1 213.4 369.3 210.25 367.4 208.2 366.1 206.7 364.25 205.85 362.4 204.95 360.35 204.95 358.3 204.95 356.65 205.95 355.6 206.8 354.8 208.55 354.75 208.6 354.7 208.7 354.35 209.45 354.05 210.35 353.5 212.15 353.8 213.9 354.1 215.9 355.35 216.85 356.5 217.8 358.55 217.65 359.75 217.6 362.05 217.2 364.35 216.95 366.5 217.5 368.75 218.15 371.25 219.6
M 348.95 132
Q 340.3 137.6 335.7 146.1 331.1 154.55 328.5 164.5 327.7 167.5 327.2 170.55 318.2 169.85 309.3 168.95 306.4 165.6 303.6 161.85 296.95 152.9 285.8 133.65 285.1 134.05 284.75 134.8 283.9 136.85 284.2 140.05 285.05 148.3 288.75 156.6 280.9 158.8 273.2 163.9 245.1 158.9 215.8 150.25 224 153.85 228.6 156.9 234.45 160.8 233.5 163.15 232.5 165.5 216.1 165.7 199.7 165.85 169.3 164.45 174.9 166.8 181.5 172.05 175.35 173 170.15 175.8 163.8 179.2 156.1 186.05 161.4 184.6 167.2 184.25 173.05 183.85 179.55 184.4 168.55 187.4 160.2 197.9 154.2 205.45 147.25 220
L 108.9 299.4
Q 99 319.9 90.3 330.5 77.65 345.9 61.55 349.95 80.15 349.7 96.4 341.5 93.1 355.05 86.5 366.7 79.5 379 69.35 388.55 84.55 384.5 99 377.45 111.8 371.15 124 361.1 95.65 411.55 113.35 494.1 114.7 500.3 120.45 522.55 123.85 523.8 127 524.55 136.75 527.05 145.6 525.75 145.6 525.3 145.6 524.85 145.65 521.45 145.15 519.35 144.65 517.65 143.25 514.8 141.65 511.65 141.15 510.3 139.65 506.15 140.5 501.75 140.65 500.35 141.35 499.95 142.4 499.35 143.4 500.4 144.25 501.25 144.7 502.75 146.6 507.95 153.6 514.85 153.75 515 153.9 515.2 171.7 503.65 195.35 499.5 199.45 498.8 203.75 498.25 214.55 496.9 229.65 496.3 238.4 495.95 255.65 495.55 255.75 495.55 255.85 495.55 293.15 494.4 330.7 489 330.6 488.95 330.45 488.95 330.15 488.9 329.9 488.85 327.25 488.35 324.7 487.7 318.85 486 313.65 482.9 305.2 478 300.2 470.3 295 462.2 295.65 456.3 296.25 450.35 300.05 445.45 302.15 442.7 305.2 440.4 290.7 434.9 280.75 429.2 271.45 423.85 264.25 417.6 247.1 366 240.95 336.7 239.6 330.35 238.55 324.15 236.5 324.75 234.4 325.1 230.6 325.85 227.65 324.65 224.75 323.45 222.85 319.9 221.55 317.5 220.3 312.95 219.6 310.15 220.95 309.35 221.3 309.2 221.9 309.25 222.25 309.25 222.9 309.35 229.15 310.95 235.6 310.05 236 310 236.4 309.95 236 306.9 235.65 303.9 234.65 303.5 233.5 303.1 227.05 300.75 224.3 299.4 219.45 296.95 216.2 293.55 212.45 289.55 211.6 284.9 211.05 281.95 211.65 278.5 212.05 275.95 213.25 272.3 214.5 268.2 215.85 266.25 216.95 264.7 217.9 264.7 219.05 264.85 220.05 266.4 220.45 267 225.9 276.65 229.45 282.9 232.65 286.25 233.5 287.1 234.4 287.9 233.2 264.05 236.35 242.65 236.9 243.05 237.4 243.35 240.85 245.6 244.1 246.7 248.35 248.25 252.85 248.05 253.65 248.8 254.5 249.45 262.65 256.05 272.5 258.05 279.6 259.45 288.65 258.65 293.3 258.25 303.8 257.95 289.6 247.95 281.7 238.95 272.95 228.95 270.6 224.6 268.25 220.25 269.05 216.75 269.85 213.25 271.3 209.3 272.75 205.3 276.05 200.8 279.35 196.25 282.85 193.15 286.35 190.05 290.9 188.55 295.4 186.95 301.05 189.25 306.7 191.5 310 193.65 313.3 195.8 321.35 200.65 329.35 205.5 332.4 208.35 334.45 201.2 336.3 196.65 338.1 191.9 342.05 189.55 345.95 187.15 351.8 187.5 354.15 187.65 362.05 189.15 367.55 190.15 369.2 190.65 373.1 191.8 375.55 193.85 377.85 195.8 379.45 199.1 380.65 201.5 381.75 205.4 386.2 222.05 383.85 239.2 392.8 226.75 395.8 217.95 398.8 209.1 399.75 205.95 408 197.4 411.7 185.85 414.15 177.95 412.15 172.95 411 170.25 408.45 167.95 406.6 166.2 403.35 164.3 391.4 157.6 378.6 156.5 386.9 152.95 401.3 151.7 386.95 149.15 376.2 148.65 363.7 148.05 351.65 151.1 360.75 139.2 366 125 357.1 126.65 348.95 132
M 209.05 337.55
Q 218 338.35 224.7 344.2 231.35 350.05 233 362.15 234.6 374.2 232.7 384.15 230.75 394.1 227.2 403.15 218.3 401.35 211.4 391.45 203.8 380.9 199.8 368.25 195.85 355.55 195.75 347.9 195.55 340.3 196.2 338.95 196.7 337.6 198.45 337.2 200.15 336.75 209.05 337.55 Z"/>

<path fill="#E08732" stroke="none" d="
M 364.55 565.4
Q 374.75 559.95 386.15 556.85 397.55 553.8 414.6 552.7 413.95 550 413.2 547.3 412.95 546.35 412.65 545.45 389.15 548.05 371.7 554.7 367.5 558.9 362.4 562.2 363.5 563.75 364.55 565.4 Z"/>

<path fill="#69FFAC" stroke="none" d="
M 373.5 552.7
Q 372.6 553.7 371.7 554.7 389.15 548.05 412.65 545.45 411.3 540.7 409.7 536.05 395.35 538.3 384.15 542.25 373 546.2 363.45 552.15 368.1 551.55 372.85 551.55 373.65 551.55 373.8 551.95 373.9 552.2 373.75 552.35 373.7 552.5 373.5 552.7 Z"/>

<path fill="#9540DE" stroke="none" d="
M 357.45 553.15
Q 360.45 552.55 363.45 552.15 373 546.2 384.15 542.25 395.35 538.3 409.7 536.05 408.9 533.65 408 531.25 407 528.5 406 525.8 392.05 528.75 379.25 534.25 366.4 539.75 354.85 547.4 356.35 550.3 357.45 553.15 Z"/>

<path fill="#E8DD6D" stroke="none" d="
M 350.65 541.45
Q 349.85 541.55 349.45 543 347.8 549.55 347.05 555.65 342.1 556.1 336.7 556.95 335.15 557.25 334.45 557.45 333.15 557.7 332.15 558.05 331.65 558.25 331.6 558.55 331.45 558.9 332.05 559.3 333.35 560.2 335.3 561.05 336.3 561.5 338.75 562.4 340.6 563.1 346.05 564.95 343.9 571.45 342.8 578.1 342.6 579.25 343.2 579.5 343.7 579.65 344.35 579.1 345.55 578.2 346.85 576.95 347.75 576.1 349.15 574.55 350.7 573 351.6 572.05 352.85 570.65 353.85 569.45 358.8 571.85 362.95 573.55 364.7 574.3 365.75 574.65 367.35 575.2 368.7 575.3 369.45 575.35 369.7 575.1 369.85 574.85 369.8 574.6 369.75 574.4 369.6 574.15 367.35 569.65 364.55 565.4 363.5 563.75 362.4 562.2 367.5 558.9 371.7 554.7 372.6 553.7 373.5 552.7 373.7 552.5 373.75 552.35 373.9 552.2 373.8 551.95 373.65 551.55 372.85 551.55 368.1 551.55 363.45 552.15 360.45 552.55 357.45 553.15 356.35 550.3 354.85 547.4 353.65 545 352.15 542.55 351.45 541.35 350.65 541.45 Z"/>

<path fill="#F7C181" stroke="none" d="
M 591.7 399.1
Q 590.2 398.45 588.05 400.25 585.05 402.65 581.15 407.05 574.85 414.2 574.65 414.4 570.85 418.45 567.4 420.85 563.05 423.85 558.7 424.75 557.7 422.9 557.3 421.8 556.55 419.55 556.4 416.4 556.4 412.75 556.4 410.9 556.25 403.8 553.4 400.55 552.05 399.15 550.9 399.35 550.1 399.4 549.45 400.05 548.85 400.7 548.6 401.6 548.25 402.8 548.5 405.05 548.75 410.2 547.25 415.25 545.8 420.2 542.7 424.65 545.6 426.1 548.1 428.15 554.45 433.55 556.7 442.3 558.35 448.45 556.55 456.1 559.95 457.95 564.9 455.7 565.95 455.2 568.7 453.55 571.1 452.15 572.6 451.55 576.5 450.05 585.55 450.2 594.15 450.25 598.25 448.3 599.4 447.7 600.05 446.75 600.85 445.7 600.4 444.7 599.75 443.55 597.6 443.35 590.75 442.85 579.1 443.9 591.65 441.2 595.7 439.5 601.95 436.95 605.7 433 606.4 432.3 606.65 431.55 607 430.6 606.6 429.95 605.95 429.15 603.8 429.6 601.65 430.05 593.4 432.05 585.1 433.95 574.65 440 585 432.65 589.55 429.2 594.1 425.7 600.05 419.2 603.25 415.75 604.2 412.6 604.5 411.65 604.35 410.75 604.25 409.7 603.55 409.3 602.2 408.5 595.2 414 588.15 419.55 570.7 431.55 579 422.55 582 419.15 588.35 411.85 592.05 404.95 593 403.4 593.1 401.8 593.1 400.95 592.75 400.25 592.4 399.4 591.7 399.1
M 166 534.75
Q 165.5 530.35 163.5 526.55 161.45 522.6 153.9 515.2 153.75 515 153.6 514.85 146.6 507.95 144.7 502.75 144.25 501.25 143.4 500.4 142.4 499.35 141.35 499.95 140.65 500.35 140.5 501.75 139.65 506.15 141.15 510.3 141.65 511.65 143.25 514.8 144.65 517.65 145.15 519.35 145.65 521.45 145.6 524.85 145.6 525.3 145.6 525.75 136.75 527.05 127 524.55 123.85 523.8 120.45 522.55 115.35 520.7 109.55 517.9 107.6 517 106.6 517 105.85 517 105.2 517.45 104.5 517.95 104.3 518.65 104.05 519.7 105.2 521.15 107.2 523.8 111.25 526.45 115.7 529.25 121.8 531.4 122.25 531.55 122.8 531.75 126.2 532.9 132.05 534.55 127.3 534.95 123.65 535.05 119.35 535.15 116.5 535 107.85 534.65 101.4 532.15 99.6 531.45 99 532.15 98.5 532.7 98.7 533.85 99.35 537.95 106.05 540.45 115.95 544.15 126.25 545.1 129.2 545.35 132.25 545.4 129.5 546.25 126.75 547 117.7 549.3 108.35 550.1 105.9 550.4 105.55 551.6 105.3 552.45 105.95 553.4 107.15 554.9 110.4 555.5 114.1 556 120.7 555.15 125.65 554.5 128.7 554.45 129.7 554.35 133.6 553.25 129.75 554.8 128.9 555.25 123.8 558 116.5 562 115 562.85 115.4 563.75 115.65 564.25 116.5 564.25 121.05 565.25 126.7 563.7 128.35 563.2 130.7 562.3 133.25 561.3 136.6 559.75 142.95 557 146.5 556.15 152.2 554.7 156.75 555.85
L 156.8 555.85
Q 159.45 553.75 161.55 550.9 164.2 547.4 165.35 543.3 166.45 539.15 166 534.75
M 362.05 189.15
Q 354.15 187.65 351.8 187.5 345.95 187.15 342.05 189.55 338.1 191.9 336.3 196.65 334.45 201.2 332.4 208.35 329.35 205.5 321.35 200.65 313.3 195.8 310 193.65 306.7 191.5 301.05 189.25 295.4 186.95 290.9 188.55 286.35 190.05 282.85 193.15 279.35 196.25 276.05 200.8 272.75 205.3 271.3 209.3 269.85 213.25 269.05 216.75 268.25 220.25 270.6 224.6 272.95 228.95 281.7 238.95 289.6 247.95 303.8 257.95 293.3 258.25 288.65 258.65 279.6 259.45 272.5 258.05 262.65 256.05 254.5 249.45 253.65 248.8 252.85 248.05 248.35 248.25 244.1 246.7 240.85 245.6 237.4 243.35 236.9 243.05 236.35 242.65 233.2 264.05 234.4 287.9 237.95 291.15 243.05 293.75 247.15 295.9 255.2 298.95 257.8 292 262.55 281.9 264.9 276.95 266.55 274.45 269.1 270.65 272.3 268.85 276.35 266.6 281.95 267.2 286.15 267.6 291.95 269.75 307.9 275.7 319.2 284.1 332.6 294.1 338.15 308.25 338.9 309.5 339.6 311 340.8 313.5 342.75 318.7 345.55 326.45 347.15 332 347.4 332.95 347.65 333.85 348.65 337.7 349.1 342.6 349.35 345.35 349.4 348.4 349.55 356.9 345.6 362 341.65 367.15 336.6 370.1 331.45 373.05 323.05 374.9 319.05 375.75 314.3 375.45 309.85 375.1 304.65 373.8 303.7 373.5 302.75 373.25 290.95 369.75 281.1 363.45 271.25 357.15 263.7 347.55 256.15 337.95 250.75 325.5 250.35 321.1 250.85 316.35 247.6 319.75 243.65 321.95 241.15 323.3 238.55 324.15 239.6 330.35 240.95 336.7 247.1 366 264.25 417.6 271.45 423.85 280.75 429.2 290.7 434.9 305.2 440.4 310.5 442.4 316.5 444.45 324.55 447.1 333.75 449.75 338.85 451.15 343.2 452.3 352.3 454.6 357.95 455.5 370.05 457.45 379.9 455.8 381.1 455.6 382.25 455.35 390.6 453.6 399.45 448.7 407.1 444.45 415.2 437.85 417.25 436.15 419.25 434.4 439.4 416.75 452.15 394.05 467.05 367.35 468.45 339.15 469.55 318.25 462.9 297.95 460.6 290.8 457.35 284.55 452.9 275.9 447 266 445.55 263.6 443.95 260.95
L 432.25 260.35
Q 434.4 263.8 436.55 268.1 436.6 268.2 436.75 268.4
L 436.75 268.5
Q 442.55 280.9 445.9 295.65 447.7 303.6 448.2 310.5 448.25 310.95 448.3 311.55 448.8 320.2 447.1 327.55 446.7 329.3 446.2 331 444.35 337.15 440.65 342.45 435.9 349.05 428.95 351.75 422 354.45 413.8 353.55 413.45 353.5 413.1 353.45 407.6 352.7 404.15 350.1 402.8 349.05 401.75 347.75 397.9 342.8 395.55 335.8 393.2 328.8 391.05 321.8 388.85 314.75 387.1 307.85 385.45 301.45 385.75 296.55 385.25 285 387.8 274.7 390.25 264.35 395.95 250.1 397.3 246.75 398.2 245.25 399.75 242.65 401.7 241.45 404.05 239.95 407.35 240.15 410.1 240.35 413.25 241.7 418.9 244.2 424 249.4 428.2 246 430.8 240.55 421.9 227.5 412.4 217.7 406.3 211.3 399.75 205.95 398.8 209.1 395.8 217.95 392.8 226.75 383.85 239.2 386.2 222.05 381.75 205.4 380.65 201.5 379.45 199.1 377.85 195.8 375.55 193.85 373.1 191.8 369.2 190.65 367.55 190.15 362.05 189.15
M 370.1 213.4
Q 370.9 215.55 371.25 219.6 368.75 218.15 366.5 217.5 364.35 216.95 362.05 217.2 359.75 217.6 358.55 217.65 356.5 217.8 355.35 216.85 354.1 215.9 353.8 213.9 353.5 212.15 354.05 210.35 354.35 209.45 354.7 208.7 354.75 208.6 354.8 208.55 355.6 206.8 356.65 205.95 358.3 204.95 360.35 204.95 362.4 204.95 364.25 205.85 366.1 206.7 367.4 208.2 369.3 210.25 370.1 213.4
M 379.85 389.7
Q 391.4 389.25 402.5 386.5 407.85 385.2 413.15 383.4 415.9 386.25 415.6 391.05 415.6 391.65 415.5 392.3 414.95 396.15 412.45 399.2 410 402.2 405.8 404.25 403.65 405.35 400.7 406.3 399.3 406.75 397.7 407.2 376.9 412.65 355.45 409.2 348.95 408.35 346 405.6 343.15 403.05 342.65 398.85 342.5 397.6 342.55 396.25 342.7 390.8 346.45 386.6 362.7 390.5 379.85 389.7
M 305.55 219.65
Q 306.9 217.55 309.75 215.7 312.5 213.95 314.85 213.85 316.95 213.65 318.85 214.75 320.7 215.85 321.7 217.75 322.7 219.6 322.5 221.85 322.4 224.15 321.15 225.8 319.75 227.9 316.8 229.1 313.15 230.15 311.3 230.65 308 231.6 306.4 233.25 305.85 233.8 305.1 234.9 304.1 236.35 303.65 236.35 303.55 234.7 303.55 232.15 303.45 227.9 303.45 227.85 303.7 222.5 305.55 219.65
M 224.7 344.2
Q 218 338.35 209.05 337.55 200.15 336.75 198.45 337.2 196.7 337.6 196.2 338.95 195.55 340.3 195.75 347.9 195.85 355.55 199.8 368.25 203.8 380.9 211.4 391.45 218.3 401.35 227.2 403.15 230.75 394.1 232.7 384.15 234.6 374.2 233 362.15 231.35 350.05 224.7 344.2 Z"/>

<path fill="#EF455F" stroke="none" d="
M 305.2 440.4
Q 302.15 442.7 300.05 445.45 296.25 450.35 295.65 456.3 295 462.2 300.2 470.3 305.2 478 313.65 482.9 318.85 486 324.7 487.7 327.25 488.35 329.9 488.85 330.15 488.9 330.45 488.95 330.6 488.95 330.7 489 293.15 494.4 255.85 495.55 255.75 495.55 255.65 495.55 238.4 495.95 229.65 496.3 214.55 496.9 203.75 498.25 199.45 498.8 195.35 499.5 171.7 503.65 153.9 515.2 161.45 522.6 163.5 526.55 165.5 530.35 166 534.75 166.45 539.15 165.35 543.3 164.2 547.4 161.55 550.9 159.45 553.75 156.8 555.85 165.15 563.5 177.65 563.75 190.4 564 228.3 550.9 229.2 550.6 230.15 550.3 237.8 547.6 246.35 544.6 281.3 532.3 329.55 514.7 329.45 528.9 328.4 543.65 327.35 558.45 323.4 572.5 321.15 580.5 316.05 596.65 312.25 610.75 313.35 621.2 315.4 640.85 332.7 654.6 335.75 657 338.95 659.05 352.85 667.8 369.65 668.7 384.15 669.5 394.45 664.8 397.25 663.45 399.75 661.75 411.65 653.85 417.1 637.15 419.15 630.85 420.2 623.4 421.45 615 421.35 605.25 421.2 578.65 414.6 552.7 397.55 553.8 386.15 556.85 374.75 559.95 364.55 565.4 367.35 569.65 369.6 574.15 369.75 574.4 369.8 574.6 369.85 574.85 369.7 575.1 369.45 575.35 368.7 575.3 367.35 575.2 365.75 574.65 364.7 574.3 362.95 573.55 358.8 571.85 353.85 569.45 352.85 570.65 351.6 572.05 350.7 573 349.15 574.55 347.75 576.1 346.85 576.95 345.55 578.2 344.35 579.1 343.7 579.65 343.2 579.5 342.6 579.25 342.8 578.1 343.9 571.45 346.05 564.95 340.6 563.1 338.75 562.4 336.3 561.5 335.3 561.05 333.35 560.2 332.05 559.3 331.45 558.9 331.6 558.55 331.65 558.25 332.15 558.05 333.15 557.7 334.45 557.45 335.15 557.25 336.7 556.95 342.1 556.1 347.05 555.65 347.8 549.55 349.45 543 349.85 541.55 350.65 541.45 351.45 541.35 352.15 542.55 353.65 545 354.85 547.4 366.4 539.75 379.25 534.25 392.05 528.75 406 525.8 401 513.2 394.5 501.45 403.65 499.25 413.55 497.8 416.9 497.25 420.2 496.9 423.8 496.5 428.25 496.1 439.5 495 456.6 493.95 478.9 492.5 494.1 490.2 509.3 487.9 529.5 481.55 549.7 475.15 554.4 463.1 555.75 459.45 556.55 456.1 558.35 448.45 556.7 442.3 554.45 433.55 548.1 428.15 545.6 426.1 542.7 424.65 539.2 422.9 535 422 528.05 420.55 520.5 421.65 514.1 422.55 506.45 425.45 502.7 426.8 492.9 431.1 458.7 446.1 431.15 458.1 403.1 470.25 381.9 479.35 382.55 479 383.15 478.65 387.3 476.15 390.5 473.1 395.55 468.3 398.05 462.05 400.7 455.25 399.45 448.7 390.6 453.6 382.25 455.35 381.1 455.6 379.9 455.8 370.05 457.45 357.95 455.5 352.3 454.6 343.2 452.3 338.85 451.15 333.75 449.75 324.55 447.1 316.5 444.45 310.5 442.4 305.2 440.4 Z"/>

<path fill="#02FD0D" stroke="none" d="
M 446.2 331
Q 446.7 329.3 447.1 327.55 448.8 320.2 448.3 311.55 448.25 310.95 448.2 310.5 442.1 308.5 435.85 309.45 429.65 310.4 424.5 313.75 416.75 318.8 410.3 330.7 407.45 335.9 406 340.05 404.2 345.3 404.15 350.1 407.6 352.7 413.1 353.45 413.1 344.45 417.2 336.25 417.65 335.3 418.15 334.4 417.65 334.15 417.25 333.75 415.75 332.25 416.15 329.05 416.6 325.9 418.65 323.3 420.7 320.65 423.5 319.45 425.9 318.5 427.55 319.4 428.9 320.25 429.35 322.05 434.8 318.35 438.95 320.05 441.5 321 443.25 324.05 444.4 326.1 446.2 331 Z"/>

<path fill="#13EB00" stroke="none" d="
M 328.75 339.35
Q 330.5 338.5 331.65 338.2 333.3 337.8 334.65 338.25 335.95 338.65 336.85 339.85 337.65 341.05 337.9 342.5 344 340.95 349.1 342.6 348.65 337.7 347.65 333.85 347.4 332.95 347.15 332 338.75 329.7 330.3 332.6 322.1 335.35 316.15 341.95 310.55 348.05 307.6 356.65 304.85 364.65 304.65 373.8 309.85 375.1 314.3 375.45 314.05 369.8 315.25 364.8 316.45 359.95 319.2 355.75 320.35 354.05 321.7 352.55 321.65 352.45 321.6 352.4 320.05 350.25 320.8 347.25 321.55 344.7 323.95 342.55 325.7 341 328.75 339.35 Z"/>

<path fill="#D7FEB2" stroke="none" d="
M 338.15 308.25
Q 336.7 305.75 335.15 304 331.85 300.2 326.45 297.35 322.75 295.45 316.15 293.2 302.95 288.55 292.05 286.6 281.15 284.6 273.85 290.4 266.45 296.2 260.85 305.35 255.25 314.5 250.75 325.5 256.15 337.95 263.7 347.55 271.25 357.15 281.1 363.45 290.95 369.75 302.75 373.25 303.7 373.5 304.65 373.8 304.85 364.65 307.6 356.65 310.55 348.05 316.15 341.95 322.1 335.35 330.3 332.6 338.75 329.7 347.15 332 345.55 326.45 342.75 318.7 340.8 313.5 339.6 311 338.9 309.5 338.15 308.25 Z"/>

<path fill="#D1FEA8" stroke="none" d="
M 436.75 268.5
L 436.75 268.4
Q 436.6 268.2 436.55 268.1 429.8 262.8 423.6 259.25 417.4 255.7 411.2 257.35 404.95 258.95 400.75 264.25 396.55 269.55 392.4 277.5 389.6 282.75 387.95 286.6 386.3 290.4 385.8 295.65 385.75 296.1 385.75 296.55 385.45 301.45 387.1 307.85 388.85 314.75 391.05 321.8 393.2 328.8 395.55 335.8 397.9 342.8 401.75 347.75 402.8 349.05 404.15 350.1 404.2 345.3 406 340.05 407.45 335.9 410.3 330.7 416.75 318.8 424.5 313.75 429.65 310.4 435.85 309.45 442.1 308.5 448.2 310.5 447.7 303.6 445.9 295.65 442.55 280.9 436.75 268.5 Z"/>

<path fill="#FED2B2" stroke="none" d="
M 1077.15 702.1
Q 1077.8 698.8 1077.15 696.55 1072.3 697.6 1066.95 697.9 1066.95 701 1067.45 702.4 1067.95 704.85 1070.35 706 1071.85 706.6 1073.35 706.25 1074.9 705.95 1075.85 704.85 1076.5 704.2 1077.15 702.1
M 1089.65 698.25
Q 1090 697.2 1089.15 695.5 1088.7 694.65 1087.45 692.95 1084.7 694.35 1081.55 695.4 1082.65 699 1084.35 699.75 1086 700.45 1087.65 699.9 1089.35 699.25 1089.65 698.25
M 1002.85 720
L 1003.45 707.8
Q 999.6 708.5 995.35 708.95 984.45 710.15 974.1 710.25
L 973.6 720 1002.85 720
M 1050.15 696.75
Q 1050.75 701.3 1051.55 703.55 1052.55 707 1054.95 707.9 1056.15 708.35 1057.5 708.05 1058.8 707.7 1059.85 706.85 1061.8 705.4 1062.1 702.7 1062.45 701.1 1061.8 697.9 1056.2 697.75 1050.15 696.75
M 1043.6 700.45
Q 1044.25 698.35 1044.25 695.4 1040.1 694.2 1036.4 692.3 1034.75 693.95 1032.9 695.4 1032.85 695.45 1032.8 695.5 1033.1 698.35 1034 700.95 1034.6 702.45 1035.3 703.1 1036.15 703.95 1037.6 704.2 1038.95 704.45 1040.2 703.95 1042.5 702.95 1043.6 700.45
M 1005.2 490.7
Q 1004.5 490.45 1003.85 490.15 995.1 496.65 990.55 505.8 985.95 514.95 984.85 525.05 989.15 525.6 994.35 525.25 1004.65 524.5 1013.25 519.5 1022.2 514.3 1026.25 506.25 1024.15 503.95 1022 501.95 1014.45 494.7 1005.2 490.7
M 942.2 720
Q 942.7947265625 713.912109375 943.8 708.2 926.35 705.6 918.75 703.45 917.8740234375 711.6984375 917.3 720
L 942.2 720
M 908.45 677.35
Q 908.45 676.95 908.45 676.6 907.85 677.25 907 677.7 905.05 678.8 902.05 679.15 897.35 679.7 893.35 679.05 889.3 678.35 885.95 676.5 884.2 675.5 882.7 674.35 881.85 678.7 882 681.25 882.1 683.8 883 685.45 883.95 687.1 886.35 687.85 888.2 688.55 890.2 688.05 892.3 687.55 893.25 686.1 893.6 685.55 893.8 684.95 893.65 686.6 894.35 688.15 895.15 689.7 896.7 690.45 898.35 691.2 900.2 690.85 902.2 690.5 903 689.1 903.5 688.55 903.7 687.35 903.85 686.6 903.85 685.65 903.8 685 903.7 684.35 904.25 685.5 904.55 685.7 904.9 685.85 905.85 685.85 906.85 685.85 907.3 685.7 907.75 685.5 908.05 685.05 908.4 684.5 908.45 684.15 908.3 681.05 908.45 677.35
M 854.2 282.7
Q 854.1 283.15 854.05 283.55 851.55 294.6 852.35 307.5 853 318.15 856.7 331.8 866.6 324 880.1 324 894.95 324 905.45 333.45 908.5 336.15 910.65 339.2 912.85 336.15 915.9 333.45 920 329.8 924.6 327.5 907.15 310.2 896.5 289.4 885.35 267.7 881.65 244.5 871.6 250.25 863.95 261.1 857.1 270.85 854.2 282.7
M 1036.1 380.85
Q 1030 387.2 1028.85 394.9 1001.8 388.8 977.9 373.6 975.2 378.45 970.6 382.5 959.3 392.7 943.3 392.7 927.25 392.7 915.9 382.5 911.95 378.95 909.4 374.95 907.65 377.05 905.45 379 894.95 388.5 880.1 388.5 865.25 388.5 854.7 379 854.35 378.7 854.05 378.45 834.7 397.8 838.4 424.75 842.1 451.8 864.1 466.6 881.4 478.4 910.8 481.75 929.25 483.8 947.25 481.85
L 947.25 489.8
Q 943.65 488.05 940.3 488.05 939.8 495.4 944.85 502.75 949.3 509.2 957.05 514.35 965.35 520 974.75 522.85 975 522.9 975.2 523.05 975.95 516.35 976.6 512.65 977.7 506.95 979.55 502.55 981.85 497.5 985.7 493.65 989.9 489.5 995.1 487.7 990 486.8 984.9 487.35
L 984.2 473.3
Q 1018.95 460.85 1038.65 435.85 1042.45 436.75 1046.35 437.05 1050.65 427.25 1055.15 417.55 1055.35 417 1055.6 416.5 1056 417 1056.45 417.55 1061.25 423.6 1067.7 433.9 1073.8 431.5 1078.8 427.6 1086.95 421.25 1091.05 411.95 1095.05 402.6 1093.7 393 1092.4 384 1086.45 377.1 1082.2 372.2 1076.85 369.8 1074.05 368.6 1071 368.05 1064.4 366.95 1056.85 369.05 1053.4 370 1049.8 371.55 1041.5 375.2 1036.1 380.85
M 963.7 426.4
Q 957.8 421.1 957.8 413.55 957.8 405.95 963.7 400.6 969.7 395.3 978.1 395.3 986.55 395.3 992.45 400.6 998.4 405.95 998.4 413.55 998.4 421.1 992.45 426.4 986.55 431.75 978.1 431.75 969.7 431.75 963.7 426.4
M 869.55 408.6
Q 869.55 413.45 866.05 416.9 862.6 420.35 857.65 420.35 852.75 420.35 849.25 416.9 845.8 413.45 845.8 408.6 845.8 403.7 849.25 400.25 852.75 396.8 857.65 396.8 862.6 396.8 866.05 400.25 869.55 403.7 869.55 408.6 Z"/>

<path fill="#D9362D" stroke="none" d="
M 995.1 487.7
Q 989.9 489.5 985.7 493.65 981.85 497.5 979.55 502.55 977.7 506.95 976.6 512.65 975.95 516.35 975.2 523.05 979.6 524.3 984.85 525.05 985.95 514.95 990.55 505.8 995.1 496.65 1003.85 490.15 999.45 488.45 995.1 487.7
M 908.45 676.6
Q 908.45 676.95 908.45 677.35 908.3 681.05 908.45 684.15 908.9 699.2 914.6 702 916.05 702.6 918.75 703.45 926.35 705.6 943.8 708.2 944.1 708.2 944.4 708.25 958.7 710.4 974.1 710.25 984.45 710.15 995.35 708.95 999.6 708.5 1003.45 707.8 1021.45 704.5 1032.8 695.5 1032.85 695.45 1032.9 695.4 1034.75 693.95 1036.4 692.3 1028 688.05 1021.9 680.25 1018.15 675.5 1015.15 669.75 996 677.35 974.6 679.3 952.35 681.25 930.9 676.8 918.7 674.05 910.4 669.75 910.85 674.35 908.45 676.6
M 1180.3 191.85
Q 1165.15 185.6 1157.05 182.9 1143.85 178.45 1132.8 177.1 1124.25 176.05 1115.6 176.6 1098.15 177.55 1080.15 184.5 1066.5 189.85 1054 197.95 1056.6 156.05 1058.65 135.2 1059.65 124.4 1059.2 118.6 1058.4 109.35 1054.3 103.05 1048.5 94.45 1033.35 87.95 1016.1 80.5 996.75 78.45 978.55 76.8 967.85 82.1 965.45 83.2 963.3 84.75 959.05 87.65 955.65 91.95 950.95 98 948.9 105.5 945.7 118.45 950.35 135.2 956.7 157.6 973.65 175.95 990.15 193.9 1012.95 204 1013.15 204.05 1013.35 204.2 1019.25 206.1 1024.95 208.8 1029.7 211.05 1034 213.7 1037.8 215.95 1040.25 217.65 1042.7 219.35 1043.75 219.9 1044.7 220.5 1045.2 220.85 1045.45 221.4 1045.7 222 1058.6 252.75 1060.25 293.65 1061.2 319.75 1056.85 369.05 1064.4 366.95 1071 368.05 1074.05 368.6 1076.85 369.8 1086.95 327.95 1086.9 297.15 1086.8 266.35 1078 237.7 1089.5 243 1098.95 246.2 1112.5 250.8 1125.4 253.3 1142.1 256.55 1157.6 256.2 1182.95 255.65 1197.35 245.1 1205.8 238.75 1208.9 229.3 1212.2 219.25 1207.7 210.9 1204.35 204.6 1196.1 199.55 1190.9 196.35 1180.3 191.85
M 1004.5 153.35
Q 1007.45 163.8 1011.25 180.9 1004.25 176.25 999.4 169.1 994.85 162.35 992.7 154.3 989.05 139.8 994.35 122.7 999.9 136.7 1004.5 153.35
M 1132.1 219.1
Q 1123.85 225.95 1107.65 228.25 1105.75 228.45 1103.95 228.7 1089.65 229 1073.65 226.1 1065.05 224.5 1056.65 221.55 1065.6 217.6 1075.25 215.5 1084.3 213.5 1093.9 213.15 1113.95 212.45 1132.1 219.1 Z"/>

<path fill="#5BD0A0" stroke="none" d="
M 1067.7 433.9
Q 1061.25 423.6 1056.45 417.55 1056 417 1055.6 416.5 1055.35 417 1055.15 417.55 1050.65 427.25 1046.35 437.05 1041.2 448.6 1035.2 459.75 1031.55 466.35 1035 468.95 1036.8 470.35 1040.85 470.1 1053.65 469.95 1061.35 469.6 1072.7 469.05 1081.7 467.8 1085.2 467.15 1085.9 465.75 1086.6 464.25 1084.95 461.65 1075 445.7 1067.7 433.9 Z"/>

<path fill="#C403CB" stroke="none" d="
M 940.3 488.05
Q 938.15 488.05 936.1 488.75 931.15 490.45 927.2 494 923.75 497.15 920.95 501.75 919 504.85 916.5 510.4 904.75 535.3 894.1 565.65 885.85 589.4 876.4 622.15 873.8 631.45 872.85 636.6 871.3 644.65 871.75 651.3 872.1 658.95 875.5 665.6 878.2 670.9 882.7 674.35 884.2 675.5 885.95 676.5 889.3 678.35 893.35 679.05 897.35 679.7 902.05 679.15 905.05 678.8 907 677.7 907.85 677.25 908.45 676.6 910.85 674.35 910.4 669.75 918.7 674.05 930.9 676.8 952.35 681.25 974.6 679.3 996 677.35 1015.15 669.75 1018.15 675.5 1021.9 680.25 1028 688.05 1036.4 692.3 1040.1 694.2 1044.25 695.4 1047.05 696.2 1050.05 696.75 1050.1 696.75 1050.15 696.75 1056.2 697.75 1061.8 697.9 1064.45 697.95 1066.95 697.9 1072.3 697.6 1077.15 696.55 1079.1 696.1 1081 695.6 1081.25 695.45 1081.55 695.4 1084.7 694.35 1087.45 692.95 1096.15 688.55 1101.4 680.15 1103.05 677.4 1104.25 674.75 1108.05 665.9 1106.65 656.65 1104.85 644.45 1099.75 634.05 1094.55 623.65 1086.25 608.8
L 1044.25 533.55
Q 1038.35 522.85 1034.4 516.9 1030.45 510.9 1026.25 506.25 1022.2 514.3 1013.25 519.5 1004.65 524.5 994.35 525.25 989.15 525.6 984.85 525.05 979.6 524.3 975.2 523.05 975 522.9 974.75 522.85 965.35 520 957.05 514.35 949.3 509.2 944.85 502.75 939.8 495.4 940.3 488.05 Z"/>

<path fill="#FFB595" stroke="none" d="
M 866.05 416.9
Q 869.55 413.45 869.55 408.6 869.55 403.7 866.05 400.25 862.6 396.8 857.65 396.8 852.75 396.8 849.25 400.25 845.8 403.7 845.8 408.6 845.8 413.45 849.25 416.9 852.75 420.35 857.65 420.35 862.6 420.35 866.05 416.9
M 957.8 413.55
Q 957.8 421.1 963.7 426.4 969.7 431.75 978.1 431.75 986.55 431.75 992.45 426.4 998.4 421.1 998.4 413.55 998.4 405.95 992.45 400.6 986.55 395.3 978.1 395.3 969.7 395.3 963.7 400.6 957.8 405.95 957.8 413.55 Z"/>

<path fill="#7B472C" stroke="none" d="
M 1040.25 217.65
Q 1037.8 215.95 1034 213.7 1029.7 211.05 1024.95 208.8 1019.25 206.1 1013.35 204.2
L 1013.25 204.2
Q 1013.05 204.15 1012.95 204 1006.4 201.9 999.6 200.7 999.25 200.65 999 200.65 967.4 197.8 935.3 199.8 913.4 201.2 897.75 205.35 877.9 210.55 864.75 220.65 849.9 232.3 846 249.85 841.85 268.35 854.2 282.7 857.1 270.85 863.95 261.1 871.6 250.25 881.65 244.5 885.35 267.7 896.5 289.4 907.15 310.2 924.6 327.5 932.95 323.3 943.3 323.3 959.3 323.3 970.6 333.45 973.95 336.45 976.35 339.9 979 343.75 980.45 348.05 981.95 352.75 981.95 358 981.95 366.55 977.9 373.6 1001.8 388.8 1028.85 394.9 1030 387.2 1036.1 380.85 1041.5 375.2 1049.8 371.55 1053.4 370 1056.85 369.05 1061.2 319.75 1060.25 293.65 1058.6 252.75 1045.7 222 1045.45 221.4 1045.2 220.85 1044.7 220.5 1043.75 219.9 1042.7 219.35 1040.25 217.65
M 1125.8 255.3
Q 1125.6 254.3 1125.4 253.3 1112.5 250.8 1098.95 246.2 1089.5 243 1078 237.7 1086.8 266.35 1086.9 297.15 1086.95 327.95 1076.85 369.8 1082.2 372.2 1086.45 377.1 1092.4 384 1093.7 393 1095.05 402.6 1091.05 411.95 1086.95 421.25 1078.8 427.6 1073.8 431.5 1067.7 433.9 1075 445.7 1084.95 461.65 1086.6 464.25 1085.9 465.75 1085.2 467.15 1081.7 467.8 1072.7 469.05 1061.35 469.6 1053.65 469.95 1040.85 470.1 1036.8 470.35 1035 468.95 1031.55 466.35 1035.2 459.75 1041.2 448.6 1046.35 437.05 1042.45 436.75 1038.65 435.85 1018.95 460.85 984.2 473.3
L 984.9 487.35
Q 990 486.8 995.1 487.7 999.45 488.45 1003.85 490.15 1004.5 490.45 1005.2 490.7 1014.45 494.7 1022 501.95 1024.15 503.95 1026.25 506.25 1030.45 510.9 1034.4 516.9 1038.35 522.85 1044.25 533.55
L 1086.25 608.8
Q 1094.55 623.65 1099.75 634.05 1104.85 644.45 1106.65 656.65 1108.05 665.9 1104.25 674.75 1111.75 673.8 1118.65 670.45 1125.5 667.05 1130.65 661.75 1135.75 656.7 1138.75 650.1 1141.75 643.7 1142.35 636.7 1143 631.25 1141.55 627.4 1141.95 627.35 1142.35 627.3 1171.8 623.5 1185.4 612.95 1202 600.1 1207.2 586.8 1212.35 573.45 1210.9 560.8 1209.5 548.1 1201.5 538.8 1193.5 529.5 1177.5 517.35 1161.5 505.15 1150.9 497.8 1140.25 490.5 1136.05 479.1 1131.85 467.6 1130.55 453.1 1129.25 438.55 1135.6 385.6 1141.95 332.5 1125.8 255.3 Z"/>
</g>

<g id="Layer0_0_FILL">
<path fill="#F7C181" stroke="none" d="
M 235.65 303.9
Q 236 306.9 236.4 309.95 241.15 309.25 243.15 306.4 240.1 305.55 235.65 303.9 Z"/>

<path fill="#000000" stroke="none" d="
M 220.05 266.4
Q 219.05 264.85 217.9 264.7 216.95 264.7 215.85 266.25 214.5 268.2 213.25 272.3 212.05 275.95 211.65 278.5 211.05 281.95 211.6 284.9 212.45 289.55 216.2 293.55 219.45 296.95 224.3 299.4 227.05 300.75 233.5 303.1 234.65 303.5 235.65 303.9 240.1 305.55 243.15 306.4 241.15 309.25 236.4 309.95 236 310 235.6 310.05 229.15 310.95 222.9 309.35 222.25 309.25 221.9 309.25 221.3 309.2 220.95 309.35 219.6 310.15 220.3 312.95 221.55 317.5 222.85 319.9 224.75 323.45 227.65 324.65 230.6 325.85 234.4 325.1 236.5 324.75 238.55 324.15 241.15 323.3 243.65 321.95 247.6 319.75 250.85 316.35 251.5 309.95 253.75 302.95 254.35 301.1 255.2 298.95 247.15 295.9 243.05 293.75 237.95 291.15 234.4 287.9 233.5 287.1 232.65 286.25 229.45 282.9 225.9 276.65 220.45 267 220.05 266.4
M 424.8 333
Q 424.5 333.15 424.2 333.35 423.5 333.75 422.15 334.25 420.75 334.7 419.45 334.65 418.15 334.55 418.25 334.5 418.25 334.45 418.15 334.4 417.65 335.3 417.2 336.25 413.1 344.45 413.1 353.45 413.45 353.5 413.8 353.55 422 354.45 428.95 351.75 435.9 349.05 440.65 342.45 444.35 337.15 446.2 331 444.4 326.1 443.25 324.05 441.5 321 438.95 320.05 434.8 318.35 429.35 322.05 429.45 322.55 429.5 323.2 429.75 325.45 428.9 327.7 428.15 329.9 426.5 331.5 425.7 332.35 424.8 333
M 337.9 342.5
Q 337.9 342.55 337.9 342.6 338.2 345.5 336.35 348.15 334.9 350.3 332.3 352.15 329.35 354.45 327.05 354.85 325.5 355.05 324.1 354.35 322.7 353.65 321.7 352.55 320.35 354.05 319.2 355.75 316.45 359.95 315.25 364.8 314.05 369.8 314.3 375.45 319.05 375.75 323.05 374.9 331.45 373.05 336.6 370.1 341.65 367.15 345.6 362 349.55 356.9 349.4 348.4 349.35 345.35 349.1 342.6 344 340.95 337.9 342.5
M 335.15 304
Q 336.7 305.75 338.15 308.25 332.6 294.1 319.2 284.1 307.9 275.7 291.95 269.75 286.15 267.6 281.95 267.2 276.35 266.6 272.3 268.85 269.1 270.65 266.55 274.45 264.9 276.95 262.55 281.9 257.8 292 255.2 298.95 254.35 301.1 253.75 302.95 251.5 309.95 250.85 316.35 250.35 321.1 250.75 325.5 255.25 314.5 260.85 305.35 266.45 296.2 273.85 290.4 281.15 284.6 292.05 286.6 302.95 288.55 316.15 293.2 322.75 295.45 326.45 297.35 331.85 300.2 335.15 304
M 413.25 241.7
Q 410.1 240.35 407.35 240.15 404.05 239.95 401.7 241.45 399.75 242.65 398.2 245.25 397.3 246.75 395.95 250.1 390.25 264.35 387.8 274.7 385.25 285 385.75 296.55 385.75 296.1 385.8 295.65 386.3 290.4 387.95 286.6 389.6 282.75 392.4 277.5 396.55 269.55 400.75 264.25 404.95 258.95 411.2 257.35 417.4 255.7 423.6 259.25 429.8 262.8 436.55 268.1 434.4 263.8 432.25 260.35 429.55 255.9 426.95 252.75 425.5 251 424 249.4 418.9 244.2 413.25 241.7
M 457.85 245.05
Q 457.15 244.4 455.6 245.5 447.7 250.95 438.55 252.4 437.65 251 436.7 249.55 442.05 246.25 445 242.45 449.15 237 449.15 231.65 449.3 225.4 444.3 219.2 442.35 216.9 439.45 214.55 437.85 213.2 434.1 210.45 434.45 217.05 434.45 221.05 434.4 226.85 433.5 231.55 432.6 236.6 430.8 240.55 428.2 246 424 249.4 425.5 251 426.95 252.75 429.55 255.9 432.25 260.35
L 443.95 260.95
Q 447.35 261.1 451.75 261.3 453.75 261.3 454.4 261.2 455.85 261 456.85 260.05 457.85 259.05 458 256.35 458.4 251.25 458.2 248.3 458.05 245.25 457.85 245.05
M 402.5 386.5
Q 403.25 389.95 402.7 393.35 402.55 395.1 402 395.85 401.4 396.5 398.95 397 398.46875 397.0875 397.8 397.2 399.7640625 396.88984375 400.05 397.7 400.35 398.5 400.4 399.3 400.5 400 400.65 402.05 400.75 404.1 400.7 406.3 403.65 405.35 405.8 404.25 410 402.2 412.45 399.2 414.95 396.15 415.5 392.3 415.6 391.65 415.6 391.05 415.9 386.25 413.15 383.4 407.85 385.2 402.5 386.5
M 858.45 355.15
Q 859.95 353.55 859.95 351.3 859.95 349.05 858.45 347.4 856.95 345.85 854.8 345.85 852.65 345.85 851.15 347.4 849.7 349.05 849.7 351.3 849.7 353.55 851.15 355.15 852.65 356.75 854.8 356.75 856.95 356.75 858.45 355.15
M 918.05 359.35
Q 919.95 357.65 919.95 355.25 919.95 352.85 918.05 351.2 916.15 349.5 913.5 349.5 910.85 349.5 908.95 351.2 907.1 352.85 907.1 355.25 907.1 357.65 908.95 359.35 910.85 361 913.5 361 916.15 361 918.05 359.35 Z"/>

<path fill="#FED2B2" stroke="none" d="
M 1003.05 716.2
L 1002.85 720 1002.9 720 1003.05 716.2 Z"/>
</g>

<path id="Layer0_0_1_STROKES" stroke="#000000" stroke-width="1" stroke-linejoin="round" stroke-linecap="round" fill="none" d="
M 1113.35 176.4
Q 1114.45 176.5 1115.6 176.6 1124.25 176.05 1132.8 177.1 1143.85 178.45 1157.05 182.9 1165.15 185.6 1180.3 191.85 1190.9 196.35 1196.1 199.55 1204.35 204.6 1207.7 210.9 1212.2 219.25 1208.9 229.3 1205.8 238.75 1197.35 245.1 1182.95 255.65 1157.6 256.2 1142.1 256.55 1125.4 253.3 1125.6 254.3 1125.8 255.3 1141.95 332.5 1135.6 385.6 1129.25 438.55 1130.55 453.1 1131.85 467.6 1136.05 479.1 1140.25 490.5 1150.9 497.8 1161.5 505.15 1177.5 517.35 1193.5 529.5 1201.5 538.8 1209.5 548.1 1210.9 560.8 1212.35 573.45 1207.2 586.8 1202 600.1 1185.4 612.95 1171.8 623.5 1142.35 627.3 1141.95 627.35 1141.55 627.4 1143 631.25 1142.35 636.7 1141.75 643.7 1138.75 650.1 1135.75 656.7 1130.65 661.75 1125.5 667.05 1118.65 670.45 1111.75 673.8 1104.25 674.75 1103.05 677.4 1101.4 680.15 1096.15 688.55 1087.45 692.95 1088.7 694.65 1089.15 695.5 1090 697.2 1089.65 698.25 1089.35 699.25 1087.65 699.9 1086 700.45 1084.35 699.75 1082.65 699 1081.55 695.4 1081.25 695.45 1081 695.6 1079.1 696.1 1077.15 696.55 1077.8 698.8 1077.15 702.1 1076.5 704.2 1075.85 704.85 1074.9 705.95 1073.35 706.25 1071.85 706.6 1070.35 706 1067.95 704.85 1067.45 702.4 1066.95 701 1066.95 697.9 1064.45 697.95 1061.8 697.9 1062.45 701.1 1062.1 702.7 1061.8 705.4 1059.85 706.85 1058.8 707.7 1057.5 708.05 1056.15 708.35 1054.95 707.9 1052.55 707 1051.55 703.55 1050.75 701.3 1050.15 696.75 1050.1 696.75 1050.05 696.75 1047.05 696.2 1044.25 695.4 1044.25 698.35 1043.6 700.45 1042.5 702.95 1040.2 703.95 1038.95 704.45 1037.6 704.2 1036.15 703.95 1035.3 703.1 1034.6 702.45 1034 700.95 1033.1 698.35 1032.8 695.5 1021.45 704.5 1003.45 707.8
L 1003.075 716.2 1002.85 720
M 843 330.5
Q 843.15 331.1 844.3 332.55 846.85 335.7 850.7 337.7 852.45 335.45 854.7 333.45 855.65 332.55 856.7 331.8 853 318.15 852.35 307.5 851.55 294.6 854.05 283.55 854.1 283.15 854.2 282.7 841.85 268.35 846 249.85 849.9 232.3 864.75 220.65 877.9 210.55 897.75 205.35 913.4 201.2 935.3 199.8 967.4 197.8 999 200.65 999.25 200.65 999.6 200.7 1006.4 201.9 1012.95 204 990.15 193.9 973.65 175.95 956.7 157.6 950.35 135.2 945.7 118.45 948.9 105.5 950.95 98 955.65 91.95 959.05 87.65 963.3 84.75 965.45 83.2 967.85 82.1 978.55 76.8 996.75 78.45 1016.1 80.5 1033.35 87.95 1048.5 94.45 1054.3 103.05 1058.4 109.35 1059.2 118.6 1059.65 124.4 1058.65 135.2 1056.6 156.05 1054 197.95 1066.5 189.85 1080.15 184.5 1098.15 177.55 1115.6 176.6 1121.9 177.25 1127.6 180.45 1134.45 184.3 1137.8 190.4 1141.25 196.55 1140.55 203.65 1139.75 210.85 1135.1 216.1 1133.8 217.7 1132.1 219.1 1123.85 225.95 1107.65 228.25 1105.75 228.45 1103.95 228.7 1089.65 229 1073.65 226.1 1065.05 224.5 1056.65 221.55 1049.25 218.9 1034.4 213.35 1034.2 213.5 1034 213.7 1037.8 215.95 1040.25 217.65 1042.7 219.35 1043.75 219.9 1044.7 220.5 1045.2 220.85 1063.2 230.95 1078 237.7 1089.5 243 1098.95 246.2 1112.5 250.8 1125.4 253.3
M 1012.95 204
Q 1013.15 204.05 1013.35 204.2 1014.65 203.4 1015.9 202.75 1013.4 190.7 1011.25 180.9 1004.25 176.25 999.4 169.1 994.85 162.35 992.7 154.3 989.05 139.8 994.35 122.7 990.8 113.8 986.85 106 976.9 86.5 963.3 84.75
M 1011.25 180.9
Q 1007.45 163.8 1004.5 153.35 999.9 136.7 994.35 122.7
M 1023.3 172.35
Q 1024.5 184.1 1028.05 198.1 1031.25 197.3 1034.55 196.9 1038.65 196.5 1042 196.8 1039.75 188.4 1039.75 180.2
M 1056.65 221.55
Q 1065.6 217.6 1075.25 215.5 1084.3 213.5 1093.9 213.15 1113.95 212.45 1132.1 219.1
M 1034.4 213.35
Q 1038.65 209.3 1041.85 206.75 1046.4 203.15 1051.15 199.9 1047.6 197.3 1042 196.8
M 1045.2 220.85
Q 1045.45 221.4 1045.7 222 1058.6 252.75 1060.25 293.65 1061.2 319.75 1056.85 369.05 1064.4 366.95 1071 368.05 1074.05 368.6 1076.85 369.8 1086.95 327.95 1086.9 297.15 1086.8 266.35 1078 237.7
M 1015.9 202.75
Q 1021.7 199.65 1028.05 198.1
M 1013.35 204.2
Q 1019.25 206.1 1024.95 208.8 1029.7 211.05 1034 213.7
M 1012.95 204
Q 1013.05 204.15 1013.25 204.2
L 1013.35 204.2
M 854.2 282.7
Q 857.1 270.85 863.95 261.1 871.6 250.25 881.65 244.5 885.35 267.7 896.5 289.4 907.15 310.2 924.6 327.5 932.95 323.3 943.3 323.3 959.3 323.3 970.6 333.45 973.95 336.45 976.35 339.9 980.3 339.3 983.75 336.8 986.85 334.4 988.8 331
M 976.35 339.9
Q 979 343.75 980.45 348.05 983.8 347.5 986.85 346.55 988.6 346.1 991.85 344.35
M 980.45 348.05
Q 981.95 352.75 981.95 358 981.95 366.55 977.9 373.6 1001.8 388.8 1028.85 394.9 1030 387.2 1036.1 380.85 1041.5 375.2 1049.8 371.55 1053.4 370 1056.85 369.05
M 1076.85 369.8
Q 1082.2 372.2 1086.45 377.1 1092.4 384 1093.7 393 1095.05 402.6 1091.05 411.95 1086.95 421.25 1078.8 427.6 1073.8 431.5 1067.7 433.9 1075 445.7 1084.95 461.65 1086.6 464.25 1085.9 465.75 1085.2 467.15 1081.7 467.8 1072.7 469.05 1061.35 469.6 1053.65 469.95 1040.85 470.1 1036.8 470.35 1035 468.95 1031.55 466.35 1035.2 459.75 1041.2 448.6 1046.35 437.05 1042.45 436.75 1038.65 435.85 1018.95 460.85 984.2 473.3
L 984.9 487.35
Q 990 486.8 995.1 487.7 999.45 488.45 1003.85 490.15 1004.5 490.45 1005.2 490.7 1014.45 494.7 1022 501.95 1024.15 503.95 1026.25 506.25 1030.45 510.9 1034.4 516.9 1038.35 522.85 1044.25 533.55
L 1086.25 608.8
Q 1094.55 623.65 1099.75 634.05 1104.85 644.45 1106.65 656.65 1108.05 665.9 1104.25 674.75
M 1051.15 199.9
Q 1052.55 198.9 1054 197.95
M 941.9 282.8
Q 946.05 282.25 950.3 283 954.5 283.75 958.15 285.7 965.65 289.6 968.7 297.05
M 883.85 283.65
Q 880.1 283.4 876.35 284.6 872.6 285.75 869.8 288 866.8 290.35 865.05 293.5 863.25 296.7 863 300.15
M 850.7 337.7
Q 848 341 846.45 344.8 844.15 350.1 844.15 356.25 844.15 369.15 854.05 378.45 854.35 378.7 854.7 379 865.25 388.5 880.1 388.5 894.95 388.5 905.45 379 907.65 377.05 909.4 374.95 904.6 367.35 904.6 358 904.6 347.45 910.65 339.2 908.5 336.15 905.45 333.45 894.95 324 880.1 324 866.6 324 856.7 331.8
M 837.35 340.4
Q 840.85 343.65 846.45 344.8
M 859.95 351.3
Q 859.95 353.55 858.45 355.15 856.95 356.75 854.8 356.75 852.65 356.75 851.15 355.15 849.7 353.55 849.7 351.3 849.7 349.05 851.15 347.4 852.65 345.85 854.8 345.85 856.95 345.85 858.45 347.4 859.95 349.05 859.95 351.3 Z
M 924.6 327.5
Q 920 329.8 915.9 333.45 912.85 336.15 910.65 339.2
M 919.95 355.25
Q 919.95 357.65 918.05 359.35 916.15 361 913.5 361 910.85 361 908.95 359.35 907.1 357.65 907.1 355.25 907.1 352.85 908.95 351.2 910.85 349.5 913.5 349.5 916.15 349.5 918.05 351.2 919.95 352.85 919.95 355.25 Z
M 977.9 373.6
Q 975.2 378.45 970.6 382.5 959.3 392.7 943.3 392.7 927.25 392.7 915.9 382.5 911.95 378.95 909.4 374.95
M 944.85 404.15
Q 943.3 406.7 943.35 410 943.35 410.95 943.55 412 944.3 415.85 946.35 419.75 947.95 422.9 949.05 424.45 950.85 426.9 953.15 428.2
M 998.4 413.55
Q 998.4 421.1 992.45 426.4 986.55 431.75 978.1 431.75 969.7 431.75 963.7 426.4 957.8 421.1 957.8 413.55 957.8 405.95 963.7 400.6 969.7 395.3 978.1 395.3 986.55 395.3 992.45 400.6 998.4 405.95 998.4 413.55 Z
M 984.2 473.3
Q 983.45 473.55 982.65 473.85 965.2 479.9 947.25 481.85
L 947.25 489.8
Q 943.65 488.05 940.3 488.05 939.8 495.4 944.85 502.75 949.3 509.2 957.05 514.35 965.35 520 974.75 522.85 975 522.9 975.2 523.05 975.95 516.35 976.6 512.65 977.7 506.95 979.55 502.55 981.85 497.5 985.7 493.65 989.9 489.5 995.1 487.7
M 940.3 488.05
Q 938.15 488.05 936.1 488.75 931.15 490.45 927.2 494 923.75 497.15 920.95 501.75 919 504.85 916.5 510.4 904.75 535.3 894.1 565.65 885.85 589.4 876.4 622.15 873.8 631.45 872.85 636.6 871.3 644.65 871.75 651.3 872.1 658.95 875.5 665.6 878.2 670.9 882.7 674.35 884.2 675.5 885.95 676.5 889.3 678.35 893.35 679.05 897.35 679.7 902.05 679.15 905.05 678.8 907 677.7 907.85 677.25 908.45 676.6 910.85 674.35 910.4 669.75 904.55 666.65 900.6 662.8 889.4 651.85 889.5 633.8 889.55 619.05 897.05 601.7 906.55 581.55 910.25 571.3 916.75 553.55 914.65 539.95
M 887.25 417
Q 900.9 421.2 916.55 419.3 932.1 417.3 943.35 410
M 854.05 378.45
Q 834.7 397.8 838.4 424.75 842.1 451.8 864.1 466.6 881.4 478.4 910.8 481.75 929.25 483.8 947.25 481.85
M 869.55 408.6
Q 869.55 413.45 866.05 416.9 862.6 420.35 857.65 420.35 852.75 420.35 849.25 416.9 845.8 413.45 845.8 408.6 845.8 403.7 849.25 400.25 852.75 396.8 857.65 396.8 862.6 396.8 866.05 400.25 869.55 403.7 869.55 408.6 Z
M 908.45 676.6
Q 908.45 676.95 908.45 677.35 908.3 681.05 908.45 684.15 908.9 699.2 914.6 702 916.05 702.6 918.75 703.45 926.35 705.6 943.8 708.2 944.1 708.2 944.4 708.25 958.7 710.4 974.1 710.25 984.45 710.15 995.35 708.95 999.6 708.5 1003.45 707.8
M 893.35 679.05
Q 893.4 680.4 893.85 682.75 894 684 893.8 684.95 893.65 686.6 894.35 688.15 895.15 689.7 896.7 690.45 898.35 691.2 900.2 690.85 902.2 690.5 903 689.1 903.5 688.55 903.7 687.35 903.85 686.6 903.85 685.65 903.8 685 903.7 684.35 903.4 681.55 902.8 679.65
M 882.7 674.35
Q 881.85 678.7 882 681.25 882.1 683.8 883 685.45 883.95 687.1 886.35 687.85 888.2 688.55 890.2 688.05 892.3 687.55 893.25 686.1 893.6 685.55 893.8 684.95
M 903.7 684.35
Q 904.25 685.5 904.55 685.7 904.9 685.85 905.85 685.85 906.85 685.85 907.3 685.7 907.75 685.5 908.05 685.05 908.4 684.5 908.45 684.15
M 910.4 669.75
Q 918.7 674.05 930.9 676.8 952.35 681.25 974.6 679.3 996 677.35 1015.15 669.75 1010.85 661.7 1008.1 651.8 1005.15 641.25 1002.25 620.6 995.6 572.55 992.2 548.55
M 943.8 708.2
Q 942.7947265625 713.912109375 942.2 720
M 917.3 720
Q 917.8740234375 711.6984375 918.75 703.45
M 1067.7 433.9
Q 1061.25 423.6 1056.45 417.55 1056 417 1055.6 416.5 1055.35 417 1055.15 417.55 1050.65 427.25 1046.35 437.05
M 1003.85 490.15
Q 995.1 496.65 990.55 505.8 985.95 514.95 984.85 525.05 989.15 525.6 994.35 525.25 1004.65 524.5 1013.25 519.5 1022.2 514.3 1026.25 506.25
M 975.2 523.05
Q 979.6 524.3 984.85 525.05
M 1141.55 627.4
Q 1127.25 629.05 1120.3 623.2 1117.35 620.5 1118.2 618.25 1118.55 617.1 1119.9 616.4 1121.15 615.75 1122.75 615.65 1124.95 615.65 1128.25 616.85 1133.45 618.6 1135.75 620.2 1138 621.7 1139.5 623.7 1140.9 625.55 1141.55 627.4 Z
M 1015.15 669.75
Q 1018.15 675.5 1021.9 680.25 1028 688.05 1036.4 692.3 1040.1 694.2 1044.25 695.4
M 1032.8 695.5
Q 1032.85 695.45 1032.9 695.4 1034.75 693.95 1036.4 692.3
M 974.1 710.25
L 973.6 720
M 1077.15 696.55
Q 1072.3 697.6 1066.95 697.9
M 1061.8 697.9
Q 1056.2 697.75 1050.15 696.75
M 1087.45 692.95
Q 1084.7 694.35 1081.55 695.4
M 307.55 106.8
Q 298.65 103.6 295.4 102.55 290.45 100.7 288.15 102.45 287.2 103.15 286.75 104.4 286.35 105.6 286.4 106.95 286.4 108 286.8 109.35 286.85 109.45 287.6 111.75 290 117.55 293.9 124.25 296.3 128.6 302.9 136.15 295.2 133.25 291.55 133.05 287.9 132.9 285.8 133.65 296.95 152.9 303.6 161.85 306.4 165.6 309.3 168.95 318.2 169.85 327.2 170.55 327.7 167.5 328.5 164.5 331.1 154.55 335.7 146.1 340.3 137.6 348.95 132 357.1 126.65 366 125 360.75 139.2 351.65 151.1 363.7 148.05 376.2 148.65 386.95 149.15 401.3 151.7 386.9 152.95 378.6 156.5 391.4 157.6 403.35 164.3 406.6 166.2 408.45 167.95 411 170.25 412.15 172.95 414.15 177.95 411.7 185.85 408 197.4 399.75 205.95 406.3 211.3 412.4 217.7 421.9 227.5 430.8 240.55 432.6 236.6 433.5 231.55 434.4 226.85 434.45 221.05 434.45 217.05 434.1 210.45 437.85 213.2 439.45 214.55 442.35 216.9 444.3 219.2 449.3 225.4 449.15 231.65 449.15 237 445 242.45 442.05 246.25 436.7 249.55 437.65 251 438.55 252.4 447.7 250.95 455.6 245.5 457.15 244.4 457.85 245.05 458.05 245.25 458.2 248.3 458.4 251.25 458 256.35 457.85 259.05 456.85 260.05 455.85 261 454.4 261.2 453.75 261.3 451.75 261.3 447.35 261.1 443.95 260.95 445.55 263.6 447 266 452.9 275.9 457.35 284.55 460.6 290.8 462.9 297.95 469.55 318.25 468.45 339.15 467.05 367.35 452.15 394.05 439.4 416.75 419.25 434.4 426.6 445.15 431.15 458.1 458.7 446.1 492.9 431.1 502.7 426.8 506.45 425.45 514.1 422.55 520.5 421.65 528.05 420.55 535 422 539.2 422.9 542.7 424.65 545.8 420.2 547.25 415.25 548.75 410.2 548.5 405.05 548.25 402.8 548.6 401.6 548.85 400.7 549.45 400.05 550.1 399.4 550.9 399.35 552.05 399.15 553.4 400.55 556.25 403.8 556.4 410.9 556.4 412.75 556.4 416.4 556.55 419.55 557.3 421.8 557.7 422.9 558.7 424.75 563.05 423.85 567.4 420.85 570.85 418.45 574.65 414.4 574.85 414.2 581.15 407.05 585.05 402.65 588.05 400.25 590.2 398.45 591.7 399.1 592.4 399.4 592.75 400.25 593.1 400.95 593.1 401.8 593 403.4 592.05 404.95 588.35 411.85 582 419.15 579 422.55 570.7 431.55 588.15 419.55 595.2 414 602.2 408.5 603.55 409.3 604.25 409.7 604.35 410.75 604.5 411.65 604.2 412.6 603.25 415.75 600.05 419.2 594.1 425.7 589.55 429.2 585 432.65 574.65 440 585.1 433.95 593.4 432.05 601.65 430.05 603.8 429.6 605.95 429.15 606.6 429.95 607 430.6 606.65 431.55 606.4 432.3 605.7 433 601.95 436.95 595.7 439.5 591.65 441.2 579.1 443.9 590.75 442.85 597.6 443.35 599.75 443.55 600.4 444.7 600.85 445.7 600.05 446.75 599.4 447.7 598.25 448.3 594.15 450.25 585.55 450.2 576.5 450.05 572.6 451.55 571.1 452.15 568.7 453.55 565.95 455.2 564.9 455.7 559.95 457.95 556.55 456.1 555.75 459.45 554.4 463.1 549.7 475.15 529.5 481.55 509.3 487.9 494.1 490.2 478.9 492.5 456.6 493.95 439.5 495 428.25 496.1 428.9 511.1 428.95 519.45 429 532.6 427.8 543.05 427.75 543.25 427.75 543.4 426.3 533.45 423.4 523.95 420.2 513.55 413.55 497.85 413 509.4 411.85 516.6 410.65 523.85 408 531.25 408.9 533.65 409.7 536.05 411.3 540.7 412.65 545.45 412.95 546.35 413.2 547.3 413.95 550 414.6 552.7 421.2 578.65 421.35 605.25 421.45 615 420.2 623.4
L 446.15 719
Q 429.5 699.65 419.55 674.25
L 421.45 720
M 399.75 205.95
Q 398.8 209.1 395.8 217.95 392.8 226.75 383.85 239.2 386.2 222.05 381.75 205.4 380.65 201.5 379.45 199.1 377.85 195.8 375.55 193.85 373.1 191.8 369.2 190.65 367.55 190.15 362.05 189.15 354.15 187.65 351.8 187.5 345.95 187.15 342.05 189.55 338.1 191.9 336.3 196.65 334.45 201.2 332.4 208.35 329.35 205.5 321.35 200.65 313.3 195.8 310 193.65 306.7 191.5 301.05 189.25 295.4 186.95 290.9 188.55 286.35 190.05 282.85 193.15 279.35 196.25 276.05 200.8 272.75 205.3 271.3 209.3 269.85 213.25 269.05 216.75 268.25 220.25 270.6 224.6 272.95 228.95 281.7 238.95 289.6 247.95 303.8 257.95 293.3 258.25 288.65 258.65 279.6 259.45 272.5 258.05 262.65 256.05 254.5 249.45 253.65 248.8 252.85 248.05 248.35 248.25 244.1 246.7 240.85 245.6 237.4 243.35 236.9 243.05 236.35 242.65 233.2 264.05 234.4 287.9 237.95 291.15 243.05 293.75 247.15 295.9 255.2 298.95 257.8 292 262.55 281.9 264.9 276.95 266.55 274.45 269.1 270.65 272.3 268.85 276.35 266.6 281.95 267.2 286.15 267.6 291.95 269.75 307.9 275.7 319.2 284.1 332.6 294.1 338.15 308.25 338.9 309.5 339.6 311 340.8 313.5 342.75 318.7 345.55 326.45 347.15 332 347.4 332.95 347.65 333.85 348.65 337.7 349.1 342.6 349.35 345.35 349.4 348.4 349.55 356.9 345.6 362 341.65 367.15 336.6 370.1 331.45 373.05 323.05 374.9 319.05 375.75 314.3 375.45 309.85 375.1 304.65 373.8 303.7 373.5 302.75 373.25 290.95 369.75 281.1 363.45 271.25 357.15 263.7 347.55 256.15 337.95 250.75 325.5 250.35 321.1 250.85 316.35 247.6 319.75 243.65 321.95 241.15 323.3 238.55 324.15 239.6 330.35 240.95 336.7 247.1 366 264.25 417.6 271.45 423.85 280.75 429.2 290.7 434.9 305.2 440.4 310.5 442.4 316.5 444.45 324.55 447.1 333.75 449.75 338.85 451.15 343.2 452.3 352.3 454.6 357.95 455.5 370.05 457.45 379.9 455.8 381.1 455.6 382.25 455.35 390.6 453.6 399.45 448.7 407.1 444.45 415.2 437.85 417.25 436.15 419.25 434.4
M 309.3 168.95
Q 317.35 178.2 326.7 184.65 326 177.1 327.2 170.55
M 424 249.4
Q 418.9 244.2 413.25 241.7 410.1 240.35 407.35 240.15 404.05 239.95 401.7 241.45 399.75 242.65 398.2 245.25 397.3 246.75 395.95 250.1 390.25 264.35 387.8 274.7 385.25 285 385.75 296.55 385.75 296.1 385.8 295.65 386.3 290.4 387.95 286.6 389.6 282.75 392.4 277.5 396.55 269.55 400.75 264.25 404.95 258.95 411.2 257.35 417.4 255.7 423.6 259.25 429.8 262.8 436.55 268.1 434.4 263.8 432.25 260.35 429.55 255.9 426.95 252.75 425.5 251 424 249.4 428.2 246 430.8 240.55
M 432.25 260.35
L 443.95 260.95
M 385.75 296.55
Q 385.45 301.45 387.1 307.85 388.85 314.75 391.05 321.8 393.2 328.8 395.55 335.8 397.9 342.8 401.75 347.75 402.8 349.05 404.15 350.1 404.2 345.3 406 340.05 407.45 335.9 410.3 330.7 416.75 318.8 424.5 313.75 429.65 310.4 435.85 309.45 442.1 308.5 448.2 310.5 447.7 303.6 445.9 295.65 442.55 280.9 436.75 268.5
L 436.75 268.4
Q 436.6 268.2 436.55 268.1
M 371.25 219.6
Q 370.9 215.55 370.1 213.4 369.3 210.25 367.4 208.2 366.1 206.7 364.25 205.85 362.4 204.95 360.35 204.95 358.3 204.95 356.65 205.95 355.6 206.8 354.8 208.55 354.75 208.6 354.7 208.7 354.35 209.45 354.05 210.35 353.5 212.15 353.8 213.9 354.1 215.9 355.35 216.85 356.5 217.8 358.55 217.65 359.75 217.6 362.05 217.2 364.35 216.95 366.5 217.5 368.75 218.15 371.25 219.6 Z
M 338.15 308.25
Q 336.7 305.75 335.15 304 331.85 300.2 326.45 297.35 322.75 295.45 316.15 293.2 302.95 288.55 292.05 286.6 281.15 284.6 273.85 290.4 266.45 296.2 260.85 305.35 255.25 314.5 250.75 325.5
M 321.7 352.55
Q 322.7 353.65 324.1 354.35 325.5 355.05 327.05 354.85 329.35 354.45 332.3 352.15 334.9 350.3 336.35 348.15 338.2 345.5 337.9 342.6 337.9 342.55 337.9 342.5 337.65 341.05 336.85 339.85 335.95 338.65 334.65 338.25 333.3 337.8 331.65 338.2 330.5 338.5 328.75 339.35 325.7 341 323.95 342.55 321.55 344.7 320.8 347.25 320.05 350.25 321.6 352.4 321.65 352.45 321.7 352.55 320.35 354.05 319.2 355.75 316.45 359.95 315.25 364.8 314.05 369.8 314.3 375.45
M 349.1 342.6
Q 344 340.95 337.9 342.5
M 347.15 332
Q 338.75 329.7 330.3 332.6 322.1 335.35 316.15 341.95 310.55 348.05 307.6 356.65 304.85 364.65 304.65 373.8
M 383.7 358
Q 386.3 354.4 388.8 354.35 391.2 354.25 392.15 355.85 393.1 357.45 393.1 360.95 393.4 366 393.25 367.9
M 400.7 406.3
Q 399.3 406.75 397.7 407.2 376.9 412.65 355.45 409.2 348.95 408.35 346 405.6 343.15 403.05 342.65 398.85 342.5 397.6 342.55 396.25 342.7 390.8 346.45 386.6 362.7 390.5 379.85 389.7 391.4 389.25 402.5 386.5 407.85 385.2 413.15 383.4 415.9 386.25 415.6 391.05 415.6 391.65 415.5 392.3 414.95 396.15 412.45 399.2 410 402.2 405.8 404.25 403.65 405.35 400.7 406.3 400.75 404.1 400.65 402.05 400.5 400 400.4 399.3 400.35 398.5 400.05 397.7 399.7640625 396.88984375 397.8 397.225 397.700390625 397.23125 397.6 397.25 395.15 397.65 390.95 398.35 385.45 399.2 379.4 399.75 360.85 401.45 342.65 398.85
M 402.5 386.5
Q 403.25 389.95 402.7 393.35 402.55 395.1 402 395.85 401.4 396.5 398.95 397 398.46875 397.0875 397.8 397.225
M 446.2 331
Q 446.7 329.3 447.1 327.55 448.8 320.2 448.3 311.55 448.25 310.95 448.2 310.5
M 429.35 322.05
Q 428.9 320.25 427.55 319.4 425.9 318.5 423.5 319.45 420.7 320.65 418.65 323.3 416.6 325.9 416.15 329.05 415.75 332.25 417.25 333.75 417.65 334.15 418.15 334.4 418.25 334.45 418.25 334.5 418.15 334.55 419.45 334.65 420.75 334.7 422.15 334.25 423.5 333.75 424.2 333.35 424.5 333.15 424.8 333 425.7 332.35 426.5 331.5 428.15 329.9 428.9 327.7 429.75 325.45 429.5 323.2 429.45 322.55 429.35 322.05 434.8 318.35 438.95 320.05 441.5 321 443.25 324.05 444.4 326.1 446.2 331 444.35 337.15 440.65 342.45 435.9 349.05 428.95 351.75 422 354.45 413.8 353.55 413.45 353.5 413.1 353.45 407.6 352.7 404.15 350.1
M 418.15 334.4
Q 417.65 335.3 417.2 336.25 413.1 344.45 413.1 353.45
M 398.8 182.1
Q 402.35 195 399.75 205.95
M 236.35 242.65
Q 234.25 241.2 230.85 239.35 214.7 244.8 197.2 251.15 208.85 231.25 224.7 215.5 219.4 217.2 215.05 218.15 209.7 219.3 203.9 219.35 213.55 212.2 224.2 203.8 230.3 199 245 186.2 258.1 174.8 265.9 168.95 269.6 166.2 273.2 163.9 245.1 158.9 215.8 150.25 224 153.85 228.6 156.9 234.45 160.8 233.5 163.15 232.5 165.5 216.1 165.7 199.7 165.85 169.3 164.45 174.9 166.8 181.5 172.05 175.35 173 170.15 175.8 163.8 179.2 156.1 186.05 161.4 184.6 167.2 184.25 173.05 183.85 179.55 184.4 168.55 187.4 160.2 197.9 154.2 205.45 147.25 220
L 108.9 299.4
Q 99 319.9 90.3 330.5 77.65 345.9 61.55 349.95 80.15 349.7 96.4 341.5 93.1 355.05 86.5 366.7 79.5 379 69.35 388.55 84.55 384.5 99 377.45 111.8 371.15 124 361.1 95.65 411.55 113.35 494.1 114.7 500.3 120.45 522.55 123.85 523.8 127 524.55 136.75 527.05 145.6 525.75 145.6 525.3 145.6 524.85 145.65 521.45 145.15 519.35 144.65 517.65 143.25 514.8 141.65 511.65 141.15 510.3 139.65 506.15 140.5 501.75 140.65 500.35 141.35 499.95 142.4 499.35 143.4 500.4 144.25 501.25 144.7 502.75 146.6 507.95 153.6 514.85 153.75 515 153.9 515.2 171.7 503.65 195.35 499.5 205.1 467.35 224.05 439.1 212.5 441.7 202.15 447.05 215.65 429.45 225.2 407.85 226.25 405.5 227.2 403.15 218.3 401.35 211.4 391.45 203.8 380.9 199.8 368.25 195.85 355.55 195.75 347.9 195.55 340.3 196.2 338.95 196.7 337.6 198.45 337.2 200.15 336.75 209.05 337.55 218 338.35 224.7 344.2 231.35 350.05 233 362.15 234.6 374.2 232.7 384.15 230.75 394.1 227.2 403.15
M 285.8 133.65
Q 285.1 134.05 284.75 134.8 283.9 136.85 284.2 140.05 285.05 148.3 288.75 156.6 280.9 158.8 273.2 163.9
M 303.65 236.35
Q 304.1 236.35 305.1 234.9 305.85 233.8 306.4 233.25 308 231.6 311.3 230.65 313.15 230.15 316.8 229.1 319.75 227.9 321.15 225.8 322.4 224.15 322.5 221.85 322.7 219.6 321.7 217.75 320.7 215.85 318.85 214.75 316.95 213.65 314.85 213.85 312.5 213.95 309.75 215.7 306.9 217.55 305.55 219.65 303.7 222.5 303.45 227.85 303.45 227.9 303.55 232.15 303.55 234.7 303.65 236.35 Z
M 234.4 287.9
Q 233.5 287.1 232.65 286.25 229.45 282.9 225.9 276.65 220.45 267 220.05 266.4 219.05 264.85 217.9 264.7 216.95 264.7 215.85 266.25 214.5 268.2 213.25 272.3 212.05 275.95 211.65 278.5 211.05 281.95 211.6 284.9 212.45 289.55 216.2 293.55 219.45 296.95 224.3 299.4 227.05 300.75 233.5 303.1 234.65 303.5 235.65 303.9 240.1 305.55 243.15 306.4 241.15 309.25 236.4 309.95 236 310 235.6 310.05 229.15 310.95 222.9 309.35 222.25 309.25 221.9 309.25 221.3 309.2 220.95 309.35 219.6 310.15 220.3 312.95 221.55 317.5 222.85 319.9 224.75 323.45 227.65 324.65 230.6 325.85 234.4 325.1 236.5 324.75 238.55 324.15
M 235.65 303.9
Q 236 306.9 236.4 309.95
M 250.85 316.35
Q 251.5 309.95 253.75 302.95 254.35 301.1 255.2 298.95
M 242 233.35
Q 245.9 241.8 252.85 248.05
M 305.2 440.4
Q 302.15 442.7 300.05 445.45 296.25 450.35 295.65 456.3 295 462.2 300.2 470.3 305.2 478 313.65 482.9 318.85 486 324.7 487.7 317.9 476.4 315.8 467.15 314.4 461.3 314.55 455.55 314.7 449.65 316.5 444.45
M 264.25 417.6
Q 252.1 407.05 245.9 393 252.7 420.6 256.45 438.55 260.2 456.45 259.55 469.65 258.85 482.85 255.85 495.55 293.15 494.4 330.7 489 330.603125 488.9515625 330.5 488.95
L 330.45 488.95
Q 330.15 488.9 329.9 488.85 327.25 488.35 324.7 487.7
M 195.35 499.5
Q 199.45 498.8 203.75 498.25 214.55 496.9 229.65 496.3 238.4 495.95 255.65 495.55 255.75 495.55 255.85 495.55
M 153.9 515.2
Q 161.45 522.6 163.5 526.55 165.5 530.35 166 534.75 166.45 539.15 165.35 543.3 164.2 547.4 161.55 550.9 159.45 553.75 156.8 555.85 165.15 563.5 177.65 563.75 190.4 564 228.3 550.9 229.2 550.6 230.15 550.3 237.8 547.6 246.35 544.6 281.3 532.3 329.55 514.7 329.45 528.9 328.4 543.65 327.35 558.45 323.4 572.5 321.15 580.5 316.05 596.65 312.25 610.75 313.35 621.2 315.4 640.85 332.7 654.6 335.75 657 338.95 659.05 352.85 667.8 369.65 668.7 384.15 669.5 394.45 664.8 397.25 663.45 399.75 661.75 411.65 653.85 417.1 637.15 419.15 630.85 420.2 623.4
M 246.35 544.6
Q 245.65 558.9 248 573.4 251.15 593.05 259.35 611.9 248.25 601 240.4 584.7 236.9 577.55 233.65 568 231.8 562.55 228.3 550.9
M 122.8 531.75
Q 123.15 533.35 123.65 535.05 127.3 534.95 132.05 534.55 126.2 532.9 122.8 531.75 122.25 531.55 121.8 531.4 115.7 529.25 111.25 526.45 107.2 523.8 105.2 521.15 104.05 519.7 104.3 518.65 104.5 517.95 105.2 517.45 105.85 517 106.6 517 107.6 517 109.55 517.9 115.35 520.7 120.45 522.55
M 151 538.55
Q 148.6 538.1 147 535.5 145.65 533.25 145.5 530.25 145.45 529.5 145.6 525.75
M 123.65 535.05
Q 119.35 535.15 116.5 535 107.85 534.65 101.4 532.15 99.6 531.45 99 532.15 98.5 532.7 98.7 533.85 99.35 537.95 106.05 540.45 115.95 544.15 126.25 545.1 129.2 545.35 132.25 545.4 129.5 546.25 126.75 547 117.7 549.3 108.35 550.1 105.9 550.4 105.55 551.6 105.3 552.45 105.95 553.4 107.15 554.9 110.4 555.5 114.1 556 120.7 555.15 125.65 554.5 128.7 554.45 129.7 554.35 133.6 553.25 129.75 554.8 128.9 555.25 123.8 558 116.5 562 115 562.85 115.4 563.75 115.65 564.25 116.5 564.25 121.05 565.25 126.7 563.7 128.35 563.2 130.7 562.3 133.25 561.3 136.6 559.75 142.95 557 146.5 556.15 152.2 554.7 156.75 555.85
L 156.8 555.85
M 126.25 545.1
Q 126.45 546.05 126.75 547
M 128.7 554.45
Q 128.75 554.85 128.9 555.25
M 130.7 562.3
Q 138.4 593.25 141 614.35 145.3 647.65 140.1 676.35 135.7 700.95 124.75 720
M 542.7 424.65
Q 545.6 426.1 548.1 428.15 554.45 433.55 556.7 442.3 558.35 448.45 556.55 456.1
M 560.3 438.15
Q 561.55 436.55 561.8 434.15 562.05 431.95 561.2 429.75 560.65 428.4 559.2 425.8 558.9 425.25 558.7 424.75
M 343.2 452.3
Q 342.3 455.75 342.95 460.1 343.5 463.4 345.05 467.9 348.7 478.1 354.65 486.85 368.65 484.5 381.9 479.35 382.55 479 383.15 478.65 379.25 467.45 379.9 455.8
M 330.5 488.95
Q 342.803125 488.8994140625 354.65 486.85
M 383.15 478.65
Q 387.3 476.15 390.5 473.1 395.55 468.3 398.05 462.05 400.7 455.25 399.45 448.7
M 390.1 493.75
Q 392.15 497.05 394 500.55 394.25 501 394.5 501.45 403.65 499.25 413.55 497.8 416.9 497.25 420.2 496.9 423.8 496.5 428.25 496.1
M 414.6 552.7
Q 397.55 553.8 386.15 556.85 374.75 559.95 364.55 565.4 367.35 569.65 369.6 574.15 369.75 574.4 369.8 574.6 369.85 574.85 369.7 575.1 369.45 575.35 368.7 575.3 367.35 575.2 365.75 574.65 364.7 574.3 362.95 573.55 358.8 571.85 353.85 569.45 352.85 570.65 351.6 572.05 350.7 573 349.15 574.55 347.75 576.1 346.85 576.95 345.55 578.2 344.35 579.1 343.7 579.65 343.2 579.5 342.6 579.25 342.8 578.1 343.9 571.45 346.05 564.95 340.6 563.1 338.75 562.4 336.3 561.5 335.3 561.05 333.35 560.2 332.05 559.3 331.45 558.9 331.6 558.55 331.65 558.25 332.15 558.05 333.15 557.7 334.45 557.45 335.15 557.25 336.7 556.95 342.1 556.1 347.05 555.65 347.8 549.55 349.45 543 349.85 541.55 350.65 541.45 351.45 541.35 352.15 542.55 353.65 545 354.85 547.4 366.4 539.75 379.25 534.25 392.05 528.75 406 525.8 401 513.2 394.5 501.45
M 354.85 547.4
Q 356.35 550.3 357.45 553.15 360.45 552.55 363.45 552.15 373 546.2 384.15 542.25 395.35 538.3 409.7 536.05
M 364.55 565.4
Q 363.5 563.75 362.4 562.2 367.5 558.9 371.7 554.7 372.6 553.7 373.5 552.7 373.7 552.5 373.75 552.35 373.9 552.2 373.8 551.95 373.65 551.55 372.85 551.55 368.1 551.55 363.45 552.15
M 413.55 497.8
L 413.55 497.85
M 406 525.8
Q 407 528.5 408 531.25
M 381.9 479.35
Q 403.1 470.25 431.15 458.1
M 371.7 554.7
Q 389.15 548.05 412.65 545.45
M 338.95 659.05
Q 339.05 668.4 337.15 677.85 335.9 684.1 332.75 694.75 330.45 702.7 327.25 720
M 376.1 694
Q 373.25 705.45 372.75 720
M 394.45 664.8
Q 395.65 677.05 399.75 720"/>
</defs>

<g transform="matrix( 1, 0, 0, 1, 0,0) ">
<use xlink:href="#Layer2_0_FILL"/>
</g>

<g transform="matrix( 1, 0, 0, 1, 0,0) ">
<use xlink:href="#Layer1_0_FILL"/>
</g>

<g transform="matrix( 1, 0, 0, 1, 0,0) ">
<use xlink:href="#Layer0_0_FILL"/>

<use xlink:href="#Layer0_0_1_STROKES"/>
</g>
</svg>
