
<svg xmlns="http://www.w3.org/2000/svg" version="1.1" xmlns:xlink="http://www.w3.org/1999/xlink" preserveAspectRatio="none" x="0px" y="0px" width="1280px" height="720px" viewBox="0 0 1280 720">
<defs>
<radialGradient id="Gradient_1" gradientUnits="userSpaceOnUse" cx="0" cy="0" r="29.649999999999977" fx="0" fy="0" gradientTransform="matrix( 1.0000000000000009, 0, 0, 0.9713322091062403, 756.45,369.5) " spreadMethod="pad">
<stop  offset="34.90196078431372%" stop-color="#BA659C"/>

<stop  offset="100%" stop-color="#61447A"/>
</radialGradient>

<radialGradient id="Gradient_2" gradientUnits="userSpaceOnUse" cx="0" cy="0" r="28.725000000000023" fx="0" fy="0" gradientTransform="matrix( 0.9999999999999992, 0, 0, 0.9712793733681455, 615.85,373.9) " spreadMethod="pad">
<stop  offset="0%" stop-color="#BA659C"/>

<stop  offset="100%" stop-color="#61447A"/>
</radialGradient>

<g id="Layer4_0_FILL">
<path fill="#FFFFFF" stroke="none" d="
M 1280 720
L 1280 0 0 0 0 720 1280 720 Z"/>
</g>

<g id="Layer3_0_FILL">
<path fill="#BCC0C4" stroke="none" d="
M 723.45 562.2
Q 723.15 563.5 723.1 564.85 723.2 564.8 723.3 564.8 724.8 565.35 727.2 565.95 729.6 566.45 731.6 566.6 733.65 566.7 734.95 565.8 736.25 564.9 734.75 562.3 733.2 559.7 728.35 556 728.25 555.85 728.2 555.75 727.05 556.45 726.1 557.35 724.2 559.2 723.45 562.2 Z"/>

<path fill="#DDEAEE" stroke="none" d="
M 715.2 541.9
Q 713.85 541.85 711.35 543.1 708.9 544.4 706 548.35 703.2 552.35 703.25 559.3 704.9 560.25 706.6 561.15 711.5 563.9 716.2 564.8 720 565.5 723.1 564.85 723.15 563.5 723.45 562.2 724.2 559.2 726.1 557.35 727.05 556.45 728.2 555.75 727.4 553.6 725.45 551.1 721.6802734375 546.21875 715.2 541.9 Z"/>

<path fill="#7BB1AC" stroke="none" d="
M 700.1 531.95
Q 698.35 533.1 695.6 534.2 689.1 536.7 679.55 534.05 676.35 533.15 673.2 531.65 676.05 535.45 678.65 540.2 680 542.6 681.25 545.2 683.45 546.9 688.35 550.05 693.25 553.2 697 555.55 700.05 557.45 703.25 559.3 703.2 552.35 706 548.35 708.9 544.4 711.35 543.1 713.85 541.85 715.2 541.9 714.9771484375 541.7486328125 714.75 541.6 707.76328125 536.997265625 705.05 535.35 702.1 533.6 700.1 531.95
M 594.05 484.2
Q 594.2 484.55 594.35 484.95 595.1 487.05 596.25 488.25 597.35 489.4 601.15 492 605 494.6 617.55 503.65
L 630.9 493.8
Q 631.35 493.5 631.85 493.15 629.95 490.95 627.95 488.9
L 627.95 488.85
Q 628.45 488.1 628.2 486.5 627.6 484 623.35 481.15 616.9 477.05 613.85 475.4 608.4 472.35 603.75 470.75 599.6 469.4 597.95 471.3 597.05 472.3 597.25 474.15 597.4 475.1 597.85 476.7 595 478 594.35 480.3 593.7 482.35 594.05 484.2 Z"/>

<path fill="#BEBCC2" stroke="none" d="
M 957.2 570.1
Q 954.15 570.7 947.8 574.25 941.4 577.75 928.9 590 916.35 602.2 903.65 622.4 891 642.65 886.9 658.5 882.75 674.35 881.7 681.35 880.85 687.15 880.65 690.15 880.6 692.25 880.45 694.65 880.3 697.1 880.45 704.7 880.65 712.25 880.7 721.05
L 892.1 723.6 914.2 721.85 1037.15 723.8 1035.8 720.4
Q 1034.05 713.7 1032.9 709.9 1032.75 709.65 1032.7 709.3 1034.75 673.15 1029.5 648.2 1024.2 623.2 1019.1 611.25 1014 599.25 1005.2 590.45 996.35 581.6 983.55 574.7 974.8 570.05 965.65 569.65 960.2 569.45 957.2 570.1
M 576 633
Q 576.2 629.15 576.25 625.1 576.2 607.5 576.4 594.25 568.3 606.65 563.75 619.1 559.05 631.7 557.4 636.2 555.6 640.75 552.25 643.95 548.85 647.15 544.45 651.1 540.05 655.05 535.6 660.3 531.1 665.55 530.55 677.15 530.1 684.6 531.55 690.6 528.95 692.85 526.6 695.4 516 706.85 512.5 723.15
L 651.15 720.85 665.75 722.6 666.7 720.25
Q 666 713 663.9 706.1 663.2 703.8 662.4 701.6 663.55 699.6 664.4 698.15 667.2 693.35 669.25 689.2 747.95 687.65 825.05 689.15 829.05 661.45 840.75 635.45 851.5 611.4 867.2 586.9 867.45 586.45 867.7 586.05 877.85 582.6 887.65 578.35 896.5 574.45 902.1 571.1 909.6 566.45 914.3 561 918.1 556.5 921.1 550.35 921.45 549.5 921.85 548.7 924.4 542.9 927.8 527.95 931.2 512.95 930.15 492.35 929.1 471.65 920.4 453.05 911.65 434.5 894.5 422.8 889.2 419.1 881.75 417.55 871.35 424.05 864.85 429 863.2 430.15 858.15 434.75 853.15 439.35 846.6 447.5 847.75 456.95 850.35 465.05 850.25 465.15 850.15 465.25 849.15 466.15 848.1 467.1 821.8 491.15 801.25 504.6 788.25 527.65 766.35 543.35 780.9 529.65 788.85 512.4 789 512.1 789.1 511.8 788.5 512.1 787.95 512.4 764.6 524.95 756 527.55 749.65 529.45 742.85 530.65 738.6 519.75 732.25 508.5 711.75 521.25 708.8 521.3 705.8 521.35 700.85 518.5 695.8 515.6 694.15 514.45 694.35 516.6 694.4 518.75 698.85 521.3 701.1 523.3 703.85 525.7 703 528.7 702.45 530.35 700.1 531.95 702.1 533.6 705.05 535.35 707.76328125 536.997265625 714.75 541.6 714.9771484375 541.7486328125 715.2 541.9 721.6802734375 546.21875 725.45 551.1 727.4 553.6 728.2 555.75 728.25 555.85 728.35 556 733.2 559.7 734.75 562.3 736.25 564.9 734.95 565.8 733.65 566.7 731.6 566.6 729.6 566.45 727.2 565.95 724.8 565.35 723.3 564.8 723.2 564.8 723.1 564.85 720 565.5 716.2 564.8 711.5 563.9 706.6 561.15 704.9 560.25 703.25 559.3 700.05 557.45 697 555.55 695.75 562.05 694.85 568.05 694.5 570.15 694.15 572.9 694.45 573.7 694.6 574.25 695.1 576.1 694.95 577.45 694.65 579.5 693.05 581 692.45 585.35 691.8 590.7 689.5 610.35 685.9 622.45 685.65 623.25 685.45 624.1 684 628.4 682.45 631.7 676.45 644.3 669.65 648.85 668.7 649.6 666.9 650.65 665.1 651.65 659.8 653.8 659.5 653.9 659.15 654 655.15 660.5 652.95 665.2 649.5 672.4 647.45 679.65 647.4 679.7 646.45 680.35 635.3 688.05 616.85 695.6 610.3 698.3 605.65 699.1 599.25 700.2 594.3 698.4 586.5 695.45 580.65 684.5 575.85 675.6 573.75 668.2 576.6 655.4 576 633 Z"/>

<path fill="#5D875A" stroke="none" d="
M 887.65 578.35
Q 877.85 582.6 867.7 586.05 867.45 586.45 867.2 586.9 851.5 611.4 840.75 635.45 829.05 661.45 825.05 689.15 747.95 687.65 669.25 689.2 667.2 693.35 664.4 698.15 663.55 699.6 662.4 701.6 663.2 703.8 663.9 706.1 666 713 666.7 720.25
L 665.75 722.6 880.7 721.05
Q 880.65 712.25 880.45 704.7 880.3 697.1 880.45 694.65 880.6 692.25 880.65 690.15 880.85 687.15 881.7 681.35 882.75 674.35 886.9 658.5 891 642.65 903.65 622.4 916.35 602.2 928.9 590 941.4 577.75 947.8 574.25 954.15 570.7 957.2 570.1 960.2 569.45 965.65 569.65 965.05 567.45 961.85 565.25 958.55 563 945.85 558.5 933.75 554.15 921.1 550.35 918.1 556.5 914.3 561 909.6 566.45 902.1 571.1 896.5 574.45 887.65 578.35 Z"/>

<path fill="#FBE4CF" stroke="none" d="
M 845.9 440
Q 845.25 429.95 845.65 412.25 836.6 443.75 819.5 468.35 819.35 468.65 819.25 469.05 808.6 493.3 801.25 504.6 821.8 491.15 848.1 467.1 849.15 466.15 850.15 465.25 850.25 465.15 850.35 465.05 847.75 456.95 846.6 447.5 846.1 443.85 845.9 440
M 605.9 288.45
Q 606.4 290.65 607 292.95 607.4 294.65 608 296.55 609.65 302.1 612.2 309.2 613.2 311.85 614.35 314.8 609.05 312.1 603.75 311.4 598.75 310.7 590 313.35 589.65 313.45 589.25 313.55 586.5 310.75 582.25 305.75 581.9 305.4 581.65 305.1 581.15 304.5 580.6 303.9 575.25 297.55 573.45 294.7 571.55 291.85 571 290.55 571.65 292.7 572.5 294.95 572.6 295.35 572.8 295.7 572.9 295.95 573 296.3 573.05 296.45 573.15 296.65 573.2 296.8 573.25 296.95 573.3 297.1 573.45 297.35
L 578 306.15
Q 578.15 306.35 578.3 306.55 578.35 306.7 578.45 306.8
L 578.95 307.6
Q 581.6 311.5 584.85 315 583.85 315.4 582.9 315.75 580.6 316.6 578.2 317.7 575.3 314.75 572.55 311.65
L 572.15 311.2
Q 571.95 311 571.85 310.85 571.6 310.55 571.3 310.2
L 563 299.6
Q 562.7 299.15 562.4 298.75 562.1 298.3 561.75 297.85 558.6 293.4 555.85 288.7 561.4 302.5 568.65 314.15 568.75 314.2 568.85 314.4 570.75 317.4 572.8 320.3 564.9 324.4 555.6 331.15 554.75 330.8 554.05 330.3 547.8 327.8 542.25 324.3 547.95 336.2 552.5 346 552.95 346.25 553.45 346.55
L 561.2 349.85
Q 561.9 350.05 562.6 350.35 562.25 350.25 561.9 350.2 556.9 349.55 554.05 349.1 553.9 349.1 553.8 349.1 553.7 349.05 553.65 349.05 557.1 355.9 559.8 361.85 563 368.85 565.75 375.3 570.65 386.8 574.25 396.5 579.95 412 585.15 429 590.35 445.95 598.8 455.85 607.3 465.75 618.4 472.85 629.4 479.9 641.85 486.25 641.55 486.35 641.3 486.5 641.15 486.55 640.95 486.65 640.9 486.7 640.8 486.75 640.5 486.95 640.15 487.25 635.5 490.3 633.25 492.05 632.5 492.65 631.85 493.15 631.35 493.5 630.9 493.8
L 617.55 503.65 601.75 515.35
Q 595.55 520 592 523.2 591.35 523.75 590.65 524.55 589.7 525.55 588.95 526.5 588.55 526.95 588.25 527.45 587.2 528.8 586.55 530.15 585.25 532.8 584.45 535.2 583.6 537.55 582.95 539.4 581.9 542.35 581.25 545.55 578.85 556.55 577.75 568.2 576.6 579.8 576.4 594.25 576.2 607.5 576.25 625.1 576.2 629.15 576 633 576.6 655.4 573.75 668.2 575.85 675.6 580.65 684.5 586.5 695.45 594.3 698.4 599.25 700.2 605.65 699.1 610.3 698.3 616.85 695.6 635.3 688.05 646.45 680.35 647.4 679.7 647.45 679.65 649.5 672.4 652.95 665.2 655.15 660.5 659.15 654 659.5 653.9 659.8 653.8 665.1 651.65 666.9 650.65 668.7 649.6 669.65 648.85 676.45 644.3 682.45 631.7 684 628.4 685.45 624.1 685.65 623.25 685.9 622.45 689.5 610.35 691.8 590.7 692.45 585.35 693.05 581 694.65 579.5 694.95 577.45 695.1 576.1 694.6 574.25 694.45 573.7 694.15 572.9 694.5 570.15 694.85 568.05 695.75 562.05 697 555.55 693.25 553.2 688.35 550.05 683.45 546.9 681.25 545.2 680 542.6 678.65 540.2 676.05 535.45 673.2 531.65 676.35 533.15 679.55 534.05 689.1 536.7 695.6 534.2 698.35 533.1 700.1 531.95 702.45 530.35 703 528.7 703.85 525.7 701.1 523.3 698.85 521.3 694.4 518.75 694.35 516.6 694.15 514.45 695.8 515.6 700.85 518.5 705.8 521.35 708.8 521.3 711.75 521.25 732.25 508.5 738.6 519.75 742.85 530.65 749.65 529.45 756 527.55 764.6 524.95 787.95 512.4 788.5 512.1 789.1 511.8 789.2 511.75 789.3 511.7 792.65 504.3 796.3 493.7 777.9 511.75 754.55 520.1 772.45 510 784.2 495.9 797.5 479.9 805.6 459.7 808.45 443.1 809.85 416.45 811.2 389.8 809.65 364.95 808.05 340.15 805.7 319.25 810.25 318.9 814.8 318.55 810 316.35 805.2 314.55 805.05 314.5 804.95 314.45 804.7 313.25 804.55 312.1 804.2 309.6 803.8 307.6 803.8 307.55 803.8 307.5 803.05 307.05 802.6 306.75 801.85 306.35 801.7 306.25 798.4 307.05 795.6 307.5 791.05 308.2 787.6 308.1 785.9 308.05 784.3 307.8 781.35 307.1 778.45 306.45 774.15 304.65 765.85 300 760.4 296.95 755.7 293.3 753.2 291.3 750.85 289.1 748.4 286.85 746.25 284.65 742.35 280.7 739.25 276.95 739.6 277.95 740 278.9 740.25 279.6 740.55 280.3 741.35 282.35 742.15 284.3
L 742.9 286.1
Q 742.95 286.3 743.1 286.5 743.15 286.6 743.25 286.85
L 744.15 288.95
Q 744.55 289.7 744.9 290.5 745 290.75 745.15 291 748.3 297.5 752.15 303.2 744.25 302.55 738.5 303.85 737.95 303.95 737.45 304.05 734.1 300.75 731.05 297.2 727.1 292.8 723.55 288.1 719.35 282.5 715.65 276.4 716.7 282.3 718.1 287.7 720.9 298.3 725.1 306.7 725.5 307.55 725.95 308.4 722.65 310.15 720.15 312.3 719.3 312.95 718.45 313.75 710 309.85 702.7 303.9 696.6 298.9 691.8 292.85 696.95 310.25 703.95 327.15 710.7 334.25 717.75 335.6 705.7 337.15 689.45 335.1 672.75 333 656.8 324.35 640.85 315.6 625.2 295.9 625.6 296.7 626.05 297.5 627.9 300.85 629.9 304.55 636.9 317.8 642 324.25 647 330.7 655.15 335.55 626.7 324.45 610.3 296.5 609.5 295.3 608.85 294.05 607.3 291.3 605.9 288.45
M 566.85 334.95
Q 564.1 334.2 561.35 333.3
L 567.95 333.05
Q 567.45 334.05 566.85 334.95
M 575.45 336.7
Q 578.9 334.55 581.05 332.1 581.9 332 582.8 331.95 584.3 333.75 586.7 336 582.4 336.9 575.45 336.7
M 591.45 335.5
Q 592.2 333.3 593.8 330.85 606.2 329.55 618.8 328 626.65 335.5 630 347 629.85 346.95 629.6 346.85 627 345.8 623.5 346.1 620.05 346.35 617.7 347.7 616.25 348.55 615.75 349.45 615.05 347.8 614 346.5 612.05 343.85 610.2 344.25 608.45 344.55 607.85 347.65 607.5 349.15 607.9 353.1
L 607.9 353.15
Q 608.15 354.4 608.2 354.75 609.2 358.75 611.2 361.4 613.2 363.95 615 363.65 616.8 363.3 617.35 360.25 617.95 357.15 616.95 353.1 616.9 352.95 616.9 352.85 617.4 353.15 618.1 353.4 620.7 354.45 624.15 354.2 627.65 353.95 630.05 352.6 630.7 352.2 631.15 351.85 631.2 352.2 631.3 352.6 632.8 361.8 630.15 369.75 629 373.25 627.3 375.85 627.2 375.95 627.15 376.1
L 622.75 380.25
Q 620.95 381.3 618.9 381.8 610.9 383.9 602.85 376.85 595 369.75 591.65 357.6 591.2 356 590.9 354.4 590.85 354.2 590.75 354 590.7 353.7 590.65 353.4 590.6 353.2 590.45 351.95 589.05 343.1 591.45 335.5
M 770.95 321.75
Q 775.4 328.6 776.75 337.9 776.9 338.85 777 339.85 776.7 339.65 776.4 339.5 773.4 338.15 769.2 338.15 765 338.15 761.95 339.55 759 340.9 758.8 342.8 758.2 339.5 756.75 337.25 755.1 334.45 753.3 334.6 751.45 334.7 750.55 337.7 749.65 340.3 750 343.9 749.95 344 750 344.05 750 344.4 750.05 344.8 750.6 348.9 752.2 351.75 753.95 354.45 755.7 354.35 757.6 354.15 758.55 351.25 759.45 348.25 758.95 344.15 759.55 345.5 761.9 346.5 765 347.85 769.2 347.85 773.4 347.85 776.4 346.45 776.85 346.25 777.2 346 776.9 354.2 773.2 361.1 767.95 371.25 758.45 372.6 748.95 373.85 740.95 365.45 733.3 357.4 731.25 345.1 731.25 345.05 731.25 344.95 731.15 344.5 731.1 344.05 729.45 332.65 733.3 323.45 752.1 322.8 770.95 321.75
M 885.4 314.9
Q 885.05 315 884.75 315.15 879.3 317.4 874.25 322.3 870.75 325.65 866.8 331.1 864.45 329.4 862.15 327.15 861.45 326.45 860.7 325.6 860.25 333.8 859.65 341.45 857.9 362.4 854.45 379.2 850.15 399.6 846.2 410.1 850.35 409.05 858.3 411.45 866.2 413.85 869.5 413.25 872.8 412.6 875.65 409.7 878.45 406.7 882.65 402.65 886.75 398.55 894.3 392.5 901.85 386.45 905 383.7 908.15 380.95 910.15 378.7 912.05 376.45 914.75 373 917.4 369.5 918.25 363.35 918.9 357.8 917.75 353.9 917.65 353.4 917.5 353 915.9 348.8 912.5 341.4 909.05 334 906.45 327.3 903.8 320.55 902.4 318.45 901 316.35 898.75 315.05 895.95 313.4 892.25 313.5 888.9 313.55 885.4 314.9 Z"/>

<path fill="#D2DEDB" stroke="none" d="
M 584.85 477.6
Q 585.5 478.6 586.65 479.55 587.15 479.95 587.7 480.35 590.2 482.1 594.05 484.2 593.7 482.35 594.35 480.3 595 478 597.85 476.7 595.7 475.1 593.35 473.7 591 472.3 589.25 472.05 587.55 471.85 586.4 472.35 585.15 472.85 584.55 473.9 584.2 474.75 584.25 475.6 584.25 476.6 584.85 477.6 Z"/>

<path fill="url(#Gradient_1)" stroke="none" d="
M 777.2 346
Q 776.85 346.25 776.4 346.45 773.4 347.85 769.2 347.85 765 347.85 761.9 346.5 759.55 345.5 758.95 344.15 759.45 348.25 758.55 351.25 757.6 354.15 755.7 354.35 753.95 354.45 752.2 351.75 750.6 348.9 750.05 344.8 750 344.4 750 344.05 749.95 344 750 343.9 740.75 343.65 731.25 344.95 731.25 345.05 731.25 345.1 733.3 357.4 740.95 365.45 748.95 373.85 758.45 372.6 767.95 371.25 773.2 361.1 776.9 354.2 777.2 346 Z"/>

<path fill="#1F203F" stroke="none" d="
M 776.75 337.9
Q 775.4 328.6 770.95 321.75 752.1 322.8 733.3 323.45 729.45 332.65 731.1 344.05 731.15 344.5 731.25 344.95 740.75 343.65 750 343.9 749.65 340.3 750.55 337.7 751.45 334.7 753.3 334.6 755.1 334.45 756.75 337.25 758.2 339.5 758.8 342.8 759 340.9 761.95 339.55 765 338.15 769.2 338.15 773.4 338.15 776.4 339.5 776.7 339.65 777 339.85 776.9 338.85 776.75 337.9
M 593.8 330.85
Q 592.2 333.3 591.45 335.5 589.05 343.1 590.45 351.95 590.6 353.2 590.65 353.4 590.7 353.7 590.75 354 599.05 352.2 607.9 353.15
L 607.9 353.1
Q 607.5 349.15 607.85 347.65 608.45 344.55 610.2 344.25 612.05 343.85 614 346.5 615.05 347.8 615.75 349.45 616.25 348.55 617.7 347.7 620.05 346.35 623.5 346.1 627 345.8 629.6 346.85 629.85 346.95 630 347 626.65 335.5 618.8 328 606.2 329.55 593.8 330.85 Z"/>

<path fill="url(#Gradient_2)" stroke="none" d="
M 591.65 357.6
Q 595 369.75 602.85 376.85 610.9 383.9 618.9 381.8 620.95 381.3 622.75 380.25
L 627.15 376.1
Q 627.2 375.95 627.3 375.85 629 373.25 630.15 369.75 632.8 361.8 631.3 352.6 631.2 352.2 631.15 351.85 630.7 352.2 630.05 352.6 627.65 353.95 624.15 354.2 620.7 354.45 618.1 353.4 617.4 353.15 616.9 352.85 616.9 352.95 616.95 353.1 617.95 357.15 617.35 360.25 616.8 363.3 615 363.65 613.2 363.95 611.2 361.4 609.2 358.75 608.2 354.75 608.15 354.4 607.9 353.15 599.05 352.2 590.75 354 590.85 354.2 590.9 354.4 591.2 356 591.65 357.6 Z"/>

<path fill="#66799A" stroke="none" d="
M 581.05 332.1
Q 578.9 334.55 575.45 336.7 582.4 336.9 586.7 336 584.3 333.75 582.8 331.95 581.9 332 581.05 332.1
M 561.35 333.3
Q 564.1 334.2 566.85 334.95 567.45 334.05 567.95 333.05
L 561.35 333.3
M 676.7 -2.1
L 676.7 -1.75
Q 677.5 -0.55 678.3 0.7 682.55 6.65 687.9 11.55 671 15 654.7 20.6 597.95 40 556.2 80.15 514.4 120.25 497.4 176.9 479.95 235.1 496.75 288.8 504.65 314.1 521.15 330.9 522.2 332 522.7 332.45 522.75 340.65 525.5 361.05 528.25 381.35 537.05 410.65 543.05 430.7 553.5 448.7 554.95 456.65 556.15 462 559.5 477.2 565.5 490.45 571.5 503.65 577.2 512.3 582.9 520.95 588.95 526.5 589.7 525.55 590.65 524.55 591.35 523.75 592 523.2 585.55 509.65 582.25 499.7 578.95 489.75 577.6 481.2 590.4 494.65 606.45 505.25 594.7 492.35 586.65 479.55 585.5 478.6 584.85 477.6 584.25 476.6 584.25 475.6 576.15 462.05 569.95 447.3 567.5 431.25 566.5 412.6 565.75 398.8 565.75 375.3 563 368.85 559.8 361.85 557.1 355.9 553.65 349.05 553.7 349.05 553.8 349.1 553.9 349.1 554.05 349.1 556.9 349.55 561.9 350.2 562.25 350.25 562.6 350.35 561.9 350.05 561.2 349.85
L 553.45 346.55
Q 552.95 346.25 552.5 346 547.95 336.2 542.25 324.3 547.8 327.8 554.05 330.3 554.75 330.8 555.6 331.15 564.9 324.4 572.8 320.3 570.75 317.4 568.85 314.4 568.75 314.2 568.65 314.15 561.4 302.5 555.85 288.7 558.6 293.4 561.75 297.85 562.1 298.3 562.4 298.75 562.7 299.15 563 299.6
L 571.3 310.2
Q 571.7 310.65 572.15 311.2
L 572.55 311.65
Q 575.3 314.75 578.2 317.7 580.6 316.6 582.9 315.75 583.85 315.4 584.85 315 581.6 311.5 578.95 307.6
L 578.45 306.8
Q 578.35 306.7 578.3 306.55 578.15 306.35 578 306.15
L 573.45 297.35
Q 573.3 297.1 573.25 296.95 573.2 296.8 573.15 296.65 573.05 296.45 573 296.3 572.9 295.95 572.8 295.7 572.6 295.35 572.5 294.95 571.65 292.7 571 290.55 571.55 291.85 573.45 294.7 575.25 297.55 580.6 303.9 581.15 304.5 581.65 305.1 581.9 305.4 582.25 305.75 586.5 310.75 589.25 313.55 589.65 313.45 590 313.35 598.75 310.7 603.75 311.4 609.05 312.1 614.35 314.8 613.2 311.85 612.2 309.2 609.65 302.1 608 296.55 607.4 294.65 607 292.95 606.4 290.65 605.9 288.45 607.3 291.3 608.85 294.05 609.5 295.3 610.3 296.5 626.7 324.45 655.15 335.55 647 330.7 642 324.25 636.9 317.8 629.9 304.55 627.9 300.85 626.05 297.5 625.6 296.7 625.2 295.9 640.85 315.6 656.8 324.35 672.75 333 689.45 335.1 705.7 337.15 717.75 335.6 710.7 334.25 703.95 327.15 696.95 310.25 691.8 292.85 696.6 298.9 702.7 303.9 710 309.85 718.45 313.75 719.3 312.95 720.15 312.3 722.65 310.15 725.95 308.4 725.5 307.55 725.1 306.7 720.9 298.3 718.1 287.7 716.7 282.3 715.65 276.4 719.35 282.5 723.55 288.1 727.1 292.8 731.05 297.2 734.1 300.75 737.45 304.05 737.95 303.95 738.5 303.85 744.25 302.55 752.15 303.2 748.3 297.5 745.15 291 745 290.75 744.9 290.5 744.55 289.7 744.15 288.95
L 743.25 286.85
Q 743.15 286.6 743.1 286.5 742.95 286.3 742.9 286.1
L 742.15 284.3
Q 741.35 282.35 740.55 280.3 740.25 279.6 740 278.9 739.6 277.95 739.25 276.95 742.35 280.7 746.25 284.65 748.4 286.85 750.85 289.1 753.2 291.3 755.7 293.3 760.4 296.95 765.85 300 774.15 304.65 778.45 306.45 781.35 307.1 784.3 307.8 785.9 308.05 787.6 308.1 791.05 308.2 795.6 307.5 798.4 307.05 801.7 306.25 801.85 306.35 802.6 306.75 803.05 307.05 803.8 307.5 803.8 307.55 803.8 307.6 804.2 309.6 804.55 312.1 804.7 313.25 804.95 314.45 805.05 314.5 805.2 314.55 810 316.35 814.8 318.55 810.25 318.9 805.7 319.25 808.05 340.15 809.65 364.95 811.2 389.8 809.85 416.45 808.45 443.1 805.6 459.7 797.5 479.9 784.2 495.9 772.45 510 754.55 520.1 777.9 511.75 796.3 493.7 792.65 504.3 789.3 511.7 789.2 511.75 789.1 511.8 789 512.1 788.85 512.4 780.9 529.65 766.35 543.35 788.25 527.65 801.25 504.6 808.6 493.3 819.25 469.05 819.35 468.65 819.5 468.35 836.6 443.75 845.65 412.25 845.25 429.95 845.9 440 846.1 443.85 846.6 447.5 853.15 439.35 858.15 434.75 863.2 430.15 864.85 429 871.35 424.05 881.75 417.55 885.1 415.6 892.2 411.8 893.8 411.05 895 410.3 900.9 407.15 906 403.9 911.15 400.65 916.75 396.6 927.1 389.05 934.6 378.7 941.9 368.55 947.7 356.4 947.8 356.15 947.9 355.95 953.65 343.55 961 315.25 968.3 287 967.8 243.6 967.2 200.2 952.65 158.25 947.05 129.5 932.3 107.25 923.1 83.8 906.45 65.75 923.9 60 935.85 51.9 947.8 43.75 952.1 37.9 956.4 31.95 956.1 24.9 955.85 17.9 957.2 10.55 958.5 3.2 960.3 -1.85
L 960.25 -2.1 676.7 -2.1
M 884.75 315.15
Q 885.05 315 885.4 314.9 888.9 313.55 892.25 313.5 895.95 313.4 898.75 315.05 901 316.35 902.4 318.45 903.8 320.55 906.45 327.3 909.05 334 912.5 341.4 915.9 348.8 917.5 353 917.65 353.4 917.75 353.9 918.9 357.8 918.25 363.35 917.4 369.5 914.75 373 912.05 376.45 910.15 378.7 908.15 380.95 905 383.7 901.85 386.45 894.3 392.5 886.75 398.55 882.65 402.65 878.45 406.7 875.65 409.7 872.8 412.6 869.5 413.25 866.2 413.85 858.3 411.45 850.35 409.05 846.2 410.1 850.15 399.6 854.45 379.2 857.9 362.4 859.65 341.45 860.25 333.8 860.7 325.6 861.45 326.45 862.15 327.15 864.45 329.4 866.8 331.1 870.75 325.65 874.25 322.3 879.3 317.4 884.75 315.15
M 860.75 324
Q 860.8 322.9 860.85 321.8 860.9 321.75 860.95 321.8
L 860.75 324 Z"/>
</g>

<g id="Layer2_0_FILL">
<path fill="#466848" stroke="none" d="
M 880.65 690.15
Q 880.5 690.15 880.4 690.15 876.85 696.4 874.25 703.25 870.85 712.05 869.45 721.15
L 880.7 721.05
Q 880.65 712.25 880.45 704.7 880.3 697.1 880.45 694.65 880.6 692.25 880.65 690.15 Z"/>

<path fill="#9B9AA0" stroke="none" d="
M 931.3 683.55
Q 930.55 682.8 929.3 682.65 928.15 682.5 927.1 682.9 926.15 683.2 925.15 683.85 923.95 684.8 923.3 685.3 911.75 695.2 905.3 703.3 897.3 713.3 894.25 723.45
L 914.2 721.85 920.5 721.95
Q 927.9 705.15 931.85 689.05 932.95 685.1 931.3 683.55 Z"/>

<path fill="#EBBBAA" stroke="none" d="
M 681.25 545.2
Q 682.55 548 683.75 551.1 686.1 557.05 689.75 564.65 693.4 572.15 694.15 572.9 694.5 570.15 694.85 568.05 695.75 562.05 697 555.55 693.25 553.2 688.35 550.05 683.45 546.9 681.25 545.2
M 683.85 493.45
Q 681.85 493 680.2 493.75 678.25 494.4 676.95 496.9 675.45 499.5 674.9 503.3 674.75 504.25 675 505.65 687.1 514.25 690.25 516.2 693.3 518.15 694.4 518.75 694.35 516.6 694.15 514.45 693.4 507.75 691 501.35 689.15 496.9 687.1 495.15 685.7 493.85 683.85 493.45
M 618.05 589.65
Q 615.8 591.75 614.4 593.2 610.55 597.1 608.05 600.8 601.65 610.2 602.95 619.4 603.6 623.25 606.3 628.75 610.1 636.4 610.65 637.9 613.8 646.1 612.65 655 611.45 663.9 607.75 669.35 603.95 674.75 601.25 676.4 598.5 678.1 596.9 678.6 595.2 679.15 593.05 678.6 590.85 678.05 585.4 669.2 580 660.35 576.1 646.05 575.7 659.4 573.75 668.2 575.85 675.6 580.65 684.5 586.5 695.45 594.3 698.4 599.25 700.2 605.65 699.1 610.3 698.3 616.85 695.6 635.3 688.05 646.45 680.35 647.4 679.7 647.45 679.65 649.5 672.4 652.95 665.2 655.15 660.5 659.15 654 659.5 653.9 659.8 653.8 665.1 651.65 666.9 650.65 668.7 649.6 669.65 648.85 673.2 646.45 676.6 641.85 679.6 637.7 682.45 631.7 684 628.4 685.45 624.1 685.65 623.25 685.9 622.45 687.05 618.5 688.15 613.75 690.25 603.95 691.8 590.7 692.45 585.35 693.05 581 692.8 581.25 692.45 581.5 690.4 583.1 687.75 583.3 683.65 583.85 678.2 580.6 673.65 577.6 670.55 573.95 670.6 575.55 670.35 581.95 670.1 588.35 670 594.5 669.85 600.6 668.8 601.65 667.7 602.7 666.85 603 666.45 603.15 665.8 603.25 665.05 603.3 664 603.35 661.95 603.35 659.3 601.5 656.65 599.55 654.7 595.35 654.6 595.15 654.45 594.9 654.35 594.7 654.3 594.55 652.5 597.2 652 599.2 651.45 600.95 651.15 604 650.9 607.5 650.65 608.75 650 611.3 648.2 613.05 646.85 614.45 645.35 614.85 644.7 614.95 644 614.95 640.75 614.75 638.3 610.6 634.75 604.2 636.6 593.7 636.8 592.6 637.45 590 637.35 590 637.25 590 634.7 586.95 631.7 584 628.9 586.2 625.35 587.65 624.55 588 623.65 588.3 623.45 588.3 623.3 588.4 623.1 588.45 622.9 588.5 622.75 588.55 622.6 588.6 620.5 589.2 618.05 589.65 Z"/>

<path fill="#A2A1A7" stroke="none" d="
M 716.75 526.65
Q 718.35 527.5 720.05 528.25 729.15 532.25 738.15 531.2 740.7 530.9 742.85 530.65 738.6 519.75 732.25 508.5 731.3 509.05 730.45 509.6 714.55 519.4 710.1 521.05 712.5 523.7 714.6 525.3 715.75 526.1 716.75 526.65 Z"/>

<path fill="#E9BEB0" stroke="none" d="
M 805.6 459.7
Q 808.45 443.1 809.85 416.55 794 442.9 773.6 466.25 753.9 488.9 730.45 509.6 731.3 509.05 732.25 508.5 738.6 519.75 742.85 530.65 749.65 529.45 756 527.55 764.6 524.95 787.95 512.4 788.5 512.1 789.1 511.8 789.2 511.75 789.3 511.7 792.65 504.3 796.3 493.7 777.9 511.75 754.55 520.1 772.45 510 784.2 495.9 797.5 479.9 805.6 459.7
M 845.9 440
Q 845.25 429.95 845.65 412.25 836.6 443.75 819.5 468.35 819.35 468.65 819.25 469.05 808.6 493.3 801.25 504.6 809.05 499.5 817.65 492.9 831.75 482.1 848.1 467.1 849.15 466.15 850.15 465.25 850.25 465.15 850.35 465.05 847.75 456.95 846.6 447.5 846.1 443.85 845.9 440
M 885.4 314.9
Q 885.05 315 884.75 315.15 879.3 317.4 874.25 322.3 870.75 325.65 866.8 331.1 864.45 329.4 862.15 327.15 861.45 326.45 860.7 325.6 860.25 333.8 859.65 341.45 857.9 362.4 854.45 379.2 850.15 399.6 846.2 410.1 850.35 409.05 858.3 411.45 866.2 413.85 869.5 413.25 872.8 412.6 875.65 409.7 878.45 406.7 882.65 402.65 886.75 398.55 894.3 392.5 901.85 386.45 905 383.7 908.15 380.95 910.15 378.7 912.05 376.45 914.75 373 917.4 369.5 918.25 363.35 918.9 357.8 917.75 353.9 917.65 353.4 917.5 353 915.9 348.8 912.5 341.4 909.05 334 906.45 327.3 903.8 320.55 902.4 318.45 901 316.35 898.75 315.05 895.95 313.4 892.25 313.5 888.9 313.55 885.4 314.9
M 883.65 351.15
Q 883.85 350.85 884.15 350.6 887 347.45 891.55 343.8 894.55 347.2 895.85 351.95 897.65 358.5 895.2 364.5 894.2 366.85 893.05 367.65 891.6 369.1 889.45 368.7 888.45 368.4 888 367.7 887.5 366.95 887.5 366.3 887.5 365.5 887.45 363.9 887.4 362.3 887.4 362.1 887.25 359.5 886.85 357.65 886.439453125 355.878125 885.75 354.4 882.1345703125 361.098046875 875.5 364.95 875.5115234375 364.7794921875 875.5 364.6 875.3 362.2 878.15 358.1 880.75 354.35 883.65 351.15 Z"/>

<path fill="#384B62" stroke="none" d="
M 801.55 476.85
Q 803.85 468.9 805.6 459.7 797.5 479.9 784.2 495.9 772.45 510 754.55 520.1 777.9 511.75 796.3 493.7 798.85 486.1 801.55 476.85
M 953.6 163.65
Q 954.05 166.55 954.5 169.5 959 205.2 950.5 234.55
L 944.4 252.65
Q 943.721875 254.515625 943 256.25 942.9671875 256.2609375 942.9 256.25 937.6974609375 268.6357421875 932.05 275 922.25 286.1 912.45 290.35 903.824609375 294.0279296875 898.6 295.1 898.323828125 295.197265625 898.05 295.25 897.8201171875 295.2951171875 897.6 295.3 897.3939453125 295.3693359375 897.2 295.4 890.6609375 296.6390625 884.35 296.65 884.3048828125 296.647265625 884.2 296.65 884.64765625 296.545703125 885.05 296.4 892.4134765625 294.4189453125 900.75 288.75 909.7 282.55 916.8 274.95 917.774609375 274.1306640625 918.7 273.25 923.5833984375 268.52421875 929.2 261.55 927.7779296875 262.10859375 926.15 262.75 915.6 267 908.9 268.9 899.2 271.45 890.6 271.25 880.75 271 873.25 267.05 868.4 264.55 863.95 260.15 863.9 262.55 863.9 264.8 863.75 268.1 863.7 271.25 863.684375 271.6435546875 863.65 272 863.6404296875 272.8748046875 863.6 273.7
L 863.5 276.65
Q 863.4830078125 276.8873046875 863.45 277.1 863.4650390625 277.3298828125 863.45 277.55
L 863.2 282.9
Q 863.213671875 283.2671875 863.2 283.6
L 874.3 293.3
Q 875.2125 293.84375 876.15 294.3 876.821484375 294.6166015625 877.5 294.9
L 880.45 296
Q 881.3189453125 296.2880859375 882.15 296.5 882.807421875 296.7060546875 883.45 296.85 883.526171875 296.8822265625 883.6 296.9 883.35 296.9 883.05 297 882.95 297 882.85 297.05 882.1099609375 297.1828125 881.4 297.3
L 880.1 297.45 879.95 297.5
Q 879.7689453125 297.5298828125 879.55 297.55
L 877.8 297.75
Q 873.140234375 298.2640625 869.4 297.9
L 866.7 297.55
Q 865.375 297.375 864.05 297.1 863.4 297 862.8 296.9 862.55 296.8 862.3 296.8 856.6 295.5 850.8 293 843.65 289.85 835.25 283.3 839.3 292.5 842.85 298.95 845.55 302.25 848.6 305.4 854.6 311.75 861.3 316
L 861.35 316.05
Q 865.3 318.6 869.5 320.3 865.35 321.3 860.95 321.8
L 860.75 324
Q 860.8 322.9 860.85 321.8 859.25 321.95 857.6 322 848.85 322.45 839.3 320.8 821.95 317.7 812.35 312.3 806.7 309.1 803.8 307.6 804.2 309.6 804.55 312.1 804.7 313.25 804.95 314.45 805.05 314.5 805.2 314.55 810 316.35 814.8 318.55 810.25 318.9 805.7 319.25 808.05 340.15 809.65 364.95 810 371 810.25 377.2 815.95 413.75 811.1 451.2 806.75 484.5 794.6 515.1 798.2 510.05 801.25 504.6 808.6 493.3 819.25 469.05 819.35 468.65 819.5 468.35 836.6 443.75 845.65 412.25 845.25 429.95 845.9 440 846.1 443.85 846.6 447.5 853.15 439.35 858.15 434.75 863.2 430.15 864.85 429 867.9 426.75 871.7 424.1 876.15 421.05 881.75 417.55 885.1 415.6 892.2 411.8 893.8 411.05 895 410.3 900.9 407.15 906 403.9 911.15 400.65 916.75 396.6 927.1 389.05 934.6 378.7 941.9 368.55 947.7 356.4 947.8 356.15 947.9 355.95 953.65 343.55 961 315.25 963.15 307.1 964.6 297.6 968.15 274.4 967.8 243.6 967.2 201.8 953.75 161.45 953.6564453125 162.431640625 953.6 163.5 953.6033203125 163.5751953125 953.6 163.65
M 884.75 315.15
Q 885.05 315 885.4 314.9 888.9 313.55 892.25 313.5 895.95 313.4 898.75 315.05 901 316.35 902.4 318.45 903.8 320.55 906.45 327.3 909.05 334 912.5 341.4 915.9 348.8 917.5 353 917.65 353.4 917.75 353.9 918.9 357.8 918.25 363.35 917.4 369.5 914.75 373 912.05 376.45 910.15 378.7 908.15 380.95 905 383.7 901.85 386.45 894.3 392.5 886.75 398.55 882.65 402.65 878.45 406.7 875.65 409.7 872.8 412.6 869.5 413.25 866.2 413.85 858.3 411.45 850.35 409.05 846.2 410.1 850.15 399.6 854.45 379.2 857.9 362.4 859.65 341.45 860.25 333.8 860.7 325.6 861.45 326.45 862.15 327.15 864.45 329.4 866.8 331.1 870.75 325.65 874.25 322.3 879.3 317.4 884.75 315.15 Z"/>

<path fill="#456079" stroke="none" d="
M 739.25 276.95
Q 742.35 280.7 746.25 284.65 748.4 286.85 750.85 289.1 753.2 291.3 755.7 293.3 760.4 296.95 765.85 300 774.15 304.65 778.45 306.45 781.35 307.1 784.3 307.8 785.9 308.05 787.6 308.1 791.05 308.2 795.6 307.5 798.4 307.05 801.7 306.25 792.85 300.9 784.7 292.9 779 287.4 773.7 280.65 771.65 278 769.65 275.25 759.65 261.4 754.55 246 756.25 255 759.1 263.85 762.45 274.3 767.25 284.15 763.4 281.65 759.9 278.7 746.7 267.6 737.15 249.9 732.05 240.5 727.75 228.6 727.75 234.3 728.25 239.75 729.2 249.1 732.95 259.95 736.3 269.5 739.25 276.95
M 691.25 77.8
Q 687.05 66.2 679.3 57.35 682.8 81.7 679.9 106.05 677.05 130.4 673.25 167.35 670.45 199.85 671.35 222.3 672.3 247.85 678.05 269.4 667.2 246.3 661.45 217.2 657.65 198.1 655.55 174.15 654.45 161.6 653.4 140.95 647.95 182.3 648.1 208.95 648.15 221.85 649.4 233.85 650 234.4 650.65 235 650.05 234.6 649.45 234.2 652.2 261.05 660.75 283.15 668.85 304.1 682 318.6 692.7 330.4 705.35 336.25 712 336.3 717.75 335.6 710.7 334.25 703.95 327.15 697.15 310.8 692.2 294.05 691.95 293.45 691.8 292.85 696.6 298.9 702.7 303.9 710 309.85 718.45 313.75 719.3 312.95 720.15 312.3 721.8 310.8 723.85 309.6 724.8 309 725.95 308.4 725.5 307.55 725.1 306.7 720.9 298.4 718.1 287.7 716.7 282.3 715.65 276.4 719.35 282.5 723.55 288.1 727.1 292.8 731.05 297.2 734.1 300.75 737.45 304.05 737.95 303.95 738.5 303.85 744.25 302.55 752.15 303.2 748.4 297.65 745.35 291.35 745.15 291.15 744.95 291 743.25 288.95 741.55 286.75 733.45 276.05 726.1 260.05 715.35 236.65 709.2 212.05 708.55 200.35 707.7 182.9 706.3 153.75 703.45 128.9 700.6 103.95 691.25 77.8
M 856.25 144.5
Q 856.1 143.95 856 143.35 847.65 103.95 829.8 77.15 835.75 104.35 839.15 132.3 840 139.65 840.7 147.05 843.85 179.35 840.95 211.2 840.1 206.4 839.25 201.3 831.25 153.65 818.05 122.5 804.85 91.25 784.4 65.4 764 39.5 735.75 26.6 734.95 28 741.25 31.65 747.45 35.25 755.75 46.65 764.1 58.05 770.4 72.1 775.75 83.9 779.9 99.5 782.5 109.3 786.35 127.85 793.45 160.95 809.05 234.7 815.7 251 820.25 261.55 824.1 270.55 829.9 280.4 830.85 281.95 831.85 283.65 835.85 290.15 840.65 296.2 841.75 297.6 842.85 298.95 839.3 292.5 835.25 283.3 843.65 289.85 850.8 293 856.6 295.5 862.3 296.8 862.55 296.8 862.8 296.9 863.4 297 864.05 297.1 865.375 297.375 866.7 297.55
L 869.4 297.9
Q 873.140234375 298.2640625 877.8 297.75
L 879.55 297.55
Q 879.7689453125 297.5298828125 879.95 297.5
L 880.1 297.45
Q 881.6798828125 297.190234375 883.3 296.85 882.6939453125 296.689453125 882.1 296.5 881.280859375 296.2931640625 880.45 296
L 877.5 294.9
Q 876.821484375 294.6166015625 876.15 294.3 875.2125 293.84375 874.3 293.3
L 863.2 283.6
Q 863.213671875 283.2671875 863.2 282.9
L 863.45 277.55
Q 863.4650390625 277.3298828125 863.45 277.1 863.4830078125 276.8873046875 863.5 276.65
L 863.6 273.7
Q 863.6404296875 272.8748046875 863.65 272 863.684375 271.6435546875 863.7 271.25 863.75 268.1 863.9 264.8 863.9 262.55 863.95 260.15 868.4 264.55 873.25 267.05 880.75 271 890.6 271.25 899.2 271.45 908.9 268.9 915.6 267 926.15 262.75 927.7779296875 262.10859375 929.2 261.55 923.5833984375 268.52421875 918.7 273.25 917.774609375 274.1306640625 916.8 274.95 909.7 282.55 900.75 288.75 892.4134765625 294.4189453125 885.05 296.4 884.64765625 296.545703125 884.2 296.65 884.3048828125 296.647265625 884.35 296.65 890.6609375 296.6390625 897.2 295.4 897.3939453125 295.3693359375 897.6 295.3 897.8201171875 295.2951171875 898.05 295.25 898.323828125 295.197265625 898.6 295.1 903.824609375 294.0279296875 912.45 290.35 922.25 286.1 932.05 275 937.6974609375 268.6357421875 942.9 256.25 943.667578125 254.5251953125 944.4 252.65
L 950.5 234.55
Q 959 205.2 954.5 169.5 954.05 166.55 953.6 163.65 952.9 175.95 949.95 188.25 945.6 205.9 937 221.65
L 943.85 189.1
Q 945.45 181.25 946.1 177.3 947.15 170.7 947.25 165.35 947.3 155.35 944.05 143.25 942 135.6 937.05 122.35 937 122.05 936.95 121.8 935.95 117.95 934.75 114.2 934.3 135.25 928.4 155.55 921.05 181.1 906 202 892.55 220.5 878.35 221.15 871.15 221.55 864 217.5 863.85 209.8 863.45 202.45 870.2 201.7 876.85 198.55 885.15 194.65 891.85 187.65 903 175.95 909.25 155.65 914.3 139.5 915.25 122.25 915.5 118.35 915.5 114.45 915.5 106.8 914.65 99.3 913.75 102.05 912.7 105.3 908.9 117.45 905.65 124.05 900.85 133.85 893.65 140.25 885.4 147.6 875.75 148.7 866.4 149.7 856.25 144.5
M 542.25 324.3
Q 542.05 324.2 538.6 322 537.25 321.1 535.2 319.35 534.45 324.65 534.1 330.05 542.35 340.05 552.5 346 547.95 336.2 542.25 324.3
M 533.75 341.2
Q 533.75 341.9 533.75 342.55 533.95 367.3 540.8 394.95 545.95 415.55 555.55 440.5 559.65 451.1 567.45 469.5 565.7 467.25 564.05 464.95 558.25 457.05 553.5 448.7 554.95 456.65 556.15 462 559.5 477.2 565.5 490.45 571.5 503.65 577.2 512.3 582.9 520.95 588.95 526.5 589.7 525.55 590.65 524.55 591.35 523.75 592 523.2 585.55 509.65 582.25 499.7 578.95 489.75 577.6 481.2 590.4 494.65 606.45 505.25 594.7 492.35 586.65 479.55 585.5 478.6 584.85 477.6 584.25 476.6 584.25 475.6 576.15 462.05 569.95 447.3 567.5 431.25 566.5 412.6 565.8 399.25 565.75 376.75 565.75 376.05 565.75 375.3 563 368.85 559.8 361.85 557.1 355.9 553.65 349.05 543.45 347.4 533.75 341.2
M 529.05 250.25
Q 530.3 271.3 539.1 290.35 547.4 308.25 561 321.25 562.3 322.5 564.9 324.9 569 322.25 572.8 320.3 570.75 317.4 568.85 314.4 568.4 314.7 567.95 315 568.3 314.6 568.65 314.15 561.4 302.5 555.85 288.7 548.4 270.1 544.25 247.45 537.2 209.25 549.95 171.5 538.6 189.6 533.35 209.3 527.8 230.15 529.05 250.25
M 589 234.85
Q 587.8 227.85 587.1 220.6 583.4 185.1 590.9 147.2 571.8 185.2 573.9 230.25 575.7 268.75 592.45 300.65 595.3 306.15 598.65 311.45 601.6 311.05 603.75 311.4 609.05 312.1 614.35 314.8 613.2 311.85 612.2 309.2 609.65 302.1 608 296.55 607.4 294.65 607 292.95 606.4 290.65 605.9 288.45 596.05 268.9 591 245.5 590.95 245.2 590.9 245 589.8 240 589 234.85
M 617.9 191.5
Q 616.75 188.55 615.7 185.45 612.05 174.95 609.75 163.3 604.75 186.5 608.4 211.1 613.15 243.4 631.4 269.15 628.3 261.05 625.95 252.7 625.5 251.2 625.1 249.65 619.8 229.85 618.4 208.5 617.8 200 617.9 191.5
M 960.3 -1.85
L 960.25 -2.1 832.25 -2.1
Q 827.1671875 -0.27578125 821.7 1.3 807.7 5.35 788.55 8.35 818.15 12.25 846.4 24.3 875.55 36.75 898.5 57.85 902.65 61.65 906.45 65.75 923.9 60 935.85 51.9 947.8 43.75 952.1 37.9 956.4 31.95 956.1 24.9 955.85 17.9 957.2 10.55 958.5 3.2 960.3 -1.85
M 701.15 -1.9
L 701.15 -2.1 682.5 -2.1
Q 685.7056640625 2.284765625 689.7 6.2 691.9 8.35 694.3 10.3 704.2 8.45 714.35 7.4 710.3 5.3 707.9 3.7 703.95 1 701.15 -1.9 Z"/>

<path fill="#9E9DA0" stroke="none" d="
M 560.2 643.4
Q 559 642.9 558 642.05 556.65 640.95 555.75 639.55 554.3 642 552.25 643.95 548.85 647.15 544.45 651.1 542.1 653.2 539.7 655.75 539.6 659.45 540.4 663.1 542.15 671.25 547.55 677.55 549.6 668.75 552.3 660.35 556.05 649.2 560.2 643.4 Z"/>

<path fill="#A09FA5" stroke="none" d="
M 959.15 589.1
Q 960.75 590.3 962.15 591.6 965.35 594.55 968.8 598.45 972.25 602.3 978.8 614.95 985.3 627.6 996.95 656.1 994.95 655.35 993.2 654.15 993.1 654.1 993.05 654.05 991.15 652.7 989.5 650.75 986.1 645.95 984.35 643.65 981.5 639.8 975.6 637.95 969.7 636.1 969.7 637.8 971.05 651.9 974.1 662.3 977.1 672.7 981.8 678.05 986.45 683.35 992.25 688.05 998.05 692.75 999.2 693.8 1006.55 700.5 1011.4 709.2 1015.15 716.1 1017 723.5
L 1037.15 723.8 1035.8 720.4
Q 1034.05 713.7 1032.9 709.9 1032.75 709.65 1032.7 709.3 1034.75 673.15 1029.5 648.2 1024.2 623.2 1019.1 611.25 1014 599.25 1005.2 590.45 996.35 581.6 983.55 574.7 974.8 570.05 965.65 569.65 960.2 569.45 957.2 570.1 954.15 570.7 947.8 574.25 942.65 577.05 933.7 585.4 939.95 583.1 947.05 584.15 953.6 585.15 959.15 589.1 Z"/>

<path fill="#A19FA5" stroke="none" d="
M 867.2 586.9
Q 867.45 586.45 867.7 586.05 854.05 590.65 840.55 593.65 828.75 603.1 807.95 615.95 787.1 628.8 760 634.65 732.8 640.45 714.4 636.6 695.9 632.65 685.45 624.1 684 628.4 682.45 631.7 679.6 637.7 676.6 641.85 684.5 649.4 696.45 653.75 713.8 660.05 733.05 657.45 749.3 655.25 767.85 646.85 779.65 641.6 800.3 629.65
L 862.95 593.65
Q 865 590.25 867.2 586.9 Z"/>

<path fill="#486D50" stroke="none" d="
M 867.7 586.05
Q 867.45 586.45 867.2 586.9 865 590.25 862.95 593.65 862.7 594 862.5 594.45 866.9 593.15 876.2 589.75 885.1 586.5 890.1 585.15 907.05 580.45 919.25 583.85 922.65 584.9 924.8 586.9 927.35 589.25 926.9 592.05 927.85 591 928.9 590 931.35 587.5 933.7 585.4 942.65 577.05 947.8 574.25 954.15 570.7 957.2 570.1 960.2 569.45 965.65 569.65 965.05 567.45 961.85 565.25 958.55 563 945.85 558.5 934.15 554.3 922 550.7 921.15 551.35 920.25 552.1 917.6 557.15 914.3 561 909.6 566.45 902.1 571.1 896.5 574.45 887.65 578.35 877.85 582.6 867.7 586.05 Z"/>

<path fill="#82818E" stroke="none" d="
M 877.75 562.35
Q 875.7 563.5 875 564 874.25 564.5 872.75 565.6 871.25 566.65 862.3 575 853.35 583.25 840.55 593.65 854.05 590.65 867.7 586.05 877.85 582.6 887.65 578.35 896.5 574.45 902.1 571.1 909.6 566.45 914.3 561 917.6 557.15 920.25 552.1 914.95 556.15 908.35 559.65 901.75 563.15 896.05 565.5 890.25 567.75 888.25 568.55 886.2 569.4 883.75 570.2 881.35 571 879.95 571.05 878.45 571.1 877.55 570.15 876.6 569.15 877.35 567.65 877.95 566.4 879.3 565.2 882.75 562.05 888.05 557.35 887.35 557.65 886.7 557.95 885.15 558.7 883.5 559.5 883.35 559.6 883.15 559.65 879.75 561.15 877.75 562.35 Z"/>

<path fill="#87848D" stroke="none" d="
M 871.7 424.1
Q 867.9 426.75 864.85 429 863.2 430.15 858.15 434.75 853.15 439.35 846.6 447.5 847.75 456.95 850.35 465.05 856.7 459.2 860.15 454.6 865.65 450.85 868.1 447.95 872.25 442.45 872.7 435.05 873 430 871.7 424.1 Z"/>

<path fill="#A3A2A8" stroke="none" d="
M 930.15 492.35
Q 929.1 471.65 920.4 453.05 911.65 434.5 894.5 422.8 889.2 419.1 881.75 417.55 876.15 421.05 871.7 424.1 873 430 872.7 435.05 872.25 442.45 868.1 447.95 865.65 450.85 860.15 454.6 856.7 459.2 850.35 465.05 850.25 465.15 850.15 465.25 849.15 466.15 848.1 467.1 831.75 482.1 817.65 492.9 822.55 494.75 827.05 499.8 831.5 504.75 833.65 515.55 835.75 526.4 831.2 544.5 819.45 575.4 789.85 596.45 761.15 616.85 726.1 620.85 717.9 621.75 711.6 621.4 703.75 621.05 697.35 618.75 692.2 616.9 688.15 613.75 687.05 618.5 685.9 622.45 685.65 623.25 685.45 624.1 695.9 632.65 714.4 636.6 732.8 640.45 760 634.65 787.1 628.8 807.95 615.95 828.75 603.1 840.55 593.65 853.35 583.25 862.3 575 871.25 566.65 872.75 565.6 874.25 564.5 875 564 875.7 563.5 877.75 562.35 879.75 561.15 883.15 559.65 883.35 559.6 883.5 559.5 884.05 559.2 884.55 558.9 885.6 558.4 886.7 557.95 887.35 557.65 888.05 557.35 882.75 562.05 879.3 565.2 877.95 566.4 877.35 567.65 876.6 569.15 877.55 570.15 878.45 571.1 879.95 571.05 881.35 571 883.75 570.2 886.2 569.4 888.25 568.55 890.25 567.75 896.05 565.5 901.75 563.15 908.35 559.65 914.95 556.15 920.25 552.1 920.65 551.25 921.1 550.35 921.45 549.5 921.85 548.7 924.4 542.9 927.8 527.95 931.2 512.95 930.15 492.35 Z"/>

<path fill="#DC9B95" stroke="none" d="
M 884.15 350.6
Q 883.85 350.85 883.65 351.15 880.75 354.35 878.15 358.1 875.3 362.2 875.5 364.6 875.5115234375 364.7794921875 875.5 364.95 882.1345703125 361.098046875 885.75 354.4 886.439453125 355.878125 886.85 357.65 887.25 359.5 887.4 362.1 887.4 362.3 887.45 363.9 887.5 365.5 887.5 366.3 887.5 366.95 888 367.7 888.45 368.4 889.45 368.7 891.6 369.1 893.05 367.65 894.2 366.85 895.2 364.5 897.65 358.5 895.85 351.95 894.55 347.2 891.55 343.8 887 347.45 884.15 350.6 Z"/>

<path fill="#9B9DA2" stroke="none" d="
M 573.75 668.2
Q 573.65 667.9 573.6 667.6 569.75 694.3 569.6 722.45
L 651.15 720.85 665.75 722.6 666.7 720.25
Q 666 713 663.9 706.1 663.2 703.8 662.4 701.6 663.55 699.6 664.4 698.15 667.2 693.35 669.25 689.2 670.85 686 671.9 683.25 675.15 674.85 675.3 667.3 675.55 658.6 671.4 651.2 670.7 649.95 669.65 648.85 668.7 649.6 666.9 650.65 665.1 651.65 659.8 653.8 659.5 653.9 659.15 654 655.15 660.5 652.95 665.2 649.5 672.4 647.45 679.65 647.4 679.7 646.45 680.35 635.3 688.05 616.85 695.6 610.3 698.3 605.65 699.1 599.25 700.2 594.3 698.4 586.5 695.45 580.65 684.5 575.85 675.6 573.75 668.2 Z"/>

<path fill="#A09B9A" stroke="none" d="
M 573.3 638.4
Q 572.15 639.3 571.3 640.5 569.75 643 569.75 645.45 569.75 645.8 569.8 646.2 569.75 646.25 569.8 646.35 569.85 647.85 570 649.35 570.75 657.7 573.6 667.6 573.65 667.9 573.75 668.2 575.7 659.4 576.1 646.05 574.6 642.25 573.3 638.4 Z"/>

<path fill="#E4BFB2" stroke="none" d="
M 643.9 503.3
Q 639.05 503.2 632 506.95 620.8 512.9 611.55 520.75 617.85 518.75 622.8 517.05 635.55 512.55 640.1 511.2 644.6 509.9 647.6 511.15 650.65 512.4 653.45 515.35 656.25 518.3 660.75 522.7 666.85 528.5 673.2 531.65 676.35 533.15 679.55 534.05 689.1 536.7 695.6 534.2 697.6 533.4 699.05 532.65 697.75 531.15 695.95 530.25 695.6 530.05 695.2 529.9 692.9 529.5 690.6 528.65 689.75 528.45 688.85 528.3 683.3 527.55 682.9 527.45 673.1 525.35 662.9 515.5 656.35 509.1 654.2 507.5 648.9 503.45 643.9 503.3 Z"/>
</g>

<g id="Layer1_0_FILL">
<path fill="#000000" stroke="none" d="
M 805.2 314.55
Q 805.05 314.5 804.95 314.45
L 804.9 314.45
Q 804.85 314.4 804.75 314.4 805.25 316.8 805.5 319.3 805.6 319.25 805.7 319.25 810.25 318.9 814.8 318.55 810 316.35 805.2 314.55
M 719.75 330.7
Q 719.75 328.1 719.95 325.5 716.15 328.7 713.2 331.8 716.75 331.45 719.75 330.7
M 723.85 309.6
Q 722.65 312.55 721.75 315.8 720.7 319.45 720.2 323.05
L 722.85 323.05
Q 721.35 324.25 719.95 325.5 719.75 328.1 719.75 330.7 727.7 328.6 731.35 323.5 732.3 323.45 733.3 323.45 752.1 322.8 770.95 321.75 787.75 320.75 804.6 319.35 805 319.3 805.5 319.3 805.25 316.8 804.75 314.4 804.65 314.35 804.6 314.35 804.5 314.3 804.45 314.2 804 314.05 803.95 314.05 794.1 310.35 784.3 307.8 781.35 307.1 778.45 306.45 777.75 306.3 777.05 306.2 770.7 304.85 764.35 304.05 757.75 303.1 752.15 303.2 744.25 302.55 738.5 303.85 737.95 303.95 737.45 304.05 736.8 304.2 736.15 304.4 730.45 306.05 725.95 308.4 724.8 309 723.85 309.6
M 723.85 309.6
Q 721.8 310.8 720.15 312.3 719.3 312.95 718.45 313.75 713.65 318.1 709.95 323.05
L 720.2 323.05
Q 720.7 319.45 721.75 315.8 722.65 312.55 723.85 309.6
M 616.85 352.75
Q 616.75 352.75 616.7 352.75 616.8 352.8 616.9 352.85 616.85 352.8 616.85 352.75
M 628.75 326.5
Q 628.8 326.6 628.9 326.75
L 628.95 326.75
Q 628.85 326.6 628.75 326.5
M 616.45 315.95
Q 615.35 315.35 614.35 314.8 609.05 312.1 603.75 311.4 598.75 310.7 590 313.35 589.65 313.45 589.25 313.55 587.15 314.15 584.85 315 583.85 315.4 582.9 315.75 580.6 316.6 578.2 317.7 575.6 318.85 572.8 320.3 577.75 326.15 582.8 331.95 587.9 331.45 593.15 330.9 593.45 330.85 593.8 330.85 606.2 329.55 618.8 328 618.9 328 619.05 328 623.95 327.4 628.9 326.75 628.8 326.6 628.75 326.5 622.7 319.5 616.45 315.95
M 560.45 341
Q 560.5 341.6 560.55 342.25 565.55 341.5 570.3 339.35 573.15 338.05 575.45 336.7 571.1 336.05 566.85 334.95 564.2 338.8 560.45 341
M 560.55 342.25
Q 560.5 341.6 560.45 341 558.85 341.95 557 342.55 558.8 342.45 560.55 342.25
M 552.55 333.5
Q 552.4 333.55 552.3 333.65
L 552.5 333.65 561.35 333.3 567.95 333.05
Q 567.45 334.05 566.85 334.95 571.1 336.05 575.45 336.7 578.9 334.55 581.05 332.1 581.9 332 582.8 331.95 577.75 326.15 572.8 320.3 567.75 322.95 562.2 326.6 558.95 328.7 555.6 331.15 554.1 332.25 552.55 333.5 Z"/>

<path fill="#FFFFFF" stroke="none" d="
M 719.75 330.7
Q 719.9 341.3 724.8 351.15 733.2 367.5 750.15 371.9 767.1 376.3 782.7 366.25 786.75 363.55 790.15 360.35 789.95 360.1 789.8 359.9 789.95 360.1 790.15 360.35 793.95 356.6 796.95 352.15 796.85 352 796.7 351.85 796.85 352 796.95 352.15 797 352 797.1 351.9 797.15 351.85 797.15 351.8 801.35 345.25 803.6 337.1 806.15 327.9 805.5 319.3 805 319.3 804.6 319.35 787.75 320.75 770.95 321.75 775.4 328.6 776.75 337.9 776.9 338.85 777 339.85 779.45 341.15 779.45 343 779.45 344.75 777.2 346 776.9 354.2 773.2 361.1 767.95 371.25 758.45 372.6 748.95 373.85 740.95 365.45 733.3 357.4 731.25 345.1 731.25 345.05 731.25 344.95 731.15 344.5 731.1 344.05 729.45 332.65 733.3 323.45 732.3 323.45 731.35 323.5 727.7 328.6 719.75 330.7
M 619.05 328
Q 618.9 328 618.8 328 626.65 335.5 630 347 632.2 348 632.3 349.55 632.35 350.75 631.15 351.85 631.2 352.2 631.3 352.6 632.8 361.8 630.15 369.75 629 373.25 627.3 375.85 631.7 370.4 633.9 362.6 638.35 347 630.9 330.8 629.95 328.7 628.9 326.75 623.95 327.4 619.05 328
M 561.85 350.05
Q 562.25 350.2 562.6 350.35 562.25 350.25 561.9 350.2 563.05 354.7 565.1 359.2 569.7 369.15 577.05 375.8 577.1 375.85 577.2 375.9 577.5 375.6 577.8 375.3 577.5 375.6 577.2 375.9 579.8 378.25 582.85 380.15 583 379.9 583.2 379.7 583 379.9 582.85 380.15
L 582.9 380.2
Q 585.05 381.55 587.35 382.7 602.35 390.05 615.95 384.15 619.7 382.55 622.75 380.25 620.95 381.3 618.9 381.8 610.9 383.9 602.85 376.85 595 369.75 591.65 357.6 591.2 356 590.9 354.4 590.85 354.2 590.75 354 590.7 353.7 590.65 353.4 590.6 353.2 590.45 351.95 589.05 343.1 591.45 335.5 592.2 333.3 593.8 330.85 593.45 330.85 593.15 330.9 587.9 331.45 582.8 331.95 584.3 333.75 586.7 336 582.4 336.9 575.45 336.7 573.15 338.05 570.3 339.35 565.55 341.5 560.55 342.25 560.85 346.15 561.85 350.05 Z"/>
</g>

<g id="Layer0_0_FILL">
<path fill="#000000" stroke="none" d="
M 615.75 349.45
Q 615.05 347.8 614 346.5 612.05 343.85 610.2 344.25 608.45 344.55 607.85 347.65 607.5 349.15 607.9 353.1
L 607.9 353.15
Q 608.15 354.4 608.2 354.75 609.2 358.75 611.2 361.4 613.2 363.95 615 363.65 616.8 363.3 617.35 360.25 617.95 357.15 616.95 353.1 616.9 352.95 616.9 352.85 616.8 352.8 616.7 352.75 616.75 352.75 616.85 352.75 616.45 350.9 615.75 349.45
M 753.3 334.6
Q 751.45 334.7 750.55 337.7 749.65 340.3 750 343.9 749.95 344 750 344.05 750 344.4 750.05 344.8 750.6 348.9 752.2 351.75 753.95 354.45 755.7 354.35 757.6 354.15 758.55 351.25 759.45 348.25 758.95 344.15 758.75 343.6 758.75 343.05 758.75 342.95 758.8 342.8 758.2 339.5 756.75 337.25 755.1 334.45 753.3 334.6 Z"/>

<path fill="#FFFFFF" stroke="none" d="
M 630.05 352.6
Q 630.7 352.2 631.15 351.85 632.35 350.75 632.3 349.55 632.2 348 630 347 629.85 346.95 629.6 346.85 627 345.8 623.5 346.1 620.05 346.35 617.7 347.7 616.25 348.55 615.75 349.45 616.45 350.9 616.85 352.75 616.85 352.8 616.9 352.85 617.4 353.15 618.1 353.4 620.7 354.45 624.15 354.2 627.65 353.95 630.05 352.6
M 777.2 346
Q 779.45 344.75 779.45 343 779.45 341.15 777 339.85 776.7 339.65 776.4 339.5 773.4 338.15 769.2 338.15 765 338.15 761.95 339.55 759 340.9 758.8 342.8 758.85 343.45 758.95 344.15 759.55 345.5 761.9 346.5 765 347.85 769.2 347.85 773.4 347.85 776.4 346.45 776.85 346.25 777.2 346 Z"/>
</g>

<path id="Layer1_0_1_STROKES" stroke="#000000" stroke-width="1" stroke-linejoin="round" stroke-linecap="round" fill="none" d="
M 676.7 -2.1
L 676.7 -1.75
Q 677.5 -0.55 678.3 0.7 682.55 6.65 687.9 11.55 700.95 8.8 714.35 7.4 710.3 5.3 707.9 3.7 703.95 1 701.15 -1.9
M 960.25 -2.1
L 960.3 -1.85
Q 958.5 3.2 957.2 10.55 955.85 17.9 956.1 24.9 956.4 31.95 952.1 37.9 947.8 43.75 935.85 51.9 923.9 60 906.45 65.75 923.1 83.8 932.3 107.25 947.05 129.5 952.65 158.25 967.2 200.2 967.8 243.6 968.3 287 961 315.25 953.65 343.55 947.9 355.95 947.8 356.15 947.7 356.4 941.9 368.55 934.6 378.7 927.1 389.05 916.75 396.6 911.15 400.65 906 403.9 900.9 407.15 895 410.3 893.8 411.05 892.2 411.8 885.1 415.6 881.75 417.55 889.2 419.1 894.5 422.8 911.65 434.5 920.4 453.05 929.1 471.65 930.15 492.35 931.2 512.95 927.8 527.95 924.4 542.9 921.85 548.7 921.45 549.5 921.1 550.35 933.75 554.15 945.85 558.5 958.55 563 961.85 565.25 965.05 567.45 965.65 569.65 974.8 570.05 983.55 574.7 996.35 581.6 1005.2 590.45 1014 599.25 1019.1 611.25 1024.2 623.2 1029.5 648.2 1034.75 673.15 1032.7 709.3 1032.75 709.65 1032.9 709.9 1034.05 713.7 1035.8 720.4
L 1037.15 723.8 914.2 721.85 892.1 723.6 880.7 721.05 665.75 722.6 651.15 720.85 548.8 722.8 512.5 723.15
Q 516 706.85 526.6 695.4 528.95 692.85 531.55 690.6 530.1 684.6 530.55 677.15 531.1 665.55 535.6 660.3 540.05 655.05 544.45 651.1 548.85 647.15 552.25 643.95 555.6 640.75 557.4 636.2 559.05 631.7 563.75 619.1 568.3 606.65 576.4 594.25 576.6 579.8 577.75 568.2 578.85 556.55 581.25 545.55 581.9 542.35 582.95 539.4 583.6 537.55 584.45 535.2 585.25 532.8 586.55 530.15 587.2 528.8 588.25 527.45 588.55 526.95 588.95 526.5 582.9 520.95 577.2 512.3 571.5 503.65 565.5 490.45 559.5 477.2 556.15 462 554.95 456.65 553.5 448.7 543.05 430.7 537.05 410.65 528.25 381.35 525.5 361.05 522.75 340.65 522.7 332.45 522.2 332 521.15 330.9 504.65 314.1 496.75 288.8 479.95 235.1 497.4 176.9 514.4 120.25 556.2 80.15 597.95 40 654.7 20.6 671 15 687.9 11.55
M 624.75 60.1
Q 624.6 60.35 623.5 61.9 622.45 63.45 619.6 68.2 616.75 73 615.4 75.75 614.05 78.5 612.65 82.2 604.35 118.4 606.65 142.1 608.9 165.75 615.7 185.45 622.45 205.15 631.7 217.05 641 228.95 650.65 235 637.55 223.2 629.25 205.15 620.85 187 617.5 162.3 614.15 137.55 614.4 114.45 614.5 96.95 618.8 80.1
M 612.65 82.2
Q 599.85 109.75 594 133.2 582.7 178.55 587.1 220.6 587.8 227.85 589 234.85 591.95 234.15 595.1 233.85 600.55 233.35 603.75 234.75 605.5 235.7 607.2 237.65 608.15 238.75 609.95 241.35 611.3 243.15 612.65 244.95 612.75 245.1 612.85 245.3 616.65 250.6 619.7 255.6
M 579.6 237.75
Q 582.5 236.5 585.6 235.65 587.25 235.2 589 234.85 589.8 240 590.9 245 590.95 245.2 591 245.5 593.55 245.2 597.85 244.9 602.15 244.55 612.85 245.3
M 585.2 246.6
Q 588.1 245.85 589.55 245.7 590.95 245.5 591 245.5 596.05 268.9 605.9 288.45 607.3 291.3 608.85 294.05 609.5 295.3 610.3 296.5 626.7 324.45 655.15 335.55 647 330.7 642 324.25 636.9 317.8 629.9 304.55 627.9 300.85 626.05 297.5 625.6 296.7 625.2 295.9 621.1 288.35 617.85 282.8 612.85 274.25 610.2 266.05
M 567.45 274.1
Q 567.65 276.5 568.1 278.95 569 284.5 571 290.55 571.55 291.85 573.45 294.7 575.25 297.55 580.6 303.9 581.15 304.5 581.65 305.1 581.9 305.4 582.25 305.75 583.5 305.05 584.85 304.3 585.25 304.1 585.65 303.9 593.15 299.95 598.7 298.25 600.15 297.8 603.35 297.6
M 571 290.55
Q 571.65 292.7 572.5 294.95 572.6 295.35 572.8 295.7 575 301.45 578.3 306.55 578.6 307.1 578.95 307.6 580.5 306.65 582.25 305.75 586.5 310.75 589.25 313.55 589.65 313.45 590 313.35 598.75 310.7 603.75 311.4 609.05 312.1 614.35 314.8 613.2 311.85 612.2 309.2 609.65 302.1 608 296.55 607.4 294.65 607 292.95 606.4 290.65 605.9 288.45
M 500.6 267.6
Q 503.9 278.7 509.9 289.2 515.2 298.5 520.65 305.2 523.6 308.75 526.6 311.65 535.1 319.75 538.6 322 542.05 324.2 542.25 324.3 547.8 327.8 554.05 330.3 558.1 323.25 565.7 316.85 566.8 315.95 567.95 315 568.3 314.6 568.65 314.15 561.4 302.5 555.85 288.7 548.4 270.1 544.25 247.45 537.2 209.25 549.95 171.5
M 552.5 333.65
L 561.35 333.3 567.95 333.05
Q 567.45 334.05 566.85 334.95 571.1 336.05 575.45 336.7 578.9 334.55 581.05 332.1 581.9 332 582.8 331.95 577.75 326.15 572.8 320.3 567.75 322.95 562.2 326.6 558.95 328.7 555.6 331.15 554.1 332.25 552.55 333.5 553.1 331.8 554.05 330.3 554.75 330.8 555.6 331.15
M 560.55 342.25
Q 560.5 341.6 560.45 341 558.85 341.95 557 342.55 558.8 342.45 560.55 342.25 565.55 341.5 570.3 339.35 573.15 338.05 575.45 336.7 582.4 336.9 586.7 336 584.3 333.75 582.8 331.95 587.9 331.45 593.15 330.9 593.45 330.85 593.8 330.85 606.2 329.55 618.8 328 618.9 328 619.05 328 623.95 327.4 628.9 326.75 628.8 326.6 628.75 326.5 622.7 319.5 616.45 315.95 615.35 315.35 614.35 314.8
M 560.45 341
Q 564.2 338.8 566.85 334.95 564.1 334.2 561.35 333.3
M 520.65 305.2
Q 524.75 318.45 533.35 329.15 541.95 339.8 552.5 346 547.95 336.2 542.25 324.3
M 522.7 332.45
Q 537.5 346.45 553.65 349.05 556.65 349.5 561.9 350.2 561.85 350.15 561.85 350.05 556 348.05 552.5 346
M 561.85 350.05
Q 562.25 350.2 562.6 350.35 562.25 350.25 561.9 350.2
M 577.8 375.3
Q 577.5 375.6 577.2 375.9
M 553.65 349.05
Q 557.1 355.9 559.8 361.85 563 368.85 565.75 375.3 570.65 386.8 574.25 396.5 579.95 412 585.15 429 590.35 445.95 598.8 455.85 607.3 465.75 618.4 472.85 629.4 479.9 641.85 486.25
L 641.9 486.2
Q 642.25 486 642.7 485.8 644.8 484.85 646.4 484.95 647.8 485.05 649.45 485.85 650.15 486.25 652.1 487.55 653.95 488.9 657.1 491.35 660.3 493.75 673.05 504.2 673.85 504.8 675 505.65 674.75 504.25 674.9 503.3 675.45 499.5 676.95 496.9 678.25 494.4 680.2 493.75 681.85 493 683.85 493.45 685.7 493.85 687.1 495.15 689.15 496.9 691 501.35 693.4 507.75 694.15 514.45 695.8 515.6 700.85 518.5 705.8 521.35 708.8 521.3 711.75 521.25 732.25 508.5 732.6 508.3 732.95 508.05 754.1 494.85 769.05 484.8 784.05 474.85 787 472.6 789.95 470.3 790.8 469.7 791.55 469.1 791.9 468.65
M 565.75 375.3
Q 565.75 376.05 565.75 376.75 565.8 399.25 566.5 412.6 567.5 431.25 569.95 447.3 576.15 462.05 584.25 475.6 584.2 474.75 584.55 473.9 585.15 472.85 586.4 472.35 587.55 471.85 589.25 472.05 591 472.3 593.35 473.7 595.7 475.1 597.85 476.7 597.4 475.1 597.25 474.15 597.05 472.3 597.95 471.3 599.6 469.4 603.75 470.75 608.4 472.35 613.85 475.4 616.9 477.05 623.35 481.15 627.6 484 628.2 486.5 628.45 488.1 627.95 488.85
L 627.95 488.9
Q 629.95 490.95 631.85 493.15 632.5 492.65 633.25 492.05 635.5 490.3 640.15 487.25 640.415234375 487.02265625 640.65 486.85 640.72734375 486.7984375 640.8 486.75 640.9 486.7 640.95 486.65 641.15 486.55 641.3 486.5 641.55 486.35 641.85 486.25
M 628.9 326.75
L 628.95 326.75
Q 628.85 326.6 628.75 326.5
M 627.3 375.85
Q 625.35 378.6 622.75 380.25
M 582.85 380.15
Q 582.45 380.45 582.05 380.7 581.95 380.8 581.8 380.9
M 572.8 320.3
Q 570.75 317.4 568.85 314.4 568.4 314.7 567.95 315
M 568.65 314.15
Q 568.75 314.2 568.85 314.4 570.55 313 572.55 311.65 572.25 311.25 571.85 310.85 566.5 304.65 561.75 297.85 558.6 293.4 555.85 288.7
M 589.25 313.55
Q 587.15 314.15 584.85 315 583.85 315.4 582.9 315.75 580.6 316.6 578.2 317.7 575.6 318.85 572.8 320.3
M 584.85 315
Q 581.6 311.5 578.95 307.6 575.55 309.65 572.55 311.65 575.3 314.75 578.2 317.7
M 622.75 380.25
Q 620.95 381.3 618.9 381.8 610.9 383.9 602.85 376.85 595 369.75 591.65 357.6 591.2 356 590.9 354.4 590.85 354.2 590.75 354 590.7 353.7 590.65 353.4 590.6 353.2 590.45 351.95 589.05 343.1 591.45 335.5 592.2 333.3 593.8 330.85
M 583.2 379.7
Q 583 379.9 582.85 380.15
M 577.2 375.9
Q 577.1 376 577.05 376.05 576.7 376.3 576.4 376.5
M 631.15 351.85
Q 631.2 352.2 631.3 352.6 632.8 361.8 630.15 369.75 629 373.25 627.3 375.85
M 645.2 383.55
Q 642.95 387.5 640 391.3
M 618.8 328
Q 626.65 335.5 630 347
M 553.5 448.7
Q 558.25 457.05 564.05 464.95 570.25 473.5 577.6 481.2 590.4 494.65 606.45 505.25 594.7 492.35 586.65 479.55 585.5 478.6 584.85 477.6 584.25 476.6 584.25 475.6
M 597.85 476.7
Q 595 478 594.35 480.3 593.7 482.35 594.05 484.2 594.2 484.55 594.35 484.95 595.1 487.05 596.25 488.25 597.35 489.4 601.15 492 605 494.6 617.55 503.65
L 630.9 493.8
Q 631.35 493.5 631.85 493.15
M 594.05 484.2
Q 590.2 482.1 587.7 480.35 587.15 479.95 586.65 479.55
M 627.95 488.9
Q 626.85 490.6 623.9 490.6 621.35 490.45 617.2 487.7 613 485 609.85 483.3 608.05 482.3 605.2 480.7
M 553.1 378.35
Q 555.9 411.9 568.35 443.35 569.15 445.35 569.95 447.3
M 588.25 527.45
Q 588.9 527.2 589.6 527.05 591.65 526.5 593.65 525.95 611.65 521 622.8 517.05 635.55 512.55 640.1 511.2 644.6 509.9 647.6 511.15 650.65 512.4 653.45 515.35 656.25 518.3 660.75 522.7 666.85 528.5 673.2 531.65 676.35 533.15 679.55 534.05 689.1 536.7 695.6 534.2 698.35 533.1 700.1 531.95 702.45 530.35 703 528.7 703.85 525.7 701.1 523.3 698.85 521.3 694.4 518.75 693.3 518.15 690.25 516.2 687.1 514.25 675 505.65
M 664.05 588.3
Q 663.8 588.95 663.65 589.55 663.45 590.45 663.35 591.35 663.3 591.7 663.3 592.15 663 595.55 664.4 599.65 664.9 601.1 665.8 603.25 666.45 603.15 666.85 603 667.7 602.7 668.8 601.65 669.85 600.6 670 594.5 670.1 588.35 670.35 581.95 670.6 575.55 670.55 573.95 670.6 569.65 670.5 565.9 670.4 562.05 668.2 559.4 665.9 556.65 659.3 552.2 652.65 547.75 649.3 544.75 645.95 541.7 643.55 540.25 641.25 538.75 639.4 537.95 636.8 536.85 633.2 537.2 631 537.4 626.85 538.45 618.65 540.7 592.4 547.65
M 588.95 526.5
Q 589.7 525.55 590.65 524.55 591.35 523.75 592 523.2 585.55 509.65 582.25 499.7 578.95 489.75 577.6 481.2
M 592 523.2
Q 595.55 520 601.75 515.35
L 617.55 503.65
M 647.6 600.65
Q 647.35 601.2 647.05 601.75 645.7 604.6 645.25 607.2 644.55 611.35 645.35 614.85 646.85 614.45 648.2 613.05 650 611.3 650.65 608.75 650.9 607.5 651.15 604 651.45 600.95 652 599.2 652.5 597.2 654.3 594.55 654.3 594.45 654.35 594.4 655.4 592.85 657.5 589.75 661.45 583.75 659.75 580.95 658.05 578.1 655.7 576 653.4 573.8 652 572.35 650.6 570.85 645.35 565.6 640.05 560.35 637.25 558.75 637.15 558.7 637 558.65 636.95 558.6 636.85 558.55 636.5 558.4 636.1 558.3 635.95 558.2 635.8 558.2 635.6 558.1 635.4 558.1
M 609.1 610
Q 615 605.2 619.2 599.2 623.5 593.2 622.9 588.5 622.75 588.55 622.6 588.6 619.5 589.5 615.85 590.05 615 590.15 614 590.3 612.9 590.4 611.65 590.5
M 645.35 614.85
Q 644.7 614.95 644 614.95 640.75 614.75 638.3 610.6 634.75 604.2 636.6 593.7 636.8 592.6 637.45 590 637.35 590 637.25 590 634.7 586.95 631.7 584 628.9 586.2 625.35 587.65 624.55 588 623.65 588.3 623.45 588.3 623.3 588.4 623.1 588.45 622.9 588.5
M 635.45 580.3
Q 634.8 581.05 634.1 581.85 633.85 582.1 633.6 582.3 633 582.9 632.35 583.5 632.15 583.65 631.9 583.85 631.8 583.9 631.7 584
M 642.95 590.7
Q 642.8 590.65 642.65 590.6 641.95 590.35 641.3 590.3 640.65 590.15 640 590.1 638.6 589.85 637.45 590
M 628 559.35
Q 623.85 560.75 615.95 563.5 607.3 566.4 593.35 572.3
M 625.45 610.4
Q 627.55 619.7 628.6 630.5 629.2 637 629.75 648.3
M 569.75 645.45
Q 569.75 645.9 569.8 646.35 569.85 647.85 570 649.35 570.8 657.95 573.75 668.2 576.6 655.4 576 633 571.45 633.45 567.4 636.2 563.4 638.95 560.4 643.05 556.15 648.8 552.3 660.35 549.05 670.3 546.8 680.75 545.3 687.85 544.15 695.15 544.05 695.7 544 696.35
M 576.45 632.95
Q 576.25 632.95 576 633 576.2 629.15 576.25 625.1 576.2 607.5 576.4 594.25 576.55 593.95 576.7 593.7
M 663.35 661.95
Q 663.45 663.85 662.75 665.7 662.2 667.1 661.1 668.45 657.95 672.3 647.45 679.65 647.4 679.7 646.45 680.35 635.3 688.05 616.85 695.6 610.3 698.3 605.65 699.1 599.25 700.2 594.3 698.4 586.5 695.45 580.65 684.5 575.85 675.6 573.75 668.2
M 638.2 666.9
Q 638.8 666.2 639.4 665.45 644.45 659.4 649.5 657.7 654.2 656 659.15 654 659.5 653.9 659.8 653.8 665.1 651.65 666.9 650.65 668.7 649.6 669.65 648.85 676.45 644.3 682.45 631.7 684 628.4 685.45 624.1 685.65 623.25 685.9 622.45 689.5 610.35 691.8 590.7 692.45 585.35 693.05 581 692.8 581.25 692.45 581.5 690.4 583.1 687.75 583.3 683.65 583.85 678.2 580.6 673.65 577.6 670.55 573.95
M 546.8 680.75
Q 538.45 684.55 531.55 690.6
M 545.25 712.3
Q 545.3 712.85 545.4 713.35 546.2 717.25 546.95 719.35 547.05 719.65 547.25 719.95
L 548.8 722.8
M 861.5 26.85
Q 862.65 27.1 863.75 27.3 878.75 29.95 894.15 29.8 910.9 29.65 927.15 26.15 927.85 25.9 928.6 25.75 937.35 23.75 942.9 20.95 948 18.3 951.15 14.7
M 927.15 26.15
Q 924.55 31.65 920.05 36.25 915.5 40.8 910.9 43.9 906.3 46.95 898.05 51.25
M 786.4 8.05
Q 817.15 11.8 846.4 24.3 875.55 36.75 898.5 57.85 902.65 61.65 906.45 65.75
M 848.6 9.55
Q 853.7 9.7 861.45 7.85 869.1 6.05 876.75 3.05 884.1779296875 0.0689453125 887.35 -2.1
M 862.5 188.3
Q 868.05 186.85 872.4 184.9 886.5 178.55 898.35 162.6 898.6 162.2 901.95 157.6 894.95 165.05 891.15 167.2 885.9 170.35 880.4 171.65 874.3 173.05 868.9 172.05 864.7 171.4 860.35 169.1 861.6 178.4 862.5 188.3 864.25 210.05 864.15 234.45 864.05 251.8 863.9 264.8 863.75 268.1 863.7 271.25 863.65 274.3 863.6 277.1 864.25 277.75 864.95 278.4 870.25 283.1 877.25 285.45 884.15 287.8 891.1 286.65 898.05 285.55 905.25 282.35 912.5 279.15 918.7 273.25 924.9 267.25 932.3 257.65
M 829.4 76.55
Q 847.55 103.55 856 143.35 858.6 155.7 860.35 169.1
M 932.3 107.25
Q 932.5 107.95 932.75 108.55 932.8 108.8 932.95 109 933 109.1 933.05 109.25 933.4 110.35 933.85 111.45 943.75 139.7 937.4 169.25
M 952.65 158.25
Q 953.75 163.8 954.5 169.5 959 205.2 950.5 234.55 941.9 263.9 932.05 275 922.25 286.1 912.45 290.35 902.6 294.55 897.2 295.4
M 901.95 157.6
Q 910.25 146.1 914 125.45 917.25 107.65 915.05 90.55
M 933.95 133.45
Q 934.75 148.45 933.1 161.6 930.55 182.1 923.05 201.2 915.35 220.4 904.65 231.35 898.15 238.05 890.2 242 884.3 245 878.35 246.15
M 735.75 26.6
Q 764 39.5 784.4 65.4 804.85 91.25 818.05 122.5 831.25 153.65 839.25 201.3 847.25 248.95 856.05 270.7 859 278.15 863.2 283.6 863.45 277.55 863.7 271.25
M 679.3 57.35
Q 686.9 65.7 691.25 77.8 700.6 103.95 703.45 128.9 706.3 153.75 707.7 182.9 709.1 212 709.95 225.05
L 710.75 234.6
Q 710.85 236.2 711.3 241.85 711.7 247.45 713.3 260.3 714.95 273.1 715.65 276.3
L 715.65 276.4
Q 719.35 282.5 723.55 288.1 730.95 288.65 738.45 289.8 741.8 290.35 745.15 291 744.05 288.75 743.1 286.5 742.6 285.4 742.15 284.3 741.35 282.35 740.55 280.3 740.25 279.6 740 278.9 739.6 277.95 739.25 276.95 736.3 269.5 732.95 259.95 729.2 249.1 728.25 239.75 727.45 231.65 727.9 222.9
M 774.35 7.1
Q 743.6 4.2 714.35 7.4
M 739.25 276.95
Q 742.35 280.7 746.25 284.65 748.4 286.85 750.85 289.1 753.2 291.3 755.7 293.3 756.75 293.5 757.7 293.75 777.6 298.8 795.6 307.5 798.4 307.05 801.7 306.25 786.8 297.2 773.7 280.65 771.65 278 769.65 275.25 755.7 255.9 751.3 233.75
M 745.15 291
Q 750.4 291.95 755.7 293.3 760.4 296.95 765.85 300 774.15 304.65 778.45 306.45 781.35 307.1 784.3 307.8 785.9 308.05 787.6 308.1 791.05 308.2 795.6 307.5 799.95 309.6 804.25 311.95 804.4 312 804.55 312.1 804.2 309.6 803.8 307.6 803.8 307.55 803.8 307.5 803.05 307.05 802.6 306.75 801.85 306.35 801.7 306.25
M 681.2 225.1
Q 688.15 223.65 695.4 223.6 702.4 223.55 709.1 224.9 709.4 224.95 709.95 225.05
M 685.8 236.15
Q 697.65 233.9 709.8 234.55 709.85 234.55 710.75 234.6
M 650.65 235
Q 651.55 235.8 654.7 238.25 657.8 240.6 661.75 242.55 663.8 243.55 665.9 243.85 666.25 243.9 666.55 243.95
M 678.2 278.2
Q 679.55 283.4 680.9 287.6 684.1 297.5 689.7 307.4 695.25 317.3 702.7 325.7 703.3 326.45 703.95 327.15 696.95 310.25 691.8 292.85 688.2 280.65 685.5 268.15
M 715.65 276.4
Q 716.7 282.3 718.1 287.7 720.8 287.85 723.55 288.1 727.1 292.8 731.05 297.2 734.1 300.75 737.45 304.05 737.95 303.95 738.5 303.85 744.25 302.55 752.15 303.2 748.3 297.5 745.15 291
M 702.1 287.5
Q 710.1 287.3 718.1 287.7 720.9 298.4 725.1 306.7 725.5 307.55 725.95 308.4 730.45 306.05 736.15 304.4 736.8 304.2 737.45 304.05
M 723.85 309.6
Q 721.8 310.8 720.15 312.3 719.3 312.95 718.45 313.75 713.65 318.1 709.95 323.05
L 720.2 323.05
Q 720.7 319.45 721.75 315.8 722.65 312.55 723.85 309.6 724.8 309 725.95 308.4
M 720.2 323.05
L 722.85 323.05
Q 721.35 324.25 719.95 325.5 719.75 328.1 719.75 330.7 727.7 328.6 731.35 323.5 732.3 323.45 733.3 323.45 752.1 322.8 770.95 321.75 787.75 320.75 804.6 319.35 805 319.3 805.5 319.3 805.25 316.8 804.75 314.4
M 804.6 314.35
Q 804.5 314.3 804.45 314.2 804 314.05 803.95 314.05 794.1 310.35 784.3 307.8
M 719.95 325.5
Q 716.15 328.7 713.2 331.8 716.75 331.45 719.75 330.7
M 789.8 359.9
Q 789.95 360.1 790.15 360.35
M 691.8 292.85
Q 696.6 298.9 702.7 303.9 710 309.85 718.45 313.75
M 625.2 295.9
Q 640.85 315.6 656.8 324.35 672.75 333 689.45 335.1 705.7 337.15 717.75 335.6 710.7 334.25 703.95 327.15
M 805.5 319.3
Q 805.6 319.25 805.7 319.25 810.25 318.9 814.8 318.55 810 316.35 805.2 314.55 805.05 314.5 804.95 314.45
L 804.9 314.45
M 814.8 318.55
Q 809.6 314.9 804.55 312.1 804.7 313.25 804.95 314.45
M 778.45 306.45
Q 777.75 306.3 777.05 306.2 770.7 304.85 764.35 304.05 757.75 303.1 752.15 303.2
M 770.95 321.75
Q 775.4 328.6 776.75 337.9 776.9 338.85 777 339.85
M 777.2 346
Q 776.9 354.2 773.2 361.1 767.95 371.25 758.45 372.6 748.95 373.85 740.95 365.45 733.3 357.4 731.25 345.1 731.25 345.05 731.25 344.95 731.15 344.5 731.1 344.05 729.45 332.65 733.3 323.45
M 796.95 352.15
Q 797.2 352.75 797.45 353.4
M 790.15 360.35
Q 790.45 361 790.8 361.7
M 796.7 351.85
Q 796.85 352 796.95 352.15
M 805.7 319.25
Q 808.05 340.15 809.65 364.95 811.2 389.8 809.85 416.45 808.45 443.1 805.6 459.7 803.85 468.9 801.55 476.85 798.85 486.1 796.3 493.7 792.65 504.3 789.3 511.7 789.2 511.75 789.1 511.8 789 512.1 788.85 512.4 780.9 529.65 766.35 543.35 788.25 527.65 801.25 504.6 808.6 493.3 819.25 469.05 819.35 468.65 819.5 468.35 820 467.15 820.55 465.95 821.6 463.3 822.5 460.6 829.75 439.05 829.35 411.05
M 863.2 283.6
Q 871.25 293.95 884.25 296.65 875.4 298.5 869.4 297.9 866.1 297.6 862.8 296.9 862.7 298.05 862.65 299.1 862.6 299.3 862.6 299.6 862.25 303 862.05 305.7
L 861.9 308.15
Q 866 310.65 871.35 312.45 876.25 314 882.5 314.9 883.55 315 884.75 315.15 885.05 315 885.4 314.9 888.9 313.55 892.25 313.5 895.95 313.4 898.75 315.05 901 316.35 902.4 318.45 903.8 320.55 906.45 327.3 909.05 334 912.5 341.4 915.9 348.8 917.5 353 917.65 353.4 917.75 353.9 923 350.2 931.15 341.1 939.25 331.95 946.55 315.9 953.85 299.85 957 285.75 960.15 271.55 960.25 255.35
M 807.25 148.2
Q 812.95 163.9 815.25 177.7 817.8 193.1 821.9 226.5 825.95 259.85 831.5 274.15 833.65 279.65 835.25 283.3 843.65 289.85 850.8 293 856.6 295.5 862.3 296.8 862.55 296.8 862.8 296.9
M 809.2 234.2
Q 815.7 251 820.25 261.55 824.1 270.55 829.9 280.4 830.85 281.95 831.85 283.65 835.85 290.15 840.65 296.2 841.75 297.6 842.85 298.95 839.3 292.5 835.25 283.3
M 861.9 308.15
L 861.35 316.05
Q 865.3 318.6 869.5 320.3 865.35 321.3 860.95 321.8
L 860.75 324
Q 860.7 324.75 860.7 325.6 861.45 326.45 862.15 327.15 864.45 329.4 866.8 331.1 870.75 325.65 874.25 322.3 879.3 317.4 884.75 315.15
M 842.85 298.95
Q 845.55 302.25 848.6 305.4 854.6 311.75 861.3 316
L 861.35 316.05
M 803.8 307.6
Q 806.7 309.1 812.35 312.3 821.95 317.7 839.3 320.8 848.85 322.45 857.6 322 859.25 321.95 860.85 321.8 860.9 321.75 860.95 321.8
M 860.85 321.8
Q 860.8 322.9 860.75 324
M 860.7 325.6
Q 860.25 333.8 859.65 341.45 862.4 337.1 865.65 332.65 866.2 331.85 866.8 331.1
M 895.55 340.45
Q 893.25 342.4 892.4 343.15 887.25 347.15 884.15 350.6 883.85 350.85 883.65 351.15 884.9025390625 352.4861328125 885.75 354.35 886.42890625 355.8326171875 886.85 357.65 887.25 359.5 887.4 362.1 887.4 362.3 887.4 366.6
M 883.65 351.15
Q 880.75 354.35 878.15 358.1 875.3 362.2 875.5 364.6 875.5125 364.7951171875 875.525 365 875.7123046875 367.1369140625 876.4 369.2 877.1 371.45 876.85 374.05 876.5 376.55 873.75 378.6 871 380.65 867.2 382.9
M 859.65 341.45
Q 857.9 362.4 854.45 379.2 850.15 399.6 846.2 410.1 850.35 409.05 858.3 411.45 866.2 413.85 869.5 413.25 872.8 412.6 875.65 409.7 878.45 406.7 882.65 402.65 886.75 398.55 894.3 392.5 901.85 386.45 905 383.7 908.15 380.95 910.15 378.7 912.05 376.45 914.75 373 917.4 369.5 918.25 363.35 918.9 357.8 917.75 353.9
M 947.7 356.4
Q 946.7 358 944.35 361.35 941.95 364.65 936.65 370.85 931.3 377 927.1 380.1 922.9 383.1 918.85 384
M 881.75 417.55
Q 871.35 424.05 864.85 429 866.4 433.4 866.6 436.9 866.6 436.95 866.6 437 866.6 437.4 866.6 437.75 866.6 438 866.6 438.2 866.6 438.55 866.6 438.85
M 864.85 429
Q 863.2 430.15 858.15 434.75 853.15 439.35 846.6 447.5 847.75 456.95 850.35 465.05 857.05 458.9 860.55 454.05 863.7 449.65 865.3 445.25
M 895 410.3
Q 891.7 411.8 886.8 413.4 878.45 416.05 869.2 418.8 859.9 421.55 854.25 426.15
M 846.2 410.1
L 845.65 412.25
Q 845.25 429.95 845.9 440 846.1 443.85 846.6 447.5
M 850.35 465.05
Q 850.25 465.15 850.15 465.25 849.15 466.15 848.1 467.1 821.8 491.15 801.25 504.6
M 845.65 412.25
Q 836.6 443.75 819.5 468.35
M 870.1 567.75
Q 853.4 583.2 840.55 593.65 854.05 590.65 867.7 586.05 877.85 582.6 887.65 578.35 896.5 574.45 902.1 571.1 909.6 566.45 914.3 561 918.1 556.5 921.1 550.35
M 878.15 563.15
Q 880.4 560.95 884.55 558.9 891.95 555.35 898.15 553.65 898.9 553.4 899.65 553.25
M 867.7 586.05
Q 867.45 586.45 867.2 586.9 851.5 611.4 840.75 635.45 829.05 661.45 825.05 689.15 852.8 689.85 880.65 690.15 880.85 687.15 881.7 681.35 882.75 674.35 886.9 658.5 891 642.65 903.65 622.4 916.35 602.2 928.9 590 941.4 577.75 947.8 574.25 954.15 570.7 957.2 570.1 960.2 569.45 965.65 569.65
M 970.65 589.9
Q 968.85 589.95 967.15 590.35 959.1 592.1 949.35 599.2 939.55 606.35 925 624.4 910.4 642.4 901.4 669.15 893.4 692.8 892.1 720.1
L 892.1 723.6
M 680.1 455
Q 680.6 455 683.3 455.3
M 694.4 518.75
Q 694.35 516.6 694.15 514.45
M 681.25 522.15
Q 683.45 524.6 686.5 526.5 690.7 529.15 695.3 529.95 695.7 530 696.05 530.05
M 700.1 531.95
Q 702.1 533.6 705.05 535.35 707.76328125 536.997265625 714.75 541.6 714.9771484375 541.7486328125 715.2 541.9 721.6802734375 546.21875 725.45 551.1 727.4 553.6 728.2 555.75 728.25 555.85 728.35 556 733.2 559.7 734.75 562.3 736.25 564.9 734.95 565.8 733.65 566.7 731.6 566.6 729.6 566.45 727.2 565.95 724.8 565.35 723.3 564.8 723.2 564.8 723.1 564.85 720 565.5 716.2 564.8 711.5 563.9 706.6 561.15 704.9 560.25 703.25 559.3 700.05 557.45 697 555.55 695.75 562.05 694.85 568.05 694.5 570.15 694.15 572.9 694.45 573.7 694.6 574.25 695.1 576.1 694.95 577.45 694.65 579.5 693.05 581
M 789.1 511.8
Q 788.5 512.1 787.95 512.4 764.6 524.95 756 527.55 749.65 529.45 742.85 530.65 740.7 530.9 738.15 531.2 729.15 532.25 720.05 528.25 717.15 526.95 714.6 525.3
M 703.25 559.3
Q 703.2 552.35 706 548.35 708.9 544.4 711.35 543.1 713.85 541.85 715.2 541.9
M 673.2 531.65
Q 676.05 535.45 678.65 540.2 680 542.6 681.25 545.2 683.45 546.9 688.35 550.05 693.25 553.2 697 555.55
M 679.85 566.85
Q 680.1 567.5 680.4 568.2 681.15 569.95 682.2 571.6 683.3 573.45 684.65 575.05 685.75 576.35 687 577.5 687.3 577.8 687.7 578.1
M 681.25 545.2
Q 682.55 548 683.75 551.1 686.1 557.05 689.75 564.65 693.4 572.15 694.15 572.9
M 728.2 555.75
Q 727.05 556.45 726.1 557.35 724.2 559.2 723.45 562.2 723.15 563.5 723.1 564.85
M 732.25 508.5
Q 738.6 519.75 742.85 530.65
M 805.6 459.7
Q 797.5 479.9 784.2 495.9 772.45 510 754.55 520.1 777.9 511.75 796.3 493.7
M 685.45 624.1
Q 695.9 632.65 714.4 636.6 732.8 640.45 760 634.65 787.1 628.8 807.95 615.95 828.75 603.1 840.55 593.65
M 654.3 594.55
Q 654.35 594.7 654.45 594.9 654.6 595.15 654.7 595.35 656.65 599.55 659.3 601.5 661.95 603.35 664 603.35 665.05 603.3 665.8 603.25
M 669.65 648.85
Q 670.7 649.95 671.4 651.2 675.55 658.6 675.3 667.3 675.15 674.85 671.9 683.25 670.85 686 669.25 689.2 747.95 687.65 825.05 689.15
M 659.15 654
Q 655.15 660.5 652.95 665.2 649.5 672.4 647.45 679.65
M 669.25 689.2
Q 667.2 693.35 664.4 698.15 663.55 699.6 662.4 701.6 663.2 703.8 663.9 706.1 666 713 666.7 720.25
L 665.75 722.6
M 662.4 701.6
Q 659.85 705.95 655.95 712.7 653.55 716.8 651.15 720.85
M 880.65 690.15
Q 880.6 692.25 880.45 694.65 880.3 697.1 880.45 704.7 880.65 712.25 880.7 721.05
M 926.1 692.35
Q 919.2 705.2 914.75 720.1
L 914.2 721.85
M 1022.15 681.05
Q 1027.65 693.5 1032.7 709.3"/>

<path id="Layer0_0_1_STROKES" stroke="#000000" stroke-width="1" stroke-linejoin="round" stroke-linecap="round" fill="none" d="
M 758.95 344.15
Q 759.45 348.25 758.55 351.25 757.6 354.15 755.7 354.35 753.95 354.45 752.2 351.75 750.6 348.9 750.05 344.8 750 344.4 750 344.05 749.95 344 750 343.9 749.65 340.3 750.55 337.7 751.45 334.7 753.3 334.6 755.1 334.45 756.75 337.25 758.2 339.5 758.8 342.8 758.85 343.45 758.95 344.15 Z
M 615.75 349.45
Q 616.45 350.9 616.85 352.75 616.75 352.75 616.7 352.75 616.8 352.8 616.9 352.85 616.9 352.95 616.95 353.1 617.95 357.15 617.35 360.25 616.8 363.3 615 363.65 613.2 363.95 611.2 361.4 609.2 358.75 608.2 354.75 608.15 354.4 607.9 353.15
M 607.9 353.1
Q 607.5 349.15 607.85 347.65 608.45 344.55 610.2 344.25 612.05 343.85 614 346.5 615.05 347.8 615.75 349.45"/>
</defs>

<g transform="matrix( 1, 0, 0, 1, 0,0) ">
<use xlink:href="#Layer4_0_FILL"/>
</g>

<g transform="matrix( 1, 0, 0, 1, 0,0) ">
<use xlink:href="#Layer3_0_FILL"/>
</g>

<g transform="matrix( 1, 0, 0, 1, 0,0) ">
<use xlink:href="#Layer2_0_FILL"/>
</g>

<g transform="matrix( 1, 0, 0, 1, 0,0) ">
<use xlink:href="#Layer1_0_FILL"/>

<use xlink:href="#Layer1_0_1_STROKES"/>
</g>

<g transform="matrix( 1, 0, 0, 1, 0,0) ">
<use xlink:href="#Layer0_0_FILL"/>

<use xlink:href="#Layer0_0_1_STROKES"/>
</g>
</svg>
