
<svg xmlns="http://www.w3.org/2000/svg" version="1.1" xmlns:xlink="http://www.w3.org/1999/xlink" preserveAspectRatio="none" x="0px" y="0px" width="1280px" height="720px" viewBox="0 0 1280 720">
<defs>
<g id="Layer2_0_FILL">
<path fill="#FFFFFF" stroke="none" d="
M 1280 720
L 1280 0 0 0 0 720 1280 720 Z"/>
</g>

<g id="Layer0_0_FILL">
<path fill="#000000" stroke="none" d="
M 548.4 315.1
Q 548.4 309.671875 547.15 304.75 545.3701171875 303.35 543.15 303.35 539.7 303.35 537.25 306.75 534.85 310.15 534.85 314.95 534.85 319.75 537.25 323.15 539.7 326.55 543.15 326.55 545.42734375 326.55 547.25 325.05 548.4 320.3251953125 548.4 315.1
M 467.6 315.1
Q 467.6 309.6568359375 468.85 304.7 467.642578125 304.3 466.3 304.3 462.5 304.3 459.8 307.75 457.15 311.2 457.15 316.05 457.15 320.9 459.8 324.35 462.5 327.8 466.3 327.8 467.912109375 327.8 469.3 327.15 467.6 321.5001953125 467.6 315.1
M 815.45 282.6
Q 815.1404296875 283.0751953125 814.85 283.55 816.95 290.182421875 816.95 297.7 816.95 298.9484375 816.9 300.15 818.6060546875 301.75 820.75 301.75 823.85 301.75 826 298.45 828.2 295.2 828.2 290.55 828.2 285.9 826 282.6 823.85 279.35 820.75 279.35 817.65 279.35 815.45 282.6
M 740.45 282.2
Q 738.2009765625 282.2 736.35 283.5 734.25 290.1482421875 734.25 297.7 734.25 302.0640625 734.95 306.1 737.31953125 308.7 740.45 308.7 744.3 308.7 747 304.8 749.7 300.95 749.7 295.45 749.7 289.95 747 286.05 744.3 282.2 740.45 282.2 Z"/>
</g>

<path id="Layer0_0_1_STROKES" stroke="#000000" stroke-width="1" stroke-linejoin="round" stroke-linecap="round" fill="none" d="
M 883.425 197.8
Q 887.8953125 185.8779296875 885.3 173.8 882.85 162.7 875.6 152.85 869.5 144.55 859.6 136.45 853.2 131.25 840.85 122.85 824.65 111.7 815.15 106.95 800.2 99.4 786.85 98.5 771.85 97.35 755.3 104.15 742.15 109.55 726.85 120.6 709.45 133.9 700.65 140.35 697.5669921875 142.5974609375 694.6 144.6 682.68359375 152.7140625 672.75 157 669.866015625 158.217578125 665.35 159.85 665.09375 159.9529296875 664.825 160.05 656 182.8 660.85 212.85 662.7970703125 224.700390625 665.6 236.85 668.2447265625 248.289453125 676.2 262.4 724.5357421875 235.759375 778.3 219.2 830.2564453125 203.2107421875 883.425 197.8 900.855859375 196.03359375 918.425 195.4 919.0142578125 195.37890625 919.6 195.35 925.0955078125 195.174609375 930.6 195.1 939.95 195 945.75 196.45 953.9 198.45 957.85 203.75 963.65 211.45 959.45 222.4 955.75 232.2 946.75 239.1 932.95 249.75 911.75 255.05 898.4693359375 258.3701171875 873.3 261.05 875.738671875 262.888671875 878 265.15 890.05 277.2 890.05 294.2 890.05 311.2 878 323.25 865.95 335.3 848.95 335.3 846.8701171875 335.3 844.875 335.125 844.652734375 335.81875 844.35 336.5 842.9 339.85 839.6 342.15 836.5 344.3 832.6 345 826.65 346.05 817.25 342.85
M 799.1 115.1
Q 797.6 131.85 789.25 147.1 791.8 147.4 794.4 146.95 797.05 146.5 799.55 145.05 799.484375 150.20390625 794.75 159.925 790.015625 169.64609375 789.6 175 792.85 173.5 799.6 170.6 801.55 169.85 802.5 170.25 803.85 170.9 803.85 174
L 803.5 182.6
Q 803.5 184.45 803.7 185.35 804 186.85 805 187.5 806.15 188.4 808.5 188.1 814.35 187.7 819.25 186.5 822.05 186.05 823.5 184.6 826.1 181.8 823.25 176 821.75 173.1 821.35 171.7 820.55 169.25 821.1 167.25 828.85 165.1 836.5 165.6 826.85 155.25 817.1 143.6 819.8 141.5 823 141 822.6 139.95 821.65 138.8 821.45 138.5 820 136.85 812.65 129.25 799.1 115.1 Z
M 676.2 262.4
Q 682.8611328125 269.590625 694.4 271.1 698.975 271.6771484375 703.675 271.45 709.97421875 271.124609375 716.5 269.35 725.75 266.85 736.9 261.05 739.8 259.55 756.25 250.1 784.08828125 234.1236328125 814.05 222.35 824.4923828125 218.2451171875 835.2 214.65 869.3158203125 203.1818359375 904.6 197.425 911.4849609375 196.305859375 918.425 195.4
M 694.6 144.6
Q 695.6 141.6 693.6 138.55 691.65 135.55 688.35 134.6 683.35 133.1 675.75 136.6 669.25 139.8 664 145.25 659.35 149.8 660 154 660.35 156.1 662.05 157.8 663.5080078125 159.2580078125 665.35 159.85
M 664.825 160.05
Q 662.518359375 160.8669921875 659.8 161.8 658.604296875 162.21171875 657.5 162.6 650.1404296875 165.1525390625 646.75 166.5 631.8 172.5 624.5 181.1 616.2 191 615.05 205.85 614.05 218.95 618.6 233.1 621.55 242.35 629.2 258.15 637.4978515625 275.2919921875 641.05 283.55 657.640234375 272.676171875 676.2 262.4
M 736.35 283.525
Q 739.2845703125 274.2033203125 746.35 266.7 750.2482421875 262.56015625 754.675 259.75 749.481640625 260.5234375 744.25 260.75
M 736.35 283.525
Q 738.2009765625 282.2 740.45 282.2 744.3 282.2 747 286.05 749.7 289.95 749.7 295.45 749.7 300.95 747 304.8 744.3 308.7 740.45 308.7 737.31953125 308.7 734.95 306.125 737.159375 318.93984375 746.35 328.7 758.45 341.55 775.6 341.55 792.75 341.55 804.85 328.7 810.5853515625 322.6091796875 813.6 315.325 816.5119140625 308.3033203125 816.9 300.175 816.95 298.9484375 816.95 297.7 816.95 290.182421875 814.875 283.575 813.689453125 279.80234375 811.825 276.325 809.072265625 271.183984375 804.85 266.7 793.221875 254.351171875 776.925 253.875 773.2208984375 255.2958984375 769.4 256.45 762.0787109375 258.6552734375 754.675 259.75
M 776.925 253.875
Q 785.112109375 250.72265625 792.75 246.25
M 696.25 332
Q 695.3853515625 333.6833984375 694.7 335.075 692.9998046875 338.487109375 692.4 340.05 691.555078125 342.244921875 690.175 347.725 688.7994140625 353.2015625 689.1 357.425 689.3994140625 361.65 690.85 363.5 692.4 365.45 694.5 366.35 697.5 367.65 702.1 366.25 707.95 364.15 710.85 359.6 712.35 357.15 712.7 354.3 713 351.45 712.95 347.95 713.35 354.8 713.55 356.45 713.9 359.65 715.1 361.85 716.6 364.55 719.35 365.7 722.3 366.95 724.75 365.6 727.6 363.95 728.6 358.75 729.45 354.25 729.25 346.85 728.5 327 722 307.9 715.557421875 288.8720703125 703.675 271.45
M 694.7 335.075
Q 688.165234375 330.358203125 679.15 332.5 670.5 334.55 665.25 341.35 660.4 347.65 658.95 356.5 657.65 364.25 659.1 373.25 660.7 382.65 664.5 388.25 668.2 393.5 674.25 396.6 680.15 399.6 686.75 399.85 698.8 400.55 711.15 392.475 724.9208984375 408.15859375 743.1 418.35 751.6220703125 423.136328125 761.125 426.7 762.250390625 427.1396484375 763.4 427.55 765.67734375 428.36171875 767.95 429.075 777.8001953125 432.219140625 787.65 433.725 806.891015625 436.6552734375 826.15 433.375 826.5 433.31171875 826.85 433.25 834.6857421875 431.8716796875 841.975 429.525 847.932421875 427.59765625 853.525 425.025 859.198828125 422.3935546875 864.5 419.1 882.65 407.8 892.25 391 902.45 373.1 900.35 352.1 898.2 330.3 883.6 317.1
M 734.95 306.125
Q 734.25 302.0640625 734.25 297.7 734.25 290.1482421875 736.35 283.525
M 735.6 328.85
Q 739 335.7 742.25 338.75 745.15 341.5 749.8 343.65 752.65 345 758.35 347
M 791.6 353.275
Q 791.0611328125 353.13984375 790.5 353 786.55 351.9 784.8 351.7 781.55 351.3 779.25 352.35 776.7 353.45 775.3 356.25 773.95 358.95 774.25 361.85 774.5 364.65 776.2 367.2 777.7 369.55 780.1 371.35 782.1517578125 373.0037109375 785.6 374.475
L 791.6 353.275
Q 800.90390625 355.4978515625 806.075 355.2 811.555078125 354.8751953125 811.875 354.775
L 811.9 354.775
Q 812.292578125 354.655859375 817.375 353.475 822.5912109375 352.2744140625 825.575 355.325 828.54765625 358.3666015625 827.975 362.775 827.401953125 367.194140625 824.6 370.5 821.9 374 817.5 376.15 815.5814453125 377.0859375 813.5 377.675 811.15390625 378.360546875 808.6 378.6 800.6 379.45 790.5 376.25 787.76796875 375.3974609375 785.6 374.475
M 904.6 197.425
Q 907.4 197.3 910.25 200.35 912.9 203.5 913.25 207 913.65 211.1 911 214 909 216.2 904.6 217.6 898.5 219.35 892.475 219.375 893.277734375 219.9462890625 893.9 220.45 897.1 223 898.85 225.85 900.95 229.1 901.05 232.9 901.15 236.95 898.85 239.75 897.4 241.5 894.85 242.7 892.95 243.6 889.85 244.35 880.2298828125 246.6798828125 870.2 246.225
L 869.425 252.15 868.65 258.025
Q 871.0515625 259.3541015625 873.3 261.05
M 814.05 222.35
Q 830.25 236.55 849.8 242.6 860.203125 245.793359375 870.2 246.225
M 811.825 276.325
Q 814.7673828125 270.2826171875 819.9 265.15 831.95 253.1 848.95 253.1 859.813671875 253.1 868.65 258.025
M 814.875 283.575
Q 815.1404296875 283.0751953125 815.45 282.6 817.65 279.35 820.75 279.35 823.85 279.35 826 282.6 828.2 285.9 828.2 290.55 828.2 295.2 826 298.45 823.85 301.75 820.75 301.75 818.6060546875 301.75 816.9 300.175
M 830.35 243.75
Q 838.25 249.85 848.35 252.1 858.55 254.35 869.425 252.15
M 814.35 323
Q 816.3125 321.8638671875 817.825 321.05 815.427734375 318.30625 813.6 315.325
M 817.825 321.05
Q 819.2603515625 320.28359375 820.3 319.8 823.7 318.25 826.6 317.75 830.55 317.05 834.45 318.15 838.5 319.3 841.25 322 844.1 324.85 845 328.8 845.7703125 332.1240234375 844.875 335.125
M 811.9 354.775
L 813.5 377.675
M 892.475 219.375
Q 890.6 218.0091796875 887.75 216.25
M 841.975 429.525
Q 847.5 437.85 848.1 450.1 848.1724609375 451.507421875 848.175 453.025 856.206640625 449.8328125 863.575 445.375 863.6056640625 441.9462890625 862.7 438.45 860.403125 429.7619140625 853.525 425.025
M 839 443.6
Q 823.85 449.55 807.2 448.85 805.6544921875 448.7900390625 804.125 448.675 806.0201171875 453.82890625 806.525 460.075 821.403125 460.781640625 835.1 457.25 841.845703125 455.53046875 848.175 453.025 848.2048828125 456.7056640625 847.85 461 847.5 464.6 846.5 471.85 846.49921875 472.0982421875 846.5 472.35 848.4447265625 471.0544921875 850.175 469.675 858.38828125 463.1140625 861.75 454.6 863.544140625 450.056640625 863.575 445.375
M 804.75 482.6
Q 806.55 472.25 806.7 465.4 806.72890625 462.64609375 806.525 460.075 805.8123046875 460.0431640625 805.1 460 783.91875 458.512109375 760.8 448.775 759.15703125 456.5703125 759.1 464.9 762.5650390625 467.721875 767.2 470.25 771.15 472.35 777.6 475.1 787.8 479.3 795.35 481.25 805.3 483.85 813.85 483.5 818.046484375 483.2978515625 822.25 482.475 827.6794921875 481.38984375 833.1 479.25 835.9306640625 478.1427734375 838.75 476.75 842.9767578125 474.6904296875 846.5 472.35 846.5369140625 489.861328125 852.65 511.75 852.6841796875 511.8728515625 852.75 512.075 853.7833984375 515.5412109375 862.475 541.625 863.81796875 545.660546875 865.35 550.25 867.15 555.45 866.1 558.5 865.55 560.05 864 561.5 863.15 562.3 861 563.85 855.1607421875 567.8900390625 849.05 571.375 836.4765625 578.5390625 822.75 583.35 824.55078125 571.91171875 825.5 560.475 826.930078125 543.5328125 826.5 526.6 825.948828125 504.5255859375 822.25 482.475
M 833.1 479.25
Q 834.76015625 485.217578125 836.25 491.2 841.762890625 489.00390625 847.1 486.25
M 826.15 433.375
L 826.15 447
M 826.5 526.6
Q 834.4576171875 522.554296875 842.175 518.2 839.612890625 504.6328125 836.25 491.2 830.4716796875 493.5328125 824.5 495.25
M 862.475 541.625
Q 853.9953125 545.99921875 846.975 549.6 848.2685546875 560.449609375 849.05 571.375
M 825.5 560.475
Q 833.75234375 556.4173828125 846.975 549.6 845.11328125 533.8154296875 842.175 518.2 847.4583984375 515.2095703125 852.75 512.075
M 850.175 469.675
Q 861.0060546875 517.5833984375 878.25 563.6 882.55 575 883.9 580.95 886.15 590.85 884.5 598.75 882.80078125 606.316015625 877.525 611.925 879.15 626.65 874.85 637.35 873.4 640.7 872 641.85 871.05 642.75 869.7 643.1 868.3 643.45 867.1 643 864.59296875 641.84296875 864.05 638.025 863.641796875 639.3078125 863.1 640 861.65 641.6 858.85 641.6 857.15 641.4 856.5 640.85 855.65 640.2 855.3 638.9 855.1 638.1 854.925 636.475 854.7220703125 637.1255859375 854.6 637.4 854.15 638.45 853.5 639.1 852.7 639.8 851.7 639.95 850.55 640.1 849.85 639.5 849.35 639.1 849.15 638.25 849 637.9 848.85 636.75 848.85 634.8 849.5 629.95 849.210546875 630.6388671875 848.85 631.25 848 632.75 846.75 633.6
M 859.75 565.25
Q 861.95 575.6 862.2 581.45 862.6 590.45 859.5 597 857 602.05 852.1 606.2 849.4609375 608.419140625 846.3 610.25
L 846.3 620.8
Q 848.596484375 621.4818359375 850.85 621.825 854.093359375 622.303515625 857.25 622.05 861.4794921875 621.7314453125 865.55 620.1 868.053125 619.1025390625 870.5 617.6 874.5724609375 615.0703125 877.525 611.925
M 787.65 433.725
L 787.65 445.35
M 761.125 426.7
Q 755.6 428.25 751.85 433.3 748.542578125 437.6494140625 748.15 442.9 754.5486328125 446.140234375 760.8 448.775 762.987109375 438.4626953125 767.95 429.075
M 748.15 442.9
Q 748.109375 443.44609375 748.1 444 748.05 449.45 750.8 454.85 751.5083984375 456.2390625 752.25 457.4 754.6001953125 460.961328125 757.85 463.85 758.45546875 464.384765625 759.1 464.9
M 775.85 441
Q 789.1029296875 447.5357421875 804.125 448.675
M 636 320.35
Q 634.7802734375 322.6494140625 633.65 324.975 624.7251953125 343.4119140625 621.75 363.35 620.75 369.85 620.75 374.6 620.7 380.7 622.25 385.6 623.8 390.2 626.95 393.2 630.5 396.65 634.6 396.1 638.55 395.7 641.6 391.65 643.65 388.85 644.5 378.6 651 395.2 658.9 406.15 668.75 419.9 681.5 426.1 686.0484375 428.278125 690.925 429.5 701.24140625 432.083203125 713 430.35 729.1119140625 427.9630859375 743.1 418.35
M 690.925 429.5
Q 696.285546875 448.241015625 699.775 461.975 703.2546875 475.7029296875 706.7 498.8 708.6884765625 512.118359375 708.85 523.8 748.7669921875 462.9228515625 752.25 457.4
M 708.85 523.8
Q 697.56484375 541.0927734375 680.35 567.35 675.8 574.3 673.85 578.1 670.65 584.25 669.75 589.75 668.59296875 596.59921875 670.725 603.5 670.9064453125 604.0455078125 671.1 604.6 673.75 612 679.35 617 689.75 626.4 705.8 624.45 720.9 622.65 732.1 612.25 741.7 603.25 748.25 588.6 748.5796875 587.8650390625 748.9 587.1 753.3453125 576.7291015625 757.35 560.85 765.6 528.45 769.6 493.25
M 590 411.25
Q 581.15 411.15 573.15 406.85 572.015234375 406.2369140625 570.95 405.575 558.4869140625 416.1890625 543.625 423.925 553.2416015625 426.10859375 559.65 430.2 567.7 435.35 569.6 443 570.6857421875 447.342578125 569.525 451.825 577.2 451.5 582.8 458.4 586.9 463.4 590.75 472.5 594.35 481.15 601.3 500.25 608.0015625 518.5951171875 617.875 538.15 627.7421875 557.7083984375 636.5 568.75 645.2626953125 579.8025390625 646.9 582.175 647.136328125 582.5169921875 647.325 582.85 651.5 581.3 654 581.6 658.5 582.4 662.35 588.5 666.587109375 594.63125 668.5 602.35 669.5845703125 602.867578125 670.725 603.5
M 816 721.6
L 813.875 642.55
Q 813.44453125 642.5326171875 813 642.5 808.4 642.2 806.5 642.25 803 642.25 800.1 643.35 796.8 644.65 795.1 647.1 793.35 649.85 792.85 655.6 790.5 684.95 787.35 721.6
M 787.7 617.3
Q 786.78046875 617.1537109375 785.85 617 778.15 615.7 773.35 614.25 770.0619140625 613.2513671875 767.25 611.975
L 766.6 624.175
Q 777.0412109375 627.0689453125 787.8 628.525
L 787.7 617.3
Q 802.35625 619.55859375 814.4 618.9 816.6337890625 618.783984375 818.8 618.575 830.6890625 617.3744140625 840.45 613.125 841.1560546875 612.8224609375 841.85 612.5 844.1912109375 611.459375 846.3 610.25
M 787.8 628.525
Q 795.0271484375 629.5140625 802.4 629.85 810.8109375 630.2306640625 819.1 629.75
L 818.8 618.575
M 759.75 608.05
L 759.75 622
Q 759.7455078125 622.05 759.75 622.1 763.15625 623.2107421875 766.6 624.175
M 767.25 611.975
Q 764.2861328125 610.6412109375 761.85 609 756.25 605.25 752.95 599.8 749.376171875 593.9427734375 748.9 587.1
M 674.5 612.25
Q 673.7 613.85 671.7 614.45 669.85 615 667.85 614.5 666.75 614.15 664.4 613 662.15 611.9 660.85 611.5 655.502734375 609.9103515625 648.3 612.875 648.02578125 612.98125 647.75 613.1 638.75 617 632.9 624.05 628.159375 629.74609375 626.8 636 626.3029296875 638.26796875 626.25 640.6 625.95 643.95 627.6 645.25 629.25234375 646.604296875 631.725 645.975 634.1927734375 645.3369140625 636.825 642.425 636.9291015625 639.3619140625 637.9 636.3 639.2 632.3 641.75 629
M 668.5 602.35
Q 663.69296875 600.1 659.75 600.1 656.95 600 654.45 601.2 651.8 602.4 650.35 604.6 649.3 606.2 648.8 608.55 648.5 609.9 648.3 612.875
M 695.1 624.75
Q 692.418359375 629.430859375 687.75 632.675 689.212890625 636.205078125 687.1 638.65 684.9765625 641.0892578125 681.825 641.5 678.683203125 641.909765625 674.925 639.275 671.1556640625 636.6466796875 668.35 631.6 667.0802734375 628.98125 666.825 626.9 662.6 625.55 660.6 625.85 657.7 626.5 656.35 628.75 655.5623046875 630.3537109375 656.05 632.45 656.4412109375 634.07578125 657.6 636 660.4 640.35 664.35 642.75 667.4890625 644.828515625 670.7 645.25 671.273828125 645.32734375 671.85 645.35 676.6 645.35 679 641.7
M 687.75 632.675
Q 687.675 632.46953125 687.6 632.25 682.1 627.1 679.35 624.5 677.15 622.05 675 621 672.05 619.65 669.75 620.75 668.4 621.45 667.6 622.95 666.85 624.25 666.75 625.85 666.75 626.355859375 666.825 626.9
M 656.05 632.45
Q 653.85 631.7 651.85 632.2 649.85 632.7 648.6 634.25 647.4 635.75 647.1 637.75 646.8 639.65 647.35 641.5 648.05 643.75 649.9 645.95 651.2 647.5 653.6 649.5 658.1 652.8 661.35 653.25 664.85 653.5 667.8 651.25 670.75 648.95 670.7 645.25
M 626.8 636
Q 617 628.95 611 615.85 609.6978515625 613.15 610 611.875 610.30625 610.5998046875 611.425 609 612.5416015625 607.4001953125 613.625 606.375 597.4068359375 586.437109375 585.3 563.85 578.955078125 552.0328125 573.775 539.8 570.3 548.05 572.1 559.85 573.45 568.55 577.85 580.75 589.9384765625 614.49921875 609.6 645 597.8138671875 651.105078125 586.1 655.225
L 589.175 673.6
Q 630.3 675.9 652.95 657.25 652.3021484375 657.1982421875 651.75 657 650.3 656.5 649.25 655.15 648.3 653.85 648.1 652.25 647.9291015625 650.8587890625 648.25 649.35 644.941796875 650.833984375 643.175 650.925 641.402734375 651.0126953125 640.2 650.4 639 649.7955078125 638.1 648.75 636.85 647.3 636.85 644.5 636.78671875 643.4619140625 636.825 642.425
M 648.25 649.35
Q 648.6041015625 647.7892578125 649.5 646.1
M 659.75 653.25
Q 659.85 655.1 656.85 656.5 654.591796875 657.3603515625 652.95 657.25
M 759.75 622.1
Q 754.94609375 674.8435546875 750.75 720.75
M 854.925 636.475
Q 855.0744140625 636.065625 855.25 635.5 856.2466796875 631.015234375 857.25 622.05
M 864.05 638.025
Q 864.0857421875 637.90703125 864.125 637.775 864.329296875 637.0392578125 864.5 636.1 865.8 627.95 865.55 620.1
M 819.5 642.6
Q 817.36015625 642.7783203125 813.875 642.55
M 846.3 620.8
L 846.3 626.35
Q 846.3021484375 626.6501953125 846.3 626.95 846.670703125 676.8359375 850.1 724.35
M 840.45 613.125
L 840.65 626.95
Q 843.20703125 626.4482421875 845.75 625.85
M 849.5 629.95
Q 850.141015625 628.4693359375 850.45 626.65 850.746875 624.967578125 850.85 621.825
M 819.1 629.75
Q 829.9818359375 629.1021484375 840.65 626.95
M 381.35 313
Q 385.95 314.35 391.7 314.1 391.8654296875 310.865625 392.525 307.825 367.785546875 305.8435546875 345 299.85 339.1 298.35 335.5 296.65 331.28125 294.6451171875 327.75 290.6 323 262.3 332.35 231.95 341.35 202.55 363.85 182.25 381.3091796875 166.5408203125 404.475 157.925 422.015625 126.3419921875 454.95 109.4 485.3 93.75 521.6 91.85 542.65 90.8 562.2 94.25 583 97.95 600.85 106.5 619.6 115.55 634.1 129.7 649.25 144.45 657.5 162.6
M 404.475 157.925
Q 409.7591796875 155.95 415.35 154.35 443.85 146.25 474.35 149.25 501.55 151.9 524.1 163.25 548.7552734375 175.65 561.625 194.625 574.4896484375 213.5990234375 578.65 232.45 582.80390625 251.3029296875 585.2 270.7 586.141796875 278.478125 586.85 294.425 587.5533203125 310.3775390625 589.45 386.6 589.8806640625 394.6603515625 590.175 403.3 590.895703125 424.05 590.85 448.15
M 457.275 284.4
Q 454.013671875 284.65 449.8 284.65 449.75 284.65 441.75 284.5 426.2279296875 283.9521484375 411.3 282.725 407.303515625 285.12265625 403.75 288.5 400.9580078125 291.1537109375 398.8 294.05 398.891796875 294.093359375 398.975 294.125 433.466796875 301.1470703125 470.55 299.55 467.5787109375 293.564453125 462.25 288.5 459.855078125 286.223828125 457.275 284.4 457.559765625 284.380859375 460.075 284.35 462.5904296875 284.3052734375 464 283.3 465.4103515625 282.296875 465.175 280.175 464.9400390625 278.051171875 464.2 277.15
M 470.55 299.55
Q 473.06484375 293.48828125 477.7 288.3 478.5138671875 287.3900390625 479.4 286.5 491.25 274.7 508 274.7 524.75 274.7 536.55 286.5 537.38125 287.33125 538.15 288.175 541.4998046875 287.43984375 543.5 285.5
M 400.35 281.75
Q 401.891015625 281.9029296875 403.45 282.05
L 400.35 267.125
Q 380.6619140625 272.31953125 361.8 280 355.6859375 243.572265625 355.8 225.55 348.65 238.2 346.35 253.7 344.05 269.15 347.75 284
L 327.75 290.6
M 392.525 307.825
Q 394.1626953125 300.3490234375 398.8 294.05 396.0822265625 292.992578125 393.85 291.1
M 380.1 322.75
Q 386.3 324.4 391.75 323.1
M 451.75 360.35
Q 450.094921875 356.1087890625 448.85 352.65 441.5478515625 355.5 433 355.5 415.85 355.5 403.75 344 391.65 332.5 391.65 316.25 391.65 315.169140625 391.7 314.1
M 401.7 342.6
Q 394.55 349.15 390.15 359.65 386 369.65 385.85 380.95 385.7 392.2 389.65 402.35 393.8 413 401.6 420.35 414.45 432.4 438.1 438 452.2509765625 441.365234375 466.5 441.875 481.867578125 442.4333984375 497.35 439.675 509.11328125 437.5662109375 520.95 433.55 525.358984375 432.0505859375 529.6 430.35 536.761328125 427.4712890625 543.45 424.025 543.5318359375 423.9732421875 543.625 423.925
M 469.325 327.175
Q 467.6 321.5001953125 467.6 315.1 467.6 309.6568359375 468.85 304.725 467.642578125 304.3 466.3 304.3 462.5 304.3 459.8 307.75 457.15 311.2 457.15 316.05 457.15 320.9 459.8 324.35 462.5 327.8 466.3 327.8 467.912109375 327.8 469.325 327.175 470.0427734375 329.5791015625 471.075 331.85 474.0140625 338.2640625 479.4 343.65 491.25 355.5 508 355.5 524.75 355.5 536.55 343.65 544.7033203125 335.5310546875 547.25 325.075 545.42734375 326.55 543.15 326.55 539.7 326.55 537.25 323.15 534.85 319.75 534.85 314.95 534.85 310.15 537.25 306.75 539.7 303.35 543.15 303.35 545.3701171875 303.35 547.15 304.75 544.828515625 295.57265625 538.15 288.175
M 468.85 304.725
Q 469.5138671875 302.06484375 470.55 299.55
M 475.5 349.25
Q 469.401953125 345.4115234375 462.925 343.325 457.521484375 341.601171875 451.85 341.1 447.7 340.9 446.75 342.75 446.25 343.55 446.4 344.75 446.45 345.3 446.85 346.85 447.670703125 349.4087890625 448.85 352.65
M 471.075 331.85
Q 468.245703125 338.0771484375 462.925 343.325
M 585.2 270.7
Q 570.05234375 266.8076171875 556.95 263.95 546.5224609375 261.6771484375 536 260.075 503.839453125 255.191015625 470.8 256.6 434.3482421875 258.1517578125 400.35 267.125
M 411.3 282.725
Q 407.347265625 282.4126953125 403.45 282.05
M 527.6 227
Q 531.9 234.5 534.05 243 536.197265625 251.4392578125 536 260.075
M 485.35 262.1
Q 492.35 265.6 501.65 268.5 507.25 270.25 518.5 273.1 524.95 274.8 528.75 275.3 534.45 276.1 539 275.25
M 535.25 191.85
Q 544.45 208.5 549.95 226.7 555.5 244.95 556.95 263.95
M 548.75 312.1
Q 550.011328125 312.374609375 551.275 312.5 556.231640625 312.971875 561.25 311.1
M 547.15 304.75
Q 548.4 309.671875 548.4 315.1 548.4 320.3251953125 547.25 325.075
M 546.6 301.6
Q 550.15 301.75 554.35 300.5 557.262890625 299.611328125 561.3 297.5
M 479.75 377.5
Q 490.15 377.5 500.25 374.3 510.35 371.1 518.85 365.1
M 587.85 345
Q 578.8 344.65 570.8 349.3 562.9 353.95 558.75 361.75 554.65 369.35 555.15 378.6 555.6 387.65 560.35 395.1 564.43046875 401.4568359375 570.95 405.575
M 587.85 351.85
Q 581.9951171875 351.5986328125 576.1 355 570.2140625 358.4041015625 566.7 364.6 563.1857421875 370.7958984375 563.05 376.85 562.9046875 382.9013671875 567 389.75 570.8 396.15 577 399.9 577.0650390625 399.9388671875 577.125 399.975 583.6533203125 393.7259765625 589.45 386.6
M 641.05 283.55
Q 625.3 290.3 617 297.75 611.5 302.65 608 308.5 604.25 314.85 603.35 321.5 602.65 327.55 605.6 330.25 608.2 332.4 614 331.6 623.6783203125 330.053515625 633.65 324.975
M 477.7 288.3
Q 507.422265625 293.1462890625 537.75 288.2
M 577.125 399.975
Q 583.6541015625 403.83828125 590.175 403.3
M 487.25 449.25
Q 492.2427734375 450.7568359375 497.35 451.425
L 497.35 439.675
M 497.35 451.425
Q 506.3013671875 452.5830078125 515.6 451.15 523.314453125 449.9611328125 530.5 447.175
L 529.6 430.35
M 531.2 482.625
Q 522.1126953125 485.523828125 512.4 486.35 512.1490234375 486.3712890625 511.9 486.4 520.7798828125 494.87265625 526.15 507.925
L 531.2 482.625
Q 531.262890625 482.6048828125 531.325 482.575 542.5134765625 478.991796875 552.75 472.25 558.86953125 468.194140625 563 463.45 564.6587890625 461.5333984375 566 459.5 568.56015625 455.6140625 569.525 451.825
M 511.9 486.4
Q 508.698046875 486.6443359375 505.6 486.65 507.55 519.2 513.35 549 497.3150390625 536.4673828125 479.95 524.15 486.5017578125 550.31328125 488.4 564.9 491.4 588.05 485.6 605.75 482.9 614.05 475.85 626.75 467.3 642.1 466.05 646.4 477.931640625 655.437890625 492.7 659.475 494.0921875 659.8556640625 495.5 660.2 508.99140625 663.5216796875 522.55 663.175 524.943359375 663.116015625 527.35 662.95 527.9193359375 662.8990234375 528.5 662.85
M 563 463.45
Q 559.58515625 479.7724609375 550.65 493.25 541.762890625 506.7046875 529.45 517.55 533.0416015625 529.671875 534.5 549.75 537.6861328125 592.4068359375 533.025 634.7 536.7 644.35 540.6 655.6 541.5 657.95 542.15 659.1 543.15 660.95 544.5 661.85 546.85 663.25 551.5 662.75 553.3486328125 662.5755859375 555.175 662.35 571.1912109375 660.4505859375 586.1 655.225
M 530.5 447.175
Q 536.9369140625 444.6994140625 542.95 440.95
M 526.15 507.925
Q 527.6029296875 511.473046875 528.8 515.35 528.91640625 515.730859375 529.45 517.55
M 531.15 535.85
Q 531.15 539.25 528.95 541.65 526.8 544.1 523.75 544.1 520.7 544.1 518.5 541.65 516.35 539.25 516.35 535.85 516.35 532.45 518.5 530 520.7 527.6 523.75 527.6 526.8 527.6 528.95 530 531.15 532.45 531.15 535.85 Z
M 510.5 560.75
Q 510.5 563.95 508.25 566.2 506 568.45 502.8 568.45 499.6 568.45 497.35 566.2 495.1 563.95 495.1 560.75 495.1 557.55 497.35 555.3 499.6 553.05 502.8 553.05 506 553.05 508.25 555.3 510.5 557.55 510.5 560.75 Z
M 530.1 561.4
Q 530.1 564.9 528.2 567.4 526.3 569.9 523.6 569.9 520.9 569.9 519 567.4 517.1 564.9 517.1 561.4 517.1 557.9 519 555.4 520.9 552.9 523.6 552.9 526.3 552.9 528.2 555.4 530.1 557.9 530.1 561.4 Z
M 508.25 513.25
Q 520.55 517.15 531 525.25
M 563.6 511.85
Q 567.958203125 526.0865234375 573.775 539.8
M 505.6 486.65
Q 486.7818359375 486.687109375 471.75 477.6 467.85234375 475.24140625 465.05 472.65 460.7 495.85 458.95 524.55 457.85 542.85 457 576.6 456.85 580.95 457.05 583.25 457.089453125 583.736328125 457.15 584.2 457.5142578125 587.2984375 458.6 589.6 461.75 596 470.35 598.55 476.55 600.35 486.5 600.25
M 465.05 472.65
Q 460.840625 468.76171875 459.1 464.35 456.7541015625 458.445703125 458.6 451.725 460.4373046875 445.0126953125 466.5 441.875
M 479.95 524.15
Q 476.7537109375 521.8705078125 473.5 519.6 470.15 517.35 469.5 515.35 468.9 514.05 469.1 512.2 469.2 511.35 469.75 509 477.3 481.8 477.5 481
M 457.15 584.2
Q 456.3861328125 584.2765625 454.65 585 453.1 585.65 452.5 586.35 451.2 587.65 451 591.1 450.6 597 450 608.85 449.85 612 450.05 613.75 450.35 616.5 451.6 618.25 453.1548828125 620.3703125 457.45 622.05 457.7259765625 622.1490234375 458 622.25 466.45 625.5 475.25 626.6
M 416.6 431
Q 414.9 471 424.35 510.55 433.75 550 453.35 585.1
M 457.45 622.05
Q 453.743359375 626.6302734375 452.45 632.6 451.15 638.7 452.85 644.35 453.4 646.05 454.1 646.5 454.9517578125 647.04453125 456.125 646.75 457.29453125 646.466015625 457.8 645.4 457.6734375 638.8033203125 460.6 634.1
M 457.8 645.4
Q 457.86328125 648.2708984375 458.5 651.5 459.05 653.9 459.85 654.6 460.9 655.8 462.7 655.7 464.3 655.6 465.6 654.5 467.4 653 468.85 649.1
M 647.325 582.85
Q 648.5001953125 584.8166015625 648.275 586.425 648.00703125 588.2974609375 646.825 589.625 645.6416015625 590.946484375 638.15 597.475 630.653125 604.0021484375 617.15 610.6 615.3693359375 608.50078125 613.625 606.375
M 589.175 673.6
L 591.55 689
Q 593.4 688.5 595.2 689.05 597 689.6 598.1 691 599.5 692.75 600.25 696.6 601.95 706.95 603.85 721.3
M 493 691.6
Q 491.55 691.6 490.2 692.45 488.85 693.25 488.1 694.6 487.8259765625 695.0857421875 487.6 695.675 489.3220703125 697.21640625 492.1 697.85 492.847265625 698.0115234375 493.85 698.125
L 492.7 659.475
M 522.55 663.175
L 524.4 692.5
Q 526.35 691.7 528.4 692.35 530.35 693 531.6 694.6 533.7 697.15 534.35 701.85 535.7 709.4 536.25 721.75
M 558.25 690.25
Q 556.65 690.15 555.25 691.3 554.4169921875 691.97265625 553.825 692.9 557.9 695.35 563.55 695.9 566.95 696.25 573.75 696 582.4 695.5 586.2 694.9 593.1 693.85 598 691.35
M 527.35 662.95
Q 533.7 667.4 540.95 669.55 548.35 671.8 555.85 671.6
M 533.025 634.7
Q 531.478125 648.81953125 529.05 662.9
M 553.825 692.9
Q 553.5015625 693.4072265625 553.25 694 552.35 696 552.35 700.6
L 552.75 720.85
M 493.85 698.125
Q 495.3232421875 698.2904296875 497.35 698.35 508.9 698.85 514.65 698.55 520.0583984375 698.2384765625 524.7 697.25
L 524.4 692.5
M 487.6 695.675
Q 486.875390625 697.4716796875 486.5 700.25 486.1 703.9 486.15 710.45 486.2 717.6 486 720.6
M 524.7 697.25
Q 528.24921875 696.49921875 531.35 695.35
M 591.55 689
L 592.1 693.1
M 555.175 662.35
L 559.15 694.55"/>
</defs>

<g transform="matrix( 1, 0, 0, 1, 0,0) ">
<use xlink:href="#Layer2_0_FILL"/>
</g>

<g transform="matrix( 1, 0, 0, 1, 0,0) ">
<use xlink:href="#Layer0_0_FILL"/>

<use xlink:href="#Layer0_0_1_STROKES"/>
</g>
</svg>
