
<svg xmlns="http://www.w3.org/2000/svg" version="1.1" xmlns:xlink="http://www.w3.org/1999/xlink" preserveAspectRatio="none" x="0px" y="0px" width="1280px" height="720px" viewBox="0 0 1280 720">
<defs>
<g id="Layer2_0_FILL">
<path fill="#FFFFFF" stroke="none" d="
M 1280 720
L 1280 0 0 0 0 720 1280 720 Z"/>
</g>

<g id="Layer1_0_FILL">
<path fill="#FFDFCD" stroke="none" d="
M 485.9 623.25
Q 485.6 623.65 485.2 624.6
L 484.2 626.25
Q 483.7 627.1 483.25 628.5 483.15 628.85 482.9 630.15 482.7 631.15 482.45 631.8
L 481.75 633.7
Q 481.4947265625 634.8060546875 481.7 635.45
L 481.7 635.5
Q 480.75 638.05 480.65 643.1 480.65 644.95 480.75 645.85
L 480.95 647.4 480.95 649.25
Q 480.95 649.75 481.15 650.65
L 482.2 656.35
Q 482.20625 656.7423828125 482.25 657.15 482.3 657.4 482.95 659.35
L 484.7 663.95
Q 485.15 664.95 485.85 666.9 486.5 668.7 487.25 669.7 488.05 670.75 489.9 672.55 490.7 673.45 492.1 675.45 493 676.4 494.75 677.7 495.9 678.55 496.6 678.65 496.6248046875 678.6748046875 496.65 678.7 497.1 679.15 498.2 679.55 499.65 680.15 502.5 681.4 505.05 682.4 507 682.5 507.85 682.55 509.6 682.45 511.6 682.55 512.2 682.5 512.8 682.45 514 682.05 515.95 681.4 519.8 678.9 521.2 677.9 521.4 677.7 521.9 677.2 522.9 675.65 523.55 676.1 524.7 677.15 525.9 678 526.9 677.8 526.97109375 677.790234375 527.05 677.75 527.3845703125 678.0583984375 527.85 678.25 528.75 678.6 530.75 678.5
L 534.45 678.35
Q 535.85 678.35 536.8 678.1 537.45 677.95 539.25 677.05
L 541.75 675.75
Q 544.4 674.3 545.15 672.95
L 545.65 671.75 546.35 670.65
Q 547.75 668.35 547.7 666.4 547.7 665.75 547.4 664.6 547.15 663.35 547.1 662.8 547.6 662.8 548.5 662.8 549.35 662.8 549.85 662.5 550.0498046875 662.3953125 550.2 662.25 550.4888671875 662.044140625 550.65 661.75 550.9 661.3001953125 550.9 660.7 550.804296875 659.5029296875 549.8 659 549.6666015625 658.5095703125 549.3 657.3 548 653.45 545.7 645.65 544.2 640.55 543.9 637.9
L 543.7 636.4
Q 543.5 635.55 543.15 635.05 543.11796875 635.007421875 543.05 634.95 542.69296875 632.616796875 542.3 631.2
L 542.3 630.15 542.35 628.9
Q 542.35 627.25 542 626.7 541.9158203125 626.584375 541.8 626.45 541.5072265625 626.143359375 541.05 625.95 540.9439453125 625.86640625 540.8 625.8 540.4669921875 625.661328125 540.1 625.65 539.8115234375 625.633203125 539.5 625.7 539.358203125 625.737890625 539.2 625.75 538.8888671875 625.908984375 538.6 626.1 537.97890625 626.0142578125 537.1 626.1
L 533.2 626.25 526.95 626.45 525.9 626.5
Q 523 626.45 519.35 626.6 516.6 626.8 515.25 626.55 514.35 626.35 513.95 626.3 513.2 626.2 512.65 626.35 512.344921875 626.4470703125 512.1 626.6 511.5513671875 626.291015625 510.6 626.15 508.85 626.05 508.5 625.95 508.35 625.9 507.1 625.35
L 505.4 624.7
Q 504 624.2 502.85 624
L 500.85 623.7
Q 499.75 623.45 498.1 622.65 496.95 622.05 495.35 621.1 493.55 619.95 492.75 619.8 492.479296875 619.732421875 492.2 619.7 492.196875 619.19296875 491.95 618.75 491.938671875 618.7119140625 491.9 618.65 491.35 617.75 490.25 617.75 489.2 617.75 488.65 618.6 488.35 619.05 488 620.15 487.75 620.8 487 621.7 486.15 622.8 485.9 623.25
M 913.5 73.6
Q 913 73.1 912.7 72.9 912.35 72.7 911.6 72.5 910.8 72.3 910.5 72.15 909.7 71.6 909.25 71.45 909.0794921875 71.387890625 908.9 71.35 908.378125 71.0005859375 907.25 70.75 902.75 70 898.95 71 896.7 71.55 892.4 73.55 891.2 74.05 890.6 74.55 890.35 74.75 889.2 75.9 889.05 76.05 886.4 77.85 883.75 79.7 882 82.2 881.5248046875 82.83359375 881.3 83.4 880.7708984375 83.77421875 880.55 84.5 880.3 84.6 879.55 84.35
L 878.3 83.85
Q 876.15 83 875.45 82.6 875.1921875 82.4787109375 874.95 82.35 874.612890625 81.56328125 873.25 80.7
L 869.95 78.55
Q 867.55 77 866.45 76.5
L 862.8 74.7
Q 862.4962890625 74.548046875 862.15 74.45 861.7556640625 74.1779296875 860.9 73.75 860.2 73.35 858.9 72.4 857.6 71.45 856.9 71.05
L 855.4 70.3 850.8 67.25
Q 846.8 64.55 844.7 63.35 843.7 62.7 842.95 62.65 842.726953125 62.65 842.5 62.65 840.5203125 61.352734375 838.3 60.15 836.85 59.3 831.4 56.35
L 820.8 50.65
Q 818.15 49.25 814.8 47.75
L 813.25 47.05
Q 812.405078125 46.6275390625 811.75 46.5 811.3087890625 46.093359375 810.55 45.7
L 800.35 41.05
Q 796.95 39.9 790.85 36.9 790.05 36.5 789.5 36.45 789.058984375 36.41328125 788.65 36.6 787.9228515625 36.261328125 787 35.8 785 34.85 784 34.45 783.8 34.35 781.2 33.55
L 772.35 30.45
Q 768.7 29.1 767.55 28.45 766.5 27.85 766.15 27.8 765.641015625 27.7412109375 765.2 27.85
L 763.45 27.35
Q 762.15 26.95 761.95 26.85
L 760.9 26.3
Q 759.8 25.95 759.2 25.75 758.8 25.65 757.2 24.9 755.8 24.3 753.55 23.65 750.35 22.75 749.85 22.6 748 21.9 747.35 21.75 745.65 21.5 744.85 21.35 744.6 21.3 742.95 20.9 739.25 19.8 737.4 19.3 734.15 18.35 731.85 17.85
L 729.45 17.3
Q 726.9 16.6 725.65 16.25 723.4 15.7 721.8 15.75 721.7578125 15.753515625 721.7 15.75
L 721.7 15.75
Q 720.8 15.3 718.75 15.2 715.85 15.05 713.25 14.55
L 706.4 13.5
Q 704.55 13.1 700.8 12.9 696.55 12.7 692.2 12.6
L 679.7 12.55
Q 674.6 12.55 672.1 12.75 671.28359375 12.82421875 670.8 12.95 670.2095703125 12.708203125 669.2 12.8
L 660 13.05
Q 659.7 13.1 650.95 14.1
L 646.25 14.7
Q 642.95 15.45 641.3 15.75 639.3990234375 16.062109375 638.45 16.2 637.823046875 16.115625 636.95 16.25 633.35 16.6 628.35 17.5
L 617.5 19.55
Q 611.55 20.8 608.3 21.65
L 598.1 23.85
Q 596.2 24.35 592.4 25.55 591.8775390625 25.7380859375 591.45 25.9 591.185546875 25.9568359375 590.85 26.05 589.8 26.4 589.25 26.55
L 587.5 26.95
Q 587 27.1 584.5 27.95 581.5 29 576.4 30.45 570.25 32.2 568.3 32.8
L 565.15 33.85
Q 556.3 36.9 552.25 38.95 551.67421875 39.237890625 551.3 39.5 551.1490234375 39.483984375 550.95 39.5 550.45 39.5 549.8 39.75 549.1 40.1 548.7 40.25 548.2 40.5 546.75 40.95 545.05 41.45 542.25 42.7
L 523.3 50.85
Q 518.35 53.05 517.85 53.3 515.2 54.6 510.65 57.2 505.55 60.05 503.45 61.15
L 492.4 67.1 492.4 67.1
Q 491.887109375 67.2046875 491.35 67.55 486.6 69.85 481.85 73.05
L 480.55 73.85 479 74.5
Q 478.15 74.8 476.95 75.45
L 470.85 78.8
Q 469.5 79.55 468.85 80
L 459.9 85.75
Q 459.346875 86.101953125 458.95 86.4 458.48359375 86.509765625 457.5 87.1
L 443.4 96.55
Q 441.05 97.85 439.9 98.65 438.2 100 437.25 100.65
L 435.85 101.5
Q 434.85 102.1 430.45 105.3 429.2 106.3 429 106.5
L 427.4 107.85
Q 426.2 108.9 423.7 110.6 421.1 112.4 420 113.35
L 419.5 113.7 418.75 113.9
Q 417.25 114.25 416.4 115.4 415.9 116.2 415.6 116.5 415.25 116.9 414.25 117.5 413.35 118.1 413 118.55 412.88046875 118.733203125 412.8 118.9 412.2787109375 119.208203125 411.65 119.8 410.55 120.9 410.3 121.1
L 409.05 121.9
Q 408.5 122.25 407.3 123.25 406.65 123.8 403.85 125.7 401.7 127.15 400.55 128.3 399.05 129.9 398.25 130.65
L 395.95 132.65
Q 395.7 132.9 394.45 134.25 393 135.85 391.35 137.05 390.25 137.9 389.7 138.3 388.7 139.05 388.15 139.65 387.4 140.55 387.2 140.7 386.5 141.1 386.2 141.3 384.2 142.4 382.8 144.45 381.9 145.95 381.45 146.3 380.2 147 379.7 147.5
L 378.85 148.4
Q 378.6 148.65 377.65 149.25 376.45 150.05 375.9 151.1 375.458984375 151.737109375 375.35 152.35 374.028515625 153.0322265625 373.35 154.05
L 372.5 155.4 371.15 156.6
Q 369.95 157.6 369.3 158.45 368.15 160.05 367.5 160.8 367.3 161.1 365.3 163.2
L 361.4 167.6
Q 359.6 169.85 358.95 170.5 358 171.45 357.85 171.65 357.2568359375 172.3419921875 357.15 172.95
L 356.75 173.3
Q 355.9 174.05 354.6 175.85 351.5 180.1 349.85 182.75
L 349.05 183.95 348.4 184.7
Q 347.25 186.1 345.7 188.55 343.6 191.9 343.2 192.5
L 342.2 194
Q 341.6 194.7 341.35 195.3 341.29375 195.4287109375 341.25 195.55 340.7224609375 195.894140625 340.25 196.45 339.85 196.95 339.05 198.4 336.6 203.2 335.4 204.95
L 334.4 206.5 333.85 207.8
Q 333.65 208.3 332.8 209.7 330.45 213.6 329.1 217.1
L 328.45 218.55
Q 328.15 219.15 327.45 220.25 327.1958984375 220.7580078125 327.15 221.2 326.9349609375 221.480859375 326.7 221.85 325.95 223.75 325.55 224.7 324.95 226.15 323.3 228.9 322.85 229.8 322.05 231.75 321.85 232.25 321 233.8 320.45 234.9 319.8 236.85 319.05 239.2 318.75 239.9 317.9 241.95 317.75 242.5 317.7 242.6 317.3 244.4
L 315.95 248.6
Q 315.05 251.2 314.45 252.4 313.65 254.1 313.65 254.7
L 313.85 254.7
Q 313.38515625 255.46171875 313.05 256.4
L 308.85 271.3
Q 308.35 272.75 307.95 274.4 307.5841796875 275.7416015625 307.75 276.65 307.428515625 277.1400390625 307.2 277.8 306.65 279.35 306.2 281.9 305.6 285.55 305.5 286.05
L 304.9 289.6
Q 304.9 289.7 304.6 291.45
L 303.7 295.7
Q 303.4169921875 297.030078125 303.45 297.95 303.2771484375 298.516015625 303.1 299.65 303 300.3 302.65 301.55 302.15 303.55 301.75 307.65
L 301 317.2 300.6 319.05
Q 300.53203125 319.89921875 300.65 320.4 300.509375 320.780078125 300.4 321.3 300.1 322.5 300.1 324.35
L 300.2 326.8 300 328.6
Q 299.6 332.1 299.6 337.8 299.6 338.35 299.5 338.6
L 299.15 339.4
Q 298.85 340 298.85 341.05 298.8 342.2 299 344.2 299.25 346.5 299.25 347.4 299.3 348.4 299.3 350.45 299.3 350.937890625 299.3 351.35 299.2 351.9087890625 299.2 352.75
L 299.15 355.3
Q 299.05 357.95 299.25 359.85
L 299.4 361.3
Q 299.5 362.35 299.45 365.3 299.4 367.8 299.7 369.3 299.75 369.75 300.05 370.9 300.3 371.95 300.35 372.55 300.45 373.65 300.4 375.9 300.65 377.9 300.65 378.1
L 300.5 378.95
Q 300.4 380.05 300.75 380.8
L 301.05 381.5
Q 301.15 381.75 301.15 382.35
L 301.25 383.75
Q 301.0689453125 384.348828125 301.15 385.2 301.25 386.5 301.7 389 302.15 391.55 302.25 392.8 302.4 395.1 302.4 395.15
L 303 399.45
Q 303.1 399.95 303.45 401.2 303.75 402.3 303.85 402.95 304 403.85 304.05 405.75 304.1 406 304.5 407.65 304.96640625 409.8544921875 304.85 412.85 304.7150390625 412.767578125 304.55 412.7 304.15 412.55 303.55 412.55 302.85 412.55 302.5 412.5 301.85 412.5 300.9 412.35 299.55 412.2 299.25 412.15
L 292.8 412.15
Q 291.35 412.3 287.8 413.35 286.95 413.65 286.2 413.8
L 284.8 414.05
Q 283.65 414.3 282.3 415.15 281.45 415.65 280.85 416.2
L 279.8 417.35
Q 278.75 418.65 278.7 419.8 278.65 420.5 278.8 421.4
L 280.15 427.55
Q 280.6783203125 429.25 281.3 431 281.3 431.122265625 281.3 431.25 281.25 431.85 281.75 432.95 282.85 435.4 284.05 438.75
L 284.5 440
Q 284.7 440.45 285.4 441.75
L 288.55 446.85
Q 288.95 447.55 289 447.9
L 289.15 448.65
Q 289.3 449.25 290.25 450.1 290.4 450.2 291.75 451.7 292.7 452.65 293.4 453.15
L 299.05 456.15
Q 302.3 457.85 304.4 458.25 305.62421875 458.4767578125 306.65 458.2 307.1126953125 458.3359375 307.85 458.4 311.6 458.6 317.25 458.4 321.1 458.3 322.9 457.65 323.45 457.5 324.45 457 327.45 455.65 328.8 454.4
L 329.85 453.35
Q 330.1400390625 453.0599609375 330.35 452.75 330.3953125 452.83515625 330.45 452.9 330.75 453.25 331.55 453.75
L 333.25 455.05
Q 333.8 455.45 335.1 456.1 336.35 456.75 336.95 457.2 337.45 457.55 338.4 458.4 339.2 459 340.7 459.75 342.6 460.65 343.15 461 344.45 461.75 346.9 463.6 348.9 465 353.2 467.35 354.3 468 354.85 468.05 354.9013671875 468.05859375 354.95 468.05 355.217578125 468.3451171875 355.6 468.6 355.95 468.85 357.05 469.35
L 361.9 471.75
Q 363.75 472.6 367.1 474.5 370.6 476.5 372.3 477.3 373.6 477.95 376.5 479.15 379.25 480.3 380.7 481.05 382.85 482.15 383.15 482.25
L 386 483.4
Q 387.45 484.05 390.5 485 391.3 485.4 391.8 485.45 391.9529296875 485.4755859375 392.1 485.45 392.4873046875 485.7568359375 393.25 486.1 401.25 489.4 416.75 494.7
L 418.6 495.35
Q 419.55 495.65 422.9 496.55 425.6 497.3 427.2 497.9 428 498.2 428.5 498.25 429.124609375 498.25 429.55 498 430.15625 498.361328125 431.35 498.6
L 434.1 499.45
Q 436.15 500.1 440.2 500.75 444.4 501.45 446.3 501.95
L 449.5 502.8
Q 456.05 504.3 459.5 504.7
L 461.3 504.95
Q 463.05 505.25 464.7 505.85 466.1 506.3 466.75 506.15 467.310546875 506.0736328125 467.7 505.75 468.1728515625 505.9646484375 468.85 506.1 471.9 506.8 473.9 507.05 475 507.15 477.15 507.25 477.45 507.3 480.2 507.7 482.05 507.95 483.25 507.9 484 507.9 484.35 507.95
L 485.2 508.3
Q 486 508.55 487.2 508.45 490.3 508.35 495.45 508.75 501.55 509.15 503.65 509.2 504.6 509.25 507.95 509.25 510.6 509.3 512.25 509.4 514.05 509.5 514.8 509.05 514.82734375 509.03125 514.85 509 515.3587890625 509.15 516.25 509.15 520.7 509.3 525.1 509.3 528.1 509.3 530.2 509.05
L 532.1 508.8
Q 532.24375 508.78203125 532.35 508.75 533.0875 508.685546875 533.75 508.6 535.3615234375 508.4201171875 536.8 508.3
L 536.85 508.3
Q 537.621875 508.225 538.35 508.15 538.8626953125 508.1298828125 539.35 508.1
L 540.15 508.05 542.35 507.85 542.45 507.85 543.5 507.8
Q 545 507.6 547.95 507.1
L 550.35 506.9
Q 551.65 506.8 554.25 506.4 555.15 506.3 555.55 506.1 555.83046875 505.9396484375 556 505.75 556.302734375 505.726953125 556.6 505.7
L 557.9 505.45 567.4 503.9
Q 569.1 503.5 572.3 503.05 575.7 502.55 577.2 502.2 578.95 501.8 582.35 500.9
L 593.2 499.25
Q 594.4 499.15 595.05 498.7 595.3783203125 498.8 595.75 498.8 595.7982421875 498.8048828125 595.85 498.8 596.365625 498.8306640625 597.45 498.65
L 608.45 496.5
Q 608.8923828125 496.4349609375 609.4 496.3 610.7005859375 496.0830078125 612.45 495.6 612.7828125 495.5359375 613.1 495.45 616.35 494.6 617.75 494.35 618.4521484375 494.2095703125 618.95 494 619.7439453125 493.7611328125 620.15 493.4 620.866796875 493.5947265625 622.05 493.35 625.6 492.75 632.1 490.95
L 633.6 490.5 641.35 488.4
Q 642.4224609375 488.0771484375 643.8 487.6 648.5255859375 486.0427734375 656.95 482.85
L 668.3 478.4
Q 669.3 478.05 669.85 477.55 669.916796875 477.483203125 669.95 477.4 670.5771484375 477.217578125 671.45 476.75 672.45 476.25 675.65 475.2 677.2 474.7 680.3 473.5 683.35 472.3 684.5 471.75
L 687 470.35
Q 688.65 469.45 693.1 467.4 694.8 466.7 695.6 466.25
L 697.9 464.8
Q 699.2 463.9 702 462.4 703.58671875 461.674609375 704.05 460.9 704.5130859375 460.719921875 705.2 460.35 707.15 459.1 709.15 458.25
L 710.55 457.6 710.95 457.35 712 456.7
Q 712.75 456.2 714.35 455.4 714.95 455 716.15 454.15
L 717.85 453.35
Q 720.6 452.1 724.2 449.35 725.11015625 448.6673828125 725.85 448.1 729.873046875 445.101171875 730.25 444.85 731.5423828125 444.0005859375 732 443.2 732.371875 442.9806640625 733.05 442.45 733.65 441.95 734.6 441.45
L 736.75 440.2
Q 737.85 439.5 738.05 439.2
L 738.1 439.15
Q 738.3927734375 439.1265625 738.7 439
L 739.9 438.3 740.45 437.6
Q 740.9986328125 437.4154296875 741.25 437.2 741.5431640625 436.95859375 741.7 436.65 742.230078125 436.3513671875 743 435.7 743.95 434.9 746.05 433.6 748.15 432.3 749.1 431.5
L 750.3 430.5
Q 752.05 429 756.15 426.1 760.05 423.35 761.95 421.65
L 763.25 420.5
Q 763.5 420.3 764.55 419.6 765.35 419.1 765.8 418.65 766.35 418.1 767.25 416.95 767.8 416.35 768.65 415.95 769.1 415.7 770.1 415.2 770.4623046875 414.894921875 770.65 414.55 770.7701171875 414.5685546875 770.9 414.6 771.2 414.6 771.4 414.75 771.75 414.9 771.85 415.1 772.2 415.45 772.3 416.2 772.35 416.6 772.45 417.45 772.55 417.95 773.1 419.2 773.55 420.45 774.15 423 774.2978515625 423.4251953125 774.45 423.75 774.2322265625 424.3970703125 774.5 425.1 774.6 425.45 774.85 426.05 774.9 426.25 774.9 427.25 774.8 428.6 775.3 431.15 775.8 433.85 775.8 435.05 775.8 436.5 775.9 436.75 776.25 437.9 777.85 438.35 778.65 438.6 780.4 438.9 780.6724609375 438.981640625 781.05 439.1 781.5404296875 439.524609375 782.55 439.8 788.2 441.55 793.95 442.45
L 798.35 443.05
Q 800.4 443.35 801.3 443.4
L 803.6 443.45
Q 810.1341796875 443.3796875 813.7 443.2 815.2537109375 443.1744140625 816.25 443.1 817.3 443 817.6 442.85 817.6787109375 442.8142578125 817.75 442.75 817.825 442.7630859375 817.9 442.75 818 442.75 819.75 442.3
L 821.85 442
Q 831.8 440.9 838.1 438.35
L 839.15 437.95
Q 840.7 437.55 840.75 437.5 841.65 437 841.8 436 841.9 434.95 841.1 434.3 841.276171875 433.7080078125 841.65 432.25 842.05 430.5 841.7 429.65 841.55 429.4 841.55 429.25
L 841.65 428.95
Q 842.4 427 843.45 425.2 843.9 424.35 844.6 423.4
L 847.3 420.15
Q 849.55 417.7 850.65 416.9 851.3 416.45 853.35 415.3 856.15 413.7 856.9 413.05 858.35 411.9 858.5 411.8
L 859.95 411
Q 861.35 410.2 862.3 408.55 862.8 407.75 863.2 407.4 863.45 407.2 864.05 406.85 864.65 406.55 864.9 406.3 865.444921875 405.755078125 865.5 405.1 865.6763671875 405.001953125 865.85 404.85 867.6 403.4 867.8 402.3
L 867.85 401.55
Q 867.9 401.25 868.1 400.95
L 869.25 398.3
Q 869.65 397.25 869.75 396.85 869.85 396.35 869.85 395.3 869.75 391.6 869.4 390.2
L 868.45 386.2 867.85 384.95
Q 867.35 383.95 867.25 383.75 866.8275390625 383.13984375 866.35 382.85 866.2443359375 381.9689453125 865.35 381 863.85 379.6 863.2 378.85
L 861.8 377.15 860.4 375.9
Q 859.2 374.7 858.9 374.45 858.4 374.05 857.2 373.4 856.05 372.75 855.55 372.3 854.75 371.55 854.3 371.2 853.55 370.6 852.85 370.55
L 852.8 370.55
Q 852.5 369.6904296875 852.5 368.2 852.6 365.9 852.8 363.65
L 852.95 361.25
Q 852.95 359.1 852.8 357
L 852.6 352.2
Q 852.35 349.8 852.2 349.2 852 348.5 851.5 347.55 850.95 346.55 850.7 346 849.85 343.95 849.4 342.95 848.6 341.15 847.65 340.15 846.4 338.8 844.25 337.95 843.5859375 337.6806640625 843 337.55 843.0078125 337.4865234375 843 337.4 843.060546875 337.376953125 843.1 337.35 843.65 337.05 844.35 335.7 847.4 329.5 850.15 326.05 851 324.95 851.2 324.6
L 851.75 323.5
Q 852 322.95 852.6 322.05
L 853.9 320.1
Q 854.65 319 855 318.2
L 857.55 313.5
Q 858.8 311.1 859.85 309.55 860.55 308.55 860.7 308
L 860.3 308 868.55 294.7
Q 870.45 291.55 871.1 290
L 872.45 286.7
Q 873.25 285.25 873.55 284.55 873.65 284.35 874 283.4 874.3 282.65 874.55 282.25 875.35 281.2 875.45 281 875.621484375 280.558984375 875.6 280.2 875.718359375 280.076171875 875.8 279.95 876.25 279.4 876.95 278.1 878.9 274.6 879.3 272.75
L 879.5 271.85 880 271
Q 880.25 270.55 880.55 269.65 880.85 268.65 881.05 268.25 881.8 266.95 882.05 266.25 882.2 265.95 882.4 265.2 882.55 264.5 882.75 264.15
L 883.45 262.9
Q 883.5365234375 262.6296875 883.55 262.35 884.1513671875 261.81171875 884.7 260.25 885.9 256.6 887.25 253.05
L 891.4 242.9
Q 891.95 241.5 891.75 240.85
L 891.65 240.85
Q 891.7478515625 240.6857421875 891.8 240.55
L 894.9 232.4
Q 895.35 231 895.4 230.5 895.45 229 895.55 228.25 895.65 227.65 896.05 226.3 896.45 225.05 896.55 224.35
L 896.7 223.15
Q 896.75 222.95 897.4 221.2 897.865625 220.0357421875 897.65 219.25 897.76796875 218.8064453125 897.85 218.2 898 216.95 898.65 214.85 899.4 212.45 899.55 211.45
L 899.9 209.1
Q 900.05 208.1 900.55 206.2
L 901.3 203.4
Q 901.75 201.75 901.65 200.7 901.5798828125 200.20859375 901.35 199.8
L 901.85 198.5
Q 902.55 196.65 902.25 195.55
L 902.05 194.95 902.15 192.45
Q 902.2 191.75 902.4 190.7 902.75 188.95 902.75 188.9 902.85 188.5 902.95 186.4
L 903.25 178.95
Q 903.35 176.55 903.55 175.35 903.8 173.65 903.55 173
L 903.45 173 903.7 164.45
Q 904 163.2 904.05 162.55 904.2 161.55 904 160.15
L 903.7 158.8
Q 903.4 157.95 903.4 157.85 903.35 157.55 903.45 156.9 903.55 156.05 903.6 154.7 903.6 153 903.65 152.5 903.75 151.3 903.55 150.7 903.4908203125 150.537109375 903.4 150.4 903.37734375 149.865625 903.25 149.05 903.1 147.75 903 145.1
L 902.75 136
Q 902.75 135.380078125 902.65 134.9 904.4830078125 134.003125 905.35 133.1 905.95 132.5 906.95 131.25 907.55 130.55 908.95 129.3 909.7 128.55 910.5 127.3 913.3 123.2 914.45 121.05 914.728515625 120.5451171875 914.85 120.1 915.3791015625 119.66953125 915.85 118.8 916.45 117.8 917.35 115.8 918.35 113.7 918.85 112.8
L 919.85 111.2
Q 921.25 108.75 921.65 105.75
L 921.8 104.6
Q 921.84921875 104.55078125 921.9 104.5 922.25 104.1 922.55 103.1 923.2 101.05 923.35 98.75
L 923.55 94.2
Q 923.638671875 93.401953125 923.5 92.75
L 923.55 92.2
Q 923.55 90.7 923.5 90.4 923.45 89.45 923 88.15 922.15 85.45 920 80.65 919.4 79.35 919 78.8 918.5 78.05 917.65 77.2 915.65 75.1 914.5 74.3 913.8 73.9 913.5 73.6
M 707.3 105.65
L 709.5 105.3
Q 717 104.3 720.9 104.15 723.25 104.05 728 103.95 729.7 103.85 730.55 103.9 731.6 104 733.65 104.5
L 735.75 104.65
Q 735.8953125 104.65 736 104.65 736.471875 104.78203125 737.05 104.85 739.4 105.1 740.1 105.3
L 742.1 106.1
Q 742.9 106.35 744.55 106.65 746.25 107 749.55 108.25
L 751.45 108.75
Q 758.5 110.5 763.5 113.85 764.6 114.6 765.2 114.7 765.333203125 114.7212890625 765.45 114.7 765.5669921875 114.8435546875 765.7 114.95 765.9 115.1 766.75 115.6 767.15 115.9 767.9 116.7 768.3 117.1 770.4 118.45 771.6 119.2 775.15 122.05
L 777.1 123.75
Q 779.85 126.1 780.4 126.65
L 786.25 132.65
Q 786.4 132.8 787.15 133.95
L 788.9 136.45
Q 789.044921875 136.6671875 789.1 136.75 789.27734375 136.9484375 789.75 137.55 791.5 139.45 793.95 144.15
L 796.6 149.5
Q 798.45 153.45 798.85 154.6 799.35 156.25 800.05 159.55
L 800.75 164 801.35 166.3
Q 801.6396484375 167.45859375 801.8 168.9 801.2810546875 169.0189453125 800.85 169.45 800.45 169.95 800.2 170.15 799.75 170.45 799.55 170.6 796.95 172 793.75 173.9 792.65 174.65 792.4 174.85 791.9791015625 175.3310546875 791.75 175.75 791.383984375 175.960546875 790.95 176.25 789.35 177.25 789.15 177.35 786.5 178.6 785.35 179.5 783.8 180.75 783.65 180.85 782.4 181.3 781.8 181.55 780.6 182.05 779.2 183.2 777.65 184.5 777.35 184.7 776.5 185.35 775.45 185.9
L 769.25 189.4
Q 768.0078125 190.1541015625 767.55 190.7 766.91953125 190.875 766.1 191.55 763.5 193.4 760.95 194.75
L 758.9 195.9
Q 756 198 754.4 198.75 753.05 199.3 752.65 199.7 752.5748046875 199.7689453125 752.5 199.85
L 752.45 199.85
Q 751.1 199.9 748.9 201.4 744.85 204.2 744.8 204.25 742.4 205.8 740.4 206.6 738.45 207.35 738 208.15 737.916015625 208.2759765625 737.85 208.4 731.15 211.7 725.25 215.05
L 718.9 218.6
Q 717.90625 219.115234375 717.45 219.6 717.3578125 219.704296875 717.3 219.8 716.6404296875 219.966796875 716.1 220.25 715.9 220.35 714.7 221.15 713.95 221.65 712.85 222.2
L 698.1 229.85
Q 696.6763671875 230.5388671875 696 231.3 695.3171875 231.4744140625 694.45 231.95 692.3 233.15 691.25 233.75 689.3 234.85 687.95 235.4 684.5 236.8 683.95 237.15 682.65 238.1 681.9 238.35 680.7 238.65 680.1 238.85 679.25 239.15 677.65 240.65 677.2333984375 241.115625 677 241.4
L 676.15 240.85
Q 674.6 239.4 673.85 238.65 672.45 237.4 671.2 237 670.7947265625 236.8263671875 670.35 236.8 669.686328125 236.1015625 668.85 235.15 667.2 233.25 666.5 232.55 665 231.05 664.25 230.3 662.9 228.95 662.15 227.85 661.5 226.75 661.1 226.45 660.5552734375 226.0654296875 660 226.05 659.671875 225.373828125 659.4 225 658.55 224.15 658.1 223.65 657.8 223.3 657.3 222.4
L 652.9 214.2
Q 652 212.7 651.6 212.25 651.2853515625 211.8724609375 650.95 211.6 650.83125 211.2455078125 650.5 210.5
L 650 209.05
Q 648.95 206.95 648.6 205.85 648.25 204.15 647.95 203.3 647.85 203 647.7 202.95 647.6703125 202.9203125 647.6 202.9 647.5109375 202.85 647.3 202.85
L 647.15 202.85
Q 646.99375 202.3623046875 646.9 202.05
L 646.85 200.95
Q 646.75 199.85 646.55 198.8
L 646 196.85 645.8 195.55
Q 645.45 194.7 645.3 194.25 645.05 192.65 644.6 192 644.5505859375 191.920703125 644.5 191.85
L 644.5 191.8
Q 644.6 191 644.6 190.6 644.65 189.9 644.5 189.45
L 644.25 188.75
Q 644.15 188.4 644.15 187.75
L 644.05 183
Q 643.95 180.45 644.2 178.7 644.4 177.6 644.45 177.05 644.55 176.1 644.35 175.4 644.35 175.2 644.2 175.05 644.169921875 175.019921875 644.1 175 644.009765625 174.95 643.8 174.95
L 643.65 174.95
Q 644.5 171.92734375 644.5 170.55
L 644.45 168.65
Q 644.5 168.35 644.85 166.7 645.45 164.05 646.1 161.9
L 646.6 160.05
Q 646.9 159 647.1 157.6 647.230859375 156.7935546875 647.2 156.15 647.44375 155.8310546875 647.6 155.3 650.3 149.25 650.85 148.2 651.55 146.85 652.7 144.95
L 653.3 143.75
Q 653.3955078125 143.3677734375 653.4 143.05 653.61328125 142.762109375 653.85 142.4
L 655.95 139
Q 656.65 137.8 657.1 137.25 657.8 136.5 659.3 135.15 659.9 134.55 660.8 133.25
L 662.7 130.3
Q 662.7232421875 130.260546875 662.75 130.2 663.4119140625 129.94140625 664.05 129.25
L 665.05 128 665.95 127.2
Q 666.2 127 668.4 124.5 670.85 121.75 674.95 119.25 676.3 118.4 676.6 118.15
L 677.9 117
Q 678.2296875 116.7435546875 678.45 116.5 678.805078125 116.470703125 679.15 116.35 680.55 115.95 681.45 115.1 682 114.7 683.05 113.8 683.85 113.35 685.55 112.8 686.1 112.5 687.1 111.75 687.7 111.35 688.8 111
L 703.35 106.1
Q 703.8771484375 105.98828125 704.25 105.85 704.7537109375 106.05 705.45 106.05 705.65 106.05 707.3 105.65
M 759.5 247.25
Q 759.5552734375 247.317578125 759.6 247.35 758.63984375 247.8724609375 758.05 248.15 758.7763671875 247.7095703125 759.5 247.25
M 794.75 351.7
L 794.7 351.75
Q 794.666796875 351.75703125 794.6 351.75 794.6880859375 351.725390625 794.75 351.7
M 405.8 275.9
L 407.4 275.55
Q 408.6 275.3 410.95 274.5 413.1 274 416.75 273.8 423.3 273.5 427.15 273.85
L 431.2 274 435.7 274.9
Q 437.65 275.35 437.7 275.35 438.283203125 275.3966796875 438.7 275.3 438.9076171875 275.3859375 439.1 275.45 439.4 275.55 440 275.7
L 440.6 276
Q 440.9 276.2 442 276.4 443.3 276.65 445.8 277.7
L 447.95 278.3 454.05 280.9 455.5 281.3 456.95 281.95 457.8 282.5 458.45 283.25
Q 458.95 283.85 460 284.3 460.6 284.6 461.8 285.1 462.15 285.3 462.8 285.65 462.95234375 285.726171875 463.1 285.75 463.2681640625 285.9564453125 463.5 286.1
L 464.05 286.45
Q 464.35 286.65 464.9 287.5 465.5 288.35 466.25 288.75
L 467.25 289.25
Q 467.7 289.5 468.7 290.3 469.55 291.05 469.7 291.2
L 470.25 291.95
Q 470.6 292.35 471.4 292.9 472.25 293.5 472.55 293.8 472.95 294.2 473.6 295.05 474.25 295.8 475.7 297.1 476.1 297.5 476.2 297.75 476.35 297.95 476.5 298.4 476.7 298.9 477.25 299.5
L 478.15 300.5
Q 478.4 300.85 479.1 302 479.65 302.95 480.1 303.45 480.5 303.9 481.3 304.65
L 487.3 314.55 487.7 314.55
Q 487.7728515625 314.968359375 487.95 315.5
L 488.4 316.8
Q 488.85 318.15 489 318.45
L 490 320.6
Q 490.25 321.15 490.7 322.6
L 492.05 327.45
Q 492.45 328.95 492.5 329.2 492.7 330.25 492.8 332.3 492.95 334.45 493.1 335.4
L 493.2 335.9
Q 492.3 336.2 491 337.1
L 490.4 337.55 486.75 339.4
Q 484.55 340.6 482.05 342.1
L 477.55 344.8
Q 477.1642578125 345.0357421875 476.9 345.2 476.5640625 345.205078125 476.2 345.3 475.75 345.45 474.8 346.05 473.75 346.75 471.55 347.85 469.3 348.95 468.3 349.6 465.75 351.3 465.65 351.35 464.35 351.95 463.75 352.35 463.7005859375 352.3806640625 463.65 352.4 463.37734375 352.4927734375 462.6 352.95
L 458.75 355.3
Q 457 356.45 455.7 357 454.3 357.65 454 357.85 453.65 358.05 452.9 358.7 452.25 359.3 451.8 359.5
L 450.7 359.9
Q 450.6 359.95 449.3 360.8 448 361.7 445.75 362.5 444 363.15 443.6 363.9 443.4720703125 364.2326171875 443.35 364.4 442.7716796875 364.5736328125 442.05 365
L 431.9 370.8
Q 431.3966796875 371.083984375 431 371.35 430.7685546875 371.410546875 430.5 371.5 430.1 371.65 429.4 372.15 428.6 372.65 426.85 373.35 425.15 374 424.35 374.5
L 422.95 375.55 412.05 381.85
Q 411.09296875 382.4154296875 410.75 382.8 410.194140625 383.10625 409.45 383.65
L 407.7 384.7
Q 405 386.3 403.6 387
L 401.15 388.15
Q 400.4 388.5 398.9 389.4
L 397 390.5
Q 394.15 392.1 391.8 393.65
L 388.2 396.45
Q 387.4 397 385.5 397.95 383.65 398.85 382.75 399.45
L 381.25 400.6
Q 380.56015625 401.151953125 380.2 401.5 379.553125 401.0859375 379.15 400.75 378.2 399.9 377.9 399.8 377.634765625 399.6552734375 377.35 399.6 375.3361328125 397.84609375 374.3 396.9 372.3 395.05 371 393.6
L 370.05 392.45
Q 369.35 391.35 369.05 391.15 369.0150390625 391.11953125 368.95 391.1 368.96484375 391.070703125 368.95 391.05
L 368.75 390.65
Q 368.65 390.4 368.6 390.3 368.3 389.65 367.55 389.3 367.281640625 389.1849609375 367 389.15 365.0421875 386.4064453125 363.75 384.4
L 363.05 383.25
Q 362.55 381.9 362.35 381.6 361.996484375 381.128515625 361.5 380.95
L 361.5 380.95
Q 361.3 380.1 360.7 378.95 359.7 377 358.35 374.95
L 357.95 374.25 357.3 372.7
Q 355.8 368.35 354.55 363.25 354.25 362.05 354 361.45
L 353.5 360
Q 353.35 359.2 353.35 359.15 353.1603515625 358.6759765625 352.8 358.55 352.757421875 358.2990234375 352.65 357.95 352.55 357.45 352.55 356.45 352.3 353.2 352.2 351.55 351.95 348 352.1 344.9 352.2 343.85 352 343.35 351.9908203125 343.3212890625 351.95 343.3 352.3439453125 340.8083984375 352.2 338.6 352 337.3 352 336.6 352 335.9 352.2 334.6 352.4 332.9 352.65 332.1 353.5 330.25 353.8 329.25 354.05 328.3 354.05 326.25
L 354 326 353.9 325.95
Q 354.9232421875 322.633984375 355.5 321 356.5 318 357.7 316 358.85 314 358.9 313.85 359.1201171875 313.140625 359.1 312.55 359.2169921875 312.3439453125 359.35 312.1 360.45 310.1 361.9 307.85
L 365.9 302.1
Q 366.1 301.9 366.65 301.45 367.1 301.05 367.3 300.75 367.503125 300.438671875 367.6 300.1 367.6490234375 300.0908203125 367.7 300.05
L 369.55 298.4 370.55 297.2
Q 371 296.65 372.1 295.75 372.7 295.1 373.9 293.75 374.4 293.25 375.95 292.15 377.25 291.15 377.85 290.45 377.95 290.3 378.65 289.3 379.15 288.6 379.55 288.25
L 383.45 285.85
Q 384.4 285.2 384.65 284.85 384.7646484375 284.6912109375 384.85 284.5 385.306640625 284.330078125 385.75 283.95
L 387.2 282.85
Q 391.9 280.1 394.65 279.05 394.8787109375 278.9642578125 395.05 278.85 395.5529296875 278.9630859375 396.1 278.9 396.85 278.75 398.25 278.15 401.9 276.65 405.8 275.9
M 565.25 344.75
Q 565.85 344.25 566.2 344.05 567.45 343.2 568.2 342.4 568.51953125 342.1109375 568.75 341.8 569.7845703125 341.594921875 570.85 340.7 571.55 340.15 572.95 338.95 573 338.9 574.3 338.15 575.15 337.65 575.55 337.15
L 576.1 336.55
Q 576.4 336.35 577 336.15 577.95 335.8 579.85 334.7 581.65 333.65 582.7 333.3 583.25 333.1 584.4 332.75 584.95 332.55 586 332 587 331.65 587.95 331.4
L 593.5 330.25
Q 595.05 330 598.1 329.2 599.7 328.9 602 328.95 603.3 328.95 605.9 329.05 607.1 329.05 609.45 329.05 611.5 329.05 612.95 329.3
L 615.35 329.75 617.3 329.8
Q 619.6 329.95 623.2 331.3
L 626.25 332.35
Q 627.7 332.85 628.2 333.2
L 629.05 333.8
Q 629.45 334.05 630.3 334.4 630.61796875 334.5310546875 630.85 334.65 630.44140625 334.846484375 630.2 334.95
L 624.9 337
Q 622.8 337.4 622.7 337.45 621.45 337.8 620.75 338.55 620.6 338.7375 620.35 339.2 619.1888671875 339.0505859375 617.5 340.45 616.65 341.15 615.6 342.25 614.9 342.85 614.2 343.95 613.7 344.85 613.35 345.25 613 345.7 612.1 346.45 611.2 347.2 610.85 347.7 610.7 347.9 610.1 349.25 609.95 349.75 609.65 350.1 609.6 350.25 609.05 350.75
L 608.2 351.8
Q 607.4 352.65 605.95 353
L 604.95 353.15
Q 604.5 353.15 604.05 353
L 602.2 352.65
Q 599.8 352.15 598.6 352 595.4 351.65 593.4 352.5 592.45 352.9 592.1 353.4 591.9271484375 353.616015625 591.8 353.9 591.7048828125 353.937109375 591.6 354 591.2 354.2 590.65 354.85
L 590 355.6
Q 589.2 356.5 588.95 357.05
L 588.45 358.35
Q 588.35 358.5 587.7 359.3 587.3 359.8 586.8 360.75 586.1 361.95 585.95 362.2 584.85 363.95 583.45 364.4 583.2 364.5 581.8 364.6 579.95 364.8 579.05 364.8 576.4 364.45 575.05 364.55 573.2 364.7 571.9 365.85 570.35 364.45 567.65 361.25
L 564.25 356.95
Q 563.9 356.5 562.9 355.55 562 354.7 561.6 354.1 560.75 352.4 560 351.85 559.669921875 351.6400390625 559.35 351.55
L 562.6 347.25 563.7 346.4
Q 564.25 345.9 565.25 344.75
M 493.45 354.55
Q 493.35 355.5 492.95 357.4 492.86171875 357.7767578125 492.75 358.2
L 492.95 356.25
Q 492.9947265625 354.5919921875 493.45 352.75
L 493.45 354.55
M 383.8 403.8
Q 383.8197265625 403.8068359375 383.85 403.8 383.8390625 403.8251953125 383.8 403.85
L 383.8 403.8 Z"/>

<path fill="#EE052D" stroke="none" d="
M 584.75 555.65
Q 584.8 555.5 584.85 555.15 584.55 555.28046875 584.3 555.45
L 584.75 555.65
M 575.55 505.9
L 575.75 505.9 576.4 504.8
Q 576.4041015625 504.4947265625 576.3 504.2
L 575.55 505.2 575.55 505.9
M 575.75 504.75
L 575.55 505.2 576.3 504.2 575.75 504.75
M 575.55 505.2
L 575.75 504.75 575.3 505.2 575.55 505.2
M 576.3 504.2
Q 576.2345703125 504.012109375 576.15 503.85
L 575.75 504.75 576.3 504.2
M 545.25 576.55
L 545.2 576.55 545.55 576.9
Q 545.45 576.79296875 545.45 576.65
L 545.25 576.55
M 544.75 576.55
L 544.75 576.6
Q 545.0384765625 576.6 545.15 576.55 544.938671875 576.54921875 544.75 576.55
M 545.6 576.95
L 545.55 576.9 545.2 576.55
Q 545.1880859375 576.57109375 545.15 576.55 545.0384765625 576.6 544.75 576.6
L 545.6 576.95
M 566.25 504.5
Q 565.8 504.6 565 504.6 563.95 504.6 563.75 504.6 563.6 504.6 561.75 505.05 560.3765625 505.3705078125 557.9 505.45
L 556.6 505.7
Q 556.302734375 505.726953125 556 505.75 555.83046875 505.9396484375 555.55 506.1 555.15 506.3 554.25 506.4 551.65 506.8 550.35 506.9
L 547.95 507.1
Q 545 507.6 543.5 507.8
L 542.45 507.85
Q 542.4310546875 507.884375 542.4 507.9
L 542.35 507.85 540.15 508.05
Q 539.9361328125 508.23125 539.75 508.5 539.5615234375 508.7720703125 539.45 509.05 539.5748046875 509.2353515625 539.65 509.45 539.8318359375 510.0412109375 539.6 511.25
L 539.6 511.5
Q 539.552734375 514.1029296875 539.8 519.25 539.9373046875 519.680859375 540.1 520.25
L 540.1 521.8 540.5 523.55
Q 540.65 524.25 540.7 525.85 540.75 527.35 540.95 528.15 541.15 528.9 541.6 530.3
L 541.8 531.85
Q 541.9 532.55 542.3 534.2
L 543.15 536.75
Q 543.4 537.5 543.4 537.75 543.45 538.15 543.35 538.9 543.35 540.084375 544.3 540.7 544.344921875 540.7658203125 544.4 540.8 544.550390625 540.8888671875 544.7 540.95 545.63671875 541.354296875 546.5 540.75 546.831640625 540.51796875 547.05 540.15 547.4701171875 540.0638671875 547.8 539.8
L 548.2 539.4
Q 548.4 539.25 548.9 539.15
L 552.7 538
Q 555.45 537.35 561.9 537.05 563.75 537.05 564.4 537.3
L 565.3 537.6
Q 566.35 537.8 567.05 537.15 567.06953125 537.13046875 567.1 537.1 566.76328125 536.0357421875 567.5 535.25 567.5712890625 535.1828125 567.65 535.1 567.531640625 534.6314453125 567.2 534.25 567.5330078125 533.6681640625 567.75 532.8
L 568.8 528.8
Q 570.45 522.4 571.8 519.5 572.55 517.9 572.55 517.1 572.55 516.85 572.45 516.75
L 572.25 516.7 572.85 515.05
Q 573.25 514.35 573.35 513.95 573.4056640625 513.769140625 573.4 513.6 573.6921875 513.03125 574.05 512.3 574.85 510.6 575.1 509.4
L 575.35 508.2
Q 575.9 506.9 576.15 506.25 576.36015625 505.6896484375 576.4 505.2 576.4208984375 505.008984375 576.4 504.8
L 575.75 505.9 575.55 505.9 575.55 505.2 575.3 505.2 575.75 504.75 576.15 503.85
Q 576.0677734375 503.70234375 575.95 503.55
L 575.05 504 575.95 503.55
Q 575.83671875 503.4189453125 575.65 503.3
L 575.05 503.3 575.65 503.3
Q 575.2607421875 502.998828125 574.65 502.95 573.8888671875 502.85078125 573.3 503.25 572.82265625 503.22734375 572.25 503.35
L 571.2 503.6 569.95 503.5
Q 569.25 503.45 568.1 503.9 566.7 504.4 566.25 504.5
M 707 570.35
Q 707.0294921875 570.21015625 707.15 570.15 707.075 570.1453125 707 570.15
L 707 570.35
M 706.85 570.15
L 707 570.6
Q 706.980078125 570.4607421875 707 570.35
L 707 570.15 706.95 570.15
Q 706.9162109375 570.1521484375 706.85 570.15
M 706.3 570.3
L 706.3 570.6 707 570.6 706.85 570.15
Q 706.5673828125 570.1841796875 706.3 570.3
M 655.25 560.95
L 654.1 561
Q 653.1 561.25 652.55 561.35 651.8 561.55 649.1 561.85 647.5890625 562.02578125 646.55 562.35 646.231640625 562.35 645.85 562.35 644.3 562.3 643.5 562.25 642.05 562.15 641.1 562.35
L 639.75 562.75
Q 638.4 563.05 635.6 563.05
L 619.3 563.05
Q 618 562.95 615.75 562.55 614.65 562.35 614.05 562.45 613.8810546875 562.49921875 613.7 562.55 613.5986328125 562.499609375 613.45 562.45 612.4 562.3 611.85 562.2 611.308984375 562.0796875 610.85 562 610.4650390625 562.120703125 609.9 562.05 609.55 562 608.5 561.7 608.26875 561.65 608.05 561.6 606.85 561.5 606.25 561.35 605.7 561.25 603.5 560.5 602.25 560.1 599.3 559.45 596.15 558.7 588.55 556.15 587.86484375 555.88359375 587.3 555.85 587.1779296875 555.645703125 587 555.5 586.3361328125 554.9060546875 585.55 554.95 585.5517578125 555.2517578125 585.6 555.3 585.5517578125 555.2517578125 585.55 554.95
L 585.5 554.95
Q 585.3861328125 554.9904296875 585.25 555
L 585.2 555
Q 585.0447265625 555.0689453125 584.85 555.15 584.8 555.5 584.75 555.65
L 584.3 555.45
Q 583.7 555.9892578125 583.7 556.95 583.7 557.4 583.9 558.1 584.1 559.3 583.9 560 583.8 560.3 583.6 560.85
L 583.55 561.55 583.3 562.1
Q 582.95 562.75 582.8 564.35 582.7 564.8 582.35 565.6 582.1220703125 566.283984375 582.15 566.8 581.9876953125 566.93046875 581.85 567.1 581.35 568 581.05 568.4
L 580.25 569.4
Q 579.8 569.95 578.5 572.2 578.15 572.85 577.95 573 577.7 573.2 576.6 573.7 576 574.1 575.3 574.75
L 574.5 575.75 573.7 576.35
Q 571.9 577.5 569.95 578.3 568.8 578.8 567.35 579.2 566.25 579.55 565 579.7
L 557.25 579.9 554.75 579.5
Q 552.05 578.95 549.75 578.3
L 548.2 577.8
Q 547.1 577.15 546.5 576.9 546.183203125 576.7759765625 545.9 576.7 546.05 576.95 546 576.75
L 546.35 577.3 547.1 577.95
Q 547.3 578 547.3 578.15 547.3 578 547.1 577.95
L 546.35 577.3 546 576.75
Q 546.05 576.95 545.9 576.7 545.773046875 576.6642578125 545.65 576.65 545.440625 576.5916015625 545.25 576.55
L 545.45 576.65
Q 545.45 576.79296875 545.55 576.9
L 545.6 576.95 546.05 577.55 545.6 576.95 544.75 576.6 544.75 576.55
Q 544.698828125 576.589453125 544.65 576.6 544.5482421875 576.625390625 544.45 576.65 543.8638671875 576.8568359375 543.5 577.3
L 543.25 578.25 543.15 578.9
Q 543.2291015625 579.2259765625 543.4 579.5 543.0845703125 580.062109375 543 580.95 542.8 582.6 542.75 582.75 542.65 583.05 542.15 584.2
L 541.7 585.25
Q 541.5 586 541.5 586.9
L 541.45 587.95 541.25 591 540.95 592.4
Q 540.90234375 592.606640625 540.85 592.8 540.85546875 592.8640625 540.85 592.9
L 540.75 594.55
Q 540.720703125 594.7841796875 540.6 595.6 540.55 596.65 540.5 598.8 540.469921875 599.5232421875 540.35 600.7 540.392578125 600.7244140625 540.4 600.75
L 540.5 601.95
Q 540.5923828125 603.7037109375 540.35 607 540.425 607.1685546875 540.45 607.3 540.355078125 607.6455078125 540.4 608.05
L 540.55 609.4
Q 540.65 609.95 540.55 611.05 540.5 612.65 540.8 615.95
L 541.4 622.4
Q 541.4388671875 622.4259765625 541.45 622.45 541.768359375 623.2685546875 541.6 624.05
L 541.8 626.45
Q 541.9158203125 626.584375 542 626.7 542.35 627.25 542.35 628.9
L 542.3 630.15
Q 542.362109375 630.2984375 542.4 630.45
L 543.1 632.65 544.5 639.1
Q 544.69765625 639.7779296875 544.95 640.1 544.960546875 640.4302734375 545.05 640.75
L 545.5 642.1
Q 545.6 642.55 545.6 643.55 545.7 644.2 546.25 645.5 546.5 646.2 546.85 648 547.35 650.75 549.25 655.7
L 555.4 672.15
Q 555.6 672.8 555.95 673
L 556.15 673
Q 556.2564453125 673.82890625 556.85 674.8
L 557.25 675.45 557.4 676.1
Q 557.55 676.6 558.2 677.9 559.2 679.65 559.8 681.55
L 560.35 683.2
Q 560.85 684.5 562.3 686.85
L 563.4 689.05
Q 563.55 689.4 564.9 691.8
L 568.3 697.65
Q 568.3171875 697.7515625 568.35 697.85
L 568.5 698.25 568.8 698.7
Q 569.25 699.55 569.95 701.3
L 570.2 701.75
Q 570.2744140625 701.8521484375 570.35 701.95 570.423828125 702.2212890625 570.55 702.6 570.8 703.25 570.85 703.6 570.9 704.2 570.6 705.15 570.2 706.35 570.15 706.7 570.1 707 570.1 707.75 570.15 708.35 570.05 708.75 570 709.05 569.5 710.3 568.25 712.85 567.65 713.75 566.6 715.4 566.35 715.95
L 565.55 717.6
Q 565.35 717.95 564.9 718.55 564.5 719.15 564.4 719.6 564.15 720.65 564.75 721.4 565.45 722.25 566.4 722.1 567.55 722.05 568.55 720.55 568.6103515625 720.4552734375 568.65 720.35 568.8458984375 720.4611328125 569.05 720.55 569.5 720.75 570.55 720.75 573.1 720.75 578.25 720.6 582.7 720.6 585.9 721
L 587.7 721.2
Q 589.15 721.25 592.05 720.85
L 597.75 720.85
Q 598.85 720.85 599.3 720.65 599.5791015625 720.5359375 599.8 720.35 600.201171875 720.5 600.65 720.5 602.15 720.65 605.2 720.65 616.15 720.75 627.1 720.65
L 630.15 720.65
Q 631.95 720.6 635.5 720.35 638.65 720.15 640.85 720.35
L 643.85 720.7
Q 645.15 720.85 649.7 720.95 651 720.95 651.6 720.65 651.9765625 720.452734375 652.2 720.15 652.9513671875 720.44375 654.05 720.5 658.3 720.8 668.9 720.8 673.45 720.8 675.7 720.7 678.45 720.65 684 720.35
L 693.3 720.2
Q 720 720.2 725.3 720.25 725.6408203125 720.268359375 725.95 720.25 726.0638671875 720.33515625 726.2 720.4 726.55 720.55 727.4 720.65 728.9171875 720.8396484375 729.75 720.4
L 729.8 720.4
Q 753.1 720.4 776.4 720.55 779.25 720.55 780.65 720.65 781.95 720.75 782.7 720.4
L 782.7 720.4
Q 783.25625 720.55 784.55 720.55 786.15 720.5 790.75 720.7 797.85 721 808.5 721 809.5 721 809.95 720.8 811.1 720.3 811.2 719.05 811.2 718.7212890625 811.1 718.45 811.8076171875 718.086328125 812.25 717.3 812.6 716.7 812.95 715.75 814.25 713 814.65 711.5 814.85 710.7 815.05 710.35
L 815.45 709.7
Q 815.75 709.15 816.1 708.05 816.5 706.9 816.75 706.4
L 818.45 702.75
Q 818.65 702.15 818.85 701.9
L 819.5 701.1
Q 819.65 700.85 819.9 699.75 820.35 697.8 821.45 695.9 822.05 694.85 822.1 694.45 822.1154296875 694.3212890625 822.1 694.2
L 823.45 691.15
Q 823.85 690.15 823.95 689.65
L 824.2 688.55
Q 824.5 687.75 824.65 687.35 824.7134765625 687.1912109375 824.75 687.05 825.03203125 686.65390625 825.25 686 826.15 683.45 826.9 680.9
L 827.4 679.3
Q 827.8 678.4 827.95 677.95 828.023828125 677.7140625 828.05 677.5 828.081640625 677.473046875 828.1 677.45 828.4 677.05 828.7 676.05 829.7 672.45 830.3 670.7 830.7587890625 669.5681640625 830.75 668.75 831.1125 668.138671875 831.35 667.1
L 832.05 663.25
Q 832.75 659.75 832.75 657.85 832.7318359375 657.6685546875 832.7 657.5
L 833.95 648.8
Q 834.05 647.55 833.9 647.1 833.8591796875 646.983203125 833.8 646.85 834.05 646.2513671875 834.05 645.4 833.9 643.7 833.9 642.8 833.85 642.35 833.95 641.35 834 640.4 833.9 637.1
L 833.7 633.1
Q 833.45 629.3 833.3 628.2 832.85 625.4 832.85 624.5 832.85 622.8 832.55 622.3
L 832.15 621.65
Q 832.05 620.95 831.95 620.6 831.93515625 620.4357421875 831.85 620.25 831.9 620.09609375 831.9 619.9 831.9 618.65 831.5 617.8
L 830.95 616.65
Q 830.75 616.2 830.55 615
L 830 613.35
Q 829 611.1 828.7 609.95 828.6154296875 609.31640625 828.5 609 828.421875 608.6982421875 828.3 608.35 826.3 602.6 822.8 597.45 822.2 596.7 821.95 596.05
L 821.65 595.2
Q 821.45 594.7 821.2 594.4 820.45 593.4 819.3 593.65 818.259765625 593.8234375 817.85 594.7 817.7798828125 594.7271484375 817.7 594.75 817.3 594.85 816.4 595.4 814.9 596.3 813.15 596.6
L 812.55 596.7
Q 811.62265625 597.180078125 810.9 597.35
L 807.8 597.8
Q 807.2216796875 597.954296875 806.05 598.1 804.801171875 598.3470703125 803.6 598.5
L 798.9 598.9
Q 797.7 599 797.05 599 795.95 599.1 793.8 599.1 790.6 599.1 788.75 598.65
L 786.75 598.1 785.3 597.9 777.2 595.5 773.9 593.9
Q 772.85 593.45 772.15 592.95 771.1 592.3 770.95 592.25 770.87734375 592.22578125 770.8 592.2 770.544140625 591.665234375 769.9 591.2 769.6197265625 591.044140625 769.35 590.9
L 769.2 590.9
Q 769.0494140625 590.85234375 768.9 590.75 768.5072265625 590.67265625 768.1 590.65 767.6265625 590.5751953125 767.1 590.55
L 767.05 590.55
Q 765.4890625 590.9515625 764.75 591.05 763.5 591.25 761.7 591.15
L 760.4 591.1
Q 759.1212890625 591.341796875 758.4 591.45 756.55 591.75 755.3 591.6
L 753.35 591.35
Q 751.65 591.35 750.8 591.25 750.25 591.2 749.95 591.15 749.45 591.1 749.1 591.2 748.87734375 591.2404296875 748.65 591.3 748.112109375 591.0294921875 746.9 590.85 745.9 590.65 744.15 590.05 743.8833984375 589.95625 743.65 589.85 743.4798828125 589.8599609375 743.35 589.85 741.3 589.7 737.6 588.4
L 735.15 587.55
Q 732.3470703125 586.59453125 730.65 585.5
L 727.3 584.05
Q 726.35 583.7 725.8 583.3
L 724.4 582.45
Q 721.95 581 720.75 580.15 719.828515625 579.51015625 719.1 579.2 718.905859375 579.0318359375 718.65 578.85 715.8 576.75 712.45 574.05
L 710.75 572.6
Q 710.1 571.95 709.5 571.55
L 708.35 570.6
Q 707.825 570.1625 707.15 570.15
L 707.7 571.35 707.95 571.35 707.7 571.35 707.15 570.15
Q 707.0294921875 570.21015625 707 570.35 706.980078125 570.4607421875 707 570.6
L 706.3 570.6 706.3 570.3
Q 705.928515625 570.44375 705.65 570.75 705.0333984375 571.405078125 705.1 572.3 704.9140625 572.40234375 704.75 572.55 704.6 572.7 703.95 573.75 703.35 574.9 702.1 575.9 700.75 576.8 700.1 577.4
L 698.9 578.7 697.65 579.65
Q 695.9 580.9 693.8 581.9
L 692.45 582.55
Q 690.65 583.35 689.4 583.6 688.2 583.8 685.15 583.6 682.25 583.4 680.75 583.45 679.4 583.45 679 583.35 678.9 583.35 676.85 582.6 676.3 582.45 675.1 582.3 674.938671875 582.2865234375 674.8 582.25 674.41640625 582.029296875 673.2 581.4 671.45 580 670.4 579.55 669.9 579.3 669.85 579.25
L 669.6 578.8
Q 669.4 578.45 668.25 577.4 667.15 576.45 665.45 574.05
L 664.35 572.4
Q 662.3 569.1 661.75 565.25 661.5 564.15 661.4 563.95 661.20859375 563.490625 660.9 563.2 661.729296875 562.5001953125 661.5 561.4 661.25 560.2 660.05 559.85 659.8908203125 559.8146484375 659.65 559.8 659.23984375 559.919921875 658.7 559.95
L 658.15 559.95
Q 657.3916015625 560.1576171875 656.45 560.55 655.45 560.95 655.25 560.95
M 708.55 460.45
L 708.45 460.95 708.65 460.55 708.65 460.55
Q 708.6064453125 460.5119140625 708.55 460.45
M 708.45 460.95
L 708.55 460.45
Q 708.5068359375 460.4359375 708.45 460.4
L 708.45 460.95
M 707.8 460.1
L 707.7 460.1 707.45 460.65 708.25 460.25
Q 708.0359375 460.1552734375 707.8 460.1
M 665.7 480.05
Q 664.9 481 665.4 482.2 665.5279296875 482.4556640625 665.65 482.65 665.6376953125 482.770703125 665.6 482.9 665.55 483.15 665.55 484.2
L 664.7 494.4
Q 664.55 495.5 664.65 496.9 664.65 501.1 664.15 503.1 663.75 504.75 663.7 505
L 663.65 506.9
Q 663.65 508 663.7 508.2 663.75859375 508.640234375 663.95 508.95 663.7837890625 509.3455078125 663.7 510.1 663.5 511.55 663.15 516.35 663.05 518.7 663.25 519.85
L 663.5 521.05 663.4 522.3
Q 663.4 522.66484375 663.5 523.25 663.65 523.7138671875 663.65 524.25 663.65 524.3595703125 663.65 524.45
L 663.75 526.25 663.65 527.15
Q 663.6 527.55 663.65 528.2
L 664.1 531.65
Q 664.25 532.2 664.7 533.25 664.75 533.35 665 534.8 665.0703125 535.1162109375 665.15 535.35 664.97734375 536.07734375 665.25 537.35 665.2845703125 537.6263671875 665.3 537.85 665.485546875 538.68359375 665.75 539.25
L 665.8 539.3
Q 666.1 539.85 666.1 539.95 666.3 540.5 666.45 541.65 666.8296875 542.5359375 667.6 542.85 667.74375 542.9109375 667.9 542.95 667.9775390625 542.967578125 668.05 542.95 668.230078125 543.0052734375 668.4 543 668.5826171875 543.00234375 668.75 542.95 669.3123046875 542.866796875 669.75 542.4 669.9333984375 542.203515625 670.05 541.95 670.5447265625 541.8318359375 671.1 541.45 674 539.85 676.55 539 681.7 537.2 685.95 537.6
L 690.95 538.45 693.95 539.55
Q 694.75 539.85 695.1 539.85 695.54453125 539.8994140625 695.95 539.75 695.8560546875 539.56171875 695.8 539.3 695.8560546875 539.56171875 695.95 539.75 696.1255859375 539.6857421875 696.3 539.55 696.5076171875 539.4423828125 696.7 539.25 697.35 538.5 697.2 537.6 697.09375 537.0955078125 696.75 536.65 696.8509765625 536.4064453125 696.9 536.1 696.75 534.95 696.75 534.35 696.7 534 696.95 532.7 697.1 531.65 697.1 530.5
L 697.15 527
Q 697.1 526.6833984375 697.1 526.45 697.0134765625 525.90234375 697.2 525.4
L 697.2 525.05
Q 697.1201171875 523.7205078125 697.2 522.45 697.2291015625 522.391796875 697.2 522.3
L 697.25 522.25
Q 697.3052734375 521.7328125 697.4 521.2
L 697.6 520.05
Q 697.65 519.68515625 697.65 519.6 697.9 518.5 698 517.95 698.1 517.6 698.2 515.85
L 698.4 512
Q 698.4533203125 511.0140625 698.3 510.35 698.38125 510.2509765625 698.45 510.15 698.55 509.95 698.9 509.05
L 699.5 507 699.65 505.7
Q 699.760546875 504.7048828125 699.9 504 699.95 502.7 700.1 502
L 700.6 500.35
Q 700.9 499.4 700.7 498.6 700.6689453125 498.5146484375 700.6 498.4 700.8154296875 498.2466796875 700.95 498 701 497.95 701.25 497.3
L 702.05 494.7
Q 702.1013671875 494.24609375 702.2 493.95 702.255078125 493.7775390625 702.3 493.6 702.2759765625 493.169921875 702.4 492.55 702.5115234375 491.9552734375 702.6 491.45
L 702.65 491.2 702.65 490.25
Q 702.5861328125 489.90546875 702.45 489.6 702.701171875 488.4955078125 702.85 487.9
L 703.2 486.8
Q 703.34453125 486.3763671875 703.45 485.95 703.5828125 485.4685546875 703.75 484.8 704.324609375 482.4607421875 704.9 480.75 705.0091796875 480.327734375 704.9 480 704.866796875 479.7234375 704.75 479.5 704.81796875 479.4482421875 704.85 479.4 705.05 479.15 705.4 477.5 705.5 477.2 706.45 474.55 707.15 472.6 706.9 471.45 706.8 470.95 706.85 470.65
L 707.25 469.1
Q 707.3751953125 468.89296875 707.45 468.65 707.4595703125 468.46015625 707.45 468.3 707.53984375 467.9509765625 707.55 467.65 707.6162109375 467.359765625 707.7 467.15
L 707.85 466.75
Q 708.4 465.5 708.5 464.6 708.5837890625 464.096875 708.5 463.65 709.1109375 463.03984375 709.25 462.4 709.4435546875 461.2875 708.7 460.6
L 708.65 460.55 708.45 460.95
Q 708.5 461.25 708.5 461.4
L 708.5 462 708.5 461.4
Q 708.5 461.25 708.45 460.95
L 708.45 460.4
Q 708.3564453125 460.33359375 708.25 460.25
L 707.45 460.65 707.7 460.1 707.8 460.1
Q 707.3185546875 459.9708984375 706.75 460.1 706.25 460.25 705.15 461.1 703.45 462.4 701.6 463.15
L 700.4 463.65 699.35 464.3
Q 697.5462890625 464.964453125 696.85 465.6 696.53046875 465.8130859375 696.1 466.1 694.7 467.05 692.3 468.1 689 469.6 688.3 469.95 685.75 471.4 684.35 471.95
L 681.45 473.05
Q 677 475.2 674.8 476.25 670.85 478.15 667.95 478.95 666.3 479.35 665.7 480.05 Z"/>

<path fill="#F0D05F" stroke="none" d="
M 540.1 521.8
L 540.1 522.15
Q 540.1 523.2 540.4 525.15 540.75 527.15 540.75 528.1 540.75 528.6271484375 540.65 529.05 540.710546875 529.583203125 541 530.5 541.35 531.55 541.4 532 541.55 532.65 541.55 532.7
L 541.75 533.25
Q 542.2 534.15 542.75 536.7
L 543.35 539.95
Q 543.458203125 540.4634765625 543.45 540.8 543.75 541.264453125 543.75 541.8 543.75 542.4 543.35 542.9 543.1 543.25 542.45 543.65 541.7 544.15 541.45 544.4 541.3 544.55 540.8 545.3 538 549.95 537.1 551.85 536.8357421875 552.340625 536.6 552.65 536.701953125 552.9017578125 536.75 553.15 537 554.45 536.4 556.95 535.8 559.5 535.95 560.75
L 536.4 563.65
Q 536.4 563.78828125 536.4 563.9 537.3625 565.575 538.1 567.05
L 538.35 567.6
Q 538.415625 567.8134765625 538.4 568 538.5798828125 568.1498046875 538.7 568.3
L 539.15 569.05
Q 539.5 569.7 540.2 570.5
L 542.25 573.15
Q 542.3517578125 573.3154296875 542.4 573.45 543.398828125 573.690234375 543.75 574.7 544 575.45 543.75 576.5
L 543.5 577.3
Q 543.8638671875 576.8568359375 544.45 576.65
L 544.45 576.25
Q 544.45 576.15 544.75 576.1
L 544.95 576.55
Q 545 576.4 545.2 576.55
L 545.25 576.55
Q 545.440625 576.5916015625 545.65 576.65 545.773046875 576.6642578125 545.9 576.7 546.183203125 576.7759765625 546.5 576.9 547.1 577.15 548.2 577.8
L 549.75 578.3
Q 552.05 578.95 554.75 579.5
L 557.25 579.9 565 579.7
Q 566.25 579.55 567.35 579.2 568.8 578.8 569.95 578.3 571.9 577.5 573.7 576.35
L 574.5 575.75 575.3 574.75
Q 576 574.1 576.6 573.7 577.7 573.2 577.95 573 578.15 572.85 578.5 572.2 579.8 569.95 580.25 569.4
L 581.05 568.4
Q 581.35 568 581.85 567.1 581.9876953125 566.93046875 582.15 566.8 582.1220703125 566.283984375 582.35 565.6 582.7 564.8 582.8 564.35 582.95 562.75 583.3 562.1
L 583.55 561.55 583.6 560.85
Q 583.8 560.3 583.9 560 584.1 559.3 583.9 558.1 583.7 557.4 583.7 556.95 583.7 555.9892578125 584.3 555.45
L 583.95 555.3 583.45 554.5 583.45 554.05 583.45 554.5 583.95 555.3 584.3 555.45
Q 584.55 555.28046875 584.85 555.15
L 584.4 554.7 585.25 555 585.25 555
Q 585.3861328125 554.9904296875 585.5 554.95
L 585.55 554.95 585.55 554.95
Q 586.3361328125 554.9060546875 587 555.5 587.1779296875 555.645703125 587.3 555.85 587.86484375 555.88359375 588.55 556.15 596.15 558.7 599.3 559.45 602.25 560.1 603.5 560.5 605.7 561.25 606.25 561.35 606.85 561.5 608.05 561.6 606.5375 561.25625 605.75 560.95 604.6 560.45 604.4 560.4
L 603.1 560.2
Q 602.25 559.9 602.15 559.9
L 601.4 559.85
Q 600.85 559.8 599.95 559.5
L 598 558.9
Q 593.45 557.6 592.8 557.45 591 557.05 590.4 556.35 590.2796875 556.199609375 590.15 556.05 590.0466796875 555.982421875 589.9 555.9
L 589.55 555.65 588.8 555.55
Q 587.9 555.4 586.65 554.85
L 583.7 553.55
Q 582.65 553.05 582.35 552.05 582.07890625 551.2755859375 582.45 550.6 580.80859375 547.7484375 578.65 545.05
L 577.65 543.9
Q 577.4 543.65 576 542.5 573.8 540.65 573.1 540.3 571.15 539.55 570.25 539.05
L 569.35 538.6
Q 568.8 538.55 568.55 538.45 567.45 538.2 567.1 537.15
L 567.1 537.1
Q 567.06953125 537.13046875 567.05 537.15 566.35 537.8 565.3 537.6
L 564.4 537.3
Q 563.75 537.05 561.9 537.05 555.45 537.35 552.7 538
L 548.9 539.15
Q 548.4 539.25 548.2 539.4
L 547.8 539.8
Q 547.4701171875 540.0638671875 547.05 540.15 546.831640625 540.51796875 546.5 540.75 545.63671875 541.354296875 544.7 540.95
L 544.7 541.35
Q 544.55 541.4 544.45 541.35 544.35 541.3 544.25 541.05 544.25 540.911328125 544.3 540.7 543.35 540.084375 543.35 538.9 543.45 538.15 543.4 537.75 543.4 537.5 543.15 536.75
L 542.3 534.2
Q 541.9 532.55 541.8 531.85
L 541.6 530.3
Q 541.15 528.9 540.95 528.15 540.75 527.35 540.7 525.85 540.65 524.25 540.5 523.55
L 540.1 521.8
M 697.15 527
L 697.1 530.5
Q 697.1 531.65 696.95 532.7 696.7 534 696.75 534.35 696.75 534.95 696.9 536.1 696.8509765625 536.4064453125 696.75 536.65 697.09375 537.0955078125 697.2 537.6 697.35 538.5 696.7 539.25 696.5076171875 539.4423828125 696.3 539.55
L 696.3 540.2
Q 696.080859375 540.0748046875 695.95 539.75 695.54453125 539.8994140625 695.1 539.85 694.75 539.85 693.95 539.55
L 690.95 538.45 685.95 537.6
Q 681.7 537.2 676.55 539 674 539.85 671.1 541.45 670.5447265625 541.8318359375 670.05 541.95 669.9333984375 542.203515625 669.75 542.4 669.3123046875 542.866796875 668.75 542.95 668.5826171875 543.00234375 668.4 543 668.230078125 543.0052734375 668.05 542.95
L 668.05 543.45 667.6 543.45 667.6 542.85
Q 666.8296875 542.5359375 666.45 541.65 666.3 540.5 666.1 539.95 666.1 539.85 665.8 539.3
L 665.75 539.25
Q 666.1041015625 540.374609375 666.25 541.25 666.35 542.2 666.5 542.65
L 666.8 543.55
Q 666.95 544.05 666.95 544.45 667 545.05 666.6 545.6 666.362890625 545.938671875 666 546.15 665.8791015625 546.6115234375 665.55 547.15
L 663.35 551.3
Q 662.85 552.3 662.7 552.8 662.55 553.2 662.4 554.05
L 661.9 555.6
Q 661.4 556.75 661.35 556.95 661.3 557.25 661.25 557.9 661.2 558.45 661 558.8 660.65 559.53515625 659.65 559.8 659.8908203125 559.8146484375 660.05 559.85 661.25 560.2 661.5 561.4 661.729296875 562.5001953125 660.9 563.2 661.20859375 563.490625 661.4 563.95 661.5 564.15 661.75 565.25 662.3 569.1 664.35 572.4
L 665.45 574.05
Q 667.15 576.45 668.25 577.4 669.4 578.45 669.6 578.8
L 669.85 579.25
Q 669.9 579.3 670.4 579.55 671.45 580 673.2 581.4 674.41640625 582.029296875 674.8 582.25 674.938671875 582.2865234375 675.1 582.3 676.3 582.45 676.85 582.6 678.9 583.35 679 583.35 679.4 583.45 680.75 583.45 682.25 583.4 685.15 583.6 688.2 583.8 689.4 583.6 690.65 583.35 692.45 582.55
L 693.8 581.9
Q 695.9 580.9 697.65 579.65
L 698.9 578.7 700.1 577.4
Q 700.75 576.8 702.1 575.9 703.35 574.9 703.95 573.75 704.6 572.7 704.75 572.55 704.9140625 572.40234375 705.1 572.3 705.0333984375 571.405078125 705.65 570.75 705.928515625 570.44375 706.3 570.3
L 706.3 569.95 706.3 570.3
Q 706.5673828125 570.1841796875 706.85 570.15
L 706.75 569.65 706.75 569.25 707.8 570.25 707.45 569.25
Q 707.18046875 568.889453125 707.05 568.4 706.85 567.6 707.1 566.9
L 707.45 566.15 707.8 563.95
Q 708.1 561.65 708 559
L 707.65 555.95
Q 707.55 555.05 707.35 554.6 707.25 554.35 706.8 553.6 706.45 553 706.4 552.55 706.4 551.95 706.3 551.7 706.2 551.3 705.65 550.65 705.25 550.2 704.6 548.9 704.3 548.35 704.15 547.8 704.1359375 547.697265625 704.1 547.6 703.8791015625 547.3783203125 703.65 547.1
L 702.85 546 702.05 545.25
Q 701.65 544.6 701.4 544.35 701.3 544.25 700.05 543.4 699.4 543 698.3 541.9 697.55 541.05 697.45 540.8 697.2 540.3 697.2 539.05 697.4 535.7 697.35 534 697.1 530.8 697.25 529.15 697.35 528.15 697.3 527.6 697.2166015625 527.2875 697.15 527 Z"/>

<path fill="#F9D969" stroke="none" d="
M 532.35 508.75
Q 532.24375 508.78203125 532.1 508.8
L 530.2 509.05
Q 529.712109375 509.1875 529.4 509.25 528.2 509.5 526.35 509.4 521.9 509.35 517.45 509.4 515 509.55 514.95 509.55 514.05 509.65 513.45 509.9 512.45 510.45 512 511.8
L 511.75 512.95
Q 511.7 513.15 511.4 513.9
L 510.6 515.75
Q 509.5 518.3 509 519.2
L 508.2 520.65
Q 507.7 521.6 507.1 523.3 506.4 525.45 506.15 526.05 505.65 527.2 504.55 529.35 503.95 530.65 502.95 533.55 502 536.35 501.3 537.75 500.525 539.5421875 500.45 540.3
L 500.45 540.35 500.75 540.35
Q 500.530859375 540.6880859375 500.3 541.15 499.5 542.8 498.7 545.4
L 497.45 549.2
Q 496.35 552.1 495.9 554.6 495.55 556.1 494.95 559.1 494.85 559.5 494.1 561.7 493.6 563.25 493.4 564.25 493.3 564.8 493.2 566.15 493.15 567.4 493 568.05
L 492.7 569.4
Q 492.49609375 570.2158203125 492.4 571.2 491.328515625 574.6427734375 490.9 576.5 490.15 579.7 490.1 582.3
L 490.1 584.6
Q 490.05 585.3 489.6 588.05 489.5201171875 588.46953125 489.45 588.85 489.171875 589.10625 489 589.45 488.7 590 488.7 591.2
L 488.65 595.05
Q 488.65 596.1 488.5 597.15
L 488 600.4
Q 487.7 604.35 487.8 612.25 487.8400390625 612.8505859375 487.9 613.25 487.574609375 614.0240234375 487.95 614.85
L 488.5 615.7
Q 489 616.45 489.05 616.5 489.25 616.7 489.75 617.05
L 490.1 617.6
Q 490.1634765625 617.679296875 490.25 617.75 491.35 617.75 491.9 618.65 491.938671875 618.7119140625 491.95 618.75 492.034765625 618.834765625 492.1 618.9 493 619.6 493.5 619.85 494 620.15 495.15 620.5 495.65 620.7 496.55 621.3 497.45 621.85 497.95 622.05 498.7 622.4 500.35 622.85
L 501.75 623.55
Q 502.3 623.8 503.25 624
L 504.75 624.3
Q 505.8 624.6 507.85 625.35 509.1 625.65 510.95 625.75 514.1 625.95 520.45 626.15 520.572265625 626.15 520.65 626.15 521.4314453125 626.35 522.7 626.35 523.8 626.35 526.6 626.45 526.7728515625 626.4568359375 526.95 626.45
L 533.2 626.25
Q 533.8671875 626.1810546875 534.65 626.1 537.25 625.8 538.75 625.8 539.005859375 625.8 539.2 625.75 539.358203125 625.737890625 539.5 625.7 539.8115234375 625.633203125 540.1 625.65 540.2412109375 625.604296875 540.35 625.55 541.2 625.25 541.55 624.25 541.57265625 624.1685546875 541.6 624.05 541.768359375 623.2685546875 541.45 622.45 541.4388671875 622.4259765625 541.4 622.4 541.096875 621.6873046875 541 621.3 540.9 620.95 540.9 620.2
L 540.55 618.35 540.35 607.6
Q 540.369140625 607.3115234375 540.35 607 540.5923828125 603.7037109375 540.5 601.95
L 540.4 600.75
Q 540.392578125 600.7244140625 540.35 600.7 540.3123046875 600.4755859375 540.2 600.35 540.2 599.8263671875 540.2 599.5 540.15 598.55 540.4 597.05 540.5244140625 596.179296875 540.6 595.6 540.720703125 594.7841796875 540.75 594.55
L 540.85 592.9
Q 540.85546875 592.8640625 540.85 592.8 541.15 590.9482421875 541.15 590.85 541 589.65 541 589.05 541.0396484375 588.772265625 541.05 588.5
L 541.15 588.4 541.25 588.3 541.35 588.05 541.45 587.95 541.5 586.9
Q 541.4455078125 586.7275390625 541.35 586.55
L 541.35 586.45 541.3 586.35 541.5 585.65
Q 542.75 582.2 543.05 579.6
L 543.15 578.9 543.25 578.25 543.5 577.3 543.75 576.5
Q 544 575.45 543.75 574.7 543.398828125 573.690234375 542.4 573.45 542.3517578125 573.3154296875 542.25 573.15
L 540.2 570.5
Q 539.5 569.7 539.15 569.05
L 538.7 568.3
Q 538.5798828125 568.1498046875 538.4 568 538.415625 567.8134765625 538.35 567.6
L 538.1 567.05
Q 537.3625 565.575 536.4 563.9 536.4 563.78828125 536.4 563.65
L 535.95 560.75
Q 535.8 559.5 536.4 556.95 537 554.45 536.75 553.15 536.701953125 552.9017578125 536.6 552.65 536.8357421875 552.340625 537.1 551.85 538 549.95 540.8 545.3 541.3 544.55 541.45 544.4 541.7 544.15 542.45 543.65 543.1 543.25 543.35 542.9 543.75 542.4 543.75 541.8 543.75 541.264453125 543.45 540.8 543.458203125 540.4634765625 543.35 539.95
L 542.75 536.7
Q 542.2 534.15 541.75 533.25
L 541.55 532.7
Q 541.55 532.65 541.4 532 541.35 531.55 541 530.5 540.710546875 529.583203125 540.65 529.05 540.75 528.6271484375 540.75 528.1 540.75 527.15 540.4 525.15 540.1 523.2 540.1 522.15
L 540.1 521.8 540.1 520.25
Q 539.9373046875 519.680859375 539.8 519.25 539.71875 518.9017578125 539.65 518.65 538.75 515.7 539.55 511.5 539.5771484375 511.3734375 539.6 511.25 539.8318359375 510.0412109375 539.65 509.45 539.5748046875 509.2353515625 539.45 509.05 539.1001953125 508.4109375 538.35 508.15 537.621875 508.225 536.85 508.3
L 536.8 508.3
Q 535.3615234375 508.4201171875 533.75 508.6 533.215625 508.85 532.9 508.85
L 532.35 508.75
M 663.65 481.05
Q 663.5431640625 481.03984375 663.4 481.05 662.95 481.05 662.25 481.25 659.15 482.25 657.7 482.8 653.9 484.5 651.95 485.15
L 650.45 485.65
Q 647.0666015625 486.720703125 643.8 487.6 642.4224609375 488.0771484375 641.35 488.4
L 633.6 490.5 629.55 491.75
Q 628 492.3 627.85 492.35 627 492.6 625.6 492.8 623.75 493.05 623.3 493.15 622.4 493.35 621.95 493.6 621.7982421875 493.711328125 621.65 493.85 621.2765625 493.8119140625 620.8 493.85 619.873046875 493.9203125 618.95 494 618.4521484375 494.2095703125 617.75 494.35 616.35 494.6 613.1 495.45 612.7828125 495.5359375 612.45 495.6 611.748828125 496.0126953125 611.6 496.05 611.15 496.25 610.45 496.3 609.804296875 496.3 609.4 496.3 608.8923828125 496.4349609375 608.45 496.5
L 597.45 498.65
Q 596.365625 498.8306640625 595.85 498.8
L 589.8 500.1
Q 588.3 500.6 587.35 500.75 586.4 500.9 584.6 501 583.35 501.05 580.85 501.35 579.6 501.55 579.1 501.85 578.191015625 502.5197265625 578.3 503.55 577.9654296875 503.869140625 577.6 504.6
L 576 507.95
Q 575.6 508.9 575.15 510.3
L 572.65 518.4
Q 572.35 519.4 571.4 521.4 571.044140625 522.440234375 571 523.3 570.94375 523.3482421875 570.9 523.4 570.5 523.9 570.3 524.75 570.2 525.2 570.1 526.2 570 526.9 569.6 528.25 569.2 529.55 569.05 530.25
L 568.65 532.4
Q 568.55 533 568.4 533.2
L 567.85 534.1
Q 567.6435546875 534.554296875 567.7 535.05 567.6798828125 535.100390625 567.65 535.1 567.5712890625 535.1828125 567.5 535.25 566.76328125 536.0357421875 567.1 537.1
L 567.1 537.15
Q 567.45 538.2 568.55 538.45 568.8 538.55 569.35 538.6
L 570.25 539.05
Q 571.15 539.55 573.1 540.3 573.8 540.65 576 542.5 577.4 543.65 577.65 543.9
L 578.65 545.05
Q 580.80859375 547.7484375 582.45 550.6 582.07890625 551.2755859375 582.35 552.05 582.65 553.05 583.7 553.55
L 586.65 554.85
Q 587.9 555.4 588.8 555.55
L 589.55 555.65 589.9 555.9
Q 590.0466796875 555.982421875 590.15 556.05 590.2796875 556.199609375 590.4 556.35 591 557.05 592.8 557.45 593.45 557.6 598 558.9
L 599.95 559.5
Q 600.85 559.8 601.4 559.85
L 602.15 559.9
Q 602.25 559.9 603.1 560.2
L 604.4 560.4
Q 604.6 560.45 605.75 560.95 606.5375 561.25625 608.05 561.6 608.26875 561.65 608.5 561.7 609.55 562 609.9 562.05 610.4650390625 562.120703125 610.85 562 611.053125 561.9380859375 611.2 561.85
L 611.7 561.6
Q 611.9 561.55 612.3 561.75 612.85 561.9 614 562
L 617.2 562.3
Q 617.75 562.6 619.35 562.6 621.75 562.55 626.95 562.65 631.9 562.8 634.5 562.7
L 641.55 562
Q 643.7 561.8 648 561.6 649.15 561.6 650.35 561.45 651.15 561.4 652.85 561.1 653.85 560.95 654.75 560.65
L 656 560.1
Q 656.55 559.95 657.35 559.95
L 658.15 559.95 658.7 559.95
Q 659.23984375 559.919921875 659.65 559.8 660.65 559.53515625 661 558.8 661.2 558.45 661.25 557.9 661.3 557.25 661.35 556.95 661.4 556.75 661.9 555.6
L 662.4 554.05
Q 662.55 553.2 662.7 552.8 662.85 552.3 663.35 551.3
L 665.55 547.15
Q 665.8791015625 546.6115234375 666 546.15 666.362890625 545.938671875 666.6 545.6 667 545.05 666.95 544.45 666.95 544.05 666.8 543.55
L 666.5 542.65
Q 666.35 542.2 666.25 541.25 666.1041015625 540.374609375 665.75 539.25 665.485546875 538.68359375 665.3 537.85 665.268359375 537.6921875 665.2 537.5
L 664.85 536.5 664.75 535.5
Q 664.65 533.55 663.6 530.45
L 663.5 529.9 663.55 529.3
Q 663.55 529.1 663.3 527.75
L 663.25 526.65
Q 663.2111328125 526.4818359375 663.15 526.3 663.23203125 526.1810546875 663.3 526 663.601953125 525.1802734375 663.65 524.45 663.65 524.3595703125 663.65 524.25 663.65 523.7138671875 663.5 523.25 663.369140625 522.842578125 663.1 522.5 662.85 522.25 662.8 522.1
L 662.8 521.6
Q 662.85 521.25 662.85 518.55 662.85 517.35 663.2 513.15 663.45 509.95 663.55 506 663.55 505.4009765625 663.5 504.95 663.75 504.45 663.85 502.8 663.9 501.05 664.25 496.85 664.55 493.05 664.55 490.9
L 664.6 489
Q 664.85 487.55 664.9 486.8 664.9 485.35 665 484.65 665.2 484 665.25 483.7 665.4 483.1 665.35 482.7 665.25 482 664.65 481.5 664.551171875 481.41015625 664.45 481.35 664.400390625 481.305078125 664.35 481.25 664.2814453125 481.2341796875 664.2 481.2 664.1439453125 481.171875 664.05 481.15 663.8837890625 481.0755859375 663.65 481.05
M 816.65 443.3
Q 815.0255859375 443.259375 813.7 443.2 810.1341796875 443.3796875 803.6 443.45
L 801.95 443.5
Q 798.6 443.6 797 443.3 795.1 442.95 794.5 443.15 794.42890625 443.177734375 794.35 443.2 792.897265625 442.6828125 792.1 442.55
L 790.15 442.4
Q 788.6 442.25 785 440.95 782.15 439.95 777.45 438.45
L 775.35 437.8
Q 774.1 437.35 774.05 437.3
L 772.85 436.7
Q 772.1 436.5 771.4 436.95 770.7 437.45 770.5 438.2 770.3 438.95 770.6 439.7 770.6955078125 439.9390625 770.8 440.15 770.6 440.5525390625 770.6 441.1
L 770.8 443 770.85 448.9
Q 770.85 450.2 770.95 450.8
L 771.25 452.75 771.5 458.95
Q 771.58046875 460.023046875 771.75 461.65
L 769.4 459.15
Q 767.05 456.8 764.55 454.6
L 761.35 452.05
Q 760.7 451.55 759.6 450.4 758.45 449.2 757.85 448.7 755.9 447.25 755 446.4 754.15 445.55 753.7 445.2 752.4 444.45 751.8 444.05 750.5 443 749.8 442.55 749.35 442.25 748 441.65 746.85 441.1 746.3 440.6 745.4 439.5 744.75 439.2 744.3419921875 438.983984375 743.95 438.95 743.8765625 438.2720703125 743.25 437.75 742.5 437.05 741.35 437.4 740.85 437.55 740.3 438 739.75 438.5 739.4 438.75
L 737.7 439.85
Q 737.1 440.25 735.1 441.9 734.3 442.55 731.65 444.4
L 728.65 446.45
Q 727.55 447.25 726.95 447.55 726.3474609375 447.8513671875 725.85 448.1 725.11015625 448.6673828125 724.2 449.35 720.6 452.1 717.85 453.35
L 716.15 454.15
Q 714.95 455 714.35 455.4 712.75 456.2 712 456.7
L 710.95 457.35
Q 710.86328125 457.4515625 710.8 457.55 710.45 458.4 710.25 458.8 710.15 459.15 709.9 459.85 709.75 460.35 709.75 461.35 709.65 462.65 709 464.35 708.4 465.95 708.3 466.35 708.09140625 467.3509765625 708.3 468.15 708.2001953125 468.309375 708.1 468.5 707.75 469.25 707.5 470.15 707.3 471.1 707.1 473 707 473.55 706.5 475 706.05 476.25 705.95 477 705.9 477.45 705.8 478.4 705.7 478.9 705.2 480.05 705.065625 480.3904296875 704.9 480.75 704.324609375 482.4607421875 703.75 484.8 703.5828125 485.4685546875 703.45 485.95 703.3291015625 486.692578125 703.3 487.1
L 703.3 488.7
Q 703.25 489.2 702.95 490.15 702.79296875 490.6525390625 702.6 491.45 702.5115234375 491.9552734375 702.4 492.55 702.2759765625 493.169921875 702.3 493.6 702.255078125 493.7775390625 702.2 493.95 702.1013671875 494.24609375 702.05 494.7 701.975390625 495.166796875 701.95 495.8 701.85 496.35 701.3 497.35 701.05 498 700.95 499.3 700.85 500.7 700.7 501.3
L 700.15 503.05
Q 700.0158203125 503.430078125 699.9 504 699.760546875 504.7048828125 699.65 505.7
L 699.5 507 698.75 513.2
Q 698.3 516.65 697.8 519.25
L 697.6 520.05 697.4 521.2
Q 697.3052734375 521.7328125 697.25 522.25 697.2408203125 522.367578125 697.2 522.45 697.1201171875 523.7205078125 697.2 525.05 697.2119140625 525.208203125 697.2 525.35 697.208203125 525.3888671875 697.2 525.4 697.0134765625 525.90234375 697.1 526.45 697.1 526.6833984375 697.15 527 697.2166015625 527.2875 697.3 527.6 697.35 528.15 697.25 529.15 697.1 530.8 697.35 534 697.4 535.7 697.2 539.05 697.2 540.3 697.45 540.8 697.55 541.05 698.3 541.9 699.4 543 700.05 543.4 701.3 544.25 701.4 544.35 701.65 544.6 702.05 545.25
L 702.85 546 703.65 547.1
Q 703.8791015625 547.3783203125 704.1 547.6 704.1359375 547.697265625 704.15 547.8 704.3 548.35 704.6 548.9 705.25 550.2 705.65 550.65 706.2 551.3 706.3 551.7 706.4 551.95 706.4 552.55 706.45 553 706.8 553.6 707.25 554.35 707.35 554.6 707.55 555.05 707.65 555.95
L 708 559
Q 708.1 561.65 707.8 563.95
L 707.45 566.15 707.1 566.9
Q 706.85 567.6 707.05 568.4 707.18046875 568.889453125 707.45 569.25 707.6416015625 569.44375 707.85 569.6 708.079296875 569.7876953125 708.35 569.9 708.5205078125 570.232421875 708.85 570.5 709.2 570.8 710.05 571.35 710.35 571.65 710.8 572.4 711.1 572.7 711.75 573.1 712 573.3 712.6 573.95 713.1 574.5 713.5 574.7 714.2 574.95 714.35 575.05
L 715 575.7
Q 715.25 576 716.35 576.65 716.85 576.9 717.2 577.25
L 717.75 577.9
Q 718.4 578.65 720.45 579.8
L 724.95 582.15
Q 725.5123046875 582.7087890625 726.6 583.2
L 729.1 584.35
Q 729.73515625 584.946484375 730.65 585.5 732.3470703125 586.59453125 735.15 587.55
L 737.6 588.4
Q 741.3 589.7 743.35 589.85 743.4798828125 589.8599609375 743.65 589.85 744.26953125 589.919921875 745.35 590
L 746.8 590.4 749 590.4
Q 749.95 590.45 751.85 590.8
L 760.4 591.1 761.7 591.15
Q 763.5 591.25 764.75 591.05 765.4890625 590.9515625 767.05 590.55
L 767.1 590.55
Q 767.8076171875 590.40859375 768.25 590.25 768.5123046875 590.594921875 768.9 590.75 769.0494140625 590.85234375 769.2 590.9
L 769.35 590.9 769.95 591.05
Q 770.35 591.15 770.8 591.6 772.65 593.05 773 593.25
L 773.9 593.65
Q 774.75 593.95 774.85 593.95 775.1013671875 593.9814453125 775.3 593.95 775.8849609375 594.405859375 776.8 594.7 782.95 597.2 786.55 598 787.65 598.3 788.85 598.45
L 799.2 598.6 805.35 598.2
Q 805.7392578125 598.154296875 806.05 598.1 807.2216796875 597.954296875 807.8 597.8
L 810.9 597.35
Q 811.62265625 597.180078125 812.55 596.7 812.7275390625 596.6400390625 812.9 596.55 816.95 594.45 817.45 594.25 819.05 593.6 819.5 593.05 819.533203125 593.0048828125 819.55 592.95 820.154296875 592.6416015625 821 592 821.4 591.75 823.45 590.65 824.9 589.9 825.7 589.15 826.3 588.6 827.4 587.4
L 828.7 586.35
Q 829.85 585.4 831.35 583.1
L 834 579 836.1 573.9
Q 836.5833984375 572.6916015625 836.5 572 836.7689453125 571.516015625 837 570.8 838.7 566.1 839.45 564.55 840.2 562.8 840.25 562.45 840.3 561.25 840.4 560.65 840.5 560 840.85 559.15 841.3 558.25 841.5 557.75 841.80078125 556.9333984375 841.8 556.25 841.9646484375 555.8619140625 842.05 555.35 842.35 553.85 844 548.55 845.25 544.35 845.45 541.65
L 845.6 540.35
Q 845.65859375 540.333203125 845.7 540.3 846.25 539.85 846.4 539.2
L 846.45 538.35
Q 846.45 536.95 846.8 535.85
L 847.2 534.4
Q 847.4 533.6 847.4 532.05 847.4 531.4931640625 847.35 531.1 847.4728515625 530.915625 847.55 530.8 847.65 530.6 847.9 529.65 849.15 523.15 849.3 516.1 849.3 515.682421875 849.25 515.35 849.35078125 515.0177734375 849.4 514.55
L 849.8 511.35 849.75 504.65
Q 849.65 502.95 849.75 502.15
L 850.05 500.65
Q 850.65 497.4 850.45 494.25 850.383203125 493.5818359375 850.25 493.15 850.5662109375 492.5568359375 850.65 491.3 851.1 479.4 850.9 474.45 850.8220703125 473.554296875 850.7 473.15 851.05 472.534375 851.05 471.65 851.05 471.2 850.9 470.4 850.7 469.55 850.7 469.15 850.85 467.35 850.85 466.45
L 850.4 462.3
Q 850.75 459.85 850.5 458.65
L 850.25 457.6 850.25 456.45
Q 850.55 452.85 850.4 451.45
L 850.2 449.85
Q 850.15 449 850.2 448.1 850.4 446.65 850.4 446.45 850.45 445.5 850.15 444.9 849.975390625 444.5984375 849.75 444.4 849.71953125 443.5044921875 849.85 442.2 850.05 440.35 850.05 439.75 850.05 438.35 849.65 437.6 849.4 437.15 848.9 436.75 848.15 436.05 847.35 436 846.5150390625 435.9072265625 845.9 436.3 845.8396484375 436.3380859375 845.75 436.35 844.05 436.35 842.75 437.15 842.05 437.55 841.95 437.6
L 840.9 437.75
Q 840.3 437.8 839.2 438.3 836.3 439.4 836 439.5 834.55 439.95 831.55 440.55
L 826.1 441.65
Q 825.05 441.8 824.1 442.1
L 822.55 442.55
Q 820.1 443.25 816.65 443.3 Z"/>
</g>

<g id="Layer0_0_FILL">
<path fill="#000000" stroke="none" d="
M 415.8 339.4
Q 414.15 341.1 414.15 343.45 414.15 345.8 415.8 347.45 417.5 349.15 419.85 349.15 422.2 349.15 423.85 347.45 425.55 345.8 425.55 343.45 425.55 341.1 423.85 339.4 422.2 337.75 419.85 337.75 417.5 337.75 415.8 339.4
M 721.75 178.95
Q 723.2 177.5 723.2 175.45 723.2 173.4 721.75 171.95 720.3 170.5 718.25 170.5 716.2 170.5 714.75 171.95 713.3 173.4 713.3 175.45 713.3 177.5 714.75 178.95 716.2 180.4 718.25 180.4 720.3 180.4 721.75 178.95 Z"/>
</g>

<path id="Layer1_0_1_STROKES" stroke="#F9D969" stroke-width="1" stroke-linejoin="round" stroke-linecap="round" fill="none" d="
M 663.675 481.05
Q 663.7458984375 480.951953125 663.95 480.85 664.1150390625 480.794921875 664.325 480.775
L 664.35 480.75 664.35 480.775
Q 664.50859375 480.75 664.7 480.75
M 664.2 481.2
L 664.35 480.775 664.325 480.775 664.075 481.15
M 664.35 481.275
L 664.45 481.15 664.45 481.35"/>

<path id="Layer1_0_2_STROKES" stroke="#EE052D" stroke-width="1" stroke-linejoin="round" stroke-linecap="round" fill="none" d="
M 707.8 460.1
L 709.55 459.1 709.35 459.45 708.7 460.6
M 708.25 460.275
L 707.45 460.65 707.7 460.1 707.8 460.1
M 708.25 460.275
L 708.65 460.1 709.35 459.45 708.675 460.575
M 708.45 460.4
L 708.45 460.95 708.55 460.475
M 708.675 460.575
L 708.45 460.95
Q 708.5 461.25 708.5 461.4
L 708.5 462
M 708.55 460.475
L 708.65 460.1
Q 708.5 460.25 708.45 460.4
M 696.3 539.575
L 696.3 540.2
Q 696.080859375 540.0748046875 695.95 539.75
M 668.75 542.975
Q 668.5826171875 543.00234375 668.4 543
M 668.05 542.975
L 668.05 543.45 667.6 543.45 667.6 542.85
M 706.3 569.95
L 706.3 570.3
M 695.8 539.3
Q 695.8560546875 539.56171875 695.95 539.75
M 707 569.825
L 707 569.65 706.75 569.25 707 569.825 707.15 570.15
M 706.75 569.25
L 706.75 569.65 706.875 570.15
M 707 570.15
L 707 569.825
M 706.3 570.3
L 706.3 570.6 707 570.6 706.875 570.15
M 707 570.6
Q 706.980078125 570.4607421875 707 570.35
L 707 570.15
M 707.15 570.15
L 707.7 571.35 707.95 571.35
M 707 570.35
Q 707.0294921875 570.21015625 707.15 570.15
M 707.475 569.25
L 707.8 570.25 706.75 569.25
M 575.675 503.3
L 576.9 503.15 576.9 503.3 577.7 503.3
Q 577.7 503.05 577.7 503
M 576.425 504.825
L 575.75 505.9 575.55 505.9 575.55 505.2 575.3 505.2 575.75 504.75 576.15 503.85
M 575.975 503.575
L 575.05 504
M 544.45 576.65
L 544.45 576.25
Q 544.45 576.15 544.75 576.1
L 544.95 576.55
Q 545 576.4 545.2 576.55
L 545.25 576.575
M 545.65 576.65
Q 545.773046875 576.6642578125 545.9 576.7
M 584.325 555.475
L 583.95 555.3 583.45 554.5 583.45 554.05
M 544.3 540.725
Q 544.25 540.911328125 544.25 541.05 544.35 541.3 544.45 541.35 544.55 541.4 544.7 541.35
L 544.7 540.95
M 545.25 576.575
L 545.45 576.65
Q 545.45 576.79296875 545.575 576.925
L 545.6 576.95 546.05 577.55
M 545.9 576.7
Q 546.05 576.95 546 576.75
L 546.35 577.3 547.1 577.95
Q 547.3 578 547.3 578.15
M 544.75 576.1
L 544.75 576.575 544.75 576.6
Q 545.0384765625 576.6 545.15 576.575
M 545.225 576.575
L 545.2 576.55 545.15 576.575
M 545.225 576.575
L 545.575 576.925
M 544.75 576.6
L 545.6 576.95
M 575.05 503.3
L 575.675 503.3 576.575 503.3 576.9 503.15
M 576.575 503.3
L 576.9 503.3 576.9 504.2 576.65 504.8 576.4 505.2
M 576.15 503.85
Q 576.2345703125 504.012109375 576.3 504.2 576.6 504.25 576.9 504.2
M 576.575 503.3
L 575.975 503.575
M 576.425 504.825
L 576.65 504.45 576.65 504.8
M 575.55 505.2
L 575.75 504.75 576.3 504.2 575.55 505.2 Z
M 584.85 555.15
Q 585.0447265625 555.0689453125 585.225 555.025
L 585.25 555 584.4 554.7 584.85 555.15
Q 584.8 555.5 584.75 555.65
L 584.325 555.475
M 585.25 555
L 585.25 555.025
Q 585.3861328125 554.9904296875 585.525 554.975
L 585.55 554.95 585.55 554.975
Q 585.5517578125 555.2517578125 585.6 555.3"/>

<path id="Layer1_0_3_STROKES" stroke="#FFDFCD" stroke-width="1" stroke-linejoin="round" stroke-linecap="round" fill="none" d="
M 550.65 661.75
L 551 662.05 550.6 662.4
Q 550.5 662.4 550.15 662.4 550.183984375 662.33203125 550.2 662.275"/>

<path id="Layer0_0_1_STROKES" stroke="#000000" stroke-width="1" stroke-linejoin="round" stroke-linecap="round" fill="none" d="
M 863.5 74.25
Q 864.5 72.2 864.7 69.75 864.9 67.35 864.25 65.1 863.55 62.25 861.6 60.85 860.05 59.8 857.35 59.35 851.3 58.7 845.6 61.25 844.2416015625 61.847265625 843.025 62.575 860.503515625 72.52109375 879.7 84.825 885.4056640625 77.9927734375 890.55 74.45 897.55 69.6 904.35 70.1 911.55 70.55 917.1 76.55 922.35 82.25 923.5 89.85 925.25 102.6 916.5 118.25 910.0537109375 129.3625 902.35 135.625 905.0970703125 158.938671875 903.05 186.8 901.1 212.65 892.5 239.25 884.9 262.9 871.8 288.3 861 309.35 843.1 337.5 845.158203125 337.912890625 846.75 339.1 849.8 341.35 851.5 347 854.4943359375 357.18046875 852.4 369.95 862.85 376.1 866.75 382.6 869.15 386.6 869.8 390.95 870.45 395.6 869 399.6 867.8 403.15 864.8 406.45 862.45 409 858.6 411.85 854.15 414.95 852 416.55 848.2 419.35 846 422 843.1 425.3 841.9 429.1 840.6 433.35 841.9 437.25 843.0568359375 436.8712890625 844.05 436.525 849.608203125 434.5783203125 849.85 437.8 851.5916015625 469.3486328125 850.35 500.375 849.100390625 531.4111328125 843.25 552.05 837.39921875 572.678125 833.35 580.2 829.5697265625 587.2216796875 820.15 593.025 830.45 607.8 833.2 625.35 835.75 641.4 832.75 658.85 830.3 673.7 823.7 690.95 819.15 702.7 810.1 721.75
M 836.35 68.75
Q 838.9919921875 64.9591796875 843.025 62.575 830.4408203125 55.42890625 818.75 49.5 815.307421875 47.7552734375 811.725 46.05 811.6642578125 46.0212890625 811.6 46 811.0025390625 45.708203125 810.4 45.425 801.383203125 41.18515625 791.475 37.2 790.22890625 37.4353515625 789 37.85 784.65 39.3 782 42.5
M 897 107
Q 896.6 97.55 901.5 90.25
M 791.475 37.2
Q 791.2876953125 37.125390625 791.1 37.05 790.3546875 36.74921875 789.6 36.45 766.17578125 27.1283203125 737.875 19.175 732.2951171875 17.6076171875 726.45 16.4 717.4447265625 14.5392578125 707.8 13.525 705.1240234375 14.7802734375 702.9 16.9 699.65 19.95 698.25 24
M 811.6 46
Q 805.46953125 38.3951171875 797.5 37.1 794.4380859375 36.6423828125 791.475 37.2
M 726.45 16.4
Q 723.15 13.25 718.75 12.35 714.4 11.5 710.25 12.6 708.984375 12.98125 707.8 13.525 670.61484375 9.629296875 623.8 18.325 618.9052734375 19.233984375 614.025 20.275 602.815625 22.6361328125 591.725 25.65 590.8810546875 26.86953125 590.1 28.25 588.65 30.9 587 34.9 586.05 37.2 584.25 41.75
M 723.2 175.45
Q 723.2 177.5 721.75 178.95 720.3 180.4 718.25 180.4 716.2 180.4 714.75 178.95 713.3 177.5 713.3 175.45 713.3 173.4 714.75 171.95 716.2 170.5 718.25 170.5 720.3 170.5 721.75 171.95 723.2 173.4 723.2 175.45 Z
M 676.425 240.875
Q 671.658984375 237.4599609375 667.25 233.25 644.05 211.1 644.05 179.7 644.05 148.3 667.25 126.1 690.5 103.95 723.35 103.95 756.2 103.95 779.4 126.1 798.4796875 144.31796875 801.9 168.725 802.65 174.06796875 802.65 179.7 802.65 211.1 779.4 233.25 756.2 255.45 723.35 255.45 696.7294921875 255.45 676.425 240.875 741.7740234375 208.0130859375 801.9 168.725
M 818.85 375.1
Q 818.72734375 371.59453125 820.125 364.15 821.517578125 356.69921875 823.25 351.75 823.630078125 350.6744140625 824.125 349.65 824.92578125 344.2283203125 825.15 337.25 825.387109375 330.187890625 826 321.2 826.6056640625 312.2142578125 822.75 305.9 818.9001953125 299.5935546875 811.8 298 804.7 296.45 798.85 299.75 788.69453125 305.6462890625 787.4 320.55 786.1158203125 335.4607421875 786.15 346.125 786.1537109375 347.49453125 786.2 352.15 786.2841796875 358.67578125 787 371.5
M 786.2 352.15
Q 784.4080078125 345.1123046875 779.575 343.425 774.747265625 341.745703125 772.15 341.8 769.25 341.85 767.1 343.25 764.35 345.15 763.1 349.2 762.25 352.05 762 356.75 761.25 368.25 761.3 374 761.35 383.55 763.1 391 764.25 395.95 766.75 402.8 768.2 406.7 771.2 414.4 776.3060546875 428.2455078125 775.775 437.65 788.0419921875 442.8587890625 801.85 443.425 817.0001953125 444.0400390625 827.75 441.25 836.5767578125 438.9595703125 841.9 437.25
M 843.1 337.5
Q 841.344921875 337.1427734375 839.25 337.35 833.65 338 829 342.7 825.86796875 345.9125 824.125 349.65
M 849.75 381.1
Q 851.5228515625 375.2939453125 852.4 369.95
M 729.6 534.5
Q 737.9521484375 551.85078125 746.05 563.95 754.1427734375 576.0455078125 764.925 586.875 766.6845703125 588.64296875 768.6 590.15 778.362890625 597.8966796875 791.975 598.85 808.24375 599.983984375 818.775 593.85 819.471484375 593.4443359375 820.15 593.025
M 775.775 437.65
Q 774.5787109375 437.1498046875 773.4 436.6 772.65 436.3 771.95 436.3 771.25 436.25 770.85 436.75 770.35 437.35 770.35 439 770.423828125 449.4552734375 771.85 461.7 774.454296875 484.1169921875 783.65 507.3
M 304.5 339.25
Q 301.25703125 335.26484375 299.35 332.475 297.365234375 371.693359375 305.1 412.55 295.6 411.3 286.75 413.25 282.6 414.2 280.6 416.1 278.35 418.55 278.7 422.75 278.95 425.7 280.6 430.1 284.2 440.15 286.5 444.35 290.6 451.95 296.5 455.25 301.85 458.4 310.85 458.85 324.6849609375 459.6240234375 330 453.05 330.180859375 452.829296875 330.45 453.2 357.5 472.3 392.55 486.1 427.7 499.95 464.6 505.75 489.718359375 509.7634765625 513.25 509.6 515.8095703125 509.56875 518.35 509.5 528.2255859375 509.1451171875 539.475 507.925 547.2615234375 507.0962890625 555.7 505.85 564.412109375 504.5568359375 578.425 502.025 585.0052734375 500.819140625 592.75 499.35 611.45 495.8 621.15 493.6 636.75 490.05 648.85 485.85 657.176171875 483.0029296875 665.35 479.75 676.273828125 475.3896484375 686.925 470.3 698.482421875 464.7771484375 710.25 457.775 717.421875 453.4998046875 724.675 448.675 734.61640625 442.0619140625 741.55 437.125 747.9755859375 432.5703125 751.825 429.45 759.8447265625 422.95234375 771.2 414.4
M 741.55 437.125
Q 756.3724609375 445.772265625 771.85 461.7
M 710.25 457.775
Q 703.698828125 485.65546875 700.9 498.85 696 521.75 697.05 541.175 699.04375 542.49375 700.85 544.3 707.65 551.1 707.65 560.7 707.65 564.69609375 706.475 568.2 718.45 580.75 734.95 587.2 751.5 593.7 768.6 590.15
M 665.35 479.75
Q 665.3185546875 485.8478515625 664.55 495.55 663.5 508.25 663.35 511.85 662.9 521.2 663.6 528.2 664.4484375 536.984375 667.6 544.775 667.8154296875 544.5345703125 668.05 544.3 674.85 537.5 684.45 537.5 691.5 537.5 697.05 541.175
M 706.475 568.2
Q 704.81953125 573.1306640625 700.85 577.1 694.05 583.9 684.45 583.9 674.85 583.9 668.05 577.1 661.25 570.3 661.25 560.7 661.25 560.1458984375 661.275 559.6 639.8 563.95 620.05 562.8 600.35 561.7 582.95 553.3 583.6 555.7951171875 583.6 558.55 583.6 567.5 576.65 573.8 569.7 580.1 559.9 580.1 550.8375 580.1 544.2 574.725 539.95 590.05 540.2 607.2 540.3423828125 616.2548828125 541.725 625.55 542.7564453125 632.58203125 544.5 639.75 547.1767578125 650.947265625 551.725 662.9
L 551.75 662.95
Q 553.2248046875 666.8384765625 554.9 670.8 560.5390625 684.223828125 569.225 700.275 571.1 703.4 570.35 706.85 569.95 708.9 568 712.35 564.85 718.1 562.35 723.6
M 661.275 559.6
Q 661.6291015625 551.0330078125 667.6 544.775
M 651.35 705.35
Q 651.494140625 711.6908203125 650.7 717.75 650.101171875 722.2009765625 649 726.5
M 614.025 20.275
Q 611.55 17.55 607.6 17.05 603.85 16.55 600.35 18 595.480859375 20.16875 591.725 25.65 550.890625 36.7494140625 511.75 56.55 503.0849609375 60.9373046875 494.5 65.75 493.6029296875 66.2197265625 492.7 66.7 490.3017578125 71.948828125 490.5 77.5
M 511.75 56.55
Q 508.2125 54.8041015625 505.5 55.1 502.65 55.3 499.6 57.75 495.2 61.3 492.75 66.6 492.7287109375 66.6462890625 492.7 66.7 457.03828125 85.541015625 424.35 109.725 422.9203125 110.784765625 421.5 111.85 417.66875 114.7431640625 413.975 117.625 413.821484375 118.7787109375 413.75 120.1 413.2 125.2 413.35 131
M 413.975 117.625
Q 379.5505859375 144.658203125 357.8 171.65 356.8134765625 172.871875 355.85 174.1 353.698046875 176.850390625 351.625 179.65 352.0048828125 182.1951171875 352.9 185.3 355.25 193.25 356.6 195
M 357.8 171.65
Q 356.5 170.65 354.8 170.95 353.05 171.2 352.25 172.5 351.35 173.7 351.35 176 351.3279296875 177.6521484375 351.625 179.65 333.487109375 204.1982421875 321.5 232.825 317.912890625 241.3869140625 314.875 250.325 315.5779296875 252.155859375 316.95 254.9 318.75 258.55 319.25 259.75
M 424.35 109.725
Q 423.05 108.7 421.4 108.7 419.85 108.7 418.5 109.5 415.95 110.95 414.85 114.1 414.271484375 115.5787109375 413.975 117.625
M 493.05 335.8
Q 493.55 340.172265625 493.55 344.75 493.55 374.05 472.8 394.75 452.1 415.5 422.8 415.5 393.5 415.5 372.75 394.75 352.05 374.05 352.05 344.75 352.05 315.45 372.75 294.7 393.5 274 422.8 274 452.1 274 472.8 294.7 490.308203125 312.208203125 493.05 335.8 487.45 338.8 432.75 369.85 398.75 389.15 380.25 400.85
M 425.55 343.45
Q 425.55 345.8 423.85 347.45 422.2 349.15 419.85 349.15 417.5 349.15 415.8 347.45 414.15 345.8 414.15 343.45 414.15 341.1 415.8 339.4 417.5 337.75 419.85 337.75 422.2 337.75 423.85 339.4 425.55 341.1 425.55 343.45 Z
M 333.45 271.65
L 412.1 248.25
M 528.85 235.75
L 522.5 278.35
Q 522.25 280 522.25 280.8 522.25 282.1 522.75 283.1 523.75 285.1 527.5 286.6 541.75 292.15 554.85 296.25
M 553.5 336
Q 553.9 346.7 553 357 556.4423828125 353.5369140625 559.25 350.85 563.187109375 347.0326171875 565.85 344.75 573.35 338.3 580.35 334.75 592.65 328.45 606.9 328.7 620.09765625 328.932421875 631.525 334.7 616.1306640625 337.741796875 609.5 350.1 607.55 352.35 606.25 352.6 605.25 352.85 604 352.65 603.5 352.55 601.75 352.1 598.2 351.25 594.8 352.2 591.1 353.2 589.25 356 588.8 356.6 587.25 359.85 586.1 362.25 584.75 363.25 582.9 364.6 579.1 364.5 574.4 364.45 573 364.85 572.280859375 365.0509765625 571.6 365.375 569.1134765625 366.5720703125 567.3 369.45 565.65 372.1 564.25 376.75
M 559.25 350.85
L 571.6 365.375
M 321.5 232.825
Q 318.75 232.95 316.65 234.9 314.65 236.8 313.85 239.5 312.55 243.95 314.75 250 314.809765625 250.162109375 314.875 250.325 309.0837890625 267.3775390625 305.3 285.75 300.559375 308.81328125 299.35 332.475 298.826171875 331.6884765625 298.4 331 295.35 326.15 294.35 321.75 293.7 318.6 294.5 317.1 295.65 314.55 300.6 313.5
M 296.85 430.1
Q 304.4 433.7 311 438.6
M 539.475 507.925
Q 539 512.2 539.75 519.75 540.45 527.5 544.075 542.5 550.7501953125 537 559.9 537 563.55078125 537 566.8 537.875 571.3853515625 518.0275390625 578.425 502.025
M 544.2 574.725
Q 543.673046875 574.2740234375 543.15 573.8 536.2 567.5 536.2 558.55 536.2 549.6 543.15 543.3 543.6111328125 542.88203125 544.075 542.5
M 513.25 509.6
Q 500.8349609375 533.8677734375 494.35 560.55 487.7 587.55 487.6 615 488.8052734375 616.3072265625 490.125 617.45 492.71171875 619.66484375 495.75 621.25 504.3 625.75 516.4 626.5 522.1646484375 626.8326171875 533.25 626.15 533.5283203125 626.1419921875 533.8 626.125 537.4767578125 625.8890625 541.725 625.55
M 566.8 537.875
Q 572.2890625 539.346875 576.65 543.3 581.4607421875 547.6609375 582.95 553.3
M 490.125 617.45
Q 483.15 624.15 481.1 636.75 479.6 647.5 482.5 658.25 485.65 669.7 492.75 676.25 496.75 679.9 501.85 681.55 507.05 683.3 512.1 682.5 517.45 681.55 521.45 677.8 522.219140625 677.068359375 522.875 676.25 525.728125 672.7181640625 526.5 667.6 523.3001953125 668.2484375 519.5 668.1 512.95 667.9 509.1 665.35 505.9 663.2 503.75 658.6 502.4 655.75 502.15 653 501.85 649.85 503 647.5
M 533.8 626.125
Q 534.97421875 626.43671875 535.95 627.25 537.2 628.2 537.75 629.5 539.2 632.45 537.5 635.85 536.3 638.5 532.85 640.5
M 516.85 642
Q 521.1 639.45 525.7 639.2 530.85 638.9 534.1 641.75 536.9 644.15 538.25 648.85 539.7 654.2287109375 538.525 657.85 538.4435546875 658.1078125 538.35 658.35 537.55 661 535.4 663.15 533.35 665.15 530.6 666.35 528.690625 667.1625 526.5 667.6
M 539.1 656.75
Q 541.75 660 544.5 661.6 545.7177734375 662.225390625 546.925 662.575 549.368359375 663.3189453125 551.75 662.95
M 522.875 676.25
Q 526.9 678.95 531.9 678.95 536.85 679 541.1 676.6 543.8462890625 675.1021484375 545.675 672.65 547.509765625 670.1904296875 547.85 667.85 548.1884765625 665.5169921875 546.925 662.575
M 603.75 700.85
Q 612.75 708.1 623.75 712.3 634.7 716.45 650.7 717.75
M 628.55 132.7
L 702.75 64.75"/>
</defs>

<g transform="matrix( 1, 0, 0, 1, 0,0) ">
<use xlink:href="#Layer2_0_FILL"/>
</g>

<g transform="matrix( 1, 0, 0, 1, 0,0) ">
<use xlink:href="#Layer1_0_FILL"/>

<use xlink:href="#Layer1_0_1_STROKES"/>

<use xlink:href="#Layer1_0_2_STROKES"/>

<use xlink:href="#Layer1_0_3_STROKES"/>
</g>

<g transform="matrix( 1, 0, 0, 1, 0,0) ">
<use xlink:href="#Layer0_0_FILL"/>

<use xlink:href="#Layer0_0_1_STROKES"/>
</g>
</svg>
