
<svg xmlns="http://www.w3.org/2000/svg" version="1.1" xmlns:xlink="http://www.w3.org/1999/xlink" preserveAspectRatio="none" x="0px" y="0px" width="1280px" height="720px" viewBox="0 0 1280 720">
<defs>
<g id="Layer2_0_FILL">
<path fill="#FFFFFF" stroke="none" d="
M 1280 720
L 1280 0 0 0 0 720 1280 720 Z"/>
</g>

<g id="Layer0_0_FILL">
<path fill="#000000" stroke="none" d="
M 415.8 339.4
Q 414.15 341.1 414.15 343.45 414.15 345.8 415.8 347.45 417.5 349.15 419.85 349.15 422.2 349.15 423.85 347.45 425.55 345.8 425.55 343.45 425.55 341.1 423.85 339.4 422.2 337.75 419.85 337.75 417.5 337.75 415.8 339.4
M 721.75 178.95
Q 723.2 177.5 723.2 175.45 723.2 173.4 721.75 171.95 720.3 170.5 718.25 170.5 716.2 170.5 714.75 171.95 713.3 173.4 713.3 175.45 713.3 177.5 714.75 178.95 716.2 180.4 718.25 180.4 720.3 180.4 721.75 178.95 Z"/>
</g>

<path id="Layer0_0_1_STROKES" stroke="#000000" stroke-width="1" stroke-linejoin="round" stroke-linecap="round" fill="none" d="
M 863.5 74.25
Q 864.5 72.2 864.7 69.75 864.9 67.35 864.25 65.1 863.55 62.25 861.6 60.85 860.05 59.8 857.35 59.35 851.3 58.7 845.6 61.25 844.2416015625 61.847265625 843.025 62.575 860.503515625 72.52109375 879.7 84.825 885.4056640625 77.9927734375 890.55 74.45 897.55 69.6 904.35 70.1 911.55 70.55 917.1 76.55 922.35 82.25 923.5 89.85 925.25 102.6 916.5 118.25 910.0537109375 129.3625 902.35 135.625 905.0970703125 158.938671875 903.05 186.8 901.1 212.65 892.5 239.25 884.9 262.9 871.8 288.3 861 309.35 843.1 337.5 845.158203125 337.912890625 846.75 339.1 849.8 341.35 851.5 347 854.4943359375 357.18046875 852.4 369.95 862.85 376.1 866.75 382.6 869.15 386.6 869.8 390.95 870.45 395.6 869 399.6 867.8 403.15 864.8 406.45 862.45 409 858.6 411.85 854.15 414.95 852 416.55 848.2 419.35 846 422 843.1 425.3 841.9 429.1 840.6 433.35 841.9 437.25 843.0568359375 436.8712890625 844.05 436.525 849.608203125 434.5783203125 849.85 437.8 851.5916015625 469.3486328125 850.35 500.375 849.100390625 531.4111328125 843.25 552.05 837.39921875 572.678125 833.35 580.2 829.5697265625 587.2216796875 820.15 593.025 830.45 607.8 833.2 625.35 835.75 641.4 832.75 658.85 830.3 673.7 823.7 690.95 819.15 702.7 810.1 721.75
M 836.35 68.75
Q 838.9919921875 64.9591796875 843.025 62.575 830.4408203125 55.42890625 818.75 49.5 815.307421875 47.7552734375 811.725 46.05 811.6642578125 46.0212890625 811.6 46 811.0025390625 45.708203125 810.4 45.425 801.383203125 41.18515625 791.475 37.2 790.22890625 37.4353515625 789 37.85 784.65 39.3 782 42.5
M 897 107
Q 896.6 97.55 901.5 90.25
M 791.475 37.2
Q 791.2876953125 37.125390625 791.1 37.05 790.3546875 36.74921875 789.6 36.45 766.17578125 27.1283203125 737.875 19.175 732.2951171875 17.6076171875 726.45 16.4 717.4447265625 14.5392578125 707.8 13.525 705.1240234375 14.7802734375 702.9 16.9 699.65 19.95 698.25 24
M 811.6 46
Q 805.46953125 38.3951171875 797.5 37.1 794.4380859375 36.6423828125 791.475 37.2
M 726.45 16.4
Q 723.15 13.25 718.75 12.35 714.4 11.5 710.25 12.6 708.984375 12.98125 707.8 13.525 670.61484375 9.629296875 623.8 18.325 618.9052734375 19.233984375 614.025 20.275 602.815625 22.6361328125 591.725 25.65 590.8810546875 26.86953125 590.1 28.25 588.65 30.9 587 34.9 586.05 37.2 584.25 41.75
M 723.2 175.45
Q 723.2 177.5 721.75 178.95 720.3 180.4 718.25 180.4 716.2 180.4 714.75 178.95 713.3 177.5 713.3 175.45 713.3 173.4 714.75 171.95 716.2 170.5 718.25 170.5 720.3 170.5 721.75 171.95 723.2 173.4 723.2 175.45 Z
M 676.425 240.875
Q 671.658984375 237.4599609375 667.25 233.25 644.05 211.1 644.05 179.7 644.05 148.3 667.25 126.1 690.5 103.95 723.35 103.95 756.2 103.95 779.4 126.1 798.4796875 144.31796875 801.9 168.725 802.65 174.06796875 802.65 179.7 802.65 211.1 779.4 233.25 756.2 255.45 723.35 255.45 696.7294921875 255.45 676.425 240.875 741.7740234375 208.0130859375 801.9 168.725
M 818.85 375.1
Q 818.72734375 371.59453125 820.125 364.15 821.517578125 356.69921875 823.25 351.75 823.630078125 350.6744140625 824.125 349.65 824.92578125 344.2283203125 825.15 337.25 825.387109375 330.187890625 826 321.2 826.6056640625 312.2142578125 822.75 305.9 818.9001953125 299.5935546875 811.8 298 804.7 296.45 798.85 299.75 788.69453125 305.6462890625 787.4 320.55 786.1158203125 335.4607421875 786.15 346.125 786.1537109375 347.49453125 786.2 352.15 786.2841796875 358.67578125 787 371.5
M 786.2 352.15
Q 784.4080078125 345.1123046875 779.575 343.425 774.747265625 341.745703125 772.15 341.8 769.25 341.85 767.1 343.25 764.35 345.15 763.1 349.2 762.25 352.05 762 356.75 761.25 368.25 761.3 374 761.35 383.55 763.1 391 764.25 395.95 766.75 402.8 768.2 406.7 771.2 414.4 776.3060546875 428.2455078125 775.775 437.65 788.0419921875 442.8587890625 801.85 443.425 817.0001953125 444.0400390625 827.75 441.25 836.5767578125 438.9595703125 841.9 437.25
M 843.1 337.5
Q 841.344921875 337.1427734375 839.25 337.35 833.65 338 829 342.7 825.86796875 345.9125 824.125 349.65
M 849.75 381.1
Q 851.5228515625 375.2939453125 852.4 369.95
M 729.6 534.5
Q 737.9521484375 551.85078125 746.05 563.95 754.1427734375 576.0455078125 764.925 586.875 766.6845703125 588.64296875 768.6 590.15 778.362890625 597.8966796875 791.975 598.85 808.24375 599.983984375 818.775 593.85 819.471484375 593.4443359375 820.15 593.025
M 775.775 437.65
Q 774.5787109375 437.1498046875 773.4 436.6 772.65 436.3 771.95 436.3 771.25 436.25 770.85 436.75 770.35 437.35 770.35 439 770.423828125 449.4552734375 771.85 461.7 774.454296875 484.1169921875 783.65 507.3
M 304.5 339.25
Q 301.25703125 335.26484375 299.35 332.475 297.365234375 371.693359375 305.1 412.55 295.6 411.3 286.75 413.25 282.6 414.2 280.6 416.1 278.35 418.55 278.7 422.75 278.95 425.7 280.6 430.1 284.2 440.15 286.5 444.35 290.6 451.95 296.5 455.25 301.85 458.4 310.85 458.85 324.6849609375 459.6240234375 330 453.05 330.180859375 452.829296875 330.45 453.2 357.5 472.3 392.55 486.1 427.7 499.95 464.6 505.75 489.718359375 509.7634765625 513.25 509.6 515.8095703125 509.56875 518.35 509.5 528.2255859375 509.1451171875 539.475 507.925 547.2615234375 507.0962890625 555.7 505.85 564.412109375 504.5568359375 578.425 502.025 585.0052734375 500.819140625 592.75 499.35 611.45 495.8 621.15 493.6 636.75 490.05 648.85 485.85 657.176171875 483.0029296875 665.35 479.75 676.273828125 475.3896484375 686.925 470.3 698.482421875 464.7771484375 710.25 457.775 717.421875 453.4998046875 724.675 448.675 734.61640625 442.0619140625 741.55 437.125 747.9755859375 432.5703125 751.825 429.45 759.8447265625 422.95234375 771.2 414.4
M 741.55 437.125
Q 756.3724609375 445.772265625 771.85 461.7
M 710.25 457.775
Q 703.698828125 485.65546875 700.9 498.85 696 521.75 697.05 541.175 699.04375 542.49375 700.85 544.3 707.65 551.1 707.65 560.7 707.65 564.69609375 706.475 568.2 718.45 580.75 734.95 587.2 751.5 593.7 768.6 590.15
M 665.35 479.75
Q 665.3185546875 485.8478515625 664.55 495.55 663.5 508.25 663.35 511.85 662.9 521.2 663.6 528.2 664.4484375 536.984375 667.6 544.775 667.8154296875 544.5345703125 668.05 544.3 674.85 537.5 684.45 537.5 691.5 537.5 697.05 541.175
M 706.475 568.2
Q 704.81953125 573.1306640625 700.85 577.1 694.05 583.9 684.45 583.9 674.85 583.9 668.05 577.1 661.25 570.3 661.25 560.7 661.25 560.1458984375 661.275 559.6 639.8 563.95 620.05 562.8 600.35 561.7 582.95 553.3 583.6 555.7951171875 583.6 558.55 583.6 567.5 576.65 573.8 569.7 580.1 559.9 580.1 550.8375 580.1 544.2 574.725 539.95 590.05 540.2 607.2 540.3423828125 616.2548828125 541.725 625.55 542.7564453125 632.58203125 544.5 639.75 547.1767578125 650.947265625 551.725 662.9
L 551.75 662.95
Q 553.2248046875 666.8384765625 554.9 670.8 560.5390625 684.223828125 569.225 700.275 571.1 703.4 570.35 706.85 569.95 708.9 568 712.35 564.85 718.1 562.35 723.6
M 661.275 559.6
Q 661.6291015625 551.0330078125 667.6 544.775
M 651.35 705.35
Q 651.494140625 711.6908203125 650.7 717.75 650.101171875 722.2009765625 649 726.5
M 614.025 20.275
Q 611.55 17.55 607.6 17.05 603.85 16.55 600.35 18 595.480859375 20.16875 591.725 25.65 550.890625 36.7494140625 511.75 56.55 503.0849609375 60.9373046875 494.5 65.75 493.6029296875 66.2197265625 492.7 66.7 490.3017578125 71.948828125 490.5 77.5
M 511.75 56.55
Q 508.2125 54.8041015625 505.5 55.1 502.65 55.3 499.6 57.75 495.2 61.3 492.75 66.6 492.7287109375 66.6462890625 492.7 66.7 457.03828125 85.541015625 424.35 109.725 422.9203125 110.784765625 421.5 111.85 417.66875 114.7431640625 413.975 117.625 413.821484375 118.7787109375 413.75 120.1 413.2 125.2 413.35 131
M 413.975 117.625
Q 379.5505859375 144.658203125 357.8 171.65 356.8134765625 172.871875 355.85 174.1 353.698046875 176.850390625 351.625 179.65 352.0048828125 182.1951171875 352.9 185.3 355.25 193.25 356.6 195
M 357.8 171.65
Q 356.5 170.65 354.8 170.95 353.05 171.2 352.25 172.5 351.35 173.7 351.35 176 351.3279296875 177.6521484375 351.625 179.65 333.487109375 204.1982421875 321.5 232.825 317.912890625 241.3869140625 314.875 250.325 315.5779296875 252.155859375 316.95 254.9 318.75 258.55 319.25 259.75
M 424.35 109.725
Q 423.05 108.7 421.4 108.7 419.85 108.7 418.5 109.5 415.95 110.95 414.85 114.1 414.271484375 115.5787109375 413.975 117.625
M 493.05 335.8
Q 493.55 340.172265625 493.55 344.75 493.55 374.05 472.8 394.75 452.1 415.5 422.8 415.5 393.5 415.5 372.75 394.75 352.05 374.05 352.05 344.75 352.05 315.45 372.75 294.7 393.5 274 422.8 274 452.1 274 472.8 294.7 490.308203125 312.208203125 493.05 335.8 487.45 338.8 432.75 369.85 398.75 389.15 380.25 400.85
M 425.55 343.45
Q 425.55 345.8 423.85 347.45 422.2 349.15 419.85 349.15 417.5 349.15 415.8 347.45 414.15 345.8 414.15 343.45 414.15 341.1 415.8 339.4 417.5 337.75 419.85 337.75 422.2 337.75 423.85 339.4 425.55 341.1 425.55 343.45 Z
M 333.45 271.65
L 412.1 248.25
M 528.85 235.75
L 522.5 278.35
Q 522.25 280 522.25 280.8 522.25 282.1 522.75 283.1 523.75 285.1 527.5 286.6 541.75 292.15 554.85 296.25
M 553.5 336
Q 553.9 346.7 553 357 556.4423828125 353.5369140625 559.25 350.85 563.187109375 347.0326171875 565.85 344.75 573.35 338.3 580.35 334.75 592.65 328.45 606.9 328.7 620.09765625 328.932421875 631.525 334.7 616.1306640625 337.741796875 609.5 350.1 607.55 352.35 606.25 352.6 605.25 352.85 604 352.65 603.5 352.55 601.75 352.1 598.2 351.25 594.8 352.2 591.1 353.2 589.25 356 588.8 356.6 587.25 359.85 586.1 362.25 584.75 363.25 582.9 364.6 579.1 364.5 574.4 364.45 573 364.85 572.280859375 365.0509765625 571.6 365.375 569.1134765625 366.5720703125 567.3 369.45 565.65 372.1 564.25 376.75
M 559.25 350.85
L 571.6 365.375
M 321.5 232.825
Q 318.75 232.95 316.65 234.9 314.65 236.8 313.85 239.5 312.55 243.95 314.75 250 314.809765625 250.162109375 314.875 250.325 309.0837890625 267.3775390625 305.3 285.75 300.559375 308.81328125 299.35 332.475 298.826171875 331.6884765625 298.4 331 295.35 326.15 294.35 321.75 293.7 318.6 294.5 317.1 295.65 314.55 300.6 313.5
M 296.85 430.1
Q 304.4 433.7 311 438.6
M 539.475 507.925
Q 539 512.2 539.75 519.75 540.45 527.5 544.075 542.5 550.7501953125 537 559.9 537 563.55078125 537 566.8 537.875 571.3853515625 518.0275390625 578.425 502.025
M 544.2 574.725
Q 543.673046875 574.2740234375 543.15 573.8 536.2 567.5 536.2 558.55 536.2 549.6 543.15 543.3 543.6111328125 542.88203125 544.075 542.5
M 513.25 509.6
Q 500.8349609375 533.8677734375 494.35 560.55 487.7 587.55 487.6 615 488.8052734375 616.3072265625 490.125 617.45 492.71171875 619.66484375 495.75 621.25 504.3 625.75 516.4 626.5 522.1646484375 626.8326171875 533.25 626.15 533.5283203125 626.1419921875 533.8 626.125 537.4767578125 625.8890625 541.725 625.55
M 566.8 537.875
Q 572.2890625 539.346875 576.65 543.3 581.4607421875 547.6609375 582.95 553.3
M 490.125 617.45
Q 483.15 624.15 481.1 636.75 479.6 647.5 482.5 658.25 485.65 669.7 492.75 676.25 496.75 679.9 501.85 681.55 507.05 683.3 512.1 682.5 517.45 681.55 521.45 677.8 522.219140625 677.068359375 522.875 676.25 525.728125 672.7181640625 526.5 667.6 523.3001953125 668.2484375 519.5 668.1 512.95 667.9 509.1 665.35 505.9 663.2 503.75 658.6 502.4 655.75 502.15 653 501.85 649.85 503 647.5
M 533.8 626.125
Q 534.97421875 626.43671875 535.95 627.25 537.2 628.2 537.75 629.5 539.2 632.45 537.5 635.85 536.3 638.5 532.85 640.5
M 516.85 642
Q 521.1 639.45 525.7 639.2 530.85 638.9 534.1 641.75 536.9 644.15 538.25 648.85 539.7 654.2287109375 538.525 657.85 538.4435546875 658.1078125 538.35 658.35 537.55 661 535.4 663.15 533.35 665.15 530.6 666.35 528.690625 667.1625 526.5 667.6
M 539.1 656.75
Q 541.75 660 544.5 661.6 545.7177734375 662.225390625 546.925 662.575 549.368359375 663.3189453125 551.75 662.95
M 522.875 676.25
Q 526.9 678.95 531.9 678.95 536.85 679 541.1 676.6 543.8462890625 675.1021484375 545.675 672.65 547.509765625 670.1904296875 547.85 667.85 548.1884765625 665.5169921875 546.925 662.575
M 603.75 700.85
Q 612.75 708.1 623.75 712.3 634.7 716.45 650.7 717.75
M 628.55 132.7
L 702.75 64.75"/>
</defs>

<g transform="matrix( 1, 0, 0, 1, 0,0) ">
<use xlink:href="#Layer2_0_FILL"/>
</g>

<g transform="matrix( 1, 0, 0, 1, 0,0) ">
<use xlink:href="#Layer0_0_FILL"/>

<use xlink:href="#Layer0_0_1_STROKES"/>
</g>
</svg>
