
<svg xmlns="http://www.w3.org/2000/svg" version="1.1" xmlns:xlink="http://www.w3.org/1999/xlink" preserveAspectRatio="none" x="0px" y="0px" width="1280px" height="720px" viewBox="0 0 1280 720">
<defs>
<g id="Layer2_0_FILL">
<path fill="#FFFFFF" stroke="none" d="
M 1280 720
L 1280 0 0 0 0 720 1280 720 Z"/>
</g>

<g id="Layer1_0_FILL">
<path fill="#FACEB5" stroke="none" d="
M 592.8 561.95
Q 592.6076171875 561.9224609375 592.45 561.9
L 592.2 561.95 592.1 562 592 562.1 591.85 562.15
Q 591.75 562.15 591.8 562.3 591.75703125 562.25703125 591.65 562.3 591.630078125 563.1181640625 591.6 563.9 591.65 564 591.9 564.1 591.948828125 564.1244140625 592 564.1 592.0171875 564.61484375 592.2 565.2
L 592.3 565.6 592.2 566
Q 592 566.9 592.25 568.05
L 592.45 568.7 592.5 569.55
Q 592.5189453125 569.6255859375 592.55 569.7 592.4931640625 570.2892578125 592.65 571.1 592.95 573.1 593.25 577.2
L 594.25 588.05
Q 594.35 588.7 594.25 589.05
L 593.95 590.1
Q 593.85 590.65 594.3 592.35 594.45 593.15 594.45 594.85 594.55 599.25 595.3 603.05 595.3091796875 603.0888671875 595.3 603.1 595.0140625 603.931640625 595.3 605.6 595.6 607.35 595.75 610.8 595.95 614.3 596.2 616 596.45 616.9 596.5 617.8
L 596.5 620.3
Q 596.45 621.95 596.85 625.25
L 596.95 627.65
Q 597.1 632.45 597.45 636.15 597.5318359375 636.92734375 597.7 637.35 597.5076171875 638.428515625 597.6 640 597.65 640.95 597.75 642.8 597.75 643.6 597.65 645.2 597.65 646.6 597.95 647.55 598.15 648.05 598.15 648.4
L 598 648.9
Q 597.9732421875 649.025390625 597.95 649.15
L 597.95 649.15
Q 597.916796875 649.669921875 598.05 650.3 598.098828125 650.470703125 598.15 650.65 598.5 652.25 598.55 652.45
L 598.65 655.75
Q 598.7 657.15 598.7 660
L 599.1 664.7
Q 599.35 667.95 599.3 670.2 599.3 671.25 599.45 671.75 599.526171875 671.9658203125 599.65 672.15 599.6 672.59296875 599.6 673.25
L 599.85 677.25
Q 600.2 680.75 600.25 683.6
L 600.35 686.25
Q 600.45 687.95 600.35 689.75 600.25 691.75 600.55 692.55
L 600.8 693.3 600.85 694 600.8 696.6
Q 600.74765625 697.465234375 600.8 698.05 600.65078125 698.6591796875 600.9 699.3
L 601.15 699.9 601.15 700.75
Q 600.95 701.9 600.95 703.25
L 601.15 706.2
Q 601.2 707.15 601.1 709.1 600.8 714.9 600.2 718.3 599.95 719.7 600 720.15 600.2 721.3 601 721.7 601.5 721.95 602.35 721.95
L 612.35 721.9
Q 613.8 721.85 616.7 721.55 618.15 721.4 620 721.5 621.65 721.5 622.2 721.1 622.95 720.5 623.05 718.75
L 623.25 716.65
Q 623.25 716.2 623.35 716
L 623.6 715.5
Q 623.95 714.95 624.05 713.65 624.3 710.6 625.2 704.6 625.4 703.1 625.6 702.45 626.05 700.95 626.1 700.4 626.2 699.75 626.1 699
L 626.05 698.35
Q 626.35 697.5 626.45 696.2
L 626.75 692.8
Q 626.85 691.75 626.8 691.2
L 626.75 690.25
Q 626.75 690.1 627 688.95 627.25 687.85 627.35 685.8 627.45 683.55 627.65 682.6 627.85 681.4 627.75 680.95
L 627.55 680.25
Q 627.5 679.95 627.65 679.5 627.9 678.85 627.9 678.75 627.85 677.7 627.85 677.2 627.7 675.85 628.25 674.5
L 628.7 673.15
Q 628.840625 672.2130859375 628.3 671.55 628.3732421875 671.2125 628.45 670.65
L 629.05 661.85
Q 628.85 659.45 628.85 658.25
L 629.15 653.95
Q 629.35 652.25 628.95 651.35 628.75 650.9 628.7 650.75 628.65 650.4 628.7 649.95
L 628.85 648.35
Q 629.15 645.1 628.95 643.55 628.7 640.9 628.7 640.65 628.9 639.5 629 638.9 629.1 637.9 628.8 637.25 628.9 636.4546875 628.9 635.4
L 628.75 623.4
Q 628.9 619.7 628.8 617.85 628.6 615.55 628.6 614.4 628.75 610.5 628.55 608.6
L 628.45 607.65 628.6 606.6
Q 628.7 605.5 628.65 604.9 628.65 604.1650390625 628.45 603.7 628.7013671875 603.3111328125 628.75 602.8 628.8 602.35 628.6 601.55 628.4 600.1 628.5 598.1 628.5 595 628.4 594.4 628.3 593.55 628.3 593.35 628.4 592.8 628.45 592.5 628.75 591.4 628.5 590.1 628.15 588.95 628.15 588.6 628.3 587.45 628.35 586.85 628.4 586.2 628.25 585.2 628.05 583.85 628.05 583.5 628 582.9 628.1 581.75 628.3 579.9 628.05 578.75
L 627.85 577.75 627.9 575.15
Q 628 573.85 627.9 572.55 627.8 571.8 627.85 571.45
L 628.05 570.5
Q 628.15 569.8 627.85 569.3
L 627.65 569.1
Q 627.75 567.7390625 627.75 567.65 627.9 567.1 627.95 566.8 628.05 566.3 627.95 565.9 627.65 565.35 627.6 565.05 627.55 564.8 627.65 564.25
L 628 562.65
Q 628.1 561.55 627.95 561.25 627.7 560.9 627.65 560.7 627.6 560.6 627.6 560.05
L 627.75 558.7
Q 627.81640625 557.8369140625 627.7 557.25 627.851171875 557.1689453125 627.9 556.9
L 627.9 556.25 628 555.65
Q 628.05 555.35 627.9 555.1 627.7 554.9 627.4 554.9 627.2 554.85 626.95 554.9 626.15 555 625.85 555.5
L 625.75 555.8
Q 624.9205078125 555.84765625 623.8 556.35 623.5865234375 556.4404296875 623.35 556.5 622.576171875 557.1142578125 622.35 557.25 621.45 557.65 621 557.9 620.3 558.25 619.95 558.35 619.35 558.6 618.9 558.45
L 618.7 558.4
Q 613.9650390625 560.1669921875 610.6 560.9 608.9 561.25 608.15 561.45
L 606.75 561.8 605.4 561.95
Q 603.35 562.2 601.55 562.6 600.5 562.75 600.4 562.75 599.9 562.8 599 562.7
L 597.35 562.5
Q 595.8263671875 562.2142578125 595.2 562.45 595.04609375 562.348046875 594.85 562.25 594.4955078125 562.1021484375 594.1 562.05 593.9904296875 562.1 593.85 562.1 593.7771484375 562.1 593.65 562.1 593.63828125 562.094140625 593.6 562.1 593.531640625 562.1177734375 593.45 562.15
L 593.4 562.05
Q 593.1529296875 562.0205078125 592.8 561.95
M 486.6 562.85
L 486.65 562.8 486.8 562.55 486.7 562.25 486.65 562.15
Q 486.4 561.8 486 562
L 485.85 562.1 485.65 562.4 485.6 562.4
Q 485.3365234375 562.3564453125 485.05 562.35 484.59765625 562.25 483.9 562.25 482.4 562.25 479.4 561.85
L 477 561.5
Q 474.4 561.25 472.65 560.75
L 467.75 559.05
Q 466.25 558.55 465.55 558.2
L 462.95 556.85
Q 462.45 556.25 462.15 556 461.6294921875 555.55390625 460.95 555.5 460.9861328125 555.2861328125 460.75 555.05 460.5 554.85 459.95 554.95 459.75 554.35 459.25 554.5 458.75 554.6 458.85 555
L 459 555.45
Q 459.05 555.55 459.1 555.95 459.15 556.25 459.25 556.4 459.16484375 556.5123046875 459.1 556.65 458.8 557.35 459.05 558.25 459.101953125 558.444921875 459.15 558.6 459.1130859375 559.0916015625 459.25 560.05 459.25 560.2 459.15 561.05 459.15 561.7 459.2 562.95
L 459 563.9
Q 458.95 564.4 459.05 565.4 459.1 566.2 459 567.9 458.9 569.55 459 570.4
L 459.2 571.7 458.95 580.4
Q 458.85 582.75 459 583.9
L 459.15 585.15
Q 459.15 585.25 459 587.05 458.9 588.1 458.95 590.15 458.8 591.9 458.85 592.15 458.8994140625 592.7439453125 459.15 593.15 459.15 593.26640625 459.15 593.4 459.1 593.8 459.1 594.6 459.1 595 458.9 595.95 458.75 596.85 458.75 597.35
L 458.9 598.95
Q 459 600 458.9 602.15
L 458.8 604.1
Q 458.6 607 458.8 609 458.9 609.9 458.85 610.35
L 458.65 611.45
Q 458.5 612.05 458.5 612.7 458.35 615.2 458.4 619.6 458.45 624.5 458.4 626.5 458.4 626.9134765625 458.45 627.25 458.3880859375 627.4908203125 458.25 628.55 458.15 630.75 458.2 631.75
L 458.15 632.9 457.95 633.9 457.75 641.2
Q 457.75 643.55 457.55 645.4
L 457.35 647.2
Q 457.3 648.4 457.35 649.6
L 457.25 660.5
Q 457.15 661.45 457.45 662 457.55 662.25 457.75 662.4
L 457.8 662.4
Q 457.7 663.105859375 457.7 664.2
L 457.95 676.25
Q 458.1 683.15 458.6 689.1
L 459.25 694.75
Q 459.3359375 695.480859375 459.55 696 459.37265625 696.6583984375 459.5 697.55
L 459.9 699.9
Q 459.95 700.2 459.95 701.6 459.95 702.6 460.1 703.25 460.2 703.8 460.55 704.85 460.65 705.4 460.65 706.55 460.7 707.35 461.15 710 461.55 712.1 461.45 713.4 461.4 714.05 461.3 715.3 461.35 716.3 461.7 717.35 462.25 718.95 462.3 719.1 462.9 720.7 463.8 721.15 464.4 721.5 465.4 721.4 466.25 721.4 468 721.2
L 473.6 721.65
Q 474.9 721.75 477.55 721.45 477.8 721.45 480.25 721.5 481.9 721.55 482.95 721.35 483.95 721.15 484.25 721.2
L 485.05 721.4
Q 486.3 721.75 487.05 720.65 487.6 719.95 487.5 718.15 487.2240234375 711.8486328125 487.1 703.15 487.01875 702.06796875 487.05 700.45 487.0048828125 700.1828125 486.95 700 486.75 699.6 486.75 699.4
L 486.7 698.85 486.85 697.45
Q 486.94140625 696.3990234375 486.75 695.85 486.9310546875 695.26328125 486.85 694.25
L 486.45 687.5
Q 486.35 683.65 486.35 682.85
L 486.5 681
Q 486.55 680.45 486.4 677.6
L 485.75 664.05
Q 485.95 662.95 486 662.4 486.1 661.45 485.8 660.85
L 485.75 660.85
Q 485.8 660.592578125 485.8 660.3
L 485.95 654.9
Q 486 654.1 485.95 653.3
L 485.75 651.55
Q 485.85 649.55 485.85 648.55
L 485.85 648.2 485.85 647.15
Q 485.8244140625 646.1765625 485.8 645.3 485.73671875 643.655859375 485.55 641.9
L 485.45 640.65 485.7 638.6 485.5 631.95
Q 485.4 631 485.55 630.2 485.75 629 485.75 628.35 485.8212890625 627.566015625 485.5 627 485.5716796875 626.75390625 485.55 626.45 485.5 625.7 485.45 625.3
L 485.5 623.65
Q 485.7 620.2 485.6 618.5 485.5 617.25 485.55 616.65 485.75 615.2 485.8 614.5 485.8927734375 613.89765625 485.9 613.15 485.9283203125 612.8375 485.9 612.45 485.9271484375 612.342578125 485.9 612.2 485.92421875 611.7962890625 485.9 611.35 485.8 608.75 485.85 608.2
L 485.9 607.75 485.9 606.9
Q 485.9 606.8109375 485.9 606.7
L 485.8 606.2
Q 485.95 605 485.9 604.35
L 485.8 603.45
Q 485.85 602.85 485.85 602.55 486 601.7 485.9 601.1
L 485.65 600.15
Q 485.6 599.75 485.7 598.9 485.8 597.45 485.8 594.6 485.760546875 593.929296875 485.7 593.55 486.1029296875 593.200390625 486.25 592.55 486.2458984375 592.4736328125 486.25 592.4
L 486.3 591.45
Q 486.2630859375 591.0240234375 486.2 590.35 486.15 589.95 486.3 588.15 486.4 586.8 486.3 582.75
L 486.1 578.95
Q 486.1 578.15 486.6 574.15 486.75 573.35 486.75 572.45 486.75 571.6 486.45 570.75 486.2 570.2 486.15 569.9 486.1 569.75 486.25 568.95 486.4 568.3 486.4 567.55 486.4 566.2 486.5 565.95
L 486.85 565
Q 486.91953125 564.59453125 487 564.1 486.974609375 563.8923828125 486.9 563.65 486.778515625 563.358203125 486.6 563.1 486.634375 562.987890625 486.6 562.85
M 663.3 333.3
Q 663.1 332.85 662.6 332.3 661.85 331.5 661.8 331.4 661.1 330.15 660.7 329.55 660.3 328.85 658.85 327.3
L 651.8 320.45
Q 648.85 317.85 646.4 315.85
L 642.5 312.6
Q 641.44296875 311.76171875 640.65 311.6 640.6537109375 311.4939453125 640.6 311.4 640.4 311.05 640 311.15 639.6 311.35 639.7 311.7 639.6322265625 311.7337890625 639.55 311.75 638.855859375 312.19375 638.05 313.35 635.55 316.8 630.1 320.5
L 627.05 322.55
Q 624.15 324.4 622.1 325.45
L 619.75 326.6
Q 617.1 327.8 612.05 328.95 611.45 329.15 611.1 329.1 610.3 328.95 609.85 328.9 609.15 328.85 608.55 329.3 608.396875 329.41484375 608.25 329.55 608.1783203125 329.5 608.05 329.5 607.84609375 329.4591796875 607.65 329.6 607.5994140625 329.639453125 607.5 329.65 607.26171875 329.53828125 607 329.8
L 606.95 329.85
Q 606.79765625 329.9201171875 606.65 330
L 605.05 327.9
Q 604.25 326.8 603.75 326.35 603.2 325.8 602.2 325.25 600.7 324.3 597.5 322.9 595.8 322.25 594.45 321.9 593.95 321.8 591.45 321.55 589.1 321.4 587.9 321.4 587.15 321.4 586.8 321.3
L 585.9 321.05
Q 585.25 320.9 584.35 321 582.4 321.3 581.4 321.35 580.2 321.45 579.95 321.55 579.7353515625 321.624609375 579.55 321.7 579.4033203125 321.6806640625 579.25 321.65 578.4 321.55 577.05 321.8 576.35 322 576 321.95 575.55 321.95 575.1 321.6 574.4 321.15 573.4 320.1 572.25 318.9 571.7 318.5
L 570.25 317.55 568.85 316.25
Q 567.75 315.15 567.3 314.55
L 566.8 313.75
Q 566.5 313.3 566.25 313.05 565.942578125 312.7767578125 565.6 312.65
L 565.6 312.55 565.5 312.25 565.35 312.05 565.1 311.9
Q 565.05 311.9 564.75 311.6 564.5 311.35 564.3 311.35 564.15 311.35 564 311.5
L 563.95 311.5 563.85 311.65
Q 563.75 311.75 563.8 311.95
L 563.85 312.15 563.8 312.15 563.7 312.25
Q 563.6 312.25 563.6 312.4
L 563.5 312.6
Q 563.35 312.9 563.35 312.95
L 563.35 313.1
Q 562.9109375 313.558203125 562.85 314.35 562.8365234375 314.538671875 562.85 314.75 562.7814453125 314.8185546875 562.7 314.9
L 562.1 315.8
Q 561.6 316.7 559.45 319.9
L 555.8 324.65 554.35 326.1
Q 553.05 327.3 550.35 329.2 547.5 331.2 546.3 332.25
L 545.15 333.2 544.2 333.75
Q 543.6 334.05 543.35 334.4 543.2310546875 334.5189453125 543.15 334.65 542.5666015625 334.751171875 541.9 335.05 540.9 335.45 540.4 335.75
L 539.45 336.35
Q 539.2 336.5 538.25 336.85
L 533.6 338.6
Q 532.35 338.85 532.3 338.9 531.65 339.3 531.3 339.4 530.8 339.65 529.9 339.75 525.7 340.6 523.6 340.9 521.75 341.1 519.4 341.1
L 512.3 341.45
Q 510.7 341.5 508.25 341.15
L 503.8 340.6 502.4 340.2
Q 501.75 340 499.4 339.6 497.5 339.25 496.45 338.8 494.95 338 494.2 337.75 492.6 337.3 491.8 336.95 490.85 336.4 490.3 336.2 488.9 335.95 488.3 335.65 488 335.55 487.35 335.05 486.75 334.6 486.35 334.5 486.207421875 334.4603515625 486.05 334.45 485.8365234375 334.24609375 485.55 334.05
L 480 330.1
Q 479.2 329.5 476.5 327.15
L 472.85 323.45
Q 470.6 320.95 470.05 320.25
L 468.45 318
Q 467.15 316.1 466.65 315.05
L 465.9 313.3
Q 465.35 312.35 465.1 311.85 464.65 311 464.45 310.35 464.3 309.45 464.15 309.05 464.0330078125 308.6115234375 463.8 308.3 463.7748046875 307.489453125 463.35 306.3 462.35 303.4 462.15 299.6 462 297.2 462.2 292.7 462.4 287.95 462.95 285.6 463.45 283.55 464.6 280.8 465.75 277.75 466.6 276.2 467.5 274.45 469.45 271.9 471 269.75 473.05 267.2 473.95 266.05 474.35 265.75 475.05 265.2 476.6 264.35 477.7 263.55 478.8 261.9 479.0962890625 261.4119140625 479.25 261 479.8798828125 260.8025390625 480.55 260.3 484.7 257.5 486.1 256.65
L 488.05 255.6
Q 493.25 253 501.6 251.2 508.95 249.5 514 249.5
L 519.3 249.85
Q 523.5 250.2 526.6 250.7
L 529.65 251.3
Q 530.6 251.45 531.35 251.8 531.95 252.1 533.1 252.9 533.8265625 253.19921875 534.6 252.95 534.937109375 253.3576171875 535.4 253.5 535.8 253.65 536.7 253.75 537.6 253.95 538.55 254.35 540.55 255.2 541.85 255.9 544.65 257.35 547.55 259.55
L 548.7 260.4
Q 549.35 260.9 550.7 261.75
L 552.25 263.05
Q 553.25 264.05 553.4 264.25 554.45 265.8 554.6 265.95 555.0287109375 266.28359375 555.45 266.4 555.8150390625 266.75 556.15 266.75 556 267 556.15 267.25 556.3 267.5 556.55 267.55 557 267.65 557.25 267.2 557.4 266.95 557.55 266.4 557.75 265.55 558.3 264.3 559.05 262.7 559.2 262.3
L 559.45 261.45
Q 559.644140625 260.9064453125 560.1 260 560.565625 259.40546875 560.75 259 560.87265625 258.6625 560.95 258.35
L 561.05 258.25 561.25 257.7
Q 561.3302734375 257.5033203125 561.4 257.35 561.5 257.1 561.7 256.95
L 562.25 256.6
Q 562.8 256.3 563.15 255.6 563.4 255.15 563.75 254.25 563.95 253.85 564.65 252.8 565.15 252.1 565.45 251.8
L 566.35 251.1
Q 566.65 250.85 567.75 249.35
L 568.3 248.85
Q 568.55 248.65 569.1 248.4 569.45 248.2 569.8 247.8 570.05 247.6 570.45 247.1 571.05 246.5 572.45 245.5
L 578.4 241.4
Q 581.25 239.65 583.85 238.45 584.1861328125 238.4560546875 584.55 238.35
L 585.65 237.85
Q 586.15 237.6 586.9 237.5
L 590 236.85
Q 591.95 236.4 592.45 236.2
L 594.9 235.35
Q 596.2 235 598.2 234.8
L 600.2 234.65 610.7 235.65
Q 612 235.75 613.25 235.95
L 618.2 237.3
Q 619.2 237.65 621.5 238.8
L 623.25 239.7 624.45 240.15
Q 624.508203125 240.1580078125 624.55 240.15
L 624.6 240.3 624.8 240.55
Q 625 240.7 625.3 240.6
L 625.4 240.75 625.75 241.1
Q 626 241.35 626.2 241.4 626.55 241.5 626.7 241.25
L 626.8 241.05 626.85 241.1 626.85 240.9 626.9 240.95
Q 626.85 240.85 626.9 240.7
L 626.9 240.6 626.95 240.3 626.95 240.05 627 239.75 626.9 239.3 626.85 239.15 626.75 239
Q 626.688671875 238.938671875 626.6 238.9 626.9388671875 238.11640625 626.55 237.3 626.43984375 237.0658203125 626.25 236.85 626.5541015625 236.243359375 626.6 235.35 626.65 234.75 626.5 233.85 626.25 232.55 626.25 232.35 626.1 231.2 626.2 229.7 626.4 223.55 626.1 219.8
L 625.95 217.95
Q 625.9 217.05 626.05 215.45 626.15 213.65 626.15 212.9 626.2 211.85 626.05 209.65 625.95 207.45 625.95 206.35 625.95 205.6078125 625.9 205.05
L 625.95 205.05 626.2 200.85
Q 626.2 200 626 199.4 625.7 198.3 625.65 197.75 625.5 196.7 625.8 195.75
L 626.05 195.05
Q 626.140234375 194.580859375 626.05 194.15 626.2345703125 193.70234375 626.2 193.15 626.15 192.35 625.65 191.8 625.5 191.6 624.35 190.85 623.55 190.35 621.4 188.55 620.25 187.65 617.75 186.05 614.6 184.05 612.65 183.1 610.25 181.9 609.7 181.5 608.6 180.75 608.05 180.7
L 607.45 180.65
Q 607.3 180.6 606.75 180.3 605.55 179.45 604.55 179 602.9 178.45 602.15 178.05
L 600.75 177.2
Q 599.7 176.8 599.2 176.6
L 595.85 175.2
Q 595.096875 174.7763671875 594.5 174.75 594.48515625 174.75 594.45 174.75 593.8 174.85 593.45 174.8 593 174.75 592.35 174.35 592.1103515625 174.2169921875 591.9 174.1 591.287890625 173.965234375 590.85 173.85 590.4763671875 173.7681640625 590.1 173.65 590.080078125 173.6845703125 590 173.7 589.5736328125 173.4455078125 588.15 173.2
L 586.3 172.65
Q 586.0884765625 172.6662109375 585.85 172.6
L 584.4 172.1
Q 583.2384765625 171.822265625 581.45 171.55 578.9 171.1 577.85 170.85
L 575 170.2
Q 574.7158203125 170.1513671875 574.4 170.1
L 572.5 169.95
Q 572.35 169.95 570.05 169.5 568 169.1 565.2 168.9 561.9 168.8 560.25 168.7
L 553.3 167.85
Q 551.05 167.75 549.95 167.7
L 549.9 167.7
Q 549.7642578125 167.69765625 549.6 167.7
L 547.7 167.7
Q 547.6625 167.6998046875 547.6 167.7 539.944921875 167.656640625 532.3 167.7 531.63125 167.7 531.15 167.8 530.5775390625 167.45 529.4 167.45 528.35 167.4 526.6 167.6 524.55 167.8 523.8 167.8
L 518.7 167.85
Q 510.25 167.75 508.6 167.65 508.183984375 167.6345703125 507.8 167.6 507.2927734375 167.6068359375 506.85 167.6
L 506.4 167.6
Q 505.2595703125 167.5728515625 504.5 167.6 500.7 167.85 498.85 167.7 496 167.2 494.55 167.2 493.05 167.2 492.3 167.1
L 490.8 166.85
Q 490.3 166.8 489.5 166.85 488.5 166.95 488.2 166.95 487.8 166.95 486.65 166.85 485.65 166.75 485.05 166.8 483.8 166.95 483.55 166.9 483.1 166.85 482.3 166.55 481.2 166.2 479.45 166.1 477.5 166 476.55 165.9
L 475.75 165.7 475.05 165.35
Q 474.45 165.05 473.75 165.2 473.5205078125 165.2458984375 473.3 165.3 472.909765625 165.1896484375 472.35 165.1 469.85 164.85 468.65 164.55 467 164.05 466.2 163.9
L 464.9 163.7
Q 464.3958984375 163.4982421875 464.05 163.35 463.0302734375 163.1376953125 462.1 162.9 461.8896484375 162.8490234375 461.6 162.75 460.9083984375 162.67421875 460.5 162.6 460.35 162.6 458.65 162.15
L 456.4 161.45
Q 455 161.1 454.25 160.7 453.05 160.1 452.7 160 452.25 159.85 451.5 159.8 450.45 159.75 450.3 159.75 449.5 159.65 448.25 159.15
L 445.85 158.2
Q 441.75 156.3 439.65 155.5
L 437.95 154.85 429.7 150
Q 428.15 149.05 427.7 148.7
L 426.45 147.65
Q 425.7 147 425.15 146.75
L 424.15 146.25 423.6 145.65
Q 423.2486328125 145.378515625 422.9 145.05 422.8197265625 144.9916015625 422.7 144.95 422.679296875 144.85625 422.6 144.75 422.2833984375 144.3923828125 421.95 143.95 421.7224609375 143.7830078125 421.4 143.65
L 421.35 143.4 421.35 143.35 421.15 143.2
Q 420.95 143.1 420.8 143.15
L 420.7 143.15 420.5 143.3 420.35 143.45 420.35 143.5 420.2 143.65
Q 419.8974609375 143.726953125 419.6 143.9 419.0896484375 144.72265625 418.5 145.45
L 418.35 146.25
Q 418.25 146.55 417.7 147.3
L 415.2 150.5
Q 413.85 152.8 413.15 153.95 412.4 155.35 412.3 155.6 412.1 156.05 411.9 157 411.5 158.85 410.45 161.8 409.15 165.25 408.8 166.55 408.55 167.35 408.5 168
L 408.4 169
Q 408.3560546875 169.30703125 408.2 169.9 408.191796875 170.05390625 408.15 170.2 407.8 171.55 407.75 171.9 407.65 172.6 407.75 174.05 407.85 175.5 407.7 176.25 407.65 176.5 407.4 177.4 407.2 178.1 407.15 178.55
L 407.25 179.75
Q 407.4 180.9 407.3 183.05 407.2 185.35 407.3 186.4
L 407.55 188.45
Q 408.1 191.6 408.15 194.75
L 408.25 196.6
Q 408.4 198.3 409.1 200 409.1658203125 200.1537109375 409.2 200.3 409.0892578125 200.663671875 409.15 201.15
L 409.7 204.5
Q 409.7291015625 204.5509765625 409.75 204.6 409.96640625 205.2490234375 410 205.9
L 411.25 209.7
Q 411.45 210.4 411.65 211.85
L 412.15 213.3
Q 412.45 214.25 412.75 216.15
L 413.5 219.3 414.4 221.7
Q 415.1 223.1 415.3 223.85 415.5 224.55 415.7 225.9
L 416.05 227.25
Q 416.3 228.15 416.65 230 416.9 231.1 417.65 233.25 418.35 235.4 418.65 236.55 418.95 237.85 419.2 238.45 419.375 238.783984375 419.55 239.05 419.5642578125 239.771484375 419.95 240.8 421.45 244.8 422.8 250.35 424.5 256.65 424.6 256.9 424.8 257.55 425.75 260.05 426.45 261.95 426.8 263.2
L 427.55 266.6
Q 428.9 273.4 430.95 280.7 431.17734375 281.609375 431.5 282.1 431.73203125 283.6345703125 432.5 286.1 433.4 289.2 433.5 290.75
L 433.65 293.55
Q 433.85 294.4 434.45 296 434.85 297.35 435.05 299.55 435.137890625 300.8912109375 435.2 301.75
L 435.25 302
Q 435.364453125 302.6298828125 435.35 303.15 435.45 303.75 436.05 306.6 436.6 309.45 436.8 312.3 437.15 315.9 437.7 327.05 438.05 335.7 438.05 338.1 438.15 342 437.65 344.65 437.56484375 345.0328125 437.5 345.35 437.3044921875 346.391796875 437.3 347 437.2927734375 347.1345703125 437.3 347.25 437.3 347.615234375 437.35 347.9 437.213671875 348.37265625 437.1 348.9
L 436 353.35
Q 435.4 355.55 435 356.6 433 361.85 428.25 365.15 427.9140625 365.3515625 427.6 365.5 427.5296875 365.5943359375 427.45 365.65 427.1396484375 365.87578125 426.75 366 426.2875 366.2234375 425.95 366.35 424.3 366.95 421.65 367.05 419.65 367.15 418.3 366.75 415.75 366.15 414.1 364 413.3 362.8 412.8 362.25 412.426171875 361.83671875 412.05 361.55 412.06796875 361.375 412.05 361.15 411.9865234375 360.3876953125 411.6 359.9
L 411.6 359.55 411.55 359.5 411.45 359.2
Q 411.45 359.25 411.4 359.2
L 411.35 359.1
Q 411.35 359.05 411.2 359.05 411.05 359.05 411.15 358.95
L 411.1 358.9
Q 411.2251953125 358.8642578125 411.25 358.75 411.0205078125 358.3892578125 410.9 358.1
L 410.8 357.85 410.8 357.85 410.7 357.9
Q 410.51484375 357.838671875 410.3 357.9 410.246484375 357.9 410.2 357.9 409.7515625 358.308984375 409.25 358.7
L 409.15 358.85 409.1 358.9
Q 409.2 358.95 409.05 359.15
L 409 359.2
Q 408.980078125 359.3591796875 408.95 359.5 408.4392578125 359.8107421875 407.7 360.55
L 406.95 361.3 405.9 361.9
Q 405.3 362.4 405 362.6 404.75 362.8 403.25 363.4
L 400.65 364.45
Q 399.55 364.85 398.65 365 397.4 365.15 395.3 364.7 394.2 364.4 393.7 364.15 393.05 363.8 391.95 362.9
L 390.7 361.7
Q 389.85 360.7 389.1 359.05 387.6 355.95 387.25 354.95 386.3 352.15 386.3 349.05 386.3 347 386.25 346.75 386.2416015625 346.7044921875 386.2 346.65 386.35 346.1080078125 386.35 345.25 386.35 344.1 386.1 343.6
L 386.5 341.35
Q 386.7 340.25 386.7 339.7
L 386.7 338.45
Q 386.7 338.35 386.85 336.7
L 386.95 335.55
Q 387.2 333.4 387.25 331.25
L 387.3 329.7
Q 387.6 328.2 387.65 327.45
L 387.6 326.5 387.65 325.7
Q 387.85 324.7 387.95 324.2 387.98671875 323.86953125 387.95 323.55 388.12578125 323.2966796875 388.2 323 388.45 322.05 387.95 321.3 387.7 320.9 387.15 320.65 386.55 320.35 386.2 320.15 384.35 319.05 383.35 318.6 382.7 318.3 381.05 317.85 379.55 317.45 378.8 317.05 377.8 316.55 377.55 316.5 377.25 316.45 376.7 316.5 376 316.55 375.85 316.55 375.35 316.55 374.65 316.35
L 373.45 315.95
Q 372.6 315.75 371.45 315.75
L 369.05 315.7
Q 366.2 315.7 364.8 315.8 362.1 316.25 360.75 316.35 359.9001953125 316.423828125 359.4 316.5 359.376953125 316.5380859375 359.35 316.55 358.4982421875 316.9556640625 357.65 317.05 356.0865234375 317.504296875 355.3 317.75
L 353.7 318.45
Q 351.55 319.15 350.5 319.55 348.25 320.8 347.1 321.3 346.353125 321.5751953125 346.05 321.7 345.2408203125 321.9345703125 344.2 322.65
L 341.5 324.35
Q 340.55 325 339.5 326 337.75 327.5 335.8 329.35 334.45 330.6 333.85 331.3
L 333.55 331.65 332.75 332.45 331.3 334.35
Q 330.93984375 334.9263671875 330.75 335.35
L 330 336.35 326.85 341.9
Q 325.45 344.65 324.75 346.35
L 324.25 347.7
Q 323.6287109375 349.4427734375 323.15 350.85 323.079296875 350.9916015625 323 351.15 322.8029296875 351.544140625 322.75 352.3 322.2888671875 353.9591796875 322.15 355 322.05 355.9 321.95 356.1 321.9 356.4 321.65 356.95 321.55 357.35 321.5 358.2 321.45 358.85 321.3 360.1 321.363671875 360.54609375 321.55 360.95 321.4658203125 361.2888671875 321.25 361.85 320.95 362.75 321.45 364.7
L 321.45 366.5
Q 321.45 367.45 321.7 368.75 321.8 369.5 322.1 371
L 322.25 373.3 322.55 374.5
Q 323.6 378.5 324.35 380.7 324.7080078125 381.6306640625 325.1 382.2 325.0841796875 382.7671875 325.4 383.35 325.6 383.7 326.1 384.4 326.19296875 384.5859375 326.4 385.4 326.9255859375 386.2392578125 327.65 387.3
L 328.3 388.65
Q 328.3771484375 388.79453125 328.45 388.95 328.622265625 389.122265625 328.8 389.3 329.2 389.75 329.65 390.65 330.15 391.65 330.4 392 330.9 392.7 332 393.95 332.3 394.35 332.8 395.3 333.05 395.7 334 396.8
L 338.5 401.65
Q 340.35 403.5 341.4 404.35 342 404.9 343.25 406 343.9 406.55 345.15 407.7 345.5 407.9 348.25 409.1 349.4 409.65 351.6 410.95 354.2 412.35 355.35 412.8 356.38515625 413.1763671875 356.9 413.15 357.8083984375 414.11796875 359.2 414.35 359.8 414.4 361.05 414.4 361.95 414.55 363.6 415.3 364.1 415.45 365.8 415.7
L 374.45 416.6
Q 375.1 416.65 376.35 416.55 377.75 416.5 380.55 416.45 382.15390625 416.41796875 383.4 416.3
L 384 416.25
Q 384.35 416.25 384.85 416.05 385.7330078125 415.79765625 387.4 415.65
L 389.95 415.2
Q 392.387109375 414.5908203125 396.5 413.05 396.9697265625 412.8826171875 397.45 412.7 398.077734375 412.4619140625 398.75 412.2 398.890625 412.7859375 399.25 413.5
L 399.5 413.85 399.5 413.95
Q 399.5509765625 414.04453125 399.6 414.15 400.4390625 415.628515625 402.05 418 402.3115234375 418.3857421875 402.55 418.75 402.5755859375 418.77109375 402.6 418.8 403.9 420.4 404.45 421.25
L 405.55 423.2
Q 406.15 424.1 407.55 425.7
L 408.25 426.95
Q 408.273046875 426.99453125 408.3 427.05 408.5248046875 427.25546875 408.8 427.5 409.7 428.35 410.1 428.8 410.85 429.6 412.05 431.4 412.4169921875 431.9138671875 413 432.6 414.1015625 433.6802734375 414.8 434.55 416.425390625 436.2955078125 417.8 437.75
L 417.8 437.75
Q 418.255859375 438.22265625 418.65 438.65 421.6638671875 441.7388671875 423.35 443.3 424.9 444.7 428.1 447.4 432.65 451.3 435.8 453.75 438.4376953125 455.784765625 441.3 457.75 441.3712890625 457.7802734375 441.45 457.8
L 441.65 457.95 441.65 458
Q 442.420703125 458.53046875 443.2 459.05 444.2 459.75 444.85 459.8 445.0169921875 459.8185546875 445.15 459.8 445.4623046875 460.1666015625 445.9 460.5 446.5 460.95 447.7 461.7
L 450.5 463.95 451.6 464.45 452.45 464.7
Q 452.6873046875 464.731640625 452.9 464.7 453.340234375 465.201953125 454.55 465.85
L 457.1 467.2 457.8 467.75 463.9 470.85
Q 465.4 471.4 465.5 471.45
L 466.35 472.05
Q 466.95 472.45 469 473
L 470.2 473.45 471.05 474.05
Q 471.35 474.2 472.15 474.45 474.65 475.25 475.4 475.6
L 476.5 476.15
Q 477.35 476.6 478.9 477.15
L 482.3 478.45
Q 483.05 478.7 487 479.95 487.7 480.15 488.15 480.15 488.3716796875 480.1279296875 488.55 480.05 488.9177734375 480.4876953125 489.4 480.75
L 489.65 480.7
Q 490.3 480.65 491.1 481 491.76953125 481.229296875 492.4 481.4 495.13125 481.853125 498.9 482.7
L 503.95 483.75
Q 504.55 483.85 504.95 484.1 505.45 484.45 505.85 485.6 506.65 487.6 508.9 489.75 511.6 492.4 515.9 495.05 517.7869140625 496.2630859375 519.25 496.8 519.8689453125 496.8251953125 520.6 497.15
L 520.7 497.2
Q 521.4712890625 497.35859375 522.7 497.6 523.5 497.8 525.35 498.3 527 498.75 527.95 498.95 530.35 499.4 534.5 499.3 537.841796875 499.243359375 539.9 499.15 540.7203125 499.069921875 541.1 499.05 541.4787109375 499.05 542.05 499 542.21953125 499.0134765625 542.35 499 543.608984375 498.890625 545.4 498.65 546.220703125 498.4763671875 547.05 498.2 548.45 497.85 549.95 497.3
L 552.9 496
Q 553.8 495.65 555.6 495.1 555.9462890625 494.9615234375 556.85 494.5 557.3310546875 494.250390625 557.85 493.95
L 560.35 492.35 561.3 491.6 563.3 489.65
Q 563.4263671875 489.5236328125 563.55 489.4
L 564.55 488
Q 564.810546875 487.4640625 565.15 486.6
L 565.6 485.4 565.6 485.3
Q 566.1314453125 485.3060546875 566.75 485.2 569.3 484.75 569.35 484.75
L 570.5 484.8
Q 570.6826171875 484.8115234375 570.85 484.8 571.467578125 484.7591796875 572.5 484.4 573.9 483.9 576.05 483.65 577.1841796875 483.508203125 579.4 483.25 582.1345703125 482.7033203125 584.7 482.15
L 591.9 480.35
Q 595.4 479.4 595.75 479.3
L 597.9 478.65
Q 598.95 478.35 601.15 477.75 602.05 477.45 602.95 477
L 604.75 476.2
Q 605.1 476 605.6 475.9
L 606.35 475.85
Q 607.35 475.8 608.75 475.15
L 611 474.05
Q 611.7 473.75 613.05 473.35
L 614.9 472.55
Q 616.0955078125 472.12578125 616.6 471.75 616.8841796875 471.753125 617.15 471.7 617.9 471.6 619.2 470.7 620.55 469.9 621.45 469.5 622.75 468.85 625.4 467.7 628.05 466.4 630.2 464.65 632.15 463.1 632.5 462.85 633.2 462.4 635.1 461.35 636.7 460.45 637.55 459.75 637.9 459.45 638.95 458.3 639.8 457.4 640.45 456.95
L 642.6 455.7
Q 643.4291015625 455.147265625 643.85 454.45 643.9013671875 454.4388671875 643.95 454.4 644.3 454.15 645.25 453.2 645.5 452.95 648.2 450.75 650 449.3 650.85 448.05 651.05 447.8 651.4 447.35
L 655.7 443.3
Q 656.9 442.35 657.05 442.2 657.25 442.05 658 440.9 659.3 439 662.3 435.45 664.05 433.2 666.65 429.2
L 667.9 427.2
Q 668.5 426.15 668.7 425.9
L 669.8 424.8
Q 670.0970703125 424.3171875 670.1 423.85 670.616796875 423.3609375 671.05 422.35
L 675.1 412.7
Q 675.55 411.6 675.65 411.2
L 676.15 409.55
Q 676.6 408.7 676.75 408.25
L 677.25 406.7
Q 677.8 405.65 677.9 405.1
L 677.95 404.1
Q 678.25 403.35 678.4 402.95 678.5 401.75 678.65 401.2 678.95 400.3 678.95 400.2 678.85 399.8 678.9 399.6 678.9 399.35 679.2 398.95 679.5556640625 398.2740234375 679.4 397.55 679.8 395.9404296875 679.8 395.8 679.95 393.3 680.1 392.05 680.4 390.4 680.55 389.55 680.8 388.05 680.7 387.05
L 680.6 386.2 680.7 385.15
Q 680.8 384.05 680.75 383.4 680.6 382.1 680.6 381.45
L 680.65 380.35
Q 680.7 378.65 680.35 376.15
L 680 373.8
Q 679.8 372.2 679.6 371.4 679.25 370.05 679.2 369.75 679.35 367.95 678.95 367.15 678.79765625 366.921484375 678.65 366.8
L 678.45 365.1
Q 678.3 364.45 677.85 363.2 677.35 361.9 677.2 361.25 676.95 359.85 676.85 359.65 676.55 359.1 676.4 358.8
L 675.4 356.3
Q 675 354.8 674.9 354.6 674.35 353.5 674.3 353.35 674.1 352.9 673.9 352 673.7 351 673.6 350.65 673.25 349.85 672.45 348.55 671.15 346.75 670.4 345.35
L 669.3 342.95
Q 668.65 341.55 668 340.7 666.65 338.95 666.55 338.75 666.15 337.25 665.75 336.55 665.45 336.05 664.75 335.35 663.95 334.55 663.7 334.25 663.6525390625 334.1828125 663.6 334.1 663.5251953125 333.7220703125 663.3 333.3
M 648.85 389.65
Q 648.7 390.25 648.5 391.55 648.45 391.7 647.65 393.6 647.3009765625 394.5423828125 647.35 395.2 647.233203125 395.4576171875 647.1 395.8 646.85 396.45 646.25 397.25
L 645.45 398.05
Q 644.95 398.7 644.7 399.65
L 644.35 400.65 643.05 402.65
Q 641.6 404.25 640.9 405.1
L 639.95 406.55
Q 638.55 408.65 634.4 412.25 631.55 414.7 630.15 415.45
L 628.85 416.15
Q 628.15 416.55 627.3 417.3 626.4 418.1 626.25 418.15
L 625 418.65 623.95 419.4
Q 623.35 419.85 622.15 420.55 618.1 422.7 616.45 423.4
L 612.8 424.8
Q 610.55 425.6 609.85 425.9
L 604.1 428.2
Q 600.35 429.65 597.9 430.25 595.990625 430.6796875 595.4 430.95 595.03515625 431.033984375 594.6 431.15
L 587.5 432.7
Q 584.35 433.4 582.6 433.55 578.5 433.8 576.5 434.2 574.7 434.6 574.45 434.65 573.8 434.7 571.6 434.6 569.5 434.4 567.4 434.45 566.8 434.45 563.4 434.7 559.7 434.95 555.95 434.55 551.05 433.8 548.55 433.7 546.25 433.65 545.15 433.45 544.4640625 433.2828125 543.9 433.15 543.7103515625 432.9701171875 543.45 432.85 543.15 432.65 541.95 432.4 539.8 432.1 536.25 430.9 532.2 429.55 530.65 429.2 529.1 428.8 528.85 428.7
L 527.45 428
Q 526.5 427.5 524.75 426.9 522.6 426.15 522 425.9
L 515.7 422.65
Q 514.6 421.95 511.6 420.55 508.95 419.3 507.65 418.3 506 416.85 505.2 416.15 504.6 415.65 502.7 414.25 501.1 413.05 500.25 412.25 499.65 411.7 499.05 410.95 498.15 409.95 495.1 406.2 493.4 404.1 492.75 403
L 492.2 402 491.9 401.1
Q 491.7 400.55 491.45 400.2 491.29140625 399.955859375 491.1 399.75 491.0705078125 399.558203125 491 399.3 490.85 398.65 490.75 398.3 490.4 396.85 490.15 396.15 489.35 394.4 489.05 393.5 488.8 392.65 488.7 390.95 488.6 389.5 488.7 386.6 488.8 385.4 488.95 384.8 489.1 384.15 489.55 383.15 490.05 381.9 490.2 381.5 490.9 379.2 491 379.05 491.35 378.3 492 377.6
L 493.5 375.65 494.1 375 494.9 374.5
Q 495.408203125 374.1126953125 495.6 373.6 495.843359375 373.456640625 496.15 373.15 497.35 372.05 498.7 371.6
L 499.65 371.35
Q 500.25 371.15 501.4 370.45 502 370.2 502.75 370.1 504.35 369.8 505.15 369.8 506.6 369.8 509.5 370.1 510.35 370.1 512.05 369.95
L 513.4 370.05
Q 513.5486328125 370.1080078125 513.7 370.15 513.95 370.25 515.35 370.5 515.5169921875 370.525 515.75 370.55
L 516.3 370.8
Q 517.25 371.25 519.4 371.55 519.9482421875 371.5998046875 520.35 371.6
L 520.4 371.6 531.95 374.1
Q 536.75 375.15 539.65 375.3 540.2103515625 375.3623046875 540.65 375.3 541.004296875 375.43671875 541.4 375.5 542.1 375.65 543.6 375.55 544.85 375.55 547.15 375.7 549.6 375.9 550.7 375.9 551.35 375.9 552.65 375.8 553.95 375.7 554.55 375.7 555.65 375.65 557.75 375.6 559.6 375.5 560.9 375.2 562.3 374.85 562.8 374.85 563.3 374.85 564.35 375 565.25 375.05 566.45 374.85 567.15 374.75 568.55 374.45 570.35 374.1 574.05 373.6 575 373.45 576.9 372.95
L 579.05 372.4
Q 585.45 370.8 588.55 369.8 592.05 368.75 592.45 368.65 593.0865234375 368.5556640625 593.5 368.4 594.16328125 368.5833984375 594.9 368.3 595.3 368.1 596.05 367.65 596.45 367.5 597.55 367.5 598 367.45 599 367.15
L 604.85 365.4
Q 608.75 364.2 612.5 362.7
L 616.15 361.3
Q 620.8 359.8 623.35 359.35 627.55 358.65 630.8 359.4
L 632.55 359.9
Q 633.95 360.3 634.55 360.6
L 636.4 361.6
Q 637.3 362.05 639.25 362.85 639.791796875 363.1208984375 640.2 363.25
L 640.2 363.3 641.2 364.3
Q 641.5 364.6 641.95 365.25 642.35 365.65 643.25 366.25 643.6 366.55 644.2 367.25 644.75 367.95 645.1 368.25
L 645.75 368.9 646.9 372 647.55 373.1 648.85 375.85
Q 649.2 376.9 649.4 379
L 649.55 380.75
Q 649.7 382.75 649.5 385.65 649.4 387.2 649.25 388
L 648.85 389.65 Z"/>

<path fill="#333333" stroke="none" d="
M 575.15 484.1
Q 574.15 484.15 573.65 484.25 572.85 484.35 572.3 484.65
L 571.7 484.95 571 484.85
Q 570.9390625 484.8412109375 570.85 484.8 570.6826171875 484.8115234375 570.5 484.8 570.0626953125 484.877734375 569.65 485.1 569.3982421875 485.2078125 569.2 485.35 568.6109375 485.2208984375 568 485.25 566.85 485.35 566.05 486 565.55 486.4 565 487.3
L 564.55 488 563.55 489.4 562.55 490.65
Q 562.4 490.85 561.5 491.45
L 561.3 491.6 560.35 492.35 559.65 492.9
Q 559.1 493.35 557.8 494.05 557.2775390625 494.311328125 556.85 494.5 555.9462890625 494.9615234375 555.6 495.1 553.8 495.65 552.9 496
L 549.95 497.3
Q 548.45 497.85 547.05 498.2 546.220703125 498.4763671875 545.4 498.65 544.803515625 498.810546875 544.2 498.9 543.6 499 542.65 499 542.338671875 499.015625 542.05 499 541.4787109375 499.05 541.1 499.05 540.7203125 499.069921875 539.9 499.15 538.711328125 499.2798828125 536.55 499.55 533.7 499.9 531.95 499.8
L 529.65 499.65
Q 529.25 499.75 528.85 499.65
L 528 499.3
Q 527.65 499.15 526.8 499.15
L 525.85 499
Q 523.25 498.5 522.05 497.9 521.025 497.35078125 520.7 497.2
L 520.6 497.15
Q 519.8689453125 496.8251953125 519.25 496.8 519.1541015625 496.8302734375 519.05 496.85 518.9482421875 496.7974609375 518.85 496.75 517.35 496 513.5 493.6 512.55 493 512.25 492.7 511.05 491.75 510.7 491.65
L 510.1 491.55
Q 509.8 491.4 509.55 491.05
L 506.2 487 505.75 486.15
Q 505.05 484.9 503.8 484.25 502.85 483.75 499.7 483.3 497.01796875 482.9482421875 492.4 481.4 491.76953125 481.229296875 491.1 481 490.3 480.65 489.65 480.7
L 489.4 480.75 488.8 480.9
Q 488.65 480.9 487.75 480.65 486.95 480.3 485.9 480.05
L 481 478.45 480.55 478
Q 480.2 477.6 479.65 477.45 479.1 477.3 478.6 477.5 478.2 476.95 477.5 476.75 477.1837890625 476.6822265625 476.85 476.7 476.71015625 476.5599609375 476.5 476.45 475.4 475.85 474.4 476.55
L 471.5 479.95
Q 469.65 482.25 469.15 483.05 468.05 484.6 466.05 488.7
L 465.1 490.85
Q 464.45 492.3 463.55 495.4
L 461.55 501.9
Q 461.1685546875 503.044140625 461.45 503.7 461.43046875 503.8591796875 461.4 504.05 460.9 507.85 460.75 508.45 460.4 510.35 460.35 510.7
L 460.35 512.7
Q 460.35 513.2 459.8 517.05
L 459.15 535.65
Q 459.15 536.8373046875 459.4 537.4 459.25 537.91015625 459.25 538.65
L 459.3 540.35
Q 459.55 543.1 459.45 544
L 459.2 545.8 459.15 548.6
Q 459.05 549.45 458.8 551.2 458.7 552.8 459.3 553.7 459.65 554.35 460.7 555
L 464.45 556.95
Q 466.35 557.9 468.1 558.6 468.55 558.85 469.55 559.15 470.2 559.35 471.45 559.55 471.65 559.6 473.7 560.25 475.05 560.7 475.95 560.8 477 560.9 477.25 561.05
L 478.05 561.45
Q 478.2 561.5 479.4 561.5 480.4 561.4 482.4 561.7
L 483.85 561.9
Q 485.05 562 485.45 561.9 485.7951171875 561.810546875 486.05 561.65 486.6111328125 561.9552734375 487.4 561.85
L 487.05 563.8
Q 487.0203125 563.9681640625 487 564.1 486.91953125 564.59453125 486.85 565 486.75 565.8306640625 486.75 566.35 486.75 567.35 487 569.35 487.05 570.55 486.8 572.85 486.7 574.2 486.8 576.8
L 486.5 582.1
Q 486.3 583.1 486.35 583.5 486.3908203125 583.7859375 486.65 584.35
L 486.65 584.4
Q 486.55 584.75 486.55 585.4
L 486.3 591.45 486.25 592.4
Q 486.2458984375 592.4736328125 486.25 592.55 486.05 596.037890625 486.05 597.85
L 486.1 602.7
Q 485.95 604.35 485.95 604.45 485.9021484375 604.8326171875 485.9 606.7 485.9 606.8109375 485.9 606.9
L 485.9 607.75 485.95 609.4
Q 485.95 610.9650390625 485.9 612.2 485.9271484375 612.342578125 485.9 612.45 485.9283203125 612.8375 485.9 613.15 485.8865234375 615.320703125 485.8 616.3 485.7 617.4 485.8 617.95 485.9478515625 618.5416015625 486.25 618.9 486.2 619.1533203125 486.2 619.45 486.15 619.95 486.25 621
L 486.35 631.35
Q 486.35 632.05 486.2 633.55 486.05 635 486.05 635.75 486.05 636.45 486.1 637.9
L 485.85 641.45
Q 485.7755859375 642.86328125 485.8 645.3 485.8244140625 646.1765625 485.85 647.15
L 485.85 648.2
Q 485.919140625 650.6279296875 486.25 652.2 486.3228515625 652.63671875 486.45 653 486.392578125 653.151171875 486.35 653.3
L 486.3 654.55
Q 486.3 655.3 486.15 657.05 486 658.65 486.05 659.55
L 486.25 661.6 486.1 664.55
Q 486.05 665.35 486.15 666.95
L 486.75 682.95
Q 486.85 683.85 486.75 684.65 486.65 685.9 486.65 686.1 486.726953125 686.819140625 487.1 687.3 487.066015625 687.509765625 487.05 687.75 487 688.2 487.05 689.1
L 486.95 690.5
Q 486.9 691.2 487.15 693.55 487.25 695.1 487.1 698.55 487.051953125 699.576171875 487.05 700.45 487.01875 702.06796875 487.1 703.15 487.1322265625 703.34453125 487.15 703.5
L 487.35 705.4
Q 487.7 707.85 487.9 712.7
L 488.15 719.5
Q 488.25 720.7 488.45 721.1 488.95 721.9 489.8 722.05 490.2 722.15 490.95 722.05
L 498 721.8
Q 503.1 721.7 505.65 721.85 506.25 721.85 507.45 721.95
L 509.4 722.05
Q 513.65 722.15 515.25 721.95 518.25 721.45 518.9 721.45 519.65 721.4 521.15 721.4 522.20625 721.278125 522.8 720.7 523.2666015625 720.8 523.9 720.8 524.8 720.8 529.3 720.9 531.1 720.9 532.35 721.15 532.95 721.25 534.1 721.45 534.7 721.5 535.9 721.4 541.85 720.95 547.4 721.3 549.1 721.4 552.5 721.65 555.45 721.85 557.55 721.7 558.7435546875 721.6177734375 559.4 721.25 559.7421875 721.3 560.25 721.3 561.3 721.35 566.65 721.6 570.5 721.75 573 721.7
L 575.55 721.65
Q 577.65 721.6 580.55 721.85
L 585.9 722.2
Q 589.15 722.35 592.55 721.8 594.2 721.55 594.45 721.55 595.4 721.55 597.25 721.8 599.05 721.7 599.6 720.55 599.75 720.25 599.85 719.1 600.25 716.1 600.4 714.6 600.65 712.2 600.35 706.4
L 600.3 704
Q 600.45 702.35 600.45 701.55 600.45 700.95 600.25 698.85 600.05 697.2 600.2 696.15 600.35 694.8 600.35 694.75 600.35 694.150390625 600.05 693.75 600.15 693.35859375 600.15 692.85 600.3 689.4 599.95 684.1 599.45 676.45 599.4 675.3 599.3 671.9 599.2 671.2 598.85 668.85 598.75 667.65 598.8 665.5 598.7 664.45 598.45 662.55 598.45 661.6 598.65 659.6 598.6 658.65 598.55 658.05 598.35 656.95 598.1 655.8 598.05 655.3 598.05 654.9 598.15 652.8 598.1861328125 651.78828125 598.05 650.3 597.916796875 649.669921875 597.95 649.15
L 597.95 649.15 597.95 649.1
Q 597.65 646.3 597.6 645.4 597.6 645.0255859375 597.55 644.75 597.61953125 644.27578125 597.55 643.65 597.35 640.65 597.35 639.2
L 597.35 637.4 596.95 634.55
Q 596.8 633.45 596.8 632.2
L 596.6 626.75
Q 596.5 625.45 596.35 625.1
L 596.1 624.3
Q 596 624.05 596 623.55 595.85 621.75 595.85 619.95 595.85 618.7 595.75 618.05 595.45 616.9 595.4 616.3 595.35 615.5 595.4 614.7
L 595.5 612.85
Q 595.5259765625 612.6548828125 595.5 612.45 595.7400390625 611.937890625 595.6 611.35
L 595.25 610.3 595.2 609.3
Q 595.15 606.15 594.65 602.55
L 594.4 600.95
Q 594.2 599.45 594.1 596.4
L 593.85 591.05
Q 593.85 589.6 593.65 588.9
L 593.35 588
Q 593.3 587.85 593.3 586.85
L 593.35 585.05
Q 593.45 583.85 593.25 583.3 593.183984375 583.1017578125 593.1 582.95 593.2287109375 582.4013671875 593.15 581.85 593.15 579.25 592.9 576
L 592.65 574.25
Q 592.35 573.35 592.3 572.8 592.25 571.45 592.1 570.75
L 591.8 569.7
Q 591.55 568.7 591.55 566.65 591.55 565.292578125 591.6 563.9 591.630078125 563.1181640625 591.65 562.3 591.68828125 562.137890625 591.7 561.95 591.9900390625 561.8775390625 592.45 561.9 592.6076171875 561.9224609375 592.8 561.95 593.1529296875 562.0205078125 593.4 562.05 593.5578125 562.0771484375 593.65 562.1 593.7771484375 562.1 593.85 562.1 593.9904296875 562.1 594.1 562.05 594.5896484375 562.01171875 594.95 561.7 595.369140625 561.92421875 595.9 562 596 562 597.8 562.3
L 599 562.55
Q 599.6 562.6 600.9 562.4 601.75 562.25 604.65 561.7 606.95 561.25 608.35 561.1
L 610.1 560.9 614.55 559.6
Q 616.45 559.05 617.4 558.55 618 558.25 618.25 558.25
L 618.7 558.4 618.9 558.45
Q 619.35 558.6 619.95 558.35 620.3 558.25 621 557.9 621.45 557.65 622.35 557.25 622.576171875 557.1142578125 623.35 556.5 623.4591796875 556.4669921875 623.55 556.4
L 626.1 555.15
Q 626.8 554.8 627 554.6 627.85 553.8 627.5 552.65 627.487109375 552.582421875 627.45 552.5 627.5154296875 552.4123046875 627.55 552.3 627.7 551.95 627.7 550.7
L 627.75 549.1
Q 627.75 548.4 627.55 546.9 627.3 544.8 627.3 540.45 627.3 536.15 627 533.95 626.7 531.3 626.7 531.2 626.9 528.25 626.8 526.75
L 626.7 525.2
Q 627.05 523.5 626.85 522.7 626.45 521.75 626.4 521.25 626.35 521 626.6 519.65 626.78671875 518.7166015625 626.35 518.25 626.453515625 517.919140625 626.5 517.5 626.5 516.85 626.35 516.15
L 626.05 515.2
Q 626.05 513.55 625.85 512.75
L 625.6 511.85
Q 625.45 511.3 625.45 510.15 625.45 508.45 624.9 506.7
L 624.55 505.45
Q 624.4 504.7 624.3 503.25 623.8 501 623.7 499.85 623.7 499 623.55 498.6 623.25 497.95 623.1 497.6 622.95 497.2 622.85 496.4 622.8 495.45 622.7 495.1 622.6 494.65 622.25 493.8 621.9 492.9 621.8 492.5 621.4 490.95 621.3 490.75
L 620.75 489.95
Q 620.65 489.75 620.4 488.6 620.15 487.7 619.8 487.1 619.5 486.6 619.45 486.35 619.3 485.65 619.2 485.3 619.0912109375 484.8919921875 618.8 484.6 618.7009765625 484.273828125 618.5 483.95 618.25 483.45 617.7 482.8 616.9 481.85 616.8 481.7
L 613.9 477.45 613.5 476.7 611.7 475.15
Q 610.85 474.5 609.7 474.95
L 608.8 475.5
Q 608.65 475.55 607.55 475.8 606.05 476.1 603.8 477.05 600.75 478.35 600.1 478.55
L 597 479.35
Q 591.47109375 480.6822265625 584.7 482.15 582.1345703125 482.7033203125 579.4 483.25 578.5046875 483.4625 577.6 483.65 576.3 483.95 575.15 484.1 Z"/>

<path fill="#7A4425" stroke="none" d="
M 650.7 29.5
L 650.35 29.1
Q 650.1775390625 28.597265625 649.8 27.95
L 649.6 27.65 649 27
Q 648.8 26.9 648.55 26.55 648.3326171875 26.2783203125 648.05 26.1 646.853125 24.735546875 644.25 23
L 638.15 20
Q 636.65 19.3 635.85 19.05
L 624.05 16.15
Q 623.408203125 16.0857421875 623 16.1 622.86015625 15.9927734375 622.7 15.9 622.2 15.65 621.45 15.55 614.6 14.45 607.75 14.65
L 603.25 14.85
Q 602.15 14.95 600.05 15.05 592.75 15.6 589.75 16.15
L 585.55 17.05
Q 584.05 17.15 583.35 17.3
L 581.7 17.75
Q 580 18.1 579.2 18.45 578.8490234375 18.607421875 578.55 18.8 578.066015625 18.76015625 577.1 19.05
L 569.8 21.2
Q 568.2 21.7 567.4 22.05 566 22.9 565.25 23.15 563.7 23.6 562.9 23.85
L 561.25 24.5
Q 558.65 25.3 557.35 25.85 555.65 26.7 555.15 26.9 554 27.35 553.6 27.6 553.05 28 552.8 28.15
L 551.8 28.5
Q 551.35 28.65 549 29.9 546.65 30.9 545.55 31.5 543.7 32.6 542.7 33.05 541.15 33.6 540.4 34 540.19765625 34.101171875 540 34.2
L 539.8 33.9 539.65 33.75
Q 539.625 33.725 539.6 33.7 539.7341796875 33.5173828125 539.85 33.3 540.4 32.3 540.65 30.65 540.8 28.75 540.95 27.85
L 541.35 26.1
Q 541.45 25.55 541.85 22.5 541.929296875 21.4298828125 541.85 20.8 542.1 20.25 542 19.65
L 542 19.6
Q 541.9 19.2 541.7 18.9
L 541.65 18.85
Q 541.8306640625 17.157421875 541.4 15.1 541.15 13.75 540.35 11.3 540 10.35 539.85 10.15 539.1 9.25 538.75 8.8 538 7.7 537.55 7.25 536.3 5.9 533.05 5 531.95 4.65 531.1 4.6
L 528.1 4.6
Q 527.3 4.6 526.4 4.85 525.6271484375 5.1076171875 525.15 5.45 524.8681640625 5.52265625 524.3 5.75 522.8 6.35 521.7 6.95 520.95 7.3 519.55 8.2 517.8 9.25 513.55 12.4
L 512.25 13.35
Q 510.95 14.3 510.7 14.55 509.15 16.1 508.25 16.75
L 506.95 17.75
Q 506.35 18.25 506.1 18.55 505.4 19.25 503.7 20.6 502.1 21.9 501.35 22.7 500.25 24.05 499.6 24.7 497.9 26.1 497.25 26.95
L 496.3 28.2
Q 495.8978515625 28.4521484375 495.4 28.95 494.8076171875 29.5423828125 494.6 29.9 494.199609375 30.22890625 493.7 30.6 492.3 31.75 491.8 32.6 491.7787109375 32.63984375 491.75 32.65 491.6798828125 32.7115234375 491.6 32.75 490.95 33.05 490.15 34.1
L 487.8 36.95
Q 487.3 37.5 486.65 38
L 475.75 47.75
Q 473.15 50.15 472.6 50.65 471.6 51.7 471.35 51.85 469.9 52.75 469.25 53.2 467.65 54.5 466.8 55.05 465.65 55.75 465.15 56.2
L 464 57.35 462.9 57.85
Q 462.55 58 461.85 58.5
L 460.9 59.15
Q 460.863671875 58.523046875 460.4 58.05 460.796484375 56.1095703125 460.95 55.15
L 461.2 53.2 461.2 52
Q 461.2 50.25 461.4 49 461.7 47 461.4 46.2 461 45.3 461 45.25
L 460.95 44.4
Q 460.95 43.5 460.6 42.8
L 460.25 42.1
Q 460.1 41 459.95 40.45 459.45 39.45 459.3 38.95 459.1 37.75 458.8 37.2 458.6 36.8 458.15 36.45 457.65 35.95 457.35 35.75 456.8 35.35 455.95 34.9 454.55 34.2 452 33.35 450.85 33 450.45 33.05 449.4 33.3 448.85 33.4 448 33.45 447.55 33.6 447.1015625 33.737890625 446.75 34.05 446.4896484375 34.13671875 446.15 34.25 441.85 35.85 440.1 38.25
L 439.25 39.45
Q 438.9 39.9 437.55 41.25 435.95 43.25 435.05 44.15
L 433.3 45.75
Q 432.15 46.8 428.85 50.2
L 424.85 54.5
Q 424.1 55.35 423.65 55.7
L 422 57.05
Q 421.2 57.95 420.7 58.85 420.6396484375 58.9646484375 420.55 59.05 420.469921875 59.0828125 420.35 59.1
L 420.5 59.1
Q 420.3966796875 59.1177734375 420.3 59.15 419.8 59.3 419.4 59.7
L 417.7 61.15
Q 416.3 62.35 415.65 63.05 414.7 64.05 414.15 64.5
L 412.7 65.6
Q 411.9 66.2 408.9 68.95
L 406.95 70.55
Q 404.1 72.75 403.6 73.1 401.4 74.5 400.3 75.3
L 386.1 84.45
Q 385.9837890625 84.549609375 385.85 84.65 385.344921875 84.68046875 384.5 85.15 383.5 85.6 383 86 382.3 86.6 381.9 86.8 381.05 87.2 380.65 87.4
L 379.65 88.1
Q 378.9 88.65 376.5 89.85 374.7 90.75 373.45 91.5 372.95 91.75 372.15 92.25
L 371.4 92.75 370.1 93.4
Q 369.25 93.8 367.8 94.7 366.25 95.7 365.55 96.05 364.35 96.6 363.75 96.9 362.7 97.4 362.05 97.9
L 360.95 98.8 358.25 100.1
Q 356.35 100.95 355.6 101.65
L 354.6 102.5 350.45 104.75
Q 349.65 105.35 349.2 105.6 347.9 106.2 347.3 106.6 346.25 107.65 345.6 108.05
L 344.85 108.45
Q 344.74765625 108.0220703125 344.45 107.65
L 344.15 107.3 343.75 106.95
Q 343.3380859375 106.66171875 342.8 106.6 342.4181640625 105.9154296875 341.6 105.15 339.65 103.35 335.15 100.45
L 331.15 97.9
Q 329.5 97.2 328.7 96.85
L 326.4 95.95
Q 323.9 95 322.4 94.6
L 317.55 93.65
Q 313.95 93.05 313.2 92.95 312.5 92.9 308.85 92.75 303.75 92.75 298.3 93.45
L 295.05 93.95
Q 294.32890625 94.0873046875 293.9 94.25 293.409765625 94.23828125 292.7 94.3
L 290.55 94.55
Q 288.4 95 286.4 96 283.35 97.5 280.5 99.95 278.95 101.4 278.3 102.6 277.95 103.2 277.4 104.7 276.2 108.25 276.55 110.15 276.65 110.65 276.9 111.55 277.2 113.25 277.25 113.4 277.5 113.95 278.2 114.65
L 279.2 115.75
Q 279.95 116.55 280.6 117.1 281.5 117.75 283.5 118.6 284.25 119 284.45 119.2
L 285.45 119.8
Q 286.6 120.45 289.1 121 289.5169921875 121.1390625 289.95 121.3
L 290.05 122.75 290.05 122.75
Q 289.8810546875 122.8494140625 289.7 122.95 288.65 123.6 287.8 124.3 286.75 125.05 285.8 126
L 281.25 131.15
Q 280.45 131.95 279.95 132.8 279.6 133.45 279.1 134.85 278.75 135.75 278 137.55 277.85 138 277.35 140.55 277.15 142.2 277.25 142.8 277.3 143.35 277.7 144.25 278.2 145.5 278.75 146 279.1 146.3 279.9 146.8 280.2 147.05 280.65 147.5 281.1 147.9 281.45 148.05 281.65 148.15 283.25 148.4 283.4 148.45 284.75 148.9 285.7 149.2 286.3 149.1 286.75 149.05 287.6 148.85 288.05 148.85 289.05 149.05
L 289.95 148.75
Q 290.1 148.7 291.5 148.45 292.05 148.35 293.15 147.95
L 295 147.25
Q 295.7 146.9 297.25 145.85 298.65 144.9 299.55 144.5
L 301.35 143.8
Q 302.4 143.35 303.65 142.35 304.35 141.8 305.75 140.6
L 315.6 134.1
Q 315.6689453125 134.0572265625 315.7 134 315.6443359375 134.5751953125 315.5 134.9 315.35 135.25 314.95 135.7 314.4 136.3 314.3 136.45 313.55 137.7 313.15 138.3
L 310.95 141.35
Q 307.1 147.45 305.85 150.8 305.60703125 151.4318359375 305.55 151.95 305.2962890625 152.15546875 305.1 152.45 304.4 153.35 303.9 154.9 303.6 155.8 303.05 157.55
L 302.05 160.15 301.55 162.25
Q 301.45 162.75 300.7 165.1 300.05 167.2 299.1 171.85
L 298.55 175.05
Q 298.45 175.9 298.3 177.6 298.15 179.1 297.95 180.1 297.85 180.85 297.65 182.3 297.65 182.4345703125 297.65 182.55 297.187109375 183.7140625 297.05 185.45 296.95 186.55 296.8 188.7 296.7 189.65 296.3 191.45 295.65 195.35 295.55 203.25
L 295.25 208.35
Q 295.25 209.1919921875 295.35 209.65 295.1765625 210.25546875 295.1 211.25 295.05 213.35 295.1 215.5
L 295.1 216.65
Q 295.2 217.75 295.1 218.8 295.1 219.75 294.9 221.55 294.75 222.5 294.4 224.45 294.15 226.1 294.25 227.35
L 294.6 230.95
Q 294.8 231.65 294.8 232 294.8 232.15 294.7 233.25 294.55 234.1 294.55 234.9
L 294.3 245.95
Q 294.3 246.85 294.15 247.75 294.114453125 248.022265625 294.1 248.25 293.7259765625 248.6267578125 293.65 249.5
L 293 253.5
Q 292.85 254.15 292.25 255.35 290.4 259.05 289.4 260.3 287.3 262.85 284.05 264.2 282.05 265 278.45 265.55
L 276.15 265.9
Q 275.3 266 267.1 266.55 261.6 266.9 258.25 268.15 257 268.6 256.2 269.15
L 255.15 269.9 254.2 270.3
Q 253.8 270.5 253.15 271.4
L 252.25 272.65
Q 252.0041015625 272.9662109375 251.8 273.25 251.555859375 273.46484375 251.25 274 249.9 276.65 250.2 281.75 250.4 284.55 251.35 285.65 251.7 286.1 251.75 286.25
L 251.9 286.65
Q 252.2 287.85 253.15 289.1 253.7 289.85 255 291.2
L 257.45 293.6
Q 257.8 293.95 258.6 294.55 260.6 296 265.3 297.7
L 268.65 298.9
Q 269.35 299.15 270.85 299.45
L 272.05 299.7
Q 274.05 300.1 275.05 300.2
L 276.75 300.35
Q 277.3 300.45 278.35 300.65 278.39453125 300.65 280.35 300.75 280.3587890625 301.1640625 280.6 301.55
L 280.7 301.65 280.8 301.8 280.9 301.9 280.25 302.65
Q 279.65 303.25 277.85 306.05 277.668359375 306.3404296875 277.45 306.65 277.303125 306.76484375 277.15 306.9 276.85 307.15 276.6 307.55 275.3 309.35 274.75 310.3 274.4142578125 310.9234375 274.25 311.45 273.7064453125 312.2322265625 273.1 313.1 270.25 317.3 268.9 320.45 268.45 321.45 268.3 321.7 267.8 322.7 267.75 322.95 267.7162109375 323.05625 267.7 323.15 267.3396484375 323.616015625 267 324.4
L 265.25 328.15
Q 263.55 331.65 262.65 334.1 262.15 335.45 261.35 338.15
L 260.55 340.85
Q 259.35 344.9 259.05 347.15 258.5 350.75 259.1 355.3 259.1228515625 355.527734375 259.15 355.7
L 259.15 355.75
Q 258.95 356.4 259.15 357.4
L 260.9 364.3
Q 261.65 366.4 262.8 368.6
L 263.95 370.55
Q 266.85 375.25 270.3 376.9
L 273.25 378.35 274.7 378.75
Q 275.35 378.9 275.4 378.9
L 276.15 379.2
Q 276.8 379.45 277.8 379.3 278.4 379.2 279.55 379 280.85 378.85 281.05 378.75 281.25 378.65 281.7 378.35 281.95 378.25 282.45 378.3 282.95 378.3 283.75 377.7
L 286.95 375.4
Q 287.15 375.25 287.9 374.35 288.55 373.6 290.15 372.15 291.7 370.75 292.4 369.9 293.4 368.6 293.9 367.95 294.328515625 367.45390625 294.7 367.05 294.794140625 367.09296875 294.85 367.1 294.9173828125 367.1111328125 294.95 367.1 294.9353515625 367.580859375 294.9 368.2
L 294.85 382
Q 294.9 384.5 295.35 388.1 295.8 392.05 296.75 394.5 297.02265625 395.408984375 297.45 395.9 297.540234375 396.170703125 297.65 396.5 297.75 397.05 297.7 398.1 297.8 398.65 298.3 399.65 299.15 401.65 300.5 405.75 301.2 407.75 302.5 410.8 303.2 412.4 303.5 412.95 303.8 413.6 304.6 414.8
L 307.25 418.7
Q 308.15 419.9 308.35 420.35 308.55 420.8 308.9 421.7 309.1 422.05 309.6 422.65 310.1 423.2 310.25 423.55 310.5 423.95 310.9 424.9 311.35 425.8 312.5 426.6 313.162890625 427.1302734375 313.75 427.3 313.958203125 427.5736328125 314.2 427.85 314.6 428.3 315.45 429.05
L 316.95 430.85
Q 317.35 431.2 318.25 431.95 318.65 432.4 319.35 433.35 319.7 433.75 320.6 434.3
L 321.95 435.65
Q 322.5 436.2 323.4 436.9
L 327 439.85
Q 328.05 440.7 329.85 441.75
L 336.9 446.15
Q 337.35 446.45 340.9 448.4
L 343.5 449.8
Q 344.85 450.5 345.3 450.65
L 346.85 451.3 347.95 452
Q 348.45 452.3 349.45 452.7
L 351.45 453.4
Q 352.55 453.7 353.1 454 353.45 454.2 354.1 454.65 354.4 454.85 355.65 455.2 356.95 455.55 359.2 456.5 359.241796875 456.514453125 359.25 456.5 360.0349609375 457.4583984375 361.5 457.55
L 362.2 457.6 362.9 457.85
Q 364.05 458.4 365.4 458.5 366.35 458.6 366.65 458.75 366.85 458.8 367.35 459.1 368.2 459.6 370.3 460.1
L 380.95 462.3
Q 386.95 463.55 390.5 463.65
L 392.4 463.7
Q 393.05 463.7 394.3 463.9 396.7 464.2 400 464.2 401.9 464.2 405.7 464.15
L 407.45 464.2
Q 408.326953125 464.3208984375 408.9 464.3 409.0927734375 464.3681640625 409.3 464.4 409.6 464.45 410.85 464.35 412.4 464.1 417.8 463.85 420.1 463.65 421.3 463.45 422.5 463.3 424.75 462.7 427.05 462.15 428.2 461.95 428.95 461.85 430.45 461.6 431.7 461.4 432.6 461.05 433.85 460.55 434.15 460.5 434.9 460.35 436.4 460.35 437.2228515625 460.2376953125 437.8 459.65 438.1181640625 459.5669921875 438.4 459.4
L 438.8 459.3 439.05 459.2 439.25 459.15 439.4 459.05 440.6 458.9 440.95 458.8 441.1 458.8 441.45 458.7 441.6 458.55 441.75 458.25 441.65 458 441.65 457.95 441.45 457.8
Q 441.3712890625 457.7802734375 441.3 457.75 441.0205078125 457.690234375 440.9 457.65 440.6 457.45 440.4 457.35
L 440.1 457.2
Q 439.851953125 457.10078125 439.85 457 439.8244140625 456.8373046875 439.65 456.75
L 439.35 456.6 439.2 456.55
Q 439.0990234375 456.535546875 439 456.5
L 438.8 456.25 438.65 456.1
Q 438.1970703125 455.786328125 437.75 455.7 437.2775390625 455.2435546875 436.4 454.6 433.3 452.6 429.3 448.95
L 428.2 447.9
Q 427.6 447.2 427.35 447 426.55 446.65 426.15 446.35 425.75 445.9 425.5 445.65
L 424.9 445.2
Q 424.35 444.3 423.9 444 423.4 443.75 423.15 443.6
L 422.6 443
Q 422.3 442.6 421.35 441.75 420.5 441 420.15 440.5 419.75 439.8 419.4 439.6
L 418.85 439.25
Q 418.7 439.05 418.7 438.75 418.6830078125 438.694921875 418.65 438.65 418.255859375 438.22265625 417.8 437.75
L 417.8 437.75
Q 417.5431640625 437.6333984375 417.1 437.6
L 417.1 437.6
Q 417.070703125 437.5751953125 417.05 437.55 416.55 436.95 416.3 436.65 416.2 436.55 415.3 435.25 415.077734375 434.9166015625 414.8 434.55 414.1015625 433.6802734375 413 432.6 412.9443359375 432.54140625 412.85 432.45 410.8 430.4 410.25 429.8 409.0384765625 428.44296875 408.3 427.05 408.273046875 426.99453125 408.25 426.95
L 407.55 425.7
Q 406.15 424.1 405.55 423.2
L 404.45 421.25
Q 403.9 420.4 402.6 418.8 402.5755859375 418.77109375 402.55 418.75 401.2896484375 417.233203125 400.75 416.35 400.1 415.25 399.8 415 399.742578125 414.9556640625 399.65 414.9 399.7548828125 414.539453125 399.6 414.15 399.5509765625 414.04453125 399.5 413.95
L 399.5 413.85 399.25 413.5 399.1 413.3 398.95 413.15
Q 398.75 412.95 398.35 412.8 397.9 412.65 397.55 412.7 397.4955078125 412.7 397.45 412.7 396.9697265625 412.8826171875 396.5 413.05 396.4798828125 413.076171875 396.45 413.1
L 396.25 413.3 395.95 413.7
Q 395.7537109375 413.7173828125 395.55 413.75 395.05 413.8 393.55 414.4 391.25 415.3 389.95 415.45
L 388.05 415.65
Q 387.7080078125 415.6658203125 387.4 415.65 385.7330078125 415.79765625 384.85 416.05 384.35 416.25 384 416.25
L 383.4 416.3 383.2 416.35
Q 382.65 416.7 382.35 416.8
L 381.2 416.8
Q 380.15 416.65 379.1 417.05 378.4 417.35 378.1 417.25
L 377.6 417
Q 377 416.6 376.3 416.65 375.55 416.65 375.05 417.05 374.96875 417.1068359375 374.9 417.15 373.1435546875 416.80703125 372.2 416.85 371.25 416.85 371.05 416.8 370.45 416.6 370.15 416.6 369.15 416.75 368.6 416.8 368.55 416.8 367.05 416.5 366.35 416.3 365.25 416.15 363.85 415.95 363.45 415.85
L 360.1 415
Q 357.3 414.25 354.95 413.15
L 349.6 410.55
Q 349.05 410.3 348.8 410.1 348.25 409.5 347.9 409.3 346.95 408.9 346.45 408.65 346.1 408.5 345.3 407.95 344.15 407.05 343.25 406.15 342.35 405.35 342.2 405.3
L 341.25 404.95
Q 341.05 404.8 340.55 404.2 339.75 403.2 337.55 401.3 335.5 399.55 334.65 398.35 333.65 396.75 333.05 396.05
L 332.05 395.05
Q 331.85 394.8 330.95 393.1 330.55 392.3 329.65 390.9 328.883203125 389.6892578125 328.45 388.95 328.3771484375 388.79453125 328.3 388.65
L 327.65 387.3
Q 326.9255859375 386.2392578125 326.4 385.4 325.939453125 384.6548828125 325.65 384.1 325.15 383.1 325 382.95
L 324.6 382.5
Q 324.45 382.2 324.45 381.9 324.258203125 380.3169921875 323.7 379.85 323.67734375 379.721484375 323.65 379.6 322.95 378 322.65 377.2 322.05 375.75 321.75 373.55 321.5 371 321.3 369.75 321.19609375 369.1583984375 321.1 368.65
L 321.15 368.35
Q 321.35 367.45 321.05 365.3 320.8904296875 364.36953125 320.6 363.75 320.6568359375 362.7134765625 320.75 361.2 321.3 356.35 321.75 354.5 322.2 352.45 323.15 349.9 324.55 345.8 325.45 343.85 326.0982421875 342.609765625 326.25 341.7 326.458203125 341.41640625 326.65 341.05
L 330.85 334
Q 332.45 331.5 334.75 329.45 336.1 328.35 336.45 327.9
L 337.3 326.9
Q 337.8 326.4 338.55 325.9
L 341.4 323.75
Q 341.75 323.55 343 322.85 344 322.3 344.55 321.9 344.8814453125 321.646484375 345.1 321.4 345.7751953125 321.486328125 346.3 321.2
L 347.15 320.65 348.1 320.25
Q 348.9 320 349.95 319.4 350.55 319.05 351.7 318.35 352.55 318 352.8 317.95 353.05 317.9 353.65 317.9 354.25 317.8 355.4 317.25 356 317.1 357.25 317.1 357.4482421875 317.090625 357.65 317.05 358.4982421875 316.9556640625 359.35 316.55 359.376953125 316.5380859375 359.4 316.5 359.8509765625 316.323046875 360.65 315.9 361.2 315.7 362.25 315.6 366.05 315.2 367.9 315.15
L 370.05 315.15
Q 373.85 315.15 375.85 315.85
L 377 316.3 381.2 317.25 382 317.75 383.5 318.35
Q 384.2 318.65 385.6 319.45 386.17734375 319.6974609375 386.8 319.9 387.31015625 320.2900390625 387.85 320.35 388.076171875 321.437890625 388.5 322.05
L 388.6 322.2 388.6 322.2 386.8 343.35
Q 386.4 348.9 386.8 351.35 387.05 353.15 388.15 356.3 389.1 359.2 390.3 360.95 391.85 363.3 394.2 364.2 396.3 364.9 399.6 364.25 401.05 364.05 401.9 363.7 402.8 363.35 404.3 362.35 407.2220703125 360.401953125 409.25 358.7 409.7515625 358.308984375 410.2 357.9 410.3517578125 357.7642578125 410.5 357.6 410.6310546875 357.6173828125 410.75 357.6
L 410.8 357.85 410.9 358.1
Q 411.0205078125 358.3892578125 411.25 358.75 411.5599609375 359.20625 412 359.75 412.4 360.4 412.9 361.8 413.35 362.6 414 363.35 416.45 366.35 419.45 366.75 420.25 366.9 421.9 366.8 423.65 366.7 424 366.6
L 425.1 366.4
Q 425.605859375 366.2240234375 425.9 366.1 426.0029296875 366.1064453125 426.1 366.1 426.4486328125 366.078125 426.75 366 427.1396484375 365.87578125 427.45 365.65 427.5296875 365.5943359375 427.6 365.5 428.053515625 365.156640625 428.6 364.4 429.35 363.5 429.75 363.15 430.25 362.75 431.4 362.1 431.9 361.7 432.25 360.95 432.65 360.1 432.85 359.65 433.15 359.1 433.9 357.9 434.65 356.8 434.95 356.15 435.45 355.15 436.2 352.35 436.9447265625 349.3216796875 437.3 347 437.3044921875 346.391796875 437.5 345.35 437.63203125 344.039453125 437.6 343
L 437.35 339.95
Q 437.3 338.9 437.4 336.8 437.55 333.3 437.55 329.75 437.55 325.95 437.25 322.2 437.1 319.95 436.35 314.35 435.75 309.35 435.6 306.45 435.6 305.2 435.3 304.5 435.2357421875 304.3552734375 435.15 304.2 435.3427734375 303.7634765625 435.35 303.15 435.364453125 302.6298828125 435.25 302
L 435.2 301.75 434.35 296.8 433.55 295.05 433.3 294.05
Q 433.1 291.55 432.95 290.3 432.95 289.75 432.75 288.75 432.2 287.3 431.95 286.55
L 429.5 276.55
Q 428.65 273.4 428.5 272.1 428.25 269.85 428 269.3 427.25 268.1 427.05 267.4
L 426.9 266.1
Q 426.9 265.6 426.7 264.7 426.4 263.8 426.05 263.5
L 426 263.45
Q 425.972265625 263.1470703125 425.9 262.75
L 425.4 260.25
Q 425.3 259.65 425.1 259.15 424.75 258.4 424.7 258.25 424.6 258 424.6 257.45 424.5 257.1 424.2 256.45 423.85 255.75 423.75 255.45 423.55 254.3 423.4 253.7 422.95 252.65 422.75 252.15 422.5 251.45 422.3 249.65 422.1 248.05 421.7 247.2 421.4 246.65 421.4 246.55 421.4 246.5 421.25 245.85 420.95 244.35 420.65 243.55
L 419.95 242.05
Q 419.4 240.9 419.1 239.65
L 418.55 237.5
Q 418.25 236.7 418.2 236.3
L 418 235.1
Q 417.85 234 417.15 232.25
L 416.1 229.15
Q 415.6 226.9 415.4 226.5
L 415 225.7 414.35 223.8
Q 414.327734375 223.1091796875 414.05 222.2
L 411.85 214.85
Q 411.35 213.25 411.15 211.95 410.8 209.6 410.6 209.15 410.25 208.4 410.15 208 410.1 206.95 410.05 206.4 410.05 206.1490234375 410 205.9 409.96640625 205.2490234375 409.75 204.6 409.7291015625 204.5509765625 409.7 204.5 408.8951171875 202.57421875 408.7 201.55 408.6 199.9 408.45 199.1 408.15 197.75 408.15 197.05 408.2 196.4 408.2 196.05 408.15 195.5 407.95 195.2
L 407.85 195.2
Q 407.865234375 194.6841796875 407.75 194.05 406.4 186.7 406.7 179.25 406.8 177.4 407 175.7
L 407.55 172.1
Q 408.95 164.1 410.25 160.25 410.95 158.15 412.85 154.15
L 414.9 150.25
Q 415.9 148.55 416.75 147.5 417.5568359375 146.55859375 417.7 146.35 417.9908203125 146.057421875 418.4 145.6 418.45390625 145.5326171875 418.5 145.45 419.0896484375 144.72265625 419.6 143.9 419.7244140625 143.7126953125 419.85 143.5 419.9880859375 143.2513671875 420.1 143
L 420.5 142.8
Q 420.528515625 142.771484375 420.55 142.75 420.71328125 142.869921875 420.9 142.95
L 421.25 143.15 421.5 143.35 421.55 143.35
Q 421.62265625 143.4916015625 421.7 143.6 421.831640625 143.791796875 421.95 143.95 422.2833984375 144.3923828125 422.6 144.75 422.7591796875 144.9099609375 422.9 145.05 423.2486328125 145.378515625 423.6 145.65 424.09140625 146.0158203125 424.6 146.3 425.25 146.65 426.55 147.2 427.65 147.7 428.3 148.3 428.5 148.5 429.25 149.3 429.85 149.95 430.3 150.2 430.85 150.55 432.1 150.95 432.7 151.2 433.4 151.75 433.8 152.05 434.55 152.7 435.75 153.6 437.9 154.4 440.85 155.55 441.4 155.8 442.05 156.1 443.35 156.8 444.55 157.4 445.4 157.65 446.1322265625 157.8533203125 446.75 157.85 447.1 158.1 448.3 158.55
L 449.6 159.15
Q 449.9 159.25 452.05 159.8 453.25 160.1 455.15 160.75 459.7744140625 162.276953125 461.6 162.75 461.8896484375 162.8490234375 462.1 162.9 463.0302734375 163.1376953125 464.05 163.35 467.964453125 164.2361328125 473.2 164.95 475.55 165.3 480.65 165.8
L 491.05 166.75
Q 494.5 166.95 496.4 167.1 498.15 167.2 501.6 167.4
L 506.4 167.6 506.85 167.6
Q 507.2927734375 167.6068359375 507.8 167.6 511.7396484375 167.6212890625 520.15 167.4 528.55 167.15 533.4 167.3 534.9298828125 167.3666015625 535.8 167 536.1232421875 167.11875 536.55 167.2 537.85 167.4 539.95 167.3 542.6 167.15 543.4 167.2 544.8314453125 167.2986328125 547.6 167.7 547.6625 167.6998046875 547.7 167.7
L 549.6 167.7
Q 549.7642578125 167.69765625 549.9 167.7
L 549.95 167.7
Q 556.3951171875 167.566015625 561.7 168.15
L 568.1 169
Q 571.2681640625 169.5109375 574.4 170.1 574.7158203125 170.1513671875 575 170.2 576.2068359375 170.419140625 577.4 170.65
L 583.55 171.85 584.4 172.1 585.85 172.6
Q 586.0884765625 172.6662109375 586.3 172.65 586.9130859375 172.7025390625 587.4 172.35 587.7806640625 172.640625 588.25 172.9 589.01640625 173.359765625 590.1 173.65 590.4763671875 173.7681640625 590.85 173.85 591.287890625 173.965234375 591.9 174.1 592.652734375 174.284375 593.65 174.5 594.0716796875 174.6125 594.5 174.75 595.096875 174.7763671875 595.85 175.2 596.40625 175.4091796875 597 175.65
L 604.55 178.75
Q 611.5 181.6 614.5 183.5
L 625.5 191.35
Q 631.45 195.65 635.7 199.9 636.6912109375 200.8912109375 637.45 201.2 637.7154296875 202.403125 638.9 202.65 639.2 202.75 639.85 202.8 640.25 202.95 641.1 203.8 642.05 204.75 643.15 205.4 643.95 205.95 645.15 206.45
L 649.6 208.55
Q 650.5 208.9 652.4 209.2
L 660.2 210 661.35 209.85
Q 662.1 209.7 662.65 209.3 663.05 209.1 663.65 208.5 665.4 206.85 666.2 205.95 667.45 204.5 668.1 203.05
L 669.9 199.2
Q 670.5 198.1 670.6 197.3 670.7 196.75 670.6 195.55 670.6 195.2 670.8 192.55 670.9 190.75 670.7 189.55 670.6 188.8 670.2 187.5 669.75 186.05 669.65 185.4 669.45 184.1 669.35 183.45 669.15 182.35 668.75 181.65 668.45 181.25 668.45 181.15
L 668.2 180.6
Q 668 179.8 667.4 178.3
L 666.4 175.75
Q 666.357421875 175.6646484375 666.3 175.55 666.364453125 175.2005859375 666.25 174.8
L 665.9 173.95
Q 665.55 172.4 665.25 171.65
L 663.2 167.95
Q 662.8203125 167.307421875 662.55 166.95
L 662.7 166.7 663.15 165.7 664.05 166.2
Q 664.5 166.5 665.2 167.3 665.6 167.65 666.3 167.9
L 667.45 168.35
Q 667.6 168.45 668.45 168.95 669.05 169.3 669.45 169.4 669.95 169.55 670.95 169.7
L 672.05 170.2
Q 672.85 170.55 674.65 170.95 676.05 171.25 677.3 171.4
L 679.65 171.45
Q 684.8 171.45 687.6 170.7 689.2 170.3 692.45 168.7
L 694.75 167.5
Q 695.65 167 696.05 166.65
L 697.25 165.3
Q 697.54375 165.0482421875 697.75 164.8
L 698.25 164.55
Q 698.3162109375 164.5009765625 698.35 164.45 698.708984375 164.2716796875 699 163.95 699.020703125 163.929296875 699.05 163.85 699.5048828125 163.4484375 699.65 163.1 699.7146484375 162.94921875 699.75 162.8 699.9505859375 162.5328125 700.15 162.4
L 700.85 162.05
Q 701.35 161.75 701.6 161.1
L 701.8 160.15
Q 701.9 159.9 702.65 158.75
L 704.75 153.9
Q 705.9 151 706.25 148.4
L 706.55 146.6
Q 706.75 145.7 706.8 145.25 706.95 144.5 706.75 143.95 706.55 143.65 706.55 143.45 706.45 143.2 706.55 142.7
L 706.9 140.65
Q 707.1 138.85 706.8 138.2 706.5 137.65 706.5 137.55
L 706.45 137 706.45 135.7
Q 706.2 135.05 706.15 134.7
L 706.3 133.2
Q 706.35 132.75 706.15 131.95 706.0822265625 131.7634765625 706 131.6 705.9953125 131.15390625 705.85 130.5
L 702.1 115.6
Q 701.9 114.85 701.65 114.55
L 701 113.95 700.7 113.35 700.35 112.1
Q 700.25 111.4 700.05 111.1 699.7 110.7 699.6 110.45 699.55 110.4 699.3 109.6
L 698.85 108.4
Q 697.55 105.55 695.45 101.7 694.8 100.5 694.55 100.15 693.85 99.3 693.5 98.85 692.9 98.05 692.6 97.4 691.95 96 691.95 95.95 691.544921875 95.4369140625 691.05 95.2 690.9716796875 95.11796875 690.9 95 690 93.4 689.4 92.7 688.65 92 688.3 91.55
L 686.55 89.3
Q 686.25 88.95 685.25 87.4 684.5 86.2 683.8 85.7
L 682.9 85.05 682.2 84.3
Q 680.6 82.8 679.95 81.95 679.05 80.65 678.5 80.15 677.5 79.4 677.1 78.95
L 676.35 78.05
Q 676.1 77.85 675.55 77.6 674.9 77.35 674.65 77.2 674.3 77 673.55 76.15 672.55 74.75 671.85 74.3 670.75 73.7 670.25 73.3 670.15 73.2 669.3 72.3 668.75 71.65 668.2 71.55
L 667.5 71.35 667.05 71 666.05 70 665.35 69.45
Q 664.8626953125 69.165625 664.25 69.15
L 662.95 67.75
Q 662.4 67.3 661.1 66.75 659.75 66.15 659.2 65.75
L 658.25 64.9
Q 657.7 64.45 657 64.2
L 655.95 63.8 650.45 60.8
Q 649.05 60.05 648.45 60.05
L 647.8 60.05 647.15 59.85 643.2 58.15
Q 641.95 57.6 641.45 57.5 640.35 57.25 640.1 57.15 639.45 56.85 639.1 56.7 638.1 56.5 637.65 56.4 636.8 56.25 635.1 55.7 633.5 55.2 632.6 55.05
L 631.85 54.9 631.9 54.85
Q 631.85 54.8 631.9 54.7 632.0326171875 54.3552734375 632 54
L 639.7 52.7
Q 640.1 52.55 640.85 52.25
L 642.05 51.95
Q 642.75 51.7 643.95 50.85
L 645.85 50.05
Q 647.55 49.25 649.15 47.4 651.45 44.9 652.9 41.75 653.3 40.95 653.35 40.45 653.35 39.83515625 653.15 39.45 653.1458984375 39.378125 653.15 39.3 653.15 38.9958984375 653.15 38.7 653.332421875 38.3197265625 653.3 37.8 653.3 37.5759765625 653.25 37.35 653.45 36.36484375 653.45 36.1 653.55 35.2 653.05 34.65
L 652.7 34.3 652.5 33.65
Q 652.05 31.1 650.7 29.5 Z"/>
</g>

<g id="Layer0_0_FILL">
<path fill="#000000" stroke="none" d="
M 625.8 294.95
Q 627.3 292.6 627.3 289.25 627.3 285.9 625.8 283.5 624.3 281.15 622.2 281.15 620.1 281.15 618.6 283.5 617.1 285.9 617.1 289.25 617.1 292.6 618.6 294.95 620.1 297.35 622.2 297.35 624.3 297.35 625.8 294.95
M 539.5 289.7
Q 537.8 292.05 537.8 295.4 537.8 298.75 539.5 301.1 541.25 303.45 543.65 303.45 546.05 303.45 547.75 301.1 549.5 298.75 549.5 295.4 549.5 292.05 547.75 289.7 546.05 287.35 543.65 287.35 541.25 287.35 539.5 289.7 Z"/>
</g>

<path id="Layer0_0_1_STROKES" stroke="#000000" stroke-width="1" stroke-linejoin="round" stroke-linecap="round" fill="none" d="
M 319.25 111
Q 307 113.65 298.25 117.85 287.45 123 281.1 130.85 278.3 134.5 277.4 138.2 276.3 142.6 278.35 145.6 280.25 148.2 283.75 149.05 287 149.75 290.5 148.85 296.29453125 147.50234375 305.625 140.975 314.9662109375 134.4423828125 316.65 132.725 323.4521484375 124.1556640625 333.15 116.45 342.9 108.7 358.85 99.55 367.9 94.35 386.2 84.1 401.9 74.9 411.85 66.5 418.15 61.2 427 52.05 439.6 38.95 441.6 37 444.3517578125 34.39375 447.45 33.45 450.5341796875 32.5064453125 454.875 33.975 459.2197265625 35.4443359375 460.575 41.35 461.9384765625 47.2552734375 461.675 50.825 461.429296875 54.198046875 460.375 59.325 472.719921875 50.9939453125 483.85 40.35 489.45 35 500.25 23.7 510 14 518 8.75 528.05 2.05 535 5.35 538.2 6.8 540.15 10.35 541.9 13.55 542.1 17.5 542.1974609375 20.9060546875 541.925 24.4 541.6572265625 27.8814453125 539.475 34.4 552.2330078125 27.5943359375 563.5 23.35 581.1 16.65 597.9 15.05 616.6 13.2 632.75 17.85 642.75 20.55 648 25.6 651.2 28.75 652.65 32.8 654.25 37.15 653.25 41.25 651.55 47.45 644.65 50.9 638.5 53.95 631 53.75 630.6236328125 53.75 625.275 53.225 654.8458984375 57.8931640625 677.75 79.45 700.75 101.1 706 130.25 707.7 139.95 706.55 147.9 705.15 157.35 699.75 163.35 695 168.65 687.75 170.75 680.6 172.8 673.6 171 667.21484375 169.4619140625 661.875 165.1 666.05 173.65 667.5 177.5 670.205859375 184.550390625 670.725 191.7 671.2388671875 198.83984375 667.4 204.775 663.56328125 210.7115234375 657.7 210.125 651.8380859375 209.546875 646.075 206.95 640.3029296875 204.35 632.85 197.6 629.4984375 194.5125 625.95 191.75
L 626.85 241.975
Q 631.4533203125 244.8533203125 635.55 248.95 649.4 262.8 649.4 282.35 649.4 298.5244140625 639.925 310.775 660.4517578125 324.0103515625 672.2 347.725 683.961328125 371.4529296875 679.775 397.4 675.58671875 423.3490234375 653.625 445.8 635.3630859375 464.46875 612.525 473.85 611.9078125 474.101953125 611.275 474.35 619.8185546875 482.482421875 623.3 496.65 625.8056640625 506.95 626.725 521.95 627.388671875 532.9177734375 627.775 554.35 627.790234375 554.901953125 627.8 555.45 627.948828125 562.0857421875 628.6 588.475 629.257421875 614.86484375 629.05 653.575 628.8396484375 692.2845703125 621.6 728.1
M 652.5 153.1
Q 655.55 159.7 661.1 164.45 661.4833984375 164.782421875 661.875 165.1
M 625.275 53.225
Q 622.087890625 52.903125 617.15 52.4 608.9 51.6 603.5 52.85
M 501.75 57.35
Q 521.9 44.35 531.8 38.65 535.7037109375 36.4126953125 539.475 34.4
M 414.85 136.75
Q 417.60625 139.9111328125 420.75 142.75 433.93984375 154.61484375 454 160.75 473.95 166.85 501.25 167.35 508.5 167.5 525 167.4 540.4 167.35 548.8 167.6 576.3 168.55 595 175 612.01328125 180.896875 625.95 191.75
M 438.5 71.85
Q 449.8775390625 66.4255859375 460.375 59.325
M 344.5 108
Q 340.3 103.1 334.35 99.55 328.7 96.25 322.1 94.5 310.1 91.35 295.6 93.6 286.35 95.05 281.75 98.6 278.65 101.05 277.2 104.65 275.65 108.4 276.75 111.85 277.95 115.65 282.15 118.3 284.66015625 119.863671875 288.7 121.25 289.5619140625 121.5580078125 290.5 121.85
M 420.75 142.75
Q 413.25 151.2 409.9 162.2 406.8 172.25 407.1 183.75 407.25 193.4 409.85 205.1 411.55 213 415.5 226 428.05 267.7 431.55 283.1 438.9 315.55 437.75 341.35 437.4 350.45 434.55 356.85 431 364.8 424.25 366.6 417.4544921875 368.3947265625 413.85 363.35 411.9181640625 360.65859375 410.675 357.425 407.45 360.35 407.1 360.65 405.15 362.35 403.35 363.25 398.6 365.85 394.5 364.25 391.1 362.9 388.85 358.6 386.85 354.6 386.55 348.95 386.35 345.55 386.85 338.85 387.752734375 328.7509765625 387.975 325.25 388.1587890625 322.3724609375 388.35 320.9 377.153125 314.734375 366.625 315.35 356.101171875 315.955859375 345.425 321.675 334.741015625 327.40625 327.725 339.525 320.713671875 351.6412109375 321.075 364.95 321.4283203125 378.254296875 329.125 390.3 336.8181640625 402.3490234375 347.85 409.2 358.894140625 416.05 372.95 416.8 386.8 417.55 398.55 412.35 411.305859375 434.85390625 435.075 453.25 438.7236328125 456.0740234375 442.475 458.65 463.1658203125 472.9185546875 487.05 479.975 495.76015625 482.5470703125 504.6 484.225 524.41484375 487.9890625 544.9 487.275 555.3884765625 486.912109375 565.75 485.55 584.643359375 483.0640625 603.1 477.25 607.265625 475.937109375 611.275 474.35
M 571 323
Q 573.3107421875 322.2009765625 576.025 321.725 572.2359375 319.1359375 568.8 315.7 566.407421875 313.307421875 564.425 310.75 560.6603515625 320.2125 551.85 327.85 536.5 341.25 514.75 341.25 493 341.25 477.6 327.85 462.25 314.5 462.25 295.55 462.25 276.6 477.6 263.2 493 249.85 514.75 249.85 536.5 249.85 551.85 263.2 554.6818359375 265.6640625 557 268.325 560.2435546875 257.5373046875 568.8 248.95 582.65 235.15 602.2 235.15 615.946484375 235.15 626.85 241.975
M 388.95 317.1
Q 388.6515625 318.9044921875 388.425 320.325 388.3845703125 320.57890625 388.35 320.9
M 410.675 357.425
Q 409.575390625 354.6318359375 409 351.425 407.7611328125 344.53671875 407.45 338.1 407.1431640625 331.6578125 409.6 322.5
M 627.3 289.25
Q 627.3 292.6 625.8 294.95 624.3 297.35 622.2 297.35 620.1 297.35 618.6 294.95 617.1 292.6 617.1 289.25 617.1 285.9 618.6 283.5 620.1 281.15 622.2 281.15 624.3 281.15 625.8 283.5 627.3 285.9 627.3 289.25 Z
M 549.5 295.4
Q 549.5 298.75 547.75 301.1 546.05 303.45 543.65 303.45 541.25 303.45 539.5 301.1 537.8 298.75 537.8 295.4 537.8 292.05 539.5 289.7 541.25 287.35 543.65 287.35 546.05 287.35 547.75 289.7 549.5 292.05 549.5 295.4 Z
M 515.65 370.8
Q 512.7 370.1 512.15 370.05 502.7 368.85 496.8 372.9 492.8 375.6 490.75 380.5 488.8 385.1 489.05 390.25 489.75 399.5 497.05 408.25 504 416.7 515.15 422.6
L 515.65 370.8
Q 519.8 371.7 528.7 373.75 543.6 377.4 561.5 375.6 567.4 375 573.6 373.8 589.45 370.75 616.85 361.4 617.45 361.15 618.1 360.9 625.1 358.25 633.05 360.4 641.5 362.65 645.8 369.65 649.9 376.35 649.35 385 648.85 393.15 644.55 400.25 639.15 409.3 628.05 416.7 624.55 419 620.45 421.15 599.65 432.1 575.6 434.05 569.7 434.55 563.95 434.45 545.8703125 434.5095703125 533.625 430.35 521.3796875 426.1904296875 515.15 422.6
M 639.925 310.775
Q 637.94140625 313.3171875 635.55 315.7 623.230078125 328.064453125 606.325 329.4 607.8166015625 331.5740234375 608.45 334.15 609.25 337.35 608.5 340.35 607.6 344.3 603.75 347.75 600.8 350.3 596.85 351.7 593.05 353 589 353 582 353.15 573.35 349.6
M 576.025 321.725
Q 579.5892578125 321.08515625 583.85 321 591.1 321 595.25 322 602 323.85 605.75 328.6 606.053125 328.988671875 606.325 329.4
M 557 268.325
Q 567.25 280.0845703125 567.25 295.55 567.25 303.6587890625 564.425 310.75
M 442.475 458.65
Q 414.8 466.9 388.1 463.6 361.4 460.3 338.6 447.35 314.1 433.45 303.85 413.6 296.3041015625 399.1455078125 294.925 382.25 294.323828125 374.9333984375 294.725 366.375 293.5025390625 369.1205078125 288.95 373.75 284.55 378.15 280.6 379.1 277.35 379.9 273.7 378.65 270.45 377.5 267.6 375 262.85 370.75 260.5 364.1 258.35 357.95 258.6 351 258.9 345 261.05 338.15 262.75 332.8 266 325.85 272.5859375 311.647265625 280.975 301.3 271.3421875 299.79765625 267.2 298.55 260.85 296.6 256.75 293.25 251.85 289.3 250.35 283.15 248.75 276.6 252.35 272.1 254.95 268.8 259.8 267.45 262.95 266.6 269.3 266.25 276.4 265.9 279.15 265.4 284.45 264.45 287.6 261.75 291.2 258.75 292.8 253.1 293.85 249.25 294.25 242.6 294.8 206.15 296.65 188.35 299.9 157.6 312.5 138.5 313.184765625 137.4572265625 313.9 136.425 315.2134765625 134.5607421875 316.65 132.725
M 297.5 341.85
Q 295.2544921875 355.1755859375 294.725 366.375
M 289.85 291.85
Q 285.180078125 296.084765625 280.975 301.3
M 504.6 484.225
Q 507.95 490.2 513.75 493.9 519.4 497.5 526 498.85 538.3 501.55 552 496.85 563.2 492.95 565.75 485.55
M 591.85 561.85
Q 600.85 563.1 609.9 561.1 618.8900390625 559.1521484375 627.775 554.35
M 584.5 505.1
Q 588.4849609375 531.9205078125 591.625 563.45 594.76796875 594.98515625 597.725 645.625 600.6732421875 696.2546875 600.75 705.3 600.8365234375 714.35 599.3 725
M 463.55 726.25
Q 462.1796875 718.8484375 461.1 711.45 456.4365234375 679.06953125 457.525 646.65 458.859375 606.8123046875 458.9 573.15 458.91484375 562.511328125 458.95 553.925 459.0427734375 535.340234375 459.25 526.35 459.6 509.35 462.1 499.05 465.65 484.35 474.6 476.1
M 458.95 553.925
Q 464.9619140625 558.0181640625 472.05 560.1 479.25 562.25 486.6 562
M 461.1 711.45
Q 465.4728515625 715.0873046875 475.1 714.1 480.9267578125 713.614453125 487.6 712.1 483.2673828125 602.5548828125 490.25 491.75
M 499.35 681.85
Q 501.1 687.65 505.25 692.8 509.1 697.6 514.5 701.25 523.45 707.45 537.35 711.1
M 487.6 712.1
Q 487.899609375 719.5978515625 488.25 727.1
M 618.1 360.9
L 628.05 416.7
M 561.5 375.6
L 563.95 434.45"/>
</defs>

<g transform="matrix( 1, 0, 0, 1, 0,0) ">
<use xlink:href="#Layer2_0_FILL"/>
</g>

<g transform="matrix( 1, 0, 0, 1, 0,0) ">
<use xlink:href="#Layer1_0_FILL"/>
</g>

<g transform="matrix( 1, 0, 0, 1, 0,0) ">
<use xlink:href="#Layer0_0_FILL"/>

<use xlink:href="#Layer0_0_1_STROKES"/>
</g>
</svg>
