
<svg xmlns="http://www.w3.org/2000/svg" version="1.1" xmlns:xlink="http://www.w3.org/1999/xlink" preserveAspectRatio="none" x="0px" y="0px" width="1280px" height="720px" viewBox="0 0 1280 720">
<defs>
<g id="Layer2_0_FILL">
<path fill="#FFFFFF" stroke="none" d="
M 1280 720
L 1280 0 0 0 0 720 1280 720 Z"/>
</g>

<g id="Layer0_0_FILL">
<path fill="#000000" stroke="none" d="
M 625.8 294.95
Q 627.3 292.6 627.3 289.25 627.3 285.9 625.8 283.5 624.3 281.15 622.2 281.15 620.1 281.15 618.6 283.5 617.1 285.9 617.1 289.25 617.1 292.6 618.6 294.95 620.1 297.35 622.2 297.35 624.3 297.35 625.8 294.95
M 539.5 289.7
Q 537.8 292.05 537.8 295.4 537.8 298.75 539.5 301.1 541.25 303.45 543.65 303.45 546.05 303.45 547.75 301.1 549.5 298.75 549.5 295.4 549.5 292.05 547.75 289.7 546.05 287.35 543.65 287.35 541.25 287.35 539.5 289.7 Z"/>
</g>

<path id="Layer0_0_1_STROKES" stroke="#000000" stroke-width="1" stroke-linejoin="round" stroke-linecap="round" fill="none" d="
M 319.25 111
Q 307 113.65 298.25 117.85 287.45 123 281.1 130.85 278.3 134.5 277.4 138.2 276.3 142.6 278.35 145.6 280.25 148.2 283.75 149.05 287 149.75 290.5 148.85 296.29453125 147.50234375 305.625 140.975 314.9662109375 134.4423828125 316.65 132.725 323.4521484375 124.1556640625 333.15 116.45 342.9 108.7 358.85 99.55 367.9 94.35 386.2 84.1 401.9 74.9 411.85 66.5 418.15 61.2 427 52.05 439.6 38.95 441.6 37 444.3517578125 34.39375 447.45 33.45 450.5341796875 32.5064453125 454.875 33.975 459.2197265625 35.4443359375 460.575 41.35 461.9384765625 47.2552734375 461.675 50.825 461.429296875 54.198046875 460.375 59.325 472.719921875 50.9939453125 483.85 40.35 489.45 35 500.25 23.7 510 14 518 8.75 528.05 2.05 535 5.35 538.2 6.8 540.15 10.35 541.9 13.55 542.1 17.5 542.1974609375 20.9060546875 541.925 24.4 541.6572265625 27.8814453125 539.475 34.4 552.2330078125 27.5943359375 563.5 23.35 581.1 16.65 597.9 15.05 616.6 13.2 632.75 17.85 642.75 20.55 648 25.6 651.2 28.75 652.65 32.8 654.25 37.15 653.25 41.25 651.55 47.45 644.65 50.9 638.5 53.95 631 53.75 630.6236328125 53.75 625.275 53.225 654.8458984375 57.8931640625 677.75 79.45 700.75 101.1 706 130.25 707.7 139.95 706.55 147.9 705.15 157.35 699.75 163.35 695 168.65 687.75 170.75 680.6 172.8 673.6 171 667.21484375 169.4619140625 661.875 165.1 666.05 173.65 667.5 177.5 670.205859375 184.550390625 670.725 191.7 671.2388671875 198.83984375 667.4 204.775 663.56328125 210.7115234375 657.7 210.125 651.8380859375 209.546875 646.075 206.95 640.3029296875 204.35 632.85 197.6 629.4984375 194.5125 625.95 191.75
L 626.85 241.975
Q 631.4533203125 244.8533203125 635.55 248.95 649.4 262.8 649.4 282.35 649.4 298.5244140625 639.925 310.775 660.4517578125 324.0103515625 672.2 347.725 683.961328125 371.4529296875 679.775 397.4 675.58671875 423.3490234375 653.625 445.8 635.3630859375 464.46875 612.525 473.85 611.9078125 474.101953125 611.275 474.35 619.8185546875 482.482421875 623.3 496.65 625.8056640625 506.95 626.725 521.95 627.388671875 532.9177734375 627.775 554.35 627.790234375 554.901953125 627.8 555.45 627.948828125 562.0857421875 628.6 588.475 629.257421875 614.86484375 629.05 653.575 628.8396484375 692.2845703125 621.6 728.1
M 652.5 153.1
Q 655.55 159.7 661.1 164.45 661.4833984375 164.782421875 661.875 165.1
M 625.275 53.225
Q 622.087890625 52.903125 617.15 52.4 608.9 51.6 603.5 52.85
M 501.75 57.35
Q 521.9 44.35 531.8 38.65 535.7037109375 36.4126953125 539.475 34.4
M 414.85 136.75
Q 417.60625 139.9111328125 420.75 142.75 433.93984375 154.61484375 454 160.75 473.95 166.85 501.25 167.35 508.5 167.5 525 167.4 540.4 167.35 548.8 167.6 576.3 168.55 595 175 612.01328125 180.896875 625.95 191.75
M 438.5 71.85
Q 449.8775390625 66.4255859375 460.375 59.325
M 344.5 108
Q 340.3 103.1 334.35 99.55 328.7 96.25 322.1 94.5 310.1 91.35 295.6 93.6 286.35 95.05 281.75 98.6 278.65 101.05 277.2 104.65 275.65 108.4 276.75 111.85 277.95 115.65 282.15 118.3 284.66015625 119.863671875 288.7 121.25 289.5619140625 121.5580078125 290.5 121.85
M 420.75 142.75
Q 413.25 151.2 409.9 162.2 406.8 172.25 407.1 183.75 407.25 193.4 409.85 205.1 411.55 213 415.5 226 428.05 267.7 431.55 283.1 438.9 315.55 437.75 341.35 437.4 350.45 434.55 356.85 431 364.8 424.25 366.6 417.4544921875 368.3947265625 413.85 363.35 411.9181640625 360.65859375 410.675 357.425 407.45 360.35 407.1 360.65 405.15 362.35 403.35 363.25 398.6 365.85 394.5 364.25 391.1 362.9 388.85 358.6 386.85 354.6 386.55 348.95 386.35 345.55 386.85 338.85 387.752734375 328.7509765625 387.975 325.25 388.1587890625 322.3724609375 388.35 320.9 377.153125 314.734375 366.625 315.35 356.101171875 315.955859375 345.425 321.675 334.741015625 327.40625 327.725 339.525 320.713671875 351.6412109375 321.075 364.95 321.4283203125 378.254296875 329.125 390.3 336.8181640625 402.3490234375 347.85 409.2 358.894140625 416.05 372.95 416.8 386.8 417.55 398.55 412.35 411.305859375 434.85390625 435.075 453.25 438.7236328125 456.0740234375 442.475 458.65 463.1658203125 472.9185546875 487.05 479.975 495.76015625 482.5470703125 504.6 484.225 524.41484375 487.9890625 544.9 487.275 555.3884765625 486.912109375 565.75 485.55 584.643359375 483.0640625 603.1 477.25 607.265625 475.937109375 611.275 474.35
M 571 323
Q 573.3107421875 322.2009765625 576.025 321.725 572.2359375 319.1359375 568.8 315.7 566.407421875 313.307421875 564.425 310.75 560.6603515625 320.2125 551.85 327.85 536.5 341.25 514.75 341.25 493 341.25 477.6 327.85 462.25 314.5 462.25 295.55 462.25 276.6 477.6 263.2 493 249.85 514.75 249.85 536.5 249.85 551.85 263.2 554.6818359375 265.6640625 557 268.325 560.2435546875 257.5373046875 568.8 248.95 582.65 235.15 602.2 235.15 615.946484375 235.15 626.85 241.975
M 388.95 317.1
Q 388.6515625 318.9044921875 388.425 320.325 388.3845703125 320.57890625 388.35 320.9
M 410.675 357.425
Q 409.575390625 354.6318359375 409 351.425 407.7611328125 344.53671875 407.45 338.1 407.1431640625 331.6578125 409.6 322.5
M 627.3 289.25
Q 627.3 292.6 625.8 294.95 624.3 297.35 622.2 297.35 620.1 297.35 618.6 294.95 617.1 292.6 617.1 289.25 617.1 285.9 618.6 283.5 620.1 281.15 622.2 281.15 624.3 281.15 625.8 283.5 627.3 285.9 627.3 289.25 Z
M 549.5 295.4
Q 549.5 298.75 547.75 301.1 546.05 303.45 543.65 303.45 541.25 303.45 539.5 301.1 537.8 298.75 537.8 295.4 537.8 292.05 539.5 289.7 541.25 287.35 543.65 287.35 546.05 287.35 547.75 289.7 549.5 292.05 549.5 295.4 Z
M 515.65 370.8
Q 512.7 370.1 512.15 370.05 502.7 368.85 496.8 372.9 492.8 375.6 490.75 380.5 488.8 385.1 489.05 390.25 489.75 399.5 497.05 408.25 504 416.7 515.15 422.6
L 515.65 370.8
Q 519.8 371.7 528.7 373.75 543.6 377.4 561.5 375.6 567.4 375 573.6 373.8 589.45 370.75 616.85 361.4 617.45 361.15 618.1 360.9 625.1 358.25 633.05 360.4 641.5 362.65 645.8 369.65 649.9 376.35 649.35 385 648.85 393.15 644.55 400.25 639.15 409.3 628.05 416.7 624.55 419 620.45 421.15 599.65 432.1 575.6 434.05 569.7 434.55 563.95 434.45 545.8703125 434.5095703125 533.625 430.35 521.3796875 426.1904296875 515.15 422.6
M 639.925 310.775
Q 637.94140625 313.3171875 635.55 315.7 623.230078125 328.064453125 606.325 329.4 607.8166015625 331.5740234375 608.45 334.15 609.25 337.35 608.5 340.35 607.6 344.3 603.75 347.75 600.8 350.3 596.85 351.7 593.05 353 589 353 582 353.15 573.35 349.6
M 576.025 321.725
Q 579.5892578125 321.08515625 583.85 321 591.1 321 595.25 322 602 323.85 605.75 328.6 606.053125 328.988671875 606.325 329.4
M 557 268.325
Q 567.25 280.0845703125 567.25 295.55 567.25 303.6587890625 564.425 310.75
M 442.475 458.65
Q 414.8 466.9 388.1 463.6 361.4 460.3 338.6 447.35 314.1 433.45 303.85 413.6 296.3041015625 399.1455078125 294.925 382.25 294.323828125 374.9333984375 294.725 366.375 293.5025390625 369.1205078125 288.95 373.75 284.55 378.15 280.6 379.1 277.35 379.9 273.7 378.65 270.45 377.5 267.6 375 262.85 370.75 260.5 364.1 258.35 357.95 258.6 351 258.9 345 261.05 338.15 262.75 332.8 266 325.85 272.5859375 311.647265625 280.975 301.3 271.3421875 299.79765625 267.2 298.55 260.85 296.6 256.75 293.25 251.85 289.3 250.35 283.15 248.75 276.6 252.35 272.1 254.95 268.8 259.8 267.45 262.95 266.6 269.3 266.25 276.4 265.9 279.15 265.4 284.45 264.45 287.6 261.75 291.2 258.75 292.8 253.1 293.85 249.25 294.25 242.6 294.8 206.15 296.65 188.35 299.9 157.6 312.5 138.5 313.184765625 137.4572265625 313.9 136.425 315.2134765625 134.5607421875 316.65 132.725
M 297.5 341.85
Q 295.2544921875 355.1755859375 294.725 366.375
M 289.85 291.85
Q 285.180078125 296.084765625 280.975 301.3
M 504.6 484.225
Q 507.95 490.2 513.75 493.9 519.4 497.5 526 498.85 538.3 501.55 552 496.85 563.2 492.95 565.75 485.55
M 591.85 561.85
Q 600.85 563.1 609.9 561.1 618.8900390625 559.1521484375 627.775 554.35
M 584.5 505.1
Q 588.4849609375 531.9205078125 591.625 563.45 594.76796875 594.98515625 597.725 645.625 600.6732421875 696.2546875 600.75 705.3 600.8365234375 714.35 599.3 725
M 463.55 726.25
Q 462.1796875 718.8484375 461.1 711.45 456.4365234375 679.06953125 457.525 646.65 458.859375 606.8123046875 458.9 573.15 458.91484375 562.511328125 458.95 553.925 459.0427734375 535.340234375 459.25 526.35 459.6 509.35 462.1 499.05 465.65 484.35 474.6 476.1
M 458.95 553.925
Q 464.9619140625 558.0181640625 472.05 560.1 479.25 562.25 486.6 562
M 461.1 711.45
Q 465.4728515625 715.0873046875 475.1 714.1 480.9267578125 713.614453125 487.6 712.1 483.2673828125 602.5548828125 490.25 491.75
M 499.35 681.85
Q 501.1 687.65 505.25 692.8 509.1 697.6 514.5 701.25 523.45 707.45 537.35 711.1
M 487.6 712.1
Q 487.899609375 719.5978515625 488.25 727.1
M 618.1 360.9
L 628.05 416.7
M 561.5 375.6
L 563.95 434.45"/>
</defs>

<g transform="matrix( 1, 0, 0, 1, 0,0) ">
<use xlink:href="#Layer2_0_FILL"/>
</g>

<g transform="matrix( 1, 0, 0, 1, 0,0) ">
<use xlink:href="#Layer0_0_FILL"/>

<use xlink:href="#Layer0_0_1_STROKES"/>
</g>
</svg>
