
<svg xmlns="http://www.w3.org/2000/svg" version="1.1" xmlns:xlink="http://www.w3.org/1999/xlink" preserveAspectRatio="none" x="0px" y="0px" width="1280px" height="720px" viewBox="0 0 1280 720">
<defs>
<g id="Layer2_0_FILL">
<path fill="#FFFFFF" stroke="none" d="
M 1280 720
L 1280 0 0 0 0 720 1280 720 Z"/>
</g>

<g id="Layer0_0_FILL">
<path fill="#000000" stroke="none" d="
M 672.25 489.5
Q 679.0626953125 491.6509765625 684.8 494.95 688.1576171875 492.8708984375 691.15 490.05 692.32265625 488.9494140625 693.35 487.8 693.7642578125 487.375390625 694.1 486.95 694.15 486.650390625 694.15 486.35 694.15 481.75 690.85 478.45 687.6 475.2 683 475.2 678.4 475.2 675.1 478.45 671.85 481.75 671.85 486.35 671.85 488.0203125 672.25 489.5
M 735.5 486.1
Q 732.1771484375 489.1251953125 732.15 493.35 739.7724609375 496.4935546875 746.45 501.3 749.834765625 499.115234375 752.85 496.1 753.9501953125 494.9998046875 754.95 493.85 754.95 493.65234375 754.95 493.45 754.95 489.15 751.6 486.1 748.25 483.05 743.55 483.05 738.85 483.05 735.5 486.1 Z"/>
</g>

<path id="Layer0_0_1_STROKES" stroke="#000000" stroke-width="1" stroke-linejoin="round" stroke-linecap="round" fill="none" d="
M 807.1 450
Q 798.454296875 448.46640625 794 443 789.5416015625 437.52265625 790.1 425.25 790.15 414.05 789.7 408.55 789 399 785.65 395.65
L 782.1 425.35
Q 781.85 428.3 781.45 429.85 780.8 432.25 779.35 433.6 776.95 436.05 772.6 435.55 769.65 435.2 765 433.25 757.66796875 430.1310546875 750.175 427.625 748.8 429.75 748.25 432.1 747.65234375 433.9923828125 747.1 438.225 750.118359375 440.268359375 752.85 443 760.6310546875 450.7810546875 762.9 460.85 778.0447265625 460.088671875 788.525 458.2 799.0017578125 456.3169921875 807.85 450.1 807.434765625 420.977734375 801.5 392.85 799 381.3 796 373.85 791.95 363.75 785.75 357.35 779.25 350.6 768.5 345.9 765.9470703125 344.80859375 762.55 343.625 756.753125 341.5810546875 748.5 339.25 730.1 333.95 720 332.2 704.05 329.45 691.25 331.35 673.55 333.85 657.05 345.4 642.4 355.7 630.25 371.85 613.1 394.45 604.75 422.2 602.5033203125 429.698046875 600.95 437.3 625.5591796875 425.7548828125 650.975 420.975 650.8662109375 410.755078125 653 400.75
M 762.55 343.625
Q 754.4 324.25 736.15 310.5 720.05 298.4 698.35 291.35 671.95 282.7 644.9 283.3 616.7 283.95 592.35 294.6 569.4 304.65 551.6 323.15 533.8 341.65 524.75 365 519.35 378.8 516.3 396.4 514.1 409.35 512.5 428.85 511.45 442 511.3 450.4 511.05 462.2 512.25 471.85 513.15 478.6 515.35 488.2 516.6 493.6 519.1 504.35 527.95 544.5 524 578.85 522.2 594.55 515.1 622.65 507.5 652.8 505.5 666.35 501.35 694.5 505 722.85
M 743 432.85
Q 739.262890625 433.2490234375 735.525 433.075 741.7583984375 434.5759765625 747.1 438.225
M 762.9 460.85
Q 763.236328125 462.28515625 763.45 463.775 771.0001953125 465.3404296875 778.75 463.85
M 763.45 463.775
Q 763.85 466.576953125 763.85 469.55 763.85 481.7404296875 757.1 491.125 762.8111328125 497.9794921875 765.75 506.6 768.7 515.4 768.25 524.6 767.05 544.8 750 560.85 742.8552734375 567.541015625 734.425 572.275
L 734.45 572.3
Q 739.976953125 576.0662109375 743.35 582.25 746.4 587.8 747.9 595.45 748.9 600.55 749.6 609.5 749.840625 612.603125 750.05 615.65 750.8087890625 626.623828125 751.175 636.875 751.3109375 640.66171875 751.4 644.35 751.60078125 653.5693359375 751.475 662.175 751.8740234375 661.887890625 752.15 661.75 753.2 661.25 754.1 661.5 755.35 661.6 756.35 663.35 757.7 665.8 757.35 668.9 757.05 671.8 755.35 674.35 754.51953125 675.515234375 753.475 676.525 754.2017578125 676.3251953125 755.05 676.45 756.75 676.7 757.6 678 758.8 679.65 758.35 682.1 758.25 684.1 756.85 686.85 755.4 690.1 753.35 692 752.5982421875 692.630859375 751.85 693.1 752.8658203125 693.2158203125 753.75 694.1 754.9 695.2 755 696.75 755.15 699.4 752.35 701.75 751.1337890625 702.59765625 748.725 703.325 747.6287109375 712.1048828125 746.1 720.45
M 732.15 493.375
Q 732.1771484375 489.1251953125 735.5 486.1 738.85 483.05 743.55 483.05 748.25 483.05 751.6 486.1 754.95 489.15 754.95 493.45 754.95 493.65234375 754.95 493.85 756.09375 492.5205078125 757.1 491.125
M 761.85 456.35
Q 768.95 456 776 452.85
M 678.85 422.35
Q 672.1130859375 425.8095703125 663.425 427.65 663.5564453125 427.65 663.7 427.65 679.8 427.65 691.15 438.35 694.8087890625 441.783984375 697.3 445.675 698.4439453125 444.3060546875 699.75 443 710.75 432 726.3 432 726.9650390625 432 727.625 432.025 726.4353515625 431.76484375 725.25 431.45 716.45 429.15 709.1 424
M 750.175 427.625
Q 718.613671875 417.1248046875 684.15 417.65 667.39609375 417.905078125 650.975 420.975
M 633.1 430.1
Q 644.439453125 429.918359375 651.725 429.325 654.4787109375 429.08671875 656.65 428.8 660.168359375 428.3380859375 663.425 427.65
M 651.725 429.325
Q 643.104296875 431.8697265625 636.2 438.35 624.85 449.05 624.85 464.2 624.85 476.650390625 632.525 486.1 648.025 484.9037109375 659.9 486.7 666.4646484375 487.680078125 672.275 489.525 671.85 488.0203125 671.85 486.35 671.85 481.75 675.1 478.45 678.4 475.2 683 475.2 687.6 475.2 690.85 478.45 694.15 481.75 694.15 486.35 694.15 486.650390625 694.125 486.95 702.55 477.2150390625 702.55 464.2 702.55 453.9123046875 697.3 445.675
M 672.275 489.525
Q 679.0626953125 491.6509765625 684.825 494.95 688.1576171875 492.8708984375 691.15 490.05 692.32265625 488.9494140625 693.375 487.8 693.7642578125 487.375390625 694.125 486.95
M 690.6 495.1
Q 694.0677734375 493.771484375 696.85 492.875 695.26796875 490.92890625 694 488.85 693.9568359375 488.7810546875 693.925 488.7 693.6353515625 488.26015625 693.375 487.8
M 696.85 492.875
Q 700.2365234375 491.7896484375 702.6 491.35 704.7 490.95 706.1 491.25 708.35 491.7 709 493.25 709.8 495 708.35 497.85 707.6623046875 499.4087890625 706.45 501.525 715.2193359375 507.1 726.3 507.1 734.8572265625 507.1 742.025 503.775 744.3251953125 502.7029296875 746.475 501.3 739.7724609375 496.4935546875 732.15 493.375 727.1021484375 491.31875 721.65 490 707.8 486.7 694 488.85
M 706.45 501.525
Q 705.0162109375 504.00078125 702.85 507.25
M 684.825 494.95
Q 682.7576171875 496.2435546875 680.55 497.25 672.911328125 500.75 663.7 500.75 647.6 500.75 636.2 490.05 634.1775390625 488.143359375 632.525 486.1
M 660.35 513.5
Q 662.9 517.45 669.75 520.75 677.4 524.3 685 525.75
M 654.5 584.75
Q 653.3466796875 590.147265625 652.95 592.65
L 660.225 592.8
Q 660.3240234375 589.5927734375 660.5 586.25
M 666.35 592.8
Q 662.789453125 589.59609375 660.975 586.05 655.65 583.45 649.45 584.25 643.65 585.05 639.25 589 635.4 592.35 632.35 597.9 630.55 601.2 627.6 608.25 624.1205078125 617.0798828125 619.7 627.95 622.0888671875 633.4517578125 626.85 644.25 627.6 645.9 627.5 646.85 627.25 648.1 625.25 649.6 616.851171875 655.812109375 608.1 661.525 607.9078125 662.5826171875 607.75 663.6 606.7 670.3 606.9 679.15 606.95 682.05 607.75 694.85 608 700.85 608.65 703.9 609.7 708.8 612.35 711.75 615.15 714.65 620 716.1 623.2 717 629 717.6 646.45 719.3 654.75 719.5 669.15 719.85 680.35 717.6 684.831640625 716.6626953125 688.625 715.3 689.4 695.75 689.2 686.85 688.8025390625 671.149609375 686.025 659 682.7376953125 659.4396484375 678.85 660.5 676.4732421875 661.265625 674.275 661.975 662.7615234375 665.6349609375 656.5 667.4 650.1328125 669.1984375 644.6 669.875 639.843359375 670.4765625 635.05 670.875 635.340625 674.726171875 635.2 676.6 634.85 680.05 633.1 682.1 631.65 683.95 628.45 685.25 624.7 686.5 622.85 687.25 619.2 688.7 617.35 691.25 614.4 695.05 614.85 702.5 614.9 702.75 615.7 708.3 616.2 711.8 616.1 714.1
M 659.1 579.5
Q 659.3572265625 582.9072265625 660.975 586.05
M 652.95 592.65
Q 652.9271484375 592.8603515625 652.9 593.05 652.2 597.75 652.35 601.5 652.8 611.3 658.35 616.85 661.1 619.6 665 621 668.7 622.35 672.85 622.35 679.042578125 622.35 685.95 619.125
L 680.925 609.325
Q 675.18046875 611.5759765625 668.5 610.5 662.85 609.55 661 606 660.1 604.35 660.1 600.75 660.1 596.884765625 660.225 592.8
M 600.95 437.3
Q 596.7341796875 457.7771484375 597.5 479 593.45 472.5 586.75 468.35 580 464.15 572.5 464.25 568.6 464.35 565.3 465.5 561.65 466.8 559.25 469.25 555.5 472.95 553.35 480.85 549.85 494.8 552.1 508.35 552.95 514.15 555.3 518.2 558.1 523.15 564.675 525.25
L 567.45 519.85 576.05 519.525 582 519.275 590.65 518.95 597.25 526.85
Q 612.15 559 645.7 574.05 670.2671875 585.0140625 695.35 583.425 698.7427734375 583.1974609375 702.65 582.3 702.8380859375 577.180859375 708.525 573.2 714.2072265625 569.207421875 720.5 568.5 727.25 567.65 733.7 571.8 734.066796875 572.0333984375 734.425 572.275
M 754.95 493.85
Q 753.9501953125 494.9998046875 752.85 496.1 749.834765625 499.115234375 746.475 501.3
M 727.625 432.025
Q 731.5748046875 432.873828125 735.525 433.075
M 733.925 628.225
Q 735.2181640625 629.8130859375 735.25 630.65 735.29296875 631.7822265625 733.925 634.25 732.55234375 636.705859375 731.6 637.95 729.65 640.6 727.35 641.75 722.9 636.8 720.1 631.1 719.75 630.4 719.75 629.6 719.85 629.2 720.35 628.35 721.35 627 726.35 620.35 730.54765625 624.5439453125 732.875 627.025 733.4837890625 627.6755859375 733.925 628.225
L 742.85 628.1
M 750.05 615.65
Q 745.25 621.45 743.6 626.35 743.1 627.7 743.25 628.5 743.35 629.5 744.85 631
L 751.175 636.875
M 719.75 628.5
Q 711.5 628.35 707.25 628.35 707.0603515625 634.8357421875 706.75 641.5 706.2525390625 652.15078125 705.45 663.25 705.4138671875 663.7923828125 705.375 664.35 707.7427734375 664.25390625 712.825 664 717.9091796875 663.752734375 721.1 663.9 722.6931640625 663.9734375 724.95 663.425 727.2162109375 662.8501953125 730.15 661.65 736.00703125 659.2458984375 738.85 658.6 743.2 657.7 745.6 659.75 746.9 660.95 747 662.85 747.15 664.8 746.125 666.3 748.069921875 664.973828125 750.35 663 750.9982421875 662.4869140625 751.475 662.175
M 737.6 669.75
Q 740.95 669.4 744.4 667.4 745.23046875 666.9208984375 746.125 666.3
M 753.475 676.525
Q 752.3259765625 677.616015625 750.925 678.525 748.76484375 679.898828125 746 680.85
M 695.35 583.425
Q 695.35 589.34921875 693.475 595.075
L 701.775 601.775
Q 702.1109375 600.37578125 702.3 598.9 703.1359375 592.3033203125 702.65 582.3
M 680.925 609.325
Q 681.59921875 609.0546875 682.25 608.75 686.45 606.75 689.1 603.5 691.45 600.75 693.25 595.75 693.3673828125 595.41171875 693.475 595.075
M 685.95 619.125
Q 686.97109375 618.6431640625 688 618.1 694.35 614.85 697.6 610.6 700.5923828125 606.6396484375 701.775 601.775
M 644.35 618.25
Q 638.9009765625 629.37890625 638.525 642 644.05 642.4 649.05 642.375 650.9537109375 639.5876953125 652.8 637.05 656.3841796875 639.527734375 657.95 640.8 659.0900390625 641.7 660.075 642.6
L 675.95 642.575
Q 679.2412109375 638.4978515625 682.75 634.85 685.2943359375 636.958203125 689.95 641.5
L 706.75 641.5
M 707.55 609.55
Q 707.5318359375 618.754296875 707.25 628.35
M 657.25 614.8
L 663.45 609.45
M 675.95 642.575
Q 674.50390625 644.3732421875 673.1 646.25 672.5 647.05 672.6 647.5 672.85 648.1 673.1 648.35 682.65 658.6 683.1 659.1
M 649.05 642.375
Q 647.0564453125 645.301171875 645 648.5 644 650 644 650.85 644 651.8 645.1 653.25 646.1541015625 654.53203125 647.525 655.825 648.5740234375 656.78203125 649.8 657.75 651.3658203125 659.022265625 654.95 661.5 655.3466796875 660.9546875 655.75 660.4 659.14609375 655.655859375 662.75 650.05 663.75 648.55 663.75 647.7 663.75 646.75 662.65 645.3 661.5400390625 643.95 660.075 642.6
M 648.85 669.5
Q 649 674.65 649 676.4 648.95 680.3 648.35 683.25 647.05 691.15 642.35 695.5 641.45 696.35 638.55 698.55 636.05 700.4 634.85 701.85 632.65 704.65 632.05 709.05 631.6 712 631.65 717.5
M 681.8 660.35
Q 674.7 669.55 666.25 674.85 665.5 675.3 665.5 675.85 665.35 676.2 666 676.85 673.9 683.65 684.3 688.15 683.25 672.95 681.8 660.35 Z
M 655.75 660.4
Q 662.25 660.85 674.275 661.975
M 660.85 666.5
Q 663.2 679.5 662.55 692.9 661.9 706.2 658.35 719
M 689.95 641.5
Q 691.7021484375 643.2021484375 693.75 645.25 694.5 646 694.6 646.6 694.8 647.4 694.1 648.25 691.45 653.35 688.6 658.35
M 688.625 715.3
Q 691.1646484375 714.3861328125 693.4 713.275 698.359765625 710.81640625 701.775 707.4 701.8052734375 707.3693359375 701.825 707.35 702.358984375 706.805859375 702.85 706.25 704.4009765625 704.4380859375 705.675 702.3 707.5044921875 699.2365234375 708.775 695.5 709.710546875 692.798828125 710.35 689.75 711.978125 681.2146484375 710 673.8 709.9771484375 673.6994140625 709.95 673.6 708.98203125 670.0013671875 707.3 667.25 706.4232421875 665.8443359375 705.35 664.675 703.569921875 662.6912109375 701.25 661.35 699.275390625 660.156640625 696.95 659.5 693.9443359375 658.643359375 690.35 658.7 688.336328125 658.7 686.025 659
M 705.375 664.35
Q 705.3623046875 664.5076171875 705.35 664.675
M 696.95 659.5
L 705.35 659.5
M 710 673.8
L 725.825 674
Q 725.578515625 668.7865234375 724.95 663.425
M 701.825 707.35
Q 704.05 707.3501953125 706.225 707.575 708.4 707.7998046875 711.6 708.25 717.65 708.75 720.75 706.25 721.942578125 705.328515625 722.8 703.95 723.5462890625 702.78828125 724.05 701.3 724.9 698.95 725.25 695.25 726.367578125 684.954296875 725.825 674
M 708.775 695.5
L 724.7 695.5
M 711.6 708.25
Q 707.5 711.9 703.85 715.85
L 737.35 716.25
Q 732.2517578125 710.2548828125 726.75 704.5
M 693.4 713.275
L 697.25 720.35
M 701.775 707.4
Q 700.416796875 714.15546875 698.775 720.85
M 684.35 688.65
Q 674.1 695.25 665.5 701.6 664.75 702.05 664.85 702.6 664.85 702.85 665.35 703.35 672.95 710.05 683.1 712 684.25 712.2 684.75 711.85 685.25 711.35 685.25 710.5 686.1 701.2 684.35 688.65 Z
M 722.8 703.95
Q 740.4103515625 705.2849609375 746.85 703.85 747.8623046875 703.6001953125 748.725 703.325
M 747.75 694.35
Q 748.7509765625 694.35 749.75 694.05 750.7984375 693.735546875 751.85 693.1
M 707.1 644
Q 729.85 644.95 751.4 644.35
M 609.85 454.75
Q 617.55 456.75 625.6 455.35
M 613.85 442.85
Q 619.75 447.25 627.5 448.85
M 564.675 525.25
L 562.7 529.1 581.35 546.5 597.25 526.85 586.625 527.55
Q 586.85703125 531.61875 585 536.75 584.65 537.65 583.2 541.2 582.1 543.85 581.5 545.6
M 576.05 519.525
Q 574.75 520.6 573.55 522.55 572.45 524.3 572.35 526.5 572.35 527.4359375 572.525 528.45
L 586.625 527.55
Q 586.6068359375 527.4439453125 586.6 527.35 586.3 524.9 585.2 522.85 583.95 520.65 582 519.275
M 572.525 528.45
Q 572.9787109375 531.1072265625 574.6 534.35 577.2 540.15 581.25 545.5
M 563.5 529.05
L 572.525 528.45
M 625.75 641.1
Q 633.5 641.85 638.525 642 638.49609375 643.0451171875 638.5 644.1 638.5384765625 654.795703125 642.125 664.3 643.2052734375 667.1375 644.6 669.875
M 619.7 627.95
Q 618.1984375 631.6111328125 616.6 635.5 612.85 645.05 611.4 649.3 609.16796875 655.91171875 608.1 661.525
M 640 655.85
L 647.525 655.825
M 635.05 670.875
Q 633.9474609375 670.9689453125 632.85 671.05
M 618.25 655.1
Q 618.949609375 655.3998046875 642.125 664.3
M 643.5 377
Q 635.05 399.95 631.35 425.35"/>
</defs>

<g transform="matrix( 1, 0, 0, 1, 0,0) ">
<use xlink:href="#Layer2_0_FILL"/>
</g>

<g transform="matrix( 1, 0, 0, 1, 0,0) ">
<use xlink:href="#Layer0_0_FILL"/>

<use xlink:href="#Layer0_0_1_STROKES"/>
</g>
</svg>
