
<svg xmlns="http://www.w3.org/2000/svg" version="1.1" xmlns:xlink="http://www.w3.org/1999/xlink" preserveAspectRatio="none" x="0px" y="0px" width="1280px" height="720px" viewBox="0 0 1280 720">
<defs>
<g id="Layer2_0_FILL">
<path fill="#FFFFFF" stroke="none" d="
M 1280 720
L 1280 0 0 0 0 720 1280 720 Z"/>
</g>

<g id="Layer0_0_FILL">
<path fill="#000000" stroke="none" d="
M 584.65 240.15
Q 584.65 241.4 585 242.5 585.4 242.4 585.8 242.35 590.3 241.7 595.7 243 597.6 243.45 599.8 244.1 600.75 244.4 601.8 244.75 601.15 243.7 600.55 242.6 599.7 240.95 599 239.25 597.9 236.55 597.2 233.65 595.3 232.45 592.8 232.45 589.4 232.45 587 234.7 584.65 236.95 584.65 240.15
M 658.15 241.65
Q 655.85 244 655.85 247.3 655.85 250.6 658.15 252.9 659.8 254.55 661.95 255.05 663.4 253.8 664.8 252.4 668.6 248.6 671.2 244.3 670.6 242.85 669.4 241.65 667.1 239.35 663.8 239.35 660.5 239.35 658.15 241.65 Z"/>
</g>

<path id="Layer0_0_1_STROKES" stroke="#000000" stroke-width="1" stroke-linejoin="round" stroke-linecap="round" fill="none" d="
M 511.05 505.35
Q 514.45 507.5 522.35 507.8 530.25 508.05 533.65 509.6 536.45 510.95 536.8 513.05 541.95 512.6 545.8 515 548.45 516.45 548.9 518.6 549.2 520.05 548.3 521.6 552.45 521.45 555.9 523.75 557.45 524.75 557.8 526.25 558.15 527.35 557.4 529 556.45 531.15 554.5 532.65 552.55 534.15 550.15 534.6 545.4 535.55 540.65 533.35 536.7 531.65 536.05 528.65 533.6 529 531.15 528.75 527.2 528.4 523.6 526.4 520.3 524.65 517.9 521.85 517.1 521.65 516.4 521.25 514.3 520.2 512.3 516.75 508.85 510.45 511.05 505.35 507.15 503.35 496.25 497.1 485.3 490.85 480.75 486.95 477.35 484.05 475.9 481.85 475.4 481.05 475.15 480.35 474.25 477.7 475.05 473.35 475.5 470.7 476.25 468.15 477.55 463.7 479.65 459.6 480.9 457.25 482.15 456.25 483.25 455.5 484.9 455.25 485.9 455.1 487.9 455.1
L 509.05 455.1
Q 499.25 447.4 491.05 441 479.65 432.1 471.4 425.65 471.3 425.55 471.15 425.4 470.9 425.2 470.6 424.95 470.1 424.45 469.3 423.6 468.45 422.7 468.25 421.1 468.05 419.55 469.35 417.55 470.65 415.55 473.05 415.85 475.45 416.1 478.05 417.75
L 499 431.1 535.65 454.5
Q 536.35 454.95 536.95 455.35 540.25 455.05 546.5 455.6 553.2 456.2 558.45 458.2 559.55 458.6 560.75 459.15 564.95 460.9 569.6 463.55 590.25 435.1 602.3 401.1 597.7 397.35 594 392.35 585.7 381.2 585.55 368.6 575.95 366.25 566.8 362.35 540.95 351.3 526.55 330.35 519.2 319.65 515.95 306.35 512.75 293.35 514.1 280.15 515.45 266.65 521.2 255.4 527.35 243.45 538.8 235 533.55 226.1 533.55 214.9 533.55 199.65 543.25 188.65 545.7 188.7 548.15 188.6 538.45 172.15 536.25 151.55 534.15 132.2 538.9 112.35 544.25 90.4 555.4 78.25 567.8 64.5 591.55 58.1 605 54.45 622 53.35 634.1 52.55 653.05 52.85 682.55 53.45 701.15 56.25 709.95 57.6 718 59.55 733.85 63.45 746.8 69.85 749.7 71.3 752.55 72.9 758.1 76 763.3 79.7 780.85 75.1 792.1 73.45 803.3 71.75 805.45 75.4 807.6 79 805.25 82.85 802.85 86.65 798.55 88.6 794.2 90.55 790.55 90.15 799.25 91.9 805.55 96.85 812.5 102.25 811.95 106.1 811.4 109.9 809.3 111.75 807.35 113.5 804.65 114 802.85 114.3 798.15 113.6 816.45 139.4 817.55 171.25 818.6 203.1 817.6 229.3 816.6 255.45 815.65 277.15 814.65 298.8 812.6 323.95 810.6 349.1 815.8 368.2 821.15 380.5 834.9 389.05 848.65 397.55 857 406.8 865.35 416 870.8 427.55 877.15 440.95 875.65 453.6 874.1 467.5 862.4 476.75 850.4 486.2 838.65 482.6 844.6 491 847.5 501.7 850.35 512.4 843.65 521.65 836.9 530.85 826.35 536.7 817.1 541.8 805.15 544.1 791.8 546.75 778.1 545.9 766.4 545.2 755.4 542.05 753.45 541.5 751.55 540.85
M 790.55 90.15
Q 789.6 90.05 788.55 89.95
M 763.3 79.7
Q 772.1 86 779.8 93.95 788.5 102.9 798.15 113.6
M 628.9 177.35
Q 633.8 180.85 639 183.8 644.6 186.95 650.65 189.4 656.5 191.75 662.55 193.4 668.45 195 674.55 195.85
M 662.55 193.4
Q 663.7 194.4 664.8 195.5 676.6 207.3 676.6 223.95 676.6 235.25 671.2 244.3 668.6 248.6 664.8 252.4 663.4 253.8 661.95 255.05 651 264.2 636.35 264.2 619.7 264.2 607.9 252.4 604.3 248.8 601.8 244.75 600.75 244.4 599.8 244.1 597.6 243.45 595.7 243 590.3 241.7 585.8 242.35 585.4 242.4 585 242.5 581.3 243.15 578.25 245.1 574.7 247.45 573.05 251 572.4 252.3 572.1 253.7 571.2 257.3 572.6 261.4 574.45 266.9 579.15 269.85 583.65 272.7 589.45 272.65 595 272.6 599.8 270.65
M 590.3 173.1
Q 586.75 175.95 582.85 178.3 587.25 179.95 591.2 182.85 616.7 167.4 639.15 147.95 661.9 128.2 680.7 103 680.35 143.95 691.35 182.4 702.2 220.25 722.65 252.9 727 246.05 730.5 242.2 734.9 237.3 739.35 234.05 745.25 203.85 747.25 189.15 750.7 163.95 749.8 143.75 748.7 119.4 741.25 98.75 733 75.85 718 59.55
M 752.55 72.9
Q 764.85 93.95 770.25 117.25 775.65 140.6 772.9 167.2 770.15 193.8 760.95 227.65 762.7 227.65 765.55 228.6 771.25 230.4 775.7 235.35 779.85 240.05 781.8 246.25 785.25 257.05 781.4 270.75 779.25 278.85 775.15 285.55 770.7 292.75 764.55 297.35 757.9 302.35 749.8 303.75 742.3 305.05 734.75 302.45 729.6 311.65 723.15 319.75 727.45 325.3 728.25 333.2 728.95 340.6 726.4 348 724.45 353.4 720.8 358.95 738.3 378.65 746.35 404.15 751.55 420.75 756.9 451.25 760.25 470.7 760.75 481.4 761.5 498.2 757.4 511 755.45 517.25 752.25 523.2
L 752.95 522
Q 752.6 530.45 751.95 535.55 751.55 539 750.9 541.15 750.8 541.4 750.75 541.65 749.65 545 748.4 547.25 743.25 556.45 730.3 562.25 719.2 567.2 708.15 567 697.1 566.8 686 566.8 681.5 566.9 677.05 566.35 661.85 564.4 650.15 554 645.4 549.75 643.25 546.65 637.85 546.9 634.05 550.6 630.5 554 628.05 558.6 627.2 560.15 626.45 561.9 625.2 564.65 624.15 567.9 623.25 570.65 621.4 577.6
L 615.6 602
Q 622.25 604.8 631.25 605.3 637.05 605.6 648.3 605.25 651.7 591.05 653.1 586.75 657.8 572.45 665.55 563.85
M 739.35 234.05
Q 739.8 233.7 740.3 233.35 746.15 229.4 752.55 228.05 756.2 227.25 760.95 227.65
M 673.3 206.85
Q 675.5 207 680.15 205.75 682.95 204.9 684.45 204.2 686.8 203.2 688.3 201.85
M 661.95 255.05
Q 659.8 254.55 658.15 252.9 655.85 250.6 655.85 247.3 655.85 244 658.15 241.65 660.5 239.35 663.8 239.35 667.1 239.35 669.4 241.65 670.6 242.85 671.2 244.3
M 707.8 288.2
Q 707.8 295.8 702.6 301.2 697.45 306.6 690.1 306.6 682.75 306.6 677.55 301.2 672.4 295.8 672.4 288.2 672.4 280.6 677.55 275.2 682.75 269.8 690.1 269.8 697.45 269.8 702.6 275.2 707.8 280.6 707.8 288.2 Z
M 676.65 217.25
Q 685 218.6 692.4 215.5
M 585.55 368.6
Q 601.4 372.4 618.55 371.85 629.4 371.5 639.9 369.5 650.5 367.45 660.75 363.75 673.45 359.1 685.65 351.95 686.8 351.3 687.9 350.65 693.2 347.4 698.1 343.8 712.4 333.25 723.15 319.75
M 660.75 363.75
L 660.85 369.65
Q 676.65 362.45 687.9 350.65
M 639.9 369.5
L 640.3 376.1
Q 647.25 374.75 654.15 372.3 657.6 371.05 660.85 369.65 663.2 372.15 663.6 376.15 663.8 378.55 663.55 383.35 662.65 398.15 661.2 407.95 664.4 406.8 667.55 405.35 679 400.1 690.25 391 694.4 387.65 698.7 383.65 701.65 373.85 703.05 363.5 703.95 357 703.15 352.75 702.1 346.8 698.1 343.8
M 698.7 383.65
Q 704.15 378.55 709.9 372.35 715.85 366 719.45 360.95 720.15 359.95 720.8 358.95
M 838.6 482.7
Q 836.7 477.05 834.9 472.7 833.15 468.4 830.85 466.9 828.5 465.4 826.3 466.05 824.45 466.45 823.3 468.1 821.75 470.6 821.65 472.35 821.3 475.6 824.05 478.45 826.2 480.55 829.8 481.65 833.35 482.85 838.6 482.7 Z
M 745.3 401.75
Q 741.6 400.5 739.85 400 736.8 399.1 734.3 398.85 731.55 398.65 730.3 399.5 728.9 400.6 728.4 404 727.9 405.9 728.65 407 729.3 407.8 730.65 408.25 736.4 410.35 739.4 411.3 744.35 412.85 748.4 413.6
M 724.95 499
Q 725.4 499.95 726.05 501.15 727.15 503.3 728 506.4 729.9 513.3 730.3 514.35 731 516.55 732.55 517.25 733.6 517.6 735.65 517.1 738.1 516.6 739.05 515.35 739.9 514.2 739.9 511.85 740.1 503.9 736.8 496.25 735.9 493.65 734.4 492.6 733 491.75 730.95 492.05 729.25 492.25 727.4 493.25 724.95 494.7 724.4 496.25 724.05 497.35 724.95 499 Z
M 696.7 402.5
Q 697 423.2 696.45 435.85 704.9 435.85 709.15 435.75 712.35 435.75 713.3 437.25 713.7 437.9 713.6 438.95 713.6 439.4 713.3 440.85 712.75 442.45 712.55 442.9 712.05 443.95 711.4 444.6 710.15 445.75 707.3 446.5 701.4 447.7 695.65 447.1 695.55 448 695.45 448.85 693.65 461.1 692.8 464.9 691.9 468.7 688.7 473.15 686.55 476.1 682.25 479.05 686.75 481.55 690.2 485.3 693.75 489.05 695.8 493.6 696.75 495.5 696.3 496.85 696 497.65 695 498.3 694.9 498.35 693.15 499.25 691.8 500.1 691.05 500.45 689.8 501.05 688.8 501 687.35 501 686 499.55 685.4 498.95 683.9 496.75 679.2 489.3 671.6 484.65 671.45 484.7 671.35 484.75 667.25 486.4 661.8 488.1 657.35 489.45 653.2 490.55 656.55 493.8 661.35 500.5 665.6 506.7 668.15 511.6 670.15 515.5 671.4 519.25 674.35 528.35 672.9 536.6 671.7 542.85 667.9 544.1 664.9 544.8 660.45 542.1 656 539.4 652.45 534.7 650.65 532.35 646.7 526.25 639.55 528.25 636.25 529.85 636.75 533.55 638.15 537.2 639.95 541.95 643.25 546.65
M 667.9 417.35
Q 665.5 418.7 664.8 420.75 664.05 423.3 666.05 427.25 667.7 430.7 669.15 433.35 670.7 435.95 672.15 436.6 673.45 437.1 675.55 436.85 679.7 436.05 682.8 433.35 683.6 432.8 683.8 431.85 683.9 431.05 682.55 429.6 676.5 423.65 672.85 415.95 669.55 416.5 667.9 417.35 Z
M 671.35 484.75
Q 665.15 481.3 658.05 480.1 651.15 478.95 643.85 478.8 643.85 480.7 643.8 482.75 643.75 483.3 643.6 484.35 643.45 485.15 643.05 485.75 641.75 487.85 637.65 487.35 635.85 487.15 635.15 486.5 634.2 485.4 634.4 483.35 634.4 481.45 634.9 477.75 634.9 477.65 634.95 477.55 624.7 475.4 618.35 479.05 619.75 480.1 621.2 481.3 630.7 489.1 636.3 490.75 641.85 492.4 649.05 491.3 651.05 491 653.2 490.55
M 671.6 484.65
Q 674.9 483.3 677.3 482 680.05 480.5 682.25 479.05
M 695.65 447.1
Q 696.15 442.6 696.45 435.85
M 703.8 563.1
Q 706.3 553.85 705.4 547.6 705 544.55 705 543.75 705 541.6 706.05 540.35 707.35 539.05 709.65 538.6 713.05 537.95 714.65 539.35 715.65 540.05 716.15 542.1 716.55 544 716.55 548 716.55 554.35 715.75 558.55 724.15 554.15 731.9 547.6 740.9 540.2 747.35 531.1 750 527.35 752.95 522
M 646.7 526.25
Q 649.55 525.4 653.1 524.5 665.2 521.3 671.4 519.25
M 686 566.8
Q 695.95 566.45 706.15 562.75 711.05 561 715.75 558.55
M 529.05 184.75
Q 530.9 187.45 533.9 189.1 536.1 190.4 540.05 191.85
M 591.2 182.85
Q 593.9 184.85 596.35 187.45 601.6 192.95 604.3 199.6 605.9 197.5 607.9 195.5 619.7 183.7 636.35 183.7 637.7 183.7 639 183.8
M 548.15 188.6
Q 558.15 188.25 567.85 185.1 575.85 182.5 582.85 178.3
M 585 242.5
Q 584.65 241.4 584.65 240.15 584.65 236.95 587 234.7 589.4 232.45 592.8 232.45 595.3 232.45 597.2 233.65 596.1 229 596.1 223.95 596.1 210.1 604.3 199.6
M 601.8 244.75
Q 601.15 243.7 600.55 242.6 599.7 240.95 599 239.25 597.9 236.55 597.2 233.65
M 572.1 253.7
Q 571.2 253.7 570.35 253.7 555.1 253.7 544.3 242.3 541.05 238.85 538.8 235
M 601 289.1
Q 600.55 291.9 600.4 293.35 600.4 294.6 600.65 295 601.3 295.75 602.8 295.75 609.95 296 611.55 296 613.4 296 614.05 295.35 614.55 294.85 614.55 293.85 614.65 293.1 614.6 291.15 614.6 289.4 614.85 288.25 614.75 288.25 614.7 288.2 610.8 286.7 606.65 287.25 603.8 287.7 601.15 289.05 601.05 289.05 601 289.1 600.05 289.6 599.1 290.25 595.7 292.55 593.3 296 592.05 297.9 591.15 300
L 624 300.35
Q 623.2 296 621.05 293 618.8 289.8 614.85 288.25
M 551.55 270.8
Q 551.55 277.6 547.15 282.4 542.8 287.25 536.65 287.25 530.5 287.25 526.1 282.4 521.75 277.6 521.75 270.8 521.75 264 526.1 259.15 530.5 254.35 536.65 254.35 542.8 254.35 547.15 259.15 551.55 264 551.55 270.8 Z
M 624.05 308.1
Q 616.25 307.3 609.65 311.6 606.45 313.6 604.05 316.65 601.65 319.7 600.4 323.3 601.55 323.35 603 323.35 607 323.45 612.5 323.4 617.95 323.3 619.95 321.25 621.95 319.2 623.3 315.5 624.65 311.75 624.4 305.6 624.4 302.75 624 300.35
M 591.15 300
Q 588.85 305.15 588.65 311.5 588.65 315.8 589.8 318.25 590.45 319.8 591.6 320.9 592.75 322 593.75 322.3 594.7 322.6 596.85 322.95 598.2 323.15 600.4 323.3
M 640.3 376.1
Q 627.6 378.45 614.8 376.95 613.85 381.6 615.45 387.15 616.6 391.35 619.55 397 624.5 406.85 629.4 412.05 635.25 412.7 641.55 412.25 651.55 411.45 661.2 407.95
M 612.4 376.6
Q 613.6 376.8 614.8 376.95
M 522.9 197.25
Q 528.25 201.75 534.9 202.5
M 617.15 420
Q 616.85 431.9 615.95 443.85 617.55 443.15 619.5 441.3 622.35 438.45 622.8 438.1 623.7 437.2 624.55 437.5 625.25 437.85 625.4 438.85 626.15 441.15 626.55 443.6 627 446.4 626.15 447.85 625.65 449.15 623.3 450.75
L 614.85 456.45
Q 614.85 456.55 614.85 456.65 613.95 465.4 612.8 474.25 612.75 474.55 612.6 475.1 615.25 476.7 618.35 479.05
M 641.55 449.9
L 641.5 456.25
Q 643.55 456 645 454.95 646.35 453.9 647.05 452.35 648.3 449.8 647.4 445.85 646.6 443.1 644.65 439.85 644.15 438.6 643.3 437.35 642.8 436.15 642.05 435.85 641.55 435.65 641.05 435.8 640.55 435.95 640.3 436.35 639.65 437 639.15 438
L 637.65 441
Q 635.75 445.15 635.4 447 634.6 450.45 636.05 453.25 636.8 454.65 638.3 455.55 639.85 456.45 641.5 456.25
L 641.45 460.95
Q 642.8 461.2 643.65 461.85 644.5 462.55 645.55 464.85 646.4 466.8 647.15 469.1 647.5 470.85 647.3 471.35 646.75 472.6 644.4 472.6
M 602.3 401.1
Q 608 405.8 615.15 408.6 621.95 411.25 629.4 412.05
M 594.55 421.1
Q 596.55 420.75 602.65 419.85 603.8 419.85 604 419.9 604.75 419.95 605.15 420.35 605.65 420.65 605.85 421.4 605.95 421.8 606.05 422.6 606.05 428.45 603.3 430.6 602.65 431.2 601.55 431.6 601.25 431.75 599.65 432.25 593.95 433.6 588.55 433.6
M 583.8 450
Q 582.5 451.5 582.65 452.85 582.95 454.25 585.15 455.75 592.05 460.25 594.9 466 595.1 466.3 595.5 466.95 595.9 467.45 596.4 467.6 597.05 467.6 597.65 467.35 599.75 466.65 601.8 465.25 603.6 464.1 603.8 462.6 603.9 461.65 603.15 460 598.8 451.5 590.65 447.1 589.05 446.15 587.9 446.6 585.6 447.85 583.8 450 Z
M 475.9 481.85
Q 483.15 482.95 492.65 483.25 493.85 483.3 514.05 483.6 534.2 483.9 545.8 487.45 557.4 490.95 565.75 496.3 574.1 501.6 587.2 511.2 590.35 509.95 593.95 508.15 595.1 507.5 596.2 507 587.7 502.65 580.3 497.1 576.5 494.4 575.8 491.85 575.15 489.8 576.05 487.15 576.65 485.55 578.3 482.75 579.9 480.1 581.55 480 582.85 480 584.4 481.35 592.9 487.8 596.65 490.85 598.2 492.05 598.85 492.65 599.95 493.7 600.55 494.85 601.55 497.15 600.6 500.25 599.95 502.4 598.35 505.95 600.4 504.95 601.95 504.25 604.95 502.95 607.3 499.1 609.6 495.2 608.35 492.25 607.1 489.3 604.75 487.35 601.85 485.2 600.4 484.1 598.7 482.85 598.05 482.25 591.65 478.25 578.95 469.55 573.9 466.05 569.6 463.55
M 560.75 459.15
Q 557.7 464.35 555.5 469.85 558.65 472.05 562 474.4 565.35 476.75 569.55 479.85 573.75 482.95 576.5 484.9
M 598.05 482.25
Q 597.15 480.75 596.8 480.1 595.45 477.45 596.3 475.1 597.35 472.75 600.35 471.95 603.05 471.3 606.05 472.1 608.9 472.85 612.6 475.1
M 641.45 460.95
Q 640.85 460.8 640.15 460.75 637.9 460.5 636.3 461.6 635.15 462.45 634.15 464.75 632.7 467.95 632.55 469 632.25 470.55 632.8 471.5 633.3 472.45 635.8 472.4 636 471.05 636.35 469.65
M 635.8 472.4
Q 635.2 475.6 634.95 477.55
M 643.85 478.8
Q 643.85 474 643.5 470.1
M 614.85 456.45
Q 615.5 450.15 615.95 443.85
M 491.05 441
Q 493.6 440.05 496.05 437 497.5 434.95 499 431.1
M 509.05 455.1
Q 516.5 460.95 524.9 467.55 527.05 469.25 529.3 471 537.9 477.7 542.1 475.5 546.25 473.3 547.65 470 548.05 469 548.1 468 548.2 465.75 546.4 463.7 543.8 460.65 541 458.3 539.6 457.1 536.95 455.35
M 522.4 492.45
Q 522.4 493.5 521.65 494.25 520.9 495 519.85 495 518.8 495 518.05 494.25 517.3 493.5 517.3 492.45 517.3 491.4 518.05 490.65 518.8 489.9 519.85 489.9 520.9 489.9 521.65 490.65 522.4 491.4 522.4 492.45 Z
M 548.1 468
Q 552.35 467.65 555.5 469.85 552.55 477.2 551.5 484.6
M 517.9 521.85
Q 518.9 522.1 520.05 522.1 521.3 522.1 523.9 521.75 528.2 521 530.5 520.15 534.05 518.85 535.8 516.5 537.15 514.7 536.8 513.1
L 536.8 513.05
M 548.3 521.6
Q 547.6 522.8 546.15 524 543.05 526.65 539.15 527.9 537.6 528.4 536.05 528.65
M 540.75 633.1
L 539.85 599.35 539.35 580.15
Q 539.1 571.45 538.95 564.95 538.8 558.4 540.4 551.85 542 545.25 547.25 540.5 552.9 535.4 560.9 534.85 558.75 533.5 556.25 531.55
M 619.6 524.95
Q 612.1 531.35 605.35 534.45 597.5 538.05 589.05 538.1 595.5 543.05 603.5 543.15 611.5 543.25 616.7 541.6 621.9 539.95 625.9 536.7 626.25 536.35 626.65 536.1 630.25 533.15 634.2 530.9 635.05 530.35 636.25 529.85
M 638.15 537.2
Q 637.35 539.65 635.4 541.65 634.15 542.95 632.55 543.8 631.85 544.2 631.05 544.5 627.35 545.75 620.8 545.75 609.35 545.85 604.1 545.7 594.85 545.4 587.55 544.25 587.45 544.25 587.35 544.25 594.85 550.2 603.1 554.15 614.15 559.5 626.45 561.9
M 626.65 536.1
Q 629.7 539.2 632.55 543.8
M 596.2 507
Q 597.3 506.45 598.35 505.95
M 589.05 538.1
Q 588.95 538.1 588.85 538.1 583.8 537.95 580.6 535.75 578.7 534.45 577.7 532.5 576.55 530.45 576.85 528.35 576.95 527.5 577.4 526.7 577.9 525.85 578.6 525.5 579.05 525.25 579.7 525.15 579.85 525.1 580.05 525.1 580.25 525.1 580.4 525.1 580.45 525.1 580.55 525.1 580.75 525.1 581 525.15 577.05 521.35 578.75 517.5 580.45 513.6 584.7 512.15 585.9 511.7 587.2 511.2
M 610.7 515.65
Q 605.5 521.55 597.75 524 590.05 526.4 582.35 525.25 581.9 525.2 581 525.15
M 603.1 554.15
Q 591.55 555.6 581.55 558 576.75 558.95 574.4 560.85 571.65 563.15 570.75 567.5 570.15 570.4 570.3 575.5
L 570.9 600.5 571.8 638.85
M 587.35 544.25
Q 571.9 541.75 560.9 534.85
M 476.15 417
Q 474.65 421.75 471.15 425.4
M 493.35 633.45
Q 487.7 634.85 483.75 636.45 478 638.85 474.05 642.25 470.4 645.4 468.85 649.6 467.15 654.3 469.15 658 470.85 661.2 475.1 662.8 477.95 663.85 483.1 664.85 507.25 668.75 533.25 665.25 533.5 663.65 534.15 661.95 536.4 655.95 542.55 651.75 544.6 650.35 546.75 649.15 531.95 649.85 524.4 649.65 510.55 649.3 499.9 646.35 495.1 645.25 492.9 642.75 491.35 640.75 491.5 637.95 491.65 635.2 493.35 633.45 494 633.25 494.65 633.1 523.35 626.35 544.15 634.75
M 648.3 605.25
Q 647.5 608.7 644.75 621.2 641.95 633.7 638.6 643.1 635.2 652.45 634.85 653.45 632.9 657.85 631.2 661 628.65 665.65 625.3 668.35 622.85 670.3 619.25 671.7 616.75 672.7 612.55 673.75 580.25 681.9 547.55 679.25 542.5 678.8 539.25 677.45 536 676.05 533.95 672 532.5 669.1 533.25 665.25
M 546.75 649.15
Q 553 645.45 559.8 642.95 566.7 640.35 574.2 639 590.7 636 606.6 639.45
L 615.6 602
M 559.8 642.95
Q 557.85 644.25 557.25 647.2 556.7 650.05 558.15 652.5 560.5 656.35 567.05 658.5 577.15 661.75 590.05 661 599.5 660.45 610.2 658.65 620.9 656.8 634.85 653.45
M 606.6 639.45
Q 607.5 639.65 608.4 639.85
M 539.85 599.35
Q 546.5 601.45 555.15 601.5 560.4 601.5 570.9 600.5
M 476.25 468.15
L 524.9 467.55"/>
</defs>

<g transform="matrix( 1, 0, 0, 1, 0,0) ">
<use xlink:href="#Layer2_0_FILL"/>
</g>

<g transform="matrix( 1, 0, 0, 1, 0,0) ">
<use xlink:href="#Layer0_0_FILL"/>

<use xlink:href="#Layer0_0_1_STROKES"/>
</g>
</svg>
