
<svg xmlns="http://www.w3.org/2000/svg" version="1.1" xmlns:xlink="http://www.w3.org/1999/xlink" preserveAspectRatio="none" x="0px" y="0px" width="1280px" height="720px" viewBox="0 0 1280 720">
<defs>
<g id="Layer2_0_FILL">
<path fill="#FFFFFF" stroke="none" d="
M 1280 720
L 1280 0 0 0 0 720 1280 720 Z"/>
</g>

<g id="Layer0_0_FILL">
<path fill="#000000" stroke="none" d="
M 670.35 304.85
Q 671.0654296875 305.907421875 672.2 306.45 673.4 307.05 674.6 306.85 675.6 306.65 676.1 306.1 677.1 305.35 677.1 302.6
L 677.1 300.85 670.35 304.85
M 709.6 285.9
Q 710.6 286.5 711.5 286.5 712.4 286.5 713.2 285.85 713.95 285.25 714.25 284.35 714.35 283.85 714.35 282.6 714.35 281.39296875 714.25 280.65 711.9333984375 282.583984375 707.9 284.55 709.3 285.75 709.6 285.9 Z"/>
</g>

<path id="Layer0_0_1_STROKES" stroke="#000000" stroke-width="1" stroke-linejoin="round" stroke-linecap="round" fill="none" d="
M 648.1 304.75
Q 649.4033203125 305.3109375 650.675 305.8 650.2 303.5404296875 650.2 301.1 650.2 296.3234375 652.025 292.25 639.35 281.6 632.65 272.05 623.85 259.55 623.6 247 623.35 234.5 631.4 222.35 638.4 211.75 650.35 203.1 667.7 190.55 689.55 185.4 706.2134765625 181.4908203125 723.5 182.3 728.103125 182.5033203125 732.75 183.05 740.9236328125 184.0115234375 748.725 185.95 752.9265625 186.9943359375 757.025 188.325 762.473828125 182.691796875 770.15 180.05 777.85 177.4 785.5 178.6 790.95 179.5 793.85 182.25 794.8 183.15 795.2 184.3 795.65 185.55 795.25 186.6 794.85 187.5 793.35 188.5 789.75 190.5 786.1 190.575 787.084375 190.616796875 788.1 190.75 792 191.4 793.85 193.35 795.05 194.55 795.4 196.15 795.8 197.9 795 199.25 794.1 200.6 792.35 201.5 790.2 202.7 787.675 203.325 799.248828125 211.2646484375 808.25 221.75 816.15 230.85 826.05 246.9 839.65 269 842.5 273.1 860.0388671875 298.75859375 880.15 307.8 895.45 296.8 905.4 292 919.4 285.3 932.1 284.6 946.75 283.8 959.1 291.9 972.2 300.5 974 313.85 975.165625 322.5705078125 970 329.95 970.9314453125 330.012109375 971.8 330.1 977.55 330.7 982.1 332.5 992.45 336.65 1000 348.25 1010.4 364.85 1006.95 385.65 1003.55 406.5 988.35 418.85 981.60390625 424.3845703125 972.7 428 976.58984375 428.4431640625 980 432.15 982.4 434.75 985 439.75 991.2 451.55 994.5 458.95 999.35 469.7 1002 479 1004.05 486.5 1003.5 491.35 1003 494.65 1001.4 497.25 999.7 500.15 997 501.5 994.2 503 990.6 502.65 987.3 502.35 984.35 500.5 979.65 497.55 975.75 490.35 971.3 482.25 968.8 471.05 967.4642578125 465.1041015625 965.975 454.15 954.8470703125 455.328125 945.975 456.15 934.109375 457.2640625 926.25 457.75
M 786.1 190.575
Q 784.117578125 190.483203125 783.9 190.5
M 787.675 203.325
Q 781.33046875 198.95078125 774.2 195.35 765.8716796875 191.175 757.025 188.325
M 723.5 182.3
Q 730.5 186.05 735.7 190.9 739.35 194.3 744.25 200.6 754.25 213.3 761.85 224.5 772.5 239.9 782.35 257.35 785.8767578125 254.7494140625 790.35 254.4 783.4271484375 235.04921875 772.65 217.45 762.2244140625 200.407421875 748.725 185.95
M 766.95 291.2
Q 766.95 295.3 764.3 298.15 761.7 301.05 757.95 301.05 754.2 301.05 751.55 298.15 748.95 295.3 748.95 291.2 748.95 287.1 751.55 284.2 754.2 281.35 757.95 281.35 761.7 281.35 764.3 284.2 766.95 287.1 766.95 291.2 Z
M 727.25 252
Q 727.45 256.3 727.35 257.85 727.35 261.3 725.75 262.6 725.6021484375 262.8365234375 725.4 262.925 726.1400390625 263.5140625 726.85 264.175 729.1 263.15 730.6 260.5 731.9 258.1 732.35 256.1
M 782.35 257.35
Q 777.2982421875 261.041796875 775.05 268.9 774.412109375 271.1544921875 774 273.75
M 786.35 303.35
Q 795.1 303.35 802.75 299 807.8 295.9 810.1 292.1 812.3 288.65 813 282.85 813.65 276.3 811.8 270.35 809.8 263.9 805.35 259.75 800.65 255.3 794.1 254.5 792.1447265625 254.269921875 790.35 254.4
M 775.05 268.9
Q 748.45 262.15 726.55 247.05 704.65 231.9 689.75 210.6 688.7701171875 224.4556640625 686.45 238 692.0318359375 237.5794921875 697.25 238.35
M 681.6 238.6
Q 684.0564453125 238.1955078125 686.45 238 682.893359375 258.7310546875 676.2 278.75 682.163671875 279.26875 686.975 282.4 686.85 281.247265625 686.85 280.05 686.85 270.85 693.75 264.35 700.65 257.9 710.4 257.9 718.912109375 257.9 725.25 262.8 725.325 262.866015625 725.4 262.925
M 652.025 292.25
Q 653.7439453125 288.41015625 657.1 285.2 664 278.65 673.8 278.65 675.023046875 278.65 676.2 278.75
M 726.85 264.175
Q 726.949609375 264.25625 727.05 264.35 727.2958984375 264.581640625 727.525 264.825 733.95 271.1779296875 733.95 280.05 733.95 289.25 727.05 295.7 720.15 302.2 710.4 302.2 703.0087890625 302.2 697.25 298.475 697.4 299.7541015625 697.4 301.1 697.4 303.6255859375 696.9 305.95 697.93671875 305.837890625 699 305.85
M 654.1 312.85
Q 662.6080078125 309.3876953125 670.325 304.825 680.681640625 298.7017578125 689.625 290.6 689.6 290.557421875 689.575 290.525 687.4169921875 286.7962890625 686.975 282.4
M 697.25 298.475
Q 695.4193359375 297.2724609375 693.75 295.7 691.2189453125 293.333984375 689.625 290.6
M 689.575 290.525
Q 692.75 290.65 696.65 289.4 698.8 288.7 703.5 286.6 705.916796875 285.5806640625 707.925 284.575 711.9333984375 282.583984375 714.275 280.675 714.3103515625 280.6328125 714.35 280.6 715.9 279.4 717.7 277.5 718.2 277 720.75 274.1 725.55 268.6 727.525 264.825
M 707.925 284.575
Q 709.3 285.75 709.6 285.9 710.6 286.5 711.5 286.5 712.4 286.5 713.2 285.85 713.95 285.25 714.25 284.35 714.35 283.85 714.35 282.6 714.35 281.39296875 714.275 280.675
M 696.9 305.95
Q 693.6091796875 306.2955078125 690.5 307.85 686.4 309.95 683.85 313.5 682.25 315.85 682.25 317.6 682.25 319.8 683.75 321.5
L 683.775 321.525
Q 685.466796875 323.704296875 688.5 324.5 691.35 325.3 694.25 324.6 698.85 323.55 704.1 318.75
M 725.6 327.35
Q 722.25 328.55 719.5 330.25 718.35 330.9 718.1 331.5 717.75 332.3 718.25 333.25 718.75 335.25 719.6 335.75 720.55 336.2 722.1 335.75 723.5 335.5 726.1 334.25 727.6 333.25 728 332.35 728.5 331.2 727.5 329.5 727.25 329.05 726.65 328.3 726 327.55 725.6 327.35 Z
M 742.225 306.3
Q 741.4767578125 308.5419921875 739.2 310.5 737.6 311.85 734.25 313.75
L 723.1 319.85
Q 717.1 323.15 714.6 325.75 712.7 327.75 711.8 330.15 710.8 332.85 711.35 335.25 711.7 337.5 713.35 339.35 714.85 341.1 717.1 342.1 721.35 343.9 726.35 342.5 730.55 341.4 734.7 338.25 737.8 335.9 741.6 331.75 746.05 327 748.9 323.15 752.4625 318.3009765625 754.45 313.6 750.5 311.9 748.55 311 745.15 309.45 743.25 307.5 742.7134765625 306.9390625 742.225 306.3 740.757421875 304.2853515625 739.85 301.45 738.95 298.6 738.45 295.2
M 670.325 304.825
L 670.35 304.85 677.1 300.85 677.1 302.6
Q 677.1 305.35 676.1 306.1 675.6 306.65 674.6 306.85 673.4 307.05 672.2 306.45 671.0654296875 305.907421875 670.35 304.85
M 662.75 308.6
Q 657.113671875 308.22421875 650.675 305.8 651.4791015625 309.604296875 653.65 312.875 655.0748046875 315.0275390625 657.1 316.95 664 323.55 673.8 323.55 679.2294921875 323.55 683.775 321.525
M 678.175 336.05
Q 677.6001953125 336.4541015625 677.1 337.25 676.5 338.45 676.5 340.6 676.5 344.3 677.5 347.75 678.45 351.65 680.75 353.5 682 354.65 683.75 355 685.55 355.3 687 354.5 688.2 353.65 688.85 352.2 689.45 350.75 689.35 349.25 689.35 347.95 688.85 346.25 688.6 345.45 687.75 343.35 687.25 342 686.35 340 685.55 338.2 685.05 337.4 684.2 336 683.1 335.5 681.507421875 334.6365234375 680.475 334.95 679.43828125 335.268359375 679.1 335.45 678.755078125 335.6357421875 678.175 336.05 Z
M 668.45 323.55
Q 664.35 333.8 666.7 344.7 668.95 355.2 676 363.35 682.5 371.1 692.35 376.2 701.4 380.9 712.25 382.85 720.8 384.35 728.8 383.9 737.5 383.4 745 380.6 760.0484375 375.11015625 772.25 360.4 771.8587890625 355.016015625 772.6 350.15 773.9 341.35 778.75 335.5 783.3345703125 329.901953125 791.025 326.925 791.4896484375 325.464453125 791.85 324.05 794.4 314.05 792 303.3
M 737.25 316.475
Q 735.746875 317.25078125 735.25 317.75 734.65 318.65 735.5 320.25 736.5 322.2 737.5 322.5 738.15 322.7 739.5 322.5 741.6 321.75 743.25 320.5 744.85 319.4 744.75 318.25 744.55 317.55 744 317 743.9 316.75 743 315.5 742.05 314.55 741.75 314.5 741.35 314.3 740.9 314.45 740.79921875 314.4947265625 740.725 314.55 740.5640625 314.6505859375 740.4 314.725 740.237109375 314.7953125 739.5 315.25 738.758984375 315.7013671875 737.25 316.475 Z
M 732.1 409
Q 729.3923828125 411.37421875 726.175 413.1 721.75 417.1 720.85 421.75 720.35 424.25 721.85 425.5 722.75 426.2 724.6 426 727.45 425.7 731.5 423.35 734.35 421.8 738.2 419.3 740.394921875 417.9033203125 744.725 415.025 744.459765625 403.1541015625 748 392 748.8 389.35 749.55 387.9 750.60234375 385.69765625 753.075 383.2 755.5423828125 380.7064453125 764.325 380.075 773.1099609375 379.4412109375 776 379.15 773.7958984375 371.1353515625 773 366.5 772.4490234375 363.3716796875 772.25 360.4
M 748.75 388.85
Q 739 388.15 733.6 389.25 724.95 390.75 720.25 396.1 718.95 397.45 718.6 398.85 718.4 399.6 718.6 400.45 718.8 401.3 719.35 401.85 720.9 403.2 723.85 402 723.961328125 401.9615234375 724.075 401.925 728.14140625 400.465234375 731.5 397.35
M 776 379.15
Q 776.7060546875 381.61015625 776.9 382.3 779.7 392.4 783.65 398.2
M 889.6 311.1
Q 884.80546875 309.8966796875 880.15 307.8
M 918.5 385.25
Q 902.45 387.7 890.75 390.95 881.1310546875 393.5912109375 872.9 397.1 868.5005859375 398.9779296875 864.5 401.1 852.817578125 407.206640625 844 415.7 842.848046875 416.8060546875 841.75 417.95 838.7767578125 421.0376953125 836.275 424.3 856.23046875 428.8501953125 873.5 439.825 875.35625 439.8427734375 877.05 439.9 900.3 440.7 917.35 448.1 918.3013671875 448.5453125 919.15 449 930.35 440.7 935.3 436.75 936.2966796875 435.94765625 937.25 435.15 943.8580078125 429.53515625 948.1 423.85 953.75 416.05 955.5 407.1 957.35 397.35 953.85 389.35 951.5 384.2 946.5 379.35 942.95 375.85 936.6 371.25 903.2 347.45 864.5 333.85 834.65 323.45 811.1 323.6 799.2771484375 323.7552734375 791.025 326.925
M 970 329.95
Q 969.1765625 331.11640625 968.2 332.25 960.8 340.8 951.6 338.25 949.6 335.2 953.35 332.45 956.75 330 961.1 329.85 966.1302734375 329.6890625 970 329.95 Z
M 895.75 374.75
Q 888.35 378 882.35 383.85 876.45 389.65 872.9 397.1
M 808.25 352
Q 819.15 367.45 824.15 379.15 830.9 395 829.6 409.1 828.5 420.25 822.6 425.85 818.95 429.4 811.5 432 797.85 436.7 783 436.25 768.15 435.8 754.75 430.35 749.3 428.3 747.25 425.35 744.95 422.35 744.75 415.75 744.737890625 415.381640625 744.725 415.025
M 972.7 428
Q 967.9962890625 429.919921875 962.7 431.3 954.3435546875 433.484375 945.35 434.5 944.1 439.35 944.45 445.4 944.6962890625 449.6376953125 945.975 456.15
M 945.35 434.5
Q 941.357421875 434.9353515625 937.25 435.15
M 919.15 449
Q 925.2232421875 452.3416015625 925.75 456.6 926 459.45 923.75 462.35 922.15 464.4 918.85 466.85 905.45 477.15 891.25 487.75 882.4 494.55 876.7 497.4 868.1 501.65 860.5 501 855.45 500.55 852.85 497.85 850.2 494.65 851.45 489.7 852.55 485.45 855.85 481.5 863.55 472.4 876.4 464.85 884.45 460.15 900.6 453.1
M 965.975 454.15
Q 965.7419921875 452.3875 965.5 450.5
M 835.1 442
Q 846.1048828125 440.94609375 855.075 440.4 865.713671875 439.75625 873.5 439.825
M 829.75 410.25
Q 836.650390625 412.384765625 844 415.7
M 836.275 424.3
Q 830.0634765625 432.4236328125 826.85 441.6 824.85 447.4 825.2 452.4 825.6 458.4 829.5 461.5 831.7 463.25 835.05 464 837.45 464.5 841.35 464.6 859.85 465.35 877.5 463.75
M 855.075 440.4
Q 852.8169921875 445.185546875 852.25 451.8 851.85 456.3 852.25 464.5
M 724.075 401.925
Q 721.2 403.6 719.3 405.95 717.2 408.55 716.85 411.5 716.65 413.1 717.25 414 717.8 414.9 719.35 415.1 721.7 415.4 724.85 413.75 725.517578125 413.4328125 726.175 413.1
M 653.65 312.875
Q 648.83671875 313.7390625 643.1 312.75
M 643.25 271.85
Q 644.95 263.4 649.6 256.5"/>
</defs>

<g transform="matrix( 1, 0, 0, 1, 0,0) ">
<use xlink:href="#Layer2_0_FILL"/>
</g>

<g transform="matrix( 1, 0, 0, 1, 0,0) ">
<use xlink:href="#Layer0_0_FILL"/>

<use xlink:href="#Layer0_0_1_STROKES"/>
</g>
</svg>
