
<svg xmlns="http://www.w3.org/2000/svg" version="1.1" xmlns:xlink="http://www.w3.org/1999/xlink" preserveAspectRatio="none" x="0px" y="0px" width="1280px" height="720px" viewBox="0 0 1280 720">
<defs>
<g id="Layer1_0_FILL">
<path fill="#FFFFFF" stroke="none" d="
M 1280 720
L 1280 0 0 0 0 720 1280 720 Z"/>
</g>

<path id="Layer0_0_1_STROKES" stroke="#000000" stroke-width="1" stroke-linejoin="round" stroke-linecap="round" fill="none" d="
M 873.5 288
Q 877.4 286.9 878.75 282.35 880.05 278 878.1 274.1 876.4 270.7 872.6 268.1 869.7 266.15 865 264.35 847.7 257.95 834.5 262.5 831.8 263.4 827.65 265.55 822.45 268.15 820.85 268.85 812.415625 272.54921875 806.275 271.05 804.953125 272.662109375 803.075 274.925 798.7216796875 280.1546875 794.05 288.35
L 1000.1 288.35
Q 1001.223046875 275.2337890625 992 267.125 982.7751953125 259.015625 963.35 247.625 960.4416015625 245.919921875 957.325 244.275 960.0052734375 253.684375 960.35 265.85 960.6 273.25 959.85 288.1
M 1000.1 288.35
Q 1025.7 290.35 1039.05 292.6 1059.1578125 296.0685546875 1074.225 302.8 1070.531640625 300.1353515625 1066.1 297.8 1058.35 293.75 1042.15 288.6 991.66640625 256.441015625 953.6 238.575 908.5080078125 217.4052734375 873.525 211.4 838.541796875 205.405859375 817.225 205 795.9115234375 204.58671875 769.1 205.1 742.2890625 205.611328125 726.9 207.85 711.5064453125 210.09765625 696.45 214.45 686.35 217.4 674.4 222.7 667.1 225.9 636.95 242.2 608.634765625 257.4611328125 586.225 266.45 585.4880859375 266.7517578125 584.75 267.05 584.13359375 267.29375 583.525 267.525 584.15 267.75 584.75 267.8 585.5 267.8 586.25 267.85 677.847265625 271.8001953125 769.15 287.35
L 769.3 287.275 769.75 287.1
Q 797.75 251.2 831.35 220.75
M 794.05 288.35
Q 792.6951171875 288.3771484375 791.325 288.375 787.45546875 288.4091796875 783.6 288.3
L 783.575 288.35
Q 781.7224609375 291.977734375 778.175 297.025 774.4955078125 302.258984375 773.625 304.8 772.7513671875 307.346875 771.75 311.65 771.05 314.5 770.35 319.6 768.85 374.1 768 401.25 767.6009765625 415.6 766.65 425.275 765.7669921875 434.2365234375 771.4 442.5 831.3935546875 440.646484375 886.25 436.2 901.55 435 909.85 433.45 922.7 431.05 932.1 426.2 943.4 420.25 952.4 409.5 960.7 399.6 966.1 386.8 970.9 375.45 973.7 361.4 976 350.15 976 336.15 979.1 321.4 974.85 307.5 972.5 300.15 968.5 297.6
L 960.6 297.6
Q 959.2 299.4 959.2 302.4 959.2 304.05 959.85 307.75 962.25 319.15 963.25 331.75 963.45 334.05 964.35 335 965.3 335.75 967.25 335.75 971.05 336.1 975.5 335.85
M 1074.225 302.8
Q 1080.5404296875 307.349609375 1084.65 312.85 1089.05 318.75 1091.9 326.95 1094.15 333.45 1095.75 342.5 1099.45 362.95 1098.25 381.8 1097 402.45 1089.9 420 1089.1 422.2 1087.75 422.5 1086.9 422.7 1086.4 421.8 1086.25 421.5 1086.2 421.3 1086.15 420.75 1086.075 420.5 1090.835546875 405.3060546875 1092.3 397.3 1094.8 383.65 1092.75 372.85 1090.25 360.15 1080.9 351.3 1070.9 341.85 1059.1 343.1 1046.343359375 344.468359375 1034.8 358.425 1042.262890625 355.487109375 1047.1 354.5 1054.05 353.05 1059.75 354.5 1068.85 356.65 1075.3 365.8 1080.7 373.55 1083.25 384.6 1087.1951171875 401.59453125 1085.375 419.475 1083.5662109375 437.3669921875 1074.65 452.175 1065.7294921875 466.9802734375 1056.875 470.65 1048.012890625 474.3109375 1040.05 474.675 1039.3900390625 474.705859375 1038.75 474.725
L 1038 475.1 1033.25 475.5
Q 1021.9 475.1 1016.6 474.5 1007.4 473.4 1000.6 470.75 992.45 467.6 986.8 461.65 980.6 455.15 979.35 447.325
L 700.275 471.825
Q 706.34765625 458.385546875 708.4 445.525 710.78671875 430.50234375 710.875 415 710.9654296875 399.496875 704.475 385.725 697.9787109375 371.949609375 688.625 361.075 679.2787109375 350.20546875 657.85 343.75 638.12578125 337.8052734375 617.475 343.45 636.3326171875 341.197265625 654.65 350.95 672.5 360.45 682.85 377.5 692.8 393.75 694.75 414.25 696.6 433.65 691 453.1 684 477.8 668.35 491.85 659.05 500.35 646.1 505.2 634.1 509.75 620.5 510.6 596.85 512.3 574.15 503.55 551.6630859375 494.901171875 535.375 478.15 534.903125 481.63828125 534.35 485.35 447.0603515625 480.32734375 364.1 452.1 351.6 448.4 344.7 445.2 334.35 440.4 328.25 433.6 324.8359375 429.797265625 322.25 424.875 320.15703125 420.9208984375 318.6 416.25 315.9 408.25 314.35 396.5 313.379296875 388.5830078125 313.175 381.775 313.023046875 377.353125 313.2 373.4 313.6078125 363.204296875 316.1 354.65 316.6771484375 352.7025390625 317.35 350.85 321.75 339.05 331.2 328.55 336.4314453125 322.7921875 343 317.625 347.0484375 314.451953125 351.6 311.5 365.85 302.3 384.85 295.5 399.4 290.3 420.6 285.35 501 266.7 583.35 267.6 583.4330078125 267.567578125 583.525 267.525
M 1047.5 375.975
Q 1049.2708984375 376.4298828125 1051.05 377.15 1057.1 379.6 1061.6 384.5 1069.4 393 1072 407.5 1073.65 417.35 1072.2 426.5 1070.65 436.45 1065.6 444 1060.2 452.1 1051.4 456.3 1042.3244140625 460.6642578125 1033.25 458.875 1040.0015625 465.585546875 1048.925 465.05 1062.2537109375 464.24921875 1071.25 449.5 1080.2443359375 434.8001953125 1080.8 413.725 1081.365625 392.649609375 1072.775 379.325 1064.184765625 365.998828125 1053.825 367.4 1046.38046875 368.4068359375 1038.65 375.5 1043.037890625 374.8619140625 1047.5 375.975 1050.25 379.9 1050.5 386.35 1050.65 388.65 1050.45 391.85 1050.3 393.7 1050 397.35 1050 398.75 1050.25 399.35 1050.9 400.5 1052.5 400.75 1054.7 400.9 1056.75 399.25 1058 398.15 1059.6 395.75 1061.45 392.85 1062.1 391.5 1063.3 389.05 1063.35 387
M 1033.25 458.875
Q 1029.908984375 455.563671875 1027.1 450.475 1018.6173828125 435.10390625 1020.1 415.15 1020.3154296875 412.25234375 1020.725 409.5 1021.5201171875 404.2298828125 1023.05 399.475 1026.2103515625 389.612890625 1032.525 382 1035.5693359375 378.324609375 1038.575 375.575 1038.6115234375 375.53515625 1038.65 375.5
M 1023.05 399.475
Q 1027.65 401.9 1032.6 403.6 1035.2 404.45 1036.9 404.55 1039.25 404.7 1040.85 403.6 1042.95 402.2 1043.6 398.75 1044.7 393.5 1042.95 386.95 1041.8 382.8 1038.575 375.575
M 979.35 447.325
L 997.35 445.75
Q 1002.7685546875 425.9966796875 1007.075 412.875 1009.056640625 406.867578125 1010.8 402.25 1019.75 378.65 1031.75 362.35 1033.26171875 360.27578125 1034.8 358.425
M 947.1 288.1
Q 947.75 271.05 947.2 262.3 946.35 248 942.375 237.3 930.1373046875 232.2271484375 915.525 227.975 887.10546875 219.7015625 877.05 219.5 864.25 219.2 854.25 223.35 844.8 227.25 836.4 235.8 830.3015625 242.0046875 822.05 251.975 813.798828125 261.9359375 811.95 264.025 810.0966796875 266.1080078125 808.75 267.9 807.9927734375 268.91875 806.275 271.05
M 769.3 287.275
Q 776.3345703125 288.1439453125 783.575 288.35
M 703 213.1
Q 735.05 210.05 767.35 211.75 799.6 213.5 831.1 220
M 957.325 244.275
Q 957.2392578125 244.230078125 957.15 244.175 950.2615234375 240.5763671875 942.375 237.3
M 966.5 288.6
Q 968.65 292.6 968.5 297
M 665.9 455.2
L 664.75 454.75
Q 655.5 451.1 637 444.1 635 443.35 634 443.15 632.35 442.75 631 443.1 629.25 443.45 627.95 444.75 626.7 446 626.1 447.75 625 450.5 625.25 454.6 625.3 461.55 626.6 470.1 627.35 475.35 629.35 485.35
L 629.55 486.6
Q 642.79140625 482.546875 653.675 472.025 661.554296875 464.4068359375 665.9 455.2 671.19765625 444.0427734375 671.3 430.55 671.49609375 405.94453125 653.35 389.2 635.15 372.4 610.1 373.4 585.05 374.4 569.4 390.6 564.371484375 395.7724609375 561 401.8 573.5 408.35 587.35 412.35 591.9 413.75 594.6 413.6 599 413.45 601.1 410.6 602.45 408.75 602.55 405.85 602.6 403.9 602 400.6
L 597.5 375.5
M 617.475 343.45
Q 617.2947265625 343.4998046875 617.125 343.55 615.4978515625 344.0037109375 613.875 344.525 596.52421875 350.1009765625 584.275 358.675 580.6060546875 361.2447265625 577.4 364.075 563.452734375 376.3869140625 557.55 389.15 556.2775390625 391.900390625 555.075 394.675 558.9517578125 388.9748046875 564.25 383.85 584.1 364.7 612.2 364.7 640.3 364.7 660.15 383.85 680 403.05 680 430.2 680 457.35 660.15 476.5 640.3 495.7 612.2 495.7 584.1 495.7 564.25 476.5 544.4 457.35 544.4 430.2 544.4 426.0021484375 544.875 422 542.405859375 430.4603515625 540.55 440.3 538.65 450.65 536.85 466.25 536.2390625 471.844921875 535.375 478.15
M 1068.1 396.1
Q 1061.55 401.35 1058 408.75 1056.8 410.8 1057.1 412.35 1057.7 414.2 1060.35 415.35 1064 417.05 1072 419.1
M 1070.85 430.6
Q 1065.9 428.35 1060.1 426.35 1058.5 425.9 1058.2 425.85 1057.05 425.6 1056.25 425.85 1055 426.2 1054.2 427.4 1053.45 428.45 1053.25 429.85 1053 431.75 1053.75 435.1 1053.85 435.5 1056.75 452.75
M 1020.725 409.5
Q 1022.65 410.45 1026.2 411.45 1030.2 412.6 1031.75 413.25 1034.7 414.35 1036.65 416.35 1038.9 418.65 1039 421.35 1039.1 424.3 1036.5 428.35 1033.5 433.25 1030.9 435.9 1027.3 439.65 1023.25 440.75
M 1026.5 448.25
Q 1031.2 446.75 1034.85 443.1 1038.5 439.45 1040.1 434.75 1040.65 433.4 1041.05 432.85 1041.7 431.85 1042.6 431.85 1043.65 431.7 1044.6 432.85 1046.15 434.4 1047.1 438 1048.1 442.45 1047.35 448.15 1046.9 451.3 1045.25 458.25
M 1038.75 474.725
Q 1031.685546875 474.84375 1027.075 472.6 1022.046484375 470.152734375 1017.825 466.4 1013.5908203125 462.6466796875 1009.05 449.3 1004.5162109375 435.9533203125 1007.075 412.875
M 343 317.625
Q 345.4 320.75 349.7 322.65 352.55 323.9 357.75 325.1 402.541015625 335.0701171875 448.025 337.225 458.3751953125 332.088671875 473.25 325.575 488.128125 319.0703125 510.175 312.8 532.21171875 306.51875 539.975 305 547.7517578125 303.4806640625 556.55 304.325 565.3419921875 305.1630859375 575.025 306.2 584.703125 307.24609375 592.95 312.5
M 316.1 354.65
L 363.6 367.9 372.95 367.9 372.85 393.725
Q 376.5896484375 394.2533203125 382.05 395.15 389.715625 396.4123046875 392.825 397.325 395.941796875 398.2322265625 399.825 400.5 400.2498046875 400.74453125 400.65 401 402.93984375 402.4400390625 404.55 404.225 406.321484375 406.19765625 407.05 409.725 407.7935546875 413.246484375 407.8 422.8 407.7953125 432.36171875 407.9 435.475 408.00703125 438.580078125 407.6 442.45 407.200390625 446.32109375 404.75 449.175 402.2978515625 452.0451171875 394 450.1 357 442 323.5 425.5
L 322.25 424.875
M 463.875 418.175
Q 462.49296875 431.3072265625 460.35 441.5 458.2064453125 451.6927734375 459.05 451.875 459.8810546875 452.0654296875 462.9 452.15
L 471.15 452.45
Q 473.3091796875 452.670703125 474.775 452.65 476.2416015625 452.6205078125 477.05 452.1 477.8564453125 451.5919921875 478.25 449.3 478.5 447.75 478.35 445.1 477.85 429.15 483.6 414 485.6 409.2 486.5 406.8 488.15 402.65 488.75 399.5 489.3 395.4 487.6 394 486.45 393 484.1 393 477.465234375 392.3365234375 469.925 393.375 465.255859375 405.0462890625 463.875 418.175 Z
M 461.85 377.6
Q 464.85 378.1 468.7 378.25 471.0015625 378.3546875 474.625 378.725 478.2453125 379.0859375 479.125 378.475 480.0046875 377.8640625 481.575 374.75 483.1484375 371.6453125 486 366.25 471.5064453125 365.9025390625 468.4 365.75 465.23984375 371.933984375 461.85 377.6 Z
M 448.025 337.225
Q 437.1548828125 344.695703125 429.5 353.85 457.9271484375 357.17578125 478.35 358.875 498.7736328125 360.5703125 510.575 355.7 522.383984375 350.82109375 531.775 342.275 541.154296875 333.74375 542.5 332.85 564.8 317.95 591.5 313
M 520.6 351
Q 551.55 352.9 581.5 358.1
L 584.275 358.675
M 659.85 397.25
Q 648.85 406.35 643.35 411 637.95 415.45 636 418.85 635 420.7 634.75 422.55 634.45 424.65 635.25 426.25 636 427.65 637.7 428.8 638.7 429.45 640.85 430.5 654.55 436.45 669.75 440.85
M 610.85 373.75
Q 611.5 387.75 613.75 399.1 614.4 403.6 616.25 405.75 618.05 408 621.2 408.65 624.15 409.25 627.1 408.25 631.4 406.95 636.85 401.85 645.85 393.85 650 387.35
M 556.25 416.5
L 582.75 424.75
Q 585.95 425.75 587.5 426.55 589.95 427.85 591.1 429.85 592.3 431.85 592.1 434.5 591.85 436.95 590.5 439.1 589.35 441 587.35 442.9 586.35 443.8 583.6 446
L 563.6 461.75
M 629.55 486.6
Q 622.8509765625 488.6365234375 615.55 489.025 614.147265625 489.1107421875 612.725 489.125 589.804296875 489.3416015625 572.8 473.3 572.358984375 472.8984375 571.925 472.475 554.64609375 455.6029296875 554.2 431.2 553.86015625 414.580859375 561 401.8
M 572.8 473.3
Q 581.2275390625 466.2234375 591.25 456.6 593.9 454.15 594.7 453.45 596.75 451.75 598.6 450.85 600.95 449.85 603.25 449.85 605.85 449.9 607.75 451.25 610.45 453.25 611.75 459.25 613.05 465.5 614.05 473.65 614.55 477.85 615.5 488.1
L 615.55 489.025
M 555.075 394.675
Q 550.668359375 404.728125 547.1 415 545.93125 418.3712890625 544.875 422
M 313.175 381.775
L 365.55 398.65 372.85 393.725"/>
</defs>

<g transform="matrix( 1, 0, 0, 1, 0,0) ">
<use xlink:href="#Layer1_0_FILL"/>
</g>

<g transform="matrix( 1, 0, 0, 1, 0,0) ">
<use xlink:href="#Layer0_0_1_STROKES"/>
</g>
</svg>
