
<svg xmlns="http://www.w3.org/2000/svg" version="1.1" xmlns:xlink="http://www.w3.org/1999/xlink" preserveAspectRatio="none" x="0px" y="0px" width="1280px" height="720px" viewBox="0 0 1280 720">
<defs>
<g id="Layer2_0_FILL">
<path fill="#FFFFFF" stroke="none" d="
M 1280 720
L 1280 0 0 0 0 720 1280 720 Z"/>
</g>

<g id="Layer0_0_FILL">
<path fill="#000000" stroke="none" d="
M 476.65 355.7
Q 476.81328125 355.79140625 476.95 355.85 481.2697265625 357.4095703125 486.2 357.45 486.75 356.7328125 486.75 355.85 486.75 354.4 485.25 353.35 483.8 352.35 481.7 352.35 479.6 352.35 478.1 353.35 476.71015625 354.3564453125 476.65 355.7
M 441.8 356.55
Q 440.25 355.4 438.1 355.4 435.95 355.4 434.4 356.55 432.85 357.7 432.85 359.3 432.85 359.3689453125 432.85 359.4 435.9208984375 360.2 439.3 360.2 440.8056640625 360.2 442.25 360.05 442.7513671875 359.503125 443.35 359.05 443.2232421875 357.6060546875 441.8 356.55 Z"/>
</g>

<path id="Layer0_0_1_STROKES" stroke="#000000" stroke-width="1" stroke-linejoin="round" stroke-linecap="round" fill="none" d="
M 403.1 346.1
Q 410.3701171875 347.138671875 416.625 346.6 413.7 341.205078125 413.7 334.6 413.7 331.1083984375 414.525 327.95 401.75 303.1 397.95 289.25 392.05 267.95 397 251.1 402.4 232.85 420.3 219 435.25 207.4 457.25 200.1 476.7994140625 193.659375 495.025 192.2 495.2333984375 192.1916015625 495.45 192.175 501.06875 191.7533203125 506.55 191.8 514.3294921875 191.8578125 521.55 192.875 528.5767578125 193.871875 535.075 195.775 535.9857421875 196.0427734375 536.875 196.325 551.7181640625 187.2482421875 566.75 185.85 570.15 185.55 572.65 186.3 575.8 187.2 576.75 189.6 577.65 191.85 576.4 194.3 575.25 196.55 573 197.75 571.5759765625 198.4802734375 569.7 198.8 571.2466796875 198.9326171875 572.75 199.25 577.25 199.9 578.75 202.5 579.9 204.7 578.7 207.25 577.55 209.7 575.1 210.85 573.05 211.8 570.15 211.75 568.35 211.75 564.8 211.5 574.4978515625 219.5583984375 582.35 230.85 593.3 246.7 599.35 266.85 604.5 284 606.6 306 608.05 320.55 608.6 345.85 609.25 372.4 612.65 386.95 617.8 409.3 631.35 421.25 634.9 424.3 645.05 430.75 654 436.45 658.25 440.85 664.85 447.5 667.4 457.1 669.8 466.2 668.1 475.95 666.4 485.7 661.1 493.45 655.5828125 501.5779296875 647.35 505.625 647.3802734375 505.6521484375 647.4 505.675 647.4712890625 505.7392578125 647.55 505.8 647.386328125 505.7900390625 647.275 505.725
L 647.3 505.75
Q 652.85625 509.047265625 656.875 517.2 660.890234375 525.35 656.175 532.15 651.4583984375 538.95078125 636.325 546.425 621.1970703125 553.899609375 599.25 555.8 577.35 557.7 555.875 549.425 555.4322265625 549.847265625 555 550.25 554.3720703125 550.8529296875 553.75 551.4 552.898046875 552.1482421875 552.05 552.85 549.35 557.15 545.15 560.2 542.9927734375 561.7921875 540.675 562.975 538.458984375 564.09609375 536.1 564.85 531.4 566.45 526.1 566.4 520.9720703125 566.3501953125 516.15 564.775 513.712890625 565.5294921875 510.6 566.3 502 568.4 499.75 572.85 498.55 575.05 498.55 578.1 498.55 580.3 499.25 583.6 504.05 610.4 515.1 634.25 516.6 637.55 517.05 639.4 517.8 642.35 516.85 644.6 516.1 646.75 513.85 648.3 512.3 649.45 509.35 650.6 493.15 657.55 475.15 658.8 457.2 660.1 440.1 655.6 433.95 654.05 432.5 650.75 432.4263671875 650.580859375 432.375 650.4 418.6859375 654.3494140625 408.05 653.9 397.35 653.45 387.6 649.6 381.7 647 381 643.6 379.9 638.95 386.75 634.5 393.3888671875 630.130859375 400.825 627.45 406.507421875 625.409765625 412.65 624.35 426.9 621.85 440.5 625.1
L 434.15 597.65 430.75 583
Q 428.95 574.95 428.5 571.25 427.65 564.6 428.75 559.35
M 471.5 301.1
Q 472 303.05 473.85 304.7 474.0662109375 304.8841796875 474.3 305.075 475.5845703125 306.0501953125 477.6 307.1 485.1 310.75 493.55 311.85 500.4810546875 312.7576171875 507.25 311.825 508.6748046875 311.6298828125 510.1 311.35
M 432.85 359.425
Q 432.321875 359.3048828125 431.8 359.15 425.8953125 357.3953125 421.2 352.7 419.4908203125 350.9908203125 418.175 349.125 417.7951171875 348.5953125 417.45 348.05 416.6759765625 349.383203125 415.95 350.725 408.692578125 364.3369140625 407.6 378.45 406.25 395.8 415.1 407.75 425.0662109375 421.0939453125 446.325 425.75 450.56875 426.6689453125 455.25 427.25 457.4408203125 427.5083984375 459.625 427.675 472.453515625 428.7236328125 485.325 427.025 496.88984375 425.512109375 508.5 421.775 513.8166015625 420.0765625 519.15 417.9 521.787109375 416.825390625 524.375 415.675 525.36796875 415.226171875 526.35 414.775 534.6861328125 410.85625 542.425 406.025 545.882421875 403.8533203125 549.225 401.5 555.710546875 378.4470703125 564.85 355.25 565.7 353.35 566.75 353.5 567.3 353.6 568.1 354.5 576.3853515625 365.709375 580.5 371.85 582.825 368.7736328125 584.6 365.85 589.95 357.05 591.25 348.5 592.8 338.75 588.75 329.85 584.45 320.5 576 317.1 567.05 313.6 558.05 319.5 548.95 325.5 550.25 334.75 527.75 319.6 512.35 296.25 496.95 272.95 490.85 246.25 484.8 265.35 473 281.95 461.5642578125 298.0572265625 446.1 309.85 452.431640625 311.531640625 457.4 316.5 459.1884765625 318.2884765625 460.55 320.25 462.544921875 314.8326171875 466.95 310.4 470.3408203125 307.0302734375 474.3 305.075
M 463 344.475
L 463 344.5
Q 462.9701171875 344.5712890625 462.95 344.65 463.0453125 344.67109375 463.15 344.7 463.0697265625 344.5837890625 463 344.475 458.9 338.040625 458.9 329.9 458.9 324.73828125 460.55 320.25
M 463 344.5
Q 462.875390625 344.5513671875 462.75 344.6 462.84453125 344.6212890625 462.95 344.65 461.0583984375 349.0416015625 457.4 352.7 455.149609375 354.950390625 452.625 356.525 452.9822265625 356.5556640625 453.35 356.6 457.35 357.25 462.35 359.6
M 446.1 309.85
Q 443.7591796875 309.232421875 441.225 309.075 437.9619140625 311.993359375 433.6 314.1 427.6279296875 317.065234375 419.525 318.325 415.8765625 322.666015625 414.525 327.95
M 419.525 318.325
Q 417.93046875 318.56875 416.25 318.75
M 432.85 359.425
Q 432.85 359.3689453125 432.85 359.3 432.85 357.7 434.4 356.55 435.95 355.4 438.1 355.4 440.25 355.4 441.8 356.55 443.2232421875 357.6060546875 443.35 359.05 443.8162109375 358.6677734375 444.35 358.35 447.7048828125 356.1134765625 452.625 356.525
M 443.35 359.05
Q 442.7513671875 359.503125 442.25 360.05 441.5685546875 360.792578125 441.05 361.7 439.8 363.8 439.85 366.1 440.05 369.35 442.7 371.9 445.15 374.3 448.6 375.1 452.15 376.05 455.9 375.35 459.6 374.7 462.75 372.6
M 442.25 360.05
Q 440.8056640625 360.2 439.3 360.2 435.9208984375 360.2 432.85 359.425
M 417.45 348.05
Q 417.3103515625 347.8283203125 417.175 347.6 416.8814453125 347.1111328125 416.625 346.6
M 427.2 374
Q 427.2 378.3 424.95 381.3 422.7 384.35 419.55 384.35 416.4 384.35 414.15 381.3 411.9 378.3 411.9 374 411.9 369.7 414.15 366.65 416.4 363.65 419.55 363.65 422.7 363.65 424.95 366.65 427.2 369.7 427.2 374 Z
M 406.1 354.75
Q 411.491015625 353.6556640625 415.95 350.725
M 417.175 347.6
Q 428 351.45 439.8 350.3 451.47109375 349.212109375 462.75 344.6
M 486.2 357.45
Q 481.2697265625 357.4095703125 476.975 355.85 476.81328125 355.79140625 476.65 355.725 471.316796875 353.716796875 466.95 349.35 465.612109375 348.012109375 464.5 346.575 463.7720703125 345.655859375 463.15 344.7 475.39609375 347.3779296875 488.05 345.95 500.9 344.5 512.5 339.05 512.5662109375 338.87734375 512.625 338.7 514 334.5884765625 514 329.9 514 319.4869140625 507.25 311.825
M 476.65 355.725
Q 476.71015625 354.3564453125 478.1 353.35 479.6 352.35 481.7 352.35 483.8 352.35 485.25 353.35 486.75 354.4 486.75 355.85 486.75 356.7328125 486.2 357.45 486.3216796875 357.45 486.45 357.45 497.85 357.45 505.9 349.35 507.6375 347.6232421875 509 345.75 507.4751953125 345.183203125 506.25 344.35 504.85 343.4 504.75 342.6
M 454.75 384.1
Q 452.05 381 448 380.6 443.9 380.45 440.75 382.85
M 446.75 302.25
Q 444.5560546875 306.0830078125 441.225 309.075
M 536.875 196.325
Q 545.8255859375 199.1630859375 553.75 203.75 559.5423828125 207.1552734375 564.8 211.5
M 495.45 192.175
Q 512.0408203125 198.694921875 525.75 212.7 538.55 225.8 547.1 243.5 554.7 259.25 559.2 278.95 562.85 295.15 564.85 316.1
M 521.55 192.875
Q 534.7705078125 202.76953125 545.35 217.1 555.55 231.05 562.5 248.1 568.85 263.55 572.7 282 575.95 297.85 577.6 317.1
M 512.5 339.05
Q 511.2671875 342.6107421875 509 345.75 510.587890625 346.31953125 512.5 346.6 514.95 347 519.35 347
M 512.75 339.1
Q 518.6 340.25 524.1 337.5
M 525.5 370.05
Q 525.5 376.05 521.25 380.25 517.05 384.5 511.05 384.5 505.05 384.5 500.8 380.25 496.6 376.05 496.6 370.05 496.6 364.05 500.8 359.8 505.05 355.6 511.05 355.6 517.05 355.6 521.25 359.8 525.5 364.05 525.5 370.05 Z
M 549.225 401.5
Q 548.452734375 404.2435546875 547.725 407 547.544921875 407.6330078125 547.375 408.275 547.359765625 408.31171875 547.35 408.35 546.9865234375 409.241796875 546.9 410.05 546.7 411.85 548 412.5 549.05 413.15 551 412.35 563.75 408.5 589.35 400.6 592.1 399.65 592.85 398.5 593.8 396.9 592.5 393.6 588.6 384.15 581.5 373.35 581.0388671875 372.6439453125 580.5 371.85
M 569.7 198.8
Q 566.612890625 198.5671875 563.05 198.65
M 542.425 406.025
Q 543.73125 411.283203125 543 416.5
M 555.875 549.425
Q 560.4423828125 545.00078125 565.85 538.1 570.8181640625 531.900390625 573.8 527.075 574.3328125 526.2138671875 574.8 525.4 576.009765625 523.25390625 576.95 521.15 579.316796875 515.948046875 580.1 511 581.1 503.85 579.15 495.2 577.85 489.4 574.25 479.85
L 557.1 432.5
Q 554.45 425.35 551 421.35 546.4 416.05 541 417 536.45 417.7 533.55 422.6 531.25 426.5 530.25 432.5 529.6392578125 435.9068359375 529.25 439.35 528.203515625 448.5923828125 528.75 458.1 529 461.95 529.55 469.65 529.8 476.3 528.5 481.1 525.5 492.35 510.25 504.25 501.8 510.6 497.75 513.95 490.75 519.75 486.8 525.125 498.4314453125 529.7205078125 504.5 533.75 507.23984375 535.742578125 507.975 537.6 516.3 544.95 524.85 551 526.75 552.3 527.7 553.3 529.1 554.75 529.35 556.35 529.483203125 557.1966796875 528.875 558 528.2625 558.80234375 526.875 558.6 525.495703125 558.3990234375 523.75 557.75 521.75 557 520.75 556.6
L 498.6 548
M 526.35 414.775
Q 528.69921875 428.1068359375 527.375 441.125 528.2787109375 440.268359375 529.25 439.35
M 485.325 427.025
Q 484.8208984375 431.53046875 485.85 435.5 490.4611328125 435.502734375 495 434.6 498.28203125 433.9689453125 501.4 432.875 505.0173828125 431.6126953125 508.425 429.725 508.251953125 426.4625 508.5 421.775
M 501.4 432.875
Q 502.4703125 435.503125 502.75 439 503 441.55 502.85 445.75 502.85 452.7931640625 502.7 459.325 504.40625 458.627734375 506.1 457.75 511.85 454.75 518.1 449.5 521.3978515625 446.7228515625 527.375 441.125
M 508.425 429.725
Q 510.241796875 428.7294921875 512 427.55 519.394921875 422.66640625 524.375 415.675
M 509.2 466.675
Q 510.1015625 465.97578125 510.85 465.1 511.5 464.5 512.5 463 513.4 461.4 513.6 460.8 511.283203125 459.5 508.45 459.5 506.077734375 459.5 504.05 460.425 507.1244140625 463.195703125 509.2 466.675 510.2126953125 468.3802734375 511 470.275 514.8423828125 468.59921875 518.85 468
M 513.6 460.8
Q 515.1392578125 461.6701171875 516.45 463.1 519.75 466.75 519.75 471.85 519.75 473.0994140625 519.55 474.25 518.9416015625 477.8318359375 516.45 480.55 513.15 484.2 508.45 484.2 505.826953125 484.2 503.65 483.075 501.9083984375 482.1630859375 500.45 480.55 497.15 476.95 497.15 471.85 497.15 470.1669921875 497.5 468.65 498.2388671875 465.5455078125 500.45 463.1 502.084375 461.3169921875 504.05 460.425
M 497.5 468.65
Q 501.1265625 469.5837890625 504.6 468.85 507.2580078125 468.168359375 509.2 466.675
M 485.85 435.5
Q 481.2607421875 435.472265625 476.6 434.55 472.730859375 433.78046875 469.125 432.45 468 433.1 467.4 434.4 466.85 435.6 466.85 437 466.85 438.75 468.1 442.1 470.1 447.5 474.225 458.05 476.161328125 459.275390625 478.1 460.1 484.5 462.9 492.2 462.1 497.5068359375 461.4978515625 502.7 459.325
M 468.75 511
Q 469.4328125 497.90625 468.6 485.1 468.572265625 484.7751953125 468.55 484.45 463.4978515625 493.01484375 460.95 503.05 469.5669921875 512.9666015625 478.825 521.775 480 522.25 481.05 521.35 482.1 520.5 482 519.25 482 518.3 481.4 517.15 480.65 515.8 480.25 515.1 478.05 511.55 478.85 508.6 479.25 506.85 480.7 505.75 482.197265625 504.654296875 483.75 504.9 485.308203125 505.137109375 486.25 505.7 487.1890625 506.2671875 488.55 508.7 490.45 511.95 493 511.6 494.15 511.4 495.05 510.4 495.85 509.45 496.25 508.1 496.39609375 507.4943359375 496.45 505.725 496.5115234375 503.966796875 496.625 502.575 496.73828125 501.1830078125 499.025 498.425 501.3037109375 495.65546875 501.5 495.25 502.6 493 502.45 490.7 502.2 488.15 500.35 487.1 498.65 486 495.9 486.75 492.7 487.95 491.1 488.35 489.35 488.85 486.725 489.025 484.1 489.2 480.825 489.375 477.55 489.55 474.55 489.05 471.5716796875 488.5537109375 468.6 485.1
M 494.5 487.6
Q 493.45 488.9 493.5 490.65 493.55 492.4 494.6 493.6 495.5 494.85 497.1 495.6 498.6 496.25 500.25 496.25
M 496.8 472.5
Q 492.5 475.05 489 479.8 486.85 482.75 483.5 488.85
M 498.5 478.5
L 492.75 487.6
M 499.75 478.1
Q 503.55 474.1 508.45 471.5 509.7169921875 470.82265625 511 470.275 511.051953125 470.38203125 511.1 470.5 511.9490234375 472.5693359375 512.475 474.7 513.675 474.0033203125 515 473.6 517.7 472.95 519.55 474.25
M 512.475 474.7
Q 513.4115234375 478.5609375 513.25 482.6
M 503.65 483.075
Q 506.9 478.75 510.75 475.85 511.5765625 475.19296875 512.475 474.7
M 496.5 501.6
Q 495.55 501.25 493.5 501.75 491.58125 502.303515625 490.375 502.775 490.4212890625 502.9998046875 490.6 503.25
L 491 504.1
Q 491 504.35 491.25 504.75 491.4 505.15 491.75 505.5 491.75 505.6 492.35 506.5
M 486.5 505.5
Q 487.55 504.05 489.6 503.1 489.940625 502.9427734375 490.375 502.775
M 480 523
Q 472.95 525.8 463.15 535.6 460.063671875 538.7009765625 457.4 541.15 469.6314453125 544.0576171875 482.25 546.25 486.55 547 488.5 547 490.5 547 491.1 546 491.5298828125 545.2064453125 491.25 544.3 491.088671875 543.841015625 490.75 543.35 489.3 540.8 486.85 539.1 484.35 537.35 481.5 537
M 491.25 544.3
Q 493.45 544.15 494.1 542.75 494.874609375 541.6849609375 494.15 539.625 494.125390625 539.568359375 494.1 539.5 492.8 536.2 490.85 534.25 488.4 532 485.25 531.6
M 494.15 539.625
Q 495.25 539.95 496.3 539.25 497.3 538.5 497.5 537.35 497.8 535.55 496.25 533.25 493.5 528.85 488.6 526.45 483.9462890625 524.19375 480 522.6 479.8919921875 522.556640625 479.775 522.525 479.641796875 522.4564453125 479.5 522.4 479.1677734375 522.08671875 478.825 521.775
M 507.975 537.6
Q 508.27890625 538.3646484375 508.25 539.1 508.05 541.65 504.6 543.85 503.05 544.85 499.8 546.8 497 548.6 495.6 550.5 495.519140625 550.596875 495.425 550.725 497.0927734375 551.5861328125 498.675 552.375 498.801171875 552.4373046875 498.925 552.5 509.240625 557.576171875 516.45 559.6 523.7845703125 561.6572265625 530.25 561.45 534.6236328125 561.2908203125 538.6 560.1 545.4578125 558.1533203125 552.05 552.85
M 516.15 564.775
Q 521.59375 563.044921875 523.6 561.35
M 482.05 546.625
L 481.675 549.75 481.6 550.35
Q 481.5642578125 550.519921875 481.525 550.675 481.444140625 550.930078125 481.325 551.15 481.3736328125 551.5916015625 481.4 552.25 481.4 553.4 481.425 554.325 481.45 555.25 482.2 556.05 482.8103515625 556.7009765625 483.575 556.85 483.763671875 556.890625 483.95 556.9 484.95 556.95 485.5 556.6 485.95 556.3 486.25 555.25 486.3712890625 554.6431640625 486.425 554.3 486.3703125 554.0935546875 486.325 553.875 486.2984375 553.7302734375 486.275 553.575 486.2111328125 553.0404296875 486.275 552.5 486.2986328125 552.246875 486.35 552 486.75 550.5 488.8 547.5
M 483.575 556.85
Q 476.3923828125 559.6494140625 468.5 558.95 462.8560546875 558.453125 457.925 556.3 451.7333984375 559.48515625 449.25 564.75 447.75 567.85 447.6 572.15 447.5 575 448.1 580 449.1845703125 588.028515625 450.95 595.95 454.646875 612.512890625 461.325 628.625 462.3560546875 628.275 463.4 627.95 476.1 624.05 489.35 623.35 489.346484375 623.300390625 489.35 623.25 488.9322265625 617.533984375 486.9 609.95 485.21015625 604.40234375 484.1 600.6 483.4529296875 598.4443359375 483 596.85 480.7 589.25 480 583.45 479.15 576.1 480.6 570 482.3 563.1 487.2 558.15 488.0818359375 557.242578125 489 556.475 488.38203125 556.429296875 487.85 556.1 486.9 555.55 486.45 554.35 486.441796875 554.323046875 486.425 554.3
M 498.675 552.375
Q 495.96328125 552.6083984375 493.475 553.675 492.9798828125 554.4384765625 492.6 554.85 491.55 555.9 490.3 556.3 489.609375 556.5220703125 489 556.475
M 495.425 550.725
Q 494.9384765625 551.35859375 494.1 552.7 493.7697265625 553.250390625 493.475 553.675
M 530.25 561.45
Q 535.65 562.7 540.675 562.975
M 647.3 505.75
Q 645.64765625 506.2298828125 645.55 506.25 639.60625 507.959375 633.15 507.65 624.85 507.3 617.6 503.75 613.4 501.65 613.85 499 614.05 497 616.35 496.1 617.75 495.5 620.25 495.75 626.75 496.25 634.3 499.35 638.6431640625 501.176171875 647.275 505.725 647.3427734375 505.7025390625 647.4 505.675
M 573.8 527.075
Q 578.45 527.05 583.6 525.65 587.6 524.55 592.85 522.35 594.9 521.65 595.35 520.35 595.7 518.75 594.1 517.6 593.1 517.1 591 517.1 585.126171875 517.2974609375 576.95 521.15
M 446.325 425.75
Q 446.2443359375 427.69296875 447.4 429.85 448.35 431.6 450.85 434.5
L 462 446.75
Q 462.3529296875 447.1400390625 462.7 447.525 466.946875 452.174609375 469.4 454.35 471.811328125 456.51171875 474.225 458.05
M 459.625 427.675
Q 464.125390625 430.60078125 469.125 432.45
M 480.75 496.8
Q 480.75 498.6 479.5 499.85 478.25 501.1 476.45 501.1 474.65 501.1 473.4 499.85 472.15 498.6 472.15 496.8 472.15 495 473.4 493.75 474.65 492.5 476.45 492.5 478.25 492.5 479.5 493.75 480.75 495 480.75 496.8 Z
M 462.7 447.525
Q 467.258203125 465.6841796875 468.55 484.45
M 454.35 438.85
Q 443.6 459.1 428.85 477.25 416.9 491.7 413.65 496.75 406.25 508.45 406.25 519.1 406.25 524.7 408.35 531.4 409.6 535.45 412.85 543.25 415.35 548.85 417.1 551.5 419.9 555.75 423.5 557.6 426.75 559.25 431.2 559.2 432.540625 559.1796875 434.125 559 436.4296875 558.7234375 439.25 558.1 457.25 554.15 473.15 544.875
M 457.4 541.15
Q 450.8904296875 547.1234375 446.85 549.25 440.7 552.45 440.05 552.9 436.45 555.35 435.75 558.5
M 481.675 549.75
Q 481.538671875 550.2177734375 481.525 550.675
M 476.25 545.525
Q 476.2626953125 546.1505859375 476.35 546.5 476.35 548.7 477 550 477.4 550.85 478.15 551.45 478.9 552.05 479.75 552.1 480.5 552.1 480.85 551.75 481.13828125 551.5140625 481.325 551.15
M 454 554.25
Q 455.9 555.4103515625 457.925 556.3
M 452.5 492.85
Q 456.646875 498.0931640625 460.95 503.05
M 461.325 628.625
Q 454.4400390625 630.914453125 448.025 634.05 447.9560546875 635.6869140625 449.15 637.35 450.3 638.95 452.35 640.25 457.5 643.4 465.3 643.95 470 644.25 479.25 643.5 491 642.4 497.45 640.85 507.3 638.45 514.1 633.5
M 448.025 634.05
Q 444.6505859375 635.723046875 441.4 637.625 440.3724609375 638.2201171875 439.35 638.85 435.6 641.2 433.6 644.1 431.28359375 647.45625 432.375 650.4
M 400.825 627.45
Q 400 629.25 399.8 630.3 399.45 631.95 400.1 633.1 400.95 634.4 403.6 635.1 407.5 636.05 413.35 636.75 427.65 638.1 441.4 637.625
M 434.15 597.65
Q 442.9 598.6 450.95 595.95
M 489.35 623.25
Q 494.1 624.2 497.75 627.25
M 484.1 600.6
Q 493 601.95 501.6 597.35"/>

<path id="Layer0_0_2_STROKES" stroke="#000000" stroke-width="0.9" stroke-linejoin="round" stroke-linecap="round" fill="none" d="
M 476.55 496.75
Q 476.55 496.95 476.4 497.05 476.3 497.2 476.1 497.2 475.9 497.2 475.75 497.05 475.65 496.95 475.65 496.75 475.65 496.55 475.75 496.4 475.9 496.3 476.1 496.3 476.3 496.3 476.4 496.4 476.55 496.55 476.55 496.75 Z"/>
</defs>

<g transform="matrix( 1, 0, 0, 1, 0,0) ">
<use xlink:href="#Layer2_0_FILL"/>
</g>

<g transform="matrix( 1, 0, 0, 1, 0,0) ">
<use xlink:href="#Layer0_0_FILL"/>

<use xlink:href="#Layer0_0_1_STROKES"/>

<use xlink:href="#Layer0_0_2_STROKES"/>
</g>
</svg>
