
<svg xmlns="http://www.w3.org/2000/svg" version="1.1" xmlns:xlink="http://www.w3.org/1999/xlink" preserveAspectRatio="none" x="0px" y="0px" width="1280px" height="720px" viewBox="0 0 1280 720">
<defs>
<g id="Layer2_0_FILL">
<path fill="#FFFFFF" stroke="none" d="
M 1280 720
L 1280 0 0 0 0 720 1280 720 Z"/>
</g>

<path id="Layer0_0_1_STROKES" stroke="#000000" stroke-width="1" stroke-linejoin="round" stroke-linecap="round" fill="none" d="
M 1280.25 102.85
Q 1269.881640625 106.9427734375 1260.825 113.775 1272.676953125 127.8021484375 1283.3 143.95
M 1260.825 113.775
Q 1259.9369140625 114.444140625 1259.05 115.15 1249.3 122.95 1242.25 133.1
M 1122 -0.75
Q 1115.490234375 9.5890625 1109.925 21.525 1119.1392578125 23.5 1128.35 26.35 1172.3525390625 39.9986328125 1212.65 68.9 1238.8427734375 87.6896484375 1260.825 113.775
M 1103.75 40.6
Q 1103.9 37.1 1105.2 33 1106.05 30.45 1108 25.75 1108.946484375 23.6111328125 1109.925 21.525 1095.780859375 18.48515625 1081.625 17.5 1078.3662109375 30.0068359375 1078.6 43.25
M 939.1 25.1
Q 942.6 37.4 949.95 48.1 952.5505859375 51.9119140625 955.525 55.35 986.06796875 29.0259765625 1030.55 20.6 1056.11171875 15.7224609375 1081.625 17.5 1083.9298828125 8.6138671875 1088 0.1
M 967.5 66.5
Q 960.9015625 61.5431640625 955.525 55.35 950.3638671875 59.791015625 945.6 64.75 928.75 82.3 914.7 109.35 905.95 126.15 893.5 161.1 911.4876953125 158.657421875 930.2 163.1 927.95 158.3 927.3 155.2 926.35 150.85 928.35 148 930.3525390625 145.252734375 933.875 143.8 937.3935546875 142.341015625 946.2 145.9 955.0021484375 149.4578125 966.225 162.125 977.45078125 174.7955078125 981.775 182.475 986.09921875 190.1509765625 992.1 201.5 1010.462890625 235.8666015625 1034.125 266.425 1036.196875 267.35859375 1038.2 268.4
L 1038.175 268.4
Q 1105.278125 306.648828125 1162.85 359 1173.6875 368.853125 1184.125 379.05 1197.5966796875 356.9462890625 1223.15 324.675 1213.88515625 318.0541015625 1203.75 312.6
M 915.1 243.5
Q 905.13125 246.210546875 897.775 247.8 896.121875 248.716015625 894.75 249.85 890.3 253.4 889.35 259.15 888.35 265.25 892.25 268.85 894.8 271.25 899.05 271.8 902.2 272.2 906.85 271.6 919.1 270.35 940.85 265.85 964.5 260.95 974.75 259.6 1009.0431640625 255.080078125 1034.125 266.425
M 1017.6 301.25
Q 1023.5857421875 322.6154296875 1038.85 339.525 1041.0529296875 341.953515625 1043.45 344.3 1054.7826171875 355.3642578125 1068.125 362.1 1077.1525390625 366.6673828125 1085.15 370
M 958.5 273.6
Q 941.7396484375 281.601171875 923.075 283.525 938.99609375 288.330859375 951.75 300.45 969.5333984375 317.390625 972.325 340.2 987.7228515625 333.05 1006.35 333.05 1024.07109375 333.05 1038.85 339.525
M 1280.425 250.225
Q 1270.5408203125 265.12578125 1256.2 283.5 1251.1 290.05 1230.3 315.75 1226.6154296875 320.3083984375 1223.15 324.675 1235.466796875 333.48125 1246.25 344.35
M 893.5 161.1
Q 891.4453125 161.380859375 889.4 161.75 869.5 165.35 852.85 176 841.45 183.35 834.8 192.9 827.1 203.95 827.85 215.35 828.55 228.05 839.35 237.85 847.66171875 245.4173828125 858.475 248.425 860.73046875 249.067578125 863.1 249.5 870.5904296875 250.8619140625 879.35 250.425 884.0861328125 250.1732421875 889.2 249.4 892.9181640625 248.843359375 897.775 247.8
M 747.65 62.75
Q 791.3 65.85 833.3 78.05 875.3 90.25 913.6 110.5
M 715.85 118.1
L 715.825 118.075
Q 708.6810546875 110.8580078125 699.95 105.6 690.85 100.15 680.85 97.25 666.95 93.2 655.35 95.25 648.7 96.5 643.25 99.65 637.4 103.05 633.3 108.55
L 614.7 160.1
Q 639.3896484375 150.0328125 667 154.8 694.475 159.49453125 714.35 178.2
L 715.85 118.1
Q 722.61015625 113.5025390625 727.55 108.55 747.1 89.05 747.1 61.45 747.1 33.85 727.55 14.3 708.05 -5.2 680.45 -5.2 652.85 -5.2 633.3 14.3 613.8 33.85 613.8 61.45 613.8 89.05 633.3 108.55
M 577.85 455.75
Q 599.45 457.05 620.25 463.6 625.05 465.1 628.2 466.6 632.35 468.6 635.1 471.35 638.2 474.5 639.15 478.7 640.25 483.2 638.25 486.75 634.855078125 492.605078125 623.725 493.95 624.5181640625 494.7716796875 625.2 495.65 628.7 500.15 627 504.35 625.55 507.7 621.2 509.2 618.1 510.25 612.85 510.5 564.8109375 512.634375 517.75 520.975 514.95 558.1 501.75 600 498.6 609.7 494.25 615.4 488.5 622.9 481 623 473.15 623 467.45 614.9 462.85 608.35 460.6 598.35 455.85 575.95 455.6 550.5 455.5185546875 542.3685546875 455.975 534.675 457.2412109375 514.0748046875 462.45 496.7 470.9 468.55 489.1 451.225 467.159765625 455.8048828125 445.75 461.25 427.6564453125 465.841015625 409.75 471.45 355.1 488.6 304.25 514.6 285.85 523.95 274.35 531.85 258.8 542.55 249.1 554.75 237.95 569 234.4 585.8 230.6 603.95 237.25 619 240.375390625 626.1337890625 245.725 632.3 252.1669921875 639.732421875 261.85 645.75 275.6 654.3 296.85 660.35 344.65 674.1 394.6 674.5 416.7 674.6 433.15 671.5 453.7458984375 667.5939453125 469.85 658.5 485.9619140625 649.4193359375 497.4 633.225 508.8373046875 617.0244140625 514.8 598.7 520.7552734375 580.37109375 524.225 563.325 527.5705078125 546.9001953125 530.8 518.8 589.7 518.05 649.15 521.55 708.3 525 767.875 538.8 763.10625 529.108984375 759.45 518.8 746.15 481.5 750.5 444.75 754.2 413.35 772.1 389.45 776.7341796875 383.2669921875 781.9 378.475 746.20546875 364.435546875 707.6 362.625
L 706.725 386.45
Q 706.743359375 386.802734375 706.75 387.15 706.758984375 390.8541015625 704.85 394 702.8 397.2 698.65 399.4 695.6 400.95 690.6 402.35 668.75 408.1 644.35 406.8 621.55 405.55 598.35 398.35 571.35 389.95 556.25 376 551.667578125 371.78046875 549.175 367.4 528.35 369.05 510.2 378.225 501.500390625 414.219921875 493.1 450.7 508.3869140625 447.674609375 521.1 444.6 529.85 441 538.55 430.45 540.3 428.3 545.75 421.15 550.2 415.3 553.1 412.1 558.3 406.45 562.85 404.5 565.9 403.2 568.95 403.2 572.25 403.15 574.85 404.6 578.8 406.75 580.35 411.7 581.8 416.25 580.6 421 579.6 425.05 576.8 429.4 574.9109375 432.3064453125 571.325 436.575 576.558203125 436.228125 581.85 436.3 600.35 436.55 617.6 441.85 623.1 443.55 626.65 445.45 631.35 448 634 451.5 637 455.45 636.85 460.6 636.75 465.9 633.1 468.75
M 706.725 386.45
Q 706.5763671875 383.5912109375 705.3 380.4 702.7552734375 374.000390625 691.725 363.175 680.691796875 352.3462890625 666.225 346.75 651.764453125 341.1453125 641.1 336.1 641.0595703125 335.4591796875 641.025 334.6 640.99375 333.746875 641.45 318.8 641.9044921875 303.85 642.6 290 638.2 300.1 634.25 307.85 627.3794921875 322.1716796875 620.1 333.725 605.045703125 331.15234375 590.425 332.85 575.749609375 334.54765625 562.1 340.75 551.5984375 345.279296875 548.225 351.775 547.3966796875 353.3744140625 547 355.1 545.7 360.55 548.7 366.5 548.9314453125 366.9490234375 549.175 367.4
M 826.35 367.25
Q 829.374609375 368.6443359375 832.275 370.425 829.5083984375 362.27890625 828.975 353.25 824.2 353.45 822.1 356.1 821.05 357.15 820.5 358.75 820.05 360.25 820.6 361.95 811.7376953125 362.3640625 803.75 365.1 791.8484375 369.1982421875 781.9 378.475
M 879.35 250.425
Q 873.1796875 263.5248046875 871 276.875 879.9408203125 279.837109375 887.35 281.5 901.234375 284.63671875 916 284.05 919.5658203125 283.9001953125 923.075 283.525
M 871 276.875
Q 870.198046875 281.760546875 869.9 286.8 877.9908203125 283.087890625 887.35 281.5
M 869.9 286.8
Q 858.9865234375 291.8630859375 849.95 300.45 838.2609375 311.58515625 833.4 324.3 842.17578125 325.6603515625 852.15 329.65 860.1 332.85 869.75 338.85 888.05 350.5 903.4 366.05 918.791796875 381.6916015625 930.875 399.475
L 930.9 398.4
Q 932.931640625 371.401953125 952.95 353.15 961.8970703125 345.0310546875 972.325 340.2
M 830 338.6
Q 834.55 337 837.2 336.7 841.25 336.15 844.1 337.75 845.75 338.6 847.85 340.75 850.35 343.3 851.35 344 853.5 345.45 858.9 346.8 864.05 348.05 866.25 349.75 868 351.1 870.85 355.5 873.5 359.5 875.75 360.85 877.45 361.95 881.8 362.75 885.95 363.55 887.75 364.85 890.05 366.45 892 370.85 894.3 376 895.6 377.5 897.7 380 902.55 382.1 908.85 384.75 910.35 385.75 912.65 387.25 915.45 390.15 917.05 391.8 920.1 395.2 925.7 401 930.9 399.5
L 930.875 399.475
M 828.975 353.25
Q 828.85 351.0994140625 828.85 348.9 828.85 336.25546875 833.4 324.3
M 832.275 370.425
Q 842.31875 376.5759765625 851 387.35 855.65 393.1 860.25 400.5 862.3572265625 403.9509765625 864.875 408.4 870.61328125 411.629296875 876.85 413.7 879.4818359375 407.625390625 886.1 403.85 893.05 399.9 901.25 400.1 908.4 400.25 916.45 403.45 922.331640625 405.7427734375 932.2 415.3 931.7640625 413.22109375 931.475 411.1 930.98828125 407.574609375 930.875 403.9 930.85 402.8564453125 930.85 401.8 930.85 401.326171875 930.9 399.5
M 858.475 248.425
Q 836.9673828125 309.956640625 803.75 365.1
M 714.35 178.2
L 707.6 362.625
M 932.2 415.3
Q 936.280078125 435.238671875 952.95 450.4 958.871875 455.787109375 965.45 459.725 983.6677734375 457.651953125 1002.2 458.85 1020.502734375 460.0701171875 1038.075 464.4 1049.801171875 459.425390625 1059.7 450.4 1066.59140625 444.1462890625 1071.275 437.25 1067.135546875 436.615234375 1061.65 432.2 1054.65 426.5 1051.35 425.5 1048.6 424.65 1042.8 424.7 1037 424.75 1034.25 423.85 1031.55 422.9 1025.7 418.3 1020.55 414.2 1016.85 413.75 1014.4 413.45 1009.35 414.6 1004.5 415.7 1002 415.25 999 414.7 994.85 411.6 989.95 407.95 988 407.1 984.35 405.6 978.05 406 969.3 406.6 967.75 406.5 963.95 406.2 958.45 404.25 949.95 401.3 949.35 401.1 944.2 399.75 939.7 400.45 934.4 401.25 930.875 403.9
M 876.85 413.7
Q 876.51796875 414.4515625 876.25 415.25 874.8 419.7 875.5 424.75 876.2 429.5 878.6 433.85 882.1 439.95 888.35 443.85 894.6 447.75 901.6 448.25 908.7 448.7 915.35 445.7 922.05 442.7 926.5 437.7
M 953.25 461.5
Q 959.3294921875 460.4322265625 965.45 459.725
M 864.875 408.4
Q 866.4791015625 411.25 866.95 414.6
M 841.35 420.75
Q 847.15 438 845.35 456.65 843.5 475.25 834.5 491.1
M 853.5 475.1
Q 872.15 494.7 897.95 505.2 923.75 515.65 950.75 514.6
M 767.875 538.8
Q 779.698828125 562.8796875 798.35 583.1 823.15 610.15 858.05 628.45 889.42734375 644.9017578125 926.85 652.025 930.398828125 651.3390625 934.1 650.5 943.45 648.35 962.75 642.85
L 998.725 632.475 1029.35 623.65
Q 1032.15 611.15 1040.3 601.1 1047.7537109375 591.8552734375 1057.575 585.225 1067.3884765625 578.58359375 1077.675 574.05 1087.9271484375 569.5384765625 1105.4 567.6 1100.37734375 559.1111328125 1097.25 550.1 1090.0763671875 529.578515625 1092.225 505.9 1093.0888671875 496.4029296875 1095.45 486.4 1102.35 457.05 1121.5 425.6 1141.7 392.5 1168.35 364.75
M 803 720.5
L 624.3 687.8
Q 619.409765625 686.9466796875 614.3 689.9 611.398828125 691.55234375 601 699.6 590.603125 707.642578125 580.75 711.725 570.8966796875 715.8072265625 567.725 714.225 564.5509765625 712.6474609375 563.25 710.25 562 707.95 562 705.25 561.85 701.25 564.85 695.6 569.6 687.2 580.15 677.9 591.6576171875 668.4888671875 598.45 663.1 577.1291015625 666.77421875 557.25 672.35 553 673.5 551.7 673.8 548.55 674.5 546.1 674.5 543.05 674.5 540.45 673.5 537.55 672.45 535.85 670.35 532.95 666.75 533.85 661.3 534.65 656.4 538 652.25 544.1 644.3 557.85 638.35 575.25 630.8 594.8 629.3 585.15078125 625.64921875 572.2 624.55 556.6 623.75 548.85 623.1 541.85 622.65 537.75 620.75 535 619.35 533.2 617.25 531.2 614.85 530.85 612.1 530.5 609.35 531.85 606.45 533.15 603.8 535.5 601.85 538.9 599.25 546.25 597.1 564.1 592.4 585.9 593.6 603.15 594.55 626.6 599.4 619.35 580.6 616.1 571 614.8 566.85 614.7 564.15 614.55 560.2 616.75 558.1 618.25 556.7 620.6 556.3 622.65 555.95 625 556.5 631.5 557.7 639 564.75 652.95 578.2 659.25 596.35 659.94609375 598.3443359375 661.125 602.975 662.3115234375 607.6169921875 663.85 608.1 702.15 618.85 749.45 629.4 782 636.65 835.75 647.35 858.9 651.95 870.1 653.45 889.4 656 904.85 655 914.976953125 654.3453125 926.85 652.025
M 1184.125 379.05
Q 1230.753515625 424.6517578125 1268.55 478.35 1274.7228515625 469.5875 1280.45 462.075
M 1092.225 505.9
Q 1093.3 511.75 1098.7 520.25 1103.7 528.05 1111.85 533.5 1118.95 538.15 1128.65 541.4 1135.75 543.75 1146.75 546 1179.25 552.2 1211.75 552.35 1218.86484375 552.422265625 1224.775 552.55 1243.75859375 513.3181640625 1268.55 478.35
M 1224.775 552.55
Q 1243.3603515625 552.939453125 1250 553.85 1268.710546875 556.4033203125 1280.45 565.125
M 1068.125 362.1
Q 1081.85 379.366015625 1081.85 401.8 1081.85 414.3939453125 1077.3 425.9 1074.98203125 431.777734375 1071.275 437.25
M 930.9 398.4
Q 954.0443359375 395.165234375 972.025 396.175 990.0017578125 397.1947265625 1006.85 399.75 1048.934375 406.025390625 1077.3 425.9
M 1038.075 464.4
Q 1044.254296875 465.9353515625 1052.2 468.55
M 1029.35 623.65
L 1086.25 607.25
Q 1097.6 603.85 1104.15 602.7 1114.25 600.95 1122.35 602.1 1131.95 603.5 1139.3 609.35 1147.15 615.65 1148.6 624.35 1150.25 634.7 1142.4 645.05 1136.3 653.1 1124.85 660.75 1118.0900390625 665.2349609375 1110.725 669.5 1164.971875 689.354296875 1211.625 720.45
M 998.725 632.475
Q 1013.65 647 1018.55 668.25 1023.430859375 689.5166015625 1016.3 708.85 1036.53515625 702.533203125 1050.05 697.55 1084.275 684.876953125 1110.725 669.5
M 1016.3 708.85
Q 998.6001953125 714.3763671875 975.75 720.925
M 1280.05 613.175
Q 1256.00703125 621.234765625 1234.1 623.725 1232.85 631.5 1228.75 639.75 1217.868359375 661.1177734375 1202.2 678 1213.0697265625 700.6126953125 1228.7 720.5
M 1202.2 678
Q 1198.0640625 682.4591796875 1193.6 686.6
M 1105.4 567.6
Q 1114.086328125 582.3318359375 1128.7 594.65 1150.2 612.75 1178 620.1 1204.045703125 627.14453125 1234.1 623.725
M 614.25 73.25
Q 601.2 76.85 594.25 80 587.15 83.1 585.1 87.35 585.0828125 87.3884765625 585.075 87.425 584.976953125 87.656640625 584.925 87.9 571.4775390625 132.0625 559.25 178.825 549.500390625 216.0798828125 540.8 254.15 530.7720703125 287.8431640625 523.7 323.5 516.865234375 350.7193359375 510.2 378.225
M 178.25 342.25
Q 186.545703125 343.3515625 194.775 343.15 192.6 335.4587890625 192.6 326.85 192.6 325.3619140625 192.675 323.9 176.4484375 314.65078125 166.225 301.425 156.004296875 288.197265625 146.75 270.2 137.4955078125 252.2025390625 134.125 241.675 130.748046875 231.1541015625 128.325 216.4 125.9080078125 201.635546875 130.825 181.975 135.74140625 162.3146484375 150.1 148.55 164.452734375 134.7951171875 181.65 123 196 113.15 215.6 103.85 266.55 79.85 323.25 72.4 343.4404296875 69.7470703125 363.475 69.325 393.6673828125 68.6615234375 423.5 73.05 424.3103515625 73.176171875 425.125 73.3 431.46328125 70.23671875 438.4 63.3 442.35 59.25 450 50.85 465.4 34.95 479.35 36.85 482.75 37.35 485.5 38.95 488.5 40.65 490.1 43.25 492.95 47.8 491.2 55.7 490.25 60.15 486.85 68.25 493.85 68.35 499 71.7 504.152734375 75.1044921875 506.225 82.65 508.2916015625 90.1865234375 500.4 101.175 514.13671875 112.3814453125 527.55 130.4 538.1 144.6 559.25 178.825
M 425.125 73.3
Q 430.23828125 74.07265625 435.35 75 451.4 77.8 463.85 81.85 478.7 86.7 490.25 93.85 495.348046875 97.0513671875 500.4 101.175
M 363.475 69.325
Q 409.376171875 100.2423828125 444.1 157.85 458.3 181.15 472.2 211.5 481.4861328125 231.7251953125 494.45 266.45 495.53359375 264.6919921875 496 264 499.65 258.45 504.3 254.6 509.254296875 250.3814453125 514.875 248.675 500.617578125 200.6150390625 477.4 156 454.3140625 111.7763671875 423.5 73.05
M 422.1 226.35
Q 416.432421875 230.6900390625 411.825 235.95 446.1861328125 269.23046875 485.75 287.25 488.3 279 490.1 274.95 492.4787109375 269.5552734375 494.45 266.45
M 411.825 235.95
Q 408.0974609375 240.2095703125 405.075 245.075 405.653515625 246.030078125 406.2 247 408.69609375 251.4109375 410.4 256.15 414.05 266.3185546875 414.05 278 414.05 288.086328125 411.325 297.05 416.1298828125 293.7259765625 421.25 290.85
M 350.6 195.75
Q 334.2 207.2 314.2 211.7 303.6943359375 214.0578125 293.3 214.25 280 242.3197265625 263.65 270.15 276.234765625 272.887890625 286.525 281.15 286.45 279.5857421875 286.45 278 286.45 251.55 305.1 232.85 323.8 214.2 350.25 214.2 376.3642578125 214.2 394.875 232.375 397.591796875 228.5 400.975 224.9 397.5322265625 221.2248046875 394.15 217.4 359.3 178.05 329.1 120.5 314.8791015625 168.7275390625 293.3 214.25 283.85390625 214.4447265625 274.5 212.85
M 394.875 232.375
Q 395.11328125 232.61328125 395.35 232.85 401.0953125 238.5953125 405.075 245.075 404.523046875 245.9533203125 404 246.85
M 410.4 256.15
Q 404.5 255.2 400 255.7 396.1462890625 256.154296875 392.625 257.175 389.1107421875 258.18671875 384.55 261.375 379.9890625 264.5630859375 378.15 265.2 376.303515625 265.8455078125 369.1 267.7 364.35 268.9 361.6 270.6 359.4 271.95 354.45 277.15 350.25 281.55 346.85 282.75 345.65 283.15 341.35 283.85 337.9 284.4 336.1 285.6 334 287.1 332.15 291.3 330 296.05 328.6 297.6 326.85 299.55 323.35 301 319.3 302.45 317.35 303.25 311.85 305.55 307.7 310.25 303.8138671875 314.6044921875 301.55 319.25 303.5197265625 321.5197265625 305.1 323.1 306.86484375 324.86484375 308.7 326.475 310.2150390625 327.79453125 311.775 329 328.3587890625 341.8 350.25 341.8 362.9845703125 341.8 373.9 337.475 381.894921875 323.64609375 393.35 312.1 401.694140625 303.6892578125 411.325 297.05
M 385.85 250.35
Q 389.1693359375 240.5275390625 394.875 232.375
M 373.9 337.475
Q 373.11328125 338.84609375 372.35 340.25
M 342.5 383.25
Q 334.53203125 387.5021484375 329.45 390.5 326.210546875 392.41875 323.175 394.35 325.10234375 400.30859375 327.6 405.5 328.7 407.75 329.55 408.95 330.85 410.75 332.35 411.5 334.95 412.9 338.55 412.05 340.9 411.45 344.75 409.5 347.15 408.1 348.15 407.2 349.9 405.75 350.5 404 351 402.2 350 398.6 347.4 390.4 342.5 383.25 348.485546875 380.0537109375 356.1 376.15 358.985546875 374.6716796875 361.625 373.3 374.93359375 366.4181640625 381.975 362.4 382.375390625 362.16640625 382.75 361.95 397.2 353.5 407.625 345.025 408.373828125 338.7845703125 409.75 329.6
M 361.625 373.3
Q 362.0416015625 374.773828125 363.125 377.575 364.2087890625 380.3880859375 365.525 383.15 366.8462890625 385.9021484375 370 387.5 374.05 389.5 380.5 387 385.3 385.05 386.75 382.5 389.1 378.65 386.35 372.25 384.929296875 369.0744140625 384 366.85 383.070703125 364.6255859375 381.975 362.4
M 523.7 323.5
Q 523.3513671875 323.2349609375 523 322.975 514.6392578125 316.8275390625 506.35 315.65 498 314.45 490 317.5 487.256640625 318.52109375 484.575 320 474.2041015625 325.678125 464.6 338.1 457.2849609375 347.61328125 451.975 358.175 442.934375 376.17109375 439.75 397.2 434.7453125 430.4 445.75 461.25
M 451.975 358.175
Q 439.923828125 357.623828125 431.25 348.95 422 339.7 422 326.6 422 313.5 431.25 304.25 440.5 295 453.6 295 466.7 295 475.95 304.25 482.7755859375 311.0755859375 484.575 320
M 407.625 345.025
Q 407.1208984375 349.1982421875 406.9 352.05 405.9 364.55 407.5 374.35 408.641796875 381.6322265625 411.275 388.05 412.8986328125 392.012890625 415.1 395.65 417.3748046875 399.4171875 420.075 402.5 424.8078125 407.85625 430.85 411.1
M 297.85 314
Q 315.85 286.85 344.25 268.9 372.6 250.95 406.2 247
M 411.825 235.95
Q 406.3376953125 230.6166015625 400.975 224.9
M 540.8 254.15
Q 540.3126953125 253.8048828125 539.825 253.475 533.2470703125 249.024609375 527.5 248 521.15 246.85 515.1 248.6 514.991015625 248.6322265625 514.875 248.675
M 548.225 351.775
L 614.7 160.1
M 192.675 323.9
Q 193.651953125 301.748046875 209.6 285.8 226.6 268.8 250.65 268.8 257.4333984375 268.8 263.65 270.15
M 229.85 239.9
Q 224.762109375 257.1564453125 213.15 270.825 201.5369140625 284.4958984375 188.2 294.1
M 301.55 319.25
Q 300.9462890625 318.595703125 299.9 317.275
L 299.9 317.3
Q 298.95 319.05 297.4 320.45 296.05 321.7 294.1 322.1 292.8 322.45 290.5 322.5 287.85 322.6 286.85 322.75 283.9 323.2 279.05 326.05 273.85 329.1 271.25 329.75 268.7 330.35 262.15 329.9 256.3 329.55 253.25 330.75 250.95 331.55 246.7 334.95 242.75 338.1 240.1 338.75 239 339 234.7 339.05 231.35 339.1 229.5 340.1 227.9 340.95 225.95 343.3 223.7 346 222.6 346.85 221.15 347.95 218.05 349 214.65 350.2 213.35 351 210.25 353 208.5 357.3 207.3912109375 359.9333984375 206.5 364.575 207.9693359375 366.2693359375 209.6 367.9 223.6029296875 381.9029296875 242.4 384.375 250.0779296875 379.816015625 259.4 378.15 268.97109375 376.46953125 278 378.225 282.1080078125 376.004296875 285.9 373.05 281.82265625 370.8453125 278.85 367.35 274.2 361.8 273.55 354.35 272.9 346.7 276.85 340.85 279.45 337.1 283.85 334.4 287.8 331.9 292.75 330.6 296.9 329.55 302.3 329.2 304.6474609375 329.05546875 308.675 329.025 310.1130859375 329.0015625 311.775 329
M 206.5 364.575
Q 202.56328125 360.045703125 199.75 355.05 199.6376953125 354.851953125 199.525 354.65 193.205859375 359.2634765625 185.55 361.6 177.95 363.9 170.1 363.6
M 236.35 388.6
Q 239.2318359375 386.2421875 242.4 384.375
M 199.75 355.05
Q 206.955078125 347.6708984375 215.15 341.65 204.816796875 342.925 194.775 343.15 196.4857421875 349.182421875 199.525 354.65
M 285.9 373.05
Q 288.0712890625 374.202734375 290.55 375 297.45 377.2 304.6 375.85 311.4 374.5 317.4 370 323.15 365.75 327.1 360.3
M 215.15 341.65
Q 230.5265625 330.4041015625 249.4 323.95 273.9318359375 315.588671875 299.9 317.3
M 278 378.225
Q 281.3404296875 378.88203125 284.6 380
M 299.9 317.275
Q 287.4005859375 301.6439453125 286.525 281.15
M 323.175 394.35
Q 314.5875 399.8255859375 307.675 405.4 306.2 409.55 308.55 413.9 310.8 418.05 315.1 420 318.8 421.7 323.75 421.65 327.5 421.6 332.75 420.5 351.65 416.5 372.35 403.75 385.05 395.95 407.85 378.1
M 307.675 405.4
Q 306.2251953125 406.5759765625 304.85 407.75 295 416.05 291.5 424 289.35 429.15 289.55 434.45 289.8 440.2 292.85 444.25 295.6 447.95 300.65 450.2 304.55 452 310.35 453.1 325.9 455.85 342.35 453.15 358.25 450.5 372.85 443.1 386.85 436.1 399.4 425.05 410.6041015625 415.133203125 420.075 402.5
M 264.65 428.3
Q 264.65 439.5 257.1 447.4 249.55 455.35 238.9 455.35 228.25 455.35 220.7 447.4 213.15 439.5 213.15 428.3 213.15 417.1 220.7 409.15 228.25 401.25 238.9 401.25 249.55 401.25 257.1 409.15 264.65 417.1 264.65 428.3 Z
M 216.8 374.75
Q 206.55 406.7 203.7 428 199.65 458.65 208.25 482.1 214.6 499.45 228.4 514.45 231.150390625 517.4416015625 234.175 520.325 244.894921875 530.6533203125 262.25 540.35
M 234.175 520.325
Q 227.95 537.8 216.45 554.95 207.8 567.95 191.9 584.9 182.9 594.45 164.5 613.6 149.05 630.5 140.35 644.5 129.4 662.25 123.95 682.55 118.853515625 701.673828125 119.175 721.05
M 245.725 632.3
Q 223.05 651.1 202.7 674.3 183.4681640625 696.16484375 167.425 720.45
M 577.35 479.7
Q 598.35 479.85 617 489.25 621.0365234375 491.2490234375 623.725 493.95
M 489.1 451.225
Q 492.045703125 450.7111328125 493.1 450.7
M 545.85 440.85
Q 558.38828125 437.43046875 571.325 436.575
M 411.275 388.05
Q 394.8298828125 395.860546875 386.75 400.15 373.25 407.25 363.25 414.25 337.85 431.8 326.5 454.1
M 517.75 520.975
Q 486.6474609375 526.4673828125 455.975 534.675"/>
</defs>

<g transform="matrix( 1, 0, 0, 1, 0,0) ">
<use xlink:href="#Layer2_0_FILL"/>
</g>

<g transform="matrix( 1, 0, 0, 1, 0,0) ">
<use xlink:href="#Layer0_0_1_STROKES"/>
</g>
</svg>
