
<svg xmlns="http://www.w3.org/2000/svg" version="1.1" xmlns:xlink="http://www.w3.org/1999/xlink" preserveAspectRatio="none" x="0px" y="0px" width="1280px" height="720px" viewBox="0 0 1280 720">
<defs>
<g id="Layer2_0_FILL">
<path fill="#FFFFFF" stroke="none" d="
M 1280 720
L 1280 0 0 0 0 720 1280 720 Z"/>
</g>

<g id="Layer1_0_FILL">
<path fill="#F9CEB4" stroke="none" d="
M 499.4 678.9
Q 500.723046875 683.88203125 502.25 689.55 506.5884765625 708.3666015625 507.8 715.95 508.14609375 717.9595703125 508.15 719.95
L 516.2 719.95
Q 515.5 717.6419921875 515.5 715.25 515.5 712.7 516.25 711.25 516.85 710.3 517.75 709.8 518.735546875 709.2087890625 520.15 708.95 518.072265625 701.9943359375 514.25 695.55 508.282421875 685.6041015625 499.4 678.9
M 363.6 686.4
Q 363.1546875 687.3412109375 362.65 688.3 360.5 692.35 356.25 698.25 347.6619140625 709.6267578125 337.9 719.95
L 361 719.95
Q 363.273828125 713.397265625 364.2 707.1 365.45 698.65 363.85 690.5 363.55 688.75 363.5 688.2 363.4259765625 687.2017578125 363.6 686.4
M 390.25 346.55
Q 381.9974609375 337.962890625 378.35 327.4 342.611328125 356.5 299.9 370.55 294.8431640625 356.1873046875 284.2 348.25 277.60703125 343.3341796875 270.15 341.1 264.7322265625 339.51875 258.85 339.35 250.868359375 339.0501953125 243.55 341.4 241.1177734375 342.3224609375 238.75 343.45 228.8 348.15 223.6 356.75 219.05 364.15 218.35 373.9 217.75 382.7 220.25 392.1 223.45 404.2 230.5 414 237.95 424.35 248.25 430 258.95 436 271.45 435.85 284.35 435.7 294.65 429.55 309.6041015625 447.1404296875 327.75 460.5 328.3525390625 460.9109375 328.9 461.3 349.2443359375 476.0078125 373.55 485.45 383.821875 489.43359375 394.15 492.3
L 393.3 516.25
Q 402.31484375 520.086328125 411.75 522.35 415.0939453125 523.14453125 418.5 523.75 430.75859375 525.94765625 443.3 525.4
L 443.3 499.9
Q 455.9693359375 500.28828125 468.75 499.1 487.683984375 497.391796875 503.8 492.35 504.4986328125 492.13125 505.2 491.9 521.7306640625 486.5380859375 535.25 477.6 550.4 467.55 560.65 453.2 571.4 438.15 574.5 421.25 578.35 399.95 570.05 375.35 563.5560546875 356.16796875 548.5 332.6 545.970703125 336.229296875 542.65 339.55 531.75546875 350.44453125 517.45 353.1 516.999609375 351.5802734375 516.2 350.1 514 346 509.8 343.1 505.7 340.3 500.7 339.25 492.1 337.4 481.15 340.6 478.45 341.3 475.95 342.4 474.4 341 472.95 339.55 471.2306640625 337.8306640625 469.7 336 466.4931640625 341.6146484375 461.75 346.55 446.95 361.95 426 361.95 405.05 361.95 390.25 346.55
M 350.5 381.5
Q 350.5 371.6 357.45 364.6 364.45 357.65 374.35 357.65 384.25 357.65 391.2 364.6 398.2 371.6 398.2 381.5 398.2 391.4 391.2 398.35 384.25 405.35 374.35 405.35 364.45 405.35 357.45 398.35 350.5 391.4 350.5 381.5
M 407.6 394
Q 410.15 389.15 410.9 383.55 410.93828125 383.2671875 410.95 382.95 415.3 381.2 421.1 381.8 423.95 382.1 431.25 383.85 450 388.35 469.45 388.55 488.9 388.75 507.75 384.6 512.4 383.55 514.6 383.4 518.45 383.05 521.35 384.1 524.55 385.3 526.8 388.35 528.95 391.25 529.6 394.85 530.85 401.1 527.9 407.6 525.15 413.7 519.75 418.1 511.15 424.95 495.35 427.85 478.1 431.15 460.65 430.2 443 429.2 426.5 423.85 416.35 420.6 409.9 415.2 402.84453125 409.30546875 401.9 402 405.4109375 398.4236328125 407.6 394
M 533.95 362.3
Q 538 356.6 544.45 356 550.9 355.3 556 360.2 561.1 365.05 561.8 372.55 562.5 380 558.45 385.75 554.35 391.5 547.9 392.15 541.45 392.75 536.4 387.85 531.4 383 530.65 375.55 529.95 368 533.95 362.3
M 524 155.85
Q 511.5 138.6 493.7 126.3 491.75 164.5 479.5 199.05 467.546875 232.8115234375 447 261.4 455.0224609375 265.2498046875 461.75 272.25 464.3052734375 274.9087890625 466.4 277.75 469.197265625 273.602734375 472.95 269.85 487.4 255.4 507.8 255.4 528.2 255.4 542.65 269.85 543.7201171875 270.9201171875 544.7 272 549.8908203125 253.6849609375 549.8 234.4 549.7359375 225.2787109375 548.5 216.4 546.8515625 204.5267578125 543.1 193.1 536.55 173.2 524 155.85
M 909.7 673.85
Q 909.15 678.6 908.8 682.35 906.7751953125 702.405078125 906.9 719.95
L 953.75 719.95
Q 954.6380859375 697.252734375 955.6 678.35 932.65 678.1 909.7 673.85
M 783.35 644.7
Q 778.6923828125 645.051171875 774.6 644 768.4494140625 642.1259765625 765.1 637.85 755.82421875 677.9365234375 748.15 719.95
L 764.4 719.95
Q 776.134765625 672.8947265625 783.35 644.7
M 993 365.75
Q 999.6248046875 342.0498046875 1013.45 317.7 1004.119140625 316.8841796875 991.7 314.3 979.33359375 311.709765625 963.15 303.45 946.9677734375 295.2021484375 913.75 271.55 880.51875 247.947265625 838.3 212.5 831.1875 221.7337890625 821.75 228.8 811.75 236.25 800.35 240.5 797.7513671875 241.4265625 795.3 242.05 792.3009765625 250.4189453125 790.85 256.6 789.290234375 263.27578125 788.8 271 788.275 278.1716796875 789.9 285.9 803.698828125 273.5 822.25 273.5 843.4 273.5 858.3 289.65 863.698828125 295.4822265625 867.15 302.15 867.246875 302.3634765625 867.35 302.55 867.9 301.95 868.2 301.6 868.5 301.3 868.8 301.05 885.35 284.8 908.65 284.8 932.25 284.8 948.95 301.6 957.1642578125 309.86328125 961.35 319.8 965.7 330.14609375 965.7 342.3 965.7 354.45390625 961.35 364.8 957.1642578125 374.73671875 948.95 383 932.25 399.85 908.65 399.85 894.95 399.85 883.55 394.15 882.7 393.7 881.85 393.3 874.55 389.35 868.3 383 862.25 376.9 858.3 369.85 857.95 369.25 857.65 368.65 857.57890625 368.520703125 857.5 368.4 856.944921875 368.9828125 856.35 369.55 854.812109375 371.0939453125 853.15 372.45 855.95 374.55 856.75 380.35 857.7 388.25 856.75 392.85 855.15 399.95 849.55 403.45 839.65 408.4 829.5 408.75 819.25 409.15 811.75 404.75 807.6 402.35 804.85 398.6 802 394.7 801.35 390.25 800.5736328125 385.009765625 803 379.8 793.7693359375 375.7810546875 786.15 367.55 779.454296875 360.292578125 775.75 351.7 759.8 363.95 749.25 380.6 738.9 397 734.25 415.65 729.45 434.65 731.35 453 733.35 472.35 742.5 488.5 746.4392578125 495.4458984375 751.6 501.75 760.02421875 512.0783203125 771.7 520.75 788.4337890625 533.1470703125 808.35 540.3 813.80390625 563.904296875 816.2 587.9 820.8734375 596.8623046875 827.95 602.85 835.85 609.55 844.85 610.85 852.95 612 862.7 608.8 866.6943359375 607.4904296875 872.7 604.7 879.562109375 580.5376953125 889.5 560.1 890.85 557.4 892.2 554.9 896.3 547.25 900.3 541.55 906.9 532.05 914.5 525.75 934 509.75 963.85 510.05 977.278515625 510.19453125 991.35 513.45 991.4404296875 513.505078125 991.5 513.5 1008.8404296875 498.437890625 1024.55 481.4 1033.0537109375 489.0041015625 1044.8 491.1 1056.95 493.2 1067.6 488.6 1079.4 483.6 1088.85 471.35 1096.1 462.05 1099.95 451.75 1104.05 440.6 1103.5 429.75 1102.9 418.2 1097.05 408.3 1090.9 397.95 1081 393.1 1070.7 388.05 1059 390.55 1047 393.05 1040.1 402.65 1042.6466796875 408.5537109375 1043.75 413.5 1046.1 423.2 1043.25 430.5 1041.55 434.7 1038.3 437.6 1034.75 440.65 1030.6 441.1 1026.55 441.55 1022.45 439.5 1018.6 437.55 1015.85 434 1013.45 430.95 1011.75 426.55 1010.5140625 423.4125 1009.35 418.8 1009.186328125 420.8984375 1008.85 423.35 1007.998046875 429.2955078125 1006 434 1004.0041015625 438.7587890625 1000.65 439.3 997.3416015625 439.8912109375 995 438.35 992.6619140625 436.853515625 990.9 431.8 989.1294921875 426.746875 988.2 419.35 987.2658203125 412.012109375 987.15 406.55
L 987.1 401.1
Q 987.972265625 383.7384765625 993 365.75 Z"/>

<path fill="#ED4E60" stroke="none" d="
M 319.8 465.75
Q 312.75 473.25 313 482.95 313.15 491.3 318.15 500.45 321.4462890625 506.5091796875 328.35 515.4 316.28515625 519.5361328125 303.6 527 289.5 535.3 270.75 550.35 246.45 569.75 233.75 586.75 216.7 609.65 216.35 632.75 216.2 645.4 221.15 659.25 225.3 670.75 233.25 683.75 248.795703125 708.9013671875 269.45 719.95
L 337.9 719.95
Q 347.6619140625 709.6267578125 356.25 698.25 360.5 692.35 362.65 688.3 363.1546875 687.3412109375 363.6 686.4 363.4259765625 687.2017578125 363.5 688.2 363.55 688.75 363.85 690.5 365.45 698.65 364.2 707.1 363.273828125 713.397265625 361 719.95
L 508.15 719.95
Q 508.14609375 717.9595703125 507.8 715.95 506.5884765625 708.3666015625 502.25 689.55 500.723046875 683.88203125 499.4 678.9 508.282421875 685.6041015625 514.25 695.55 518.072265625 701.9943359375 520.15 708.95 518.735546875 709.2087890625 517.75 709.8 516.85 710.3 516.25 711.25 515.5 712.7 515.5 715.25 515.5 717.6419921875 516.2 719.95
L 540.65 719.95
Q 541.6064453125 718.3146484375 542.35 716.75 544.1341796875 712.819921875 544.8 708.75 544.842578125 708.6943359375 544.85 708.65 544.8970703125 708.3861328125 544.95 708.1
L 544.95 708.1
Q 544.959375 707.9833984375 544.95 707.85 558.95625 705.010546875 570.1 692.25 582.25 678.3 583.1 660.25 583.95 644.15 576.6 626.6 570.6 612.4 558.75 596.35 547.8 581.4 532.25 564.75 523.63671875 555.554296875 509.2 541.3 509.86640625 540.4673828125 510.5 539.65 517.15 531.05 519.15 522.2 521.4 512.15 516.7 502.75 512.4908203125 494.331640625 505.2 491.9 504.4986328125 492.13125 503.8 492.35 487.683984375 497.391796875 468.75 499.1 455.9693359375 500.28828125 443.3 499.9
L 443.3 525.4
Q 430.75859375 525.94765625 418.5 523.75 415.0939453125 523.14453125 411.75 522.35 402.31484375 520.086328125 393.3 516.25
L 394.15 492.3
Q 383.821875 489.43359375 373.55 485.45 349.2443359375 476.0078125 328.9 461.3 328.3525390625 460.9109375 327.75 460.5 323.6142578125 461.7349609375 319.8 465.75
M 452.05 625.25
Q 467.15 613.7 484.55 606.65 485.2638671875 615.52109375 486.9 625.45 487.957421875 631.8970703125 489.4 638.75 489.84140625 640.8955078125 490.3 643.05 491.581640625 648.761328125 493.1 654.75 493.3763671875 655.855859375 493.65 657.05 465.034375 664.3060546875 439.6 672.05 439.529296875 673.5962890625 440 675.1 440.55 677 442.65 680.75 444.2 684.15 443 686.25 442 688.1 439.5 688.55 437.25 688.9 435 688.1 434.45546875 687.9541015625 431.25 686.6 428.033203125 685.2376953125 425.35 685.05 422.6666015625 684.9123046875 419.5 687.75 416.3943359375 690.5958984375 411.85 694.6 409.4 696.4 407.5 695.75 405.65 695.1 405 692.25 404.55 690.3 404.6 687.5 404.8 684.3 404.85 682.75 404.85 676.55 401.85 673.85 400.705859375 672.9478515625 398.3 672.05 395.8869140625 671.1560546875 394.1 670.45 392.305078125 669.7947265625 391.45 667.8 390.64609375 665.8525390625 391.7 664.3 392.7521484375 662.7494140625 395.35 662.25 397.5 661.75 401.85 660.75 405.4 659.6 407 657.35 408.29921875 655.55625 408.55 652.45 408.79453125 649.3802734375 409 647.4 409.2171875 645.422265625 410 642.65 410.7802734375 639.8693359375 413.1 639.45 415.4103515625 639.087890625 417.15 640.45 418.93046875 641.8650390625 419.95 643.95 420.9876953125 646.0900390625 421.95 648.3 422.9529296875 650.5513671875 423.7 651.45 424.50546875 652.35703125 425.5 652.7 437.05 636.75 452.05 625.25
M 245.45 99.8
Q 245.3294921875 99.886328125 245.2 99.95 222.198828125 157.3978515625 221.8 220.75 221.3529296875 283.939453125 243.55 341.4 250.868359375 339.0501953125 258.85 339.35 264.7322265625 339.51875 270.15 341.1 252.5955078125 271.3611328125 253.35 213.6 253.95 177.75 261.65 145.2 269.3798828125 112.3484375 284.05 84.45 263.451953125 91.0119140625 245.45 99.8 Z"/>

<path fill="#E08824" stroke="none" d="
M 443.85 662.25
Q 439.6775390625 667.4931640625 439.6 672.05 465.034375 664.3060546875 493.65 657.05 493.3763671875 655.855859375 493.1 654.75 491.581640625 648.761328125 490.3 643.05 467.0216796875 648.2646484375 446.05 658.1 446.013671875 659.645703125 443.85 662.25 Z"/>

<path fill="#4DD68E" stroke="none" d="
M 440.55 653.65
Q 441.655078125 653.7873046875 442.35 654 445.5 654.95 446 657 446.1091796875 657.397265625 446.05 658.1 467.0216796875 648.2646484375 490.3 643.05 489.84140625 640.8955078125 489.4 638.75 487.957421875 631.8970703125 486.9 625.45 461.0302734375 635.06796875 440.55 653.65 Z"/>

<path fill="#FCE579" stroke="none" d="
M 417.15 640.45
Q 415.4103515625 639.087890625 413.1 639.45 410.7802734375 639.8693359375 410 642.65 409.2171875 645.422265625 409 647.4 408.79453125 649.3802734375 408.55 652.45 408.29921875 655.55625 407 657.35 405.4 659.6 401.85 660.75 397.5 661.75 395.35 662.25 392.7521484375 662.7494140625 391.7 664.3 390.64609375 665.8525390625 391.45 667.8 392.305078125 669.7947265625 394.1 670.45 395.8869140625 671.1560546875 398.3 672.05 400.705859375 672.9478515625 401.85 673.85 404.85 676.55 404.85 682.75 404.8 684.3 404.6 687.5 404.55 690.3 405 692.25 405.65 695.1 407.5 695.75 409.4 696.4 411.85 694.6 416.3943359375 690.5958984375 419.5 687.75 422.6666015625 684.9123046875 425.35 685.05 428.033203125 685.2376953125 431.25 686.6 434.45546875 687.9541015625 435 688.1 437.25 688.9 439.5 688.55 442 688.1 443 686.25 444.2 684.15 442.65 680.75 440.55 677 440 675.1 439.529296875 673.5962890625 439.6 672.05 439.6775390625 667.4931640625 443.85 662.25 446.013671875 659.645703125 446.05 658.1 446.1091796875 657.397265625 446 657 445.5 654.95 442.35 654 441.655078125 653.7873046875 440.55 653.65 437.7869140625 653.2783203125 432.45 653.35 427.248046875 653.3919921875 425.5 652.7 424.50546875 652.35703125 423.7 651.45 422.9529296875 650.5513671875 421.95 648.3 420.9876953125 646.0900390625 419.95 643.95 418.93046875 641.8650390625 417.15 640.45 Z"/>

<path fill="#A24CC9" stroke="none" d="
M 484.55 606.65
Q 467.15 613.7 452.05 625.25 437.05 636.75 425.5 652.7 427.248046875 653.3919921875 432.45 653.35 437.7869140625 653.2783203125 440.55 653.65 461.0302734375 635.06796875 486.9 625.45 485.2638671875 615.52109375 484.55 606.65 Z"/>

<path fill="#75422A" stroke="none" d="
M 192.6 90.35
Q 177 91.55 165.35 98.85 160.6 101.8 158.1 105.9 155.2 110.65 156.75 115 157.75 117.55 160.15 119.35 162.45 121 165.35 121.6 169.3 122.6 177.4 121.5 173.9384765625 125.08046875 172.1 129.1 170.3 133 170.35 136.9 170.4 141.2 172.75 144.25 174.55 146.6 177.6 147.95 180.4 149.15 183.75 149.35 185.225390625 149.4359375 186.45 149.25 172.41640625 171.0185546875 166.35 198.25 160.8 223.75 161.45 256.4 161.85 276.3 165.75 315 171.479296875 371.3373046875 182.55 481.7 182.5939453125 482.2650390625 182.65 482.8 183.3421875 487.69609375 183.7 492.25 184.601171875 503.8091796875 183.3 513.25 181.548828125 526.45390625 173.25 536 167.3 542.9 155.25 548.35 141.25 554 134.6 557.35 113.2 568.35 101.5 590.95 89.75 613.55 93.1 637.35 96.6 661.2 114.15 679.6 130.9328125 697.145703125 154.6 700.55 155.6091796875 700.6837890625 156.6 700.8 156.6955078125 700.8130859375 156.8 700.8 156.690234375 700.829296875 156.55 700.8 155.525 702.4771484375 154.6 704.25 150.6525390625 711.76875 149.9 719.95
L 269.45 719.95
Q 248.795703125 708.9013671875 233.25 683.75 225.3 670.75 221.15 659.25 216.2 645.4 216.35 632.75 216.7 609.65 233.75 586.75 246.45 569.75 270.75 550.35 289.5 535.3 303.6 527 316.28515625 519.5361328125 328.35 515.4 321.4462890625 506.5091796875 318.15 500.45 313.15 491.3 313 482.95 312.75 473.25 319.8 465.75 323.6142578125 461.7349609375 327.75 460.5 309.6041015625 447.1404296875 294.65 429.55 284.35 435.7 271.45 435.85 258.95 436 248.25 430 237.95 424.35 230.5 414 223.45 404.2 220.25 392.1 217.75 382.7 218.35 373.9 219.05 364.15 223.6 356.75 228.8 348.15 238.75 343.45 241.1177734375 342.3224609375 243.55 341.4 221.3529296875 283.939453125 221.8 220.75 222.198828125 157.3978515625 245.2 99.95 242.854296875 101.1080078125 240.55 102.3 229.7 95.1 217.3 92.15 205.1 89.2 192.6 90.35
M 562.65 181.55
Q 563.9326171875 155.9505859375 553.45 133.55 543.0041015625 111.1998046875 521.65 95.25 501.85 80.5 476.5 73.1 454.3 66.65 427.15 65.55 405.65 64.65 376.85 67.1 329.5 71.25 292.55 81.9 288.241796875 83.1392578125 284.05 84.45 269.3798828125 112.3484375 261.65 145.2 253.95 177.75 253.35 213.6 252.5955078125 271.3611328125 270.15 341.1 277.60703125 343.3341796875 284.2 348.25 294.8431640625 356.1873046875 299.9 370.55 342.611328125 356.5 378.35 327.4 375.45 319.0220703125 375.45 309.4 375.45 301.0990234375 377.6 293.7 379.8125 286.177734375 384.25 279.6 386.8763671875 275.7603515625 390.25 272.25 405.05 256.85 426 256.85 437.426953125 256.85 447 261.4 467.546875 232.8115234375 479.5 199.05 491.75 164.5 493.7 126.3 511.5 138.6 524 155.85 536.55 173.2 543.1 193.1 546.8515625 204.5267578125 548.5 216.4 561.3765625 207.146875 562.65 181.55 Z"/>

<path fill="#F5AD94" stroke="none" d="
M 544.45 356
Q 538 356.6 533.95 362.3 529.95 368 530.65 375.55 531.4 383 536.4 387.85 541.45 392.75 547.9 392.15 554.35 391.5 558.45 385.75 562.5 380 561.8 372.55 561.1 365.05 556 360.2 550.9 355.3 544.45 356
M 357.45 364.6
Q 350.5 371.6 350.5 381.5 350.5 391.4 357.45 398.35 364.45 405.35 374.35 405.35 384.25 405.35 391.2 398.35 398.2 391.4 398.2 381.5 398.2 371.6 391.2 364.6 384.25 357.65 374.35 357.65 364.45 357.65 357.45 364.6 Z"/>

<path fill="#8EC1B1" stroke="none" d="
M 487.25 398.5
Q 486.75 398.1 486 397.9 485.8 397.85 484.6 397.75 479.1 397.55 471.35 398.05 469.4525390625 397.9302734375 468.75 398.75 468 399.5 468 401.75 468 405.6 468.2 407.9 468.45 410.25 469.15 410.95 469.85 411.7 470.35 411.9 470.9001953125 412.0958984375 472.35 412.2 473.798828125 412.312109375 478 412.15 482.2509765625 412.0376953125 483.7 411.75 485.199609375 411.50390625 486.35 410.35 487.5 409.25 487.8 406.2 488.1 403.15 488.1 401.25 488.1 399.2 487.25 398.5
M 517.95 395.85
Q 517.38125 395.7732421875 516.9 395.75
L 516.8 395.75
Q 516.69609375 395.7525390625 516.6 395.75 512.976171875 395.8767578125 506.35 396.35 504.8 396.5 504.25 396.7 503.1521484375 397.05 502.65 397.95 502.143359375 398.85 502.15 400.25 502.1564453125 401.7 502.3 404.3 502.49765625 406.9 502.85 408.25 503.35 409.9 504.35 410.5 504.75 410.8 505.45 410.95 505.55 410.95 506.75 411.1 511.296875 411.3080078125 514.55 411.05 515.3212890625 410.988671875 515.95 410.95 516.8150390625 410.9318359375 517.8 410.15 518.8400390625 409.37734375 519.2 408.4 519.59921875 407.4087890625 519.85 405.2 520.15546875 402.990234375 519.8 399.85 519.4458984375 396.708203125 519.1 396.3 518.7490234375 395.94609375 517.95 395.85
M 430.4 393.5
Q 429.6 393.8 429.1 394.6 428.7 395.25 428.55 396.2 428.45 396.75 428.35 397.85 428.35 401.1 428.25 402.75 428.25 405.85 429.1 407 430.25 408.75 434 409.25 439.6 409.85 444.1 409.5 446.35 409.15 447.1 408.6 448.2 407.8 448.55 406.1 448.75 405.25 448.85 403 449.05 399.8 449.05 399.5 449 397.5 448.1 396.35 447.45 395.5 446.2 395.05 445.55 394.75 443.85 394.35 439.02421875 393.4900390625 432 393.25 431.70703125 393.26015625 431.4 393.25 430.9375 393.291015625 430.4 393.5 Z"/>

<path fill="#DF6249" stroke="none" d="
M 864.7 639.85
Q 867.9677734375 621.3875 872.7 604.7 866.6943359375 607.4904296875 862.7 608.8 852.95 612 844.85 610.85 835.85 609.55 827.95 602.85 820.8734375 596.8623046875 816.2 587.9 817.691796875 602.926953125 818 618.1 818.16875 626.17578125 818 634.3 817.1037109375 677.452734375 807.25 719.95
L 856.55 719.95
Q 858.875 672.6990234375 864.7 639.85
M 782.1 572.25
Q 781.915234375 572.0376953125 781.7 571.8 772.7927734375 604.7322265625 765.1 637.85 768.4494140625 642.1259765625 774.6 644 778.6923828125 645.051171875 783.35 644.7 785.398828125 636.7158203125 787.1 630.1 790.3033203125 617.49765625 791.8 608.6 793.3443359375 599.703125 791.2 589.65 789.2546875 580.5884765625 782.1 572.25
M 952.4 582.25
Q 942.9 578.75 936.1 583.25 930.4 587.1 926.3 594.2 920.85 604 917.7 617.65 915.8 626.05 913.6 642.6 911.15 661.65 909.7 673.85 932.65 678.1 955.6 678.35 957.05 650.05 958.85 627.05 961.95 585.7 952.4 582.25 Z"/>

<path fill="#213447" stroke="none" d="
M 808.35 540.3
Q 788.4337890625 533.1470703125 771.7 520.75 760.02421875 512.0783203125 751.6 501.75 745.4103515625 506.3458984375 741.35 511.5 737.2861328125 516.649609375 740.6 524 743.970703125 531.353515625 748.3 536.8 752.6306640625 542.298046875 762.25 551.8 771.9162109375 561.294140625 780.45 570.45 781.1169921875 571.1357421875 781.7 571.8 781.915234375 572.0376953125 782.1 572.25 789.2546875 580.5884765625 791.2 589.65 793.3443359375 599.703125 791.8 608.6 790.3033203125 617.49765625 787.1 630.1 785.398828125 636.7158203125 783.35 644.7 776.134765625 672.8947265625 764.4 719.95
L 807.25 719.95
Q 817.1037109375 677.452734375 818 634.3 818.16875 626.17578125 818 618.1 817.691796875 602.926953125 816.2 587.9 813.80390625 563.904296875 808.35 540.3
M 914.5 525.75
Q 906.9 532.05 900.3 541.55 896.3 547.25 892.2 554.9 890.85 557.4 889.5 560.1 879.562109375 580.5376953125 872.7 604.7 867.9677734375 621.3875 864.7 639.85 858.875 672.6990234375 856.55 719.95
L 906.9 719.95
Q 906.7751953125 702.405078125 908.8 682.35 909.15 678.6 909.7 673.85 911.15 661.65 913.6 642.6 915.8 626.05 917.7 617.65 920.85 604 926.3 594.2 930.4 587.1 936.1 583.25 942.9 578.75 952.4 582.25 961.95 585.7 958.85 627.05 957.05 650.05 955.6 678.35 954.6380859375 697.252734375 953.75 719.95
L 1003.15 719.95
Q 996.8798828125 662.3365234375 979.15 609 1005.5 589.7 1027 566.1 1032.85 559.8 1035.6 554.7 1039.25 547.8 1038.15 541.5 1037.451953125 537.511328125 1034.75 534
L 1034.75 534
Q 1029.6 527.2 1017.25 522 1004.6 516.7 992.45 513.75 991.987109375 513.637890625 991.5 513.5 991.4404296875 513.505078125 991.35 513.45 977.278515625 510.19453125 963.85 510.05 934 509.75 914.5 525.75 Z"/>

<path fill="#FDB48F" stroke="none" d="
M 803.15 379.5
Q 803.073046875 379.658203125 803 379.8 800.5736328125 385.009765625 801.35 390.25 802 394.7 804.85 398.6 807.6 402.35 811.75 404.75 819.25 409.15 829.5 408.75 839.65 408.4 849.55 403.45 855.15 399.95 856.75 392.85 857.7 388.25 856.75 380.35 855.95 374.55 853.15 372.45 840.6255859375 366.6478515625 831.35 365.85 825.5 365.4 820.3 366.55 814.55 367.85 810.25 371 805.6 374.35 803.15 379.5 Z"/>

<path fill="#7A4425" stroke="none" d="
M 758 160.85
Q 743.7 162.6 736.25 170.75 731.9 175.4 730.8 181.65 729.65 188.15 732.75 193.25 735.9 198.35 742.55 200.45 748.75 202.35 755.25 200.85 760.633984375 199.664453125 766.7 196.1 765.240234375 198.23046875 764.05 200.55 759.9 208.6 760 216.85 760.1 225.5 765.15 232.8 770.4 240.4 778.35 242.6 785.616796875 244.5962890625 795.3 242.05 797.7513671875 241.4265625 800.35 240.5 811.75 236.25 821.75 228.8 831.1875 221.7337890625 838.3 212.5 804.9802734375 186.7283203125 772.2 160.05 771.215234375 160.078515625 770.15 160.1 762.65 160.2 758 160.85
M 1036.25 317.2
Q 1023.98515625 318.978125 1013.45 317.7 999.6248046875 342.0498046875 993 365.75 987.972265625 383.7384765625 987.1 401.1
L 987.15 406.55
Q 987.2658203125 412.012109375 988.2 419.35 989.1294921875 426.746875 990.9 431.8 992.6619140625 436.853515625 995 438.35 997.3416015625 439.8912109375 1000.65 439.3 1004.0041015625 438.7587890625 1006 434 1007.998046875 429.2955078125 1008.85 423.35 1009.186328125 420.8984375 1009.35 418.8 1010.5140625 423.4125 1011.75 426.55 1013.45 430.95 1015.85 434 1018.6 437.55 1022.45 439.5 1026.55 441.55 1030.6 441.1 1034.75 440.65 1038.3 437.6 1041.55 434.7 1043.25 430.5 1046.1 423.2 1043.75 413.5 1042.6466796875 408.5537109375 1040.1 402.65 1047 393.05 1059 390.55 1070.7 388.05 1081 393.1 1090.9 397.95 1097.05 408.3 1102.9 418.2 1103.5 429.75 1104.05 440.6 1099.95 451.75 1096.1 462.05 1088.85 471.35 1079.4 483.6 1067.6 488.6 1056.95 493.2 1044.8 491.1 1033.0537109375 489.0041015625 1024.55 481.4 1008.8404296875 498.437890625 991.5 513.5 991.987109375 513.637890625 992.45 513.75 1004.6 516.7 1017.25 522 1029.6 527.2 1034.75 534
L 1034.75 534
Q 1046.155859375 534.4001953125 1058.05 532.4 1076.9572265625 529.291796875 1092.1 518 1107.2880859375 506.7017578125 1115.95 489.9 1123.624609375 475.0666015625 1125.6 458.9 1125.862109375 465.1884765625 1129.1 471 1131.2 474.65 1134.2 476.8 1137.7 479.3 1141.35 478.85 1146.6939453125 478.3990234375 1152.45 470.45 1158.21640625 462.5048828125 1159.35 450.45 1160.4751953125 438.4376953125 1157.25 418 1154.5771484375 400.730859375 1141.55 382.15 1143.6369140625 383.70234375 1147.65 386.25 1151.655859375 388.84609375 1155 390.15 1158.398828125 391.4517578125 1162.35 391.35 1166.9 391.2 1169.6 388.5 1173.3 384.65 1172.35 376.6 1171.1 367.8 1164.75 360.15 1158.75 352.95 1150.1 348.85 1137.1150390625 342.6029296875 1118.35 343.3 1116.2771484375 343.4087890625 1114.1 343.55 1113.9927734375 343.4953125 1113.85 343.4 1084.176171875 325.554296875 1056.95 309.2
L 1057 309.25
Q 1048.512890625 315.43125 1036.25 317.2 Z"/>

<path fill="#534E36" stroke="none" d="
M 718 115
Q 705.348046875 110.616796875 693.5 108.1 679.1 105.05 667.75 106.8 653.7 108.95 646.75 118.25 640.3 126.7 641.25 139.4 642.1 150.25 647.85 161.75 657.1900390625 180.010546875 671.85 195.2 686.5158203125 210.433203125 710.15 228.45 733.7833984375 246.51796875 751.7 256 769.6611328125 265.4861328125 788.8 271 789.290234375 263.27578125 790.85 256.6 792.3009765625 250.4189453125 795.3 242.05 785.616796875 244.5962890625 778.35 242.6 770.4 240.4 765.15 232.8 760.1 225.5 760 216.85 759.9 208.6 764.05 200.55 765.240234375 198.23046875 766.7 196.1 760.633984375 199.664453125 755.25 200.85 748.75 202.35 742.55 200.45 735.9 198.35 732.75 193.25 729.65 188.15 730.8 181.65 731.9 175.4 736.25 170.75 743.7 162.6 758 160.85 762.65 160.2 770.15 160.1 771.215234375 160.078515625 772.2 160.05 744.898046875 137.846484375 718 115 Z"/>

<path fill="#695A3E" stroke="none" d="
M 1013.45 317.7
Q 1023.98515625 318.978125 1036.25 317.2 1048.512890625 315.43125 1057 309.25
L 1056.85 309.15 1055.95 308.55
Q 993.6556640625 271.112890625 956.4 248.85 870.6546875 197.5970703125 801.05 156.85 799.0193359375 155.6806640625 797 154.5 765.1 135.75 746.95 127.05 731.9837890625 119.88203125 718 115 744.898046875 137.846484375 772.2 160.05 804.9802734375 186.7283203125 838.3 212.5 880.51875 247.947265625 913.75 271.55 946.9677734375 295.2021484375 963.15 303.45 979.33359375 311.709765625 991.7 314.3 1004.119140625 316.8841796875 1013.45 317.7
M 1091.9 155.15
Q 1091.5041015625 154.9091796875 1091.1 154.65 1098.5451171875 187.5517578125 1093.35 220.55 1091.7533203125 227.63203125 1089.9 234.9 1082.517578125 263.8419921875 1069.25 289.4 1065.421484375 296.78984375 1062.5 301.2 1059.6353515625 305.6544921875 1057.65 308.2 1057.32109375 308.70703125 1056.95 309.2 1084.176171875 325.554296875 1113.85 343.4 1113.9927734375 343.4953125 1114.1 343.55 1116.2771484375 343.4087890625 1118.35 343.3 1124.6021484375 331.3111328125 1136.55 309.85 1148.499609375 288.369140625 1153.85 272.9 1159.194921875 257.494921875 1159.6 237.85 1160.05546875 218.246484375 1152.3 205.05 1144.548046875 191.851953125 1132.15 182 1126.3357421875 177.378515625 1096.85 158.35 1094.4560546875 156.8044921875 1091.9 155.15
M 866.2 128.5
L 878.45 146.3 870.65 168.2
Q 869.4640625 170.8435546875 869.1 171.8 868.7494140625 172.752734375 868.75 173.3 868.7443359375 173.84453125 869 174.1 869.306640625 174.4046875 869.65 174.5 870.04765625 174.5984375 870.6 174.5 873.15 173.8 875.5 172.4
L 897.7 161.85 915 180.1
Q 915.2427734375 180.4958984375 915.65 180.9 916.0451171875 181.3470703125 916.85 182.25 917.6564453125 183.1609375 918.5 183.35 919.34609375 183.54375 919.85 183.35 920.4041015625 183.1630859375 920.75 182.45 921.0935546875 181.7724609375 921.2 180.1 921.3107421875 178.4763671875 921.35 177.5
L 921.4 155 942 143.35
Q 943.2544921875 142.4416015625 943.35 141.75 943.4947265625 141.1078125 942.45 140.6 941.4548828125 140.14375 940.7 139.8 939.93828125 139.4669921875 939.35 139.25 938.8107421875 139.0240234375 938.6 138.95
L 918.25 131.5 914.55 111.1 914.45 110.8 914.05 107.35
Q 913.7451171875 105.1302734375 913.3 104.5 912.912109375 103.9265625 911.85 103.95 910.83046875 103.969921875 909.1 106.05 907.371484375 108.1763671875 906.45 109.1
L 889.65 125.7 870.25 125.7
Q 867.221875 125.5828125 866.25 125.7 865.2880859375 125.8146484375 865.15 126.35 865.0505859375 126.88515625 866.2 128.5 Z"/>

<path fill="#69583E" stroke="none" d="
M 1103.1 143
Q 1102.35 134.85 1095 125 1085.7 112.4 1076.1 109.35 1067.1 106.45 1057.9 110.95 1048.7 115.45 1045.4 124.4 1064.51171875 137.5994140625 1085.55 151.1 1088.3908203125 152.904296875 1091.05 154.6 1091.0802734375 154.61953125 1091.1 154.65 1091.5041015625 154.9091796875 1091.9 155.15 1094.4560546875 156.8044921875 1096.85 158.35 1099.6859375 156.3740234375 1101.4 152.8 1103.6 148.2 1103.1 143 Z"/>

<path fill="#A7976E" stroke="none" d="
M 1045.4 124.4
Q 1028.471875 112.6935546875 1013.05 101.2 980.30859375 76.8107421875 975.55 73.75 970.8255859375 70.694140625 963.6 68 956.3935546875 65.3107421875 949.8 65.05 943.2439453125 64.8376953125 914.15 67.6 885.05 70.4001953125 841 87.35 829.45 91.85 822.5 96.1 812.902734375 101.950390625 807.8 110.3 802.6888671875 118.647265625 802.2 130.05 801.7171875 141.505078125 801.05 156.85 870.6546875 197.5970703125 956.4 248.85 993.6556640625 271.112890625 1055.95 308.55
L 1056.85 309.15
Q 1057.26015625 308.67265625 1057.65 308.2 1063.7271484375 299.030078125 1069.25 289.4 1082.517578125 263.8419921875 1089.9 234.9 1091.7533203125 227.63203125 1093.35 220.55 1098.5451171875 187.5517578125 1091.1 154.65 1091.0802734375 154.61953125 1091.05 154.6 1088.3908203125 152.904296875 1085.55 151.1 1064.51171875 137.5994140625 1045.4 124.4
M 878.45 146.3
L 866.2 128.5
Q 865.0505859375 126.88515625 865.15 126.35 865.2880859375 125.8146484375 866.25 125.7 867.221875 125.5828125 870.25 125.7
L 889.65 125.7 906.45 109.1
Q 907.371484375 108.1763671875 909.1 106.05 910.83046875 103.969921875 911.85 103.95 912.912109375 103.9265625 913.3 104.5 913.7451171875 105.1302734375 914.05 107.35
L 914.45 110.8 914.55 111.1 918.25 131.5 938.6 138.95
Q 938.8107421875 139.0240234375 939.35 139.25 939.93828125 139.4669921875 940.7 139.8 941.4548828125 140.14375 942.45 140.6 943.4947265625 141.1078125 943.35 141.75 943.2544921875 142.4416015625 942 143.35
L 921.4 155 921.35 177.5
Q 921.3107421875 178.4763671875 921.2 180.1 921.0935546875 181.7724609375 920.75 182.45 920.4041015625 183.1630859375 919.85 183.35 919.34609375 183.54375 918.5 183.35 917.6564453125 183.1609375 916.85 182.25 916.0451171875 181.3470703125 915.65 180.9 915.2427734375 180.4958984375 915 180.1
L 897.7 161.85 875.5 172.4
Q 873.15 173.8 870.6 174.5 870.04765625 174.5984375 869.65 174.5 869.306640625 174.4046875 869 174.1 868.7443359375 173.84453125 868.75 173.3 868.7494140625 172.752734375 869.1 171.8 869.4640625 170.8435546875 870.65 168.2
L 878.45 146.3 Z"/>
</g>

<g id="Layer0_0_FILL">
<path fill="#000000" stroke="none" d="
M 434.45 288.3
Q 432.1 290.9 432.1 294.6 432.1 298.3 434.45 300.9 436.8 303.5 440.1 303.5 443.4 303.5 445.75 300.9 448.1 298.3 448.1 294.6 448.1 290.9 445.75 288.3 443.4 285.7 440.1 285.7 436.8 285.7 434.45 288.3
M 498.55 284.7
Q 496.15 287.35 496.15 291.1 496.15 294.85 498.55 297.5 501 300.15 504.45 300.15 507.9 300.15 510.3 297.5 512.75 294.85 512.75 291.1 512.75 287.35 510.3 284.7 507.9 282.05 504.45 282.05 501 282.05 498.55 284.7
M 852.95 327.45
Q 852.7244140625 327.45 852.5 327.45 850.7 334.2982421875 850.7 341.85 850.7 345.8248046875 851.25 349.65 852.06953125 349.85 852.95 349.85 856.85 349.85 859.6 346.55 862.35 343.3 862.35 338.65 862.35 334 859.6 330.7 856.85 327.45 852.95 327.45
M 776.7 319.6
Q 774.808984375 317.4064453125 772.3 316.85 771.25 322.4982421875 771.25 328.6 771.25 332.6189453125 771.7 336.4 774.583203125 336.05546875 776.7 333.6 779.2 330.7 779.2 326.6 779.2 322.5 776.7 319.6 Z"/>

<path fill="#695A3E" stroke="none" d="
M 1057.65 308.2
Q 1059.6353515625 305.6544921875 1062.5 301.2 1065.421484375 296.78984375 1069.25 289.4 1063.7271484375 299.030078125 1057.65 308.2 Z"/>

<path fill="#A7976E" stroke="none" d="
M 1057 309.25
L 1056.95 309.2
Q 1057.32109375 308.70703125 1057.65 308.2 1057.26015625 308.67265625 1056.85 309.15
L 1057 309.25 Z"/>
</g>

<path id="Layer0_0_1_STROKES" stroke="#000000" stroke-width="1" stroke-linejoin="round" stroke-linecap="round" fill="none" d="
M 772.325 316.875
Q 775.2375 301.4779296875 786.15 289.65 787.987109375 287.6654296875 789.925 285.925 788.275 278.1716796875 788.8 271 769.6611328125 265.4861328125 751.725 256 733.7833984375 246.51796875 710.15 228.475 686.5158203125 210.433203125 671.85 195.225 657.1900390625 180.010546875 647.85 161.75 642.1 150.25 641.25 139.4 640.3 126.7 646.75 118.25 653.7 108.95 667.75 106.8 679.1 105.05 693.5 108.1 705.348046875 110.616796875 718 115.025 731.9837890625 119.88203125 746.95 127.05 765.1 135.75 797 154.5 799.0193359375 155.6806640625 801.05 156.875 801.7171875 141.505078125 802.2 130.075 802.6888671875 118.647265625 807.8 110.3 812.902734375 101.950390625 822.5 96.1 829.45 91.85 841 87.35 885.05 70.4001953125 914.15 67.625 943.2439453125 64.8376953125 949.825 65.075 956.3935546875 65.3107421875 963.6 68 970.8255859375 70.694140625 975.575 73.75 980.30859375 76.8107421875 1013.075 101.225 1028.471875 112.6935546875 1045.4 124.4 1048.7 115.45 1057.9 110.95 1067.1 106.45 1076.1 109.35 1085.7 112.4 1095 125 1102.35 134.85 1103.1 143 1103.6 148.2 1101.4 152.8 1099.6859375 156.3740234375 1096.85 158.35 1126.3357421875 177.378515625 1132.15 182 1144.548046875 191.851953125 1152.3 205.05 1160.05546875 218.246484375 1159.625 237.875 1159.194921875 257.494921875 1153.85 272.925 1148.499609375 288.369140625 1136.55 309.85 1124.6021484375 331.3111328125 1118.35 343.325 1137.1150390625 342.6029296875 1150.1 348.85 1158.75 352.95 1164.75 360.15 1171.1 367.8 1172.35 376.6 1173.3 384.65 1169.6 388.5 1166.9 391.2 1162.35 391.35 1158.398828125 391.4517578125 1155.025 390.15 1151.655859375 388.84609375 1147.65 386.275 1143.6369140625 383.70234375 1141.575 382.15 1154.5771484375 400.730859375 1157.275 418 1160.4751953125 438.4376953125 1159.35 450.475 1158.21640625 462.5048828125 1152.45 470.45 1146.6939453125 478.3990234375 1141.35 478.85 1137.7 479.3 1134.2 476.8 1131.2 474.65 1129.1 471 1125.862109375 465.1884765625 1125.6 458.925 1123.624609375 475.0666015625 1115.95 489.925 1107.2880859375 506.7017578125 1092.125 518 1076.9572265625 529.291796875 1058.05 532.425 1046.155859375 534.4001953125 1034.775 534.025 1037.451953125 537.511328125 1038.15 541.5 1039.25 547.8 1035.6 554.7 1032.85 559.8 1027 566.1 1005.5 589.7 979.15 609 996.9490234375 662.54453125 1003.225 720.4
M 1045.4 124.4
Q 1064.51171875 137.5994140625 1085.575 151.1 1088.3908203125 152.904296875 1091.05 154.6 1091.0802734375 154.61953125 1091.1 154.65 1091.5041015625 154.9091796875 1091.9 155.175 1094.4560546875 156.8044921875 1096.85 158.35
M 1095.1 175.7
Q 1095 173.15 1094.65 170.85 1093.3 162.65 1091.1 154.65
M 1079.6 267.6
Q 1084.6513671875 254.3703125 1087.05 246.375 1089.4486328125 238.3796875 1089.7 237.5
M 718 115.025
Q 744.898046875 137.846484375 772.2 160.05 804.9802734375 186.7283203125 838.325 212.5 880.51875 247.947265625 913.75 271.575 946.9677734375 295.2021484375 963.15 303.45 979.33359375 311.709765625 991.725 314.3 1004.119140625 316.8841796875 1013.45 317.7 1023.98515625 318.978125 1036.25 317.2 1048.512890625 315.43125 1057 309.25
L 1056.85 309.15 1055.95 308.575
Q 993.6556640625 271.112890625 956.4 248.85 870.6546875 197.5970703125 801.05 156.875 801.076171875 157.1095703125 801.1 157.35
M 1013.45 317.7
Q 999.6248046875 342.0498046875 993 365.75 987.972265625 383.7384765625 987.1 401.1
L 987.175 406.575
Q 987.2658203125 412.012109375 988.2 419.375 989.1294921875 426.746875 990.9 431.8 992.6619140625 436.853515625 995 438.375 997.3416015625 439.8912109375 1000.675 439.325 1004.0041015625 438.7587890625 1006 434.025 1007.998046875 429.2955078125 1008.85 423.35 1009.186328125 420.8984375 1009.375 418.825 1009.3943359375 418.59140625 1009.4 418.375 1009.48203125 417.4564453125 1009.525 416.625 1009.669140625 413.7279296875 1009.4 410.7
M 1056.975 309.225
Q 1084.176171875 325.554296875 1113.85 343.425 1113.9927734375 343.4953125 1114.125 343.575 1116.2771484375 343.4087890625 1118.35 343.325
M 1057 309.25
L 1056.975 309.225
M 1056.85 309.15
Q 1057.26015625 308.67265625 1057.675 308.2 1059.6353515625 305.6544921875 1062.525 301.225 1065.421484375 296.78984375 1069.25 289.4
M 1038.35 398.85
Q 1039.294140625 400.7982421875 1040.1 402.65 1047 393.05 1059 390.55 1070.7 388.05 1081 393.1 1090.9 397.95 1097.05 408.3 1102.9 418.2 1103.5 429.75 1104.05 440.6 1099.95 451.75 1096.1 462.05 1088.85 471.35 1079.4 483.6 1067.6 488.6 1056.95 493.2 1044.8 491.1 1033.0537109375 489.0041015625 1024.55 481.4 1008.8404296875 498.437890625 991.525 513.525 991.987109375 513.637890625 992.45 513.75 1004.6 516.7 1017.25 522 1029.6 527.2 1034.75 534.025
L 1034.775 534.025
M 1136.45 375.3
Q 1139.1798828125 378.7474609375 1141.575 382.15
M 1093.35 220.55
Q 1096.55 206.55 1095.9 191.95
M 889.65 125.7
L 906.45 109.1
Q 907.371484375 108.1763671875 909.1 106.075 910.83046875 103.969921875 911.875 103.95 912.912109375 103.9265625 913.325 104.525 913.7451171875 105.1302734375 914.05 107.35
L 914.475 110.825 914.55 111.1 918.25 131.5 938.625 138.95
Q 938.8107421875 139.0240234375 939.375 139.25 939.93828125 139.4669921875 940.7 139.8 941.4548828125 140.14375 942.475 140.625 943.4947265625 141.1078125 943.375 141.775 943.2544921875 142.4416015625 942 143.35
L 921.4 155 921.35 177.5
Q 921.3107421875 178.4763671875 921.2 180.125 921.0935546875 181.7724609375 920.75 182.475 920.4041015625 183.1630859375 919.875 183.35 919.34609375 183.54375 918.5 183.35 917.6564453125 183.1609375 916.85 182.25 916.0451171875 181.3470703125 915.65 180.925 915.2427734375 180.4958984375 915 180.1
L 897.7 161.85 875.5 172.4
Q 873.15 173.8 870.6 174.5 870.04765625 174.5984375 869.675 174.5 869.306640625 174.4046875 869.025 174.125 868.7443359375 173.84453125 868.75 173.3 868.7494140625 172.752734375 869.1 171.8 869.4640625 170.8435546875 870.65 168.2
L 878.45 146.3 866.225 128.5
Q 865.0505859375 126.88515625 865.175 126.35 865.2880859375 125.8146484375 866.25 125.7 867.221875 125.5828125 870.25 125.7
L 889.65 125.7 Z
M 772.2 160.05
Q 771.215234375 160.078515625 770.15 160.1 762.65 160.2 758 160.85 743.7 162.6 736.25 170.75 731.9 175.4 730.8 181.65 729.65 188.15 732.75 193.25 735.9 198.35 742.55 200.45 748.75 202.35 755.25 200.85 760.633984375 199.664453125 766.7 196.1 770.025390625 191.2103515625 774.75 187.25
M 766.7 196.1
Q 765.240234375 198.23046875 764.05 200.55 759.9 208.6 760 216.85 760.1 225.5 765.15 232.8 770.4 240.4 778.35 242.6 785.616796875 244.5962890625 795.3 242.075 797.7513671875 241.4265625 800.35 240.5 811.75 236.25 821.75 228.8 831.1875 221.7337890625 838.325 212.5
M 795.3 242.075
Q 792.3009765625 250.4189453125 790.85 256.6 789.290234375 263.27578125 788.8 271
M 772.325 316.875
Q 774.808984375 317.4064453125 776.7 319.6 779.2 322.5 779.2 326.6 779.2 330.7 776.7 333.6 774.583203125 336.05546875 771.725 336.425 772.6986328125 344.5302734375 775.775 351.7 779.454296875 360.292578125 786.15 367.55 793.7693359375 375.7810546875 803 379.825 803.073046875 379.658203125 803.15 379.5 805.6 374.35 810.25 371 814.55 367.85 820.3 366.55 825.5 365.4 831.35 365.85 840.6255859375 366.6478515625 853.175 372.475 854.812109375 371.0939453125 856.375 369.55 856.944921875 368.9828125 857.5 368.4 852.6298828125 359.415625 851.25 349.675 850.7 345.8248046875 850.7 341.85 850.7 334.2982421875 852.5 327.45 856.1787109375 313.519921875 867.35 302.55 867.246875 302.3634765625 867.15 302.175 863.698828125 295.4822265625 858.3 289.65 843.4 273.5 822.25 273.5 803.698828125 273.5 789.925 285.925
M 771.725 336.425
Q 771.25 332.6189453125 771.25 328.6 771.25 322.4982421875 772.325 316.875
M 803 379.825
Q 800.5736328125 385.009765625 801.35 390.25 802 394.7 804.85 398.6 807.6 402.35 811.75 404.75 819.25 409.15 829.5 408.75 839.65 408.4 849.55 403.45
M 775.775 351.7
Q 759.8 363.95 749.25 380.6 738.9 397 734.25 415.65 729.45 434.65 731.35 453 733.35 472.35 742.5 488.5 746.4392578125 495.4458984375 751.6 501.775 760.02421875 512.0783203125 771.7 520.75 788.4337890625 533.1470703125 808.375 540.325 808.702734375 540.4357421875 809.025 540.55 829.3400390625 547.758984375 849.425 552.125 866.411328125 555.8142578125 892.2 554.9 896.3 547.25 900.3 541.55 906.9 532.05 914.5 525.75 934 509.75 963.85 510.05 977.278515625 510.19453125 991.35 513.475 991.4404296875 513.505078125 991.525 513.525
M 809.35 248.35
Q 816.25 242.65 825.65 241.85 835.1 241 842.75 245.5
M 867.35 302.55
Q 867.9 301.95 868.2 301.6 868.5 301.3 868.8 301.05 885.35 284.8 908.65 284.8 932.25 284.8 948.95 301.6 957.1642578125 309.86328125 961.35 319.8 965.7 330.14609375 965.7 342.3 965.7 354.45390625 961.35 364.8 957.1642578125 374.73671875 948.95 383 932.25 399.85 908.65 399.85 894.95 399.85 883.55 394.15 882.7 393.7 881.85 393.3 874.55 389.35 868.3 383 862.25 376.9 858.3 369.85 857.95 369.25 857.65 368.65 857.57890625 368.520703125 857.5 368.4
M 852.5 327.45
Q 852.7244140625 327.45 852.95 327.45 856.85 327.45 859.6 330.7 862.35 334 862.35 338.65 862.35 343.3 859.6 346.55 856.85 349.85 852.95 349.85 852.06953125 349.85 851.25 349.675
M 916.35 411
Q 930.4 412.5 943.65 405.45 956.85 398.4 963.6 385.85
M 845.85 434.25
Q 849.75 430.05 855.05 427.4 860.25 424.8 866 424.1 871.7 423.45 877.45 424.9 883.15 426.35 887.85 429.6
M 906.95 720.4
Q 906.74921875 702.6625 908.8 682.35 909.15 678.6 909.7 673.85 911.15 661.65 913.6 642.6 915.8 626.05 917.7 617.65 920.85 604 926.3 594.2 930.4 587.1 936.1 583.25 942.9 578.75 952.4 582.25 961.95 585.7 958.85 627.05 957.05 650.05 955.6 678.35 954.628515625 697.440234375 953.75 720.4
M 892.2 554.9
Q 890.85 557.4 889.5 560.1 879.562109375 580.5376953125 872.7 604.7 867.9677734375 621.3875 864.7 639.85 858.847265625 672.8552734375 856.525 720.4
M 751.6 501.775
Q 745.4103515625 506.3458984375 741.35 511.5 737.2861328125 516.649609375 740.625 524 743.970703125 531.353515625 748.3 536.825 752.6306640625 542.298046875 762.275 551.8 771.9162109375 561.294140625 780.475 570.45 781.1169921875 571.1357421875 781.725 571.825 781.915234375 572.0376953125 782.1 572.25 789.2546875 580.5884765625 791.2 589.65 793.3443359375 599.703125 791.825 608.6 790.3033203125 617.49765625 787.1 630.1 785.398828125 636.7158203125 783.35 644.725 776.100390625 673.0291015625 764.325 720.4
M 781.725 571.825
Q 772.7927734375 604.7322265625 765.125 637.85 768.4494140625 642.1259765625 774.6 644 778.6923828125 645.051171875 783.35 644.725
M 765.125 637.85
Q 755.774609375 678.15078125 748.1 720.4
M 909.7 673.85
Q 932.65 678.1 955.6 678.35
M 808.375 540.325
Q 813.80390625 563.904296875 816.2 587.925 820.8734375 596.8623046875 827.95 602.85 835.85 609.55 844.85 610.85 852.95 612 862.7 608.8 866.6943359375 607.4904296875 872.7 604.7
M 816.2 587.925
Q 817.691796875 602.926953125 818 618.1 822.6 627.45 831.05 634.1 839.45 640.75 849.6 643
M 818 618.1
Q 818.16875 626.17578125 818 634.3 817.0990234375 677.68125 807.15 720.4
M 1126 454.75
Q 1125.841796875 456.8501953125 1125.6 458.925
M 1009.375 418.825
Q 1010.5140625 423.4125 1011.75 426.55 1013.45 430.95 1015.85 434 1018.6 437.55 1022.45 439.5 1026.55 441.55 1030.6 441.1 1034.75 440.65 1038.3 437.6 1041.55 434.7 1043.25 430.5 1046.1 423.2 1043.75 413.5 1042.6466796875 408.5537109375 1040.1 402.65
M 505.25 186.25
Q 512.25 185.15 519.4 186.9 526.5 188.7 532.25 193
M 364.25 272.35
Q 368.4 275.9 373.6 277.8 378.8 279.7 384.25 279.6
L 384.275 279.6
Q 386.8763671875 275.7603515625 390.25 272.25 405.05 256.85 426 256.85 437.426953125 256.85 447.025 261.425 467.546875 232.8115234375 479.5 199.05 491.75 164.5 493.7 126.3 511.5 138.6 524 155.85 536.55 173.2 543.1 193.1 546.8515625 204.5267578125 548.5 216.425 561.3765625 207.146875 562.65 181.55 563.9326171875 155.9505859375 553.475 133.575 543.0041015625 111.1998046875 521.65 95.25 501.85 80.5 476.5 73.1 454.3 66.65 427.15 65.55 405.65 64.65 376.85 67.1 329.5 71.25 292.55 81.9 288.241796875 83.1392578125 284.05 84.475 269.3798828125 112.3484375 261.65 145.2 253.95 177.75 253.35 213.6 252.5955078125 271.3611328125 270.15 341.125 277.60703125 343.3341796875 284.2 348.25 294.8431640625 356.1873046875 299.9 370.55 342.611328125 356.5 378.35 327.4 375.45 319.0220703125 375.45 309.4 375.45 301.0990234375 377.6 293.725 372.47421875 294.0484375 367.8 293 361.9 291.75 357.5 288.5
M 391.25 194.35
Q 396.05 187.9 405.1 185.35 413 183.15 421.85 185
M 448.1 294.6
Q 448.1 298.3 445.75 300.9 443.4 303.5 440.1 303.5 436.8 303.5 434.45 300.9 432.1 298.3 432.1 294.6 432.1 290.9 434.45 288.3 436.8 285.7 440.1 285.7 443.4 285.7 445.75 288.3 448.1 290.9 448.1 294.6 Z
M 447.025 261.425
Q 455.0224609375 265.2498046875 461.75 272.25 464.3052734375 274.9087890625 466.425 277.75 469.197265625 273.602734375 472.95 269.85 487.4 255.4 507.8 255.4 528.2 255.4 542.65 269.85 543.7201171875 270.9201171875 544.7 272.025 549.8908203125 253.6849609375 549.8 234.4 549.7359375 225.2787109375 548.5 216.425
M 377.6 293.725
Q 379.8125 286.177734375 384.275 279.6
M 478.7 370.35
Q 484.55 373.1 491.2 373.7 497.75 374.35 504.1 372.85 510.65 371.35 514.1 367.75 517.5 364.45 518.05 359.35 518.3798828125 356.1173828125 517.475 353.125 516.999609375 351.5802734375 516.2 350.1 514 346 509.8 343.1 505.7 340.3 500.7 339.25 492.1 337.4 481.15 340.6 478.45 341.3 475.95 342.4 474.4 341 472.95 339.55 471.2306640625 337.8306640625 469.725 336.025 466.4931640625 341.6146484375 461.75 346.55 446.95 361.95 426 361.95 405.05 361.95 390.25 346.55 381.9974609375 337.962890625 378.35 327.4
M 466.425 277.75
Q 476.55 291.4052734375 476.55 309.4 476.55 324.1794921875 469.725 336.025
M 410.5 372.6
Q 411.59140625 377.7248046875 410.975 382.975 415.3 381.2 421.1 381.8 423.95 382.1 431.25 383.85 450 388.35 469.45 388.55 488.9 388.75 507.75 384.6 512.4 383.55 514.6 383.4 518.45 383.05 521.35 384.1 524.55 385.3 526.8 388.35 528.95 391.25 529.6 394.85 530.85 401.1 527.9 407.6 525.15 413.7 519.75 418.1 511.15 424.95 495.35 427.85 478.1 431.15 460.65 430.2 443 429.2 426.5 423.85 416.35 420.6 409.9 415.2 402.84453125 409.30546875 401.9 402.025 401.5517578125 402.3615234375 401.2 402.7 397.25 406.55 392.25 409
M 401.9 402.025
Q 405.4109375 398.4236328125 407.6 394 410.15 389.15 410.9 383.55 410.93828125 383.2671875 410.975 382.975
M 563.6 270.85
Q 562 274.75 558.5 277.25 554.95 279.8 550.625 280.075 553.50859375 284.9642578125 555.1 290.375 559.323828125 291.62421875 565.1 289.6 567.2 288.8 569.75 287.3 570.7 286.7 574.1 284.5
M 512.75 291.1
Q 512.75 294.85 510.3 297.5 507.9 300.15 504.45 300.15 501 300.15 498.55 297.5 496.15 294.85 496.15 291.1 496.15 287.35 498.55 284.7 501 282.05 504.45 282.05 507.9 282.05 510.3 284.7 512.75 287.35 512.75 291.1 Z
M 544.7 272.025
Q 548.1421875 275.8517578125 550.625 280.075
M 270.15 341.125
Q 264.7322265625 339.51875 258.85 339.35 250.868359375 339.0501953125 243.55 341.4 241.1177734375 342.3224609375 238.75 343.45 228.8 348.15 223.6 356.75 219.05 364.15 218.35 373.9 217.75 382.7 220.25 392.1 223.45 404.2 230.5 414 237.95 424.35 248.25 430 258.95 436 271.45 435.85 284.35 435.7 294.65 429.55 309.6041015625 447.1404296875 327.775 460.5 328.3525390625 460.9109375 328.925 461.325 349.2443359375 476.0078125 373.55 485.45 383.821875 489.43359375 394.175 492.325 418.5236328125 499.1318359375 443.3 499.9 455.9693359375 500.28828125 468.75 499.1 487.683984375 497.391796875 503.8 492.35 504.4986328125 492.13125 505.2 491.9 521.7306640625 486.5380859375 535.25 477.6 550.4 467.55 560.65 453.2 571.4 438.15 574.5 421.25 578.35 399.95 570.05 375.35 563.5560546875 356.16796875 548.525 332.6 545.970703125 336.229296875 542.65 339.55 531.75546875 350.44453125 517.475 353.125
M 555.1 290.375
Q 557.1 297.1310546875 557.1 304.7 557.1 320.4119140625 548.525 332.6
M 196.1 109.25
Q 186.9 113.85 182.2 117.35 179.505859375 119.3470703125 177.4 121.5 173.9384765625 125.08046875 172.1 129.1 170.3 133 170.35 136.9 170.4 141.2 172.75 144.25 174.55 146.6 177.6 147.95 180.4 149.15 183.75 149.35 185.225390625 149.4359375 186.475 149.275 188.0638671875 146.8298828125 189.75 144.45 201.282421875 128.196875 215.6 117.25 223.9671875 111.4720703125 233.075 106.35 236.754296875 104.27578125 240.55 102.3 229.7 95.1 217.3 92.15 205.1 89.2 192.6 90.35 177 91.55 165.35 98.85 160.6 101.8 158.1 105.9 155.2 110.65 156.75 115 157.75 117.55 160.15 119.35 162.45 121 165.35 121.6 169.3 122.6 177.4 121.5
M 284.05 84.475
Q 263.451953125 91.0119140625 245.45 99.825 245.3294921875 99.886328125 245.2 99.95 222.198828125 157.3978515625 221.8 220.75 221.3529296875 283.939453125 243.55 341.4
M 245.2 99.95
Q 242.854296875 101.1080078125 240.55 102.3
M 186.475 149.275
Q 172.41640625 171.0185546875 166.35 198.25 160.8 223.75 161.45 256.4 161.85 276.3 165.75 315 171.479296875 371.3373046875 182.55 481.7 182.5939453125 482.2650390625 182.65 482.825 183.3421875 487.69609375 183.7 492.25 184.601171875 503.8091796875 183.325 513.275 181.548828125 526.45390625 173.25 536 167.3 542.9 155.25 548.35 141.25 554 134.6 557.35 113.2 568.35 101.5 590.95 89.75 613.55 93.1 637.35 96.6 661.2 114.15 679.6 130.9328125 697.145703125 154.625 700.55 155.6091796875 700.6837890625 156.6 700.8 160.3087890625 694.991015625 165.6 690.75 169.85 687.25 174.8 685.3 180.05 683.25 185.25 683.25 189.55 683.25 191.25 685.25 192.4 686.6 192.45 688.6 192.45 690.45 191.5 692.1 190.05 694.6 185.85 696.75 179.45 699.85 170.65 700.65 165.2826171875 701.137890625 156.8 700.825 156.690234375 700.829296875 156.575 700.825 155.525 702.4771484375 154.6 704.25 150.5923828125 711.88359375 149.9 720.2
M 271.05 720.9
Q 269.7662109375 720.125390625 269.625 720.05 248.866015625 709.0150390625 233.25 683.75 225.3 670.75 221.15 659.25 216.2 645.4 216.35 632.75 216.7 609.65 233.75 586.75 246.45 569.75 270.75 550.35 289.5 535.3 303.6 527 316.28515625 519.5361328125 328.35 515.4 321.4462890625 506.5091796875 318.15 500.45 313.15 491.3 313 482.95 312.75 473.25 319.8 465.75 323.6142578125 461.7349609375 327.775 460.5
M 154.625 700.55
Q 155.6083984375 700.7953125 156.575 700.825
L 156.6 700.8
Q 156.6955078125 700.8130859375 156.8 700.825
M 303.15 721.15
Q 306.2091796875 718.1677734375 308.775 715.7 311.3509765625 713.233203125 317 707.3
M 505.2 491.9
Q 512.4908203125 494.331640625 516.7 502.75 521.4 512.15 519.15 522.2 517.15 531.05 510.5 539.65 509.86640625 540.4673828125 509.2 541.3 523.63671875 555.554296875 532.25 564.75 547.8 581.4 558.75 596.35 570.6 612.4 576.6 626.6 583.95 644.15 583.1 660.25 582.25 678.3 570.1 692.25 558.95625 705.010546875 544.975 707.875 544.959375 707.9833984375 544.95 708.1
L 544.95 708.125
Q 544.8970703125 708.3861328125 544.85 708.65 544.842578125 708.6943359375 544.825 708.75 544.1341796875 712.819921875 542.35 716.75 541.549609375 718.433984375 540.525 720.2
M 509.2 541.3
Q 504.378515625 547.0568359375 496.65 553.65 484.8 563.85 473.95 570.2 472.019140625 571.321484375 470.1 572.325 459.063671875 578.1509765625 448.25 580.45 431.5 583.95 413.15 579.55 410.0078125 578.7970703125 406.9 577.825 406.53203125 577.7115234375 406.175 577.6 392.95390625 573.4099609375 380.4 565.45 373.8416015625 561.3302734375 367.25 556.1 365.91328125 558.8556640625 364.1 562.25
M 354.85 490.1
Q 357.0955078125 492.3982421875 359.45 494.55 370.4970703125 504.6822265625 384.05 511.85 388.628125 514.2712890625 393.325 516.275
L 394.175 492.325
M 367.25 556.1
Q 368.86015625 552.8576171875 369.85 550.45 372.6 543.8 373.35 538 374.15 531.15 372.05 525 369.8 518.35 364.75 514.75 358.787109375 510.541015625 349.25 511 345.09609375 511.1 340.35 512.1 334.4654296875 513.3396484375 328.35 515.4
M 359.45 494.55
Q 355.0001953125 497.85625 352.2 502.85 350.005078125 506.7361328125 349.25 511
M 489.75 514
Q 484.1095703125 516.7005859375 478.25 518.775 478.800390625 519.087890625 479.35 519.5 481.9 521.45 483.1 524.6 485 529.65 483.35 537.1 481.6 546.35 477.2 557 474.7228515625 563.045703125 470.1 572.325
M 443.3 499.9
L 443.3 525.425
Q 449.0205078125 525.198828125 454.8 524.4 466.94296875 522.7546875 478.25 518.775
M 393.325 516.275
Q 402.31484375 520.086328125 411.75 522.35 415.0939453125 523.14453125 418.5 523.75 430.75859375 525.94765625 443.3 525.425
M 411.75 522.35
Q 405.9177734375 526.4974609375 404 538.1 400.649609375 558.1541015625 406.175 577.6
M 337.5 720.5
Q 347.5578125 709.7646484375 356.25 698.25 360.5 692.35 362.65 688.3 363.1546875 687.3412109375 363.6 686.4 363.719921875 686.1439453125 363.825 685.9 365.831640625 681.478125 366.5 677.35 367.55 670.7 365.4 663.45 363.5 657 359.25 650.75 355.75 645.65 350.2 639.85 349.3 638.95 340.1 629.85 336.75 626.75 335.1 624.2 332.75 620.75 332.75 617.35 332.75 615.1 333.85 612.5 334.6 610.7 336.25 608 344.75 593.5 349.4 586.05
M 363.6 686.4
Q 363.4259765625 687.2017578125 363.5 688.2 363.55 688.75 363.85 690.5 365.45 698.65 364.2 707.1 363.25625 713.5171875 360.85 720.65
M 528.5 617.35
Q 516.85 617.45 506.25 623.3 495.6853515625 629.0806640625 489.4 638.775 489.84140625 640.8955078125 490.325 643.05 491.581640625 648.761328125 493.1 654.75 493.3763671875 655.855859375 493.675 657.075 495.809765625 665.456640625 499.4 678.9 508.282421875 685.6041015625 514.25 695.55 518.072265625 701.9943359375 520.15 708.95 521.3740234375 713.015625 522 717.25
M 484.25 584.5
Q 483.56171875 594.5888671875 484.55 606.65 485.2638671875 615.52109375 486.9 625.475 487.957421875 631.8970703125 489.4 638.775
M 499.4 678.9
Q 500.723046875 683.88203125 502.25 689.55 506.5884765625 708.3666015625 507.825 715.975 508.1662109375 718.0841796875 508.15 720.45
M 520.15 708.95
Q 518.735546875 709.2087890625 517.75 709.8 516.85 710.3 516.25 711.25 515.5 712.7 515.5 715.25 515.5 717.7716796875 516.275 720.2
M 545 692
Q 545.38359375 700.390625 544.95 708.1"/>
</defs>

<g transform="matrix( 1, 0, 0, 1, 0,0) ">
<use xlink:href="#Layer2_0_FILL"/>
</g>

<g transform="matrix( 1, 0, 0, 1, 0,0) ">
<use xlink:href="#Layer1_0_FILL"/>
</g>

<g transform="matrix( 1, 0, 0, 1, 0,0) ">
<use xlink:href="#Layer0_0_FILL"/>

<use xlink:href="#Layer0_0_1_STROKES"/>
</g>
</svg>
