
<svg xmlns="http://www.w3.org/2000/svg" version="1.1" xmlns:xlink="http://www.w3.org/1999/xlink" preserveAspectRatio="none" x="0px" y="0px" width="1280px" height="720px" viewBox="0 0 1280 720">
<defs>
<g id="Layer2_0_FILL">
<path fill="#FFFFFF" stroke="none" d="
M 1280 720
L 1280 0 0 0 0 720 1280 720 Z"/>
</g>

<g id="Layer0_0_FILL">
<path fill="#000000" stroke="none" d="
M 572.05 620.85
Q 573.2 615.7 571.35 609.45 569.5 603.15 565.75 599.35 561.95 595.65 558.5 596.65 555 597.7 553.9 602.85 552.75 608.1 554.6 614.4 556.45 620.65 560.2 624.35 564 628.15 567.5 627.1 570.95 626.1 572.05 620.85
M 639.2 579.6
Q 636.1 579.6 633.85 585.15 631.6 590.75 631.6 598.6 631.6 606.45 633.85 612 636.1 617.6 639.2 617.6 642.35 617.6 644.6 612 646.8 606.45 646.8 598.6 646.8 590.75 644.6 585.15 642.35 579.6 639.2 579.6
M 553.4 328.1
Q 556.9 321.85 556.9 312.95 556.9 304.1 553.4 297.8 549.9 291.6 544.95 291.6 540 291.6 536.55 297.8 533.05 304.1 533.05 312.95 533.05 321.85 536.55 328.1 540 334.35 544.95 334.35 549.9 334.35 553.4 328.1
M 704.3 288.3
Q 699.35 288.3 695.9 294.5 692.4 300.8 692.4 309.65 692.4 318.55 695.9 324.8 699.35 331.05 704.3 331.05 709.25 331.05 712.75 324.8 716.25 318.55 716.25 309.65 716.25 300.8 712.75 294.5 709.25 288.3 704.3 288.3 Z"/>

<path fill="#1A131D" stroke="none" d="
M 626.1 638
Q 620.95 637.05 613.9 638.1 603.9 639.65 595 643.35 592.15 644.55 590.65 645.35 589.95 645.6 589.4 646.35 588.85 647.2 588.85 648.25 588.85 649.3 589.5 650.1 589.65 650.35 590.4 651.25 590.7 651.5 591.05 651.75 591.35 652 593.9 653.35 596.4 654.7 601.65 655.75 606.9 656.75 612.05 655.55 617.2 654.3 621.45 650.95 625.75 647.6 628.25 643 629.65 640.65 628.65 639.25 627.95 638.2 626.1 638
M 436.85 94.6
Q 421.5 87.7 410.35 89.75 403.4 91.1 398.4 96.15 393.05 101.5 393 108.1 393 110.5 393.85 112.6 394.8 114.9 396.5 116.25 398.8 118.15 402.75 118.15 404.9 118.15 409.75 117.35 424.4 115.05 439.55 119.9 449.2048828125 113.540234375 458.9 107.85 448.7 100.1 436.85 94.6
M 602.05 76.1
Q 591.6 69.95 578.85 68.5 567.75 67.2 554.7 69.35 544.4 71 531 75.25 494.68046875 86.8361328125 458.9 107.85 449.2048828125 113.540234375 439.55 119.9 427.8013671875 127.6955078125 416.1 136.5 403.8 145.85 396.4 153.05 386.3 162.8 380.35 172.85 373.45 184.5 371.85 197.1 370.1021484375 210.7326171875 375.8 222.95 376.005078125 222.708984375 376.15 222.45 384.2380859375 210.248828125 395.35 200.1 420.3 177.35 450.5 174.75 463.6 155.2 483.15 139.5 501.7 124.65 524.4 114.6 565.75 96.4 618.4 94.75 618.5970703125 94.743359375 618.8 94.7 613.2439453125 82.6962890625 602.05 76.1 Z"/>
</g>

<path id="Layer0_0_1_STROKES" stroke="#000000" stroke-width="1" stroke-linejoin="round" stroke-linecap="round" fill="none" d="
M 618.8 94.725
Q 650.875390625 93.6837890625 679.45 99.2 711.1 105.3 736.9 119.25 750.8521484375 126.85 765.15 137 779.44296875 147.15 791.25 159.075 803.0568359375 171 811.7 181.65 820.34765625 192.3 826.9 203.85 842.55 231.3 846 268.75 848.2083984375 293.1869140625 845.25 316.575 856.191015625 323.23984375 862.85 334 870.25 345.85 871.4 360.65 872.55 375.05 867.5 388.5 862.5 401.6 852.35 412.25 843.5890625 421.36953125 837.075 424.775 830.55859375 428.173828125 829.45 428.8 828.855078125 434.8490234375 827.475 441.05 827.69765625 462.3869140625 834.7 488.35 838.3 501.85 851.2 538.8 862.15 570.4 866 589.1 871.65 616.9 868.1 640.1 867.45 644.6 865.85 647.55 863.8 651.3 860.5 652 857.15 652.7 853.85 650.1 851.25 648.05 849 644.25 846.8140625 640.6720703125 845.025 636.95 844.4146484375 635.68203125 843.85 634.4 840.79140625 627.435546875 839.1 620 843.75 645.9 841.15 672.4 838.6935546875 697.9744140625 829.65 721.6
M 678.1 215.1
Q 686.8875 224.5599609375 695.275 230 707.7240234375 238.058203125 724.25 242.75 735.55 245.95 749.25 247.6 754.18125 248.21640625 759.925 248.675 766.762109375 249.246875 774.75 249.6
M 695.275 230
Q 694.5080078125 230.2333984375 693.75 230.5 692.75 230.85 691.85 231.2 678.6 235.6 667.65 246.4 663.626953125 250.35078125 660.25 254.825 710.9451171875 269.7623046875 773.6 269.125 769.5216796875 260.278125 763.55 252.85 761.8001953125 250.6779296875 759.925 248.675
M 773.6 269.125
Q 787.26328125 268.9810546875 802 266.4
L 810.2 326.6 815.15 308.75 820.5 289.45
M 660.25 254.825
Q 654.2810546875 262.762109375 650.35 272.35 644.65 286.3 643.45 302.8 642.25 317.85 644.9 334.25 649.15 359.85 662.35 369.25 668 373.15 676.05 374.85 682 376.15 690.9 376.35 712.1 377.1 734.25 374 744 372.65 750.7 370.45 759.35 367.55 765.15 362.5 776.45 352.6 780.5 330.35 784.15 309.35 780.1 289.45 777.9134765625 278.4912109375 773.6 269.125
M 535.6 176.5
Q 537.5798828125 178.880859375 539.625 181.2 540.2755859375 181.9294921875 540.925 182.65 561.9921875 206.1068359375 590.55 223.95 620.9 242.9 657 253.85 658.62109375 254.3474609375 660.25 254.825
M 716.25 309.65
Q 716.25 318.55 712.75 324.8 709.25 331.05 704.3 331.05 699.35 331.05 695.9 324.8 692.4 318.55 692.4 309.65 692.4 300.8 695.9 294.5 699.35 288.3 704.3 288.3 709.25 288.3 712.75 294.5 716.25 300.8 716.25 309.65 Z
M 630.25 366.1
Q 632.45 373.2 642.85 376.35 645.45 377.2 650.85 378.6 655.45 380.05 658.15 382.25 661.9 385.25 663.55 390.35 665.2 395.3 664.4 400.35 663.55 405.25 660.75 409.7 658.15 413.9 654.2 417 647.5 422.3 635.8 424.75
M 699.25 391.25
Q 706.9 392.45 712.15 392.35 719.2 392.25 724.5 389.85
M 815.15 308.75
Q 829.1212890625 307.8380859375 842.25 314.85 843.790234375 315.6703125 845.25 316.575
M 615.25 428.3
Q 628.05 450.9 635.35 474.25
L 635.7 476.25
Q 636 478.15 636.25 480.1 637.5841796875 491.366796875 636.625 502.15 637.0869140625 502.2583984375 637.55 502.375 655.107421875 506.8224609375 671.7 516.3 693.979296875 529.0048828125 709.25 548.3 756.2548828125 532.3544921875 784.95 508.425 785.0529296875 508.3390625 785.15 508.25 794.3162109375 500.5796875 801.6 492.1 819.7 471.05 826.5 445.1 827.0296875 443.069140625 827.475 441.05
M 664.75 468.75
Q 670.43984375 459.403125 679.5 453.25 688.65 447.15 699.95 444.95 711 442.85 722.2 444.75 735.4 447.05 740.95 454.1 743.25 457.15 744.3 461.05 745.25 464.75 745 468.75 744.3 476.9 739.5 481.25 736.75 483.75 732.5 485.45 729.6 486.55 724.5 487.75 704.5 492.15 684.25 498.4 677.55 500.05 673.6 500.25 669.6 500.45 665.65 499 661.65 497.55 660 493.55 658.35 489.55 658.5 487.35 658.6 485.1 658.8 483.95 660.15 476.45 664.4 469.35 664.578125 469.0478515625 664.75 468.75 674.85 467.6 680.25 467.5 688.9 467.35 695.6 469.1 703.55 471.2 709.4 476.3 715.75 481.85 717.35 489.1
M 709.25 548.3
Q 714.6927734375 555.2080078125 719.25 562.95 724.0474609375 563.98125 728.1 564.925 731.18984375 555.0654296875 743.4 552.475 756.7513671875 549.6470703125 765.85 556.1 771.2 559.95 775 567.1 777.75 572.3 780.25 580.75 780.6302734375 582.0498046875 780.975 583.375 781.6615234375 585.8646484375 782.25 588.425 788.6255859375 592.6626953125 794.6 597.5 798.2 600.3 800.25 602.7 803 605.9 803.85 609.25 804.75 612.8 803.65 616.7 802.6 620.4 800 623.35 796.52734375 627.634375 789.15 631.1 789.92421875 642.73046875 789.55 654.55 788.459765625 688.9853515625 777.825 721.15
M 781.6 584
Q 789.8 577.6 793.35 563.75 797 549.7 794.8 535 792.62265625 520.4509765625 785.15 508.25
M 728.1 564.925
Q 743.659375 568.594140625 758.4 575.25 770.9564453125 580.9052734375 782.25 588.425
M 789.15 631.1
Q 788.3478515625 631.482421875 787.5 631.85 774.7 637 758.15 637.05 746.31484375 637.096875 730.225 634.375 729.0830078125 642.6546875 726.9 650.9 720.4 675.5 705.85 695.6
M 730.225 634.375
Q 732.5099609375 618.0375 730.75 601.6
M 680.35 697.35
Q 680.7 693.5 679.15 689.65 677.65 686 674.75 683.1 669.6 677.95 661 675.6 653.1 673.65 647.5 674.75 641.0974609375 675.8490234375 635.525 680.6 635.257421875 680.821484375 635 681.05 629.75 685.75 626.5 692.6 624.4404296875 696.93984375 623 702.275 622.486328125 704.2005859375 622.05 706.25 621.4236328125 709.2107421875 620.8 713.425 620.3236328125 716.602734375 619.85 720.5
M 745.8 688.5
Q 719.3 694.2 705.35 696.15 685.30859375 698.89296875 667.85 697.95
L 671.5 721.9
M 667.85 697.95
Q 667 697.85 665.5 698.35 663.15 699.35 661.4 701.95 660.2 703.7 658.85 707 654.05 718.35 653.5 721.35
M 837.75 612.6
Q 838.2578125 616.3529296875 839.1 620
M 829.45 428.8
Q 831.2677734375 410.1431640625 826.6 392.65
M 375.825 222.975
Q 370.1021484375 210.7326171875 371.85 197.1 373.45 184.5 380.35 172.85 386.3 162.8 396.4 153.05 403.8 145.85 416.1 136.5 427.8013671875 127.6955078125 439.55 119.925 424.4 115.05 409.75 117.35 404.9 118.15 402.75 118.15 398.8 118.15 396.5 116.25 394.8 114.9 393.85 112.6 393 110.5 393 108.1 393.05 101.5 398.4 96.15 403.4 91.1 410.35 89.75 421.5 87.7 436.85 94.6 448.7 100.1 458.9 107.85 494.68046875 86.8361328125 531 75.25 544.4 71 554.7 69.35 567.75 67.2 578.85 68.5 591.6 69.95 602.05 76.1 613.2439453125 82.6962890625 618.8 94.725 618.5970703125 94.743359375 618.4 94.75 565.75 96.4 524.4 114.6 501.7 124.65 483.15 139.5 463.6 155.2 450.5 174.75 420.3 177.35 395.35 200.1 384.2380859375 210.248828125 376.175 222.45 376.005078125 222.708984375 375.825 222.975 375.7927734375 223.034375 375.75 223.1 366.9490234375 236.6041015625 361.85 252.6 353 280.75 355.8 314 358.1029296875 341.5423828125 368.275 371.3 368.3361328125 371.2712890625 368.4 371.25 368.6732421875 371.1203125 368.95 371.025 373.0564453125 369.3330078125 377.55 368.35 388.91953125 365.867578125 401.025 368.65
L 399.75 365.35
M 439.55 119.925
Q 449.2048828125 113.540234375 458.9 107.85
M 461.35 240.6
Q 472.0021484375 241.3955078125 482.6 240.65 487.368359375 240.3052734375 492.125 239.65 471.120703125 224.7990234375 454.9 204.6 453.4 220.7 451.05 231.35 448.1 244.65 443.6 255.5 438.5 267.65 431.1 277.4 424.6263671875 285.896484375 416.775 292 424.2 304 427.15 318.85 429.85 332.65 428.5 347.6 426.2953125 371.7548828125 413.15 400.05
L 401.025 368.65
M 416.775 292
Q 415.034765625 293.36171875 413.225 294.6 413.11328125 294.6732421875 413 294.75
M 482.6 240.65
Q 468.2623046875 251.003125 460.25 267.1 449.8 288.3 451.9 314.15 453.85 338.5 466.25 360.6 469.2 365.85 471.85 369.05 475.35 373.3 479.35 375.6 482.5 377.45 486.75 378.55 489.85 379.3 494.6 379.85 517.655859375 382.75 545.325 379.875 561.7328125 378.16953125 569.9 372.65 577.95 367.3 582.25 356.35 584.9865234375 349.4837890625 587.45 336.75 587.4625 336.68671875 587.475 336.625 593.2447265625 307.1169921875 587.5 283.5 586.753515625 280.4494140625 585.825 277.525 550.235546875 272.2521484375 517.45 255.1 504.1142578125 248.1232421875 492.125 239.65 500.7302734375 238.459765625 509.3 236.25 522.23359375 232.8806640625 534.125 227.425 544.104296875 222.8224609375 553.35 216.75
M 368.275 371.3
Q 362.56171875 373.77734375 357.65 377.65 347.15 385.85 342.15 398.15 338.8 406.5 338.35 416.25 337.85 425.3 339.9 434.75 342.4 446.9 348.4 457.3 354.65 468.2 363.9 475.65 367.783984375 478.794140625 372.025 481.175 372.33671875 481.3490234375 372.65 481.525 385.4068359375 488.4263671875 401.4 488.5 421.7 488.6 437.05 477.75 437.15 477.65 437.25 477.6 442.559765625 483.9380859375 448.3 489.8 448.4009765625 489.89921875 448.5 490 460.2748046875 501.955859375 473.875 511.9 492.8546875 525.77734375 514.225 535.275 514.2724609375 535.3015625 514.325 535.325 527.2970703125 523.10078125 543.9 514.3 545.8857421875 513.245703125 547.875 512.25 543.1833984375 500.637890625 541.35 487.6 540.9390625 484.666015625 540.675 481.775 538.5548828125 459.2798828125 544.8 438.95
M 585.825 277.525
Q 580.969140625 262.3552734375 571 250.25 558.4 234.9 541.25 229.25 537.699609375 228.100390625 534.125 227.425
M 540.925 182.65
Q 567.2669921875 217.4380859375 601.6 246 606.1 249.65 608.05 251.6 611.4 254.9 613.25 258.1 615.45 262 615.5 266.25 615.6 270.85 613.1 274 610.25 277.55 604.65 278.5 600.65 279.2 594.35 278.6 590.0623046875 278.14140625 585.825 277.525
M 556.9 312.95
Q 556.9 321.85 553.4 328.1 549.9 334.35 544.95 334.35 540 334.35 536.55 328.1 533.05 321.85 533.05 312.95 533.05 304.1 536.55 297.8 540 291.6 544.95 291.6 549.9 291.6 553.4 297.8 556.9 304.1 556.9 312.95 Z
M 542.25 393.55
Q 550.75 395.5 559.35 395.4 567.95 395.3 576.4 392.45
M 540.675 481.775
Q 549.3 480.05 557.75 476.6 564.9560546875 473.5541015625 567.475 469.8 569.9861328125 466.0375 570.625 459.1 571.254296875 452.16171875 571.2 449.125 571.1501953125 446.0884765625 571.15 442.95
M 635.7 476.25
Q 625.7 475.15 617.6 472.85 609.45 470.5 606.05 467.5 602.59453125 464.455859375 600.475 457.9 598.3669921875 451.3388671875 597.775 448.5 597.1759765625 445.6638671875 596.75 440.7
M 633.05 527.5
Q 635.574609375 517.3158203125 636.025 510.65 636.48046875 503.9830078125 636.55 503.125 636.6134765625 502.270703125 636.625 502.15 622.6654296875 498.73984375 608.1 498.5 576.766796875 498.032421875 547.875 512.25 552.3794921875 523.3841796875 559.5 533.2
M 448.3 489.8
Q 415.411328125 532.571875 443.475 574.75 445.81640625 567.7138671875 448.75 561.5 453.65 550.95 460.85 544.65 469.35 537.15 478.75 538.1 487.85 538.95 495.25 547.8 497.058984375 549.970703125 498.925 552.85 505.73671875 543.11484375 514.225 535.275
M 498.925 552.85
Q 496.890625 555.7603515625 494.7 559.1 468.95 571.45 455.65 579.45 446.930078125 584.6779296875 439.325 590.025 428.5369140625 597.637890625 420 605.5 409.6 615.05 411.85 623 413.8978515625 630.0490234375 426.625 634.225 430.08125 635.3576171875 433.6 636.175 443.0130859375 638.3505859375 452.825 638.225 466.28984375 638.0626953125 479.125 635.75 477.6552734375 624.734765625 478.25 613.55
M 646.8 598.6
Q 646.8 606.45 644.6 612 642.35 617.6 639.2 617.6 636.1 617.6 633.85 612 631.6 606.45 631.6 598.6 631.6 590.75 633.85 585.15 636.1 579.6 639.2 579.6 642.35 579.6 644.6 585.15 646.8 590.75 646.8 598.6 Z
M 372.65 481.525
Q 372.797265625 496.8599609375 368.05 513.65 365 524.45 356.85 545.4 348.6984375 566.3439453125 344.3 579.675 339.90390625 593.0134765625 339.75 601.6 339.596875 610.1974609375 340.65 612.85 341.7009765625 615.494921875 343.775 617.65 345.8498046875 619.8025390625 349.9 619.9 353.6 619.95 356.85 617.95 359.65 616.15 362.15 613 363.065625 611.8689453125 364.2 610.2 364.7669921875 609.3478515625 365.4 608.35 372.4 596.65 375.8 583.4
M 439.325 590.025
Q 441.0919921875 581.9609375 443.475 574.75
M 479.125 635.75
Q 480.4333984375 645.6046875 483.4 655.325 489.6671875 675.8818359375 500.425 693.125 528.708984375 697.598828125 554.55 698.75 558.3 698.9 560.15 699 563.1 699.15 564.85 700.65 566.1 701.7 566.9 703.75 567.25 704.6 568 707.4 569.1 712.25 570.8 722.05
M 442.85 721.6
Q 434.55 700.85 433 673.95 432.090234375 657.8888671875 433.6 636.175
M 364.2 610.2
Q 359.3802734375 629.86640625 357.9 649.3 356.3 669.6 357.4 681.85 358.45 694.05 360.05 697.15 362.15 701.15 365.6 701.75 369.05 702.35 372.3 699.65 374.9 697.5 377 693.6 378.8 690.55 380.35 687.4 382.25 681.7 383.25 675.95
L 383.25 675.9
Q 383.95 672.05 384.2 668.15
M 380.35 687.4
Q 383.05 705.9 390.35 723.6
M 590.65 645.35
Q 592.15 644.55 595 643.35 603.9 639.65 613.9 638.1 620.95 637.05 626.1 638 627.95 638.2 628.65 639.25 629.65 640.65 628.25 643 625.75 647.6 621.45 650.95 617.2 654.3 612.05 655.55 606.9 656.75 601.65 655.75 596.4 654.7 593.9 653.35 591.35 652 591.05 651.75 590.7 651.5 590.4 651.25 589.65 650.35 589.5 650.1 588.85 649.3 588.85 648.25 588.85 647.2 589.4 646.35 589.95 645.6 590.65 645.35 Z
M 571.35 609.45
Q 573.2 615.7 572.05 620.85 570.95 626.1 567.5 627.1 564 628.15 560.2 624.35 556.45 620.65 554.6 614.4 552.75 608.1 553.9 602.85 555 597.7 558.5 596.65 561.95 595.65 565.75 599.35 569.5 603.15 571.35 609.45 Z
M 635.525 680.6
Q 631.4533203125 677.7240234375 626.5 676.1 620.45 674.1 614.25 674.35 607.95 674.55 602.1 677.05 596.25 679.55 591.7 684.075 595.3849609375 686.462890625 598.1 690.6 600.6384765625 694.4298828125 601.95 699.3 608.15 696.7 614.75 698.25 619.515234375 699.4052734375 623 702.275
M 538.6 697.35
Q 545.85 689.95 555.4 685.55 565 681.15 575.25 680.6 584.55 680.15 590.5 683.35 591.114453125 683.68828125 591.7 684.075
M 554.55 698.75
L 553.75 722.05
M 601.95 699.3
Q 602.1078125 699.8876953125 602.25 700.5 603.279296875 704.8041015625 603.475 710.25 603.4904296875 710.6205078125 603.5 711 603.5013671875 711.0498046875 603.5 711.1 612.79765625 710.108203125 620.8 713.425
M 603.5 711.1
Q 603.5955078125 714.9873046875 603.25 721.75
M 479.25 689.35
Q 489.373828125 691.33359375 499.2 692.925 499.8119140625 693.0232421875 500.425 693.125
M 564.05 642
Q 581.0365234375 631.6099609375 602.6 627.925 624.1615234375 624.2376953125 652.95 626.75"/>
</defs>

<g transform="matrix( 1, 0, 0, 1, 0,0) ">
<use xlink:href="#Layer2_0_FILL"/>
</g>

<g transform="matrix( 1, 0, 0, 1, 0,0) ">
<use xlink:href="#Layer0_0_FILL"/>

<use xlink:href="#Layer0_0_1_STROKES"/>
</g>
</svg>
