
<svg xmlns="http://www.w3.org/2000/svg" version="1.1" xmlns:xlink="http://www.w3.org/1999/xlink" preserveAspectRatio="none" x="0px" y="0px" width="1280px" height="720px" viewBox="0 0 1280 720">
<defs>
<g id="Layer1_0_FILL">
<path fill="#FFFFFF" stroke="none" d="
M 1280 720
L 1280 0 0 0 0 720 1280 720 Z"/>
</g>

<g id="Layer0_0_FILL">
<path fill="#000000" stroke="none" d="
M 421.65 183.6
Q 421.65 182.2 420.5 181.2 419.4 180.2 417.85 180.2 416.3 180.2 415.15 181.2 414.05 182.2 414.05 183.6 414.05 185 415.15 186 416.3 187 417.85 187 419.4 187 420.5 186 421.65 185 421.65 183.6
M 359.35 182.6
Q 357.85 182.6 356.75 183.65 355.7 184.75 355.7 186.25 355.7 187.75 356.75 188.8 357.85 189.9 359.35 189.9 360.85 189.9 361.9 188.8 363 187.75 363 186.25 363 184.75 361.9 183.65 360.85 182.6 359.35 182.6
M 860.65 225.65
Q 859.8248046875 226.02421875 859 226.35 858.7544921875 228.408203125 859.5 229.75 860.6 231.3 862 231.5 863.25 231.7 864.45 230.9 865.5 230.15 866.1 228.85 866.9 226.95 866.35 222.9 863.4478515625 224.38359375 860.65 225.65
M 816.8 467.45
Q 816.8 466.15 815.75 465.2 814.7 464.3 813.25 464.3 811.8 464.3 810.75 465.2 809.7 466.15 809.7 467.45 809.7 468.75 810.75 469.65 811.8 470.6 813.25 470.6 814.7 470.6 815.75 469.65 816.8 468.75 816.8 467.45
M 841.55 468.75
Q 842.4 469.6 843.6 469.6 844.8 469.6 845.65 468.75 846.5 467.9 846.5 466.7 846.5 465.5 845.65 464.65 844.8 463.8 843.6 463.8 842.4 463.8 841.55 464.65 840.7 465.5 840.7 466.7 840.7 467.9 841.55 468.75
M 805.5 241.65
Q 801.9396484375 242.3515625 798.5 242.8 798.5013671875 244.511328125 798.6 245.35 798.85 247.1 799.85 247.75 800.7 248.35 801.75 248.35 803.55 248.6 804.85 247.6 806.05 246.9 807 244.75 807.47734375 243.1748046875 807.7 241.2 806.599609375 241.4341796875 805.5 241.65 Z"/>
</g>

<path id="Layer0_0_1_STROKES" stroke="#000000" stroke-width="1" stroke-linejoin="round" stroke-linecap="round" fill="none" d="
M 975.55 237.25
Q 975.471484375 238.971484375 977 240.5 978.45 241.95 980.6 242.1 982 242.35 985.225 241.9 985.229296875 241.3578125 985.1 240.9 984.473828125 238.7212890625 981.75 237.1 979.0345703125 235.487109375 977.525 235.95 976.006640625 236.405078125 975.95 236.65
L 975.925 236.65
Q 975.8888671875 236.65078125 975.775 236.85 975.6599609375 237.0525390625 975.55 237.25 970.430078125 246.3091796875 968.3 251.35 968.20078125 251.6025390625 968.1 251.85 967.05 254.45 967.85 255.6 968.35 256.5 970.25 257.25 974.5 258.95 976.85 257.5 977.668359375 257.003125 978.425 255.975 978.9806640625 255.2470703125 979.5 254.25
L 983.35 247.1
Q 985.209765625 243.9169921875 985.225 241.9
M 978.425 255.975
Q 979.95 256.45 980.75 257.9 981.45 259.25 981.35 260.75 981.05 263 978.85 266.1 977.8318359375 267.5857421875 976.875 268.425
L 980.85 268.35 969.45 291.4
M 976.875 268.425
Q 976.0919921875 269.102734375 975.35 269.35 974.35 269.7 973.1 269.5 972.35 269.35 970.85 268.85 967.4 267.75 965.6 267.05 962.7029296875 265.9 960.85 264.5 958.991015625 263.1 958.55 261.575 958.1109375 260.0466796875 959.475 257.8 960.8408203125 255.559765625 961.45 253.725
L 961.45 253.7
Q 961.3294921875 253.161328125 961.6 252.5 962.15 251.6 963.75 251.35 965.9806640625 251.0029296875 968.3 251.35
M 973.75 283.75
Q 974.6 284.15 975.5 285.5 976 286.5 976 287.35 976 287.5 975.6 289.1 973.85 292.9 972 295.35
M 976.25 310.25
Q 976.25 316.6 976.35 319.85
M 975.1 322.85
Q 974.85 324.55 973.65 325.85 972.45 327.15 970.75 327.6 967.65 328.7 964.1 327.1 962.47421875 326.455859375 960.725 325.15 959.640234375 324.3322265625 958.375 323.175
L 955.725 328.075
Q 957.5630859375 329.599609375 958.2 330.1 959.9 331.35 961.35 332 965 333.85 968.35 332.75 969.75 332.3 971.4 331.05 972.3 330.35 974.1 328.85 975.1 328.1 977.25 326.65 978.95 325.25 979.6 323.85 979.770703125 323.4466796875 979.9 322.85 980.15 321.557421875 980.15 319.35 980.2 316.4 981 315 981.1 314.85 983 312.5 984.25 311.05 984.1 309.85 984.05 308.9 983.15 308.2 982.4 307.55 981.35 307.25 980.6 307.1 977.35 307.1 972.95 306.95 969.1 304
M 979.9 322.85
Q 982.2599609375 323.5201171875 983.5 326 984.572265625 327.7060546875 984.6 330.6 987.45 327.1 990 327.25 991.15 327.3 992.2 328.3 993.15 329.1 993.75 330.35 996 335.1 993.25 342 991.55 345.95 989.5 348 986.75 350.9 983.35 351.25 981.55 351.45 980.35 350.75 979.1 350 978.45 348.3 978.0083984375 347.26953125 977.625 345.175 976.8388671875 345.5486328125 976 345.75 973.95 346.2 972 345.2 969.95 344.15 969.5 342.25 969.05 340.15 971.1 336.35 973.2 332.55 972.85 330.6
M 984.6 330.6
Q 984.6 330.674609375 984.6 330.75 984.8 335.8 982.25 340.6 980.3091796875 343.8994140625 977.625 345.175
M 976.35 320.1
Q 971.45 320.35 968.25 319.75 965.21796875 319.0001953125 963.275 317.475 962.6181640625 316.9521484375 962.075 316.35
L 960.725 318.85
Q 961.39296875 319.733203125 962.1 320.4 962.256640625 320.53984375 962.425 320.675 963.5392578125 321.6212890625 964.75 322.25 967.8 323.75 970.5 323.25 971.05 323.2 972.5 322.8 973.7 322.5 974.5 322.5
M 995.35 340.1
Q 997 341 1000.35 342.75 1002.9 344 1003.85 345.25 1004.45 346.15 1004.55 347.2 1004.586328125 347.99921875 1004.275 348.65
L 1012.1 353.3 1004.1 368.25 995.75 363.85 992.85 369
Q 992.4 370.1 991.75 370.75 990.8 371.5 989.1 371.75 986.85 371.95 984.7 370.95 982.5 369.95 980.75 368.6 977.3125 375.509375 974.1 382.2 978.8533203125 385.951953125 980.8 387.85 981.7666015625 388.763671875 982.6 389.675 984.9267578125 392.240234375 986.25 394.85 988.5 399 988.3 403.6 988.1 408.55 985.1 411.6 983.10859375 413.59140625 979.65 414.85
L 979.75 416.25
Q 980.7 428.9 977.15 441.35 973.6455078125 453.7453125 966.4 466.125 959.1630859375 478.513671875 945.3 484.35 931.43671875 490.1861328125 921.8 485.95 912.154296875 481.7044921875 907.1 477.85 903.1 474.85 898.5 470 879.7 450.4 869.5 425.75
L 865.9 415.75
Q 868.126953125 436.5099609375 878 454.35 881.5 460.7 889.25 473.3 895.3 484.55 895.6 493.75 895.84765625 501.253125 892.675 508.575
L 893.85 511.35
Q 895.85 517.5 894.2 524.45 893.402734375 527.878125 891.85 531.075 890.4677734375 533.8763671875 888.5 536.5 886.9994140625 538.467578125 885.1 540.325
L 890.25 551.35
Q 877.3 563.25 861.1 569.7 855.7708984375 571.8119140625 850.35 573.3 850.387109375 573.6146484375 850.425 573.925 853.2408203125 597.89296875 854.8 621.8 854.81953125 622.1 854.85 622.4 855.189453125 627.8291015625 855.475 633.25 859.992578125 635.326171875 865.85 635.55 867.616796875 635.60390625 869.5 635.5 875.4 635 883.35 632.35 878.9736328125 597.9228515625 873.1 564.75
M 1004.275 348.65
Q 1004.1640625 348.88125 1004 349.1
L 995.75 363.85
M 944.35 386.1
L 947.25 378.5
Q 948.25 376.2 948.35 375 948.6 372.85 947.6 371.25 947.271484375 370.7734375 946.975 370.3
L 946.1 370.35
Q 942.1287109375 370.1 939.1 370.325 938.65 374.25 939.65 378 940.65 381.8 943 384.85 945.5 388.45 951 392.1 956.95 395.8 962.75 397.35 970.25 399.65 975.5 397.85 978.65 396.8 980.7 394.15 982.38515625 392.0052734375 982.6 389.675
M 874.3 147.05
L 875.35 153.3
Q 879.0296875 156.3958984375 881.2 154.875 883.384765625 153.346875 881.35 141.225 879.303125 129.1025390625 865.4 115.45 852.25 102.5 834.25 97.75 803.6 89.65 763.6 104.75 736.1 115.1 714.45 132.4 708.8400390625 136.8734375 703.825 141.675
L 703.6 142.75
Q 697.2 172.1 700.85 202.45 704.5 232.85 717.6 259.85
L 718.65 261.7 721.9 260.45
Q 723.128515625 262.30703125 723.65 263.35 724.55 265.15 724.6 266.75 724.6 268.4 723.85 270.75 723.7263671875 271.11484375 723.575 271.5 728.73671875 280.534375 735.45 288.65 735.641796875 288.6931640625 735.85 288.75 738.4931640625 289.5404296875 740.875 290.95 754.9912109375 284.7458984375 764.1 276.925 773.2009765625 269.099609375 780.35 261.45 779.9146484375 260.9609375 779.5 260.45 777.0935546875 257.4634765625 775.45 253.7 772.962890625 248.0505859375 772.95 242.3 772.9462890625 240.6083984375 773.15 238.9 768.2896484375 240.3451171875 762.75 240.1
M 804.75 222.6
Q 828.7 178.6 839.4 129.65 842.8 130.85 846.25 134.5 848.75 137.1 851.85 141.75 862.8 157.5 868.45 169.5 870.8962890625 174.7537109375 872.625 179.85
L 874.1 175.6
Q 877.326171875 164.889453125 875.35 153.3
M 656.75 152.5
Q 657.5044921875 152.5 658.175 152.775
L 698.25 129.15 703.2 129.65 708.675 125.45
Q 706.75 122.35 702.85 116.5 701.35 114.25 700.8 113.6 699.6 112 698.475 110.925
L 695.05 108.6 695.05 106.9 716.85 94.7 710.2 83.25 707.35 84.75 705.45 81.8 702.5 83.2 699.7 81.35 698.65 89.15 517.725 193.55
Q 518.2044921875 193.9228515625 518.65 194.425 520.4056640625 196.399609375 525.65 204.775 526.5615234375 206.2314453125 527.55 207.8
L 570.4 181.15
M 706.2 112
L 708.6 111 711.55 114.2 710.1 117.95 711.7 120 708.7 122.75 708.7 125
M 698.475 110.925
L 699.1 111.35 704.55 110 705.85 111.65
M 521.25 273
Q 533.7103515625 283.4677734375 546.975 292.5 558.674609375 300.484375 571 307.35 574.25 309.2 576.55 309.9 579.75 310.9 582.35 310.1 586.8 308.9 590.25 302 594.1 294.55 597.2 284.6 599.15 278.4 602.1 266.5
L 613.1 222.55
Q 611.9 219.05 612.6 214.95 613.75 208.4 613.75 208 613.8 202.85 610.1 198.2 607.4279296875 194.85 603.55 192.575
L 584.5 203.9 568.45 176.9 640.45 135.95 641.425 137.525 686.8 112.4 690.35 115.6 691.75 117
Q 697 122.25 699.25 129
M 709.2 125.05
L 708.675 125.45
M 658.175 152.775
Q 658.8841796875 153.0841796875 659.5 153.7 660.7 154.85 661 156.5 661.3 159.1 659.6 162.6 658.6 164.7 655.25 170.1 652.35 174.75 651.25 177.75 650.6486328125 179.3314453125 650.125 181.35 649.4990234375 183.8837890625 649 187.1 647.05 199.5 645.875 206.275 656.469140625 197.4849609375 669.1 192.25
M 703.825 141.675
Q 688.0703125 156.6912109375 678.1 174.85 677.575 175.79921875 677.075 176.75 676.7 199.35 682.25 221.5 687.85 243.65 699 263.25
L 699.8 264.6
Q 701.2 264.15 702.85 264.35 704.5 264.5 705.85 265.2 706.619921875 265.622265625 707.1 266.15
L 718.65 261.7
M 807.725 241.2
Q 820.181640625 238.4857421875 836 232.25
L 836.975 231.85
Q 836.0298828125 228.008203125 833.9 225.1 833.205078125 224.16171875 832.45 223.4 829.90390625 220.92265625 826.6 220.5 826.18125 220.525 825.775 220.55 802.98671875 221.994921875 781.4 228 779.787109375 228.448046875 778.425 229.2 778.3232421875 229.267578125 778.225 229.325 778.1578125 229.365234375 778.1 229.4 776.75 230.25 775.75 231.6 775.152734375 232.3421875 774.675 233.325 773.828515625 235.0798828125 773.35 237.6 773.2375 238.2546875 773.15 238.9
M 772.95 242.3
L 774.25 242.5
Q 785.515625 244.4763671875 798.5 242.8 801.9396484375 242.3515625 805.5 241.65 806.599609375 241.4341796875 807.725 241.2 807.47734375 243.1748046875 807 244.75 806.05 246.9 804.85 247.6 803.55 248.6 801.75 248.35 800.7 248.35 799.85 247.75 798.85 247.1 798.6 245.35 798.5013671875 244.511328125 798.5 242.8
M 778.225 229.325
Q 769.91953125 228.782421875 765.2 227.75 757.95 226.2 753.1 222.75
M 774.675 233.325
Q 770.1 234.25 765.5 233.9 760.9 233.55 756.75 231.85
M 713.1 280
Q 713.6634765625 280.5384765625 714 281.2 715.1884765625 283.620703125 716.4 285.375 717.61015625 287.1349609375 718.2 287.35 718.79296875 287.5580078125 719.9 286.8 721.75 285.5 725.85 283.35 726.7 282.75 727.35 282.75 728.4 282.75 728.75 283.5 728.85 284 728.25 285.2 727.7 286.25 728.1 286.75 728.4 287 729.6 287 730.65 286.9 731.5 287.5 732.0345703125 287.8564453125 732.275 288.35 733.2 288.15 734.2 288.35 734.6458984375 288.4310546875 735.45 288.65
M 732.275 288.35
Q 732.459375 288.694140625 732.5 289.1 732.5 290.85 729.6 292.1 728.15 292.8 727.6 293.25 726.55 294 726.5 295 726.4 295.3 726.45 295.75
L 726.5 296.5
Q 726.3 297.1 725.75 297.5 725.2 297.85 724.6 297.75
L 745.2 348.45 745.7 362.85 751.4 376.45 729.85 384 725.575 374.75 722.2 375.9 705.35 362
Q 706.1 369.3 705 376.35
M 740.875 290.95
Q 743.3244140625 292.4001953125 745.5 294.5
M 781.1 267.1
Q 788.85 266.1 792.85 266.1 799.4 266.05 804.25 268 807.6041015625 269.26328125 810.575 271.625 817 270.4 822.55 266.9 828.1 263.35 831.85 258.1 834.5126953125 254.2701171875 836 249.8
L 835.1 250.35
Q 823.05 257.8 808.9 260.5 794.7 263.25 780.85 260.75
L 779.5 260.45
M 780.35 261.45
Q 782.7228515625 264.111328125 785.75 266.1
M 805 289.75
Q 805 295.25 800.8 299.1 796.6 303 790.7 303 784.8 303 780.6 299.1 776.4 295.25 776.4 289.75 776.4 284.25 780.6 280.35 784.8 276.5 790.7 276.5 796.6 276.5 800.8 280.35 805 284.25 805 289.75 Z
M 683.75 245.75
Q 681.7 248.6 679.6 249.75 678.25 250.4 676.8 250.45 675.3 250.5 673.975 249.85 674.0689453125 251.20703125 674.75 253.25
L 678.35 263 679.5 266.05
Q 681.239453125 266.47734375 683.15 266.35 685.4 266.2 687.35 265.25 688.8 264.5 689.25 263.6 689.6 262.75 689.1 260.75 688.8 259.5 688.2 257.6 687.4 255.05 687.25 254.5 684.9 248.1 684.35 246.35 683.85 244.85 683.25 244.5 682.6 244 680.85 244 678.1 244.2 676.5 245.25 674.35 246.55 674 248.75 673.9203125 249.228515625 673.975 249.85
M 695 263.35
Q 688.1 268.7 679.5 269.1 676.75 269.1 675.625 268.35 675.5017578125 269.7091796875 675.8 271.3 676.05 272.6 677.1 275.6 677.4142578125 276.340625 677.875 277.025 682.25 277.8 686.9 276.6 689.9 275.8 695 273.6 697.15 272.5 697.75 271.75 698.9228515625 269.84453125 697.175 266.4 696.85 266.3 695.7 263.75 694.95 262.05 694.1 261.25 692.15 259.6 689.1 259.6
M 678.35 263
Q 676.55 264.45 675.85 267 675.6814453125 267.640625 675.625 268.35
M 645.875 206.275
Q 645.4322265625 206.6328125 645 207 634 216.3 626.6 228.35 623.9 232.4 623.6 235.6 623.35 237.65 624.1 239.5 624.9 241.5 626.6 242.5 629.05 243.85 633.35 242.6 635.8572265625 241.901953125 638.15 240.875 643.887890625 238.2552734375 648.25 233.5 645.3 237.5 644.1 242.45 642.85 247.4 643.5 252.35 643.95 257.1 646.6 258.85 649.1 260.45 652.35 259.2 655.3 258.1 657.25 255.35 658.2 254.1 660.5 250.1 662.3494140625 246.790625 663.925 245.175 664.0732421875 246.4658203125 664.275 247.75 663.02578125 238.71015625 663.3 229.05 664.0220703125 201.326171875 677.075 176.75
M 707.1 266.15
Q 707.573828125 266.695703125 707.75 267.35 708.25 269.05 707 270.85 706 272.25 704 273.5 698.1 277.25 689.1 279.6 684.85 280.85 682.25 280.25 680.5 279.85 679.2 278.6 678.4283203125 277.855859375 677.875 277.025
M 679 298.85
Q 680.85 298.85 683 298.25 683.1 298.1 683.5 298 683.6 297.75 683.6 297.25 683.45 296.05 682.25 294.15 680.9 292 680.425 290.9 679.9703125 291.5802734375 678.9 292.45 677.4 293.65 677.25 294.6 677.1 295.3 677.6 296.75
L 681.1 304.9 692.8 291.85 729.15 373.55 725.575 374.75
M 677.1 275.6
Q 677.5388671875 280.2083984375 678.95 284.45 679.4556640625 285.9962890625 680.1 287.5 680.85 289.15 680.75 290.25 680.6671875 290.5478515625 680.425 290.9
M 664.275 247.75
Q 667.71484375 265.8603515625 672.775 274.7 677.8306640625 283.532421875 678.95 284.45
M 697.175 266.4
L 697.15 266.35
Q 698.15 265.1 699.8 264.6
M 707 294.75
Q 707 295.05 706.75 295.25 706.55 295.5 706.25 295.5 705.95 295.5 705.7 295.25 705.5 295.05 705.5 294.75 705.5 294.45 705.7 294.2 705.95 294 706.25 294 706.55 294 706.75 294.2 707 294.45 707 294.75 Z
M 716.3 294.2
Q 716.3 294.45 716.1 294.6 715.95 294.8 715.7 294.8 715.45 294.8 715.25 294.6 715.1 294.45 715.1 294.2 715.1 293.95 715.25 293.75 715.45 293.6 715.7 293.6 715.95 293.6 716.1 293.75 716.3 293.95 716.3 294.2 Z
M 713.6 279.85
L 720.35 277.8
M 723.575 271.5
Q 722.5716796875 274.2009765625 720.6 277.75
M 706.35 284.15
L 714 281.2
M 687.5 282.65
L 689.65 290.5
M 691.6 306.5
Q 691.6 307.4 690.95 308 690.35 308.65 689.45 308.65 688.55 308.65 687.9 308 687.3 307.4 687.3 306.5 687.3 305.6 687.9 304.95 688.55 304.35 689.45 304.35 690.35 304.35 690.95 304.95 691.6 305.6 691.6 306.5 Z
M 691.5 316.05
Q 698.4095703125 331.479296875 704.8 346.9 704.8314453125 346.9708984375 704.85 347.05 704.8873046875 347.1130859375 704.925 347.175 705.362109375 347.9634765625 706.35 348.35 706.8 348.5 707.5 348.45 707.85 348.4 708.6 348.25 709.64921875 347.996484375 710.725 347.5 711.801953125 347.0103515625 710.95 344.5
L 698.8 314.075
Q 697.975390625 313.254296875 695.85 313.275 693.7294921875 313.301171875 691.5 316.05 Z
M 690 327.1
Q 688.5525390625 328.1857421875 687.4 328.85
L 688.5 332.85 688.6 333.75
M 726.9 324.9
Q 726.9 325.25 726.6 325.5 726.35 325.8 726 325.8 725.65 325.8 725.35 325.5 725.1 325.25 725.1 324.9 725.1 324.55 725.35 324.25 725.65 324 726 324 726.35 324 726.6 324.25 726.9 324.55 726.9 324.9 Z
M 686.85 325.75
Q 685.9 321.15 683.1 317.6 682.3783203125 316.538671875 682.15 316.2 679.19609375 317.4740234375 675.85 317.75 675.1 317.85 674.85 318 674.15 318.5 674.35 320.5 674.6 323.15 674.25 325.35 673.95 326.65 674.35 327.35 674.95 328.1 676.1 328.1 679.05 328.55 682.65 327.75 684.95 327.2 689 325.75
M 683.6 311.5
Q 680.35 313.45 676.5 314 672.65 314.55 669 313.6 668.25 314.45 667.9 315.65 667.55 316.9 667.75 318 668.15 320.6 670.25 321.85
L 670.25 329.05
Q 669.57109375 330.123046875 668.7 330.85 672.712109375 332.2806640625 674.875 335.925 677.026953125 339.5744140625 677.825 341.625 678.630859375 343.676953125 678.575 347.175 678.547265625 348.5830078125 678.275 349.7 678.8923828125 350.5150390625 679.125 351.025 679.3517578125 351.54609375 679.625 352.3 679.89921875 353.051171875 680.975 352.65 682.05 352.25 683.5 351.85
L 686 351.1
Q 688 350.45 690.6 350
M 684.75 314.85
Q 683.494140625 315.6251953125 682.15 316.2
M 668.7 330.85
Q 667.719140625 331.698046875 667 332.45 665.3 334.25 664.75 336.1 664.637890625 336.4626953125 664.55 336.85 664.0251953125 339.4435546875 664.85 343.35 665.45 346.2 666.15 347.95 667.05 350.3 668.6 351.75 670.25 353.5 672.75 353.75 675.2998046875 354.0037109375 676.9 352.35 677.8615234375 351.3521484375 678.275 349.7
M 664.55 336.85
L 664.1 335.85
Q 663.35 334.15 661.3 333.55 659.35 333 657.6 333.85 656.0001953125 334.6943359375 655.05 336.375 654.0990234375 338.06640625 653.875 341.1 653.65078125 344.1333984375 655.225 348.75 656.799609375 353.35546875 658.85 355.25 661.7 358.1 665.5 357.85 667.3 357.75 668.85 356.75 670.45 355.65 671 354
M 687.4 328.85
Q 685.1142578125 330.2927734375 683.35 330.85 679.35 332.15 676 330.5 676.25 332.3 676.6 333.25 677.1 334.75 678.1 335.5 679.2 336.1 681.1 336.1 683.7 336.1 686.85 335.05 688.5 334.45 692.35 332.75
M 681 342.25
Q 680.75 341.6 680.5 341.25 680.25 341.25 680.25 341 679.85 340.35 679.25 340.1 678.65 339.85 678.5 339.85
L 678 339.75
Q 677.55 339.5 677.25 339.6
M 679.25 345.5
Q 680.35 345.5 681.7 345 682.5 344.7 684 344.1 685.35 343.6 686.55 343.65 687.95 343.7 688.75 344.5 689.7 345.3 690.25 348 691.25 351.95 693.6 352.6 694.8 352.9 696.75 352.1 699.1 351.1 699.85 351
M 689.6 368.25
Q 684.5 369.95 679.5 368.85 677.65 368.55 676.3 367.65 674.75 366.6 674.5 365.1 674.15 362.65 676.75 360.35 679.3 357.8 682.75 356.55 686.25 355.25 689.75 355.6 693.3 356 696.3 358.15 699.35 360.35 700.75 363.6 702.7 368.1 701 372.75 700.571484375 373.801953125 699.475 375.7
L 701.5 376
Q 703.8888671875 376.45390625 705.375 376.75 706.764453125 377.0201171875 707.35 377.15 707.42890625 377.1822265625 707.5 377.2 710.9 377.95 713.35 379.1 716.25 380.5 718.4 382.6 720.7 384.95 721.6 387.75 722.5 390.9 721.6 394.45 721.3130859375 395.580859375 720.875 396.65 720.53671875 397.5076171875 720.1 398.325 722.45625 405.2173828125 724.025 411.7
L 725.5 411
Q 737.7 405.2 746.85 394.75 756 384.3 760.25 371.35
M 670.6 367.95
Q 670.6 368.55 670.15 369 669.7 369.45 669.1 369.45 668.5 369.45 668.05 369 667.6 368.55 667.6 367.95 667.6 367.35 668.05 366.9 668.5 366.45 669.1 366.45 669.7 366.45 670.15 366.9 670.6 367.35 670.6 367.95 Z
M 653.25 346
Q 651.95 346.45 649 347.25 647.2 347.85 646.4 348.3 645.05 349.05 644.5 350.1 644 351.1 644.05 353.7
L 648.4 363.65 649.45 363.35 660.05 358.8 663.225 366.3 652.5 371.25
M 648.4 363.65
L 650.375 368.15 653.175 374.525
Q 653.3025390625 374.8208984375 653.65 375.3 653.998046875 375.7841796875 654.925 376.25 655.8505859375 376.705078125 657.2 376.85 658.6 377.1 660.4 376.35
L 664.2 374.725 677.35 369.15
M 667 382.35
Q 662.55 384.75 659.1 388.45 658.4765625 389.10859375 657.9 389.8 661.494921875 393.205859375 666.55 395.2 671.6 397.15 677.35 397.35 680.398046875 397.408984375 683.5 396.95 690.9099609375 395.8712890625 698.6 391.85 704.1 389.1 706.35 385.75 707.85 383.6 708.05 381.05 708.2107421875 378.8791015625 707.35 377.15
M 713.8 357.85
Q 713.8 358.7 713.15 359.3 712.55 359.95 711.7 359.95 710.85 359.95 710.2 359.3 709.6 358.7 709.6 357.85 709.6 357 710.2 356.35 710.85 355.75 711.7 355.75 712.55 355.75 713.15 356.35 713.8 357 713.8 357.85 Z
M 699.1 348
Q 697.8 347.25 695.6 348 694.5 348.3 691.75 349.6
M 699.475 375.7
Q 699.164453125 376.2427734375 698.8 376.85 697.2 379.55 696.6 381.1 695.8 383.65 696.1 386.4 696.45 389.1 697.85 391.35
M 698.35 392.6
Q 700.75 393 702.1 395 703.4 396.8 703.25 399.25 703.2 400 703 401.5 702.95 402.75 703.25 403.6
L 704.35 405.1
Q 705.7 406.95 705.25 409.6
M 708.35 380.75
Q 711.7 381.55 712.75 382.1 715.15 383.25 715.5 385.5 715.55 386.15 715.5 387.35 715.5 388.4 715.85 389 715.95 389.2 717 390.25 718.4 391.5 720.25 395.1
L 720.875 396.65
M 703.35 303.65
L 725.35 354.8
M 681.1 304.9
L 705.35 362
M 681.2 342.6
L 694.25 337.55
M 655.85 412.75
Q 654.85 426.3 657.5 439.75 660.2 453.35 666.35 465.35 668.6837890625 469.888671875 671.275 473.6 677.721484375 482.8607421875 685.75 487 693.7 491 703.7 490.45 712.85 489.9 721.85 485.75 729.35 482.25 737.55 475.85 742.435546875 472.0392578125 751.325 463.975
L 752.6 462.8
Q 755.748828125 457.451171875 760.5 449.75 769.15 434.05 771.7 416.05 774.3 398 770.35 380.6
L 770.1 379.15
Q 767.35625 375.724609375 765.25 372 760.1 363.15 759.3 353.2 758.5265625 343.0009765625 762.575 334.675 757.6994140625 330.9185546875 753.25 326.6 753.8 331.9 751.85 334 750.8 335.05 749.35 335.6 746.05 337.35 741.6 338
M 767.35 339.25
Q 766.95 342.95 767.5 346.1 767.55 346.7 767.7 347.85 767.75 348.9 767.6 349.6 767.4 350.55 766.55 351.65 765.5 352.9 765 353.5 763.35 355.85 762.95 359.5 762.75 361.7 763 366.1
M 756.8 351.7
L 756.8 357.65 759.2 357.65
M 758.7 367.55
Q 758.7 368.7 757.85 369.5 757.05 370.35 755.9 370.35 754.75 370.35 753.9 369.5 753.1 368.7 753.1 367.55 753.1 366.4 753.9 365.55 754.75 364.75 755.9 364.75 757.05 364.75 757.85 365.55 758.7 366.4 758.7 367.55 Z
M 751.15 374.35
L 762.85 369.1
M 745.8 351.7
L 756.3 351.7
M 802.95 354.3
L 803.475 365.85
Q 804.7794921875 366.436328125 806.05 366.95 814.55 370.45 822.5 370.6 826.0615234375 370.680078125 829.425 370.075
L 828.1 357.75
Q 815.341796875 357.5166015625 802.95 354.3 795.7888671875 352.453125 788.75 349.6 774.4197265625 343.812109375 762.575 334.675
M 781.35 346.75
Q 781.95 350.3 784.95 353.6 787.1 356 791.1 358.75 797.576171875 363.1357421875 803.475 365.85
M 788.75 360.35
Q 784.95 362.6 784 366.6 783.45 368.55 783.5 371.8 783.6 376 783.5 377.1 783.25 379.25 782.1 383.5 781.45 387.8 782.6 390
M 811.35 372.25
Q 808.35 374.9 808.35 380.5 808.35 382.05 808.75 385.1 809.1 388.1 809.1 389.6 809.1 391.95 808.6 396.65 808.35 400.85 809.25 403.5
M 709.8 300
L 732.2 354.35
M 922.25 298.5
L 928.25 288.75
Q 929.6 286.7 928.5 285.75 928.45 285.75 927.4 285.3 926.75 285.05 926.6 284.6 926.45 284.3 926.65 283.85 926.95 283.45 927 283.25 927.5 281.45 925.6 280 925.1 279.7 924 279.2 922.85 278.7 922.35 278.35 921.55 277.8 921.35 277.1 921.25 276.6 921.75 275.6 922.55 274.5 923.1 274.25 924.2 273.7 926 275
L 931.25 278.75
Q 932.1 279.35 932.75 279.35 933.15 279.35 933.5 279.05 933.8 278.7 933.75 278.35 930.45 276.75 927.35 274.25 925.1 272.55 925.75 271.1 926.65 269.45 929.85 270.85 931.6 271.75 935 273.35 936.4044921875 274.09921875 937.5 274 938.588671875 273.8958984375 939.675 272.475 940.4765625 271.4349609375 940.875 270.775 941.0111328125 270.5375 941.1 270.35 941.112109375 270.1103515625 941.65 269.4
L 941.625 269.375 934.65 265.9 931.15 256.25 934.5 248.75 949.15 255.85
Q 949.3373046875 255.6962890625 949.55 255.55 951 254.5 952.85 254.5 955.45 254.5 959.35 256.75
M 900.7 264.15
L 900.7 264.2
Q 900.681640625 269.0671875 897.05 272.5 895.96171875 273.528515625 894.725 274.25 891.849609375 275.95 888.2 275.95 883 275.95 879.35 272.5 875.7 269.05 875.7 264.15 875.7 259.25 879.35 255.8 883 252.35 888.2 252.35 893.4 252.35 897.05 255.8 899.3171875 257.94296875 900.175 260.65 900.7 262.29375 900.7 264.15 Z
M 961.45 253.725
Q 961.5185546875 254.0607421875 961.75 254.35 961.95 254.7 963.1 255.85 969.8 261.35 977.75 261.35
M 949.15 255.85
Q 947.93671875 256.8626953125 947.85 258.25 947.821875 258.643359375 947.85 259.025 948.0091796875 260.6591796875 949.35 262 950.35 262.9 953 264.25 956.35 266 963.1 269.35 967.2 271.25 968.85 271.8 969.5041015625 272.021484375 970.125 272.175 972.6333984375 272.81953125 974.75 272.5
M 941.625 269.375
L 947.85 259.025
M 951.9 278.55
Q 951.9 279 951.6 279.3 951.3 279.6 950.85 279.6 950.4 279.6 950.1 279.3 949.8 279 949.8 278.55 949.8 278.1 950.1 277.8 950.4 277.5 950.85 277.5 951.3 277.5 951.6 277.8 951.9 278.1 951.9 278.55 Z
M 963.15 275.8
Q 963.15 276.25 962.85 276.55 962.55 276.85 962.1 276.85 961.65 276.85 961.35 276.55 961.05 276.25 961.05 275.8 961.05 275.35 961.35 275.05 961.65 274.75 962.1 274.75 962.55 274.75 962.85 275.05 963.15 275.35 963.15 275.8 Z
M 966.3 297.45
Q 966.3 298.45 965.6 299.15 964.9 299.85 963.9 299.85 962.9 299.85 962.2 299.15 961.5 298.45 961.5 297.45 961.5 296.45 962.2 295.75 962.9 295.05 963.9 295.05 964.9 295.05 965.6 295.75 966.3 296.45 966.3 297.45 Z
M 963.75 284.85
L 970.125 272.175
M 940.875 270.775
Q 944.9 272.65 948.6 273.35
M 872.625 179.85
Q 876.1791015625 190.2939453125 876.75 200.1
L 876.8 203.4
Q 883.80078125 197.59296875 887.6 188.6
M 832.45 223.4
Q 832.4 221.5 833.35 219.85 834.2 218.3 835.75 217.1 837.9 215.55 842.25 214.35
L 866.75 206.85
Q 870.1 205.8 872.05 205.5 872.716015625 205.409765625 873.35 205.375 874.6 205.25 876.25 203.85 876.5326171875 203.624609375 876.8 203.4
L 876.85 205.625
Q 877.1009765625 205.6810546875 877.35 205.75 877.9068359375 205.9322265625 878.45 206.175 884.06328125 203.8775390625 887 202 891.8 198.95 893.5 194.85
M 873.35 205.375
Q 875.23203125 205.2642578125 876.85 205.625
M 894.6 205.75
Q 888.7 208.85 881.975 208.7 883.478515625 210.2533203125 884.675 212.475 885.3021484375 213.639453125 885.85 215 888.6 221.3 888.9 227.7 889.031640625 230.2953125 888.75 232.725 888.2533203125 236.7626953125 886.6 240.35 886.5716796875 240.412109375 886.55 240.475 902.1 248.65 911.75 264.15 921.4 279.7 921.85 297.25
L 921.8 300.45
Q 922.3751953125 299.55859375 923 298.6
M 878.45 206.175
Q 880.3880859375 207.0529296875 881.975 208.7
M 839.5 256.85
Q 841.35 251.05 842.95 248.1 845.45 243.55 849.1 241.6 852.35 240.1 856 240.1 861.6 239.9 864.5 243.1 866.35 245.3 866.35 248.5 866.5208984375 250.80625 865.675 253.175 872.2 253.9 878.1 250.1 883.791015625 246.4380859375 886.55 240.475
M 859 226.375
Q 859.8248046875 226.02421875 860.65 225.65 863.4478515625 224.38359375 866.35 222.925 875.07421875 218.546484375 884.675 212.475
M 859 226.375
Q 858.7544921875 228.408203125 859.5 229.75 860.6 231.3 862 231.5 863.25 231.7 864.45 230.9 865.5 230.15 866.1 228.85 866.9 226.95 866.35 222.925
M 866.35 245.5
Q 878.55 240.65 888.25 233.35
L 888.75 232.725
M 829.5 205.85
Q 828.6 209.8 828.6 211.25 828.6 214.3 830.35 216.25 831.8 217.7 834 218.1
M 821.75 207.35
Q 824.55 209.7 825.65 213.3 826.75 216.9 825.775 220.55
M 836.975 231.85
Q 837.1962890625 232.705078125 837.35 233.6 838.4 240 836.95 246.4 836.587890625 248.011328125 836.075 249.55 837.3 250.8 839.25 252.1 840 252.65 840.35 252.75
M 836.85 248.25
Q 839.65 248.65 842.35 248.5
M 836.075 249.55
Q 836.0427734375 249.6734375 836 249.8
M 840.35 297.35
Q 834.15 294.55 830.8 293.4 825.35 291.6 820.75 291.6 820.7400390625 292.7228515625 820.6 293.85 820 297.85 817.8 301.15 815.45 304.6 812 306.25
M 810.575 271.625
Q 811.0185546875 271.9763671875 811.45 272.35 814.7 275.1 817 278.75 820.8796875 285.10234375 820.75 291.6
M 865.675 253.175
Q 865.525 253.5916015625 865.35 254 864.25 256.55 862.25 258.75 860.5 260.65 857.9 262.6 856.55 263.6 853.25 265.85
M 837.25 231.6
Q 848.29609375 230.91796875 859 226.375
M 829.425 370.075
Q 834.44140625 369.1591796875 839 366.7 846.6107421875 362.6845703125 850.025 355.825 840.66015625 357.6169921875 831 357.75 829.54765625 357.7634765625 828.1 357.75
M 836.25 370.85
Q 837.75 370.85 838.9 372.2 839.95 373.4 840.35 375.1 840.55 375.9 840.85 378.3 841.1 380.3 841.5 381.5 842.1 383 844.1 385.85 845.7 388.4 846.3 391.45 846.9 394.5 846.45 397.675 855.0595703125 392.3439453125 862.35 384 866.8271484375 378.9783203125 869.975 373.675 871.646875 370.8935546875 872.95 368.025 873.258984375 367.34296875 873.55 366.65 877.6537109375 356.6349609375 876.65 347.2 874.91953125 347.9970703125 873.15 348.75 864.2654296875 352.5482421875 855.1 354.75 857.75 355.4 859.5 357.7 861.3 360.05 861.1 362.75 861.1 363.3 860.85 365.3 860.65 366.8 860.85 367.75 861.25 369 862.75 371 865.35 374.65 865.85 378.6
M 921.8 300.45
Q 916.31171875 308.88359375 915 311.1 910.8 318.3 908.5 324.1 908.036328125 325.2326171875 907.6 325.95 905.3017578125 333.326953125 905.05 334.85 904.791015625 336.3677734375 904.4 337.775 904.013671875 339.1927734375 902.775 339.175 901.5447265625 339.150390625 900.35 338.45 899.05 337.55 898.35 337.25 896.45 336.5 893.5 338.25 887.9 341.5 885.85 344.85 884.45 347.15 884.3 349.7 884.15 352.4 885.5 354.5 886.85 356.5 889.6 357.7 891.45 358.55 894.9 359.55 894.8 361.7 897.85 363.25 901.85 365.35 909.85 369.5 912.2 370.9 913.85 370.6 915.9 370.3 917 368.625 918.1 366.95 918.8 365.625 919.5 364.3 920.2 363
L 918.35 362
Q 917.85 361.5 917.85 361.25 917.85 360.75 918.1 360.35
L 961.2 282.55 972.55 296.95 967.175 306.95
Q 967.9609375 307.8888671875 968.975 308.55 969.9705078125 309.181640625 971.25 309.6 972.6 310.2 976 310.5
M 894.95 351.9
Q 894.95 352.9 894.05 353.6 893.15 354.35 891.9 354.35 890.65 354.35 889.75 353.6 888.85 352.9 888.85 351.9 888.85 350.9 889.75 350.15 890.65 349.45 891.9 349.45 893.15 349.45 894.05 350.15 894.95 350.9 894.95 351.9 Z
M 872.95 368.025
Q 876.988671875 375.6603515625 880.25 380.75 884.55 387.55 889 392.6 899.8958984375 404.8150390625 913 408.1 917.2349609375 396.9439453125 924.1 387.35
L 925.7 385.125 925.7 385.1
Q 924.796484375 381.0203125 926.35 377.75 927.45 375.3 929.8 373.5 932 371.8 934.85 371 936.67265625 370.5109375 939.1 370.325
M 850.025 355.825
Q 852.5720703125 355.343359375 855.1 354.75
M 937.6 332.1
Q 936.8 334.45 937.1 335.35 937.65 336.65 940 337.35 941.4 337.8 941.95 337.9 943.05 338.1 943.85 337.75 944.6 337.4 945.25 336.6 945.55 336.25 946.25 335
L 956.6 316
Q 957.6 314.1 959.75 310.1 960.8 308.35 960.6 307.1 960.55 306.05 959.65 305.25 958.85 304.55 957.75 304.35 956.638671875 304.0720703125 954.6 303.7 953.812109375 303.61171875 953.4 304.375 944.48359375 317.5626953125 937.6 332.1 Z
M 968.975 308.55
L 968.1 309.6
Q 965.66015625 313.0853515625 963.275 317.475
M 967.175 306.95
L 962.075 316.35
M 934 298.3
Q 934 298.65 933.75 298.85 933.55 299.1 933.2 299.1 932.85 299.1 932.6 298.85 932.4 298.65 932.4 298.3 932.4 297.95 932.6 297.7 932.85 297.5 933.2 297.5 933.55 297.5 933.75 297.7 934 297.95 934 298.3 Z
M 938.8 347.1
Q 938.8 348.05 938.15 348.7 937.5 349.35 936.55 349.35 935.6 349.35 934.95 348.7 934.3 348.05 934.3 347.1 934.3 346.15 934.95 345.5 935.6 344.85 936.55 344.85 937.5 344.85 938.15 345.5 938.8 346.15 938.8 347.1 Z
M 955.725 328.075
L 948.6 341.2
Q 948.911328125 341.5486328125 949.35 342.05 950 342.75 950.6 343.1 952.35 344.05 953.6 343.75 954.4 343.5 955.15 342.75 955.5 342.35 956.35 341.25 959.55 337.05 959.85 336.75 962.2 334.4 964.6 333.85
M 962.425 320.675
Q 962.15 321.45 961.85 321.75 961.85 322.1 961.6 322.5 961.6 322.85 961.35 323.25
L 961.25 323.85
Q 961 324.55 961.1 325.1
M 960.725 318.85
L 958.375 323.175
M 912.25 351.9
Q 912.25 352.25 911.95 352.5 911.7 352.8 911.35 352.8 911 352.8 910.7 352.5 910.45 352.25 910.45 351.9 910.45 351.55 910.7 351.25 911 351 911.35 351 911.7 351 911.95 351.25 912.25 351.55 912.25 351.9 Z
M 920.2 363
L 922.45 364.35
Q 925.5453125 363.05625 927.975 361.125 930.4138671875 359.1810546875 935.25 355.775 940.0814453125 352.3751953125 942.5 349.85 944.4 347.85 945.175 347.45
L 945.2 347.425 948.6 341.2
M 979.65 414.85
Q 978.2458984375 415.36015625 976.6 415.75 970.35 417.05 963.65 416.05 957.15 415.15 951.1 412.25 939.95 406.7 931.1 395.6 927.6 391.1 926.2 386.95 925.8849609375 386.0138671875 925.7 385.125
M 955.85 358.6
Q 962.05 361.75 968.5 360.25 971.15 359.75 971.75 358.25 972.35 357.05 971.65 355.55 971.05 354.35 969.75 353.25 964.45 348.55 957.5 347.25 952.75 346.5 950.25 348.1 949.31171875 348.662890625 948.3 349.85 948.20234375 349.9736328125 948.1 350.1 947.31953125 351.038671875 946.5 352.35 944.25 356.55 943.85 359 943.1078125 364.2419921875 946.975 370.3
M 945.2 347.425
Q 945.96875 347.06328125 946.8 347.65 947.65 348.25 947.85 349
L 948.3 349.85
M 974.1 382.2
Q 972.65625 385.25 971.25 388.25 969.75 391.6 969.25 393.1 968.25 395.9 968.25 398.1
M 943.45 289.45
L 915.35 341.35
M 921 343.8
L 949.9 293.1
M 876.65 347.2
Q 893.969140625 339.142578125 907.6 325.95
M 913 408.1
Q 912.255078125 410.0275390625 911.6 412 907.2 425.4 907 439.25 906.75 453.15 912.25 461
M 902.75 438
Q 901.05 438.9 899.85 441.5 897.65 445.9 897.5 451.25
M 852.8 408.8
L 854.8 417.25
M 865.9 415.75
Q 865.847265625 415.278515625 865.8 414.8 863.7 393.55 869.975 373.675
M 858.7 416
L 854.25 412 857.3 408.3
M 849.5 464.85
Q 852.1 464.5 853.4 464.5 855.6 464.5 857.1 465.35 859.7 466.8 861.85 471.5 862.55 473.15 862.6 473.6 862.85 474.9 862 475.75 860.4115234375 476.701953125 859.725 477.875 859.04609375 479.04921875 858.6 479.9 858.24453125 480.5482421875 857.9 481.075 858.1734375 481.090625 858.45 481.1 861.0923828125 481.3796875 864.875 481.9 864.90625 481.8439453125 864.925 481.8 865.19765625 481.162109375 865.425 480.525 867.639453125 474.4546875 866.25 468.25 865.4 464.5 860.15 454.75 855.7 446.55 855.85 441.1 855.95 439.25 856.6 436.1 857.35 432.45 857.5 431 857.7 428.2 856.9 425.9 856 423.25 853.85 422.5 849.15 424.25 840.75 430.05 832.4 435.8 827.6 437.5 827.434375 437.5611328125 827.275 437.625 831.45 437.85 837 441.5 840.55 444 841.3 444.45 843.75 446.05 845.85 446.85 851.1 448.6 856.25 447.1
M 770.1 379.15
Q 778.9193359375 390.11328125 794.35 398 808.35 405.2 819.85 405.5 831.55 405.85 843.2 399.55 844.850390625 398.6619140625 846.45 397.675
M 844.55 422.55
L 843.45 415.25 849.85 420.05 848.3 412.95
M 819.05 418.3
L 822.8 417.825 826.55 417.35
M 827.275 437.625
Q 820.7681640625 439.923828125 813.65 438.9 806.8353515625 437.9265625 801.35 434.2 804.5615234375 437.35859375 805.95 438.4 808.85 440.45 811.5 441.35 812.5 441.75 814.6 442.4 816.4 443 817.5 443.85 818.25 444.5 819.7 445.95 821 447.05 822.25 447 823.15 446.95 824.7 445.8 826.2 444.75 827.1 444.75 829.35 444.75 830.75 448.5 833.25 455.85 832.85 463.6 833.6 464.5 834.8 463.75 836.0013671875 463 836.05 461.875 836.0943359375 460.75 835.65 459.1 835.209375 457.45 834.9 456.275 834.58828125 455.1 834.6 452.675 834.616015625 450.25 836.3 449.7 838.1 449.05 838.7 451.65 839.8 455.95 839.85 456.1 841.3 458.95 845.35 459.6 846.45 459.75 848.65 459.75 850.9 459.75 852 459.85 856.2 460.25 859.85 462.6 863.5 464.95 865.5 468.6
M 829.05 422.55
L 829.4 425.25 833.45 425.25
M 829.4 425.25
L 829.95 429.75
M 833.55 420.9
L 834.55 429.25
M 847.85 425.85
Q 848.3 426.5 848.15 427.35 848 428.1 847.5 428.75 846 430.1 845.25 430.85 843.8 432.3 843.25 434.45 842.7 436.45 843 438.6 843.45 442.05 846 446.35
M 822.8 417.825
L 824.45 430.2
M 838.25 418.6
L 839.45 426
M 849 466.7
Q 849 469.2 847.4 470.95 845.85 472.75 843.65 472.75 841.45 472.75 839.85 470.95 838.3 469.2 838.3 466.7 838.3 464.2 839.85 462.4 841.45 460.65 843.65 460.65 845.85 460.65 847.4 462.4 849 464.2 849 466.7 Z
M 846.5 466.7
Q 846.5 467.9 845.65 468.75 844.8 469.6 843.6 469.6 842.4 469.6 841.55 468.75 840.7 467.9 840.7 466.7 840.7 465.5 841.55 464.65 842.4 463.8 843.6 463.8 844.8 463.8 845.65 464.65 846.5 465.5 846.5 466.7 Z
M 778 466
Q 778.8 465.65 779.3 464.65 779.75 463.75 779.85 462.75 779.85 460.1 780.25 459 780.8 457.3 782.45 456.2 783.9 455.2 785.85 454.85 787.35 454.65 789.5 454.75 790.75 454.8 793.25 455 797.85 455.2 800.1 453.25 801 452.45 802.45 450.35 803.75 448.35 804.75 447.6 806.8 445.85 811.35 445.85 816.9 446.15 818.6 449.1 819.75 451.1 818.8 455.25 817.8 459.8 818.5 462.7 818.5228515625 462.7279296875 818.55 462.75 820.75 464.5 820.75 467 820.75 468.3671875 820.1 469.5 820.6 470 821.5 470.6 822.25 471.35 822.25 472.1 822.1 472.6 821.6 473.5 821.5 474.45 822.75 475.6 825.041015625 477.478515625 827.825 478.525 828.0908203125 478.612109375 828.35 478.7 828.3427734375 478.5896484375 828.35 478.475 828.45 476.9 828.95 476.575 829.45 476.25 829.85 476.25 832.75 476.4 835.65 476.65 836.7 476.65 837.4 477 837.8 477.3 837.9 477.8 838.05 478.3 837.75 478.65 842.25 478.05 848.1 481 848.3927734375 481.1337890625 848.65 481.275 848.7306640625 481.3119140625 848.8 481.35 849.03515625 481.475 849.25 481.6 850.03515625 481.3 853.825 481.1 855.459765625 481.0134765625 857.9 481.075 857.436328125 481.8263671875 857 482.35 854.45 485.1 851.6 484.75 851.6 484.8021484375 851.6 484.85 851.6 485.20859375 851.525 485.575
L 851.525 485.6
Q 856.4265625 486.2396484375 861.45 487.8 861.6353515625 487.54375 861.825 487.275 861.8884765625 487.1884765625 861.95 487.1 863.7615234375 484.501953125 864.875 481.9
M 778.75 478.35
Q 779.2 478.35 779.8 477.55 780.5 476.7 781 476.6 781.2 476.55 781.6 476.7
L 782.35 477
Q 783.95 477.7 786 476.35 786.6 475.9 787.4 475.05 787.85 474.55 788.75 473.6 792.5 469.3 797.4 466.2 802.35 463.1 808.6 462.3 810.61640625 461 813.3 461 816.3607421875 461 818.5 462.7
M 816.8 467.45
Q 816.8 468.75 815.75 469.65 814.7 470.6 813.25 470.6 811.8 470.6 810.75 469.65 809.7 468.75 809.7 467.45 809.7 466.15 810.75 465.2 811.8 464.3 813.25 464.3 814.7 464.3 815.75 465.2 816.8 466.15 816.8 467.45 Z
M 828.35 478.7
Q 828.330078125 480.071875 829.35 480.35
L 830.1 480.35
Q 830.7138671875 480.5423828125 830.8 482.075 830.888671875 483.596484375 832.1 484.35 832.15 485.6 831.85 486.35 831.737109375 486.688671875 831.475 486.975 832.3 487.05 834.85 488
L 838.85 489.85
M 827.825 478.525
Q 823.65 478.1 820.2 479.2 817.65 480.05 814.1 481.85 811.6396484375 483.2046875 810.45 484.675 810.7240234375 484.7533203125 811 484.85
M 820.1 469.5
Q 819.546875 470.45703125 818.55 471.25 816.4 473 813.3 473 810.2 473 808 471.25 805.85 469.5 805.85 467 805.85 464.5 808 462.75 808.2955078125 462.51484375 808.6 462.3
M 810.45 484.675
Q 809.4841796875 485.848046875 809.35 487.1 809.3 488.35 809.85 489.55 810.45 490.75 811.5 491.5 812.673046875 492.347265625 814.325 492.95 816.8248046875 491.3017578125 819.6 490.6
M 814.325 492.95
Q 815.2224609375 493.25625 816.25 493.5 817.3935546875 493.7287109375 818.525 493.875 818.737890625 493.546484375 819 493.25 819.9 491.95 821.6 491.5
M 824.85 486.05
Q 824.85 486.3 824.55 486.45 824.3 486.6 823.95 486.6 823.6 486.6 823.3 486.45 823.05 486.3 823.05 486.05 823.05 485.8 823.3 485.65 823.6 485.5 823.95 485.5 824.3 485.5 824.55 485.65 824.85 485.8 824.85 486.05 Z
M 836.4 494.85
L 836.375 494.85
Q 836.5 494.784765625 836.5 494.1 836.5 493.45 836 492.25 835.7 491.45 835.25 491 834.85 490.6 834 490.6 833.685546875 490.6 832.75 491.1 831.7896484375 489.601953125 831 489.75 830.3 489.75 829.5 491.1 829 492.35 829.1 492.85 829.1009765625 493.244140625 829.075 493.925 829.04140625 494.6171875 830.4 494.95 831.7712890625 495.28203125 832.975 495.2 834.1658203125 495.1150390625 835 495.225 835.84609375 495.344921875 836.4 494.85 844.0990234375 493.09375 848.125 489.9 846.4451171875 489.08125 844.6 488.5
M 818.525 493.875
Q 823.6345703125 494.46640625 828.7 493.2
M 845.7 482.25
Q 848.3693359375 481.7494140625 849.25 481.6 851.5390625 482.9708984375 851.6 484.75
M 839.85 471.6
Q 839.5 471.8 839.5 472.35 839.5 472.75 839.6 472.85 839.6 473.35 839.75 473.6 839.8 473.9 839.9 474.45 840 475 840 475.475 840 475.95 839.425 476.925 838.85 477.9 838.6 478
M 832.1 486.75
Q 832.3 486.4 832.45 485.55 832.55 484.75 832.75 484.35
L 834.05 483.85
Q 834.7720703125 482.2359375 835 481.875 835.218359375 481.5025390625 835.25 480.675 835.290625 479.855078125 835.975 479.8 836.6556640625 479.7484375 837.5 479.1
M 840.15 486.05
Q 840.15 486.3 839.95 486.45 839.8 486.65 839.55 486.65 839.3 486.65 839.1 486.45 838.95 486.3 838.95 486.05 838.95 485.8 839.1 485.6 839.3 485.45 839.55 485.45 839.8 485.45 839.95 485.6 840.15 485.8 840.15 486.05 Z
M 831.475 486.975
Q 831.0609375 487.47578125 830.25 487.85
L 825.25 490.5
M 858.05 471.1
Q 858.05 471.8 857.65 472.3 857.25 472.8 856.7 472.8 856.15 472.8 855.75 472.3 855.35 471.8 855.35 471.1 855.35 470.4 855.75 469.9 856.15 469.4 856.7 469.4 857.25 469.4 857.65 469.9 858.05 470.4 858.05 471.1 Z
M 852.9 472.8
Q 852.9 473.05 852.7 473.25 852.5 473.45 852.25 473.45 852 473.45 851.8 473.25 851.6 473.05 851.6 472.8 851.6 472.55 851.8 472.35 852 472.15 852.25 472.15 852.5 472.15 852.7 472.35 852.9 472.55 852.9 472.8 Z
M 851.525 485.6
Q 851.4 486.0935546875 851.125 486.6 850.87109375 487.04453125 850.5 487.5 849.5484375 488.7775390625 848.125 489.9 849.7666015625 490.7115234375 851.25 491.75
M 866.25 492.15
L 864.2 493.3 867.95 499.5 870.5 497.55
M 861.45 487.8
Q 864.6958984375 488.833984375 868 490.25
M 876.5 491.5
Q 874.6 491.5 873.75 491.25 872.2 491 871.6 489.625 871.821875 489.628125 872.35 489.1 873.1 488.2 872.75 487.35 872.65 487 872.15 486.75 871.7 486.5 871.25 486.5 869.95 486.7 869.5 487.5 868.75 488.4 869 489.5 869.1 489.95 869.6 490.75 870.95 492.95 872.75 495.1
M 809.1 488
Q 803.4 489.1 798.6 493.5 796.8025390625 495.2513671875 795.1 497.4 795.470703125 497.530859375 795.85 497.65 798.9 498.6 805.5 499.85 818.35 502 825.85 502.25 837.2 502.6 845.75 499.5 855.2681640625 496.0603515625 861.225 488.1 861.3328125 487.9560546875 861.45 487.8
M 864.925 481.8
Q 869.8205078125 482.400390625 874.6 483.6
M 875.85 500
Q 876.5 499.517578125 877.425 499.125 878.35 498.73671875 879.025 498.975 879.7 499.204296875 880 499.75 880.35 500.25 880.35 501 880.3 501.55 879.75 503.35 879.4 504.35 879.5 504.6 879.6 505.25 880.35 506.25
M 872.4 504.75
L 869.1 507.1 872.8 514.05 875.75 512.3
M 871.55 510.25
L 873.15 509.35
M 883.95 509.7
Q 883.95 510.15 883.6 510.45 883.3 510.8 882.85 510.8 882.4 510.8 882.05 510.45 881.75 510.15 881.75 509.7 881.75 509.25 882.05 508.9 882.4 508.6 882.85 508.6 883.3 508.6 883.6 508.9 883.95 509.25 883.95 509.7 Z
M 861.6 496.2
L 863.6 499.95 865.05 502.7
M 860.15 501.3
L 862.4 500.25 863.6 499.95
M 851.8 503.55
L 855.15 500.7
M 853.85 502.5
L 856.4 506.5
M 859.3 520.3
L 857.2 513.6 863.85 518.65 863.85 510.4 868.35 517.45
M 857.75 498.7
L 861.65 505.15
M 845.75 527.25
Q 846.1 526 846.1 524.6
L 846.3 521.8 846.5 519
Q 846.6 518.45 846.65 518.15 846.8 517.6 847.1 517.35 847.7 516.75 849 517.25 849.95 517.7 851 519.85 851.2544921875 520.2953125 851.5 520.7 853.0955078125 523.4962890625 853.75 524.5
M 752.6 462.8
Q 750.6763671875 466.0626953125 749.35 468.45 743.25 479.5 742.6 488.5 742.05 497.2 746 505.9 748.3046875 510.9765625 751.8 515.4 753.9357421875 518.067578125 756.5 520.5 767.5 530.9 787.85 537.6 788.2865234375 537.741015625 788.725 537.875 810.8671875 544.8767578125 832.05 543.7 852.1734375 542.51875 867.85 534 870.75 532.428125 873.5 530.6 876.892578125 528.3439453125 879.825 525.775 885.5185546875 520.7779296875 889.45 514.6 891.3490234375 511.6052734375 892.675 508.575
M 879.825 525.775
Q 880.96875 526.2375 881.6 527.5 882.25 528.75 881.85 530 881.6 530.85 880.6 532.5 879.7 534 879.85 535.85 880 538.1 882.25 542
M 850.9 507.1
Q 850.9 508 850.25 508.6 849.65 509.25 848.75 509.25 847.85 509.25 847.2 508.6 846.6 508 846.6 507.1 846.6 506.2 847.2 505.55 847.85 504.95 848.75 504.95 849.65 504.95 850.25 505.55 850.9 506.2 850.9 507.1 Z
M 839.75 518.1
Q 838.35 518.3 837.25 519.35 836.15 520.4 835.75 521.75 834.85 524.3 836.35 527.35 836.9 528.2 837.1 528.35 837.6 528.75 838.85 528.75 840.65 528.75 841.35 527.85 841.65 527.6 842 526.1 842.25 524.6 841.85 524.1 841.45 523.5 840.35 523.5 839.55 523.5 838.85 523.85
M 835.55 513.25
L 834.9 506.45
M 835.05 505.95
L 839.3 510.95 840.45 505.4 844.8 510.75
M 823.6 513.5
Q 823.1 511.1 823 509.6 822.65 508.5 822.5 508.25 822.05 507.35 821.25 507.35 820.5 507.35 820.1 508 819.65 508.65 819.5 509.35 819.368359375 509.8435546875 819.175 510.5
L 822.6 510.5
M 818.1 513.85
Q 818.7708984375 511.8373046875 819.175 510.5
M 823 520.85
Q 821.7 520.6 820.35 521.25 819.05 521.9 818.35 523.1 817.75 524.3 817.75 526.5 817.5 527.8 817.85 528.85 818.15 529.65 818.35 529.85 818.85 530.35 819.75 530.35 821 530.6 821.85 529.75 822.7 529.1 822.85 527.85
L 822.85 527.1
Q 822.7 526.6 821.85 526.35
L 820.75 526.35
M 847.5 541.85
Q 849.3 542.9 850 544.95 850.75 547.05 850 549 849.6 550.1 848.1 552.25 846.9 555.05 847.5 557.85
M 828.6 544.6
Q 829.25 546.1 829.5 548 829.65 548.85 829.65 550.1 829.65 550.85 829.6 552.25 829.5 553.45 829.1 560.25
M 766.05 544
L 763.95 558.75
Q 772.75390625 565.015625 782.7 569.275 788.22109375 571.648828125 794.1 573.4 810.8 578.35 827.75 577.5 839.2 577 850.425 573.925
M 807.6 543
Q 805.9 543.85 804.75 547 804.05 548.5 804.25 549.75 804.45 550.5 805.15 551.4 806.1 552.7 806.25 553 806.9 554.25 806.9 555.95 806.85 556.95 806.475 559.125 808.8642578125 559.534765625 811.3 559.85 840.95 563.75 867.1 552.1 878.49296875 546.8505859375 885.1 540.325
M 867.85 534
Q 868.85 542.55 868.1 551.1
M 846.3 521.8
L 851.5 520.7
M 876.85 573.35
Q 886.8 573.95 896.15 570.75 905.85 567.45 912.85 560.75 920.1 553.8 923.9 543.7 927.55 534.1 927.35 523.5 927.2 504.4 915.5 484.75
M 888.5 516.75
Q 890.4 517.25 891.35 519.85 891.75 521.35 891.75 524.35 891.6517578125 526.166015625 891.85 531.075
M 814.325 492.95
Q 812.921484375 493.869140625 811.6 495.1
M 818.525 493.875
Q 817.85 494.9375 817.85 496.25
M 866.35 495.85
L 867.95 494.9
M 797.95 421.8
Q 797.95 423.35 797.05 424.45 796.2 425.6 795 425.6 793.8 425.6 792.9 424.45 792.05 423.35 792.05 421.8 792.05 420.25 792.9 419.1 793.8 418 795 418 796.2 418 797.05 419.1 797.95 420.25 797.95 421.8 Z
M 780.9 406.65
L 786.575 416.925 791.6 404.85
M 801.35 434.2
Q 800.9224609375 433.9095703125 800.5 433.6 794.7 429.2 792.75 428.2 788.05 425.85 784.75 427.85 783.9978515625 428.29765625 783.375 428.95 783.5470703125 429.1453125 783.7 429.35 784.498828125 430.484375 784.6 432 784.75 432.8 784.75 436.1 784.75 437.55 785.35 441.75 785.9 444.65 786.85 445.5 787.1 445.7 787.85 446.15 788.5 446.5 788.75 446.75 788.9 446.9 789.75 448.1 790.05 448.5 791 449.35 792.95 451.3 793.35 454.1
M 783.375 428.95
Q 782.2560546875 430.1208984375 781.55 431.95 780.85 433.8 780.35 437.25
L 778.1 454.6
Q 777.35 461.5 777.2 465 776.95 470.8 777.6 475.35 778.351171875 480.420703125 780.425 484.775 781.05 483.15 783.85 482.1 786.9 480.95 788.75 479.9 791.3 478.45 792.75 476.5 793.095703125 475.98125 793.55 475.075 793.76875 474.678125 794 474.2 794.75 472.6 795.25 471.85 796.8 469.45 799.55 468.2 802.25 466.95 805.1 467.35
M 803.35 420.6
Q 802.4 422.65 802 425.6 802 426.6 802.25 427.1 802.5 427.65 803.25 428.1 805.2 428.8 807.1 427.1 808.05 426.15 809.1 423.5
M 786.575 416.925
L 784.5 421.95
M 730 450.1
Q 731.95 453.2 732.65 456.9 733.4 460.55 732.75 464.1
M 769.65 482.85
L 772.8 485.65 776 488.45
M 774.5 491.35
L 772.65 493.325 775.575 496.925 778.2 494.55
M 780.425 484.775
Q 780.559765625 485.06953125 780.7 485.35 783.25 490.3 787.1 493.35 790.347265625 495.80859375 795.1 497.4 793.1099609375 499.926953125 791.25 503
M 793.55 475.075
Q 795.35 480.1 800.35 482.5 802.15 483.3 804.9 483.8 805.0390625 483.826953125 805.2 483.85 807.42421875 483.8421875 809.65 484.45 810.047265625 484.546875 810.45 484.675
M 805.2 483.85
Q 803.224609375 483.86640625 801.25 484.35 797.05 485.3 792.35 488.6
M 772.8 485.65
L 767.1 491.65
M 657.9 389.8
Q 655.2076171875 392.9990234375 653.6 396.75 652.15 400.05 652 403.15 651.75 406.7 653.35 409.35 655.45 413 661.35 415.1 672.1 419 684.95 416.9 696.3 415.05 707.85 408.85 714.9 405.15 718.6 400.6 719.4455078125 399.498828125 720.1 398.325
M 724.025 411.7
Q 726.51640625 422.004296875 727 431.25 727.85 451.8 719.1 466.6
M 683.5 396.95
Q 683.75 398.35 683.3 401.35 682.9 404.25 683.25 405.75 683.45 406.85 684.25 408.25 684.7 409.05 685.6 410.6 686.75 413.15 687.1 415.75
M 664.85 395.1
Q 663.4 397.5 664 399.85 664.2 400.7 664.85 402.2 665.55 403.7 665.75 404.5 666.3 406.5 665.8 410.05 665.2 414.15 665.35 415.6
M 671.275 473.6
Q 664.673828125 484.1341796875 662.55 496.25 660.25 509.25 663.75 521 667.45 533.3 677.1 542.1 686.95 551.1 699.25 552.85 711.85 554.65 723.4 547.95 724.6826171875 547.20546875 725.875 546.4 725.6466796875 545.5833984375 725.45 544.75 722.6 532.65 726.75 522 728.75 516.7 732.25 515.85 734.45 515.4 736.5 516.8 738.45 518.1 739.25 520.25 740.6 523.75 739 529.25 735.6130859375 539.8119140625 725.875 546.4 728.7830078125 557.022265625 736.35 565.1 744.1 573.3 755.55 577.8 766.35 582.05 778.35 582.25
M 808.75 507.1
Q 808 506.95 807.65 506.9 806.95 506.85 806.5 507 805.5 507.55 805.5 508.75 805.5 509.25 805.6 509.5 805.85 509.85 806.45 510.1 807.3 510.4 807.5 510.5 808.1 511.1 808.1 512.35 808.1 513.5 807.75 513.85 807.5 514.1 806.85 514.1 806.35 514.25 805.25 514.25
M 800.35 505.45
L 798.3 512.7
M 779.85 503.85
Q 779.95 504.6 780.45 505.25 780.95 505.9 781.6 506.1 782.75 506.35 783.25 505.85 783.75 505.5 784 504.35 784.1 503.1 784.25 502.5 784.45 501.15 785.25 500.85 785.65 500.6 786.15 500.6 786.7 500.65 787 501 787.25 501.35 787.5 502.25
M 773.65 498.7
L 775.575 496.925
M 772.25 508.75
Q 770.7 510.6 770.25 513.6 770.25 515.1 770.6 515.6 771.15 516.5 772.5 516.5 773.85 516.65 775.35 515.75 776.3 515.1 777.05 513.85 777.5 513.15 778.25 511.5
M 784.25 515.25
Q 782.45 515.25 781.25 515.6 780.3 515.85 779.75 516.35 779.1 517 779 517.95 778.85 518.8 779.25 519.6 779.7 521.1 781.75 522
M 780.6 497.95
L 776.85 501.65
M 788.725 537.875
Q 786.9212890625 538.3125 786.1 540.1 785.2 541.85 786.25 543.6 786.45 544.1 787 544.8 787.65 545.65 787.85 546 788.25 547.35 788.25 548.6 788.3478515625 550.556640625 788.5 554.425 797.0962890625 557.5103515625 806.475 559.125
M 771.85 531.75
Q 770.9 532.2 770.5 533.35 770.15 534.4 770.35 535.6 770.6 537.1 771.85 539.85 772.65 542.15 772.35 546.6
M 802.95 527
L 806.85 521.55 807.7 528.5 812.65 523
M 790.4 517
L 786.9 524.5
M 791 525.3
L 789.65 520.25 793.75 518.65
M 799.25 519
L 797.2 526.55
M 759.8 509.15
L 762.8 505.35 765.8 501.55 769.7 504.3
M 762.8 505.35
L 765.1 507.6
M 751.8 515.4
Q 749.6978515625 517.8318359375 749.45 521.4 749.25 524.75 750.75 528 751.8474609375 530.515234375 754 532.95 754.6 530.1 754.65 528.6 754.75 526.25 754.1 524.5 753.7 523.6 753.55 523.15 753.25 522.4 753.25 521.75 753.05 520.1 754.6 519
M 754 532.95
Q 754.1908203125 533.1736328125 754.4 533.4 756.2 535.4 759.35 538 760.2328125 538.7158203125 761.125 539.4 761.6 535.85 760.35 532.1 759.45 529.5 759.35 528.85 759.2 526.5 761.25 524.85
M 761.125 539.4
Q 773.641796875 549.1044921875 788.5 554.425
M 772.65 493.325
L 770.85 495.25
M 782.7 569.275
Q 776.1935546875 589.6939453125 774.7 611.3 773.948828125 622.116015625 774.5 632.85 774.4958984375 632.9189453125 774.5 633 780.4998046875 636.4509765625 787.75 636.5 795.177734375 636.5498046875 801.325 633.025 799.14609375 604.7447265625 802.6 576.25
M 774.5 633
Q 775.0416015625 643.59609375 776.85 654.1 754.1037109375 653.5900390625 731.5 655.7 729.7587890625 658.0224609375 729.85 661.35 729.9 664.8 731.85 667.6 735.5 672.8 743.1 674.1 747.85 674.9 756.5 674.1
L 774.85 672.5
Q 784.95 671.65 790.3 670.7 798.75 669.3 805.1 666.6
L 805.825 666.3
Q 802.594921875 649.697265625 801.325 633.025
M 731.5 655.7
Q 720.8578125 656.68203125 710.25 658.25 700.8 659.75 694.9 662.9 687.1 667.1 686 674 685.5515625 676.558984375 686.125 679.1 686.6537109375 681.3826171875 688 683.65 690.65 688.1 695.35 690.75 699.45 693 704.95 694 709.1 694.8 715.1 695 730.2318359375 695.633203125 745.325 694.45 754.0685546875 693.783984375 762.8 692.5 786.6 689 809.1 681.1 807.2671875 673.705078125 805.825 666.3
M 855.475 633.25
Q 856.3591796875 650.00546875 856.625 666.75 892.05 680.45 919.5 673 927.05 671.1 930.1 666.85 932.05 664.25 931.8 660.9 931.5412109375 657.881640625 929.525 656.325 913.2478515625 655.2669921875 886.25 656.85 884.891796875 644.5220703125 883.35 632.35
M 856.625 666.75
Q 856.75 674.0505859375 856.75 681.35 870.2720703125 685.0498046875 881.475 687.775 900.1119140625 692.3080078125 912.35 694.15 943.65 698.85 968.35 693.75 972.5 692.9 974.9 692.05 978.4 690.8 980.75 688.85 983.4 686.6 984.55 683.4 985.85 679.95 984.75 677 983.9 674.9 981.85 673.05 980.5 671.8 977.85 670.1 976.746875 669.4251953125 975.6 668.775 958.33828125 658.9958984375 933.8 656.65 931.76796875 656.45703125 929.525 656.325
M 664.2 374.725
Q 669.6 386.1 672.75 396.5
M 494.85 56.85
Q 496.4 56.85 497.4 55.35 498.3 53.95 498.1 52.35 497.65 49.55 494.6 47.25 492.45 45.5 489.35 44 487.75 43.2 483.6 41.5 478.15 39.3 475.1 38.35 470.25 36.85 466.25 36.5 460.1 36.2 458.1 39.25 457.1 40.7 457.1 42.55 457.1 44.35 458 46 459.2 48.5 462.6 51.25
M 327.75 166
Q 328.2189453125 166.03515625 328.7 166.075 331.5423828125 166.2744140625 334.4 166.425
L 333.35 164.35
Q 332.601953125 162.805078125 331.925 161.2
L 331.25 161.25
Q 305.05 163.5 279.85 153.65 254.6 143.75 237 124.35 234.6 121.7 233.55 119.8 232.05 117 232.5 114.5 233.1 110.6 237.55 108.45 240.95 106.8 246.25 106.35 265.523828125 104.7337890625 286.3 106.15 296.3732421875 105.763671875 306.425 105.725
L 305.5 104.6
Q 301.9 100.6 301.25 94.5 300.6 88.85 302.6 83.25 304.3 78.4 308 73.4 310.7 69.75 315.5 64.85 333.65 45.95 356.75 31.1 366.65 24.85 374.7 21.9 385 18.1 394.1 18.85 406.05 20 422.7 31.55
L 436.1 40.85
Q 443.9 45.95 450.35 48.35 456.15 50.5 464.25 51.8 465.3 52 478.55 53.75 478.97578125 53.8060546875 479.4 53.875 496.6134765625 56.234765625 505.35 61.75 514.25 67.35 519.7 77.75 524.7 87.2 526 98.75 527.05 108.3 525.7 120.4 524.9 127.4 522.25 142
L 521.7 144.25
M 479.4 53.875
Q 486.615625 60.5775390625 490.85 70.75 494.7 80.2 495.6 91.5 496.2521484375 100.8984375 495.375 110.375 494.49296875 119.854296875 490.55 133.5 490.46015625 133.6232421875 490.375 133.75 505.3474609375 138.4775390625 520.1 144 527.15 146.95 532.25 151.8 537.35 156.6 538.85 163.5 539.55 167.1 538.45 168.75 537.5 170.45 535.3 170.95 533.3 171.45 531.2 170.75 529.65 170.3 527.6 169.05 526.10625 168.07578125 525 167.3 531.946875 173.341796875 535.1 181.75
M 523.75 166.35
Q 523.98125 166.5314453125 524.2 166.725 524.6494140625 167.076171875 525 167.3
M 483.25 180.75
Q 485.95 178.35 490 178.1 493.65 177.75 497.6 179.1 502.25 180.6 506.15 183.6 510.15 186.65 512.75 190.75
L 513.7 192.375
Q 514.109375 192.3330078125 514.5 192.35 516.28828125 192.424609375 517.725 193.55
M 453.9 222.95
L 462.95 218.1 464.875 221.175
Q 507.601953125 195.098828125 508.85 194.35 511.6310546875 192.606640625 513.7 192.375
M 641.425 137.525
L 644.5 142.4 690.35 115.6
M 626.75 187.1
Q 622.7 180.85 616.05 176.9 609.797265625 173.213671875 602.975 172.575 602.490625 172.530078125 602 172.5 597.05 172.25 594 173.75 592.05 174.6 590.8 176.25 589.45 178 589.35 180 589.15 182.1 590.45 184.2 591.55 186.1 593.5 187.5 595.1 188.6 597.4 189.7 598.75 190.3 601.5 191.5 602.5625 192.0060546875 603.55 192.575
M 636.25 176.5
Q 632.55 169.5 625 163.75 617.76484375 158.3359375 611.45 157.625 611.35 157.61015625 611.25 157.6 608.5 157.3 606.15 158 603.5 158.75 602 160.6 600 162.95 600.4 166.5 600.75 169.85 602.975 172.575
M 611.45 157.625
L 612.25 156.6
Q 615.15 153.15 620.05 152.05 624.7 151.05 629.25 152.5 633.6 153.85 637.25 157.05 640.7 160.05 643.1 164.25 644.1849609375 166.00390625 645.25 168.225
L 656.45 161.5 644.5 142.4
M 401.35 62.6
Q 405 67.3 407.1 71.85 408.75 75.3 408.85 77.75
M 387.35 57.35
Q 387.35 57.479296875 387.375 57.65 387.49921875 58.318359375 388.1 59.6 389.85 62.85 392.1 63.6 393.35 64.1 395.1 64.1 395.6 64.1 396.6 64.1 397.45 64.05 398.125 63.65 400.4453125 66.3599609375 402.15 70.5 403.3 73.2 404.75 78.35
L 405.5 78.1
Q 406.1 78.1 406.35 78
L 407.85 78
Q 408.25 78 408.85 78.25
M 401.75 62.1
Q 402.7 58.5 402 55.35 401.5 53.35 400.85 52.5 400.2 51.65 398.35 50.75 396.3 49.75 394.85 49.85 393.05 50.1 390.15 52.5
L 382.75 48.35
Q 380.6423828125 47.5369140625 379.275 47.3 377.90546875 47.059765625 376.925 47.525 375.948046875 47.9966796875 375.35 48.25 373.705078125 49.15234375 370.475 50.475 367.2498046875 51.8001953125 365.95 52.475 364.6509765625 53.150390625 363.425 53.6 362.1970703125 54.0486328125 362.45 55.375 362.704296875 56.7052734375 363.125 57.275 363.54453125 57.840234375 365 58.225 366.4517578125 58.603515625 368.15 59.2 369.85 59.8 370.15 62.275 370.45 64.75 370.4 65.75 370.35 66.75 372.35 66.75 375.95 66.9 379 65.85 381.4 64.9 382.35 63.6 383.1 62.85 383.35 61.8 383.6 60.8 383.25 59.85 383.2 59.75 382.2 58.1 381.6 57.05 381.75 56.25 381.95 56.05 382.3 56.15 382.7 56.2 383 56.5 383.1 56.6 383.3 57 383.55 57.4 383.75 57.6 384.6794921875 58.676171875 387.375 57.65
M 395.1 55.7
Q 395.50546875 56.297265625 396.275 57.1 397.0333984375 57.906640625 397.325 58.075 397.613671875 58.250390625 398.1 58.35 398.59296875 58.442578125 398.925 58.2 399.2513671875 57.96015625 399.325 56.7 399.4 55.44296875 398.7 54.75 398.1541015625 54.2005859375 397 53.85 395.8373046875 53.498046875 394.35 54.65 394.65 55.05 395.1 55.7 Z
M 392 57
Q 392.95 59.3 395.75 60.2 395.75 60.7 395.6 60.85 395.45 61.25 394.85 61.25 393.751171875 61.4453125 393.05 61.125 392.346484375 60.8140625 391.8 59.95 391.2546875 59.08125 391.25 57.85 391.5 57.2 391.6 57.1
M 387.15 68.675
Q 388.1435546875 69.89765625 388.825 70.55 389.501953125 71.200390625 389.85 71.575 390.19921875 71.95 391.75 71.5 392.55 71.15 392.85 70.75 393.55 69.55 392.6 67.85 391.9 66.05 390.7 64.9 388.75546875 63.1193359375 387.575 63.45 386.3958984375 63.7853515625 385.4 64.2 384.4013671875 64.6046875 384.6 65.6 386.1609375 67.454296875 387.15 68.675 Z
M 378.75 67.6
Q 378.15 67.8 378 68.5 377.85 69.15 378.2 70.95 378.55 72.7 378.9 74.95 379.25 77.15 379.5 77.7 379.7 78.2 380.8 78.55 381.85 78.85 382.85 78.25 383.85 77.6 385.75 76.2 386.15 75.9 386.8 75.35 387.4 74.8 387.55 73.9 387.65 73 386.75 71.7 385.8 70.35 384.55 68.65 383.3 66.95 381.7 66.5
L 378.75 67.6 Z
M 395.6 70.825
Q 395.475 70.9115234375 395.35 71 392.5958984375 72.9708984375 392.5 74.6 392.5 75.2 393.1 77 393.3443359375 77.75 394.3 81.025 395.2669921875 84.3 395.725 85.3 396.1830078125 86.3 396.75 86.525 397.3056640625 86.75 398.6 85.85 398.75 85.75 399.5 85.35 400.05 85.05 400.35 84.75 401.1033203125 84 400.95 81.35 400.789453125 78.7 398.35 73.35 397.9 72.25 397.25 71.6 396.490625 70.840625 395.6 70.825 Z
M 368.25 78.75
Q 368.25 79.6 368.6 80.1 369 80.6 370.35 80.6 370.95 80.7 371.95 80.65 372.45 80.65 373.5 80.6 374.75 80.6 375.25 80 375.7 79.5 375.5 78.5 375.0466796875 72.6046875 374.85 70.925 374.659765625 69.2359375 374.325 68.775 373.9900390625 68.3140625 373.05 68.5 372.103125 68.6953125 369.6 69.8 368.0642578125 74.3833984375 368.25 78.75 Z
M 378.1 83.1
Q 376.00078125 82.70078125 373.275 82.675 370.5474609375 82.647265625 370.225 83.75 369.9033203125 84.853515625 370.1 85.85
L 371.95 89.15
Q 373.1005859375 91.2 373.5 92.025 373.8974609375 92.85 375.2 93.1 376.5009765625 93.35 378.6 93.35 380.1 93.35 380.6 92.85 381.65 92 381.1 90.1 380.5 86.95 379.5 84.6 378.7 83.05 378.1 83.1 Z
M 389.125 77.35
Q 388.45 77.8 387.15 78.4 385.05 79.3 385 79.35 382.2 80.55 381.85 82.6 381.7 83.25 381.85 84.1 381.9537109375 84.6 382.5 85.725 383.038671875 86.85 383.8 88.925 384.5591796875 91 385.225 91.55 385.8951171875 92.1 387.625 91.625 389.3509765625 91.15 391.75 89.6 392.5 89.25 393 88.6 393.25 88.25 393.25 86.75 393 84.8 392.05 82.4 391.65 81.35 390.25 78.25 389.6203125 77.28125 389.125 77.35 Z
M 383.975 94.925
L 379.35 95.1
Q 378.5 95.1 378.25 95.35 377.65 95.85 377.85 96.85 378.05 97.3 379 98.1
L 382.1 100.85
Q 383.2 101.95 384.25 102.35 385.15 102.7 387.35 102.5 387.6 102.45 388.05 102.3 388.45 102.15 388.6 101.85 388.95 101.4 388.35 100 386.8 97.85 386.25 97.15 385.07734375 95.706640625 383.975 94.925 Z
M 394.35 92.1
L 389.5 93.25
Q 388.65 93.45 388.25 93.85 388 94.5 388 95 388.1 96.5 389.25 98.5 389.75 99.65 390.35 100.1 391.25 100.85 393.6 100.85 394.1 100.85 394.35 100.75 394.5 100.65 394.6 100.45
L 394.75 100.1
Q 395.7 96.55 395.35 93.35 395.35 92.9 395.1 92.5 394.95 92.1 394.35 92.1 Z
M 400.85 87.35
Q 400.501171875 87.448828125 399.375 88.075 398.2529296875 88.7068359375 397.875 89.075 397.4927734375 89.4380859375 397.175 91.275 396.852734375 93.104296875 397.25 98.5 398.3 98.4 399.4 97.55 400.5 96.7 401 95.5 401.15 95 401.5 92.85 401.5 92 401.75 90.75
L 401.75 88.85
Q 401.45 87.65 400.85 87.35 Z
M 306.35 124.85
Q 304.7353515625 127.22265625 302.825 129.225 299.325390625 134.1412109375 298.35 138.6 297.5 142.7 298.6 146.6 299.8 150.75 302.85 153.1 308.75 157.65 319.85 154.35 324.1388671875 153.0615234375 328.45 151.025 336.3771484375 147.258203125 344.4 140.95 352.2 134.8 365.35 121.5
L 365.8 120.875
Q 348.184765625 115.8640625 332.65 112.65 320.4783203125 110.121484375 308.75 108.5 307.6740234375 108.3421875 306.6 108.2
L 303 109.5
Q 295.75 111.95 290.35 117.6 284.9 123.3 282.85 130.6 281.8 134.2 283 136 284.1 137.7 286.6 137.85 288.7 137.95 291.1 137 297.932421875 134.3388671875 302.825 129.225
M 328.45 151.025
Q 329.8966796875 156.4087890625 331.925 161.2
M 375.25 176.75
Q 363.35 180.7 350.5 180.15 337.664453125 179.6505859375 326.125 174.75 325.7412109375 178.905859375 326.6 183.75 327.4431640625 188.673046875 329.2 192.55 330.65234375 195.819140625 332.75 198.35 335.35 201.55 338.8 203.55 342.45 205.6 346.35 205.85
L 347.925 205.775
Q 347.4169921875 203.44765625 348.1 201.35 348.75 199.35 350.55 197.75 352.2 196.3 354.35 195.5 358.15 194.3 363.25 195 373.5 196.15 382 201.35
M 363 186.25
Q 363 187.75 361.9 188.8 360.85 189.9 359.35 189.9 357.85 189.9 356.75 188.8 355.7 187.75 355.7 186.25 355.7 184.75 356.75 183.65 357.85 182.6 359.35 182.6 360.85 182.6 361.9 183.65 363 184.75 363 186.25 Z
M 328.7 166.075
Q 326.573828125 169.94609375 326.125 174.75
M 376 198
Q 376.95 197.45 378.1 196 378.5 195.5 379.25 194.55 379.85 193.7 380.075 192.95 378.5865234375 190.64609375 377.6 188 375.8 183.1 375.7 176.85 375.651171875 172.1611328125 376.55 165.65 374.07578125 165.8701171875 371.6 166.05 352.953125 167.4013671875 334.4 166.425
M 370.75 148.25
Q 373.55 152 373.8 157 374.05 161.95 371.6 166.05
M 431 155.75
Q 406.199609375 162.6802734375 380.375 165.3 380.11015625 165.3240234375 379.85 165.35 378.2029296875 165.513671875 376.55 165.65
M 379.25 153.6
Q 377.5 154.85 377.5 157.75 377.25 162 380.375 165.3
M 433.1 168.6
Q 430.05 172.3 423 174.85 412 178.95 400.1 179.9 388.3 180.85 376.75 178.6
M 490.375 133.75
Q 484.8859375 141.1095703125 475 144.7 465.7 148.1 455.1 147.5 455.050390625 147.4974609375 455 147.5 450 158.85 450.2 171.6 450.4 184.35 455.75 195.5 458.85 201.75 462.75 206 465.25 208.5 467.35 208.6 469.35 208.8 470.9 207.05 472.4 205.4 472.6 203.25 472.8580078125 200.4986328125 471.2 196.45 470.9224609375 195.79375 470.6 195.1
M 455 147.5
Q 446.2390625 147.032421875 435.5 143.95 430 142.35 416.5 137.5 389.2986328125 127.58515625 365.8 120.875
M 427.75 157.1
Q 432.55 162.15 433.85 169.7 435.1 176.9 432.75 183.85 429.9 192.55 422.65 198.55 415.3 204.65 406.35 205.5 397.25 206.35 389.05 201.4 383.34921875 198.0001953125 380.075 192.95
M 421.65 183.6
Q 421.65 185 420.5 186 419.4 187 417.85 187 416.3 187 415.15 186 414.05 185 414.05 183.6 414.05 182.2 415.15 181.2 416.3 180.2 417.85 180.2 419.4 180.2 420.5 181.2 421.65 182.2 421.65 183.6 Z
M 471.2 196.45
Q 472.790625 199.8984375 474.6 201.75 476.1 203.2 477.95 203.85 479.95 204.55 481.75 204 483.75 203.35 485.2 201.35 486.45 199.55 487 197.1 488.2 191.2 485.3 185.45 482.4 179.65 476.85 177.1
M 485.025 214.85
Q 484.782421875 215.067578125 484.6 215.25 483.55 216.35 483.1 217.6 482.3 220.1 484.25 223.5 486.25 226.7 488.75 227.5 490.6 228.15 493 227.6
L 485.025 214.85
Q 485.677734375 214.2763671875 486.75 213.5 495.4888671875 207.291796875 504.85 202.85 506.280859375 202.16328125 507.725 201.525 508.784765625 201.046484375 510.2 200.9 513.1970703125 200.897265625 515.1 202.875 517.00078125 204.85078125 517.5 207.95 518 211.05 516.5 213.5 515.3 215.4 511.75 217.75 504.85 222.35 497.25 226 494.55 227.2 493 227.6
M 420 288.65
L 422.05 277.95 438.6 249.05 445.8 236.5 454.05 229.5 454.05 223.45
M 480.5 223.9
L 454.75 238.85
M 439.1 187.1
Q 437.4 193.5 433.15 198.9 428.85 204.3 423 207.35
M 329.2 192.55
Q 314.75 203.95 311.15 224.1 307.65 243.5 315.5 261.25 318.1810546875 267.356640625 321.975 273 328.3970703125 282.509375 338 290.7 351.75 302.4 370.35 310.1
L 371.925 310.775
Q 375.664453125 306.5638671875 377.85 303.6
L 381.1 299.35
Q 383 296.95 384.75 295.5 386.95 293.7 389.45 292.95 392.112109375 292.1755859375 394.45 292.8
L 394.475 292.825
Q 395.6 291.35 396.25 290.75 397.35 289.8 398.5 289.75 399.5 289.75 401.5 290.75 404.75 292.55 408 292.75 410.998046875 292.8994140625 413.75 291.825 416.5015625 290.76015625 419.15 289.8 421.798828125 288.8369140625 426.6 286.725 427.69609375 286.241796875 429.05 285.65
L 440.4 261.55
M 438.05 289.9
Q 438.05 290.6 437.65 291.05 437.3 291.55 436.75 291.55 436.2 291.55 435.8 291.05 435.45 290.6 435.45 289.9 435.45 289.2 435.8 288.7 436.2 288.25 436.75 288.25 437.3 288.25 437.65 288.7 438.05 289.2 438.05 289.9 Z
M 429.05 285.65
Q 433.6416015625 283.603125 441.225 280.2 448.951171875 276.7384765625 459.375 271.175
L 438.6 249.05
M 481.7 248.9
Q 481.7 249.6 481.2 250.05 480.75 250.55 480.05 250.55 479.35 250.55 478.85 250.05 478.4 249.6 478.4 248.9 478.4 248.2 478.85 247.7 479.35 247.25 480.05 247.25 480.75 247.25 481.2 247.7 481.7 248.2 481.7 248.9 Z
M 473.05 272.7
L 469.6 266.4 467.05 275.9 469.55 278.6
Q 470.641015625 276.792578125 471.35 275.8 474.35 271.65 477.75 269.5 479.1 268.65 480.4 268.45 481.95 268.15 483 268.85 484.1779296875 269.7474609375 484.275 271.65
L 485.1 271.65 487.3 271.1 487.3 265.1 480.05 259.925 472.65 263.95 475.45 270.6
M 461.3 261.65
Q 461.3 262.4 460.75 262.95 460.2 263.5 459.45 263.5 458.7 263.5 458.15 262.95 457.6 262.4 457.6 261.65 457.6 260.9 458.15 260.35 458.7 259.8 459.45 259.8 460.2 259.8 460.75 260.35 461.3 260.9 461.3 261.65 Z
M 459.375 271.175
Q 461.5017578125 270.045703125 463.75 268.825 464.4876953125 268.41875 465.25 268
L 472.65 263.95
M 463.75 268.825
L 463.55 273.25
Q 463.8837890625 273.3837890625 464.15 273.65 464.2328125 273.7328125 464.3 273.825
L 467.05 275.9
M 463.55 273.25
L 464.3 273.825
Q 464.7 274.312890625 464.7 274.95 464.7 275.7 464.15 276.2 463.65 276.75 462.9 276.75 462.15 276.75 461.6 276.2 461.1 275.7 461.1 274.95 461.1 274.2 461.6 273.65 462.15 273.15 462.9 273.15 463.25078125 273.15 463.55 273.25 Z
M 454.8 274.3
L 460.8 280.2 464.85 280.2 466.9 281.75
M 453.9 288.6
Q 453.9 289.15 453.5 289.5 453.15 289.9 452.6 289.9 452.05 289.9 451.65 289.5 451.3 289.15 451.3 288.6 451.3 288.05 451.65 287.65 452.05 287.3 452.6 287.3 453.15 287.3 453.5 287.65 453.9 288.05 453.9 288.6 Z
M 469.55 278.6
Q 468.313671875 280.5943359375 466.6 283.6 463.4 289.15 460.85 291.35 457.1 294.8 450.95 296.35 447 297.35 439.25 298.3 439.3240234375 298.8361328125 439.625 299.35 441.6560546875 302.8919921875 442.05 307.4 442.45 312.15 441 317.1 440.436328125 319.1337890625 439.525 321.325 439.4744140625 321.4337890625 439.425 321.55 438.482421875 323.7013671875 437.2 326 435.7 328.7 432 334.35 414.60546875 361.013671875 400.925 381.85 398.9568359375 384.8419921875 397.075 387.7 395.7291015625 389.74609375 394.425 391.725 394.1376953125 392.1630859375 393.85 392.6 392.4 394.8 391.25 395.8 389.6 397.3 387.75 397.25 386.3 397.25 384.9 396.15 383.951953125 395.4478515625 374.15 385.925 364.904296875 376.93671875 353.95 358.75
L 353.35 358.5
Q 349.3 357.95 345.1 359.75 341.15 361.4 338 364.6 332.8830078125 369.9099609375 330.275 378.95 337.8322265625 391.0984375 344.45 399.65 359.65 419.25 372.3 427.975 384.950390625 436.7001953125 389.4 436.425 393.8486328125 436.1490234375 396.125 433.025 398.4064453125 429.898828125 405 418.9 411.5837890625 407.905859375 423.4 392 435.0068359375 376.3970703125 446.85 361.3 460.0771484375 344.4595703125 473.6 328.25 479.55 321.1 481.9 316.55 485.4453125 309.7509765625 484.55 303.7 484.530078125 303.5279296875 484.5 303.35
L 484.075 300.2
Q 483.819140625 301.303515625 483.1 302.55 482.65 303.25 481.5 304.85 480 307 478.35 308.75
M 473.1 296.85
Q 479.41328125 287.4041015625 483.45 276.1 483.601953125 275.6763671875 483.75 275.25 484.3427734375 273.1423828125 484.275 271.65
M 484.075 300.2
Q 484.0896484375 300.147265625 484.1 300.1 484.7 298.05 484 294.85 483.15 291.7 482.5 290.6 481.2 288.4 479.1 287.85
M 439.85 254.15
L 449.55 265.85
M 445.3 253.5
L 452.2 240.15
M 347.925 205.775
Q 347.9365234375 205.8416015625 347.95 205.9 348.5 208.1 350 210.1 352.6 213.2 357.5 215.25 362.95 217.55 368.4 217.5 374.35 217.45 378.75 214.5
M 342.1 231.5
Q 351.2 227.05 361.25 227.25
M 391 322.5
L 386.5 326.35
Q 385.35 327.5 385.35 328.25 385.35 328.6 385.5 328.75 385.6 328.85 386 329 387.45 329 388.35 328.25
L 389.6 327
Q 389.75 326.85 391.65 325.25 392.85 324.25 393.35 323.35 393.8 322.7 393.6 322.1 393.5 321.7 393.2 321.5 392.8935546875 321.325 392.575 321.475 392.5435546875 321.4970703125 392.5 321.525 391.8388671875 321.6611328125 391 322.5 Z
M 396.6 317
Q 396 317.85 396.1 318.35 396.3 318.95 397 319.1 397.4 319.2 398.25 319 399.2 318.7 400.25 317.75 400.85 317.2 402 316.1 402.5 315.7 403.5 314.9 404.35 314.2 404.85 313.6 405.45 313.2 405.6 312.5 405.7 312.15 405.5 311.7 405.3 311.3 405 311.1 404.5162109375 310.8419921875 404.075 311.05 403.830859375 311.1513671875 403.6 311.4 399.1560546875 314.1125 396.6 317 Z
M 405.4 317.075
Q 404.1990234375 318.0029296875 403.6 318.6
L 402 320
Q 401 320.85 400.5 321.5 400.15 321.9 400.1 322.4 400 322.95 400.35 323.25 400.9 323.7 401.75 323.5 402 323.4 403 322.5 403.5 322 404.6 320.85 406.1 319.4 408 317.35 408.5 316.85 408.5 316.5 408.65 315.7 407.4 315.3 406.60078125 316.140625 405.4 317.075 Z
M 371.925 310.775
Q 369.43984375 313.6095703125 366.25 317 360.6041015625 323.0869140625 349.05 335.25 370.4958984375 365.779296875 394.425 391.725
M 376.85 335.5
Q 375.55 336.6 375.25 337 374.85 337.55 374.85 338.1 374.95 338.65 375.6 338.85 376.1443359375 339.0474609375 376.775 339 377.416015625 338.9572265625 377.925 338.65 378.4248046875 338.34296875 379.2 337.6 379.9841796875 336.8513671875 381.7 335.5 383.4201171875 334.1572265625 383.825 333.4 384.217578125 332.6345703125 384.1 332.425 383.984375 332.221484375 383.55 331.7 383.1177734375 331.1744140625 382.675 331.2 382.2267578125 331.2232421875 382.125 331.2 377.7271484375 334.769140625 376.85 335.5 Z
M 366.35 344.35
Q 364.85 345.85 364.85 347.1 364.85 347.6 365.1 347.85 365.7 348.45 366.85 347.75
L 367.85 347
Q 370.4 345.15 371.75 344.1 372.45 343.75 372.85 343.1 373.25 342.55 372.85 341.75 372.676171875 341.4892578125 371.775 341.2 371.6732421875 341.1619140625 371.55 341.125
L 371.525 341.15
Q 368.6189453125 342.2701171875 366.35 344.35 Z
M 377.25 343.5
Q 375.95 343.7 373.75 345.8 371.3 348.1 370.1 348.75 369.2 349.4 369.1 349.6 369 350 369.25 350.6 369.9 351.3 370.6 351.5 371.5 351.5 372.6 350.6 373.75 349.6 376.25 347.75 377.65 346.8 378.1 345.75 378.3 345.05 378.1 344.4 377.85 343.7 377.25 343.5 Z
M 381.85 338.35
Q 380.4 339.6 380.1 340.75 379.9 341.4 380.25 341.75 380.6 342.1 381.25 342.1
L 382.25 341.75
Q 382.4 341.65 384.3 340.45 385.5 339.7 386.25 339.1 388.45 337.6 389.1 336.25 389.4 335.5 389.25 335 388.940234375 334.2033203125 387.8 334.1 387.689453125 334.165234375 387.575 334.225 384.6087890625 336.012109375 381.85 338.35 Z
M 398.5 324.5
Q 397.4 324.9615234375 394.725 327.275 392.05 329.59609375 391.5 330.1 390.6 331.25 390.6 331.75 390.5 332.25 390.75 332.65 391.05 333.1 391.5 333.1 391.95 333.1 392.75 332.6 394.3 331.5 398.25 328.35 399.25 327.65 399.35 327 399.570703125 326.249609375 398.5 324.5 Z
M 384.6 343.6
Q 381.273046875 346.1419921875 378.8 348.425 376.317578125 350.716015625 375.125 351.7 373.93984375 352.6876953125 373.8 353.425 373.655078125 354.1560546875 373.775 354.675 373.898828125 355.198828125 374.275 355.3 374.65 355.4 375.1 355.1 377.15 354.25 379.45 352.25 380.8 351.15 383.35 348.75 385.05 347.3 385.5 346.35 385.8 345.55 385.55 344.75 385.3 343.9 384.6 343.6 Z
M 400.925 381.85
L 399.5 379.35
Q 395.45 372.35 394.85 364.1 394.85546875 362.4015625 395.225 360.175 395.584765625 357.9462890625 396.6 358.975 397.623046875 359.9990234375 398.25 360.725 398.8681640625 361.4595703125 400.025 363 401.1818359375 364.53203125 402.85 365.85 404.198828125 355.25859375 406.85 342.775 412.75 337.85 416.6 335.1 418.3 334 418.5 333.25 418.85 332.25 418.2 331.2 417.6 330.25 417.6 330.1 416.376171875 328.5494140625 415.2 327.025 414.0177734375 325.500390625 413.35 325.45 412.6939453125 325.3998046875 412.25 325.6 411.75 325.9 411.5 326 406.85 329.1 404.5 330.6 401.15 332.8 399.75 334.6 398.85 335.9 398.2 337.95 397.9 339 397.35 341.6 394.8 355.05 389.75 368.35
M 321.975 273
L 319.6 272.85
Q 315.699609375 272.6318359375 311.975 273.475 311.88125 273.495703125 311.8 273.525 308.7595703125 274.211328125 305.85 275.6 299.05 278.85 295.35 284.75 291.55 290.85 292.45 298.4 293.35 306.1 298.6 310.6 300.6373046875 312.293359375 303.675 313.675 306.3923828125 314.884765625 309.9 315.85 321.1 318.9 322.25 319.35 332.8 323.55 341.05 335.15 342.610546875 337.35234375 344.3 340.2
L 345.85 338.6
Q 347.499609375 336.86796875 349.05 335.25
M 401.35 307.25
Q 379 324.8 361.75 345
L 357.95 341.2
M 353.95 358.75
Q 353.3068359375 357.6640625 352.65 356.55 348.1439453125 346.6953125 344.3 340.2
M 375.35 360.85
Q 376.45 360.1 378.75 358.1 379.5 357.35 380.25 357.25 380.8 357.25 381.75 358.1
L 384.35 361.1
Q 385.6 362.35 385.25 363.6 384.95 364.05 384.1 364.75
L 380.5 367.35
M 381.45 362.2
Q 381.45 362.8 381.15 363.2 380.85 363.6 380.45 363.6 380.05 363.6 379.75 363.2 379.45 362.8 379.45 362.2 379.45 361.6 379.75 361.2 380.05 360.8 380.45 360.8 380.85 360.8 381.15 361.2 381.45 361.6 381.45 362.2 Z
M 367.45 352.4
L 396.5 386.85 397.075 387.7
M 383.35 355.6
L 386.35 359.1
M 482 317.6
L 487.25 330.1
Q 488.3 332.7 488.6 333.95 489.2 336.15 488.85 337.85 488.15 341.2 485 343.75 483.8 344.7 481.95 345.7 479.85 346.8 478.85 347.35 475.4 349.4 473.6 350.05 470.5 351.2 468.1 350.35 466.05 349.6 464.6 347.35 463.5 345.75 462.5 342.85
M 439.25 298.3
Q 435.85 299 431.5 302.6 427.6 305.8 426.25 308.1 425.15 309.95 424.75 310.4 423.75 311.6 422.6 311.6 422.2986328125 311.601953125 421.575 311.625 420.8537109375 311.644140625 420.5 312.025 420.3537109375 312.1818359375 420.175 312.4 419.93046875 312.7234375 419.625 313.175 419.6060546875 313.2029296875 419.575 313.225 419.0873046875 313.9625 418.75 314.275 418.40390625 314.594921875 417.6 314.775 416.7904296875 314.958203125 415.7 315.1 414.61328125 315.2392578125 414.125 317.675 414.6041015625 318.0240234375 415.1 318.35 425.7 317.05 431.75 312.25 434.75 309.8 436.8 306.45 438.85 303.1 439.625 299.35
M 419.575 313.225
Q 419.4091796875 313.420703125 419.2 313.6 417.85 314.8 415.9 314.8 413.95 314.8 412.55 313.6 411.2 312.4 411.2 310.7 411.2 309 412.55 307.8 413.95 306.6 415.9 306.6 417.85 306.6 419.2 307.8 420.6 309 420.6 310.7 420.6 311.62890625 420.175 312.4
M 394.475 292.825
Q 398.2447265625 298.87578125 401.275 302.6 404.3142578125 306.3330078125 405.625 308.375 406.9291015625 310.4064453125 409.075 312.975 411.2154296875 315.547265625 414.125 317.675
M 417.6 330.1
Q 423.75 330.4 429.55 328.1 435.2708984375 325.801953125 439.425 321.55
M 404.85 305.55
L 444.5 294.2
M 546.975 292.5
Q 542.93984375 294.0595703125 539.6 297.2 536.35 300.2 534.25 304.25 530.4404296875 311.1365234375 530.125 320.875 555.8501953125 338.1224609375 584.6 351 589.95 353.35 593.6 354 595.5521484375 354.322265625 597.275 354.225 600.1146484375 354.091796875 602.35 352.85 605.45 351.2 607.55 347.3 608.9 344.75 610.35 339.85 619.817578125 308.899609375 628.15 278.275 633.074609375 260.202734375 637.6 242.25
L 638.15 240.875
M 573.2 185.8
L 531.45 212.1 530.625 212.7
Q 533.8837890625 217.879296875 537.8 224.075
L 580.45 198.45
M 527.55 207.8
Q 529.0052734375 210.126171875 530.625 212.7
M 480.05 259.925
L 495.5 251.5 499.3 249.15 499.3 245.65 517.475 235.425 517.525 235.425 523.55 231.55 527.05 231.55 529.45 231.55 529.45 227.6 535.2 227.6 538.9 225.7 538.525 225.225
Q 538.1556640625 224.6408203125 537.8 224.075
M 483.45 276.1
L 489.25 274.05 492.5 258.4 495.05 257.5
M 517.525 235.425
Q 524.9337890625 236.886328125 531.7 243.15 538.9953125 249.9015625 534.125 257.525 529.2513671875 265.1494140625 523.45 269.9 520.044921875 272.705078125 512.275 278.175 504.51484375 283.634765625 500.875 288.775 497.228125 293.9130859375 495.975 297.45 494.720703125 300.9890625 495.7 306.9 496.6720703125 312.80703125 500.35 325.025 504.040234375 337.25078125 509.9 350.1 514.9685546875 361.2091796875 520.925 371.95 521.8513671875 373.6349609375 522.8 375.3 528.7666015625 385.815625 532.625 394.975 536.4943359375 404.1447265625 536.5 414.25 536.5 425.6 532 434.5 527.15 444.25 517.4 449.5 515.9423828125 450.2822265625 514.5 450.9 514.3513671875 451.68359375 514.4 452.8 514.45 453.45 514.6 454.75 515.0953125 457.0015625 515.5 458.025 523.95 466.35 531 475.8 532.1 477.25 532.4 478.025 532.7 478.8 532.025 479.625 531.35 480.45 530.75 481 530.5 481.25 529.5 482 520.3 488.3 510 491.6 505.25 493.2 503 491.6 501.6 490.75 500.35 488.1 497.3 481.9 494.85 473.85
M 495.5 251.5
L 495.5 257.6
M 527.05 231.55
L 523.85 236.7
M 597.275 354.225
Q 597.3138671875 354.367578125 597.35 354.5
M 644.05 353.7
L 636.7 356.7 642.5 371.1 650.375 368.15
M 497 295.85
Q 512.8814453125 309.3453125 530.125 320.875
M 490.375 133.75
Q 447.9857421875 120.3564453125 403.8 113.3 355.1666015625 105.512109375 306.425 105.725
M 306.6 108.2
Q 296.280859375 106.825 286.3 106.15
M 310.6 316.75
Q 306.55 326.6 310.15 339.45 312.65 348.5 320 361.5 325.3412109375 370.9955078125 330.275 378.95
M 351.85 613.85
Q 351.4 605.95 348.25 600.75 344.7193359375 594.434765625 338.325 591.775 320.083203125 590.4740234375 308.75 592.75 306.8009765625 593.127734375 305 593.65 299.361328125 595.298828125 295.05 598.4 288.35 603.15 287.5 609.85 287.2630859375 611.5533203125 287.425 613.225 295.3091796875 621.253515625 306.5 625.45 315.3498046875 628.75234375 333.1 630.25 350.850390625 631.7380859375 362.4 630.2 364.5189453125 629.91953125 366.25 629.7 373.9865234375 628.6630859375 374.15 628.625 374.2927734375 628.5861328125 380.85 627.4 382.875 627.0220703125 386.3 626.4 388.330859375 626.0310546875 390.65 625.5 401.9208984375 622.958203125 419.85 616.75
L 420.8 616.5
Q 416.7185546875 597.108203125 418.4 573.05 418.875390625 566.0375 420.1 556.7
L 419.35 557.1
Q 413.4984375 559.9212890625 407 560.375 404.1580078125 560.5578125 401.2 560.3 391.5 559.5 383.85 554.1
M 287.425 613.225
Q 287.927734375 618.91171875 293 624.1 298.55 629.8 307.35 633 332.8 642.3 365.6 637.25 378.0140625 635.325390625 393.15 631.075 393.7529296875 630.91953125 394.35 630.75 403.4986328125 628.1291015625 422.1 621.975 421.3953125 619.290625 420.8 616.5
M 515.5 458.025
Q 515.5552734375 458.1505859375 515.6 458.25
L 488.35 469.15
Q 487.805859375 475.942578125 488.975 482.95 490.1455078125 489.95546875 492 496.575 493.8513671875 503.198046875 494.8 504.85 496.3 507.5 498.35 508.75 500.0158203125 509.7494140625 502.35 509.925 502.473046875 509.931640625 502.6 509.925 502.9396484375 509.95 503.3 509.95 505.3 509.95 508.6 509.35 516.6525390625 508.1947265625 522.5 506.45 528.341796875 504.7154296875 529.675 499.075
L 528.5 484.85
M 514.5 450.9
Q 505.7421875 454.608984375 497.25 452.25 493.8578125 451.2921875 490.7 449.4 475.4591796875 458.8287109375 457.1 461.5 438.25 464.2 420.5 459.1
L 419.175 458.65
Q 413.6685546875 467.360546875 406.1 471.25 395.65 476.55 383.05 472.4 378.9564453125 471.0412109375 375.425 468.975
L 373.75 470.1
Q 370.1 472.5 368 475.1 366.2 477.4 366.5 479.1 366.65 480 367.4 480.85 367.7 481.2 368.85 482.25 369.553125 482.820703125 370.325 483.4 373.319140625 485.630859375 377.3 487.9 379.9 489.45 386.35 492.75 388 493.6 388.95 493.9 390.5 494.4 391.75 494.25 394.1 494.1 396.85 491 401.15 485.9 403 480
M 423 488.25
L 437.75 488.375 463.1 488.6
Q 464.8 501.7 462.85 515.5 462.1 520.45 464.1 522 465.3 523 468 523 472.8806640625 523.125390625 477.725 522.975 494.780859375 522.474609375 511.35 518.625 518.2201171875 517.0205078125 525 514.85 528.7 513.85 529.85 511.85 530.85 510.3 530.35 507
L 529.675 499.075
M 491.1 510
Q 496.05 510.4 501 510
L 502.35 509.925
M 480.75 546.1
Q 489.35 548.85 498.65 547.55 507.85 546.25 515.5 541.35
L 516.1 540.8
Q 514.5298828125 529.603515625 511.35 518.625
M 482.6 608
Q 488.75 609.85 495.5 609.85 498.05 609.85 498.85 608.75 499.65 607.7 499.1 605.1 497.35 595.85 497 587.25 496.85 584.55 497 583.1 497.25 580.85 498.25 579.35 499.45 577.25 502.25 575.8 503.4 575.2 507.5 573.75 512.15 572.05 521.3 568.2 529.4 565.3 535.5 565.6 538.45 565.6 539.6 567.1 541.55 569.5 538.6 574.25 534.95 580.65 532.5 587.85 530.6025390625 593.19921875 530.15 595.925 529.691796875 598.651953125 527.6 599.925 525.5080078125 601.1978515625 520.05 604.575 514.597265625 607.9505859375 513.35 611.1
M 481.35 555.85
Q 489.75 560.25 499.7 559.1 509.6 557.95 516.75 551.75
M 516.1 540.8
Q 517.98984375 554.4130859375 517.5 568.35
M 490.7 449.4
Q 485.9564453125 446.5775390625 481.75 441.65 478.5099609375 437.890234375 475.35 432.5 463.3 442.25 448.85 446.75
M 475.35 432.5
Q 473.3322265625 429.080859375 471.35 425 456.05 393.45 450.35 358
M 370.325 483.4
Q 368.7080078125 491.373046875 369.6 499.5 369.852734375 503.1005859375 371.2 504.85 372.540234375 506.5970703125 374.425 507.725 376.3154296875 508.8556640625 378.675 509.625 381.033203125 510.3916015625 388.875 511.725 396.4173828125 513.00703125 399.5 513.2 399.778515625 513.1673828125 400.05 513.225 400.1283203125 513.2294921875 400.2 513.225 400.35234375 513.234375 400.5 513.225 400.6265625 513.2330078125 400.75 513.225
L 400.75 513.25
Q 403.0890625 513.0146484375 404.175 511.8 405.608203125 510.1966796875 405.35 504.275 405.097265625 498.3509765625 406.6 484.35 407 480.3 406.7 477.95 406.2 474.4 404.1 472.5
M 419.175 458.65
Q 421.5251953125 454.9427734375 423.5 450.35 429.5 436.65 429.45 421.1 429.3505859375 405.7806640625 423.4 392
M 354.25 412
Q 352.9 425.15 354.85 436.25 357.15 449.1 363.75 458.25 368.537109375 464.951953125 375.425 468.975
M 399.5 513.2
Q 399.612109375 513.21875 399.725 513.225 399.8927734375 513.234765625 400.05 513.225
L 411.5 514.15
M 372.75 506.85
Q 372.630859375 509.4171875 372.05 513.05 371.46171875 516.69140625 373.575 517.325 375.69921875 517.946484375 378.25 518.55 380.801171875 519.1576171875 384 519.6 395 521.3 408.15 522.15 415.7720703125 522.6357421875 425.6 522.875 428.923828125 522.9494140625 432.5 523 436.85 523.2 438.35 521.35 439.35 520.1 439.35 516.85 438.950390625 501.816015625 437.75 488.375
M 388.35 520.75
Q 385.9029296875 532.4384765625 384.475 544.075 392.4 550.1 402.75 550.75 413.05 551.4 421.575 546.5 423.1978515625 535.8767578125 425.6 522.875
M 384.25 603.75
Q 378.75 600.3 374.9 594.85 374.516015625 594.3044921875 374.15 593.75 366.75 594.1 341.15 592 339.71484375 591.879296875 338.325 591.775
M 418.75 607
Q 411.85 610 405 610 403.6 610 402.9 609.9 401.75 609.65 401 609 399.25 607.55 399.75 604.1 400.05 602.5 401.4 599.05 402.65 595.85 402.85 594 403.2 590.5 401.2 586.7 399.75 583.95 396.6 580.35 385.95 568 372.75 558.85 369.2498046875 556.5052734375 368.025 557.175 366.8037109375 557.8294921875 366.875 559.325 366.934375 560.8271484375 367.05 562.5 367.1765625 564.1765625 367.3 565.35 367.4150390625 566.5154296875 367.55 568.675 367.69296875 570.8412109375 368.4 575.5 369.35 582 369.6 583.1 370.9484375 588.8083984375 374.15 593.75
M 384.475 544.075
Q 383.1814453125 554.8103515625 382.75 565.5
M 421.575 546.5
Q 420.741796875 551.90703125 420.1 556.7
M 481.325 617.1
Q 481.0765625 621.426953125 480.75 625.75 510.571875 638.2001953125 542.3 642 546.855859375 642.540234375 551.45 642.9 558.4310546875 643.455859375 565.5 643.6 574.75 643.75 581.15 642.95 589.65 641.9 596.25 639 605.75 634.7 607.85 627.75 608.0623046875 627.0603515625 608.2 626.35 601.8314453125 631.8521484375 592.75 633.65 585.2 635.15 574.35 635.35 550.85 635.9 527.55 631.4 504.3 626.9 482.6 617.6
L 481.325 617.1
Q 484.0875 569.652734375 477.725 522.975
M 529.1 599.25
Q 546.05 597.65 559.3 598.4 564.6091796875 598.711328125 569.575 599.4 579.7931640625 600.8248046875 588.6 603.85 593.35 605.55 596.5 607.2 600.6 609.4 603.25 612.25 606.4 615.45 607.65 619.5 608.80234375 623.0806640625 608.2 626.35
M 569.575 599.4
L 566.25 599.6
Q 558 600.3 551 605.6 544 610.9 541 618.75
M 645.25 168.225
Q 647.7533203125 173.479296875 650.125 181.35"/>
</defs>

<g transform="matrix( 1, 0, 0, 1, 0,0) ">
<use xlink:href="#Layer1_0_FILL"/>
</g>

<g transform="matrix( 1, 0, 0, 1, 0,0) ">
<use xlink:href="#Layer0_0_FILL"/>

<use xlink:href="#Layer0_0_1_STROKES"/>
</g>
</svg>
