
<svg xmlns="http://www.w3.org/2000/svg" version="1.1" xmlns:xlink="http://www.w3.org/1999/xlink" preserveAspectRatio="none" x="0px" y="0px" width="1280px" height="720px" viewBox="0 0 1280 720">
<defs>
<g id="Layer1_0_FILL">
<path fill="#FFFFFF" stroke="none" d="
M 1280 720
L 1280 0 0 0 0 720 1280 720 Z"/>
</g>

<g id="Layer0_0_FILL">
<path fill="#000000" stroke="none" d="
M 849.6 295.25
Q 849.5796875 295.2734375 849.55 295.3 847.25 297.4 847.25 300.35 847.25 303.3 849.55 305.4 851.9 307.5 855.15 307.5 858.4 307.5 860.7 305.4 863.05 303.3 863.05 300.35 863.05 297.4759765625 860.8 295.4 855.2244140625 295.2052734375 849.6 295.25
M 742.5 299.7
Q 737.5345703125 299.8365234375 732.5 300.05 730.55 301.7197265625 730.55 304.05 730.55 306.45 732.65 308.15 734.75 309.85 737.75 309.85 740.75 309.85 742.85 308.15 744.95 306.45 744.95 304.05 744.95 301.65 742.85 299.95 742.684375 299.816015625 742.5 299.7 Z"/>
</g>

<path id="Layer0_0_1_STROKES" stroke="#000000" stroke-width="1" stroke-linejoin="round" stroke-linecap="round" fill="none" d="
M 1039.85 85.45
Q 1050 79.2 1061.6 75.9 1073.2 72.65 1085 72.7 1094.7 72.7 1102.75 75.2 1111.9 78.05 1118.1 83.85 1120.9 86.45 1122.2 89.3 1123.75 92.75 1122.6 95.6 1121.1 99.35 1115.1 101.85 1103 106.85 1089.95 106.8 1096.35 108.55 1103.25 114.7 1111.65 122 1113.75 129.6 1114.95 134.3 1113.6 138.85 1112.15 143.65 1108.35 146.1 1103.45 149.15 1095.35 147.6 1083 145.3 1074.25 136.7
L 1072.25 134.85
Q 1081.4 152.9 1088.5 173.65 1102.95 215.9 1108.65 280.25 1114.35 344.55 1112.2 389.5 1110.05 434.4 1110.95 446 1111.85 457.55 1125.7 460.15 1134.75 459.7 1150.1 452.4 1166.8 444.4 1174.5 442.5 1194.05 437.65 1213.8 446.7 1233.4 455.7 1243 473.6 1252.5 491.3 1249.9 512.7 1247.3 533.85 1234 549.25
L 1230.15 553.9
Q 1234.8 560.05 1238.05 566.75 1250.6 576.9 1258.2 581.65 1269.95 589 1280.85 591.35
M 984.5 52.5
Q 984.8916015625 53.0791015625 985.275 53.65 993.5783203125 56.7857421875 1001.75 60.35 1014.75 66 1023.05 71.4 1034 78.5 1040.5 87.2 1043.75625 90.9498046875 1046.875 94.9 1061.0900390625 112.89921875 1072.25 134.85
M 1082.25 106.35
Q 1086.15 106.8 1089.95 106.8 1086 105.75 1082.25 106.35 Z
M 1046.875 94.9
L 1048.75 101.75
Q 1064.3 156.55 1066 214.1 1067.65 271.65 1055.35 327.35
M 985.275 53.65
Q 1021.9658203125 108.562890625 1032.9 185.3 1041.890625 248.631640625 1033.45 329.025 1035.68203125 328.3765625 1038 327.95 1038.2 327.9 1038.35 327.85 1047.75 326.05 1055 329.15 1060.8 331.65 1066.6 338.65 1081.05 355.95 1082.15 380 1083.3 403.95 1070.6 422.65 1065.2 430.5 1058.2 436.05 1050.6 442.05 1042.25 444.4 1033.2 447 1024.05 445.15 1014.45 443.2 1008 437 996.25 454.6 981.5 469.6 995.05 473.85 1002 477.4 1012.8 482.85 1018.2 490.7 1019.2 492.15 1020.05 493.75
L 1025.35 498.45
Q 1037.55 507.95 1052.7 512.5 1052.75 512.5 1052.8 512.55
L 1053.35 511.2
Q 1058.85 501.75 1070.85 496.7 1080.85 492.45 1094.25 491.6 1118.05 490 1133.1 498.95 1140.1 503.05 1145.85 509.75
L 1150.5 510.2
Q 1168.2 512 1184.8 519.1 1201.35 526.25 1214.85 537.85 1223.75 545.45 1230.15 553.9
M 1033.45 329.025
Q 1023.710546875 331.9375 1015.85 339.35 1011.05 343.8 1009 345.05 1004.75 347.65 1001.2 346.2 994.65 341.2 988.15 333.9 983 328.1 976.85 319.7 944.4 275.25 927.1 222 909.75 168.75 909.85 113.7 891.65 159.35 845.75 198.7 827.65 214.3 802.8 230.9 790.7 239 768.85 252.4 767.39296875 253.2818359375 765.9 254.2 763.4970703125 255.65859375 761 257.2 759.15 258.3 757.25 259.45
L 756.575 259.85
Q 764.9345703125 259.6419921875 774.125 259.25 778.1609375 259.0634765625 782.35 258.85 785.45 258.75 787.3 258.4 790 257.95 791.85 256.75 794.05 255.35 794.9 253 795.85 250.45 794.6 248.35
M 985.275 53.65
Q 931.5419921875 33.42578125 872.55 31.65 804.4 29.65 742 52.6 727 58.1 716.5 63.9 703.3 71.25 694.5 80.45 682.45 93 673.6 114.35 656.4 155.7 659.2 202.1 662 247.2 683.1 285.6 687.516015625 274.733984375 696.5 265.75 698.35390625 263.89609375 700.5 262.65 705.8001953125 259.4068359375 712.2 259.575 718.6037109375 259.7505859375 728.6 260 741.1595703125 260.2529296875 756.575 259.85
M 774.125 259.25
Q 778.070703125 262.120703125 781.7 265.75 796.56171875 280.61171875 798.9 300.65 798.9529296875 301.1115234375 799 301.575 799.0564453125 301.046484375 799.125 300.525 801.6662109375 280.011328125 817.55 264.8 818.894140625 263.5162109375 820.275 262.325 816.5380859375 261.82109375 813.8 260.35 809.65 258.15 809.5 254.5
M 671.95 288.85
Q 675.5 294.45 678.1 297.35 678.8017578125 298.1431640625 679.525 298.85 679.5482421875 298.680859375 679.575 298.5 680.610546875 291.750390625 683.1 285.6
M 679.525 298.85
Q 679.9822265625 299.3212890625 680.45 299.75 683.15 302.25 686.1 303.65 686.3013671875 303.6232421875 686.5 303.6 709.6640625 301.0240234375 732.525 300.05 737.5345703125 299.8365234375 742.525 299.7 770.0294921875 298.932421875 797.1 300.5
L 798.9 300.65
M 652.8 295.9
Q 658.35 300.9 665.65 303.1 672.3349609375 305.1453125 678.975 304.45 678.9724609375 304.413671875 678.975 304.375 678.9798828125 304.28828125 678.975 304.2 679.148046875 301.488671875 679.525 298.85
M 641.35 484.2
Q 639.6 484.05 638.1 482.55 636.85 481.3 636 479.35 634.25 475.55 634.5 471.5 634.8 467.2 637.25 464.1 638.75 462.15 641.05 460.85 643.3 459.6 645.85 459.35
L 647.3 459.3
Q 636.7 431.2 645.45 397.3 654.7 361.4 681.35 332.45
L 682.95 330.675
Q 678.85 320.3578125 678.85 308.35 678.85 306.5365234375 678.95 304.775 678.9599609375 304.61171875 678.975 304.45
M 686.1 303.65
Q 681.8005859375 304.14609375 678.975 304.375
M 661.95 378.1
Q 656.4 385.2 654.6 393.75 653.25 400.05 654.25 406.1 655.35 412.55 659 417.35 662.75 422.35 668.8 424.6 675.05 426.9 680.75 425 685.05 423.65 688.85 419.85 691.75 416.95 694.85 412.1 701 402.25 702.1 393.75 702.8 388.7 701.8 383.9 700.7 378.8 697.85 374.85 693.9 369.6 687.35 367.5 681.2185546875 365.5955078125 675.375 367.225 675.0177734375 367.332421875 674.65 367.45 667.251953125 371.26953125 661.95 378.1 Z
M 723.35 379.25
Q 726.35 382.9 727.9 387.4 729.45 391.95 729.25 396.6 729.15 401.2 727.35 405.65 725.6 410 722.5 413.6
M 797.35 380.1
Q 785.85 383 777.25 381.35 772.05 380.4 767.8 377.75 763.3 374.9 760.75 370.75 759.2259765625 368.31796875 758.45 365.6 749.403125 368.6 739.1 368.6 714.15 368.6 696.5 350.95 687.34453125 341.79453125 682.95 330.675
M 799 301.575
Q 799.35 304.8916015625 799.35 308.35 799.35 311.8876953125 799 315.275 801.203125 336.53828125 817.55 352.15 836.45 370.25 863.2 370.25 889.95 370.25 908.85 352.15 919.6923828125 341.7953125 924.325 328.95
L 922.85 328.85
Q 863.85 327 804.1 331.75
M 803.25 345.75
Q 796.8373046875 342.3568359375 789.925 340.925 789.562109375 340.8447265625 789.2 340.775 786.2671875 340.214453125 783.25 340 775.9 339.35 770.25 341.6 766.15 343.2 763.1 346.55 760.1 349.85 758.75 354 757.35 358.1 757.85 362.55 758.0162109375 363.8953125 758.35 365.175 758.403515625 365.3833984375 758.45 365.6
M 799 315.275
Q 797.521484375 329.3666015625 789.925 340.925
M 742.525 299.7
Q 742.684375 299.816015625 742.85 299.95 744.95 301.65 744.95 304.05 744.95 306.45 742.85 308.15 740.75 309.85 737.75 309.85 734.75 309.85 732.65 308.15 730.55 306.45 730.55 304.05 730.55 301.7197265625 732.525 300.05
M 728.85 389.75
Q 747.25 386.25 766.05 390.4 784.95 394.55 800.1 405.5
M 909.75 257.35
Q 902.4 259.05 894.475 258.6 899.0296875 259.4384765625 902.85 260.9 906.0453125 262.121484375 908.85 264.8 920.8609375 276.3025390625 925.25 290.825 928.153515625 287.8083984375 930.6 284.25
M 860.825 295.4
Q 863.05 297.4759765625 863.05 300.35 863.05 303.3 860.7 305.4 858.4 307.5 855.15 307.5 851.9 307.5 849.55 305.4 847.25 303.3 847.25 300.35 847.25 297.4 849.55 295.3 849.5796875 295.2734375 849.6 295.25 847.78046875 295.2611328125 845.95 295.3 822.25 295.75 799.125 300.525
M 894.475 258.6
Q 881.621875 256.2037109375 862.95 258.75 849.25 260.8 842.45 261.6 830.65 263 822 262.5 821.1140625 262.4361328125 820.275 262.325
M 849.6 295.25
Q 855.2244140625 295.2052734375 860.825 295.4 876.855078125 295.986328125 892.75 298.55 897.7 299.35 907.5 301.05
M 910.6 301.425
Q 917.3349609375 302.2158203125 922.6 302.05 925 302 927.425 301.75 927.4150390625 301.671484375 927.4 301.6 927.3630859375 301.25625 927.325 300.925 926.713671875 295.7078125 925.25 290.825 918.9919921875 297.324609375 910.6 301.425 909.20234375 301.255078125 907.75 301.05
M 927.425 301.75
Q 927.75 305.05546875 927.75 308.5 927.75 319.4140625 924.325 328.95
M 908.1 375.35
Q 903.25 375.3 898.5 377.2 894 379 890.25 382.35 883.4 388.5 879.5 398.6 875.85 408.5 877.25 415.5 878.15 420.15 881.15 424.35 883.95 428.35 888.1 431.25 894.8 435.95 903.15 436.95 911.55 438 919.1 435 926.7 432 932.2 425.55 937.65 419.1 939.35 411.1 940.5 405.65 939.65 400.3 938.8 394.7 935.85 390.25 931.75 384.05 923.2 380 917.55 377.25 908.1 375.35 Z
M 927.4 301.6
Q 932.72421875 300.9412109375 937.4 299.25 944.9 296.5 949.6 291.25
M 647.3 459.3
Q 648.95 463.7 651.1 467.95 652.65 471.1 654.5 474.15 666.2 493.65 688.2 508.2 708.5 521.55 735.8 529.8 737.8 530.35 739.85 530.95 776.1 541.05 815.05 539.85 837.55 539.15 859.2 534.75 874.65 531.55 889.7 526.5 920.85 516 946.8 498.5 951.5 495.3 956 491.9 969.7 481.55 981.5 469.6
M 946.8 498.5
L 947.5 502.1
Q 949.85 518.3 940.85 533.45 931.85 548.6 916.5 554.2 901 559.8 884.45 554.15 867.95 548.55 859.2 534.75
M 829.25 581.1
Q 838.45 588.45 848.1 595.15 870.5 610.8 895.2 623.05 924.943359375 637.8375 956.6 647.075 962.518359375 648.815234375 968.5 650.35
L 972.05 651.35
Q 972.55 638.25 972.95 625.3 970.05 625.85 966.9 625.85 953.85 625.85 944.6 615.95 935.4 606.1 935.4 592.1 935.4 578.1 944.6 568.2 953.85 558.35 966.9 558.35 970.75 558.35 974.25 559.2 974.35 542.8 974.25 526.6
M 973.5 578
Q 965.8 581.55 957.75 581 956.05 581 955.85 581 954.8 581.1 954.25 581.6 952.85 582.8 953.35 585.75 953.95 590.95 955.15 597.75 955.5 599.75 957.35 609.75
M 972.95 625.3
Q 973.1 620.45 973.25 615.6 969.45 618.6 962.4 618.1 955.3 617.6 948.35 609.8 941.35 601.95 941.35 591.25 941.35 580.55 948.4 572.9 955.45 565.25 963.55 564.2 971.65 563.15 974.15 567.3 974.2 563.25 974.25 559.2
M 956.6 647.075
L 953.1 647.85
Q 858.7 666.45 762 663.6
L 760.45 663.65
Q 742.580859375 675.143359375 715 691.35 709.15 694.75 705.8 696.3 700.6 698.75 696 699.6 690.65 700.6 685.6 699.45 680.1 698.2 676.6 694.7 672.35 690.45 671.2 682.9 670.4 677.7 671 669.1
L 669.5 668.85
Q 655.15 665.75 646.85 659.25 641.8 655.25 638.75 649.85 635.55 644.1 635.35 638.1 635.25 631.25 639.6 621.75 645.6 608.9 654.85 598 664.1 587.15 675.75 579.25
L 676.8 578.6 679.45 537.2 678 535.95
Q 664.5 525.9 658.4 520 648.3 510.2 643.85 499.95 640.65 492.25 641.6 486.45 642.1 482.95 644.2 480.15 646.4 477.2 649.6 476.1
L 654.5 474.15
M 735.8 529.8
Q 737.5 533.5 736.6 536.6 736.15 538.25 734.85 540.2 731.75 544.55 728.75 545.6 723.85 586.65 721.45 629.2 781.15 575.85 820.6 539.95
M 762.85 593
Q 769.8 594.7 775.95 600.85 780.7 605.65 785.35 613.6 792.35 626.05 796.425 638.85 796.865234375 638.5462890625 797 638.45 797.95 637.7 811.8 627.15 825.35 616.8 848.1 595.15
M 760.45 663.65
Q 769.770703125 657.659765625 776.45 652.95 793.4455078125 640.966015625 796.425 638.85
M 721.45 629.2
Q 720.65 643.3 720.1 657.6
M 843.35 701.7
Q 827.05 701.95 813.35 708.6 811.85 709.2 811.5 709.3 810.4 709.6 809.6 709.45
L 809.55 709.45
Q 806.95 712.5 808.5 715.2 809.4 716.8 811.5 717.6 812.95 718.1 815.5 718.35 827.4 719.35 841.35 718.85 855.25 718.3 883.9 717.6 911.35 716.9 945.6 715.8 946.2 715.75 947.25 715.75 948.3 715.75 961.45 714.8 974.65 713.85 988.85 711.4 1003 708.9 1006.8 707.7 1012.4 705.95 1015.85 702.75 1020.95 698.25 1022.95 689.9 1024.2 684.55 1024.5 675.1 1024.5 674.8 1024.55 674.5
L 1025.25 643.5 1026.45 594.45 1025.85 527.3
Q 1025.7 514.8 1024.65 508.2 1023.3 499.9 1020.05 493.75
M 846.75 687.85
Q 832.35 689.65 819.35 692.5 817.3 692.95 815.9 693.1 811 695.4 808.6 697.95 806.85 700.05 806.35 702.65 805.85 705.4 807.1 707.45 808.15 709.1 809.55 709.45
M 957.6 609.75
Q 960.7 606.9 963.75 604.4 965.2 603.15 966.25 603.15 967.55 602.95 969.25 604.65 970.6 606.1 973 610.25
M 972.05 651.35
Q 971.9 654.9 971.75 658.45 971.6 662.25 971.15 664.45 970.45 667.75 968.75 669.85 966.45 672.55 962.1 673.55 959.15 674.2 954.1 674.2
L 854.3 674.85
Q 853.85 674.85 853.35 674.9 847.75 675.05 838.85 675.8 829.9 676.5 824.2 678.25 818.5 680 815.1 682.25 811.7 684.5 810.65 686.4 809.4 688.6 810.25 690.5 811.3 692.65 814.35 693.1 815 693.15 815.9 693.1
M 676.8 578.6
L 671 669.1
M 1145.85 509.75
Q 1149.6 514.15 1152.85 519.65 1159.15 530.45 1164 546.95 1174.45 582.65 1175.35 618.85
L 1175.35 623.15
Q 1187.7 597.45 1196.25 570.2
M 1238.05 566.75
Q 1239.65 569.95 1240.9 573.25
M 974.15 567.3
Q 974.0435546875 577.476171875 973.875 587.75 973.872265625 587.9 973.875 588.05 974.3 587.9 974.7 587.75 986.85 583.7 1000.1 584.3 1013.7 584.9 1025.8 590.35
M 1052.8 512.55
Q 1067.95 517 1083.25 515.7
L 1084.35 515.75
Q 1096.4 528.4 1101.1 551.2 1106.1 576.1 1100.2 601.45 1097.4 613.6 1092.4 624.55 1086.9 636.45 1078.85 646.95 1081.7 651.05 1084.45 656 1087.4 661.35 1092.35 671.95 1095.55 678.85 1100.05 688.65
L 1101.75 689.2
Q 1111.7 692.45 1123 689.85 1133.1 687.35 1142.35 680.6
L 1143.85 679.7
Q 1144.75 677.65 1145.9 675.5 1147.75 672 1153.35 663.1 1165.45 643.7 1175.25 623.4 1175.3 623.25 1175.35 623.15
M 1092.4 624.55
L 1091.5 624.45
Q 1074.05 623.45 1056.95 628.25 1040.1 633 1025.95 642.8
L 1025.25 643.5
M 1074.6 641.45
Q 1076.75 643.95 1078.85 646.95
M 1024.75 685.5
Q 1027.95 687.4 1030.1 690.6 1034.9 697.05 1036.35 705.2 1037.75 713.25 1035.5 720.85
M 1100.05 688.65
Q 1106.1 701.9 1114.45 720.4
M 1280.25 631.85
Q 1277.05 631.7 1274.25 629.85 1273.9201171875 629.64375 1273.8 629.7 1271.8751953125 634.3869140625 1270.3 637.75 1264.5 650.25 1257.75 658.95 1254.7724609375 662.7806640625 1251.1 666.55 1257.296875 673.0623046875 1265.05 677.65 1272.1802734375 681.9283203125 1279.975 684.2
M 1279.6 614.7
Q 1276.383984375 623.4005859375 1273.8 629.7
M 1251.1 666.55
Q 1243.7982421875 674.0130859375 1233.75 681.2 1218.7708984375 692.046875 1201.975 700.275
L 1198.25 721
M 1143.85 679.7
Q 1141.75 684.5 1140.85 688.85 1139.45 695.8 1140.55 705.7 1141.05 710.55 1142.45 719.7 1166.95 715.3 1189.8 705.8 1195.9990234375 703.205078125 1201.975 700.275
M 1142.45 719.7
Q 1142.45 719.9 1142.5 720.1
M 973.875 588.05
Q 973.619140625 601.7408203125 973.25 615.6"/>
</defs>

<g transform="matrix( 1, 0, 0, 1, 0,0) ">
<use xlink:href="#Layer1_0_FILL"/>
</g>

<g transform="matrix( 1, 0, 0, 1, 0,0) ">
<use xlink:href="#Layer0_0_FILL"/>

<use xlink:href="#Layer0_0_1_STROKES"/>
</g>
</svg>
