
<svg xmlns="http://www.w3.org/2000/svg" version="1.1" xmlns:xlink="http://www.w3.org/1999/xlink" preserveAspectRatio="none" x="0px" y="0px" width="1280px" height="720px" viewBox="0 0 1280 720">
<defs>
<g id="Layer1_0_FILL">
<path fill="#FFFFFF" stroke="none" d="
M 1280 720
L 1280 0 0 0 0 720 1280 720 Z"/>
</g>

<g id="Layer0_0_FILL">
<path fill="#000000" stroke="none" d="
M 307.65 219.65
Q 309.85 217.45 309.85 214.3 309.85 211.15 307.65 208.95 305.45 206.75 302.3 206.75 299.15 206.75 296.95 208.95 294.75 211.15 294.75 214.3 294.75 217.45 296.95 219.65 299.15 221.85 302.3 221.85 305.45 221.85 307.65 219.65
M 262.3 219.05
Q 262.3 215.75 259.95 213.4 257.65 211.1 254.35 211.1 251.05 211.1 248.7 213.4 246.4 215.75 246.4 219.05 246.4 222.35 248.7 224.65 251.05 227 254.35 227 257.65 227 259.95 224.65 262.3 222.35 262.3 219.05
M 846.9 291.1
Q 845.25 292.8 845.25 295.15 845.25 297.5 846.9 299.15 848.6 300.85 850.95 300.85 853.3 300.85 854.95 299.15 856.65 297.5 856.65 295.15 856.65 292.8 854.95 291.1 853.3 289.45 850.95 289.45 848.6 289.45 846.9 291.1
M 767.35 292.35
Q 767.35 294.9 769.1 296.65 770.9 298.45 773.45 298.45 776 298.45 777.75 296.65 779.55 294.9 779.55 292.35 779.55 289.8 777.75 288 776 286.25 773.45 286.25 770.9 286.25 769.1 288 767.35 289.8 767.35 292.35 Z"/>
</g>

<path id="Layer0_0_1_STROKES" stroke="#000000" stroke-width="1" stroke-linejoin="round" stroke-linecap="round" fill="none" d="
M 991.75 87
L 992.6 89.35
Q 1016.15 143.85 1020.85 204.05 1025.4677734375 263.8330078125 1010.8 320.8 1024.2759765625 319.0197265625 1036.3 323.525 1044.70078125 292.600390625 1048.9 270.65 1054.75 239.9 1055.35 213.75 1055.95 183.5 1049.45 156.65 1042.4 127.25 1027.35 104.25
L 1024.425 99.975
Q 1008.603515625 92.7080078125 991.75 87 989.8072265625 86.3375 987.85 85.7 922 64.25 854.95 71 810.05 75.45 775.75 94.5 736.25 116.4 722.45 152.15 713.95 174.4 715.4 204.25 716.3 223.25 722.95 257.75
L 724.1 264.45
Q 730.341796875 256.1337890625 740.65 251.2 751.75 245.9 764.25 246.1 776 246.4 787.8 251.35 798.8 256 808.5 264.1
L 809.95 265.1
Q 821.55 256.65 834.55 252.6 848.9 248.2 862.5 250 877 251.9 888.65 260.95 894.500390625 265.489453125 898.475 270.95 900.6388671875 271.2912109375 903.25 270.7 905.05 270.3 907.9 269.2 909.8 268.45 911.55 267.45 913.05 266.4 914.05 265.2
M 1024.425 99.975
Q 1036.668359375 105.606640625 1048.3 112.175 1063.74140625 103.9208984375 1082.3 104.15 1102.5 104.4 1118.85 114.6 1121.05 116.05 1122.05 117.1 1123.6 118.75 1123.85 120.5 1124.3 123 1122.2 125.35 1120.4 127.3 1117.5 128.6 1110.331640625 131.644140625 1102.25 130.775 1104.9072265625 132.726171875 1106.6 135.35 1108.75 138.65 1108.75 142.25 1108.75 146.05 1105.9 149 1104.5796875 150.3203125 1103.125 150.95 1103.517578125 151.5240234375 1103.9 152.1 1109.248828125 160.2138671875 1113.2 170.65 1116.85 180.4 1119.75 193.75 1132.5 251.1 1125.95 324.5 1123.3 353.85 1117.25 390.25 1113.58125 412.4072265625 1105.8 452.6 1105.606640625 458.682421875 1103.5 467.5 1100.05 482.05 1101.85 489.1 1104.15 497.9 1113.25 504.85 1119.3 509.5 1131.35 515 1145.55 521.45 1154.1 526.3 1166.2 533.15 1174.75 540.75 1184.8 549.6 1190.8 560.45 1197.35 572.2 1198 584.35 1198.55 596.6 1192.9 608.65 1187.45 620.15 1177.75 628.75 1168.6 636.85 1156.45 642.05 1147.058203125 646.0154296875 1136.375 648.025 1135.1849609375 648.2509765625 1133.975 648.45 1133.812890625 648.4740234375 1133.65 648.5 1133.2755859375 648.5666015625 1132.9 648.625 1132.496875 648.691015625 1132.1 648.75 1136.35 660.45 1137.5 669.25 1139.1 680.75 1136 689.9 1133.75 696.35 1128.6 703.05 1125.35 707.3 1118.5 714.5
L 1109.1 724.65
M 1087.35 125.1
Q 1091.95 126.2 1094.6 127.05 1098.45 128.35 1101.25 130.1 1101.764453125 130.4302734375 1102.25 130.775
M 1103.125 150.95
Q 1102.9501953125 151.028125 1102.775 151.1 1103.3375 151.5966796875 1103.9 152.1
M 1048.3 112.175
Q 1077.4912109375 128.679296875 1102.775 151.1
M 693.35 404.35
Q 693.914453125 405.803125 694.575 407.25 697.0537109375 412.721875 700.85 418.1 704.95 423.75 710.85 429.5 722.75 441 737.3 448.8 752.1 456.7 768.15 459.875 784.0634765625 464.3734375 800.075 466.2 816.0873046875 468.02734375 839.2 465.6 864.9623046875 463.4939453125 890.15 456.45 890.674609375 456.29921875 891.2 456.15 915.16015625 449.351171875 937.5 438.425 937.684375 438.3435546875 937.875 438.25
L 938.125 438.125
Q 939.266796875 437.495703125 940.4 436.85 940.9173828125 436.5515625 941.425 436.25 962.8501953125 423.63671875 977.85 404.05 987.7 408.9 999 409.4 1010.3 409.95 1020.75 406.05 1031.05 402.35 1039.65 394.95 1048.15 387.7 1053.75 378.05 1059.2 368.65 1060.4 358.85 1061.7 347.9 1057 339.55 1051.75 330.65 1040.5 325.3 1038.4283203125 324.3140625 1036.3 323.525 1035.9107421875 325.00078125 1035.5 326.5
M 1010.6 321.6
Q 1010.703125 321.202734375 1010.8 320.8 1008.867578125 321.0630859375 1006.9 321.45 988.85 324.95 977.25 337.7 946.5 295.75 930.55 245.2 914.673046875 195.137890625 915.475 143.5
L 915.45 141.35
Q 915.451171875 141.075 915.45 140.8
L 915.45 140.35 913.85 142
Q 862.95 206.1 796.85 254.6
M 739.25 222.85
Q 744.6 217.3 753.15 214.6 760.6 212.25 769.6 212.25
M 779.55 292.35
Q 779.55 294.9 777.75 296.65 776 298.45 773.45 298.45 770.9 298.45 769.1 296.65 767.35 294.9 767.35 292.35 767.35 289.8 769.1 288 770.9 286.25 773.45 286.25 776 286.25 777.75 288 779.55 289.8 779.55 292.35 Z
M 803.75 320.85
Q 800.3 314.45 799.15 306.85 798.1 299.65 799.25 292.1 801.35 278.4 809.95 265.1
M 724.1 264.45
Q 723.2671875 265.56640625 722.5 266.75 716.8 275.25 715.85 285.95 714.95 296.6 719.1 306 720.145703125 308.4103515625 721.475 310.625 725.36796875 317.120703125 731.7 322 740.15 328.55 750.35 330.25
M 720.85 268.5
Q 719.05 268.9 716 267.75 713.4 266.65 709.75 264.75 708.25 263.95 707.65 263.55 706.55 262.75 706 261.85
M 716.3 279.75
Q 714.15 279.8 711.5 279.15 710.1 278.8 706.9 277.75 705.9794921875 277.3861328125 703.65 276.6 701.3205078125 275.8138671875 700.1 274.6
M 721.475 310.625
Q 711.3447265625 325.258203125 706.6 332.7 698.35 345.5 694.1 355.95 688.85 369.2 688.6 382.05 688.3 396.3 694.575 407.25
M 897.5 365.2
Q 889.1 357.8 874.7 357.95 867.5 358 849.1 361.35 825.05 365.85 800.45 364.9 775.7 363.95 752.25 357.6 745.55 355.75 742.5 355.4 736.95 354.7 733 356.35 729.15 357.9 726.3 361.6 723.7 364.95 722.5 369.35 720.05 377.95 723.05 387.4 725.85 396.2 732.5 403.25 742.95 414.35 764.1 421.35 788.7 429.25 814.85 428.8 841.1 428.35 865.25 419.6 894.95 408.75 903.775 389.35
M 799.5 324.75
Q 792.35 320.75 784 319.15 775.85 317.55 767.6 318.5 762.4 319.15 758.6 321 754 323.3 752 327.1 750 331.05 751.05 335.8 752.05 340.35 755.35 343.85 760.55 349.35 771.35 351.85 784.4 354.65 792.5 350.35
M 798.5 323.85
Q 798.65 323.4 799.1 322.75
L 800.25 321.6
Q 801.5 320.75 801.75 320.6 802.484375 320.2521484375 802.9 320.225 802.942578125 320.292578125 802.975 320.35 803.090234375 320.519921875 803.2 320.675 811.64453125 332.4205078125 830.25 338.1 844.35 342.4 858.3 341.2 873.25 339.9 884.75 332.5 896.95 324.65 902.75 310.95 908.8 296.8 904.75 283.6 904.7361328125 283.554296875 904.725 283.5 902.63828125 276.718359375 898.475 270.95
M 743.775 374.1
Q 743.0830078125 374.0681640625 742.5 374.05 741.25 374.0158203125 740.5 374.05 738.75 374.1 737.5 374.85 734.1 376.9 734.1 384.1 734.1 386.05 734.25 386.95 734.5 388.5 735.25 389.5 736.3 390.55 738.85 391.5 745.15 393.5 750.85 394.35 754.2 394.85 755.85 394.25 758.5 393.2 759.6 389.75 760.25 387.15 760.25 383.75 760.45 380.45 759.35 379.1 758.45 378.1 756.35 377.35 750.80078125 375.561328125 743.775 374.1 Z
M 792.225 380.6
Q 791.465625 380.655078125 790.45 380.55 788.8 380.3 788 380.25 784.9 379.8 783.1 381.1 782.25 381.95 781.35 384.75 780.3 390.25 780.6 394.35 780.9 396.7 781.5 397.6 782.95 399.6 787.5 399.6 793.5 399.85 798 400.5 800.6 400.8 801.2 400.85 803.05 401 804.5 400.75 808.45 400 809.6 397.25 810.15 396.1 810.2 394.25 810.25 392.2 810.35 391.1 810.7 388.45 810.7 387.15 810.7 384.85 809.5 383.75 808.3 382.7 805.75 382.5 798.621484375 381.4544921875 792.825 380.675 792.5234375 380.6396484375 792.225 380.6 Z
M 904.725 283.5
Q 913.85 283.9 921.65 279.1
M 858.25 218.35
Q 864.5 217.5 869.5 218.75 875.45 220.45 881.15 225.65 884.9 229.05 890.5 236.1
M 856.65 295.15
Q 856.65 297.5 854.95 299.15 853.3 300.85 850.95 300.85 848.6 300.85 846.9 299.15 845.25 297.5 845.25 295.15 845.25 292.8 846.9 291.1 848.6 289.45 850.95 289.45 853.3 289.45 854.95 291.1 856.65 292.8 856.65 295.15 Z
M 842.25 379.35
Q 840.3 379.55 838.65 381.1 837.2 382.55 836.5 384.6 836 386.35 836 388.65 836 390 836.25 392.75 836.5 394.8 836.8 395.7 837.25 397.25 838.25 398.1 839.95 399.4 843.75 399.1 847.35 398.85 854.6 398.5 856.95 398.3 857.65 398.25 859.4 398.05 860.6 397.6 862.8 397.05 864.1 395.5 865 394.4 865.75 392.1 866.95 387.35 865.6 382.75 864.9 380.7 863.85 380 862.95 379.4 861.25 379.1 851 377.9 841.5 379.75
M 913.5 347.35
Q 904.95 352.5 900.75 359.25 898.5 362.7 897.5 366.2 896.45 369.9 896.75 373.75 897.45 380.25 902.1 386.35 906.45 391.95 912.8 395.3 919.25 398.75 926.25 399.1
M 968.7 370.7
Q 968.7 380.35 960.45 387.15 952.25 394 940.65 394 929.05 394 920.8 387.15 912.6 380.35 912.6 370.7 912.60390625 361.04921875 920.95 353.55 929.28828125 346.0517578125 940.85 346.25 952.41171875 346.448046875 960.55 353.75 968.69609375 361.0505859375 968.7 370.7 Z
M 941.35 459.5
Q 935.153125 463.7169921875 928.65 467.4
L 929.6 468.35
Q 934.2 473.5 934.35 481.75 934.65 487.55 932.1 496 928.4111328125 508.76171875 921.8 520.525 926.3271484375 517.70859375 930.7 514.6 946.3416015625 503.4951171875 957.675 488.925 963.0765625 481.9828125 967.5 474.25 976.55 458.45 971.65 448.5 968.35 441.95 959.6 438.9 953.4828125 436.7638671875 943.6 436.2 943.43671875 436.1837890625 943.275 436.175
L 941.425 436.25
M 839.2 465.6
L 839.2 491.425
Q 846.51328125 491.534375 854.6 490.75 877.85 488.5 899.9 480.55 914.953515625 475.1591796875 928.65 467.4
M 957.675 488.925
L 957.75 494.85
Q 957.5 512.75 966.35 533.35 972 546.5 985.75 569
L 1033.35 647.35
Q 1040.55 659.15 1043.55 665.7 1048.35 676.2 1049.1 685.5 1049.95 695.9 1045.8 705.95 1041.6 716 1033.6 722.75
M 890.15 456.45
L 890.15 482.95
M 875.45 488
L 876.05 489.2
Q 880.25 497.55 879.45 507.05 879.2 510.05 878.3 513.65 877.85 515.6 876.55 520.2 874.85078125 525.9974609375 869.7 541.925 874.7287109375 540.9828125 879.8 539.45 902.3091796875 532.641796875 921.8 520.525
M 768.15 459.875
Q 762 463.5 759.75 471.25 757.5953125 478.55 759.125 486.225 760.6619140625 493.9005859375 764.975 499.875 768.749609375 505.09921875 780.75 515 782.4720703125 516.396875 784.35 517.9 799.3990234375 529.9634765625 825.725 538.9 847.2427734375 546.202734375 869.7 541.925
M 793.1 557.1
Q 792.7060546875 567.191796875 792.15 575.875 794.6416015625 576.9751953125 796.55 579.15 798.65 581.6 799.4 584.6 799.7 586.05 800.2 589.15 800.8 591.75 802.4 592.85 803.75 593.75 807.15 593.75
L 815.5 593.75
Q 818.25 593.75 819.5 594.25 820.5 594.75 821.05 595.65 821.65 596.65 821.4 597.6 821.3869140625 597.65703125 821.375 597.725 833.25 593.7 848.35 591.7 859.1 590.3 876.1 589.5 891.55 588.7 905.5 588.35
L 908.875 588.4
Q 909.3912109375 576.5919921875 909.475 564.75
L 907.35 564.75
Q 880.4 566.25 854.05 573.35 827.75 580.4 803.6 592.6
M 909.5 558.35
Q 909.50859375 561.5509765625 909.475 564.75
M 839.2 491.425
Q 817.0013671875 491.042578125 801.925 482.325 799.294921875 483.67578125 797.55 486.65 795.45 490.1 795.35 494.25 795.3 497.8 796.55 502 797.4 504.95 799.35 509.35 805.05 521.85 811.35 532.85
M 795.5 478
Q 798.53046875 480.3794921875 801.925 482.325
M 907.35 722.1
Q 902.55 717.3 899.95 710.2 897.65 703.95 897.25 696.35 897 690.15 898 682.3 898.55 678 900.25 668.35 902.3427734375 656.183203125 903.95 643.975
L 900.5 642.35
Q 858.1595703125 624.1755859375 811.875 620.1 812.01484375 620.35390625 812.15 620.6 813.3 623.25 812.9 624.75 812.35 626.55 809.9 627.25 804.85 628.8 798.25 623 794.95 620.1 793.15 618.8 790.15 616.6 787.4 616.1
M 903.95 643.975
Q 905.781640625 630.237890625 907 616.45
L 901.5 614.75
Q 857.67734375 603.3572265625 811.4 605.25
L 809.75 606.35
Q 808.25 607.45 807.75 608 806.7 609.1 806.65 610.25 806.5 611.25 807.05 612.35 807.25 612.8 808.25 614.25 810.06484375 616.855859375 811.875 620.1
M 792.15 575.875
Q 790.8453125 595.8095703125 788.65 608.25 783.8 636.3 771.75 655.6 762.9 668.2 759.25 674.8 752.85 686.15 753.75 695.6 754.35 702.5 758.7 709.5 762.15 715 768.35 721.1
M 780.75 515
Q 768.3236328125 564.4154296875 742.6 608 731.95 625.15 727.15 633.9 718.95 649 716.1 661.5 712.55 677.05 717.1 691.6 718.2650390625 695.344921875 719.85 698.6 724.972265625 709.014453125 734.5 714.35
M 719.85 698.6
Q 716.6 704.35 714.85 707.15 712 711.8 709.25 715.25 707.271484375 717.7474609375 705.025 719.95 704.7140625 720.252734375 704.4 720.55
M 821.375 597.725
Q 821.014453125 598.9525390625 819.15 600.1
L 811.4 605.25
M 908.875 588.4
Q 908.251953125 602.4482421875 907 616.45
M 1129.4 647.05
Q 1125.35 643.8 1123.25 642.2 1118.35 638.5 1112.35 636.35 1106.5 634.25 1100.25 633.85 1097.45 633.55 1096 634.45 1094.5 635.45 1094.25 637.55 1094 639.55 1095 641.2 1096.7 643.85 1101 645.45 1108.1 648.25 1117.4 648.8 1123 649.1 1131.8 648.6 1130.6 647.95 1129.4 647.05 Z
M 179.85 394.85
Q 160.7 380.4 147.25 359.85 144.9 356.05 143.9 353.45 142.55 349.75 143.1 346.6 143.6265625 344.1287109375 145.275 341.975
L 143 341.6
Q 121.6 338.2 106.05 320.9 91.2341796875 304.321484375 89.625 283.875 89.394921875 286.15078125 87.45 288.2 84.75 291.1 81.1 291.1 77.65 291.05 74.55 288.7 71.65 286.5 70.1 283.1 67.8 278.05 68.25 269.1 69.15 254.05 74.85 240.25 76.6 236.35 78.3 234.1 79.142578125 232.9642578125 80.075 232.1 76.437890625 233.405859375 71.8 231.65 64.8 228.95 64.1 222.6 63.55 216.7 68.65 211.85 73.25 207.45 79.85 206 84.1 205 92.3 204.75 100.4599609375 204.5142578125 104.4 203.825 93.663671875 185.5890625 88.7 156.75 86.3 142.8 86.45 132.6 86.7 119.4 91.05 109.35 96.35 97.3 108.15 88 117.7701171875 80.4150390625 130.6 75.4
L 130.1 74.35
Q 128.65 71.05 128.1 69.2 127.25 66.25 127.5 63.75 128 59.9 131.3 56.45 133.8 53.85 138.25 51.1 143.05 48.2 146.65 46.75 151.5 44.85 155.75 44.85 160.7 44.85 164.8 47.55 169.1 50.4 170.1 54.85
L 170.5 56.925
Q 178.050390625 52.8150390625 185.35 48.35 208.6 34.05 213.55 31.5 229.7654296875 23.1212890625 243.55 21.875 243.7140625 21.8634765625 243.875 21.85 243.9119140625 21.853125 243.95 21.85 258.0341796875 22.1873046875 274.55 28.35 285.05 32.25 303.8 41.75 311.1 45.45 314.4 47.55 320.15 51.15 323.55 55.25 329.55 62.25 331.85 73.7 333.3 81.05 333.65 94.6 363.7513671875 81.497265625 393.25 73.5 397.2060546875 72.430078125 401.15 71.45 413.1 68.45 421.6 69 432.9 69.65 439 76.45 442.8 80.7 444 86.9 445.1 92.7 443.75 98.7 441.5 108.35 432.5 119.2 416.25 139.15 387.95 154.65 370.2 164.35 334.75 178.2
L 331.475 179.4
Q 331.179296875 181.6861328125 330.75 184
L 330.25 185.35
Q 332.625390625 187.3033203125 334.5 189.75 338.5 195.15 340 202.4 341.35 209 340.5 216.35 339.5517578125 225.3587890625 335.625 233
L 337.1 235
M 170.5 56.925
Q 158.696484375 63.3353515625 146.275 68.875
L 145.6 69.75
Q 145.375390625 69.9806640625 145.15 70.2 139.9466796875 75.5794921875 137.5 78.65 133.3 83.85 131.25 88.85 128.7 95.1 128.35 103.25 128.1 109.3 129.1 118.1 133.1 152.15 145.7 184.45
L 333.575 94.625 333.65 94.6
M 331.275 155.6
Q 332.4345703125 156.08984375 333.6 156.5 340.45 158.95 345.5 157.35 350 156.05 352.9 151.45 355.6 147.25 356 142 356.35 137.7 355.05 132.3 354.3 129.1 352.1 122.75 356.15 125.5 358.25 126.75 361.85 128.75 365 129.5 368.75 130.3 372.25 129.25 376.05 128.15 378.1 125.25 380.9 121.25 379 115.75 377.25 110.7 372.85 107.35 369.5 104.95 363.7 102.75 357.296484375 100.2677734375 355.15 99.425
L 304.5 133.85
Q 304.328125 133.953125 304.15 134.05 312.2724609375 142.58046875 317.2 146.75 324.3056640625 152.6572265625 331.275 155.6 333.0951171875 167.2818359375 331.475 179.4
M 393.25 73.5
L 355.15 99.425
M 335.625 233
Q 334.598046875 235.0201171875 333.35 236.95 326.95 246.8 317.1 250.5
M 336.85 233.6
Q 350.4 249.5 355.6 269.05 361.1 289.75 355.35 308.35 350.45 324.45 337.55 337.45 337.1015625 337.9021484375 336.65 338.35
L 340 339.25
Q 343.9 340.4 346.05 344.5 348.1 348.35 347.5 352.75 346.35 359.75 338.75 366.5 337.25 367.8 324.75 376.3 316.2 382.15 312.5 387.75 306.45 396.65 307.1 412.1 307.353515625 416.1962890625 308.125 423.3 308.8919921875 430.4138671875 309.175 433.25 309.45546875 436.0763671875 309.675 437.5 313.6619140625 468.10703125 315.85 485.85 317.05 494.55 317.3 499.5 317.7 507.05 316.6 513.1 315.4 520.3 312 525.95 308.25 532.25 302.5 535.35 297.7 538.05 294.35 536.35 293.5765625 536.001953125 292.925 535.4 292.5876953125 535.669921875 292.25 535.925
L 292.5 536.85
Q 298.2482421875 563.0603515625 299.3 589.6 300.1 590.55 301 590.75 301 590.85 301.25 590.85 302.2 591.1 303.1 590.85
L 303.6 590.75
Q 304.09765625 590.55859375 304.35 590.125 304.3615234375 589.9818359375 304.375 589.85 304.858203125 584.38984375 307 579.6
M 241.6 75.6
Q 246.840625 73.9837890625 254.2 70.975 254.342578125 70.8751953125 254.475 70.825 255.101953125 70.5640625 255.75 71.05 256.55 71.65 256.6 72.6 256.9 73.95 255.85 76 249.9267578125 88.344140625 240.575 100.75 240.55625 100.7751953125 240.525 100.8 240.5181640625 100.8259765625 240.5 100.85 240.39609375 101.1103515625 240.6 101.6 240.85 101.85 241.5 102.1 242.9 102.35 245.6 101.85 253.01640625 100.180078125 259.125 96.15 259.240234375 96.0734375 259.35 96 259.9408203125 95.81171875 260.6 96.1 261.35 96.4 261.75 97.1 262.25 98 262.25 100.1 262.1 105.1 262 115.25 266.25 113.85 274.6 111 275.7 110.8 275.5 108.85 274.9 103.05 271.85 97.85 271.1 96.6 271.25 96 271.55 94.6 274 94.6 282.62265625 94.45546875 292 94.725 292.2373046875 94.742578125 292.475 94.75 292.6041015625 94.7634765625 292.725 94.75 293.075 94.7046875 293.45 94.4 294.3 93.7 294.1 92.75 294 91.5 292 90 281.3 81.9 272.5 72 271.9 71.4 271.75 70.75 271.75 69.2 274.5 69 279.5 69 284.5 70 285.15 70.3 285.6 69.65 286.05 69 285.85 68.25 285.6 67.4 284.1 66.1 269.65 54.7 259.25 39.5
L 257.65 37.65
Q 256.991015625 39.4802734375 254.5 49.125 252.008984375 58.7697265625 241.25 75.6
M 145.7 184.45
Q 160.9 192.9 177.85 193.525 178.9658203125 193.4154296875 180.1 193.25 188.15 192.1 197.6 188.2 203.6 185.75 214.25 180.25 296.5 138.5 304.15 134.05
M 284.7 217.85
Q 284.7 234.25 273.8 245.8 262.95 257.4 247.55 257.4 232.15 257.4 221.25 245.8 210.4 234.25 210.4 217.85 210.4 201.45 221.25 189.85 232.15 178.3 247.55 178.3 262.95 178.3 273.8 189.85 284.7 201.45 284.7 217.85 Z
M 278.6 193.85
Q 283.4 187.3 290.65 183.2 297.9 179.1 306 178.35 314.2 177.6 321.8 180.5 326.6126953125 182.3462890625 330.25 185.35
M 298 156.25
Q 303.45 153.8 309.65 154.75 315.85 155.65 320.25 159.6
M 146.275 68.875
Q 139.58046875 71.865234375 132.7 74.6 131.6388671875 74.9900390625 130.6 75.4
M 152.75 245.25
Q 145.8 242.5 140.75 241.25 134.1 239.65 128.35 240 121.8 240.45 116.35 243.7 110.55 247.1 108.1 252.6 106.85 255.5 106.5 259.3 106.25 262.05 106.5 266.25 107.3 276.85 111.15 285.7 115.45 295.5 122.85 301.5 130.75 307.95 141.3 308.3 152.2 308.7 159.35 302.1
M 104.925 203.925
Q 104.6291015625 203.792578125 104.4 203.825 104.4712890625 203.9669921875 104.55 204.1
L 104.925 203.925 145.7 184.45
M 89.625 283.875
Q 89.7291015625 282.88828125 89.5 281.85
M 177.85 193.525
Q 183.65 214.9 185.85 226.55 189.3 245.05 188.75 260.1 188.45 267.25 186.5 270.75 185 273.3 182.6 274.7 180 276.2 177.35 275.75 174.9 275.3 173.1 273.1 171.35 271.1 170.75 268.35 170.15 266.15 170.35 263.25 170.45 262 171 258 170.3 262.5 169.55 265.05 168.45 268.9 166.6 271.5 164.4 274.55 161.1 276 157.5 277.5 154.25 276.25 150.6 274.85 149 270.45 147.55 266.45 148.35 262 148.8 259.5 150.7 254 152.45 248.85 152.85 245.85
M 180.125 395.05
Q 180.060546875 395.1951171875 180 395.325 160.384375 438.319921875 147.25 483.5 145.1 490.95 144.4 495.35 143.3 502 144.25 507.35 146.15 518.3 156.2 527.15 164.3 534.3 177.25 539.75
L 181.6 541.6
Q 187.2 515.15 188.35 468.6 188.659765625 455.75390625 188.875 447.25 189.2033203125 435.1662109375 189.35 431.85 190.25 411 192.35 395.25 193.4 387.8 196.3 382.85 200 376.6 205.6 376.6 211.3 376.6 214.95 382.85 217.85 387.75 218.85 395.25 223.45 429.5 220.5 472.7 218.7203125 498.652734375 211.9 548.95 221.68984375 551.906640625 231.75 546 232.073046875 545.8013671875 232.4 545.6 242.25 539.55 247 528.75 250.9 519.9 252 507.2 252.2 504.3 252.75 484.75 252.85 477.9 254.15 452.25 255.2 432.15 254.75 419.75 254.2818359375 408.571484375 252.6 398.625 249.375 379.512109375 241.675 364.95 239.683984375 361.180078125 237.4 357.725 235.5697265625 355.526953125 233.75 352.7 226.5 341.5 224 339 217.15 332.3 205.5 330.35 197.632421875 328.9755859375 185.45 329.675 184.782421875 329.7056640625 184.1 329.75 174 330.3 167.9 331.4 159.15 332.95 152.6 336.35 147.7220703125 338.81875 145.275 341.975
M 83.5 230
Q 81.9140625 231.4509765625 80.075 232.1 81.6625 230.63359375 83.5 230 Z
M 309.85 214.3
Q 309.85 217.45 307.65 219.65 305.45 221.85 302.3 221.85 299.15 221.85 296.95 219.65 294.75 217.45 294.75 214.3 294.75 211.15 296.95 208.95 299.15 206.75 302.3 206.75 305.45 206.75 307.65 208.95 309.85 211.15 309.85 214.3 Z
M 279.85 238.25
Q 280.55 240.25 281.75 241.35 281.85 241.5 282.25 241.75 282.5 242 283.1 242.35 283.8365234375 242.7181640625 284.7 242.75 287.8 240.4 291.55 239.3 295.35 238.25 299.2 238.6 307.2 239.2 312.95 245.1 317 249.25 317.2 254 317.4 258.2 314.25 261.85 311.35 265.25 306.95 266.85 301.95 268.75 296.55 268.3 291.15 267.85 286.55 265.1
M 262.3 219.05
Q 262.3 222.35 259.95 224.65 257.65 227 254.35 227 251.05 227 248.7 224.65 246.4 222.35 246.4 219.05 246.4 215.75 248.7 213.4 251.05 211.1 254.35 211.1 257.65 211.1 259.95 213.4 262.3 215.75 262.3 219.05 Z
M 238.375 296.9
Q 247.282421875 304.0486328125 259.45 306.5 272.55 309.2 285.6 305.75 300 302.05 305.25 292.85 307.35 289.3 306.35 286.5 304.9 281.75 295.35 281.5 283.95 281.25 270 279.7 261.6673828125 278.753125 246.575 276.475 245.7181640625 276.3564453125 244.85 276.225 239.8904296875 276.3083984375 236.35 278.1 234 279.5 232.6 281.7 231.05 284.1 231.25 286.6 231.35 290.7 236.25 295.1 237.287109375 296.039453125 238.375 296.9 241.4 293.65 247.5 293 256.85 291.9 265.95 295.4 275.05 298.95 281.25 306
M 233 281.6
Q 242.25 286.55 255.25 288.2 263.55 289.25 278.85 289.25 287 289.35 291.75 288.45 298.8 287.1 303 283.25
M 205.1 240.6
Q 207.65 249.35 215.85 255.75 222.7 260.9 232.85 263.6
M 159.85 301.6
Q 162.4 309.05 167.6 315.4 172.75 321.7 179.6 325.75
L 185.45 329.675
M 336.65 338.35
Q 324.73984375 350.0017578125 308.75 356.6 303.5951171875 358.780859375 298.1 360.45
L 297.5 362.85
Q 293.3236328125 377.7734375 290.425 392.925 288.1294921875 404.912890625 286.625 417.05 284.9205078125 430.9033203125 284.25 444.95 282.626953125 479.0333984375 287.25 512.4 288.336328125 520.140625 289.75 527.85 290.35 531 291.15 532.8 291.8859375 534.4251953125 292.925 535.4
M 252.6 398.625
Q 257.75 403.5 265.1 404.7 272.5 405.9 278.75 402.75 281.5 401.4 284.35 398.95 286.2 397.4 289.25 394.25
L 290.425 392.925
M 315.85 384.1
Q 316.6 387 317.1 390.7 317.35 392.65 317.75 397.35 318.75 408.35 322 447
L 327.375 525.6
Q 327.4443359375 527.19453125 327.5 528.75 328.151171875 546.8974609375 327 560.25 325.45 579 320.1 593.85 319.15 596.9 317.35 598.8 315.2 601 312.85 600.25 311.3 599.75 310.35 598 309.814453125 596.8931640625 309.6 595.575 309.75 598.2 308.6 598.85 307.4 599.55 306 598.35 304.25 596.9 304.25 593 304.25 591.5443359375 304.35 590.125
M 298.1 360.45
Q 273.4068359375 367.900390625 241.675 364.95
M 310 436.75
Q 310.85 436.35 312.85 435.85 318 434.3 320.6 435.1
M 286.625 417.05
Q 285.4185546875 417.8451171875 283.35 419.5 273.7 426.6 261.85 427.75
M 188.875 447.25
Q 196.7 444.8 204.9 444.55 213.1 444.25 220.85 446.25
M 190.75 606
Q 191.65 605 193.15 603 196.05 598.75 196.8 597.6 198.8 594.5 200 592.05
L 200 592
Q 202.85 585.7 203.95 583.05 206.15 578 207.4 573.85 208.95 568.7 210.1 562.05 210.75 558.1 211.75 550.1 211.8287109375 549.5208984375 211.9 548.95 211.7533203125 548.8986328125 211.6 548.85
M 297.75 577.5
Q 293.75 579.5 288.25 580.65 284.75 581.35 278.25 582.1 273.65 582.75 270 583.1 268.05 583.5 266.85 582.85 265.5 581.95 265.5 578.85 265.7 571.85 266.1 567.1
L 266.075 566.275
Q 261.5361328125 568.0384765625 255.75 568.5 252.6 568.85 248.45 568.7 247.65 568.7 241.1 568.35
L 240.2 568.35
Q 242.948046875 597.982421875 241.025 626.85
L 240.025 638.175 237.9 662
Q 238.1236328125 662 238.35 662 242.4 662.2 243.6 663.85 244.7 665.45 243.85 669.1 242.0064453125 676.3796875 239.325 682.775 247.128515625 682.1037109375 254.85 682 265.9013671875 681.85625 276.775 682.875 277.01171875 682.897265625 277.25 682.925 284.54140625 683.6255859375 291.75 684.85 303.45 686.85 311.2 690.6 315.758984375 692.8 319.15 695.65
L 320.25 695.7
Q 320.5265625 695.714453125 320.8 695.725 342.34375 696.8373046875 353.6 695.85 372.05 694.25 384.9 687.1
L 385.75 686.5
Q 384.4 684.8 382.2 683.4 380.75 682.45 378 681.1 361.25 673.05 342.7 669.65 339.61796875 669.0736328125 336.525 668.625 332.6 670.35 329.4 673.05 326.15 675.8 324.1 679.35
M 206.5 578.25
Q 207.6 579.45 210.25 580.6 212.17578125 581.4951171875 214.15 582.225 219.4927734375 584.1576171875 225.25 584.85 233.15 585.75 240.85 584.25
M 181.6 542.1
Q 181.05 556.15 176.95 569.85 172.8 583.55 165.5 595.6 162.7 600.05 164.6 602.1 165.55 603.25 168 603.25 171.85 603.25 175.35 600.75
L 177.825 598.825 177.875 598.775 181.9 593.6
M 287.25 512.4
Q 283.05859375 519.185546875 276.4 523.9 269.5 528.8 261.5 530.35
M 269.6 564.6
Q 267.9466796875 565.5427734375 266.075 566.275
M 231.75 546
Q 239.1 549.3 247.5 550.1 255.6 550.85 263.85 549.25 279.196875 546.1515625 292.25 535.925
M 314.85 549.5
Q 311.5 551.3 308.75 555.35 306.15 559.35 306.6 562.6 306.85 564.25 307.85 564.75 308.4 564.95 309.85 564.6 313.2 563.4 316.25 560.6
M 309.6 595.575
Q 309.528515625 595.0576171875 309.5 594.5 309.35 590.55 311.15 585.95 312.25 583.1 315.1 578
M 299.3 589.6
Q 299.914453125 605.41796875 298.875 621.35 298.858203125 621.4755859375 298.85 621.6 298.939453125 627.2966796875 298.85 633 298.7255859375 642.740234375 298.1 652.5
M 274.6 634
Q 277.75 635.25 283.25 635.25 291.25 635.25 298.85 633
M 298.85 621.6
Q 285.810546875 621.846875 275.35 622.825 275.4013671875 622.2375 275.45 621.65
L 273.2 641.75
Q 271.85 654.1 270.85 661.2 269.644140625 669.525 268.1 676.575 270.825 676.484375 275.75 676.35 279.5 676.35 281.35 675.85 283.99375 675.3029296875 285.65 673.975 285.7998046875 673.8369140625 285.95 673.7 286.8548828125 671.6572265625 286.9 667.95 287 663.3 287.5 661.6 288.9 657.4 293.75 654.75 296.55 653.25 302.75 651.75 307.05 650.65 308.85 652.35 309.9 653.2 310.2 654.95 310.45 656.4 310.1 658.1 309.25 663.05 305.875 667.575 315.848046875 666.847265625 325.775 667.5 331.1595703125 667.8623046875 336.525 668.625
M 254.85 682
Q 253.85 683.1 252 685.35 251.9 685.7 251 686.6 250.45 687.65 250.25 687.75
L 249.1 689.75
M 276.775 682.875
Q 275.3580078125 682.878125 273.6 683.65 270.15 685.1 266.8 688.1 264.55 690.15 261.1 694.15
M 268.1 676.575
Q 267.9 677.15 267.5 678.525 267.1 679.9 266.35 681.6
M 325.775 667.5
Q 322.05 668.2 318.8 670.45 315.65 672.65 313.75 676
M 240.6 626.6
Q 227.3 627 214.1 626.5 212.9330078125 632.45390625 211.6 638.375 215.7142578125 639.4529296875 221.25 639.7 223.85 639.85 231.25 639.85 234.3 639.75 235.2 639.65 237.45 639.4 239.1 638.75
L 240.025 638.175
M 214.15 582.225
Q 215.7453125 591.93046875 215.5 604.1 215.35 611.6 214.1 626.5
M 189.1 595.25
L 183.825 604.275
Q 183.3609375 605.26875 184.05 606.45 184.75 607.6 186 607.85 187.95 608.15 190.35 606.25
M 177.825 598.825
L 177.825 598.85
Q 177.8001953125 598.8990234375 177.775 598.95 176.1849609375 601.3865234375 175.25 603.35 174.3 605.3 174.1 606.6 174.1 607.85 174.5 608.35 175.35 609.4 177.1 609.1 179.25 608.85 181.1 607.5 182.88515625 606.1611328125 183.825 604.275
M 211.6 638.375
Q 206.49765625 660.949609375 198.925 683.05 202.9921875 685.407421875 207.8 686.25 212.6 687.1 217.35 686.25 219.4 685.75 220.1 684.75 220.55 684.1 220.45 683.05 220.4 682.55 220.1 681.25 218.25 674.55 220.1 670.25 221.2 667.9 223.3 666.05 225.3 664.35 227.85 663.35 231.851953125 662.048046875 237.9 662
M 319 696.1
Q 292.95 708.65 257.35 706.1 243.35 705.1 226.1 701.6 216.35 699.65 195.25 694.5
M 198.925 683.05
Q 195.2408203125 693.77734375 190.975 704.4 232.1232421875 713.07890625 254.4 714.8 290.7 717.6 318.25 708.5 320.75 707.65 322.2 706.75 324.25 705.5 325.1 703.75
L 325.4 703.125
Q 323.05390625 698.953515625 319.15 695.65
M 274.1 583.1
Q 277.0119140625 602.221875 275.45 621.65
M 325.4 703.125
L 325.55 702.825
Q 352.1087890625 704.4720703125 379 699.25 381.75 698.6 383.25 697.95 385.55 696.95 386.6 695.35 387.85 693.5 387.55 690.9 387.2 688.5 385.75 686.5"/>
</defs>

<g transform="matrix( 1, 0, 0, 1, 0,0) ">
<use xlink:href="#Layer1_0_FILL"/>
</g>

<g transform="matrix( 1, 0, 0, 1, 0,0) ">
<use xlink:href="#Layer0_0_FILL"/>

<use xlink:href="#Layer0_0_1_STROKES"/>
</g>
</svg>
