
<svg xmlns="http://www.w3.org/2000/svg" version="1.1" xmlns:xlink="http://www.w3.org/1999/xlink" preserveAspectRatio="none" x="0px" y="0px" width="1280px" height="720px" viewBox="0 0 1280 720">
<defs>
<g id="Layer2_0_FILL">
<path fill="#FFFFFF" stroke="none" d="
M 1280 720
L 1280 0 0 0 0 720 1280 720 Z"/>
</g>

<g id="Layer0_0_FILL">
<path fill="#000000" stroke="none" d="
M 548.9 336.75
Q 548.49765625 339.0876953125 547.75 343 550.4830078125 343.6646484375 553.6 344 563.4693359375 345.03046875 573.25 342.65 573.6 339.75 573.55 338.45 573.4 336.2 572.25 334.85 571.25 333.8 569.4 333.3 568.35 333 566 332.75 563.6 332.6 558.25 332.1 555.75 332 554.75 332.1 552.85 332.25 551.5 333.1 549.3515625 334.4 548.9 336.75
M 459.25 343.55
Q 460.4935546875 343.6654296875 461.6 343.75 470.65 344.45 476.55 343.65 481.6193359375 342.934765625 485.45 341.2 485.7494140625 338.85 485.3 336.4 484.850390625 333.95 482.75 332.8 480.6998046875 331.65 476.35 331.85 469.75 332 466.35 332 464.45 332.1 463.95 332.2 462.65 332.4 461.75 333 459.5951171875 334.1 459.35 336.45 459.1146484375 338.8 459.15 340.05 459.2298828125 341.337890625 459.25 343.55 Z"/>
</g>

<path id="Layer0_0_1_STROKES" stroke="#000000" stroke-width="1" stroke-linejoin="round" stroke-linecap="round" fill="none" d="
M 578.35 429.75
Q 579.9 438.6 576.1 449 572.9 457.2 566.25 465.875 574.4634765625 466.0390625 581.2 466.575
L 591.2 423.75
Q 591.35 422.55 591.95 421.7 592.6 420.75 593.6 420.5 595 420 597.25 420.75 600.85 421.65 604.1 423.6 605.9537109375 424.55 606.55 425.6 607.146484375 426.6603515625 606.85 428.525 606.5474609375 430.3787109375 606.5 430.65 606.4576171875 430.92734375 606.15 432.1
L 606.275 431.325 597.9 469.05
Q 598.9927734375 469.311328125 600 469.6 610.45 472.7 615.1 478.25 617.45 481.05 618.55 484.55 618.661328125 484.8990234375 618.75 485.25 619.32109375 479.66640625 621.9 475.55 624.25 471.8 628.25 469 631.4 466.8 636.2 464.9 638.15 464.15 644.75 462 650.15 460.1 653.25 458.6 657.75 456.35 660.6 453.5 661.09453125 452.9982421875 662.325 451.925 663.5662109375 450.8546875 665.225 450.175 666.883984375 449.4974609375 667.825 449.95 668.6876953125 450.3578125 668.55 451.6 668.5 452.1478515625 668.5 454.475 668.49765625 456.8095703125 668.55 457.85 668.6068359375 458.881640625 668.45 460.05 673.3583984375 457.0771484375 677.75 453.35 683.6 448.3 687.55 451.05
L 693.05 447.65
Q 694.45 446.75 695.7 446.1 696.95 445.45 697.575 445.8 698.2005859375 446.1505859375 698.075 446.675 697.9455078125 447.2001953125 697.75 448.075 697.559375 448.9458984375 697 450.6
L 696.975 450.65 696.95 450.75 680.75 496.775
Q 682.8896484375 497.7052734375 684.825 498.6 686.7529296875 499.4955078125 687.2 501.775 687.6388671875 504.06171875 685.4 507.625 683.16640625 511.188671875 681.55 512.15 679.930859375 513.10859375 678.6 513.625 679.148046875 515.858203125 678.6 518.25 678 520.6 676.45 522.6 677.4224609375 523.1337890625 678.25 523.85 680.45 525.95 682.75 531.25 685.85 538.25 691.625 552.65 692.3505859375 552.500390625 693.1 552.35 700.3 550.9 704.6 550.9 711 550.9 715.35 553.5 718.6 555.35 721.25 559 723.2 561.7 725.35 566.1 732.35 580.15 738.05 598.8 741.55 610.4 747 632.85 757.45 633.5 767 638.75 771.95 641.45 772.75 644.75 773.55 648.75 769.35 652.85 765.45 656.85 759.45 659.85 755.1 661.95 748 664.25 721.349609375 672.3890625 693.025 673.575 691.6521484375 675.34765625 689.45 676.85 685.3 679.7 678.6 681.35 661.75 685.5 640.1 686.9 626.9 687.75 601 687.85 596.45 687.85 594.2 687.55 590.5 687.05 588 685.5 584.25 683.15 582.1 678 580.75 674.7 579.5 668.25 578.0275390625 660.4078125 576.725 653.4 543.3328125 664.598046875 507.45 664.55 470.05 664.5 435.6 652.25
M 668.55 451.6
Q 665.3341796875 455.298046875 660.6 458.1 657 460.25 651.25 462.6 644.95 464.95 641.85 466.2 636.5 468.35 632.75 470.5 622.5 476.3 618.75 485.25 619.6296875 488.4501953125 619.45 492.45 620.68671875 492.3353515625 621.85 492.15 622.75 486.1 627.4 480.85 631.45 476.3 637.6 473 641.85 470.8 649.55 468.05 658.45 464.9 661.6 463.5 665.209375 461.9380859375 668.45 460.05
M 680.75 496.775
Q 678.6337890625 495.9904296875 677.15 495.6 674.4 494.9 672.1 495.25 667.65 495.8 665.35 499.5 664.15 501.2 663.8 503.3 663.45 505.4 664 507.35 664.08046875 507.6623046875 664.175 507.95 665.10078125 510.8109375 667.5 512.35 670 514.1 674.35 514.1 676.3568359375 514.259375 678.6 513.625
M 664.175 507.95
Q 659.79375 509.9072265625 657.45 512.65 654.9 515.55 654.35 519 653.8 522 655.05 525.1 659.808203125 522.6626953125 664.1 521.6 668.2 520.7 671.6 521.1 674.3607421875 521.4408203125 676.45 522.6
M 687.55 451.05
L 636.75 482.5
Q 636.6865234375 482.8173828125 636.6 483.125 636.309765625 484.14453125 635.75 485.075
L 606.75 560.25
Q 624.28984375 545.7669921875 642.5 533 649 528.45 652.9 526.25 653.9859375 525.6384765625 655.05 525.1
M 606.75 560.25
L 606.825 560.65
Q 607.51796875 563.43515625 608.55 568.8 609.9599609375 568.38203125 611.2 568.05 621.05 565.4 629.25 564.75 637.2 564.15 643.65 565.7 644.1154296875 565.8125 644.575 565.925 646.33203125 563.94609375 653 557.6 654.9 555.95 655.95 555.3 657.7 554.2 659.35 554.1 661.75 554.1 664 556.35 665.136328125 557.486328125 666.575 560 668.86640625 558.9001953125 671.4 557.95 678.2740234375 555.3900390625 691.625 552.65
M 666.575 560
Q 658.3912109375 563.9271484375 653.25 569.875 654.7841796875 570.9615234375 656.1 572.25 660.3 576.35 662.7 583.3 664.3 587.75 665.85 596.25
L 676 651.6
M 676.1 651.85
Q 684.25 653.85 689.25 657.3 695.65 661.8 695.25 668 694.98515625 671.0595703125 693.025 673.575
M 699.75 649.5
Q 708.95 643 719.75 639.5 730.6 635.95 741.75 635.85
M 606.825 560.65
Q 606.7755859375 560.4498046875 606.725 560.25 606.34296875 558.73125 606 557.6 604.3 552.25 601.75 548.6 598.8 544.2 594.2 541.85 591.9234375 540.6884765625 589.7 540.275 587.11640625 539.8146484375 584.6 540.35 583.4228515625 540.60234375 582.25 541.1 579.9396484375 542.075390625 577.65 544 575.6 545.65 571.85 549.75 554.5 569.5 519.85 609.3
L 444.7 599.8
Q 444.05 599.7 443.05 599.475 442.0484375 599.2484375 441.55 598.225 441.0546875 597.2046875 441.15 596.025 441.23125 594.83125 441.775 593.175 442.3140625 591.558203125 442.725 590.6
L 442.675 590.6 421.15 601.725
Q 420.6 602.1 420.35 602.1 420 602.25 419.25 602.25 416.25 602.25 414.75 602.25
L 338.975 597.55
Q 338.8798828125 597.548046875 337.925 597.5 336.9705078125 597.451171875 336.8 597.1 336.6318359375 596.7509765625 336.75 596.45 336.855859375 596.14296875 337.3 595.9 337.7546875 595.6603515625 338.375 595.35 338.9861328125 595.034375 339.1 594.975
L 353.4 588.45
Q 356.1041015625 587.0486328125 357.225 586.725 357.4609375 586.669140625 357.625 586.65 358.5962890625 586.5361328125 360.1 586.55
L 442.675 590.6 442.725 590.575 442.725 590.55 448.2 576.45
Q 447.9923828125 572.705078125 447.5 565.75 447 562.15 446.85 561.25 446.35 558.75 445.2 556.1 444.05 553.45 441.7 551.9 439.354296875 550.35 439.075 550.225 438.7865234375 550.1 437.3 549.425 435.8142578125 548.7509765625 433.725 548.475 431.6421875 548.1966796875 429.975 550.775 428.312890625 553.3650390625 426.05 556.425 423.7849609375 559.476953125 422.1 561.85 420.4099609375 564.223046875 417.9 564.6 415.390234375 564.9701171875 412.55 565
L 324.15 562.55
Q 318.95 562.15 318 561.35 316.75078125 560.3443359375 316.725 558.975 316.69765625 557.616796875 317.425 556.4 318.153125 555.1775390625 318.2 555
L 323.95 545.2
Q 324.3 544.55 325.5 542.85 326.398828125 541.5494140625 327.15 541.125 327.903515625 540.7017578125 330.8 540.65 333.6953125 540.59765625 336.35 540.7
L 338.075 540.75
Q 331.6513671875 523.483984375 329.45 502.4 327.55 484.5 328.5 462 329 450.25 331.4 421.75 333.6 396.05 334.55 380.7 329.2068359375 375.596875 325.85 368.35 320.45 356.75 322.5 344.85 323.55 338.6 326.55 333.2 328.6951171875 329.37890625 331.55 326.425 327.3478515625 303.785546875 327.05 287.2 326.65 265.5 332.5 248.35 333.3228515625 245.9125 334.275 243.575 327.45 239.95 324.95 231.7 322.6 224 324.85 216.1 326.85 209.3 332.1 202.35 335.55 197.7 342.5 190.6 347.0470703125 186.0529296875 351.45 181.9 346.1 181.05 343.2 181 338.85 181 335.5 181.85 334.5 182.15 331.6 183.15 329.15 184 327.6 184.35 325.65 184.85 324.6 184.1 323.7 183.5 323.25 182 321.15 176.05 323.35 169.35 324.9 164.55 328.35 162.5 332.1 160.1 337.75 161.25 341.4 161.9 345.6 164 347.85 165.1 352.85 168.1 355.3 169.6 356.55 170.55 358.5 172.1 360.3 173.8 364.4744140625 170.1421875 368.5 166.85 383 155 397.35 146.6 406.55 141.2 414.15 138.5 423.7 135.1 432.25 135.25 442.05 135.55 450.05 140.7 457.7478515625 145.6357421875 460.575 153.225 470.568359375 150.525390625 481.25 149.1 514.4 144.65 545.5 153.65 578.35 163.1 600.6 185.35 623.95 208.6 630.2 241.95 636.6 276.3 621.25 304 620.26953125 305.7650390625 619.55 307.1 619.6962890625 307.7212890625 619.825 308.35 621.654296875 317.3638671875 622.35 326.45 624.1 349.2 618.6 369.75 612.85 391.35 599.35 408.9 585.35 427.05 566.1 436.75 555.30703125 442.2005859375 542.2 445.175 541.9 445.25 542.25 445.85 543.2 447.55 543.85 450.75 545.25 457.9 545.25 465
M 351.45 181.9
Q 355.955859375 177.649609375 360.3 173.8
M 334.275 243.575
Q 341.0369140625 226.9982421875 354.4 215.3 370.65 201.05 389.85 200.6 404.45 179.15 429.75 165.5 444.255078125 157.65859375 460.575 153.225
M 460.55 217.15
Q 463.6994140625 219.614453125 466.95 221.9 474.476171875 227.227734375 482.525 231.625 506.1974609375 244.5556640625 534.35 249.5 537.7390625 250.09453125 541.1 250.575 541.4755859375 250.2 541.85 249.85 551.35 240.95 565.55 241.45 579.3794921875 241.93515625 588.075 250.95 599.950390625 249.4255859375 611.6 246.25 613.6041015625 245.6958984375 615.6 245.1
M 491 263
Q 484.46875 253.040234375 474 247.25 462.15 240.7 450.1 242.35 445.4169921875 243.0478515625 441 244.925 443.614453125 246.4638671875 446.3 247.9 467.2 259.05 490.1 262.85 490.550390625 262.9267578125 491 263 497.4158203125 263.9771484375 501.525 263.575 505.6275390625 263.1603515625 507.625 261 509.618359375 258.846484375 508.725 255.4 507.84375 251.955078125 505.95 249.6 504.7 248.05 502 245.85 492.4455078125 238.268359375 482.525 231.625
M 367.35 284
Q 385.75 271.45 396.25 256.75 402.25 248.45 405.65 239.25 409.203515625 229.6755859375 409.5 220 423.526953125 234.66171875 441 244.925 435.625 247.23203125 430.65 251.3 422.15 258.2 417.1 268.35 409 284.95 409.25 310.75 409.25 318.45 410.55 323.6 410.6720703125 324.0958984375 410.8 324.575
M 430.1 219.6
Q 437.9 207.35 451.4 200.6 464.9 193.85 479.4 195.85
M 354.3 310.4
L 357.65 318.175 371.75 350.75
Q 376.7 334.15 376.35 316.5 376 298.9 370.35 282.5
M 357.65 318.175
Q 351.7728515625 316.7935546875 345.65 318.3 339.45 319.75 334.5 323.75 333.022265625 324.9166015625 331.7 326.275 331.620703125 326.3556640625 331.55 326.425
M 334.55 380.7
Q 337.725390625 383.72734375 341.6 386 351.95 392.1 364.65 391.15 377.4 390.2 386.75 382.6
M 338.075 540.75
L 388.675 541.9
Q 391.496484375 530.7064453125 390.775 509.225 389.72734375 478.040625 389.525 470.775 389.3279296875 463.51484375 389.125 452.625 384.909375 448.3298828125 381.6 443.8 373.35 432.6 371.25 420.75 369.7 412.3 372.4 404.8 375.3728515625 396.575 382.25 394 380.5396484375 391.0255859375 379 388
M 459.25 343.55
Q 460.4935546875 343.6654296875 461.6 343.75 470.65 344.45 476.55 343.65 481.6193359375 342.934765625 485.45 341.2 485.7494140625 338.85 485.3 336.4 484.850390625 333.95 482.775 332.8 480.6998046875 331.65 476.35 331.85 469.75 332 466.35 332 464.45 332.1 463.95 332.2 462.65 332.4 461.75 333 459.5951171875 334.1 459.35 336.45 459.1146484375 338.8 459.175 340.075 459.2298828125 341.337890625 459.25 343.55 450.9390625 342.8396484375 436.5 341.1 429.55 340.35 425.8 339.35 420.8701171875 337.9900390625 417.6 335.425
M 549.75 201.5
Q 555.95 198.95 562.8 198.8 569.65 198.6 576 200.85 582.35 203.25 587.45 207.65 592.7 212.15 595.85 218 596.03359375 218.3466796875 596.25 218.625
M 602.35 314.525
Q 602.7984375 303.0232421875 602.3 294.3 601.65 283.35 599.5 274.25 596.15 259.7 588.6 251.5 588.340234375 251.2181640625 588.075 250.95 565.009375 253.89609375 541.1 250.575 530.2173828125 261.4181640625 527.75 284.35 526 300.3 527.6 315.75 527.6701171875 316.4068359375 527.75 317.05
M 611.6 246.25
L 612.625 283.75
Q 617.0578125 295.360546875 619.55 307.1
M 498.65 317.2
Q 499.023046875 315.2794921875 499.35 313.25 501.45 300.15 499.85 288.15 498.1 274.95 492 264.6 491.5072265625 263.7833984375 491 263
M 547.75 343
Q 548.49765625 339.0876953125 548.925 336.75 549.3515625 334.4 551.5 333.1 552.85 332.25 554.75 332.1 555.75 332 558.25 332.1 563.6 332.6 566 332.75 568.35 333 569.4 333.3 571.25 333.8 572.25 334.85 573.4 336.2 573.55 338.45 573.6 339.75 573.25 342.65 575.840234375 341.9705078125 578.4 341.1 589.9578125 337.1373046875 598.8 329.225 599.138671875 328.716796875 599.6 328.225
M 547.75 343
Q 550.4830078125 343.6646484375 553.6 344 563.4693359375 345.03046875 573.25 342.65
M 535.9 337.125
Q 540.4076171875 341.2384765625 547.75 343
M 485.45 341.2
Q 487.5728515625 340.0751953125 489.3 338.775 489.5091796875 338.5130859375 489.725 338.25
M 522.25 338.75
Q 521.75 341.95 523.1 345.05 524.45 348.2 527.1 350 528.75 351.15 532.2 352.5 535.75 353.85 537.25 354.85 540.15 356.7 541.7 359.95 543.25 363.1 543 366.5 542.7 369.85 540.75 372.85 538.75 375.8 535.75 377.35 532.55 378.95 526.75 379.25 517.05 379.45 513.5 374.5
M 346.9 563.65
L 348.1 581.6
Q 342.5 582.05 337.75 585.45 333.4 588.6 330.75 593.6 328.6 597.85 327.35 603.75 326.6 607.35 325.75 614.5
L 322 645.35
Q 321.5 649.65 321.7 652.05 322 655.75 323.85 658.1 325.35 660.2 328.3 661.5 330.2 662.4 333.85 663.25 355.85 669 370.2 671.4 390.35 674.85 407.25 674.25 413.55 673.9 417.45 672.95 422.95 671.6 426.5 668.75 430.55 665.45 433.05 659.25 434.6 655.45 436.35 647.75
L 446.85 600.35
M 600.55 422.15
L 590.5 467.625
Q 594.5884765625 468.2341796875 597.9 469.05
M 581.2 466.575
Q 586.2642578125 466.9919921875 590.5 467.625
M 566.25 465.875
Q 563.3189453125 465.8103515625 560.2 465.8 533.338671875 465.7224609375 521.875 461.8 510.4177734375 457.8705078125 510.85 460 513.2701171875 460.6923828125 521.925 463.125 535.52734375 466.958203125 550.225 468.125 564.9166015625 469.2859375 575.575 469.6 586.2439453125 469.9046875 593.1 471.35 602.15 473.35 609 478.1 616.25 483.1560546875 619.45 492.45 615.7900390625 492.830859375 611.95 492.15
L 589.7 540.275
M 615.35 492
Q 614.4431640625 483.1091796875 571.2 476.25 532.3091796875 470.080859375 503.45 463.4 499.620703125 462.6087890625 496.45 461.85 494.565625 461.2998046875 493.775 461.2 492.98828125 461.1 492.475 461.575 491.9494140625 462.0474609375 491.6 463.25 491.258984375 464.4568359375 491.15 466.775 491.0396484375 469.025 491.05 470.05 492.292578125 469.87421875 495.25 470.35
L 609.5 491.6
Q 610.7099609375 491.9361328125 611.95 492.15
M 621.85 492.15
Q 623.6275390625 491.8984375 625.25 491.5 629.75 490.35 632.35 488.6 634.61171875 487.0107421875 635.75 485.075
M 503.45 463.4
Q 503.5908203125 462.4458984375 504.075 461.425 504.5498046875 460.4037109375 505.625 459.85 506.71171875 459.290234375 507.525 459.3 507.8181640625 459.3015625 510.85 460
M 491.05 470.05
Q 490.9435546875 470.0560546875 490.85 470.075
L 491.05 470.1 491.05 470.05 Z
M 491.05 470.1
Q 489.5220703125 470.5658203125 488.3 473 487.15 475.4 486.5 477.1
L 469.4 521.4 448.2 576.45
M 542.2 445.175
Q 537.1443359375 446.321484375 531.75 447.1 515.9 449.35 495.35 448.6 476.6 447.9 461.55 445.15 443.7 441.9 429.25 435.5 413.05 428.35 400.75 417.05 389.954296875 407.0751953125 382.25 394
M 511 608.5
Q 505.384375 627.343359375 500.3 647.6 519.069140625 650.5482421875 538.05 648.85 556.837890625 647.177734375 574.425 641.05 571.2181640625 623.910546875 569.25 613.1 567.8 605.15 567.7 600.65 567.6 593.65 570.1 588.75 573.1 583.05 580.2 579.05 584.9 576.4 593.75 573.5 602.6826171875 570.4822265625 608.55 568.8
M 606.725 560.25
L 606.75 560.25
M 582.25 541.1
L 607 491.7
M 389.125 452.625
Q 393.9076171875 457.4634765625 399.85 462 416 474.2 435.3 481.1 437.994921875 482.0541015625 440.7 482.9 457.4251953125 488.033203125 474.7 488.6 475.6375 483.0533203125 476.1 479.6 477.4 470 476.6 462.65 475.55 453.45 471.25 447
M 474.7 488.6
Q 474.1166015625 492.044921875 473.35 496.3 472.1529296875 504.201171875 470.375 514.525 470.257421875 515.2208984375 470.125 516.025 469.7919921875 518.271875 469.4 521.4
M 388.675 541.9
Q 400.75 542.1 407.45 542.15 417.9 542.15 426.25 543 430.35 543.45 432.75 544.15 436.25 545.2 438.35 547.1 437.44375 545.9146484375 436.5 544.6 435.8927734375 543.780859375 435.275 542.95 424.1427734375 527.70859375 413 508.6
M 438.35 547.1
Q 441.4751953125 551.1916015625 444.15 553.75 448.9 558.3 454 560
M 442.725 590.575
L 442.725 590.6
M 440.7 482.9
Q 454.3853515625 501.0650390625 470.125 516.025
M 623.1 663.1
Q 633.1 656.6 644.65 653.5 656.35 650.35 668.1 651.1
M 576.725 653.4
Q 575.5001953125 646.8638671875 574.425 641.05
M 498.25 655.85
Q 499.2583984375 651.698828125 500.3 647.6
M 357.225 586.725
L 353.7 598.2
M 453.05 384.55
Q 465.45 394.95 481.7 399.3 497.85 403.6 514 401.25
M 644.575 565.925
Q 649.54375 567.278125 653.25 569.875"/>
</defs>

<g transform="matrix( 1, 0, 0, 1, 0,0) ">
<use xlink:href="#Layer2_0_FILL"/>
</g>

<g transform="matrix( 1, 0, 0, 1, 0,0) ">
<use xlink:href="#Layer0_0_FILL"/>

<use xlink:href="#Layer0_0_1_STROKES"/>
</g>
</svg>
