
<svg xmlns="http://www.w3.org/2000/svg" version="1.1" xmlns:xlink="http://www.w3.org/1999/xlink" preserveAspectRatio="none" x="0px" y="0px" width="1280px" height="720px" viewBox="0 0 1280 720">
<defs>
<g id="Layer1_0_FILL">
<path fill="#FFFFFF" stroke="none" d="
M 1280 720
L 1280 0 0 0 0 720 1280 720 Z"/>
</g>

<g id="Layer0_0_FILL">
<path fill="#000000" stroke="none" d="
M 846.9 291.1
Q 845.25 292.8 845.25 295.15 845.25 297.5 846.9 299.15 848.6 300.85 850.95 300.85 853.3 300.85 854.95 299.15 856.65 297.5 856.65 295.15 856.65 292.8 854.95 291.1 853.3 289.45 850.95 289.45 848.6 289.45 846.9 291.1
M 767.35 292.35
Q 767.35 294.9 769.1 296.65 770.9 298.45 773.45 298.45 776 298.45 777.75 296.65 779.55 294.9 779.55 292.35 779.55 289.8 777.75 288 776 286.25 773.45 286.25 770.9 286.25 769.1 288 767.35 289.8 767.35 292.35 Z"/>
</g>

<path id="Layer0_0_1_STROKES" stroke="#000000" stroke-width="1" stroke-linejoin="round" stroke-linecap="round" fill="none" d="
M 991.75 87
L 992.6 89.35
Q 1016.15 143.85 1020.85 204.05 1025.4677734375 263.8330078125 1010.8 320.8 1024.2759765625 319.0197265625 1036.3 323.525 1044.70078125 292.600390625 1048.9 270.65 1054.75 239.9 1055.35 213.75 1055.95 183.5 1049.45 156.65 1042.4 127.25 1027.35 104.25
L 1024.425 99.975
Q 1008.603515625 92.7080078125 991.75 87 989.8072265625 86.3375 987.85 85.7 922 64.25 854.95 71 810.05 75.45 775.75 94.5 736.25 116.4 722.45 152.15 713.95 174.4 715.4 204.25 716.3 223.25 722.95 257.75
L 724.1 264.45
Q 730.341796875 256.1337890625 740.65 251.2 751.75 245.9 764.25 246.1 776 246.4 787.8 251.35 798.8 256 808.5 264.1
L 809.95 265.1
Q 821.55 256.65 834.55 252.6 848.9 248.2 862.5 250 877 251.9 888.65 260.95 894.500390625 265.489453125 898.475 270.95 900.6388671875 271.2912109375 903.25 270.7 905.05 270.3 907.9 269.2 909.8 268.45 911.55 267.45 913.05 266.4 914.05 265.2
M 1024.425 99.975
Q 1036.668359375 105.606640625 1048.3 112.175 1063.74140625 103.9208984375 1082.3 104.15 1102.5 104.4 1118.85 114.6 1121.05 116.05 1122.05 117.1 1123.6 118.75 1123.85 120.5 1124.3 123 1122.2 125.35 1120.4 127.3 1117.5 128.6 1110.331640625 131.644140625 1102.25 130.775 1104.9072265625 132.726171875 1106.6 135.35 1108.75 138.65 1108.75 142.25 1108.75 146.05 1105.9 149 1104.5796875 150.3203125 1103.125 150.95 1103.517578125 151.5240234375 1103.9 152.1 1109.248828125 160.2138671875 1113.2 170.65 1116.85 180.4 1119.75 193.75 1132.5 251.1 1125.95 324.5 1123.3 353.85 1117.25 390.25 1113.58125 412.4072265625 1105.8 452.6 1105.606640625 458.682421875 1103.5 467.5 1100.05 482.05 1101.85 489.1 1104.15 497.9 1113.25 504.85 1119.3 509.5 1131.35 515 1145.55 521.45 1154.1 526.3 1166.2 533.15 1174.75 540.75 1184.8 549.6 1190.8 560.45 1197.35 572.2 1198 584.35 1198.55 596.6 1192.9 608.65 1187.45 620.15 1177.75 628.75 1168.6 636.85 1156.45 642.05 1147.058203125 646.0154296875 1136.375 648.025 1135.1849609375 648.2509765625 1133.975 648.45 1133.812890625 648.4740234375 1133.65 648.5 1133.2755859375 648.5666015625 1132.9 648.625 1132.496875 648.691015625 1132.1 648.75 1136.35 660.45 1137.5 669.25 1139.1 680.75 1136 689.9 1133.75 696.35 1128.6 703.05 1125.35 707.3 1118.5 714.5
L 1109.1 724.65
M 1087.35 125.1
Q 1091.95 126.2 1094.6 127.05 1098.45 128.35 1101.25 130.1 1101.764453125 130.4302734375 1102.25 130.775
M 1103.125 150.95
Q 1102.9501953125 151.028125 1102.775 151.1 1103.3375 151.5966796875 1103.9 152.1
M 1048.3 112.175
Q 1077.4912109375 128.679296875 1102.775 151.1
M 693.35 404.35
Q 693.914453125 405.803125 694.575 407.25 697.0537109375 412.721875 700.85 418.1 704.95 423.75 710.85 429.5 722.75 441 737.3 448.8 752.1 456.7 768.15 459.875 784.0634765625 464.3734375 800.075 466.2 816.0873046875 468.02734375 839.2 465.6 864.9623046875 463.4939453125 890.15 456.45 890.674609375 456.29921875 891.2 456.15 915.16015625 449.351171875 937.5 438.425 937.684375 438.3435546875 937.875 438.25
L 938.125 438.125
Q 939.266796875 437.495703125 940.4 436.85 940.9173828125 436.5515625 941.425 436.25 962.8501953125 423.63671875 977.85 404.05 987.7 408.9 999 409.4 1010.3 409.95 1020.75 406.05 1031.05 402.35 1039.65 394.95 1048.15 387.7 1053.75 378.05 1059.2 368.65 1060.4 358.85 1061.7 347.9 1057 339.55 1051.75 330.65 1040.5 325.3 1038.4283203125 324.3140625 1036.3 323.525 1035.9107421875 325.00078125 1035.5 326.5
M 1010.6 321.6
Q 1010.703125 321.202734375 1010.8 320.8 1008.867578125 321.0630859375 1006.9 321.45 988.85 324.95 977.25 337.7 946.5 295.75 930.55 245.2 914.673046875 195.137890625 915.475 143.5
L 915.45 141.35
Q 915.451171875 141.075 915.45 140.8
L 915.45 140.35 913.85 142
Q 862.95 206.1 796.85 254.6
M 739.25 222.85
Q 744.6 217.3 753.15 214.6 760.6 212.25 769.6 212.25
M 779.55 292.35
Q 779.55 294.9 777.75 296.65 776 298.45 773.45 298.45 770.9 298.45 769.1 296.65 767.35 294.9 767.35 292.35 767.35 289.8 769.1 288 770.9 286.25 773.45 286.25 776 286.25 777.75 288 779.55 289.8 779.55 292.35 Z
M 803.75 320.85
Q 800.3 314.45 799.15 306.85 798.1 299.65 799.25 292.1 801.35 278.4 809.95 265.1
M 724.1 264.45
Q 723.2671875 265.56640625 722.5 266.75 716.8 275.25 715.85 285.95 714.95 296.6 719.1 306 720.145703125 308.4103515625 721.475 310.625 725.36796875 317.120703125 731.7 322 740.15 328.55 750.35 330.25
M 720.85 268.5
Q 719.05 268.9 716 267.75 713.4 266.65 709.75 264.75 708.25 263.95 707.65 263.55 706.55 262.75 706 261.85
M 716.3 279.75
Q 714.15 279.8 711.5 279.15 710.1 278.8 706.9 277.75 705.9794921875 277.3861328125 703.65 276.6 701.3205078125 275.8138671875 700.1 274.6
M 721.475 310.625
Q 711.3447265625 325.258203125 706.6 332.7 698.35 345.5 694.1 355.95 688.85 369.2 688.6 382.05 688.3 396.3 694.575 407.25
M 897.5 365.2
Q 889.1 357.8 874.7 357.95 867.5 358 849.1 361.35 825.05 365.85 800.45 364.9 775.7 363.95 752.25 357.6 745.55 355.75 742.5 355.4 736.95 354.7 733 356.35 729.15 357.9 726.3 361.6 723.7 364.95 722.5 369.35 720.05 377.95 723.05 387.4 725.85 396.2 732.5 403.25 742.95 414.35 764.1 421.35 788.7 429.25 814.85 428.8 841.1 428.35 865.25 419.6 894.95 408.75 903.775 389.35
M 799.5 324.75
Q 792.35 320.75 784 319.15 775.85 317.55 767.6 318.5 762.4 319.15 758.6 321 754 323.3 752 327.1 750 331.05 751.05 335.8 752.05 340.35 755.35 343.85 760.55 349.35 771.35 351.85 784.4 354.65 792.5 350.35
M 798.5 323.85
Q 798.65 323.4 799.1 322.75
L 800.25 321.6
Q 801.5 320.75 801.75 320.6 802.484375 320.2521484375 802.9 320.225 802.942578125 320.292578125 802.975 320.35 803.090234375 320.519921875 803.2 320.675 811.64453125 332.4205078125 830.25 338.1 844.35 342.4 858.3 341.2 873.25 339.9 884.75 332.5 896.95 324.65 902.75 310.95 908.8 296.8 904.75 283.6 904.7361328125 283.554296875 904.725 283.5 902.63828125 276.718359375 898.475 270.95
M 743.775 374.1
Q 743.0830078125 374.0681640625 742.5 374.05 741.25 374.0158203125 740.5 374.05 738.75 374.1 737.5 374.85 734.1 376.9 734.1 384.1 734.1 386.05 734.25 386.95 734.5 388.5 735.25 389.5 736.3 390.55 738.85 391.5 745.15 393.5 750.85 394.35 754.2 394.85 755.85 394.25 758.5 393.2 759.6 389.75 760.25 387.15 760.25 383.75 760.45 380.45 759.35 379.1 758.45 378.1 756.35 377.35 750.80078125 375.561328125 743.775 374.1 Z
M 792.225 380.6
Q 791.465625 380.655078125 790.45 380.55 788.8 380.3 788 380.25 784.9 379.8 783.1 381.1 782.25 381.95 781.35 384.75 780.3 390.25 780.6 394.35 780.9 396.7 781.5 397.6 782.95 399.6 787.5 399.6 793.5 399.85 798 400.5 800.6 400.8 801.2 400.85 803.05 401 804.5 400.75 808.45 400 809.6 397.25 810.15 396.1 810.2 394.25 810.25 392.2 810.35 391.1 810.7 388.45 810.7 387.15 810.7 384.85 809.5 383.75 808.3 382.7 805.75 382.5 798.621484375 381.4544921875 792.825 380.675 792.5234375 380.6396484375 792.225 380.6 Z
M 904.725 283.5
Q 913.85 283.9 921.65 279.1
M 858.25 218.35
Q 864.5 217.5 869.5 218.75 875.45 220.45 881.15 225.65 884.9 229.05 890.5 236.1
M 856.65 295.15
Q 856.65 297.5 854.95 299.15 853.3 300.85 850.95 300.85 848.6 300.85 846.9 299.15 845.25 297.5 845.25 295.15 845.25 292.8 846.9 291.1 848.6 289.45 850.95 289.45 853.3 289.45 854.95 291.1 856.65 292.8 856.65 295.15 Z
M 842.25 379.35
Q 840.3 379.55 838.65 381.1 837.2 382.55 836.5 384.6 836 386.35 836 388.65 836 390 836.25 392.75 836.5 394.8 836.8 395.7 837.25 397.25 838.25 398.1 839.95 399.4 843.75 399.1 847.35 398.85 854.6 398.5 856.95 398.3 857.65 398.25 859.4 398.05 860.6 397.6 862.8 397.05 864.1 395.5 865 394.4 865.75 392.1 866.95 387.35 865.6 382.75 864.9 380.7 863.85 380 862.95 379.4 861.25 379.1 851 377.9 841.5 379.75
M 913.5 347.35
Q 904.95 352.5 900.75 359.25 898.5 362.7 897.5 366.2 896.45 369.9 896.75 373.75 897.45 380.25 902.1 386.35 906.45 391.95 912.8 395.3 919.25 398.75 926.25 399.1
M 968.7 370.7
Q 968.7 380.35 960.45 387.15 952.25 394 940.65 394 929.05 394 920.8 387.15 912.6 380.35 912.6 370.7 912.60390625 361.04921875 920.95 353.55 929.28828125 346.0517578125 940.85 346.25 952.41171875 346.448046875 960.55 353.75 968.69609375 361.0505859375 968.7 370.7 Z
M 941.35 459.5
Q 935.153125 463.7169921875 928.65 467.4
L 929.6 468.35
Q 934.2 473.5 934.35 481.75 934.65 487.55 932.1 496 928.4111328125 508.76171875 921.8 520.525 926.3271484375 517.70859375 930.7 514.6 946.3416015625 503.4951171875 957.675 488.925 963.0765625 481.9828125 967.5 474.25 976.55 458.45 971.65 448.5 968.35 441.95 959.6 438.9 953.4828125 436.7638671875 943.6 436.2 943.43671875 436.1837890625 943.275 436.175
L 941.425 436.25
M 839.2 465.6
L 839.2 491.425
Q 846.51328125 491.534375 854.6 490.75 877.85 488.5 899.9 480.55 914.953515625 475.1591796875 928.65 467.4
M 957.675 488.925
L 957.75 494.85
Q 957.5 512.75 966.35 533.35 972 546.5 985.75 569
L 1033.35 647.35
Q 1040.55 659.15 1043.55 665.7 1048.35 676.2 1049.1 685.5 1049.95 695.9 1045.8 705.95 1041.6 716 1033.6 722.75
M 890.15 456.45
L 890.15 482.95
M 875.45 488
L 876.05 489.2
Q 880.25 497.55 879.45 507.05 879.2 510.05 878.3 513.65 877.85 515.6 876.55 520.2 874.85078125 525.9974609375 869.7 541.925 874.7287109375 540.9828125 879.8 539.45 902.3091796875 532.641796875 921.8 520.525
M 768.15 459.875
Q 762 463.5 759.75 471.25 757.5953125 478.55 759.125 486.225 760.6619140625 493.9005859375 764.975 499.875 768.749609375 505.09921875 780.75 515 782.4720703125 516.396875 784.35 517.9 799.3990234375 529.9634765625 825.725 538.9 847.2427734375 546.202734375 869.7 541.925
M 793.1 557.1
Q 792.7060546875 567.191796875 792.15 575.875 794.6416015625 576.9751953125 796.55 579.15 798.65 581.6 799.4 584.6 799.7 586.05 800.2 589.15 800.8 591.75 802.4 592.85 803.75 593.75 807.15 593.75
L 815.5 593.75
Q 818.25 593.75 819.5 594.25 820.5 594.75 821.05 595.65 821.65 596.65 821.4 597.6 821.3869140625 597.65703125 821.375 597.725 833.25 593.7 848.35 591.7 859.1 590.3 876.1 589.5 891.55 588.7 905.5 588.35
L 908.875 588.4
Q 909.3912109375 576.5919921875 909.475 564.75
L 907.35 564.75
Q 880.4 566.25 854.05 573.35 827.75 580.4 803.6 592.6
M 909.5 558.35
Q 909.50859375 561.5509765625 909.475 564.75
M 839.2 491.425
Q 817.0013671875 491.042578125 801.925 482.325 799.294921875 483.67578125 797.55 486.65 795.45 490.1 795.35 494.25 795.3 497.8 796.55 502 797.4 504.95 799.35 509.35 805.05 521.85 811.35 532.85
M 795.5 478
Q 798.53046875 480.3794921875 801.925 482.325
M 907.35 722.1
Q 902.55 717.3 899.95 710.2 897.65 703.95 897.25 696.35 897 690.15 898 682.3 898.55 678 900.25 668.35 902.3427734375 656.183203125 903.95 643.975
L 900.5 642.35
Q 858.1595703125 624.1755859375 811.875 620.1 812.01484375 620.35390625 812.15 620.6 813.3 623.25 812.9 624.75 812.35 626.55 809.9 627.25 804.85 628.8 798.25 623 794.95 620.1 793.15 618.8 790.15 616.6 787.4 616.1
M 903.95 643.975
Q 905.781640625 630.237890625 907 616.45
L 901.5 614.75
Q 857.67734375 603.3572265625 811.4 605.25
L 809.75 606.35
Q 808.25 607.45 807.75 608 806.7 609.1 806.65 610.25 806.5 611.25 807.05 612.35 807.25 612.8 808.25 614.25 810.06484375 616.855859375 811.875 620.1
M 792.15 575.875
Q 790.8453125 595.8095703125 788.65 608.25 783.8 636.3 771.75 655.6 762.9 668.2 759.25 674.8 752.85 686.15 753.75 695.6 754.35 702.5 758.7 709.5 762.15 715 768.35 721.1
M 780.75 515
Q 768.3236328125 564.4154296875 742.6 608 731.95 625.15 727.15 633.9 718.95 649 716.1 661.5 712.55 677.05 717.1 691.6 718.2650390625 695.344921875 719.85 698.6 724.972265625 709.014453125 734.5 714.35
M 719.85 698.6
Q 716.6 704.35 714.85 707.15 712 711.8 709.25 715.25 707.271484375 717.7474609375 705.025 719.95 704.7140625 720.252734375 704.4 720.55
M 821.375 597.725
Q 821.014453125 598.9525390625 819.15 600.1
L 811.4 605.25
M 908.875 588.4
Q 908.251953125 602.4482421875 907 616.45
M 1129.4 647.05
Q 1125.35 643.8 1123.25 642.2 1118.35 638.5 1112.35 636.35 1106.5 634.25 1100.25 633.85 1097.45 633.55 1096 634.45 1094.5 635.45 1094.25 637.55 1094 639.55 1095 641.2 1096.7 643.85 1101 645.45 1108.1 648.25 1117.4 648.8 1123 649.1 1131.8 648.6 1130.6 647.95 1129.4 647.05 Z"/>
</defs>

<g transform="matrix( 1, 0, 0, 1, 0,0) ">
<use xlink:href="#Layer1_0_FILL"/>
</g>

<g transform="matrix( 1, 0, 0, 1, 0,0) ">
<use xlink:href="#Layer0_0_FILL"/>

<use xlink:href="#Layer0_0_1_STROKES"/>
</g>
</svg>
