
<svg xmlns="http://www.w3.org/2000/svg" version="1.1" xmlns:xlink="http://www.w3.org/1999/xlink" preserveAspectRatio="none" x="0px" y="0px" width="1280px" height="720px" viewBox="0 0 1280 720">
<defs>
<g id="Layer2_0_FILL">
<path fill="#FFFFFF" stroke="none" d="
M 1280 720
L 1280 0 0 0 0 720 1280 720 Z"/>
</g>

<g id="Layer0_0_FILL">
<path fill="#000000" stroke="none" d="
M 616.7 228.6
Q 618.45 227.05 618.45 224.85 618.45 222.65 616.7 221.05 614.95 219.5 612.5 219.5 610.05 219.5 608.3 221.05 606.55 222.65 606.55 224.85 606.55 227.05 608.3 228.6 610.05 230.2 612.5 230.2 614.95 230.2 616.7 228.6
M 693.5 221
Q 695 219.5 695 217.35 695 215.2 693.5 213.7 692 212.2 689.85 212.2 687.7 212.2 686.2 213.7 684.7 215.2 684.7 217.35 684.7 219.5 686.2 221 687.7 222.5 689.85 222.5 692 222.5 693.5 221 Z"/>
</g>

<path id="Layer0_0_1_STROKES" stroke="#000000" stroke-width="1" stroke-linejoin="round" stroke-linecap="round" fill="none" d="
M 708.85 191.35
Q 718.15 171.9 717.4 148.05 716.65 126 707.6 104.25 700.35 87.15 690.75 78 684.65 72.15 675.9 67.7 668.7 64.05 659 61 635.2 53.5 610 52.75 586.35 52.15 559.3 57.85 537.6 62.5 510.1 72.1 507.1919921875 73.1220703125 504.475 74.125 482.5490234375 124.7375 480.95 180.5 479.30078125 236.221875 498.875 289.9 499.240625 289.944140625 499.6 290 506.5 291 512.55 294.7 516.4947265625 297.1052734375 519.525 300.3 532.4625 292.485546875 543.2 281.65 554.021484375 270.730078125 561.65 260.2 558.7494140625 255.347265625 557.175 249.95 555.25 243.4455078125 555.25 236.15 555.25 226.51171875 558.6 218.25 547.05 218 538.25 212.25
M 658.5 145
Q 662.25 143.75 664.15 143.3 667.3 142.55 669.85 142.6 675.75 142.8 681.1 146.75 685.3 149.65 689.6 155.25
M 699.75 185.75
Q 699.85 160.25 687.3 136.95 674.8 113.7 653.5 99.6 641.9 148 613.5 189.65 626.48203125 192.48203125 636.5 202.5 640.7884765625 206.7884765625 643.75 211.625 646.9177734375 203.6154296875 653.05 196.95 665.75 183.25 683.7 183.25 701.65 183.25 714.3 196.95 716.71171875 199.5611328125 718.675 202.375 721.3 201.7 723.45 199.9 725.45 198.2 726.75 195.75 727.95 193.65 728.65 190.75 729.15 188.8 729.6 185.5
M 739.85 194
Q 735.95 201.3 732.35 204.35 728.25 207.9 722.575 209.175 727 218.67265625 727 230.15 727 246.872265625 717.625 259.35 732.5818359375 271.8689453125 741.05 290.25 749.5 308.65 749.25 328.25 749.05 347.95 740.1 366.1 731.1 384.25 715.6 396.35 713.10625 398.3181640625 710.45 400.125 722.1310546875 412.9076171875 729.6 437.55 731.8 444.7 735.75 459.4 739.4552734375 472.555859375 744.075 480.9 748.6837890625 489.2322265625 753.375 493.125 758.066015625 497.017578125 765.825 494.2 773.59453125 491.3939453125 780 484.85 792.542578125 472.1615234375 800.225 453.225 800.475390625 452.7033203125 800.725 452.175 801.06328125 451.4265625 801.375 450.675 801.4306640625 450.5404296875 801.475 450.4 805.480859375 440.5939453125 805.125 429.75 804.596875 413.45625 800.75 398.1 799.55 393.25 799.4 391.8 798.9 388.15 800 385.6 801.9 381.2 807.35 380.1 812.6 379.05 816.85 381.75 820.7 384.2 823.15 389 825.25 393.1 826.1 398.35 826.5 400.95 827.05 408.15 827.45 414.35 828.25 417.85 829 422.6 831.85 423.25 833.35 423.6 835 422.45 836.15 421.7 837.6 420 858.25 395.9 862.35 391 866.2 386.6 869 384.6 873.25 381.65 877.25 382.25 883.1 382.95 885.2 389.8 887.25 396.3 884.35 402.1 882.1013671875 406.498828125 875.1 414.125 868.094921875 421.7529296875 865.85 424.225 863.60625 426.6978515625 864.075 428.75 864.5390625 430.772265625 868.25 430.55 887.6 427.9 907.75 428.5 914.25 428.75 918.7 430.65 924.35 433.15 925.1 438 925.65 441.1 923.7 444.2 921.95 447.05 918.85 448.75 916.3 450.15 912.6 450.85 910.35 451.25 906 451.6 892.5 452.75 885.75 453.35 881.15 453.65 879.1 455 877.55 456 876.85 457.6 876.15 459.35 876.85 460.85 877.5 462.25 879.35 463.05 880.3 463.45 882.75 464 894.35 466.55 903.5 472.75 907.15 475.2 909.1 477.9 911.6 481.35 911.1 484.75 910.65 488.25 907.15 490.55 903.8 492.7 899.85 492.6 896.7 492.55 892.7 491 891.15 490.4 885.85 487.85 878 484.2 871.6 482.8 863.65 481.05 857 482.6 856.904296875 482.622265625 856.8 482.65 866.884375 501.7310546875 870.2 514.4 875.05 533.1 868.75 547 864.3 556.6 853.9 564.85 847.25 570.15 833.75 577.75 810.2 590.9 796.7 595.9 784.2861328125 600.5298828125 772.975 601.85 771.2091796875 607.836328125 767.7 613.1 763.75 619 758.25 623.1 752.85 627.3 746.15 629.55 740.05859375 631.5046875 733.75 631.6
L 733.725 631.6
Q 729.3078125 643.971484375 721.3 654.6 713.05 665.6 702 673.25 690.8 680.95 677.7 684.9 664.55 688.9 650.95 688.675 654.0126953125 695.4232421875 656.8 700 662.55 709.35 669.75 714.6 666.8529296875 718.126953125 662.9 720.325
M 695 217.35
Q 695 219.5 693.5 221 692 222.5 689.85 222.5 687.7 222.5 686.2 221 684.7 219.5 684.7 217.35 684.7 215.2 686.2 213.7 687.7 212.2 689.85 212.2 692 212.2 693.5 213.7 695 215.2 695 217.35 Z
M 718.675 202.375
Q 720.9359375 205.6388671875 722.575 209.175
M 643.75 211.625
Q 650.45 222.5060546875 650.45 236.15 650.45 246.2642578125 646.775 254.875 648.998828125 258.6751953125 652 262.125 654.130859375 260.0146484375 656.8 258.45 662.95 254.85 669.1 256.1 674 257.1 677.85 260.75 681 263.6 682.5 267.4 684.15 271.45 683.25 275.25 683.0380859375 276.163671875 682.675 277.05 683.1908203125 277.05 683.7 277.05 701.65 277.05 714.3 263.3 716.0810546875 261.3787109375 717.625 259.35
M 682.675 277.05
Q 681.7083984375 279.46796875 679.65 281.6 677.15 284.15 673.5 286 668.5 288.3 662.85 288.6 657.15 288.9 652 287.1
M 738.75 297.75
Q 738.75 304.8 734.15 309.75 729.6 314.75 723.1 314.75 716.6 314.75 712 309.75 707.45 304.8 707.45 297.75 707.45 290.7 712 285.7 716.6 280.75 723.1 280.75 729.6 280.75 734.15 285.7 738.75 290.7 738.75 297.75 Z
M 697.75 282.5
Q 692.75 289.75 691 296.85 690.5384765625 298.7578125 690.3 300.675 689.426953125 308.0783203125 692.05 315.55 693.514453125 319.721484375 695.8 323.175 698.6783203125 327.523828125 702.85 330.75
M 650.75 235.6
Q 688.6 233.2 725.35 241.85
M 646.25 311.6
Q 646.2169921875 312.2630859375 646.05 313.1 645.887109375 313.9400390625 645.825 315.725 645.7541015625 317.503125 646.85 318.6 647.7 319.25 649.35 319.25 655.55 319.35 658.1 319.15 663.05 318.7 666.5 317 669.35 315.65 670.35 313.35 670.75 312.45 670.9 310.95 671 309.25 671.1 308.35
M 636.35 311.35
Q 635.1 313.75 634 316.35 633.15 317.85 633 318.1 632.3 319.05 631.5 319.35 630.35 320 627.75 319.5 619.15 317.75 609.85 314.6 607.75 313.85 607.35 312.85 606.9 312.1 607.25 310.75 607.7 307 608.525 304.45 602.3056640625 301.9806640625 596.425 298.625 596.8556640625 300.50859375 597.1 302.45 597.95 309.6 596.1 316.35 595.864453125 317.272265625 595.575 318.175 601.70859375 322.80625 610.15 325.8 617.15 328.3 626.5 329.85 636.45 331.5 644.15 331.4 653.8 331.3 661.5 328.6 670.25 325.7 676.5 319.25 683.15 312.45 684.5 303.35 664.4857421875 311.81015625 642.3 311.2 624.32578125 310.7056640625 608.525 304.45
M 684.5 303.35
Q 687.4220703125 302.1060546875 690.3 300.675
M 657.5 363.6
Q 652.65 357.5 646 353.3 639.3 349.05 631.75 347.5 624.15 345.8 616.3 346.9 608.45 347.9 601.425 351.575 608.7767578125 359.5009765625 618.6 363.75 629.3 368.35 641.3 367.7 653.3 367.1 663.5 361.35 673.6 355.7 682.25 344.75 688.9287109375 336.3267578125 695.8 323.175
M 837 433.1
Q 841.3 432.75 845.35 435.15 849.35 437.6 851.1 441.6 852.55 445.2 852.1 449.4 851.65 453.4 849.6 457 846.1 463.2 838.35 468.1
M 856.8 482.65
Q 851.0263671875 484.03984375 845.9 487.95 854 501.9 857.1 509.95 862.05 522.65 861.1 533.5 860.55 538.85 858 540.25 856.55 541.1 854.6 540.95 853.25 540.8 851.1 540.1 836.86796875 534.8919921875 825.225 518.075 823.89140625 516.162109375 822.6 514.1 813.5 499.75 808.1 483.5 802.7021484375 467.3556640625 801.375 450.675
M 845.9 487.95
Q 841.7921875 491.0748046875 838.1 495.8 832.4 503.05 825.225 518.075
M 642.6 427.35
Q 634.679296875 430.6193359375 626.45 432.2 631.15 435.1 633.95 440.1 636.6 444.8 637 450.35 637.65 459.4 632 471 630.45 474.25 626.95 480.5 623.6166015625 486.452734375 622 489.675 625.8400390625 488.612890625 629.6 487.1 650.85 478.6 664.15 458.3 677.4 438 676.725 415.025 666.64453125 417.679296875 655.25 419 634.3916015625 421.356640625 614.5 418.5
L 614.5 433.6
Q 620.5515625 433.331640625 626.45 432.2
M 710.45 400.125
Q 695.9666015625 409.9869140625 676.725 415.025
M 687.85 477
Q 677.821875 490.8330078125 672.275 507 678.6 527.05 684.7 540.7 691.95 556.9 701.6 569 712.3 582.6 726.2 591.15 741.15 600.35 757.1 602 764.7458984375 602.800390625 772.975 601.85
M 512.35 506.75
Q 512.2 522.75 501.75 541.05 497.9 547.75 491.55 556.75 487.9 561.9 480.6 572 476.454296875 577.9130859375 473.175 583.575 466.4974609375 595.0203125 463.35 605.4 457.35 625.2 464.35 640.5 467.2994140625 646.9033203125 472.8 652.8 474.3982421875 654.4935546875 476.2 656.15 482.45 661.85 492.5 668 514.55 681.4 538.15 688.75 563 696.55 587.5 697 605.45 697.4 621.3 693.5 636.29453125 689.8583984375 648.325 682.625 650.3244140625 681.4099609375 652.25 680.1 666.65 670.15 675 655.1 683.75 639.25 682.75 622.75 682.2 613.4 677.75 600.2 672.4 585.5 670.25 578 662.85 552.5 667.55 525.5 669.23671875 515.89453125 672.275 507
M 733.75 631.6
Q 729.5728515625 621.921875 724.85 616.1 717.9 608.55 709.5 607.85 706.55 607.45 704.5 608.6 702.6 609.7 701.75 612.05 701 614.25 701.5 616.5 702.4 621.65 707.25 625.25 710.75 627.8 716.85 629.35 724.3908203125 631.1046875 733.725 631.6
M 648.325 682.625
Q 649.6599609375 685.8390625 650.95 688.675
M 504.475 74.125
Q 494.2771484375 77.8455078125 486.7 81.2 477.0501953125 85.5017578125 469.175 90.275 449.813671875 137.8416015625 452.8 190.75 455.8 243.95 481.55 291.625 483.65546875 290.9271484375 485.85 290.45 492.4771484375 289.0298828125 498.875 289.9
M 567.35 163
Q 575 154.15 586.35 150.05 597.75 145.9 609.25 147.85
M 558.6 218.25
Q 562.0751953125 209.6248046875 569.2 202.5 583.15 188.55 602.85 188.55 608.402734375 188.55 613.5 189.65
M 469.175 90.275
Q 466.88671875 91.671875 464.75 93.1 462.0578125 94.9107421875 459.475 96.875 445.8908203125 107.1482421875 435.1 121.55 430.4384765625 127.7841796875 426.5 134.5 420.0712890625 145.5228515625 415.6 157.85 408.7 176.7 406.65 198 404.7 217.95 407.1 239.25 407.95 246.85 409.85 257.9 410.9 264.1 413 276.5 414 282.75 415.85 295.2 417.55 306.35 419 313.75 420.45 321.05 424.45 338.1 428.1 353.8 429.7 362.5 434.85 390.85 430.05 412.85 432.4544921875 416.552734375 435.85 417.4 435.98828125 417.4212890625 436.125 417.45 442.087109375 418.6587890625 447.8 412.825 453.65 406.850390625 458.65 402.1 463.05 398.15 466.75 396.1 473.55 392.3 478.75 394.5 483.75 396.65 484.25 403.15 484.75 409.25 481.35 414.35 479.3 417.55 473.85 422.95 468.4 428.3 466.35 431.5 462.45 437.75 461.8 447.05 461.36796875 452.713671875 462.275 462.975 462.3099609375 463.41328125 462.35 463.85
L 469.1 536.1
M 459.475 96.875
Q 439.7 88.95 412.1 98.85 408.4 100.15 406.2 101.6 403.2 103.55 402 106.25 401.2 108.1 401.55 110.15 401.95 112.3 403.5 113.5 404.4 114.15 405.75 114.45 406.45 114.6 408.25 114.75 414.409375 114.8662109375 419.95 113.15 421.5458984375 112.653125 423.1 112
M 419.95 113.15
Q 417.4 114.8 416.35 115.5 414.35 116.85 413.1 118.25 411.35 120.2 410.55 122.85 409.75 125.5 410.1 128.1 410.55 130.7 411.85 132.35 413.8 134.5 417.85 135 422.3234375 135.59921875 426.5 134.5
M 482.75 397.1
Q 495.5 386.35 509.75 381.25 516.55 378.75 522.45 378.45 529.5 378.1 534.6 381 541.2 384.65 545.5 394.1 548.5126953125 401.208203125 549.525 410.125 551.0787109375 411.5890625 552.7 412.975
L 552.675 394.875
Q 535.723046875 383.1177734375 524.175 366.475 514.1734375 370.183984375 503.3 369.2 492.2 368.2 483 362.6 474.35 357.45 467.85 348.85 460.55 339.3 458.5 328.35 456.25 316.25 461.6 307 465.6 300.2 473 295.6 477.0576171875 293.1109375 481.55 291.625
M 430.05 412.85
Q 428.25 410.05 426.75 405.25 421.15 388.6 417.5 377.1 415.75 372.15 414.85 370.25 413.2 366.5 411.1 364 408.55 361.1 405.05 359.85 401.3 358.45 398 359.6 394.85 360.65 392.8 363.8 390.9 366.65 390.5 370.25 390.15 373.35 390.75 377.1 391.15 379.5 392.25 383.75 395 394.75 398.35 408.75 398.65 410.15 398.7 410.45 398.85 411.45 398.5 412.1 398.1 413 397.2 413.35 396.25 413.75 395.5 413.35 386.1 409.203515625 375.9 407.05 365.7 404.8892578125 357.825 405.85 349.95 406.810546875 347.2 408.55 344.45 410.2962890625 342.95 412.05 341.3 413.95 340.85 416.1 340.3 419.05 341.95 422.1 343.45 424.85 346.25 426.75 348.4 428.25 351.8 429.45 353.8 430.15 357.85 431.35 367.7 434.05 377.85 438.75 380.95 440.3 382.1 441.6 383 442.7 383.25 443.95 383.5 445.25 382.5 446.35 379.1 448.2 373.3 450.25 366.9 452.5 364.35 453.75 359.6 456 356.45 459.3 352.8 463.1 352.1 467.5 351.65 470.85 353 472.85 354.45 475.15 359 476.35 368.2580078125 478.690625 379.35 477.225 384.128125 476.590625 389.25 475.25 392.55 474.35 394.5 474.3 397.5 474.25 399.25 475.75 400.6 476.8 401.2 479 401.6 480.35 401.85 483 402.1998046875 487.546875 404.15 504.625 414.155078125 500.6375 430.425 491.6 446.6833984375 482.5615234375 462.275 462.975
M 618.45 224.85
Q 618.45 227.05 616.7 228.6 614.95 230.2 612.5 230.2 610.05 230.2 608.3 228.6 606.55 227.05 606.55 224.85 606.55 222.65 608.3 221.05 610.05 219.5 612.5 219.5 614.95 219.5 616.7 221.05 618.45 222.65 618.45 224.85 Z
M 646.775 254.875
Q 643.287890625 263.012109375 636.5 269.8 622.55 283.75 602.85 283.75 583.15 283.75 569.2 269.8 564.6982421875 265.2982421875 561.65 260.2
M 551.5 195.25
Q 551.3 198.3 554.6 202.1 558.35 206.4 563.1 208.6
M 581.3 306.7
Q 581.3 315.45 575.1 321.6 568.95 327.8 560.2 327.8 551.45 327.8 545.25 321.6 539.1 315.45 539.1 306.7 539.1 297.95 545.25 291.75 551.45 285.6 560.2 285.6 568.95 285.6 575.1 291.75 581.3 297.95 581.3 306.7 Z
M 519.525 300.3
Q 521.2015625 302.0740234375 522.6 304.1
M 601.425 351.575
Q 600.7224609375 350.8302734375 600.05 350.05 592.1546875 340.95546875 589.25 329.775 585.0546875 334.8998046875 579.35 338.1
M 595.575 318.175
Q 593.7509765625 323.9740234375 589.9 328.95 589.5814453125 329.3626953125 589.25 329.775
M 592.75 289.1
Q 595.26328125 293.6166015625 596.425 298.625
M 571.1 425.35
Q 565.35 430.2 562.55 438.15 559.95 445.4 560.25 453.75 560.5 460.7 562.75 469.1 564.19453125 474.4798828125 567.575 484.025 575.5904296875 487.9654296875 584.75 490.1 604.17421875 494.66796875 622 489.675
M 552.7 412.975
Q 569.604296875 427.393359375 592.8 431.9 603.8994140625 434.0734375 614.5 433.6
M 614.5 418.5
Q 597.6794921875 416.0630859375 581.55 409.9 565.5521484375 403.7962890625 552.675 394.875
M 549.525 410.125
Q 549.5943359375 410.68828125 549.65 411.25 550.4 418.9 549.85 429.1 548.971875 448.47578125 545.175 467.175 554.9578125 477.8337890625 567.575 484.025
M 545.175 467.175
Q 542.4962890625 480.434375 538.35 493.35
M 592.35 516.35
Q 585.9 516.35 583.6 519.25 582.25 521 582.25 525.25 580.8 554.15 580.1 569.75 579.9 573.7 581.25 575.5 583.1 577.7 589.9 576.75 596.35 575.9 597.75 578.6 598.25 579.7 598.15 581.15 598.1 581.9 597.75 583.75
L 587.25 634
Q 613.871484375 604.3091796875 640.25 570.75 644.08203125 565.5861328125 642.225 563.35 640.36796875 561.1138671875 636.2 561.65
L 626.3 562.65
Q 622.595703125 562.9939453125 621.725 561.55 620.8625 560.11796875 622.25 556 628.85 539.85 637.75 526.1 639.2 523.7037109375 639.85 522.25 640.4984375 520.787109375 640.4 519.225 640.3029296875 517.665234375 638.675 516.375 637.046875 515.091796875 636 515.15 634.9443359375 515.1919921875 634.85 515.25
L 592.35 516.35 Z
M 428.6 455.85
Q 427.25 452.45 426.3 450.85 424.75 448.15 422.75 446.75 420.55 445 416 444.1 410.15 443 404.8 444.15 398.85 445.35 395.1 449.1
M 379.35 477.225
Q 367.5 483.5 359.9 493.75 352.75 503.45 350.1 515.6 346.505078125 531.701953125 350.9 550.2 352.37734375 556.3849609375 354.75 562.85 363.35 587.3 379.75 601.25 388.9 609.05 399.75 612.75 411.3 616.65 422.5 615.1 437.45 613.2 453.6 600.7 459.1453125 596.40390625 465.175 591.15 471.2134765625 585.88828125 473.175 583.575
M 399.25 475.75
Q 385.05 484.65 372.1 497.35 368.4 501.05 367.35 504.1 366.65 506.3 367.05 508.35 367.5 510.55 369.1 511.75 371.5 513.55 376.75 512.5 390.848046875 509.9314453125 404.15 504.625
M 350.9 550.2
Q 338.8 574.35 336.75 590.75 335.45 600.95 336.85 610.35 338.3 620.55 342.75 628.85 349.75 641.75 363 650.35 374.3 657.85 387.95 660.65 401.49140625 663.437890625 414.725 661.025 414.8873046875 660.8357421875 415.025 660.825 414.8919921875 661.21640625 414.75 661.625 414.766015625 661.854296875 414.775 662.075 415.3482421875 668.2025390625 419.4 674.05 423.2 679.55 429.5 684.1 437.9 690.2 448.15 693.2 458.2791015625 696.19375 471.5 696.15 474.035546875 674.656640625 472.8 652.8
M 429.35 655.75
Q 436.2 651.65 441.2 645.25 443.4 642.45 443.8 640.5 444 638.95 443.55 637.7 443.1 636.25 441.95 635.6 440.35 634.75 438.3 635 433.75 635.45 429.45 638.25 425.5 640.8 422.45 644.85 419.8 648.35 417.6 652.2 415.4 656 414.75 660.85 422.3 659.95 429.35 655.75 Z
M 414.725 661.025
Q 414.7373046875 661.3232421875 414.75 661.625
M 471.5 696.15
Q 471.0544921875 699.8806640625 470.5 703.6 469.95 706.8 470.75 708.35 471.65 709.95 474.85 711.25 479.19296875 712.9810546875 486.15 715.85 490.65546875 717.6837890625 496.25 720
M 486.15 715.85
L 486.15 720.45
M 647.75 267.85
Q 649.504296875 264.6111328125 652 262.125
M 557.175 249.95
Q 602.1865234375 237.04765625 649.75 235.75"/>
</defs>

<g transform="matrix( 1, 0, 0, 1, 0,0) ">
<use xlink:href="#Layer2_0_FILL"/>
</g>

<g transform="matrix( 1, 0, 0, 1, 0,0) ">
<use xlink:href="#Layer0_0_FILL"/>

<use xlink:href="#Layer0_0_1_STROKES"/>
</g>
</svg>
