
<svg xmlns="http://www.w3.org/2000/svg" version="1.1" xmlns:xlink="http://www.w3.org/1999/xlink" preserveAspectRatio="none" x="0px" y="0px" width="1280px" height="720px" viewBox="0 0 1280 720">
<defs>
<g id="Layer1_0_FILL">
<path fill="#FFFFFF" stroke="none" d="
M 1280 720
L 1280 0 0 0 0 720 1280 720 Z"/>
</g>

<g id="Layer0_0_FILL">
<path fill="#000000" stroke="none" d="
M 582.8 144.6
Q 581.55 145.75 581.55 147.3 581.55 148.85 582.8 149.95 584.05 151.1 585.8 151.1 587.55 151.1 588.8 149.95 590.05 148.85 590.05 147.3 590.05 145.75 588.8 144.6 587.55 143.5 585.8 143.5 584.05 143.5 582.8 144.6
M 613.35 143.9
Q 612.15 144.95 612.15 146.45 612.15 147.95 613.35 149 614.6 150.05 616.35 150.05 618.1 150.05 619.3 149 620.55 147.95 620.55 146.45 620.55 144.95 619.3 143.9 618.1 142.85 616.35 142.85 614.6 142.85 613.35 143.9 Z"/>
</g>

<path id="Layer0_0_1_STROKES" stroke="#000000" stroke-width="1" stroke-linejoin="round" stroke-linecap="round" fill="none" d="
M 981 344.1
Q 985.688671875 341.2900390625 989.575 338.3 997.98125 331.853125 1002.6 324.6 1006.7 318.15 1008 310.95 1009.4 303.25 1007.1 296.5 1006.05 293.4 1004.1 291.4 1001.8 289.1 999.1 289.25 997.25 289.3 995.4 290.65 994.25 291.5 992.35 293.5 980.3044921875 306.269921875 976.6 311.375 972.8927734375 316.4794921875 970.85 318.65 968.8095703125 320.830078125 963.6 325.2 960.2458984375 328.00703125 957.65 330.75 956.2072265625 332.2587890625 955 333.75 949.8 340.15 946.75 346.1 938.45 362.45 941.25 384.6 941.8712890625 389.5412109375 943.075 394.9 946.0294921875 408.071484375 952.5 423.75 961.9 446.1 974.35 468 977.45 473.45 981.2 476.3 985.9 479.85 990.25 478 990.9052734375 477.698828125 991.475 477.3 994.652734375 475.0962890625 994.95 470 995.25 465.1 993.1 459.25 984.9 437.5 973.85 419.1
M 989.575 338.3
L 989.6 340.85
Q 989.8 363.55 996 386.35 997.55 391.8 1006.35 417.3 1012.9 436.15 1014.85 448.6 1015.4 452.8 1014.5 454.75 1013.8 456.2 1012.3 456.85 1010.75 457.55 1009.35 456.85
L 1007.875 456.2
Q 1008.7890625 458.8490234375 1009.75 461.6 1011.7 466.95 1010.85 469.85 1010.25 472 1008.2 473.15 1006.1 474.35 1004.35 473.25
M 961.75 350.25
Q 965.35 350.15 968.55 352.7 971.5 355.05 973.1 358.75 974.4 361.85 974.65 366.05 974.85 368.8 974.6 373.6 973.5 390.8 969.25 401.6
M 616.75 175.5
L 618.1 175.5
Q 628.6 175.5 633.3 175.15 641.75 174.55 648.1 172.5 652.55 171.1 654.6 168.75 656.5 166.4 657.5 161.1 657.6416015625 160.2181640625 657.775 159.35 660.6728515625 140.0634765625 659.1 122.075 657.917578125 122.1419921875 656 122.25
L 539 123.35
Q 539.91640625 121.81875 544.1 114.6 548.099609375 114.5029296875 552.1 114.4
L 554.05 97.15
Q 550.7154296875 98.742578125 548.75 99.1 547.75 99.3 546.95 99.15 545.95 98.95 545.6 98.25 544.95 96.8 547.1 95 548.5 93.65 552.5 90.25
L 548.85 92.6
Q 546.5 93.9 543.5 93.75 542.5 93.75 542.1 93.35 541.25 92.95 541.25 91.85 541.25 91.1 541.75 90.1 543.25 87.6 547.75 86
L 543.5 87.25
Q 542.85 87.7 542 87.35 541.2 87 541 86.25 540.8 85.5 541.15 84.75 541.45 83.95 542.1 83.5 543.25 82.65 545.1 82.5 550.7478515625 81.239453125 555.775 80.925
L 558.1 59.025
Q 588.487890625 46.05859375 617.5 47.1 633.3 47.7 647.85 52.4 651.889453125 53.719921875 655.7 55.325 656.90703125 52.7650390625 659.05 50.6 663.95 45.75 670.85 45.75 677.75 45.75 682.6 50.6 687.5 55.5 687.5 62.4 687.5 69.3 682.6 74.15 681.7576171875 75.001171875 680.85 75.7
L 699.45 138.15
Q 700.028515625 137.9857421875 700.6 137.85 708.35 136.05 718 140.75 725.3 144.05 728.6 149 731.25 153.1 732.1 159.5 733.55 171.05 728.85 182.25 724.15 193.5 714.85 200.6 711.7 202.95 710.25 204.2 707.8 206.4 707 208.75 706.3 210.75 706.55 213.95 706.7 215.7 707 219.1 707.1 227.05 700 232.5 693 237.9 685.175 235.825
L 685.175 235.85
Q 684.3849609375 244.2498046875 676.85 251.35 674.88984375 253.31015625 672.925 254.625 672.7681640625 254.7412109375 672.6 254.85 664.346875 266.3396484375 657.35 282.6 652.95 292.7 646 312.85
M 648.5 90.25
Q 649.63046875 90.946875 650.475 91.7 650.632421875 91.83828125 650.775 91.975 652.434375 92.4423828125 653.85 92 655.35 91.7 655.85 90.6 656.3 89.3 655.5 88.1 655 87.5 653.5 86.5 652.932421875 86.2162109375 652.5 86.1 652.1400390625 86.146875 651.625 86.1 650.4890625 85.9681640625 648.6 85.35
M 555.775 80.925
Q 561.11328125 80.6029296875 565.75 81.35 571.1 82.25 575.55 84.65 580.4 87.3 583.35 91.25 584 92.15 584 92.5
L 584.05 93
Q 585.468359375 92.7833984375 589.275 94.125 593.0873046875 95.462109375 595.825 94.475 598.5607421875 93.485546875 601.475 90.6 604.396484375 87.7048828125 605.25 84 606.1 80.15 603.95 76.55 601.75 72.9 598 72.25 594.6 71.55 589.75 73.9 582.35 77.5 581.6 77.75 582.45 71.4 587.3 66.55 592.15 61.7 598.5 60.85 604.85 60.05 610.75 63.5 616.65 67 619.1 73 625.6 70.5 628.85 69.35 627 73.35 626.6 77.6
L 626.475 80.275
Q 628.3369140625 79.423046875 630.25 78.75 635.75 76.9 641.3 77 647.2 77.15 652.1 79.5 653.6 80.15 654.55 81.2 655.65 82.45 655.35 83.75 655.15 84.65 654.3 85.3 653.5 85.9 652.5 86.1
M 650.775 91.975
Q 651.687890625 92.8505859375 652.25 93.8 653.4134765625 95.75 653.2 96.7 652.9865234375 97.65 651.85 98.025 650.7044921875 98.4 649.25 98.1 648.15 97.75 646.85 96.85 645.35 95.75 644.6 95.25 639.2474609375 91.4197265625 632.825 90.625 629.6849609375 90.05546875 626.5 90.35
L 626.35 91.1
Q 626.2 96.6 627.1 100.5 625.6 101 623.05 98.45 620.5 95.9 619 96.5 618.35 96.7 617.8 97.5 617.2 98.5 616.85 99 614.55 102.9 609.35 104.8 605 106.35 599.35 106.35 592.895703125 106.349609375 589.85 104.825 586.8126953125 103.2978515625 584.975 100.975 583.1416015625 98.659375 582.675 96.6 582.241015625 94.71640625 582.75 94.1 582.65703125 94.1943359375 582.575 94.275 582.5306640625 94.3189453125 582.5 94.35 582.5365234375 94.2841796875 582.575 94.125 581.519921875 94.5712890625 580.45 94.425 580.2556640625 94.322265625 580.075 94.225 577.0533203125 92.64453125 575.35 92 572.3 90.85 569.75 90.85 565.6 90.85 559.2 94.45 556.308203125 96.087890625 554.05 97.15
M 680.85 75.7
Q 678.670703125 77.396484375 676.125 78.225
L 679.5 103.775
Q 680.35 104.25 682.25 104.25 682.8 104.2 683.9 104.1 684.9 103.95 685.5 103.75 687.25 103.3 688.25 102.1
M 655.7 55.325
Q 665.8734375 59.5783203125 674.5 65.825
L 676.125 78.225
M 679.5 103.775
L 685.225 147.275
Q 689.9 143.3 692.4 141.6 695.9998046875 139.2 699.45 138.15
M 552.1 114.4
Q 609.9625 113.1 668 113.1 668.9 115 667.9 117.3 666.9 119.45 664.85 120.6 663.15 121.6 660.6 121.95 660.1171875 121.9958984375 659.1 122.075
M 674.6 167
Q 674.25 168.15 674.65 171.4 674.698046875 171.841015625 674.725 172.25 674.73046875 172.5720703125 674.725 172.875 675.0166015625 174.1109375 675.85 175.5 676.8 177.4 678 178 678.55 178.25 679.25 178.25 679.95 178.25 680.5 178 681.85 177.35 682.25 176
L 683.025 173.9 682.1 147.9
Q 671.348828125 143.2314453125 660 139.65
M 657.775 159.35
Q 663.5 159.7 669 157.35
L 669.55 157.175
Q 671.0314453125 153.4556640625 671.1 153.25 671.8 150.55 672.2 149.2 672.9 146.85 673.85 145.35
M 669.55 157.175
Q 668.873828125 158.8654296875 667.9 161.3 665.95 166.05 665.85 169.5 665.85 173.65 668.1 175.6 669.4 176.75 671.2 176.75 673.1 176.8 674 175.5 674.6740234375 174.5419921875 674.725 172.875
M 722 167.85
Q 719.1 161.75 714.75 158.85 712.25 157.1 709.3 156.5 706.25 155.85 703.5 156.6 700.3 157.5 696.6 160.75 688.48125 167.42421875 683.15 177.425
L 683.2 179.2 684.45 178.275
Q 688.5091796875 176.066796875 690.75 175.6 692.7 175.15 694.6 175.55 696.6 176 697.85 177.25 699.9 179.1 700.1 182.85 700.25 187.2 697.6 192.15 696.4 194.3 692 200.5 689.75 203.6 688.9 204.6 686.95 206.75 685 207.75
M 683.025 173.9
L 683.15 177.425
M 653.35 170.6
Q 660.1 177.45 664.35 189.25 665.95 193.75 667.3 199.7 667.95 202.55 669.5 210.25
M 685.225 147.275
L 685.5 149.4
Q 683.8083984375 148.6330078125 682.1 147.9
M 706.85 211.35
L 749.85 211.75
Q 755.25 211.85 758 212.25 762.5 212.95 765.5 214.85 768.7 216.95 771.1 221 772.7 223.75 774.6 228.75 779.35 241.95 780.1 251.6
L 780.25 253.125
Q 854.8236328125 292.4919921875 934.35 322.1 945.007421875 326.059765625 955.75 329.85
L 957.65 330.75
M 755.25 233.25
Q 751.35 235.35 747.5 239.6 738.15 249.5 733.1 262.55 728.05 275.5 728.25 289.1
M 766.5 245.75
Q 773.351953125 249.4736328125 780.25 253.125
M 683.2 179.2
L 685.225 235.25
Q 685.2060546875 235.5390625 685.175 235.825
M 641.525 227.15
Q 643.921875 225.7205078125 646 224.1 652.15 219.2 655.5 212.5 659.05 205.35 658.25 198.1 657.35 190.45 651.4 185 645.25 179.45 638 180.35 635.8880859375 180.596484375 631.85 182.075
L 641.525 227.15
Q 637.6521484375 229.4748046875 632.95 231.3 627.06171875 233.55 619.075 235.35 620.7 241.25 619.6 246.75
M 672.6 254.85
Q 670.7978515625 256.00078125 669 256.6 664.05 258.5 659.425 256.925 656.5490234375 263.89765625 652.35 270.1 649 275.4 645.25 277.25 643.4 278.1 640.95 278.4 639.3 278.6 636.5 278.6 628.044921875 278.7375 620.75 278.8 618.11953125 285.841796875 614.175 289.475
L 662.525 327.975
Q 662.894921875 328.2298828125 663.2 328.475 664.58671875 329.5994140625 664.95 330.75
L 666.5 330.35
Q 676.85 327.4 682.35 324.45 690.65 320 693.75 313.25 695.35 309.75 695.8 304.9 696.1 301.8 696 296.1 695 256.1 694.6 235.85
M 659.425 256.925
Q 660.265625 254.84609375 661 252.7 664.25 243.35 665 233.6
M 664.95 330.75
Q 665.1 331.1720703125 665.1 331.6 665.1 332.5 664.5 333.45 664.25 333.8 663.25 335
L 657.6 341.1
Q 656.3 342.4 656.15 342.55 655.6380859375 343.0017578125 655.15 343.3
L 656 343.25
Q 664.1 344.35 665.25 348.5 665.75 350.05 665.2 352.1 664.85 353.35 663.75 355.6 661.55 359.45 657.75 364.75 653.45 370.6 651.35 373.6 641.024609375 388.5962890625 635.675 406.4 637.8208984375 408.4240234375 640.95 411.35 650.2708984375 420.0740234375 669.35 436.75 689.12421875 454.0380859375 709.35 471.1 716.4 474.25 725.75 474.05 732.55 473.9 742.75 471.75 762.4 467.5 777.8 461.25 795.95 453.85 809.35 443.25
M 614.175 289.475
Q 613.2505859375 290.3328125 612.25 291 610.927734375 291.8748046875 609.5 292.4
L 612.65 296.475 650.8 342.85
Q 651.35 343.7 652.5 343.85 653.5 344 654.5 343.6 654.8181640625 343.4806640625 655.15 343.3
M 693.85 411.6
Q 685.55 413.85 676.95 413.65 668.25 413.4 660.175 410.5 657.6078125 412.05 654.2 412.05 650.1 412.05 647.2 409.8 644.3 407.6 644.3 404.45 644.3 401.3 647.2 399.05 650.1 396.85 654.2 396.85 657.1509765625 396.85 659.475 398
L 660.35 397.75
Q 668.25 395.85 674.35 393.85 679.8 391.9 682.7 390.3 687.1 387.85 689.35 384.5
M 654.85 490.6
Q 674.65 486 684.65 484.25 701.35 481.4 714.85 481.5 730.95 481.7 744.9 486.3 760.25 491.35 771 501.1 776.75 506.35 782.4 514.3 785.9 519.15 792 529.1 823.85 581.05 860.25 642.3 882.975 633.913671875 906.35 630.1 912.121484375 629.180859375 913.525 627.375 913.7853515625 627.0400390625 914 626.7 914.048046875 626.441796875 911.5 621.95 844.3958984375 505.30625 810.775 445.125 809.9734375 443.2833984375 809.175 441.425 786.069140625 387.360546875 773.45 329.1
L 773 327.375
Q 758.147265625 320.145703125 743.5 312.5
M 934.35 322.1
Q 929.25 323.45 924.8 327.7 921 331.4 918 336.85 912.35 346.75 911.6 357.75 911.25 363.95 912.65 371.65 913.4 375.8 915.75 385.25
M 773 327.375
Q 853.87890625 366.7720703125 941.1 394.1
L 943.075 394.9
M 659.475 398
Q 660.3873046875 398.4333984375 661.2 399.05 664.1 401.3 664.1 404.45 664.1 407.6 661.2 409.8 660.7103515625 410.1798828125 660.175 410.5
M 491.5 275.75
Q 495.3 297.65 508.5 320.5 518.9 338.55 537 360 547.4 372.3 568.6 396.7 586.5 418.3 596.35 436.1 600.15 442.95 601.05 448.75 602.2 456.1 598.35 460.6 598.1 460.9 594.95 463.75 592.85 465.65 592.1 467.35 590.5 471.05 593.5 474.95 596.25 478.45 600.75 480 603.45 480.9 609.1 482 613.8513671875 483.169140625 616.075 483.625 618.2869140625 484.086328125 619.725 484.45 619.771484375 484.4619140625 619.825 484.475 621.5107421875 484.8662109375 631.65 486.175 642.1341796875 487.5306640625 645.625 485.25 649.1095703125 482.9642578125 652.225 477.1 655.3462890625 471.2447265625 660.1 458.55 664.13984375 447.605859375 666.7 441.975 667.619921875 439.940625 668.35 438.6
L 669.35 436.75
M 666.7 441.975
Q 669.05 452.8 673 462.6
M 668.5 647.5
Q 661.4087890625 642.796875 651.95 639.875 651.7693359375 639.8580078125 651.6 639.85 649.4533203125 639.619140625 647.625 639.2 644.209765625 638.4173828125 641.3 637.3 641.8751953125 640.371484375 640.325 643.325 640.2228515625 643.5365234375 640.1 643.75 625.7 640.1 610.5 641.45 595.4 642.75 581.85 648.85 576.8 651.2 573.95 654.45 570.45 658.5 571.75 662.6 573.25 667.4 581.75 669.75 600.75 674.85 624.4 672.4 642.05 670.6 667 663.75 679.65 660.25 687.05 656.75 692.2197265625 654.3228515625 696.3 651.375 700.305859375 648.470703125 703.275 645.075
L 703.6 651.25
Q 704.760546875 651.0205078125 705.75 650.6 707.2 650.05 708.8 648.8 708.95 648.7 711.5 646.5
L 718.25 640.25
Q 719.75 638.95 719.75 638 719.75 636.5 717.85 635.25 708.65 628.85 699.65 625.125
L 699.85 625.3
Q 684.63984375 636.8419921875 670.2 638.95 659.27890625 640.551953125 651.95 639.875
M 696.3 651.375
Q 699.4025390625 651.5984375 701 651.55 702.3623046875 651.500390625 703.55 651.25
L 703.6 651.25
M 970.1 643.1
Q 964.05 648.2 960.35 654.85 947 653.6 936.5 656.1 923.6478515625 659.424609375 915.975 667.725 927.25546875 670.6365234375 939.05 672 964.9 675.05 990.25 670.35 1003.3 667.75 1005.1 660.6 1005.8 657.45 1004.3 654.2 1002.85 651.2 1000 649.1 997.55 647.35 994 646.25 991.5 645.45 987.5 644.75 967.5 641.2 946.35 642.35 941.1 642.75 938.8 642.7 936.25625 642.57890625 934.15 642.025
L 933.25 642.35
Q 925.9 644.05 919.1 648.1 915.4 650.4 914.35 652.35
M 914 626.7
Q 917.7349609375 627.943359375 922.8 633.5 925.966015625 636.9513671875 928.375 638.95 930.2041015625 640.4341796875 931.6 641.1 932.7830078125 641.6521484375 934.15 642.025
M 928.375 638.95
Q 919.45 639.25 914.15 640.2 906.55 641.5 901.25 645
M 915.975 667.725
Q 902.4189453125 664.2275390625 889.6 658.5 889.5 661.5 889.575 667.575 889.53828125 667.58515625 889.5 667.6 892.85 668.1 893.65 668.15 895.95 668.4 897.75 668.25 902.7 668 905.5 665.35
M 889.5 667.6
Q 884.8416015625 668.8705078125 879.85 667.05 874.808984375 665.215625 871.45 661.325 868.0970703125 657.4380859375 866 653.2 863.9009765625 648.95390625 860.25 642.3
M 680.85 485.35
Q 659.3 515 644.25 548.5 640.95 555.8 639.95 560.7 638.55 567.65 640.75 573 642.1 576.4 645.2 579.75 647.05 581.7 651.25 585.25
L 699.65 625.125
M 991.475 477.3
Q 996.1 482.8 999.6 481.35 1001.75 480.55 1002.85 477.35 1004.45 472.7 1003.15 466.55 1002.35 462.75 999.6 455.85 984.85 419.75 984.35 418.5
M 1007.875 456.2
Q 997.62578125 426.868359375 992.35 411.5
M 582.575 94.125
Q 582.7078125 94.0708984375 582.85 94
L 582.75 94.1
Q 583.2259765625 93.6646484375 584.05 93
M 626.5 90.35
Q 624.778515625 90.4984375 623.05 90.9 618.15 92.05 614 94.85 611.7 96.55 610.5 95.85 609.85 95.5 609.6 94.7 609.4 93.95 609.6 93.25 610.05 92.1 611.5 90.85 618.6080078125 83.903515625 626.475 80.275
M 543.25 143.75
L 541.5 142.6
Q 537 139.8 531.2 140.5 525.6 141.15 521.35 144.75 517.3 148.2 515.05 153.5 512.9 158.4 512.6 164.1 512.15 173.05 516 185.5 518.05 192.1 520.2 196.4 523.1 202.1 527.1 205.6 524.2767578125 207.85859375 522.775 211.175 522.29609375 212.2513671875 521.95 213.45 520.55 218.3 522.1 222.85 523.6 227.35 527.7 230.3 531.85 233.3 536.6 233.35
L 538.225 233.225 538.5 233.2 545.55 174.625
Q 544.6427734375 174.5265625 544.2 174.4 542.75 174 542.1 173.1 541.15 171.95 541.35 169.35 541.8845703125 156.54765625 543.25 143.75 544.29765625 133.79765625 545.85 123.85
M 562.15 157.85
Q 564.3 161.75 566.75 164.25 570.1 167.35 573.65 168
M 519 167.25
Q 523.15 159.85 528 158.1 531.2 156.95 534.95 157.85 538.25 158.65 541.5 160.85
M 543 180.75
Q 539.35 179.5 537.1 180.1 534.25 180.8 532.5 183.85 531.2 186.4 531.35 189.6 531.45 193.8 533.75 197.5 536.05 201.1 539.75 203
M 565.7 183.25
Q 563.3349609375 183.0158203125 560.75 183.8 556.55 185.05 553.75 188.35 551.1 191.55 550 195.9 549 200 549.5 204.35 550.5 214.65 558.25 223.2 560.450390625 225.6099609375 562.925 227.625
L 565.7 183.25
Q 567.407421875 183.4083984375 569 184.1
L 570.65 184.95
M 547.35 188.85
Q 550.7 182.45 555.85 175.025
L 546.75 174.75
Q 546.0703125 174.694921875 545.55 174.625
M 620.55 146.45
Q 620.55 147.95 619.3 149 618.1 150.05 616.35 150.05 614.6 150.05 613.35 149 612.15 147.95 612.15 146.45 612.15 144.95 613.35 143.9 614.6 142.85 616.35 142.85 618.1 142.85 619.3 143.9 620.55 144.95 620.55 146.45 Z
M 562.925 227.625
Q 568.7435546875 232.327734375 576.1 234.85 586.3552734375 238.446875 599.35 238
L 596.3 211.6
Q 593.34609375 211.980078125 590.25 211.55 584.85 210.8 580.5 207.85 576.2 204.85 573.6 200.1 571 195.35 570.75 190.1 570.55 184.15 573.3 178.25 575.8 172.8 580.35 168.25 583.391796875 165.1291015625 587.6 162.075 585.168359375 162.75 582.45 162.75 575.15 162.75 569.95 157.85 564.8 153 564.8 146.1 564.8 139.2 569.95 134.3 575.15 129.45 582.45 129.45 589.75 129.45 594.9 134.3 598.541015625 137.730859375 599.625 142.15 600.7564453125 137.9265625 604.05 134.6 609.1 129.6 616.2 129.6 623.3 129.6 628.3 134.6 633.35 139.65 633.35 146.75 633.35 153.85 628.3 158.85 623.3 163.9 616.2 163.9 612.43671875 163.9 609.25 162.475 610.877734375 164.55859375 612.25 166.8 617.05 174.75 617.6 183.1 618.2 192.05 613.5 199.85 608.65 207.95 600.6 210.6 598.4880859375 211.325390625 596.3 211.6
M 590.05 147.3
Q 590.05 148.85 588.8 149.95 587.55 151.1 585.8 151.1 584.05 151.1 582.8 149.95 581.55 148.85 581.55 147.3 581.55 145.75 582.8 144.6 584.05 143.5 585.8 143.5 587.55 143.5 588.8 144.6 590.05 145.75 590.05 147.3 Z
M 599.625 142.15
Q 600.1 144.03125 600.1 146.1 600.1 148.5099609375 599.475 150.675 600.081640625 152.34453125 601.025 153.875 601.963671875 155.4103515625 604.05 156.85 606.9125 159.4958984375 609.25 162.475
M 599.475 150.675
Q 598.5287109375 153.8673828125 596.2 156.525 597.978125 155.6 600 155.6 601.2978515625 155.59921875 604.05 156.85
M 596.2 156.525
L 596.15 156.55
Q 592.3033203125 158.8369140625 589.9 160.45 588.703515625 161.258203125 587.6 162.075
M 624.1 166.75
Q 628.75 164.8 632 161.35 634.75 158.6 635.85 155.1
M 631.85 182.075
Q 630.142578125 182.70625 628.1 183.55 622 186.05 618.25 185.85
M 555.85 175.025
L 574.1 175.6
M 522.775 211.175
L 521.6 211.25
Q 510 211.8 499.1 210.85 496.05 210.6 494.65 210.65 492.15 210.8 490.5 211.85 488.3 213.3 486.6 217.1 483.8109375 223.4 482.75 230.25 482.1859375 233.853125 482.1 237.6
M 299.75 223
Q 299.95 225.7 300.9 230.05 301.6736328125 233.5958984375 302.05 235.5
L 337.925 275.225 340.35 275.5
Q 345.2939453125 276.0015625 350.25 276.525
L 349.85 275.6
Q 344.55 262.55 342.55 255.5 339.35 244.05 340.1 234.6 340.6818359375 226.9474609375 344.225 217.775
L 324.6 215.975
Q 324.3384765625 216.103125 324.1 216.225 322.5486328125 217.0734375 321.6 219.1 320.85 220.75 320.35 223.6 317.95 236.9 318.1 252.75
M 337.925 275.225
L 414.85 360.45
Q 415.2275390625 360.8728515625 415.625 361.325 417.4810546875 363.530859375 419.65 366.6 421.2 368.8 424.6 373.5 431.0828125 382.625 435.85 391.75 436.34453125 392.755078125 435.925 393.7 435.505078125 394.64609375 434.9 394.85 434.294921875 395.0537109375 432.425 394.55 430.55546875 394.0447265625 427.6 392.3 425.6 391.15 422.6 388.85 412.015625 380.8759765625 403.05 372.5
L 310 274.7
Q 307.8453125 279.7140625 303.2 283.3 297.5 287.7 290.6 288 285.9 288 283.25 286 281.7 284.7 281.1 282.8 280.45 280.7 281.35 279 279.4865234375 278.94609375 277.75 278.3 275.45 277.45 274.1 275.85 273.10546875 274.65 272.4 273.275 271.68359375 271.9 270.925 268.35 270.171875 264.8 272.1 263.175 268.54140625 262.825 266 261.25 262.7 259.2 261.3 255.3 259.95 251.4 261.25 247.75
M 415.625 361.325
Q 413.1 360.75 409.6 363.25 407.3 364.85 405.7 367.1 404.05 369.45 403.5 372
M 344.225 217.775
L 482.75 230.25
M 599.35 238
Q 608.212890625 237.6896484375 618.35 235.5 618.7095703125 235.4212890625 619.075 235.35
M 629.85 232.75
Q 629.85 240.1 629.75 243.85
M 550.25 235.9
Q 550 243.15 550.1 248.15 550.1 249.2626953125 550 249.9 549.5 256.55 553.35 263.15 556.95 269.3 563.35 272.85 565.1125 273.82734375 567.1 274.625 571.285546875 276.3166015625 576.45 277.2 581.65 278.15 590.35 278.5 592.234765625 278.5734375 594.35 278.625 604.7626953125 278.9091796875 620.75 278.8
M 594.35 278.625
Q 594.6 282.65 595.25 285.15 595.3625 285.552734375 595.5 285.925 596.4427734375 288.7927734375 598.25 290.6 598.8419921875 291.1591796875 599.5 291.6 601.518359375 292.9283203125 604.175 293.125 604.6341796875 293.15 605.1 293.15 606.148046875 293.15 607.15 293 608.358203125 292.81015625 609.5 292.4
M 538.5 233.2
L 538.5 233.7
Q 538.2970703125 241.6185546875 542.7 247 547.2 252.45 548.85 251.65 549.7 251.2 549.95 250.15 549.9763671875 250.0357421875 550 249.9
M 538.5 233.7
Q 538.2076171875 233.523046875 538.225 233.35 538.22109375 233.2875 538.225 233.225
M 553.75 328
Q 554.5 328.9 556.25 329.6 563.2 333.05 572.25 335.625
L 580.975 324.025
Q 576.8630859375 320.3724609375 572.8 312.45
L 552.05 328.675
Q 551.88984375 328.7166015625 551.725 328.75 550.6462890625 328.884765625 549.6 328.1 549.05 327.65 548 326.1 545.4 321.8 544 318.25 543.3 316.35 543.1 315.55 542.7 313.95 542.85 312.75 543.2 310.6 544.5 310.25
M 546 251.1
Q 539.8 274.15 538.5 298 538.05 306.2 539.35 311.75 541 319.1 545.85 322.85
M 572.25 335.625
L 562.25 348.95
Q 562.0130859375 349.352734375 561.9 349.85 561.7 350.9 562 352 562.65 353.55 564.5 355.25 566.85 357.25 569.35 358.5 570.1328125 358.912109375 571.075 359.15 571.180078125 359.1779296875 571.275 359.2 571.3853515625 359.226171875 571.5 359.25 571.6326171875 359.2681640625 571.75 359.275 573.2 359.4216796875 573.525 358.75 573.5857421875 358.6375 573.65 358.525 580.5123046875 345.823828125 587.45 333.175 587.4578125 333.1314453125 587.475 333.1 597.034375 315.651171875 606.725 298.275
L 607.15 293
M 567.1 274.625
Q 563.9 286.7 567.35 298.35
L 567.6 299.2 595.5 285.925
M 587.45 333.175
Q 599.35 347.65 602.25 351.1
L 603.15 352.2
Q 603.30859375 350.7728515625 603.475 349.35
L 606.725 298.275
M 571.075 359.15
L 600.95 373.45 601.625 373.85
Q 601.590625 373.5478515625 601.6 373.2 602.0224609375 362.6978515625 603.15 352.2
M 601.625 373.85
Q 601.762109375 374.708203125 602.35 375.1 603 375.4955078125 604.375 375.725 605.75 375.9630859375 608.05 375.975 608.624609375 375.9779296875 609.1 375.95 609.2435546875 375.9564453125 609.375 375.95 610.567578125 375.918359375 611.025 375.775 611.7 375.554296875 612.15 375.05 612.6 374.5 612.65 373.75
L 612.65 363.5 612.65 296.475
M 612.65 363.5
L 629.85 381.525 633.4 385.25 640.7 331.25
M 609.375 375.95
Q 619.5814453125 380.1685546875 629.85 381.525
M 599.5 291.6
L 572.8 312.45
M 604.175 293.125
L 580.975 324.025
M 567.6 299.2
L 544.9 310
M 350.25 276.525
Q 421.8525390625 283.9521484375 495.6 294.1
M 229.225 176.65
Q 228.6083984375 176.85 227.9 176.85 226.1 176.85 224.8 175.55 223.55 174.3 223.55 172.5 223.55 170.7 224.8 169.4 226.1 168.15 227.9 168.15 229.7 168.15 230.95 169.4 232.25 170.7 232.25 172.5 232.25 174.3 230.95 175.55 230.6736328125 175.8375 230.375 176.05 231.645703125 175.55 233.15 175.55 236.05 175.55 238.05 177.45 240.1 179.4 240.1 182.15 240.1 184.9 238.05 186.8 236.05 188.75 233.15 188.75 230.25 188.75 228.2 186.8 226.2 184.9 226.2 182.15 226.2 179.4 228.2 177.45 228.69140625 176.9947265625 229.225 176.65 229.844140625 176.445703125 230.375 176.05
M 253.7 178.95
Q 253.7 186.75 247.7 192.25 241.75 197.75 233.3 197.75 224.85 197.75 218.85 192.25 212.9 186.75 212.9 178.95 212.9 171.15 218.85 165.65 224.85 160.15 233.3 160.15 241.75 160.15 247.7 165.65 253.7 171.15 253.7 178.95 Z
M 272.1 263.175
Q 273.5232421875 263.3068359375 275.1 263.25 283.3 263 289.25 258.85
L 290.1 258.075
Q 289.8521484375 258.0408203125 289.6 258 286.95 257.55 284.7 255.55 282.7 253.75 281.35 251.1 280.8642578125 250.022265625 280.475 248.6
L 278.85 248.5
Q 276.85 248.25 273.6 248.35 269.6 248.4 268.35 248.35 261.7 248.15 258.5 245.25 254.5 241.85 254 233.75 253.7 229.3 255.1 226.6 255.9 224.85 257.4 223.8 259 222.65 260.825 222.725 260.75 222.48125 260.75 222.1 260.75 221.35 261 220.75
L 261.65 219.2
Q 261.090234375 219.594140625 260.5 219.75 259.046875 220.1427734375 257.45 219.35 255.9 218.55 255.25 217 254.78203125 216.0056640625 254.675 214.825 248.0046875 217.8 240.1 217.8 225.15 217.8 214.55 207.2 204 196.65 204 181.7 204 166.75 214.55 156.15 225.15 145.6 240.1 145.6 255.05 145.6 265.6 156.15 276.2 166.75 276.2 181.7 276.2 192.0837890625 271.075 200.35 271.7005859375 200.541796875 272.25 200.85 273.4 201.55 274.05 202.7 274.7060546875 203.9048828125 274.625 204.725 274.5953125 204.980859375 274.3 205.35 276.5009765625 205.4427734375 278.85 207.6 280.45 208.9 280.85 210
L 281.325 211.05
Q 282.362890625 206.863671875 284.25 204.75 289.3 198.85 301.25 201.35 316.4 204.8 322.85 214.1
L 323.9 215.9 324.6 215.975
M 290.1 258.075
Q 293.2447265625 258.398046875 296.3 256.5 299.5 254.5 301.1 251.1 303.75 245.85 302.35 237.1 302.2611328125 236.54921875 302.05 235.5
M 271.075 200.35
Q 269.4091796875 199.8072265625 267.25 200.1 263.1 200.65 259.8 203.7 256.6 206.6 255.25 210.75 254.51796875 213.0072265625 254.675 214.825
M 281.325 211.05
Q 280.9951171875 212.4189453125 280.75 214 278.5 226.95 279.25 240.25 279.5982421875 245.333984375 280.475 248.6
M 261.65 219.2
Q 262.4724609375 218.622265625 263.225 217.525 264.4818359375 215.6849609375 266.675 212.575 268.87265625 209.473828125 271.7 207.5 273.633203125 206.1560546875 274.3 205.35
M 281.35 279
Q 281.798046875 279.019140625 282.25 279 285.75 279 291.1 276.85 297.9 274.4 301.75 271.35 304.3 269.5 305.9 266.95 306.597265625 265.8423828125 307.05 264.7 307.7025390625 263.0603515625 307.85 261.35 308.15 258.25 306.65 255.5 305.1 252.65 302.35 251.6
L 301.1 251.1
M 307.05 264.7
Q 308.2041015625 264.46015625 309.4 265.15 310.65 265.85 311.1 267.1 312 269.5 310.85 272.35 310.4892578125 273.5619140625 310 274.7
M 597.1 394.1
Q 603.52109375 399.4896484375 611.925 401.175 620.338671875 402.852734375 631.075 401.9 631.0763671875 401.8388671875 631.075 401.775
L 631.1 401.9
Q 631.386328125 401.138671875 631.5 400.1 631.61484375 399.05703125 631.6 398.6
L 633.4 385.25
M 631.1 401.9
L 631.075 401.9
Q 631.4455078125 402.3900390625 635.675 406.4
M 637.25 408.85
Q 634.15 413.85 628.5 416.55 622.9 419.3 617 418.6
M 641.3 637.3
Q 637.298828125 635.7572265625 634.275 633.575 629.0548828125 629.8048828125 622.35 623.85
L 595.1 599.75
Q 589 594.25 586.4 591.1 582.05 585.8 581 580.5 579.85 575.05 581.65 568.4 582.85 564.05 586.25 556.75
L 619.825 484.475
M 613.75 641.6
Q 613.55 646.6 614.35 652.25 626.75 650.35 639.2 653.65 651.65 656.95 661.5 664.75
M 323.9 215.9
L 324.1 216.225
M 640.35 643.9
Q 651.8 648.3 662.35 655.4"/>
</defs>

<g transform="matrix( 1, 0, 0, 1, 0,0) ">
<use xlink:href="#Layer1_0_FILL"/>
</g>

<g transform="matrix( 1, 0, 0, 1, 0,0) ">
<use xlink:href="#Layer0_0_FILL"/>

<use xlink:href="#Layer0_0_1_STROKES"/>
</g>
</svg>
