
<svg xmlns="http://www.w3.org/2000/svg" version="1.1" xmlns:xlink="http://www.w3.org/1999/xlink" preserveAspectRatio="none" x="0px" y="0px" width="1280px" height="720px" viewBox="0 0 1280 720">
<defs>
<g id="Layer2_0_FILL">
<path fill="#FFFFFF" stroke="none" d="
M 1280 720
L 1280 0 0 0 0 720 1280 720 Z"/>
</g>

<g id="Layer0_0_FILL">
<path fill="#000000" stroke="none" d="
M 594.6 157.8
Q 591.6 157.8 589.5 159.9 587.4 162 587.4 165 587.4 168 589.5 170.1 591.6 172.2 594.6 172.2 596.6126953125 172.2 598.2 171.25 599.15 168.0046875 599.15 164.35 599.15 161.5533203125 598.6 159 596.857421875 157.8 594.6 157.8
M 558.8 156.95
Q 557.903515625 156.75 556.9 156.75 553.3 156.75 550.7 159.3 548.15 161.9 548.15 165.5 548.15 169.1 550.7 171.65 553.3 174.25 556.9 174.25 557.83125 174.25 558.7 174.05 560.05 169.997265625 560.05 165.3 560.05 160.8455078125 558.8 156.95
M 746.25 135.75
Q 747.75 133.35 748.35 132 749.3 129.85 749.35 127.75 748.640625 128.910546875 746.05 133.2 744.1 136.5 742.35 138.35 742.1767578125 138.54140625 742 138.7 740.2220703125 140.5685546875 737.95 141.75 735.413671875 143.0927734375 732.75 143.35 736.063671875 146.8814453125 737.6 151.15
L 744.5 148.35
Q 744.7318359375 148.241796875 744.95 148.1 748.3890625 146.4703125 750.5 144.5 754.15 141.2 755.5 136.1 751.1 141.8 744.5 144.5 744.1974609375 144.617578125 743.9 144.7 743.3478515625 144.85 742.85 144.85 741.95 144.85 741.5 144 741.35 143.45 742.1 142.1 742.4537109375 141.628515625 742.8 141.15 744.7578125 138.4357421875 746.25 135.75
M 694 157.95
Q 693.95 158.7197265625 693.95 159.5 693.95 164.5244140625 695.75 168.8 695.78359375 168.8802734375 695.8 168.95 697.0021484375 169.55 698.4 169.55 700.95 169.55 702.75 167.55 704.6 165.55 704.6 162.75 704.6 159.95 702.75 157.95 700.95 155.95 698.4 155.95 695.85 155.95 694 157.95
M 657.55 155.15
Q 654.7 155.15 652.65 156.9 652.4177734375 157.103125 652.2 157.3 652.2 157.705859375 652.2 158.1 652.2 162.4357421875 653.75 166.15 655.4220703125 167.15 657.55 167.15 660.4 167.15 662.4 165.4 664.45 163.65 664.45 161.15 664.45 158.65 662.4 156.9 660.4 155.15 657.55 155.15
M 657.6 143.95
Q 652.55 142 648.6 138.1 644.7 134.25 642.35 129.1 642.25 132.25 644.5 136.35 645.15 137.75 646.45 139.65 647.2 140.75 648.6 142.85 648.85 143.25 648.85 143.75 648.85 144 648.7 144.3 648.6 144.6 647.9 144.75 647.2 144.9 643.85 142.65 640.55 140.45 637.1 137.15 638.4 142.7 643.1 146.1 647.75 149.85 653.9 149.6 655.2517578125 146.5916015625 657.6 143.95 Z"/>
</g>

<path id="Layer0_0_1_STROKES" stroke="#000000" stroke-width="1" stroke-linejoin="round" stroke-linecap="round" fill="none" d="
M 770.9 62.85
Q 772.430078125 62.8771484375 773.75 62.8 777.4173828125 62.5427734375 779.425 61.4 782.15078125 59.8490234375 782.75 57.1 783.1 55 781.75 52.85 780.5 50.95 778.35 49.6 774.55 47.15 769.55 46.7 764.9 46.2 760.1 47.5 756.05 48.6 751.45 51.05 748.157421875 52.79609375 742.575 57.125 752.877734375 60.6625 761.95 67.975 767.3578125 72.3296875 771.275 77.35 774.6107421875 76.694140625 776.6 75.6 779.65 73.85 780 71.25 780.15 69.35 779.35 67.75 778.6 65.95 777.1 64.65 775.6 63.35 773.75 62.8
M 770.85 145.85
Q 768.2 141.85 769.35 134.5 770.1 130.7 770.45 128.8 771.1 125.4 771.1 123 771.1 119.9 769.95 117.3 768.65 114.45 766.25 113 765.55 112.55 764.05 111.95 762.55 111.3 761.85 110.85 760.75 110.15 760.2 109.05 759.55 107.8 760 106.75 760.35 105.7 761.5 105.1 762.5 104.6 763.75 104.5 766.5076171875 104.2162109375 769.175 104.875 768.1185546875 104.0017578125 766.35 102.65 764.5861328125 101.2982421875 763.6 99.95 762.60625 98.597265625 762.6 96.75 762.6 94.75 764 93.85 765.25 93.25 766.75 93.5 768.6921875 93.8453125 771.75 95.35 770.8798828125 94.859765625 770.7 93.6 770.5 92.2 771.35 91.25 772.05 90.35 773.45 90.15 774.65 89.95 776 90.35 776.95 90.6 777.95 91.025 778.5140625 91.2646484375 779.175 91.625 776.0546875 83.5240234375 771.525 77.65 771.4064453125 77.4962890625 771.275 77.35
M 630.2 78.2
Q 637.877734375 68.577734375 649.525 63.7 661.162890625 58.8224609375 676.725 55.375 692.2955078125 51.9162109375 707.175 52.05 722.045703125 52.19765625 736.05 55.3 739.372265625 56.0326171875 742.575 57.125
M 771.75 95.35
Q 771.848828125 95.3994140625 771.95 95.45 772.342578125 95.6380859375 772.75 95.85 781.15 100.2 784.75 104.25 787.25 107.25 788.2 110.75 789.3 114.55 788.1 117.85
M 791.95 140.05
Q 794.25 132.65 795.2 129.35 797 123.2 797.25 118.25 797.55 112.15 795.65 106.95 793.55 101.25 789.25 97.85 787.7 96.7 784.625 94.9 781.55 93.1 780.25 92.275 779.6833984375 91.9154296875 779.175 91.625
M 705.75 129.6
Q 707.3275390625 132.0373046875 709.925 133.35 712.526953125 134.6619140625 714.85 135.325 717.1640625 135.989453125 717.85 136.175 719.8408203125 136.76328125 720.7 136.95 722.74375 137.4505859375 724.45 137.575 724.7765625 137.591796875 725.1 137.6 730.3 137.85 733.6 135.25
M 742 138.725
Q 733.9693359375 114.528125 722 92.05 716.206640625 106.508203125 707.675 118.85 699.143359375 131.191796875 687.45 139.25 689.7521484375 140.607421875 691.8 142.55 694.771484375 145.3685546875 696.45 148.7 698.007421875 145.6388671875 700.55 143 707.15 136.15 716.5 136.15 717.1759765625 136.15 717.85 136.175
M 657.625 143.95
Q 658.272265625 143.240234375 659 142.55 665.8 136.1 675.4 136.1 682.1087890625 136.1 687.45 139.25
M 660 126.75
Q 663.45 123 668.1 120.55 672.8 118.1 677.85 117.35
M 657.625 143.95
Q 652.55 142 648.6 138.1 644.7 134.25 642.35 129.1 642.25 132.25 644.5 136.35 645.15 137.75 646.45 139.65 647.2 140.75 648.6 142.85 648.85 143.25 648.85 143.75 648.85 144 648.725 144.3 648.6 144.6 647.9 144.75 647.2 144.9 643.875 142.675 640.55 140.45 637.1 137.15 638.4 142.7 643.1 146.1 647.75 149.85 653.925 149.625 655.2517578125 146.5916015625 657.625 143.95 Z
M 653.925 149.625
Q 652.354296875 153.19765625 652.225 157.325 652.4177734375 157.103125 652.65 156.9 654.7 155.15 657.55 155.15 660.4 155.15 662.4 156.9 664.45 158.65 664.45 161.15 664.45 163.65 662.4 165.4 660.4 167.15 657.55 167.15 655.4220703125 167.15 653.75 166.175 654.3134765625 167.5662109375 655.1 168.875 656.645703125 171.416796875 659 173.65 665.5716796875 179.8833984375 674.75 180.1 674.2240234375 178.1177734375 675.85 175.85 677.7 173.5 680.75 172.85 682.95 172.5 685.6 173.3 687.3876953125 173.8314453125 690.075 175.15 690.9529296875 174.4533203125 691.8 173.65 694.148828125 171.4220703125 695.7 168.9 695.7234375 168.8439453125 695.75 168.8 693.95 164.5244140625 693.95 159.5 693.95 158.7197265625 694 157.95 694.27890625 152.92734375 696.45 148.7
M 653.75 166.175
Q 652.2 162.4357421875 652.2 158.1 652.2 157.705859375 652.225 157.325
M 673.475 187.85
Q 672.9080078125 187.675 672.35 187.5 668.8 186.35 666.9 186.15 663.8482421875 185.8515625 661.85 187.475 659.85625 189.091015625 660.075 192.175 660.18671875 193.8705078125 660.725 195.5 661.2759765625 197.126171875 661.8 197.975 662.3099609375 198.8177734375 663.3 200.45 663.992578125 201.5826171875 665.55 203.2
L 673.475 187.85
Q 681.890234375 190.3271484375 690.75 190.6 692.91015625 190.665234375 695.1 190.6 702.1083984375 190.3904296875 708.75 188.825 713.209375 187.7640625 717.5 186.1 722.2 184.35 724.25 184.1 726.1 183.9 727.8 184.45 729.65 185 730.75 186.25 732.05 187.9 732.05 190.4 732.05 192.6 731.1 194.85 729.4 199.3 725.75 203 722.5421875 206.2078125 718.275 208.475 718.01015625 208.6171875 717.75 208.75 709.85 212.5 698.6 213.35 693.4623046875 213.6990234375 689 213.375 681.9572265625 212.8927734375 676.6 210.75 671.2 208.6 667.1 204.75 666.2369140625 203.92890625 665.55 203.2
M 658.55 186.5
Q 658.55 189.4 656.4 191.4 654.25 193.45 651.2 193.45 648.15 193.45 646 191.4 643.85 189.4 643.85 186.5 643.85 183.6 646 181.55 648.15 179.55 651.2 179.55 654.25 179.55 656.4 181.55 658.55 183.6 658.55 186.5 Z
M 674.75 180.1
Q 674.8486328125 180.425390625 675 180.75 675.55 182 677.5 183.25 679.65 184.4 682.2 184.6 684.8 184.8 687 184
M 694 157.95
Q 695.85 155.95 698.4 155.95 700.95 155.95 702.75 157.95 704.6 159.95 704.6 162.75 704.6 165.55 702.75 167.55 700.95 169.55 698.4 169.55 697.0021484375 169.55 695.825 168.95 697.451171875 172.783984375 700.55 176 707.15 182.85 716.5 182.85 725.85 182.85 732.45 176 739.05 169.15 739.05 159.5 739.05 155.020703125 737.625 151.15 736.063671875 146.8814453125 732.775 143.35 732.6166015625 143.1728515625 732.45 143 728.853125 139.2669921875 724.45 137.575
M 695.7 168.9
Q 695.75859375 168.930859375 695.825 168.95 695.78359375 168.8802734375 695.75 168.8
M 769.175 104.875
Q 769.784765625 105.044140625 771.825 105.725 773.867578125 106.401953125 776.35 108.85 778.8359375 111.3 779.725 114.65 780.6046875 118 779.7 122.05
M 756.5 229.1
Q 756.6279296875 217.6888671875 755.8 206.375 750.809765625 216.3966796875 740.55 221.95 732.3314453125 226.398828125 722.9 229.65 724.330078125 233.6611328125 724.25 238.6 725.7146484375 237.1353515625 728.05 235.7 731.5439453125 233.7728515625 737.25 233.6 742.8 233.5 751.25 235.75 771.086328125 241.0462890625 790.475 251.475 785.4826171875 226.14765625 777.85 202.75 775 193.9 774.2 189.75 772.75 182.4 774 176.6 774.996875 171.8759765625 777.875 167.875 771.75 157.25 770 154 769.25 152.5 769 151.75 768.6 150.45 768.85 149.35 769.45 147 773.25 145.5 779.1 143.1 790.5 140.5 792.4 140.15 793.1 140.5 794.45 140.9 795.5 143.5 800.9248046875 156.6671875 801.725 159.275 805.6861328125 160.376953125 808.85 162.85 814.9 167.65 818.6 178.75 822.45 190.35 824.75 212.05 827.25 235.95 829.75 245.6 830.45 248.2 831.85 253.4 832.95 257.9 833.1 261.25 833.4 265.5 832.2 269.25 830.85 273.35 828 275.85 824.95 278.5 820.15 279.45 819.2958984375 279.6158203125 818.3 279.75 818.85 285.6 819.75 288.55 821.2 293.4 823.1 297 824.1 298.85 827.3 303.7 830.1 307.9 831.35 310.6 835.4 319.6 832.65 330.5 830.1 340.65 822.85 348.75 816.7 355.6 806.85 361.6 800.85 365.25 789.3 371.8
M 742 138.725
Q 742.1767578125 138.54140625 742.35 138.35 744.1 136.5 746.05 133.2 748.640625 128.910546875 749.35 127.75 749.3 129.85 748.35 132 747.75 133.35 746.25 135.75 744.7578125 138.4357421875 742.8 141.15 743.358984375 142.9240234375 743.9 144.7 744.1974609375 144.617578125 744.5 144.5 751.1 141.8 755.5 136.1 754.15 141.2 750.5 144.5 748.3890625 146.4703125 744.95 148.125 746.49140625 153.3029296875 747.85 158.55 754.0072265625 182.260546875 755.8 206.375
M 732.775 143.35
Q 735.413671875 143.0927734375 737.95 141.75 740.2220703125 140.5685546875 742 138.725
M 742.8 141.15
Q 742.4537109375 141.628515625 742.1 142.1 741.35 143.45 741.5 144 741.95 144.85 742.85 144.85 743.3478515625 144.85 743.9 144.7
M 737.625 151.15
L 744.5 148.35
Q 744.7318359375 148.241796875 744.95 148.125
M 749.9 186.2
Q 749.9 189.3 747.6 191.45 745.35 193.65 742.1 193.65 738.85 193.65 736.55 191.45 734.3 189.3 734.3 186.2 734.3 183.1 736.55 180.9 738.85 178.75 742.1 178.75 745.35 178.75 747.6 180.9 749.9 183.1 749.9 186.2 Z
M 801.725 159.275
Q 800.2451171875 158.8681640625 798.65 158.65 792.9 157.9 787.6 160 782.5 162.15 778.8 166.65 778.313671875 167.2494140625 777.875 167.875
M 737.45 295.75
L 737.45 292.35
Q 737.5 291.5 737.6 290.6 738 289.35 739.35 289.35 740.65 289.35 741.7 290.4
L 745.7 293.5 750.775 291.55
Q 751.803125 291.1201171875 752.6 291 753.3951171875 290.8765625 753.6 291.5
L 753.75 291.85
Q 753.8 292.4 753.7 293.1 753.6611328125 293.449609375 753.525 294 753.49453125 294.1521484375 753.45 294.325
L 751.95 299.2 755.475 303.75
Q 756.2 304.55 755.75 305.6 755.346484375 306.4412109375 754.725 306.7 754.105859375 306.9654296875 753.65 306.975 753.19140625 306.977734375 752.4 307.05
L 747.2 307.05 743.825 311.65 743.35 312.1
Q 742.85 312.6 742.5 312.75 742.25 312.85 741.85 312.85 740.408984375 312.7009765625 739.975 311.525 729.5921875 319.3587890625 721.25 328.85 718.85 331.65 717.4 333.1 715.2 335.3 713.1 336.75 709.65 338.9 707.75 337.35 706.85 336.75 706.6 335.45 706.3 334.3 706.6 333 706.7322265625 332.4994140625 706.925 332 704.7390625 332.2970703125 703.25 331.9 701.8 331.5 701 330.35 699.5 327.95 700.75 325 700.846484375 324.780078125 700.975 324.55 698.9 324.5 697.9 322.9 696.95 321.4 697.25 319.75 697.65 317.25 701 314.35 706.05 310 712.6 306.25 723.95 299.45 737.45 295.75
L 737.45 297.8 732.55 301.5
Q 731.75 302.1 731.6 302.5 731.4 303.15 731.75 303.6 731.85859375 303.70859375 732 303.8 732.39296875 304.1103515625 733 304.3
L 737.55 305.875 739.05 306.4 739.975 311.5 739.975 311.525
M 818.3 279.75
Q 815.3849609375 280.1 811.25 280.1 785.35 280.35 758.75 278.7 759.4767578125 283.1046875 759.1 287.6 759 289.5 758.55 293.2 758.25 296.5 758.95 299.1 764.553125 318.962109375 772.275 339.15 779.99765625 359.3408203125 788.125 371.35 796.25078125 383.3529296875 797.65 385.9 800.5 391.15 800.85 395.75 801.35 404.15 794.5 411.65 793.3501953125 412.9197265625 792.05 414.1 792.6693359375 421.7072265625 792.975 430.8 793.25 439.322265625 793.25 449.15 793.25 460.7 793.05 483.7 794.3755859375 525.4302734375 800.1 551.825 800.691796875 551.6537109375 801.4 551.525 805.7087890625 550.74453125 812.1 551.5 814.1 551.75 815.1 552.1 816.75 552.65 817.5 553.75 818.695703125 555.5953125 817.95 558.125 817.2123046875 560.6640625 815.3 564.25 814.25 566.25 815.05 568.75 815.85 571.1 817.6 573 819 574.65 821.35 576.2 822.35 576.85 825.6 578.75 826.897265625 579.4484375 828.175 580.15 831.696484375 582.05 835.125 583.925 838.4306640625 585.73671875 841.65 587.525 843.080859375 588.308984375 844.5 589.1 848.95 591.55 851.2 593.45 854.55 596.3 855.5 599.75 856.5 603.55 854.5 607.45 852.5998046875 611.095703125 848.05 614.025 843.500390625 616.9646484375 830.925 617.25 818.348828125 617.529296875 803.55 612.725 788.7513671875 607.9177734375 776.5 599.5 775.4123046875 595.405078125 774.45 591.75 771.28125 579.8134765625 769.6 573.35 768.1 567.5 767.65 565.35 766.7 560.85 766.35 557.25 765.85 551.7 767.75 549 768.9 547.25 771.2 546 772.65 545.25 775.75 544.5
M 758.75 278.7
Q 758.1041015625 274.9431640625 756.65 271.25 753.5 263.2 747.35 257.75
M 790.475 251.475
Q 790.975 254.0330078125 791.45 256.6
M 438.45 152.8
Q 437.3091796875 146.919140625 435.55 135 433.7859375 123.084375 433.725 116.175 433.6654296875 109.2580078125 436.5 100.775 439.3474609375 92.287890625 444.825 87.6 450.2986328125 82.9046875 459.2 81.55 464.2 80.85 474.1 79.35 484.2607421875 77.948828125 491.625 72.575 498.991796875 67.20078125 510.125 57.95 521.2501953125 48.6970703125 529.275 43.65 537.304296875 38.6076171875 546.475 36.425 555.64453125 34.241015625 564.4 37.475 573.1529296875 40.70625 581.45 46.25 589.747265625 51.7791015625 593.8 59.675 597.8380859375 67.5650390625 594.225 80.4 598.50625 79.1716796875 602.75 78.1 614.05 75.2 622.95 76.45 634.1 78 638 86 640.45 90.85 639.5 97.35 638.75 102.4 635.85 108.85 630.5880859375 120.1138671875 622.75 129.825 636.863671875 174.7876953125 635.075 222.275 633.2859375 269.774609375 617.45 315.7 619.703125 316.0515625 621.6 317 624.3 318.4 626.65 321.45 628.25 323.5 630.35 327.35 642.1328125 349.1029296875 649.725 372.825 661.8224609375 380.2546875 675.75 381.175 675.631640625 380.8134765625 674.35 376.975 673.0607421875 373.1416015625 667.05 346 661.04296875 318.858203125 661.25 293.025 661.4548828125 267.1900390625 662.075 261.525 662.7041015625 255.8529296875 666.025 248.6 669.049609375 241.9625 679.35 241 680.3064453125 240.9150390625 681.325 240.875 693.326171875 240.404296875 702.5 244.9 702.35 238.85 701.9 235 697.7921875 235.662109375 694.05 235.9 681.25 236.7 671.25 232.75 662.95 229.45 656.1 222.75 649.6 216.35 645.35 207.85 639.30546875 195.9509765625 640.8 187.85 642.283203125 179.746484375 646.15 175.1 650.022265625 170.4544921875 655.1 168.875
M 701.9 235
Q 709.046875 233.8345703125 717.3 231.375 719.884765625 230.6046875 722.9 229.65
M 679.35 241
Q 687.0470703125 252.30078125 694.7 258.275 702.3583984375 264.247265625 707.825 265.55 713.2927734375 266.8537109375 717.55 265.175 721.7984375 263.4955078125 724.6 260.175 727.41640625 256.8640625 728.5 251.6 729.5779296875 246.33125 728.05 235.7
M 732 303.8
Q 728.5 305.35 718.5 311.1 713.3 314.1 711.1 315.55 707.05 318.1 704.25 320.6 701.92890625 322.698046875 700.975 324.55
M 706.925 332
Q 707.715625 329.877734375 709.5 327.85 711.1 326.05 714.1 323.75 725.4794921875 314.66640625 737.55 305.875
M 649.725 372.825
Q 650.5103515625 375.2783203125 651.25 377.75 652.2431640625 381.00390625 651.5 382.7 650.759765625 384.3890625 646.175 386.825 641.5861328125 389.264453125 637.75 390.05 638.00859375 391.510546875 637.6 392.6 637.1 393.95 635.55 394.95 634.503515625 395.6494140625 626.95 398.675 619.389453125 401.7013671875 606.95 407.95
M 675.75 381.175
Q 679.517578125 390.53125 684.1 398.35 685.9267578125 401.4541015625 688.175 404.25 688.2224609375 404.31015625 688.275 404.375 690.6349609375 407.295703125 693.45 409.875 697.227734375 410.0478515625 701.85 406.35 707.55 401.95 711.15 396.5 714.1392578125 391.9787109375 715.275 387.225 715.673046875 385.6298828125 715.85 384 716.6 377.3 713.7 369.1 712.1 364.65 707.25 355 687.3 314.85 680.85 270.35
M 693.45 409.875
Q 694.6619140625 410.9625 695.95 412 703.8 418.3 714.1 420.9 714 420.5095703125 714 420.1 713.8 418.55 714.5 416.6 718.4 404.7 726.7 395.8 718.6572265625 392.3478515625 715.275 387.225
M 737.6 390.75
Q 737.6 392.95 736.6 394.85 735.9703125 396.3517578125 734.45 398.475 736.93515625 399.1861328125 740.45 400.15 745.8 401.8 749.25 403.75 750.85 404.7 751.75 406 752.85 407.6 752.25 408.85 751.5 410.45 748.35 410.75 743.85 411.15 739.35 409.95 734.85 408.7 731 406.75 724.65 414.65 721.35 417.95 718.48984375 420.859375 715.625 423.05 712.68984375 425.280078125 709.75 426.75
M 769.5 379.1
Q 774.05 383.2 779.55 385.85 785.15 388.55 791.1 389.5
M 708.75 188.825
L 718.275 208.475
M 690.75 190.6
L 689 213.375
M 828.175 580.15
Q 819.869921875 585.66875 812.25 590.5 813.153515625 591.1599609375 814.1 591.75 817.8208984375 594.01484375 821.75 594.8 827.8 589 835.125 583.925
M 821.75 594.8
Q 822.663671875 594.994921875 823.6 595.1 824.0537109375 595.160546875 824.5 595.2 829.2734375 595.6271484375 833.75 593.8 838.75 591.75 841.65 587.525
M 792.05 414.1
Q 786.8705078125 418.8498046875 779.35 422.25 769.6517578125 426.6505859375 759.35 429.525 759.62734375 435.4818359375 760.175 441.375
L 792.975 430.8
M 734.45 398.475
Q 732.54921875 397.911328125 731.25 397.5 728.8068359375 396.7064453125 726.7 395.8
M 729 445.05
L 730.475 434.9
Q 726.0517578125 435.389453125 721.575 435.7 706.4166015625 436.751171875 700.225 435.65 697.641015625 435.18984375 695.45 434.15 695.1345703125 439.7943359375 694.85 445.45
L 729 445.05 727.5 455.25
Q 724.7 474 723.45 481.65 721.04921875 496.15234375 718.7 507.55 718.67421875 507.658203125 718.65 507.775 721.1115234375 512.2919921875 721.5 518.75 721.8 523.3 721 530.85 719.4236328125 545.6140625 717.45 559.425 722.0595703125 561.8064453125 724.15 563.2 727.5 565.45 729.25 568.1 731.15 571.05 731.6 575.65 731.85 578.1 731.75 583.85 731.17734375 596.983203125 731.575 610.7 731.699609375 614.70546875 731.9 618.75 716.8 628.85 711.6 632.45 700.2 640.25 691 645.85 684.6529296875 649.8037109375 678.9 651.275 673.141015625 652.7388671875 666.8 651.4 660.5138671875 650.0728515625 656.95 642.025 656.930859375 641.9462890625 656.9 641.875 653.7248046875 634.5662109375 655.375 627.25 655.5837890625 626.371875 655.85 625.5 658.6609375 616.1298828125 668.175 608.45 672.35859375 605.0591796875 677.85 602 678.38125 601.690234375 678.875 601.4 682.277734375 599.3349609375 683.85 597.85 684.473828125 597.24765625 684.95 596.625 686.6962890625 594.3939453125 686.5 592 686.3 590.15 684.45 587.25 682.45 584.2 682.1 582.6 681.55 580 683.05 577.35 684.45 574.85 687 573.35 689.05 572.15 692.1 571.45 692.41015625 571.3810546875 692.875 571.3 691.758984375 507.734375 694.85 445.45
M 759.35 429.525
Q 755.3876953125 430.6224609375 751.325 431.5 741.042578125 433.71875 730.475 434.9
M 760.175 441.375
Q 762.6083984375 467.8388671875 770.4 493.075 768.4048828125 497.1994140625 768.5 503 768.55 506.95 769.6 513.85 773.7 537.2 780.6 559.675 783.221875 560.1263671875 786.6 560.15 790.0201171875 560.15 796.6 560.025 796.72265625 557.036328125 796.9 554.675 797.053125 552.6978515625 800.1 551.825
M 695.45 434.15
Q 692.3953125 432.6890625 690.1 430.1 686.1 425.6 686.15 417.85 686.15 412.6869140625 688.275 404.375
M 714.1 420.9
Q 714.2046875 421.3640625 714.45 421.8 714.85 422.65 715.625 423.05
M 717.45 559.425
Q 716.9361328125 562.9861328125 716.4 566.475 720.5 567.6 721.1 569.85 721.6 571.6 720.1 573.6 718.9 575.4 717.05 576.55 715.898828125 577.265625 714.65 577.65 713.8931640625 577.88671875 713.1 578 710.5 578.15 709.25 578.25 708.657421875 578.3158203125 708.1 578.475 706.5658203125 578.9083984375 705.35 580.05 703.696484375 581.6005859375 704.85 587.9 705.5646484375 591.7888671875 707.3 595.875
L 720 597.75
Q 721.85 597.95 722.35 598.75 723 599.55 723 601 723.0984375 603.4603515625 723.5 615.95 727.328125 613.458203125 731.575 610.7
M 708.1 578.475
Q 708.0810546875 575.503515625 707.35 573.6 706.6142578125 571.697265625 705.2 571.075 703.7951171875 570.45078125 701.6 570.4 700.25 570.35 697.6 570.6 694.403125 571.0236328125 692.875 571.3
M 716.4 566.475
Q 715.5779296875 571.7896484375 714.65 577.65
M 796.6 560.025
Q 797.33046875 560.0150390625 798.1 560 802.6 560.55 803.6 562.85 803.9974609375 564.00078125 803 567.95 802.007421875 571.8974609375 800.25 577.85
M 777.1 549.6
Q 775.2650390625 549.8947265625 773.675 551.025 772.0888671875 552.159765625 772.225 554.375 772.3548828125 556.5912109375 776.1 558.35 777.973046875 559.22578125 780.6 559.675
M 774.45 591.75
Q 779.1029296875 594.1494140625 783 596.075 782.3125 590.1380859375 782.05 587.4 781.78671875 584.6623046875 781.7 583.275 781.60625 581.8861328125 781.65 579.95 781.6982421875 578.0111328125 787.125 577.575 792.55 577.1458984375 794.9 577.2 798.4 577.35 800.75 578.85 801.8060546875 579.48359375 802.9 580.6 810 577.85 816.85 572.6
M 821.35 576.2
Q 814.41875 581.6294921875 806.2 584.625 806.3509765625 584.81015625 806.5 585 809.10390625 588.1869140625 812.25 590.5
L 800.275 604.025
Q 809.27734375 607.7095703125 817.1 609.85 823.3 611.5 828 611.9 833.9 612.45 838.75 611.25 844.35 609.85 848.5 606.2 852.9 602.25 854 597
M 802.9 580.6
Q 803.3765625 581.0525390625 803.85 581.6 803.944140625 581.7412109375 806.2 584.625
M 783 596.075
Q 790.4013671875 599.7162109375 795.05 601.8 797.7095703125 602.974609375 800.275 604.025
M 678.875 601.4
Q 688.8966796875 607.092578125 699.625 610.425 703.339453125 607.4248046875 706.85 604.25 707.161328125 603.9966796875 707.45 603.75 699.68671875 602.746484375 695.7 601.7 689.3 600 684.95 596.625
M 674 604.6
Q 682.4 611.7 692.475 615.925 696.13984375 613.25234375 699.625 610.425
M 668.175 608.45
Q 669.729296875 610.24296875 672.1 611.95 673.7 613.05 676.85 614.85 683.7 618.65 686.425 620.125 688.7375 618.5921875 690.975 617 691.728125 616.4630859375 692.475 615.925
M 723.5 615.95
Q 714.308984375 621.8865234375 707.45 626.275 706.3421875 626.983203125 705.25 627.65 696.81328125 632.9443359375 689.775 636.425 681.82734375 640.3591796875 676.95 641.825 672.0677734375 643.2904296875 666.975 643.6 661.8943359375 643.903125 656.95 642.025
M 707.3 595.875
Q 708.380078125 598.398046875 709.85 601 709.0025390625 602.371875 707.45 603.75
M 690.975 617
L 705.25 627.65
M 686.425 620.125
Q 684.0765625 621.7060546875 681.65 623.225 682.01484375 623.4919921875 682.3 623.75 683.75 625.15 684.1 626.75 684.45 628.25 683.8 629.85 683.15 631.3 681.85 632.35 679.9 634.05 676.1 635 669.2 636.7 663.85 635.25 660.8 634.35 658.55 632.25 656.1119140625 630.0556640625 655.375 627.25
M 665.1 611.6
Q 666.95 614.9 671.35 617.5 673.85 619 679.25 621.6 680.70703125 622.47421875 681.65 623.225
M 824.5 595.2
Q 821.85 598.8 819.35 602.6 827.75 605.4 836.85 603.2 845.9 601.05 852.1 594.75
M 565.85 57.85
Q 568.85 57.3 570.75 55 561.8736328125 48.0576171875 555.45 39.5 554.1939453125 43.562890625 551 50 546.5 59 545.85 60.75 550.85 61.35 554.5 60.85 554.55 64.7 552.5 69.75 552.25 70.35 550.65 73.8 549.5 76.25 549 77.85 553.9375 77.85 558.55 75.6 559.398828125 77.8208984375 559.35 80.85 559.35 82.75 559 85.85 559.8 85.5 563.6 83.75 568.49765625 81.7216796875 570.8 81.025 568.458203125 76.593359375 568.85 71.5 571.4 71 572.85 70.4 575 69.5 576 68 569.55 64.2 565.5 58
M 580.35 90.75
Q 587.111328125 91.5796875 593.575 94.05 595.683203125 93.6666015625 597.35 93 600.35 91.65 601.35 89.5 602 87.85 601.3 86 600.65 84.2 599.1 83.1 596.971484375 81.3583984375 592.3 80.95
L 592.275 80.95
Q 589.3732421875 81.80625 586.45 82.725 573.8375 90.1951171875 556.1 106.2 550.701171875 111.0697265625 546.075 115.15 557.2947265625 125.4421875 571.25 132.05 580.0560546875 136.2359375 589.275 138.625 594.93828125 140.0712890625 600.75 140.85 604.7 141.35 607 141.3 610.5 141.2 613.1 140.1 613.2392578125 140.0396484375 613.375 139.975 618.021875 137.844921875 620.45 132.6
L 620.475 132.575
Q 622.7970703125 127.3330078125 621.85 121.75 620.15 111.95 610.1 103.75 603.8 98.5 596.2 95.15 594.8880859375 94.570703125 593.575 94.05
M 594.225 80.4
Q 593.3880859375 80.6375 592.3 80.95
M 562.85 191.6
Q 568.8 193.5 574.85 191.1 577.15 190 578.25 188.6 578.54375 188.1859375 578.725 187.725 579.2564453125 186.47578125 579 184.9 578.7 182.8 577.25 181.35 574.4 178.75 569.75 179 568.05 179.15 565.8 179.85 565.2546875 179.9986328125 561.625 181.375 561.380078125 181.1423828125 561.15 180.9 559.1529296875 178.7953125 557.775 176.425 556.1119140625 180.085546875 553.25 183.2 546.5 190.6 536.9 190.6 527.3 190.6 520.5 183.2 513.75 175.8 513.75 165.3 513.75 154.8 520.5 147.4 527.3 140 536.9 140 546.5 140 553.25 147.4 555.706640625 150.0734375 557.275 153.15 558.7810546875 150.2646484375 561.15 147.75 567.7 140.9 576.9 140.9 586.1 140.9 592.6 147.75 594.8939453125 150.1666015625 596.375 152.925 605.550390625 147.3783203125 613.375 139.975
M 586.45 82.725
Q 564.59765625 89.5685546875 541.6 100.25 515.25 112.45 484.25 131.25 477.6447265625 135.269140625 471.8 138.65 477.137109375 142.87890625 484.35 144.4 491.3 145.9 498.6 144.6 510.7 142.55 524.35 132.85 531.4134765625 127.9890625 546.075 115.15
M 509 136
Q 510.15 131.7 515.75 126.85 522.1 121.8 527 121.5
M 472.6 161.6
Q 469.1 166.05 469.1 172.1 468.95 177.05 471.1 183.25 473.1 188.4 476.1 189.85 478.75 191.25 481.9 189.85 484.9 188.5 486.5 185 487.3 187.9 487.95 189.4 488.9 191.8 490.25 193.35 491.8 195.2 494.1 195.95 496.5 196.75 498.5 195.85 502.5 194 503 187 504 176.1 501.4 165.35 498.75 154.55 492.75 145.5
M 509.5 178.85
Q 512.4 184.4 517.6 188.2 522.75 191.95 528.85 193
M 558.7 174.075
Q 557.83125 174.25 556.9 174.25 553.3 174.25 550.7 171.65 548.15 169.1 548.15 165.5 548.15 161.9 550.7 159.3 553.3 156.75 556.9 156.75 557.903515625 156.75 558.825 156.95 558.2068359375 154.9779296875 557.275 153.15
M 558.825 156.95
Q 560.05 160.8455078125 560.05 165.3 560.05 169.997265625 558.7 174.075 558.292578125 175.2775390625 557.775 176.425
M 620.475 132.575
Q 621.63515625 131.212109375 622.75 129.825
M 569.6 121.1
Q 574.5 122.15 578.55 125.25 582.6 128.35 584.85 132.85
M 589.275 138.625
Q 589.25 139.25 589 140.1 588.15 142.05 587.35 143.1
M 598.225 171.25
Q 596.6126953125 172.2 594.6 172.2 591.6 172.2 589.5 170.1 587.4 168 587.4 165 587.4 162 589.5 159.9 591.6 157.8 594.6 157.8 596.857421875 157.8 598.6 159 597.9201171875 155.7802734375 596.375 152.925
M 598.6 159
Q 599.15 161.5533203125 599.15 164.35 599.15 168.0046875 598.225 171.25 596.6822265625 176.630859375 592.6 180.9 586.7576171875 187.1017578125 578.725 187.725
M 597.35 175.25
Q 604.85 182.3 608.35 191.7 612.05 201.6 610.1 211.1 609 216.75 605.65 222.65 603 227.45 598.5 233 590.65 242.4 583.35 246.25 573.55 251.35 560.15 249.75 549.95 248.5 536.35 243 529.3900390625 240.1 523.75 237.05
L 523.75 247.6 523.2 264.6
Q 524.57265625 267.0994140625 525.975 269.575 530.4138671875 277.4576171875 535.15 285.2 539.0978515625 291.644140625 543.25 298 547.60234375 293.921484375 550.125 288.4 552.7296875 282.68984375 553.75 275.1 554.0263671875 272.9232421875 554.025 271.05 554.011328125 267.639453125 553.075 265.2 552.2806640625 263.126171875 550.825 261.75
L 550.2 248.25
M 491.85 71.85
Q 488.45 68.65 483.5 68.5 479.15 68.3 474.6 70.35 471.1 71.85 469 74.1 466.35 77 466.35 80.25
M 477.75 79
Q 475.2 82.4 473.75 87.35 472.65 91.05 472 96.6 469.5611328125 117.0064453125 471.8 138.65 471.757421875 138.674609375 471.725 138.7 461.0599609375 144.8818359375 455.1 147.6 440.458203125 154.275 427.675 155.1 425.611328125 155.2208984375 423.6 155.2 413.5447265625 156.072265625 412.8 162.075 412.13046875 167.397265625 417.925 171.025 418.6708984375 171.486328125 419.525 171.925 424.8861328125 174.68515625 432.85 176.85 434.96015625 177.513671875 438.1 178.2
M 432.85 176.85
Q 428.6125 181.283203125 425.075 190.25 421.5353515625 199.20546875 421.2 206.275 420.85625 213.35 424.1 223.6 425.35 227.55 426.7 230.05 428.5 233.4 431 235.35 433.8 237.6 437.45 237.8 441.3 237.95 443.75 235.6 443.8111328125 235.5388671875 443.875 235.475 446.1513671875 233.0865234375 446.2 228.75 446.2 225.7818359375 445.075 221.1 445.0322265625 220.9802734375 445 220.85
M 417.925 171.025
Q 413.7578125 178.775390625 410.5 186.85 401.95 207.15 404.85 221.75 407.55 234.7 419.65 246.2 425.9412109375 252.170703125 437.95 260.1 440.9240234375 262.0650390625 444.275 264.15 448.9125 258.8109375 451.45 254.8 451.5623046875 254.625390625 451.675 254.45 455.9724609375 247.6328125 456.85 241.1
M 523.75 237.05
Q 517.720703125 233.8099609375 513.2 230.4 501.65 221.65 497.1 210.3 483.8 215.3 474.35 211 470.15 209.1 466.85 205.15 463.9 201.55 462 196.75 459 188.35 460.35 181.6 461.15 177.7 463.25 174.55 465.45 171.15 468.95 169.35
M 436.5 143.35
Q 431.7912109375 149.116015625 427.675 155.1
M 445.075 221.1
Q 446.25 224.7 449.05 228.45 450.7 230.7 454.55 234.95 456.080859375 234.3205078125 457.575 234.675 459.5443359375 235.146484375 461.55 236.6 462.7 237.45 464.85 239.5
L 467 241.6 471.85 246.35
Q 474 248.25 474.35 249.75 474.85 250.9 474.7 252.45 474.6 253.35 474.1 255.25 472.7873046875 260.2876953125 471.825 263.55 471.717578125 263.912109375 471.625 264.25 477.1818359375 265.1595703125 482.675 265.775 483.9015625 260.3134765625 485.35 254.5
M 443.875 235.475
Q 447.2806640625 237.851953125 450.675 239.8 451.5275390625 236.6361328125 453.575 235.425 454.0587890625 235.137109375 454.55 234.95
M 450.675 239.8
Q 453.3916015625 241.3345703125 456.1 242.6
M 442 266.35
Q 443.233984375 265.348046875 444.275 264.15
M 473.85 626.75
Q 477.4609375 628.0337890625 482.2 630.35 486.9462890625 632.6552734375 489.25 634 490 634.55 490 634.85 490.1 635.25 489.35 636 487.05 638.1 485.35 638 484.4 638 482.6 637 472.5 631.5 468.7 629.275 468.2408203125 629.5828125 467.8 629.875 462.40078125 633.450390625 458 639.5 452.9 646.45 453.25 653.75 453.2806640625 654.6689453125 453.425 655.525 457.75 658.1 463.15 658.65 468.15 659.15 473.35 657.85 477.8 656.85 482.95 654.5 486.25 653.05 492.1 649.85 516.3416015625 636.987109375 528.6 630.4 528.5619140625 629.5869140625 528.525 628.675 528.2576171875 622.304296875 528.1 617.45 527.283203125 617.8994140625 526.25 618.25 520.2 620.6 513.65 620.3 507.05 620 501.35 617.1 497.8 615.3 496.35 613 494.9 610.55 495.1 605.1 495.1 600.95 495.8 598.35 496.7 595.11015625 498.9 593.375 499.13984375 593.175 499.4 593
L 502.5 418.1
Q 501.085546875 417.4740234375 499.8 416.5 498.57734375 415.573046875 498.05 413.5 497.63984375 411.9486328125 497.625 409.75 497.6140625 407.5609375 497.4 398.75 497.1970703125 390.5603515625 496.825 376.65 496.65078125 370.5388671875 496.45 363.325 496.3224609375 358.7453125 496.175 354.2 495.8427734375 343.0521484375 495.45 332.1 495.055078125 321.177734375 494.6 310.45 494.112890625 298.8365234375 493.55 287.45 493.453125 285.3962890625 493.35 283.35 479.076171875 283.17265625 465.4 278.1 465.2251953125 278.3515625 465.05 278.55 463.95 279.8 462.6 280.25 460.35 281.05 456.1 279.25 454.062890625 278.301953125 452.1 277.325 449.214453125 275.8712890625 446.5 274.35 443.9 272.9 442.6 271.95 440.4966796875 270.45 438.875 268.65 437.259765625 266.85 437 264.525 436.7369140625 262.2 437.95 260.1
M 471.625 264.25
Q 471.3421875 265.151953125 471.1 265.9 469.15 271.75 466.75 276 466.021875 277.3029296875 465.4 278.1
M 451.675 254.45
Q 455.60546875 256.6306640625 459.675 258.525 463.153125 250.2146484375 467 241.6
M 493.55 287.45
L 501.175 286.2 500.05 267.025
Q 491.4326171875 266.7662109375 482.675 265.775 480.826953125 274.0904296875 479.5 281.6
M 471.825 263.55
Q 465.53125 261.2796875 459.675 258.525 455.6435546875 268.126171875 452.1 277.325
M 550.75 253.25
Q 555.6 253.25 560.35 260.35 560.7673828125 260.9806640625 561.175 261.625 565.4 261.15 568.85 264.6 570.75 266.75 573.25 271.75 573.702734375 272.7033203125 574.15 273.65 578.6794921875 283.284375 582.5 292.35 585.362109375 299.1205078125 587.825 305.575 589.20546875 305.2771484375 590.6 305 592.0525390625 304.6984375 592.925 305.2 593.7921875 305.7041015625 595.15 309.6 596.478125 313.401953125 598.4 318.975 601.796484375 317.93203125 605.35 317 610.35 315.7 613.65 315.55 615.66171875 315.439453125 617.45 315.7
M 571.2 295.15
Q 571.4447265625 295.6966796875 571.675 296.25
L 575.275 294.95
Q 573.0181640625 289.3814453125 570.075 284.05 569.627734375 284.2841796875 569 284.5 566.6458984375 285.1193359375 564.8 285.575 564.51796875 285.6578125 564.25 285.725
L 566.075 305.55 574.575 304.95
Q 573.347265625 300.2271484375 571.675 296.25
M 574.15 273.65
L 568.85 275.85
Q 569.9255859375 278.340625 570.85 280.85 571.4 282.5 571 283.25 570.75703125 283.675390625 570.075 284.05
M 575.275 294.95
L 582.5 292.35
M 523.75 247.6
Q 519.15 247.7 515.95 250.15 513.506640625 252.003515625 511.925 254.7 511.6177734375 255.214453125 511.35 255.75 511.1033203125 256.23515625 510.875 256.75 510.976953125 257.1474609375 511.075 257.55 515.365625 257.1126953125 518.55 255.925 518.195703125 255.2646484375 517.85 254.6
M 510.875 256.75
Q 509.7267578125 259.3494140625 509.1 262.65 508.6 265.4 508.25 270 507.798046875 274.8416015625 507.65 278.6
L 516 274.5
Q 513.3212890625 266.1931640625 511.075 257.55
M 523.2 264.6
Q 520.8267578125 260.283984375 518.55 255.925
M 511.925 254.7
Q 505.5966796875 255.170703125 499.35 255.05
L 500.05 267.025
Q 504.1634765625 267.1455078125 508.25 267.1
M 493.25 279.85
Q 493.2966796875 281.5572265625 493.35 283.35
M 525.975 269.575
L 516 274.5
Q 518.252734375 281.5064453125 520.825 288.275 524.7568359375 286.7158203125 529.15 285.925 532.05078125 285.390625 535.15 285.2
M 507.65 278.6
Q 507.55 280.66328125 507.55 282.4 507.53984375 283.7873046875 507.6 285.15 507.846875 290.4650390625 509.2 295.4 512.187890625 292.7677734375 515.575 290.8 518.0876953125 289.3515625 520.825 288.275
M 501.175 286.2
L 507.6 285.15
M 553.075 265.2
Q 554.9119140625 267.5798828125 556.35 270
L 564.125 266.475
Q 562.7248046875 264.0341796875 561.175 261.625
M 554.025 271.05
L 556.35 270
Q 560.88984375 277.62734375 564.8 285.575
M 564.25 285.725
Q 561.2904296875 286.47421875 559.75 286.8 556.9103515625 287.4552734375 554.3 287.875
L 555.8 306.25 566.075 305.55 568.075 327.175 577.875 326.5
Q 577.4255859375 321.5623046875 576.975 317.9 576.7591796875 316.24375 576.55 314.85 576.0447265625 311.55859375 575.4 308.5 575.0134765625 306.67578125 574.575 304.95
M 554.3 287.875
Q 552.13359375 288.218359375 550.125 288.4
M 529.15 285.925
L 530.3 308 545.425 306.95
Q 544.587890625 302.20625 543.25 298
M 548.35 328.5
L 557.575 327.875 555.8 306.25 545.425 306.95
Q 547.240234375 317.1974609375 548.35 328.5 549.3873046875 339.1671875 549.8 350.775
L 559.4 350.175 557.575 327.875 568.075 327.175 570.125 349.5 579.7 348.9
Q 579.1470703125 342.2548828125 578.6 335.35 578.2662109375 330.84296875 577.925 327.05 577.9005859375 326.7791015625 577.875 326.5
M 530.3 308
L 531.425 329.65 548.35 328.5
M 503.8 331.525
L 517.9 330.575 516.65 308.925 502.55 309.9 503.8 331.525 505.075 353.625 519.175 352.725 517.9 330.575 531.425 329.65 532.6 351.875 549.8 350.775
Q 549.827734375 351.465234375 549.85 352.15 550.1423828125 360.76484375 550.075 372.875
L 561.2 372.1 559.4 350.175 570.125 349.5 572.125 371.325 581.525 370.65
Q 581.0849609375 365.568359375 580.65 360.325 580.1724609375 354.7052734375 579.7 348.9
M 495.45 332.1
L 503.8 331.525
M 494.6 310.45
L 502.55 309.9 501.175 286.2
M 519.175 352.725
L 520.475 374.975 533.75 374.025 532.6 351.875 519.175 352.725 Z
M 496.825 376.65
L 506.375 375.975 505.075 353.625 496.175 354.2
M 506.375 375.975
L 520.475 374.975 521.75 397.15 534.925 396.3 533.75 374.025 550.075 372.875
Q 550.0125 382.90390625 550.25 395.4
L 563.025 394.45 561.2 372.1 572.125 371.325 574.2 393.725 583.525 393.1
Q 583.330078125 390.993359375 583.125 388.85 582.8318359375 385.5935546875 582.525 382.25 582.0337890625 376.5708984375 581.525 370.65
M 515.575 290.8
L 516.65 308.925 530.3 308
M 637.75 390.05
Q 637.5328125 388.8294921875 636.85 387.35 636.4912109375 386.49140625 636.15 385.65 617.4998046875 341.0310546875 614.85 334.75 613.65 331.85 613.2 330.1 612.5 327.45 612.75 325.25 612.808203125 324.6564453125 612.95 324.1 613.4306640625 322.2693359375 614.85 320.85 615.98515625 319.6849609375 617.275 319.275 618.1541015625 319.01953125 619.1 319.1 623.15 319.6 625.75 326.35
L 644.25 371.25
Q 645.35 374 645.65 375.5 646.15 377.9 645.5 379.75 644.83515625 381.3947265625 643.25 382.625 642.5552734375 383.1498046875 641.7 383.6 639.85 384.6 636.15 385.65
M 612.95 324.1
L 620.4 338.95
M 617.275 319.275
L 628.9 344.2
M 587.825 305.575
Q 586.12578125 305.930859375 584.5 306.3
L 587.9 314.675 595.5 312.45
M 587.9 314.675
L 590.7 321.575
Q 594.4419921875 320.198046875 598.4 318.975
M 584.5 306.3
Q 582.0484375 306.878515625 579.75 307.5 577.396875 307.976953125 575.4 308.5
M 579.25 340
Q 587.6 336 604.5 328.1
M 577.925 327.05
Q 583.9537109375 324.0615234375 590.7 321.575
M 576.975 317.9
L 587.9 314.675
M 603.5 370.25
Q 599 370.25 593.6 370.5 592.1 370.5 591.5 371.1 590.85 371.75 591.1 373.5 591.748828125 375.8294921875 592.825 377.75 593.475390625 377.4931640625 594.1 377.25 598.65 375.35 601.6 375.35
M 583.125 388.85
L 586.15 388.25 589.35 393.05
Q 590.15 393.7 590.35 393.6 590.75 393.6 590.85 393.5 591.15 393.25 591.7 392.6
L 599.65 382.45 604.95 389.65
Q 606.8 381.2 610.95 373.55 615.15 365.9 621.5 360.25 612.15 360.7 605 360.35 601 360.1 598.8 359.7 595.497265625 359.0099609375 593.175 357.55
L 594.6 364.325
Q 590.3498046875 363.8880859375 587.65 363.25 583.8 362.35 581 360.75
M 594.5 380.25
Q 593.5564453125 379.1013671875 592.825 377.75 588.4525390625 379.5142578125 582.525 382.25
M 643.25 382.625
L 635.25 362.4
M 626.25 348.7
L 633.3 370.7
M 575.275 294.95
Q 577.6935546875 300.934375 579.75 307.5
M 564.125 266.475
Q 566.7734375 271.116015625 568.85 275.85
M 563.025 394.45
L 574.2 393.725 575.45 407.3 584.775 406.55
Q 584.1556640625 400.012109375 583.525 393.1
M 547.5 197
Q 552.05 200.75 557.9 202.4 563.65 204 569.5 203.25
M 475 252.35
Q 487.0154296875 254.839453125 499.35 255.05
M 590 403.95
L 592.9 398.8
Q 593.2 397.95 593.75 397.6 594.3 397.3 594.85 397.35 594.95 397.35 595.3 397.45 595.5267578125 397.5255859375 595.675 397.525
L 601.075 398.75 601.225 398.8
Q 602.6494140625 399.4662109375 603.6 401.225
L 606.65 408.55
Q 606.744921875 408.716015625 606.825 408.875 607.289453125 409.7818359375 607.5 410.75 607.5 412.15 606.5 413 605.55 413.85 604.3 414.4
L 596.55 418.7
Q 595.3 419.15 594.1 419 593.75 418.85 593.6 418.75 593.35 418.5 593.25 418.25 592.8 417.45 592.7 417.2
L 589.8 408.975
Q 589.1 406.05 590 403.95 Z
M 598.35 405.85
Q 598.35 407.2 597.5 408.15 596.65 409.1 595.45 409.1 594.25 409.1 593.4 408.15 592.55 407.2 592.55 405.85 592.55 404.5 593.4 403.55 594.25 402.6 595.45 402.6 596.65 402.6 597.5 403.55 598.35 404.5 598.35 405.85 Z
M 591.15 414.45
L 585.8 416.9
Q 583.847265625 418.04140625 582.1 419.05
L 591.25 576.15
Q 591.4830078125 576.0505859375 591.7 575.975 591.776171875 575.9515625 591.85 575.925 592.912109375 575.6509765625 593.575 576.15 594.405859375 576.7939453125 594.85 577.8 595.1 578.4 595.5 579.75 596.55 583.3 596.75 585.6 597.0837890625 588.7951171875 596.1 591.125 607.2259765625 594.0591796875 613.1 596.15 622.3 599.5 628.85 604 633.6 607.25 636.1 611.4 637.52734375 613.8119140625 637.925 616.125 638.3109375 618.4904296875 637.6 620.75 636.8 623.4 634.5 625.5 632.4 627.35 629.5 628.35 627.15 629.3 623.95 629.65 621.85 629.85 618.25 629.85 592.45 629.7 568.9 622.55 566.85 622.2 565.85 619.35 565.45 617.85 565.25 615.6 565.221484375 615.0486328125 565.225 614.4 565.1951171875 611.61640625 565.6 607
M 584.775 406.55
Q 585.292578125 411.84765625 585.8 416.9
M 582.1 419.05
Q 579.1615234375 420.7408203125 576.8 422.05 571.786328125 424.83359375 569.375 425.9 567.2556640625 426.8486328125 565.75 427.5 564.262890625 428.1453125 563.375 428.5 561.590625 429.2087890625 559.675 429.525 558.13984375 429.77734375 557.3 427.475 557.1490234375 427.1076171875 556.925 426.475 556.046875 423.96953125 554.05 417.3 552.607421875 412.4783203125 551.175 409.25 550.744140625 408.305078125 550.325 407.5 550.2490234375 408.3271484375 550.15 409.325 549.783984375 412.9595703125 549.1 418.85 548.6 423.85 547.975 426.3 547.34140625 427.6375 546.4 428.1 543.8625 429.3494140625 541.25 428.95 539.7484375 428.726171875 536.6 428.075 534.2337890625 427.6095703125 530.95 426.9 527.21171875 426.0916015625 523.35 425 519.29296875 423.844140625 515.1 422.375 511.4599609375 421.0966796875 508.95 420.25 505.80546875 419.18828125 504.425 418.8 503.434375 418.528515625 502.5 418.1
M 575.45 407.3
L 576.8 422.05
M 551.175 409.25
L 564.15 408.2 563.025 394.45
M 550.325 407.5
Q 550.23984375 401.2650390625 550.25 395.4
L 534.925 396.3 535.675 410.475 550.15 409.325
M 575.45 407.3
L 564.15 408.2 565.75 427.5
M 535.675 410.475
L 536.6 428.075
M 521.75 397.15
L 522.575 411.525 535.675 410.475
M 521.75 397.15
L 507.65 398.075 508.5 412.65 522.575 411.525 523.35 425
M 508.95 420.25
L 508.5 412.65 498.05 413.5
M 497.4 398.75
L 507.65 398.075 506.375 375.975
M 596.1 591.125
Q 596.05078125 591.2390625 596 591.35 594.95 593.75 591 597 585.7 601.1 580.5 603.85 574.75 607.05 570.1 607.35 567.9 607.45 566 606.85 563.85 606.15 562.6 604.6 561.4 603.25 560.95 601.15 560.6 599.7 560.5 597.25 560.1 592.5 560 590.25 559.7 585.4 562.75 585.1
L 554.2 449.8
Q 551.375390625 450.7205078125 544.925 452.825 538.4796875 454.9287109375 537.25 455.75 536.0140625 456.5732421875 535.6 460.525 535.189453125 464.4748046875 535.1 469.75
L 529.05 597.225
Q 529.75078125 596.9046875 530.1 597 531.5 597.35 531.75 599 532.2 600.85 532.05 604.25 531.9 607.65 531.875 608.8 531.85 609.95 531.4 612.15 530.95 614.35 530.25 615.5 529.69296875 616.335546875 528.8 617 528.4732421875 617.2306640625 528.1 617.45
M 557.8 448.25
Q 556.1498046875 449.123828125 554.2 449.8
M 499.4 593
L 499.3 593.6
Q 507.5798828125 598.2298828125 513.1 599.5 522 601.4 528.1 597.75 528.629296875 597.421484375 529.05 597.225
M 499.3 593.6
Q 499.096484375 593.4859375 498.9 593.375
M 591.25 576.15
Q 589.7611328125 576.7875 585.35 578.95 580.948046875 581.1056640625 574.8 582.725 568.64453125 584.347265625 562.75 585.1
M 468.7 629.275
Q 472.32734375 626.9822265625 477.575 624.375 479.9294921875 623.211328125 482.625 621.975 482.84609375 621.8736328125 483.075 621.775 484.575390625 621.0859375 485.975 620.45 489.3421875 618.8986328125 492.125 617.625 495.22265625 616.19375 497.6 615.1
M 528.6 630.4
Q 528.7603515625 635.18984375 528.625 636.1 528.476953125 637.1681640625 527.725 637.875 526.9681640625 638.5783203125 526.925 638.6 508.6462890625 653.605078125 494.375 659.475 480.08203125 665.366796875 474.35 665.8 468.614453125 666.23203125 463.575 665.2 458.544140625 664.15625 456 661.35 453.9310546875 658.8830078125 453.425 655.525
M 617.1 598.25
Q 615.150390625 601.1447265625 612.575 603.525 609.9984375 605.9154296875 608.75 606.75 607.701171875 607.601171875 607.975 608.4 608.249609375 609.199609375 609.25 610 610.55 610.75 611.1 610.75 611.85 610.75 613 609.85 617.65 606.25 621.75 600.5
M 565.225 614.4
Q 582.640625 618.1123046875 597.25 620.1 610.25 622 618.45 621.55 629.9642578125 620.95703125 637.925 616.125
M 609 595.35
Q 605 598.75 601.6 602.75 601 603.6 601 603.85 601 604.75 601.85 605.35 602.85 606.35 603.6 606.35 604.4 606.35 605.6 605.35 610.3 600.65 613.35 596.75
M 606.5 594.35
Q 602.5 598.35 600.35 600.25 598.65 601.75 597.35 601.75 596.2 601.75 594.85 600.85 593.85 600.35 593.75 599.75 593.6 599.1 594.6 598.1 598.6 594.7 601.5 592.85
M 492.125 617.625
L 501.85 621.35
Q 503.6 622.3 503.6 623.1 503.744921875 623.6990234375 502.85 624.675 501.970703125 625.658984375 500.85 625.85 499.725 626.0248046875 495.675 624.625 491.6208984375 623.234375 485.975 620.45
M 477.575 624.375
L 488.6 630.6
Q 490.9 632 492.5 632.1 493.75 632.1 494.8 631.5 495.95 630.9 496.5 629.85 497.1 629.25 496.85 628.35 496.7 627.95 496.25 627.65 495.7 627.3 495.35 627.1
L 483.075 621.775"/>
</defs>

<g transform="matrix( 1, 0, 0, 1, 0,0) ">
<use xlink:href="#Layer2_0_FILL"/>
</g>

<g transform="matrix( 1, 0, 0, 1, 0,0) ">
<use xlink:href="#Layer0_0_FILL"/>

<use xlink:href="#Layer0_0_1_STROKES"/>
</g>
</svg>
