
<svg xmlns="http://www.w3.org/2000/svg" version="1.1" xmlns:xlink="http://www.w3.org/1999/xlink" preserveAspectRatio="none" x="0px" y="0px" width="1280px" height="720px" viewBox="0 0 1280 720">
<defs>
<g id="Layer2_0_FILL">
<path fill="#FFFFFF" stroke="none" d="
M 1280 720
L 1280 0 0 0 0 720 1280 720 Z"/>
</g>

<g id="Layer0_0_FILL">
<path fill="#000000" stroke="none" d="
M 775.35 219.1
Q 777.85 216.35 777.85 212.5 777.85 208.65 775.35 205.9 772.85 203.15 769.3 203.15 765.75 203.15 763.25 205.9 760.75 208.65 760.75 212.5 760.75 216.35 763.25 219.1 765.75 221.85 769.3 221.85 772.85 221.85 775.35 219.1
M 675.4 224.3
Q 677.9 222 677.9 218.7 677.9 215.4 675.4 213.05 672.9 210.75 669.35 210.75 665.8 210.75 663.3 213.05 660.8 215.4 660.8 218.7 660.8 222 663.3 224.3 665.8 226.65 669.35 226.65 672.9 226.65 675.4 224.3 Z"/>
</g>

<path id="Layer0_0_1_STROKES" stroke="#000000" stroke-width="1" stroke-linejoin="round" stroke-linecap="round" fill="none" d="
M 577.65 222
L 581.35 223.45
Q 589.45 226.7 599.65 227.7 601.259765625 206.790234375 616.5 191.55 633.55 174.5 657.7 174.5 672.3138671875 174.5 684.325 180.75 705.2755859375 152.23828125 718.95 119.1 732.6 85.9 737.85 50.75 768.55 69.65 783.05 105.25 790.3265625 123.1265625 791.75 140.9 805.75 118.1 806.4 93.4 807.05 68.7 796.75 47.25 786.35 25.8 766.55 10.95 762.0470703125 7.57578125 757.35 4.775 752.61171875 1.9197265625 747.675 -0.35
M 684.325 180.75
Q 692.167578125 184.817578125 698.9 191.55 700.85 193.5 702.575 195.55 706.5744140625 186.12578125 714.4 178.3 730.4 162.3 753.05 162.3 773.75 162.3 788.9 175.675 792.303125 161.7556640625 792.075 147.775 777.919140625 146.5462890625 764.7 140.3 751.15 133.9 740.3 123.8
M 792.075 147.775
Q 792.0197265625 144.34140625 791.75 140.9
M 788.9 175.675
Q 790.32265625 176.92265625 791.7 178.3 798.3697265625 184.9697265625 802.25 192.8 803.05 192.75 804.5 191.85 808 189.2 811.65 183
M 777.85 212.5
Q 777.85 216.35 775.35 219.1 772.85 221.85 769.3 221.85 765.75 221.85 763.25 219.1 760.75 216.35 760.75 212.5 760.75 208.65 763.25 205.9 765.75 203.15 769.3 203.15 772.85 203.15 775.35 205.9 777.85 208.65 777.85 212.5 Z
M 719.6 286.35
Q 729.1 291.6 740.5 289.7 751.9 287.8 759.1 279.75 762.25 276.2 763.9 272.15 764.23671875 271.3177734375 764.5 270.5 765.6345703125 266.9146484375 765.35 263.5 765 258.25 761.45 253.75 758.05 249.35 753 247.25 748.2 245.25 742.5 245.4 737.15 245.55 732 247.5 724.178515625 250.5318359375 716.475 257.575 715.4103515625 258.5517578125 714.35 259.6
M 777.1 274.1
Q 783.45 272.8 789.05 269.05 794.55 265.35 798.25 260
M 802.25 192.8
Q 807.7 203.741796875 807.7 216.95 807.7 239.6 791.7 255.6 779.905859375 267.394140625 764.5 270.5
M 677.9 218.7
Q 677.9 222 675.4 224.3 672.9 226.65 669.35 226.65 665.8 226.65 663.3 224.3 660.8 222 660.8 218.7 660.8 215.4 663.3 213.05 665.8 210.75 669.35 210.75 672.9 210.75 675.4 213.05 677.9 215.4 677.9 218.7 Z
M 716.475 257.575
Q 715.42265625 256.62265625 714.4 255.6 713.338671875 254.538671875 712.35 253.45 708.1138671875 264.7361328125 698.9 273.95 681.85 291 657.7 291 633.55 291 616.5 273.95 609.2794921875 266.7294921875 605.3 258.55 602.1478515625 261.0771484375 598.4 264 594.6525390625 266.91796875 588.3 271.5 581.9439453125 276.08828125 570.2 283.7 558.4623046875 291.3029296875 550.05 295.975 541.6396484375 300.64921875 534.65 295.125 527.651953125 289.5951171875 518.7 285.95 513.6009765625 283.87578125 508.475 282.775 501.7578125 281.301171875 495 281.5 486.712890625 281.765234375 479.1 284.475 475.240625 285.8447265625 471.55 287.85 460.25 294 454 304.35 446.55 316.55 447.6 332.4 448.6 347.45 456.75 360.35 461.8 368.35 468.8 374.45 476 380.75 484.5 384.25 495.2 388.8 507.1 388.65 519 388.5 529.6 383.6 538.02265625 394.2673828125 547.65 403.55 562.2419921875 417.6609375 579.6 428.6 580.984375 429.47109375 582.375 430.325 584.972265625 430.865234375 587.35 432 591.0576171875 433.7544921875 594.225 437.05 598.9375 439.5361328125 603.775 441.8 609.998046875 444.721484375 616.425 447.275 627.9685546875 451.8453125 640.15 455.2 656.1009765625 459.6171875 672.2 461.65 688.8955078125 463.7828125 705.75 463.35 718.2177734375 463.038671875 730.25 461.35 745.5263671875 459.198828125 760.1 454.825 765.3974609375 453.2333984375 770.6 451.35 796.35 442.2 814.75 427.5 835.9 410.25 847.25 384.35 858.55 358.45 856.85 331.25 855.15 303.95 840.7 279.6 826.25 255.3 803.1 240.85
M 702.575 195.55
Q 715.95 211.3619140625 715.95 232.75 715.95 243.84921875 712.35 253.45
M 626 351.6
Q 661.1703125 355.6232421875 695.425 352.075 712.2455078125 350.324609375 728.85 346.75 733.8 345.65 736.7 344.7 740.9 343.3 743.85 341.25 747.3 338.8 749.15 335.2 750.4314453125 332.733203125 750.675 330.275 750.79765625 328.883203125 751.05 327.1 746.9029296875 324.7548828125 741.75 322.75 718.0232421875 313.44609375 692.25 314.075 690.75 324.25 689.85 329.1 689.35 332.7 690.75 334 691.3 334.5 692.25 334.75 692.7 334.85 694 335
L 714.5 336.5
Q 719.55 337 722.25 335.85 726.45 334.1 728.5 328.75 729.15 326.65 729.45 323.9 729.6 322.5 729.75 319
M 692.25 314.075
Q 686.304296875 314.2251953125 680.25 314.9 679.443359375 314.988671875 678.625 315.1
L 678.575 315.1
Q 678.0986328125 323.304296875 678 327 677.75 330.75 677.25 332.8 676.55 335.95 674.85 337.85 672.9 340.05 669.45 341.05 666.95 341.75 662.85 342 652.3 342.95 645.85 341.6 641.048046875 340.647265625 639.725 338.275 638.4083984375 335.90859375 638.95 331.775 639.48359375 327.6373046875 640.125 325.8 630.866796875 330.04140625 622.3 335.8 624.6669921875 343.1259765625 625.65 351.1 627.028125 362.247265625 624.925 372.6 678.584375 362.70390625 733.5 369 744.4 370.25 750.25 369.6 759.45 368.6 764.1 363.1 768.45 358.15 768.15 350.7 767.85 343.65 763.75 337.85 759.4373046875 331.7990234375 751.05 327.1
M 695.425 352.075
Q 702.3537109375 353.2521484375 707.35 356.25 714.15 360.5 716.25 366.85
M 833.35 297.1
Q 833.35 306.05 827.4 312.4 821.5 318.75 813.15 318.75 804.8 318.75 798.85 312.4 792.95 306.05 792.95 297.1 792.95 288.15 798.85 281.8 804.8 275.45 813.15 275.45 821.5 275.45 827.4 281.8 833.35 288.15 833.35 297.1 Z
M 807.25 205.8
Q 813.7 202.85 819.45 193.95
M 828.85 586.1
Q 824.61328125 558.1419921875 824.525 547.425 824.423828125 536.7041015625 825.2 534.925 825.981640625 533.146484375 827.2 531.675 828.409375 530.201953125 830.5 529.525 832.59765625 528.8494140625 834.5 529.25 836.4 529.65 837.9 530.95 839.45 532.25 840.5 534.2 840.0955078125 532.7998046875 839.875 531.95 839.101953125 528.9455078125 839.825 525.675 840.542578125 522.4119140625 843.45 520.3 846.3533203125 518.1916015625 849.125 518.7 851.907421875 519.1953125 855 522.525 858.0865234375 525.8578125 859.25 530.75 858.8587890625 528.90859375 858.75 527.725 858.3853515625 523.791796875 860.6 522.275 862.826171875 520.757421875 865.05 520.8 867.2734375 520.837890625 867.975 521.05 868.666015625 521.26953125 870.1 522.2 871.545703125 523.12265625 872.95 524.825 874.3505859375 526.5337890625 876.95 533.875 879.5546875 541.2095703125 881.6 550.5 886.95 574.65 887.85 598.6 888.1 606.55 887.35 611.5 886.3 618.5 883 623.25 880.4 626.95 875.95 629.85 872.4 632.2 867.1 634.35 859.8978515625 637.340625 852.35 639.15 853.25 649.9 851.5 659.1 849.8 668.2 845.85 676.5 840.75 687.2 833 693.75 819.1 705.25 792.5 705.25 787.4802734375 705.25 782.5 704.925 770.952734375 704.14921875 759.6 701.6 753.3462890625 700.1951171875 747.15 698.25 747.9306640625 709.60546875 747.15 720.2
M 866.8 575.9
Q 866.0857421875 553.95234375 862.6 542.8 860.16328125 535.0123046875 859.25 530.75
M 849.05 569.85
Q 846.6955078125 554.7 843.675 544.825 841.509375 537.7474609375 840.5 534.2
M 760.1 454.825
Q 765.0068359375 461.2451171875 763.3 470.95 761.85 479.3 756.1 487.85 744.95 504.6 727.6 515.8 711.7626953125 526.08515625 693.9 529.7 692.1328125 530.058203125 690.35 530.35 670.5 533.7 650.45 528.85 644.984765625 527.5142578125 639.85 525.625 626.1205078125 520.569921875 614.7 511.55 613.6 510.65 613.6 509.6 614.35 480.1 603.6 453 600.65 445.55 597.3 440.8 595.8298828125 438.7216796875 594.225 437.05
M 672.2 461.65
L 668.175 473.525
Q 675.175390625 474.8578125 682.2 475.6 695.7431640625 477.0259765625 708.3 474.425 712.0736328125 473.6416015625 715.75 472.5 727.5 468.85 730.25 461.35
M 698 542.75
Q 696.75 542.9 695.85 543.6 694.95 544.7 695.25 546.85 696 557.7 698.25 568.35 698.8 570.3 699.35 570.75 699.85 571.15 700.7 571.25 700.95 571.25 702.25 571.25 705.5 570.7 706.85 570.35 708.95 569.85 709.6 568.75 710.2 567.85 710 565.85
L 708.75 551.6
Q 708.465625 547.3546875 708.475 546.8 708.48203125 546.2412109375 708.175 543.85 707.8720703125 541.465234375 705.15 541.675 702.437890625 541.8865234375 698 542.75 Z
M 708.3 474.425
Q 710.6876953125 487.545703125 705.6 503.5 703.5 509.9 700.05 517.35 697.8494140625 522.0787109375 693.9 529.7
M 576.35 548.6
Q 582.35 547.05 588.75 543.6 595.2408203125 540.15390625 597.625 537.575 600.0193359375 534.98359375 600.4 532.675 600.78046875 530.378515625 599 527.275 597.209765625 524.15859375 595.45 523.25 594.1 522.5 591.85 523.75 583.795703125 528.0943359375 579.075 530.875 579.0583984375 530.95703125 579.05 531.05 572.7998046875 561.8369140625 573.6 594.75 581.6404296875 595.4294921875 592.525 596.175 598.4013671875 596.5794921875 605.1 597 611.2654296875 597.3736328125 615.175 597.45 616.973828125 597.3349609375 621.425 597.125 625.8740234375 596.91640625 631.15 595.775 626.073828125 581.9853515625 624 567.6 623.35 563.1 623.25 560.05 623.15 555.95 624 552.6 624.8 549.35 626.55 547 628.5 544.35 631.25 543.35 634.15 542.3 637.15 543.8 640.2 545.35 641.375 548.5 641.3646484375 548.3712890625 641.35 548.25 640.8 544 641.75 540.75 642.9 536.9 646.3 534.6 649.85 532.15 653.35 533.25 656.7 534.35 658.7 538.35 660.0927734375 541.1353515625 661.225 545.675 660.5921875 542.8765625 660.55 541.15 660.4 538.1 661.75 536 663.35 533.5 666.75 532.9 669.9 532.35 672.85 533.75 677.45 536.05 680.85 543 683.8 548.8 685.8 556.8 686.95 561.45 688.75 571.25 690.3984375 580.1603515625 694.4 599.35 702.95 589.75 712.5 586.85 717.9 584.95 721.35 587.1 723.35 588.35 724.15 591 724.95 593.45 724.35 596 723.85 598.2 722.45 600.65 721.85 601.75 719.75 604.85 711.2 617 705.85 623.05 697.4 632.55 688.6 637.75 688.155859375 638.0177734375 687.7 638.275 698.783984375 639.881640625 708 643.35 715.9 646.25 719.1 650.5 722.0443359375 654.5517578125 722.175 659.95 722.3154296875 665.34296875 722.3 671.25 722.269140625 677.1568359375 720.675 681.325 719.0923828125 685.5056640625 715.8 686.975 715.606640625 687.0607421875 715.425 687.15 716.65 694.4 716.65 703.4 716.65 706.6142578125 716.375 713.45 716.2572265625 716.185546875 716 720.35
M 672.3 586.05
L 661.5 546.75
Q 661.4083984375 546.3890625 661.325 546.05
L 661.225 545.675
M 747.15 698.25
Q 746.3404296875 686.2650390625 743.9 672.65 742.7033203125 666.0677734375 737.45 643.25 735.68046875 635.5767578125 733.45 626.05 732.387890625 621.4982421875 731.45 617.225 731.425 617.1138671875 731.4 617 726.5458984375 594.63125 725.25 579.75 723.1 554.55 728.6 534
M 749.85 559.1
Q 745 566.55 739 572.25 736.9 574.35 735.25 573.75 734.1 573.2 733.6 571.1 732.4 566.85 732 564.45 731.45 560.7 732.1 557.85 733.1 554.3 737 549.1 740.0267578125 544.950390625 746.2 536.75 746.175 536.5869140625 746.15 536.425 743.7470703125 520.82578125 742.1 504.85
M 782.35 590.6
L 778.75 603
Q 776.75 610.5 776.25 614.35 775.75 617.75 777.1 619.1 778.65 620.5 781.85 620 783.65 619.85 787.5 619.35 789.8 619.15 791 618.25 791.99453125 617.45078125 792.725 616.375 793.4619140625 615.30390625 793.95 612.475 794.437890625 609.6458984375 795.75 602.425 797.0552734375 595.1990234375 797.35 591.125 782.1703125 590.9904296875 768.85 587.1 763 585.55 759.85 582.75 757.6 580.65 755.85 576.85 753.3 571.7 751.5 564.95 750.25 560.2 748.85 552.5 747.42890625 544.6755859375 746.2 536.75
M 832 615.85
Q 821.7 610.05 814.9 604.15 806.4 596.85 802 588.35 800.25 585.1 800 582.2 799.65 578.65 801.6 576.5 803.95 573.8 808.35 574.25 811.3 574.55 815.25 576.85 827.15 583.5 836.4 594.1
M 802.95 591.05
Q 800.119140625 591.1501953125 797.35 591.125
M 814.95 604.8
Q 808.3 626.7 806.25 637.4 806.1681640625 637.8369140625 805.95 639.05
L 805.775 640.05
Q 805.76015625 640.137890625 805.75 640.225 805.6873046875 640.645703125 805.7 641.25 821.0927734375 642.6861328125 836.8 641.55 838.3810546875 641.4302734375 839.95 641.275 846.262109375 640.594921875 852.35 639.15
M 805.75 640.225
Q 805.658984375 640.738671875 805.575 641.25 805.6341796875 641.25546875 805.7 641.25 805.694921875 641.400390625 805.7 641.55
L 805.575 641.25
Q 803.140234375 656.3333984375 804.25 668.85 804.7505859375 676.0056640625 806.225 680.1 807.6982421875 684.182421875 810 686.125 812.3017578125 688.0673828125 817.325 686.9 822.3494140625 685.744140625 827.85 677.25 832.9 669.3 835.7 660.1 838.4482421875 651.005859375 839.95 641.275
M 737.45 643.25
Q 741.25 628.3 751.35 615.85 753 614 753 612.85 752.8 611.2 750.6 609.75 747.45 607.25 745.05 606.2 741.65 604.75 738.85 605.6 735.75 606.45 733.6 610.35 732.291796875 612.96640625 731.4 617
M 759.6 701.6
Q 766.2 694.7 769.5 690.35 774.55 683.8 777 677.6 777.8 675.6 778.25 674.85 779.05 673.35 780.1 672.5 783.3 670.3 789.5 673.5 791.7 674.7 792.2 675 793.6 675.95 794.25 677.1 796.15 680.3 794 685.5 792.3939453125 689.202734375 788.825 695.6 785.267578125 701.9916015625 782.5 704.925
M 694.4 599.35
Q 694.876953125 601.69921875 695.4 604.2
M 658.85 642.1
Q 664.5 636.1 666.85 627.85 669.2 619.6 667.5 611.5
M 680.8 654.45
Q 679.662109375 654.196484375 678.5 654 671.6 652.85 664.3 652.7
M 654.9 652.6
Q 655.0412109375 653.694921875 655.65 654.4 656.35 655.05 658.15 655.25 662.25 655.75 663.55 653.65 663.95 653.05 664.1 652.25 664.25 651.2 664.3 650.65 664.35 648.6 664.3 646.475 660.144921875 647.2900390625 655.1 648.05 654.9 650.0220703125 654.9 651.25 654.828125 651.9861328125 654.9 652.6 649.8572265625 651.5421875 645.75 651.9 643.379296875 660.7791015625 640.325 668.425 675.9810546875 671.8623046875 710.15 661.7
M 615.175 597.45
Q 600.2919921875 616.5765625 592.65 641.75 591.133203125 646.79296875 590 651.85 612.2392578125 652.529296875 634.15 650.55 640.3130859375 649.9923828125 646.45 649.225 649.7251953125 648.8201171875 653 648.35 654.073046875 648.1974609375 655.1 648.05
M 715.425 687.15
Q 712.3228515625 688.3771484375 709.425 687.4 706.343359375 686.37109375 704.65 687.2 702.9576171875 688.0201171875 699.625 690.325 696.287109375 692.62578125 692.95 694.375 689.6111328125 696.118359375 685.05 695.5 680.4962890625 694.8943359375 676.55 691.05 672.9 687.55 670.25 687 667.2 686.35 663.5 688.35 661.35 689.45 657.25 692.35 650 697.25 640.95 697.85 632.523828125 698.4056640625 625.175 695.05 621.4583984375 699.915625 617.25 704.35 611.5115234375 710.4982421875 605.65 714.725 618.0720703125 718.584765625 630.85 720.6
M 664.3 646.475
Q 668.25078125 645.6869140625 671.4 644.85 680.69765625 642.3142578125 687.7 638.275
M 671.4 707.05
Q 671.4 707.65 671 708.05 670.6 708.45 670 708.45 669.4 708.45 669 708.05 668.6 707.65 668.6 707.05 668.6 706.45 669 706.05 669.4 705.65 670 705.65 670.6 705.65 671 706.05 671.4 706.45 671.4 707.05 Z
M 687 720.6
Q 701.76328125 718.263671875 716.375 713.45
M 862.75 619.05
Q 864.7 616.8 865.75 613.6 866.7 610.65 866.6 607.25 866.4 602.75 864.75 598.6 863.05 594.35 859.3 590.35
M 621.675 -0.3
Q 594.9341796875 2.3626953125 570.7 8.4 550.6 13.35 531.85 20.85 516.986328125 26.755859375 502.975 34.2 479.83515625 91.0158203125 480.35 154.35 480.8998046875 222.029296875 508.475 282.775
M 603.25 180.85
Q 619.15 171.7 632.95 159.2 646.7 146.8 657.5 131.85
M 502.975 34.2
Q 492.2123046875 39.946875 481.95 46.6 481.25 47.15 480.5 47.65 477.5 49.55 474.6 51.6 464.3185546875 58.76171875 454.9 66.7 442.962890625 117.7494140625 447.9 171.25 453.35 230.85 479.1 284.475
M 454.9 66.7
Q 452.6279296875 68.6302734375 450.4 70.6 449.969140625 70.9763671875 449.55 71.35 449.4943359375 71.3998046875 449.45 71.45 428.0091796875 90.5998046875 410.95 113.35 410.880859375 113.466796875 410.8 113.575 410.7060546875 113.7076171875 410.6 113.85 410.407421875 114.09765625 410.225 114.35 410.057421875 114.5751953125 409.9 114.8 409.8439453125 114.8806640625 409.8 114.95 385.4291015625 150.1353515625 376.3 209.1 372.85 231.6 371.55 263 370.85 281.15 370.2 317.1 368.1 419.4 344.6 518.5 342.3 526.25 333.8 531.2 325.25 536.15 314.2 538.5 307 540.05 293.8 540.85 279.35 541.75 273.3 542.75 259.3 544.95 247.05 551.2 234.25 557.75 225.2 567.85 216.05 577.8 209.7 592.85 203.45 607.05 202.05 620.75 200.3 638.15 206.25 655 212.2 671.95 224.55 684.1 236.95 696.35 254.1 701.75 270.03984375 706.848828125 287.1 704.7 289.720703125 697.251171875 295.3 690.75 301.05 684 309.05 679.75 312.85 677.7 316.45 677.35 320.7 676.9 323.55 679 325.35 680.4 326.2 682.7 327.05 684.95 326.55 687.1 325.35 692.1 317.7 696.1 304.626953125 702.5380859375 287.45 704.65 287.3234375 704.880859375 287.1 704.7 286.997265625 704.91171875 286.9 705.125 283.667578125 711.9484375 282.45 720.05 282.35390625 720.6853515625 282.3 721.3
M 449.45 71.45
Q 421.8 64.5 399.1 63.5 393.15 63.2 389.85 64.35 387.5 65.15 385.85 66.8 384.05 68.6 383.6 70.85 383 74.5 386.1 77.8 388.8 80.65 393 82.1 396.487109375 83.334375 400.175 83.75 402.445703125 84.007421875 404.8 83.95 410.95 83.85 417.5 82.1
M 400.175 83.75
Q 397.1412109375 86.2013671875 393.6 89.5 388.8 94.05 386.6 98.1 384.25 102.25 384.25 106.5 384.35 108.75 385.2 110.75 386.1 112.9 387.75 114.25 390 116.2 394.35 116.85 398.6 117.4 402.8 116.45 407 115.45 410.95 113.35
M 602.75 212.1
Q 597.75 211.85 593.25 209.55 588.7 207.2 586.1 204.1
M 605.3 258.55
Q 599.45 246.67265625 599.45 232.75 599.45 230.18671875 599.65 227.7
M 606.75 329.3
Q 606.75 339.6 599.45 346.9 592.15 354.2 581.85 354.2 571.55 354.2 564.25 346.9 556.95 339.6 556.95 329.3 556.95 319 564.25 311.7 571.55 304.4 581.85 304.4 592.15 304.4 599.45 311.7 606.75 319 606.75 329.3 Z
M 622.3 335.8
Q 619.2708984375 326.3396484375 613.95 317.95
M 620.85 385.35
Q 623.58203125 379.13046875 624.925 372.6
M 626 294.5
Q 634.95 300 645.8 301.2 656.55 302.4 666.5 299.1
M 541.2 500.725
Q 541.45703125 500.70703125 547.875 501.45 554.2990234375 502.1923828125 562.05 502 569.8 501.8056640625 571.125 501.625 572.4505859375 501.4484375 574 500.85 575.95 500.2 577.5 498.15 578.6 496.7 579.75 494.1 580.75 491.85 581.05 490.5 581.5 488.35 580.85 486.85 579.4 483.65 573 483.1 567.1 482.75 555.25 482.75 552.45 482.75 551.1 482.9 548.8 483.15 547.25 484 544 485.75 541.75 490.5 540.05 494.45 539.85 498.1 539.64921875 499.3544921875 539.8 499.85 539.9546875 500.3404296875 540.45 500.55 540.9412109375 500.75234375 541.2 500.725 Z
M 616.425 447.275
L 614.55 453.425
Q 616.91875 455.199609375 619.575 456.725 627.1958984375 461.1060546875 639.225 465.425 642.9392578125 466.7689453125 647.075 468.1 657.6052734375 471.4892578125 668.175 473.525
M 603.775 441.8
Q 608.048828125 448.54765625 614.55 453.425
M 538.45 448.55
Q 533.65 441.05 532.7 434.85 531.75 428.6 533.25 422.6 534.75 416.6 538.55 411.6 542.362109375 406.64921875 547.65 403.55
M 506.35 720.25
Q 505.70390625 709.515234375 508.825 703.175 495.585546875 695.1533203125 485.95 684.95 481.153515625 679.8705078125 477.25 674.25 475.5552734375 671.809375 474.025 669.25 473.9408203125 669.109765625 473.85 668.975 465.3404296875 654.6650390625 461.85 636.75 458.05 617.1 460.75 595.75 463.2 576.85 470.75 556.1 476.95 539.05 487.5 518.6 491.950390625 509.859765625 496.45 502.05 505.9291015625 485.535546875 515.6 473.15 523.878125 462.516796875 532.875 454.075 533.1228515625 453.8345703125 533.375 453.6 538.0703125 449.22265625 545.225 443.7 545.5111328125 443.4720703125 545.8 443.25 548.732421875 441.0107421875 554.35 437.6 570.5833984375 427.8435546875 582.375 430.325
M 545.225 443.7
Q 548.58203125 446.5322265625 555.35 451.85 557.85 453.85 558.35 455.35 558.85 457 558 458.95 557.25 460.6 555.75 462.1 552.4 465.75 549.05 465.7 546.5708984375 465.527734375 542.45 462.45 538.337109375 459.3783203125 532.875 454.075
M 496.45 502.05
Q 499.1048828125 506.0466796875 503.35 508.7 507.8 511.4 512.75 511.85 514.75 512.2 515.35 512.6 516.4 513.25 516.6 514.6 516.85 516.15 515.85 519 515.15 521.25 514.4 522.55 513.35 524.4 511.85 525.25 510 526.25 507.4 525.8 505.5 525.5 502.85 524.25 495 520.55 489.35 516.1
M 557.25 552
Q 558.6 556.6 556.75 560.25 555.05 563.25 549.6 566 544.05 568.8 536.55 571.5 533.3 572.7 523.1 576.1 521.05 576.7 520.5 576.8 519.05 577.05 518 576.6 516.5 576.05 515.45 574.3 514.7 573.1 514 570.85 512.65 566.65 514 564.75 514.65 563.95 515.8 563.4 516.3 563.15 518 562.6 532.05 558.85 546 551.25 548.85 549.7 550.4 548.5 552.6015625 546.7876953125 554.3 547.75 556.166796875 548.7505859375 557.25 552 Z
M 639.225 465.425
Q 634.650390625 479.794140625 634.8 495.2 634.95 510.6 639.85 525.625
M 579.075 530.875
Q 581.7990234375 517.4841796875 585.85 504.5
M 654.65 589.35
Q 648.1 573.35 643 555.85 641.7544921875 551.3466796875 641.375 548.5
M 485.95 684.95
Q 489.3 665.95 497.75 649.75 499 647.3 499.45 646 500.2 643.85 499.85 642.1 499.25 638.75 494.6 635.85 489.85 632.7 486.85 634 485.5 634.55 484.45 636.1 483.75 637.15 482.85 639.1 476.4814453125 653.6984375 473.85 668.975
M 631.15 595.775
Q 633.7666015625 602.9466796875 637.2 609.95
M 573.6 594.75
Q 570.45 600.1 568.5 606.1 568.2 607.6 568.15 607.85 568.05 608.85 568.35 609.5 569.25 611.9 573.75 612.1 577.55 612.35 579.95 612 583.35 611.5 585.35 609.75 587.05 608.25 588.35 605.35 590.5138671875 601.46484375 592.525 596.175
M 534.65 590
Q 550.25 592.6 569.7 594.4 571.562109375 594.5705078125 573.6 594.75
M 634.15 650.55
Q 625.1 670.9 619.05 680.35 610.8 693.4 600.1 700 594.6 703.5 590.85 701.6 587.35 699.85 586.85 692.6 585.4515625 672.0234375 590 651.85
M 640.325 668.425
Q 637.7935546875 674.765234375 634.8 680.25 630.497265625 688.0892578125 625.175 695.05
M 646.45 649.225
Q 646.1119140625 650.570703125 645.75 651.9
M 556 720.45
Q 554.75 715.05 554.05 709.2 553.6 705.15 553.25 698.6 552.95 695.15 554.25 693.85 555.3 692.95 558.1 692.75
L 564.25 692.35
Q 567.75 692.15 569.1 693.5 569.85 694.25 570.1 695.6 570.25 696.45 570.25 698.1 570.4 703.3 571.95 709.45 573.05 713.85 575.35 720.35
M 552.575 720.95
Q 551.917578125 720.7794921875 551.25 720.6 527.85 714.5 509.85 703.8 509.328515625 703.4904296875 508.825 703.175
M 605.65 714.725
Q 600.196875 718.6734375 594.65 720.95
M 640.125 325.8
Q 658.05703125 317.59375 678.575 315.1"/>
</defs>

<g transform="matrix( 1, 0, 0, 1, 0,0) ">
<use xlink:href="#Layer2_0_FILL"/>
</g>

<g transform="matrix( 1, 0, 0, 1, 0,0) ">
<use xlink:href="#Layer0_0_FILL"/>

<use xlink:href="#Layer0_0_1_STROKES"/>
</g>
</svg>
