
<svg xmlns="http://www.w3.org/2000/svg" version="1.1" xmlns:xlink="http://www.w3.org/1999/xlink" preserveAspectRatio="none" x="0px" y="0px" width="1280px" height="720px" viewBox="0 0 1280 720">
<defs>
<g id="Layer1_0_FILL">
<path fill="#FFFFFF" stroke="none" d="
M 1280 720
L 1280 0 0 0 0 720 1280 720 Z"/>
</g>

<path id="Layer0_0_1_STROKES" stroke="#000000" stroke-width="1" stroke-linejoin="round" stroke-linecap="round" fill="none" d="
M 816.1 -0.25
Q 831.3 39.4 827.35 83.15 823.35 126.9 801.25 163.25
L 800.125 165.1
Q 808.108984375 161.0927734375 816.75 154.1 822.5 149.6 825 146.1 827.25 142.75 827.25 139.75
M 693.25 -1.6
Q 678.45 39.95 652.95 76.8 627.7294921875 113.2904296875 594.225 141.85 612.6880859375 149.2380859375 627.9 164.45 634.177734375 170.727734375 639.125 177.55 645.5986328125 165.86953125 655.75 155.7 683.8 127.7 723.4 127.7 752.861328125 127.7 775.9 143.2
L 775.85 139.25
Q 775.1 114.6 774.2 102.4 772.65 82 769.25 66 768.665625 63.197265625 768.025 60.475 766.66328125 59.2423828125 765.25 58.05 746.8 42.4 724 38.1
M 791.75 95.5
Q 784.4056640625 75.3609375 768.025 60.475 759.1482421875 23.308203125 738 0.25
M 725.4 186.05
Q 725.4 192.1 720.9 196.4 716.4 200.7 710.05 200.7 703.7 200.7 699.2 196.4 694.7 192.1 694.7 186.05 694.7 180 699.2 175.7 703.7 171.4 710.05 171.4 716.4 171.4 720.9 175.7 725.4 180 725.4 186.05 Z
M 639.125 177.55
Q 657.55 202.971484375 657.55 236 657.55 260.781640625 647.175 281.275 647.925390625 282.2373046875 648.7 283.2 668.5037109375 269.594921875 686.25 260.45 687.8470703125 259.6287109375 689.45 258.825 686.9025390625 256.9162109375 684.5 254.7 666.45 238.1 666.45 214.6 666.45 191.1 684.5 174.45 702.55 157.85 728.1 157.85 753.65 157.85 771.7 174.45 789.75 191.1 789.75 214.6 789.75 227.63046875 784.2 238.55 800.1943359375 240.1638671875 814.5 245.6
L 816.475 246.3
Q 819.05 235.36015625 819.05 223.35 819.05 183.75 791 155.7 783.83125 148.53125 775.9 143.2
M 788.6 153
Q 790.75 152.85 793.05 151.15 794.5 150.1 796.75 147.75 801.8 142.4 804.2 139.45 808.1 134.65 810.35 130.25
M 769.1 237.5
Q 774.35 229.75 774.75 220 774.95 216.65 773.85 214.85 773.2 213.65 772 213.05 770.75 212.4 769.5 212.75 767.5 213.35 766.25 217.25 764.15 224.05 762 232 761.6 233.6 760.25 238.2 765.74921875 237.8248046875 771.2 237.85 777.8337890625 237.8927734375 784.2 238.55
M 820.1 268.25
Q 813.66484375 268.5048828125 807.025 270.225 792.8435546875 273.8923828125 777.75 284.25 757.8349609375 297.878515625 742.975 317.15 741.64140625 318.87734375 740.35 320.65 725.5595703125 341.045703125 718.225 364.6 717.7728515625 366.0400390625 717.35 367.5 712.937890625 382.9419921875 711.9 398.95 711.298828125 408.3158203125 711.85 417.875 711.8982421875 418.6328125 711.95 419.4 713.8 446.1 724.35 470.1
M 723.45 215.7
Q 723.45 217.25 722.3 218.35 721.2 219.5 719.65 219.5 718.1 219.5 716.95 218.35 715.85 217.25 715.85 215.7 715.85 214.15 716.95 213 718.1 211.9 719.65 211.9 721.2 211.9 722.3 213 723.45 214.15 723.45 215.7 Z
M 694.85 221.55
Q 694.85 224.55 692.7 226.7 690.55 228.85 687.55 228.85 684.55 228.85 682.4 226.7 680.25 224.55 680.25 221.55 680.25 218.55 682.4 216.4 684.55 214.25 687.55 214.25 690.55 214.25 692.7 216.4 694.85 218.55 694.85 221.55 Z
M 648.7 283.2
Q 651.971484375 287.171484375 655.75 290.95 656.787109375 291.987109375 657.85 292.975 663.6982421875 289.390234375 669.5 287.1 680.55 282.8 690.75 283.5 702.1 284.3 711 291.6 720.35 299.3 721.35 309.85 721.769921875 314.3923828125 720.575 318.975 721.9861328125 319 723.4 319 733.5689453125 319 742.975 317.15
M 689.45 258.825
Q 708.77109375 249.2203125 727.25 244 743.935546875 239.3236328125 760.25 238.2
M 720.575 318.975
Q 720.2205078125 320.3806640625 719.7 321.8 717.6 327.5 713.35 332.25 705.9 340.6 693 344.85 685 347.45 676.6 347.95 668.15 348.45 660 346.75
M 647.175 281.275
Q 645.8015625 283.969921875 644.25 286.6 637.69765625 297.7189453125 627.9 307.5 598.3 337.15 556.4 337.15 554.4013671875 337.15 552.425 337.075 554.053515625 340.7255859375 555.475 344.45 576.5921875 360.0470703125 598.3 368.75 622.9 378.65 646.6 379 655.1478515625 379.077734375 664.65 377.875 673.512890625 376.7669921875 683.2 374.55 695.101171875 371.79609375 718.225 364.6
M 664.65 377.875
Q 663.85 383.974609375 663.85 395.75 663.85 397.85 664 398.9 664.25 400.6 665 401.75 666.75 404.5 672.25 405.5 681.9 407.1 691.7 405.6 701.55 404.15 710.35 399.75
L 711.9 398.95
M 805.5 297.55
Q 800.15 297.6 795 299.75 786.8 303.2 777.85 312.35 765.25 325.4 756.35 341.25 748.75 354.65 748 365.35 747.5 372.1 749.6 378.2 751.9 384.65 756.6 388.75 763 394.25 772.8 394.4 781.55 394.6 790.35 390.6 801.5 385.5 810.35 375.75 818.7 366.5 823.75 354.6 830.6 338.65 828.85 324.6 827.9 316.75 824.15 310.05 820.7330078125 303.908203125 815.625 299.925 811.175 297.55 805.5 297.55 Z
M 650.35 298.1
Q 654.106640625 295.277734375 657.85 292.975
M 816.475 246.3
Q 815.9494140625 248.5236328125 815.325 250.7 837.021484375 257.7728515625 853.65 274.6 870.4 291.5 877.25 313.5
M 903.25 408.85
Q 904.5 402.9 905.5 396.25 907.85 379.95 905.45 363.4 903.05 346.9 896.25 332 892.75 324.5 888.5 320.15 883.05 314.55 876.75 314.5 874.65 314.4 873 315.45 871.1 316.65 871.35 318.5 871.4005859375 318.7630859375 871.525 319.05 872.03515625 320.1642578125 873.75 321.6 884.9 331.1 889.6 345.65 894.25 360.3 890.6 374.5
M 871.525 319.05
Q 868.4623046875 317.4005859375 864.4 318.15 859.45 319.05 856.25 322.75 853.4 326.1 852.1 331.1 851.05 335 850.85 340.5 850.75 346.85 852.05 360.4 853.35 373.4 853.1 380.25 852.6 391.6 848.2 406 847.7 407.7 839.5 431 834.25 446.15 832.5 456.55 830.1 470.9 832.75 482.6 835.7 496.05 845.7 505.45 846.1796875 505.8958984375 846.675 506.325 846.7568359375 506.160546875 846.85 506
M 815.325 250.7
Q 812.3466796875 260.9517578125 807.025 270.225
M 1045.65 458.2
Q 995.4935546875 430.3845703125 941.85 408.6 930.3056640625 403.8984375 919.8 402.85 909.285546875 401.8005859375 899.15 416.85 889.01015625 431.9041015625 881.15 458.75 874.76484375 480.58515625 872.625 503.525 872.35078125 506.349609375 872.15 509.2 872.021875 511.71640625 871.9 514.1 871.8837890625 514.451171875 871.875 514.8 871.016015625 533.6568359375 871.25 544.3 871.8 567 876.45 584.5 881.2 601.9 889.85 611 895.85 617.3 905.85 621.95 910.063671875 623.8974609375 917.6 626.5 920.687890625 627.5681640625 924.35 628.75 951.1619140625 637.328125 999.4 652.65 1012.130078125 631.2650390625 1017.25 620.05 1026.1 600.6 1027.35 583.75 1028.25 570.95 1024.85 551.2 1020.25 524 1019.75 518.6 1018.1 500.5 1023 485.55 1028.65 468.3 1041.85 460.6
L 1045.65 458.2
Q 1062.959375 467.788671875 1079.85 478.1 1113.75 498.65 1133.1 517.65 1159 543.15 1166.25 572 1173.65 601.1 1160.85 630.65 1148.4611328125 659.266015625 1123.325 673.9 1122.585546875 674.3185546875 1121.85 674.725 1091.441015625 691.384765625 1048.35 692.8 1030.75 693.3 1009.4 691.25 994.55 689.8 970.3 684.5
L 969.35 684.25
Q 942.5724609375 680.5701171875 917.35 670.8 904.1880859375 665.7046875 891.45 658.95 854.3 639.3 826.75 608.75
M 846.675 506.325
Q 856.9197265625 515.323046875 869 514.75
L 871.875 514.8
M 711.85 417.875
Q 705.68984375 425.036328125 697 429.5 692.35 431.85 686.1 433.65 685.2767578125 433.8935546875 684.225 434.175 690.4 438.25 695 444.2 699.5 450.1 701.85 457.1
M 684.225 434.175
Q 680.7646484375 435.1173828125 674.85 436.5 667.45 438.15 663.9 438.7 657.75 439.65 652.85 439.5
L 652.025 439.475
Q 655.3556640625 442.07578125 658.35 445.25 673.8 461.8 679.5 491.25
M 770.85 590.25
Q 776.9 599.5 778.65 611.5 780.25 622.55 778 634.35 775.95 644.85 770.9 656.05 766.6 665.45 759.75 676.1
M 732.1 632.35
Q 715.4478515625 641.026171875 697.7 646.35 703.7728515625 653.51875 706.85 662.75 709.9 672 709.25 681.5
M 917.6 626.5
Q 916.1740234375 628.0623046875 915.35 630.5 914.5 633.05 914.1 637.25 913.15 653.65 916.85 668.75
L 917.35 670.8
M 819 672.1
Q 820.75 662.5 825.5 635.1 826.75 627.85 827.55 624.3 828.85 618.3 830.6 613.75
M 433.75 313.75
Q 432.25 319.5 431.95 321.05 431 325.25 430.85 328.5 430.5 333.65 431.65 340 432.3 343.6 434.25 351.35
L 435.1 354.275
Q 437.992578125 354.9748046875 440.65 357.3 444.3 360.45 446 365.25 447.3 369.15 447.5 374.65 447.65 377.85 447.6 384.25 447.85 407.5 456.6 428.5 459.2 434.7 465.6 446.75 471.95 458.75 474.6 465.1 484.05 488 478.35 504.85 476.5 510.3 472.6 516.35 470.05 520.25 464.85 526.85
L 440.175 558.625
Q 440.601171875 559.32578125 441.025 560.05 441.1869140625 560.32109375 441.35 560.6 449.500390625 574.7080078125 455.425 589.75
L 458.5 592
Q 495.9375 618.0345703125 540.425 630.25 550.361328125 632.9640625 560.65 635 596.1916015625 642.0134765625 631.075 639.8 651.3990234375 638.5177734375 671.5 634.1 726.05 622.05 772.45 588.15 818.695703125 554.3626953125 846.675 506.325
M 999.4 652.65
Q 1011.613671875 656.53671875 1025.2 660.85
M 572.1 31
Q 558.5 29.05 542.85 33 518.4 39.1 498.7 56.35 479.05 73.6 469.85 97.1
M 571.65 199.75
Q 571.65 205.75 567.15 210 562.7 214.25 556.35 214.25 550 214.25 545.5 210 541.05 205.75 541.05 199.75 541.05 193.75 545.5 189.5 550 185.25 556.35 185.25 562.7 185.25 567.15 189.5 571.65 193.75 571.65 199.75 Z
M 594.225 141.85
Q 593.9888671875 142.047265625 593.75 142.25
M 459.1 260.75
Q 483.2234375 253.5078125 508.125 251.9 504.8 242.795703125 504.8 232.4 504.8 207.65 523.7 190.1 542.6 172.6 569.35 172.6 596.1 172.6 615 190.1 624.062890625 198.515625 628.775 208.575 633.9 219.5181640625 633.9 232.4 633.9 241.66328125 631.25 249.9 627.3515625 262.0703125 617.7 272.025 631.4138671875 278.3423828125 644.25 286.6
M 454.6 150.85
Q 459.7 156.9 466.4 161.15 473.15 165.4 480.75 167.35
L 481.8 167.625
Q 483.27734375 166.025390625 484.85 164.45 514.5 134.85 556.4 134.85 576.7669921875 134.85 594.225 141.85
M 262.85 -0.85
Q 261.6 12.75 262.75 27 260.55 21.05 254.05 18.2 247.85 15.4 241.25 16.85 235.2 18.2 229.9 22.7 225.15 26.65 221.5 32.6 215.75 42.05 214.85 52.8 213.9 64.15 218.85 73.1 224.2 82.6 235.2 86.3 242.1267578125 88.608984375 248.175 87.425 251.3072265625 85.06953125 255.35 84.6 251.9298828125 86.6943359375 248.175 87.425 245.2787109375 89.594921875 243.15 93.35 238.9 100.95 241 108.85 242.95 116.25 249.4 122 255.25 127.15 263.35 129.85 274.4 133.55 285.6 131.45 297.5 129.25 304.85 121.25 310.7 114.9 313.7 104.4 315.65 97.4 317 85 318.8 91.6 325.9 95.05 332.65 98.35 339.85 96.85 346.25 95.55 352.5 90.95 357.45 87.25 362.85 81 372.7 69.4 379.25 56 386.5 41.05 383 31.25 380.85 25.3 375.05 21.15 369.7 17.25 362.85 16 357.15 14.9 349.8 15.5 345.6 15.8 336.75 17.25 344.55 9.4 350.75 0.25
M 444 170.1
Q 448.15 175.25 455.35 178.8 460.75 181.55 469.1 183.85
M 415.6 263.35
Q 434.9 258.5 455.5 261.65 456.966015625 261.870703125 458.425 262.125 455.25 249.7248046875 455.25 236 455.25 230.869921875 455.7 225.925 412.4201171875 246.1232421875 368.1 259 357.9 262.05 351.15 262.5 341.6 263.1 335 259.1 329.75 255.85 324.5 247.85 316.65 235.85 315.6 234.6 302.7 219.2 279 220.35 257.1 221.4 239 235 216.95 251.6 206.15 278.45 195.4 305.35 200 332.6 204.5 359.9 223.4 381.85 242.3 403.85 268.6 412.35
M 379.5 313.75
Q 377.7 322.9 379.5 332.35 381.25 341.75 386.25 349.75
L 387.575 351.75
Q 388.4375 350.7875 389.35 350 392.5 347.25 396.35 346.25 400.45 345.15 404 346.5 408.7 348.05 411.8 353.45 413.9 356.95 416 363.85
L 417.15 367.375
Q 417.784375 366.0341796875 418.5 364.75 420.9 360.25 424.1 357.45 427.9 354.2 432.1 354 433.6271484375 353.9328125 435.1 354.275
M 381 420.5
Q 375.75 406.8 375.75 391.8 375.7966796875 377.743359375 380.425 364.9
L 379.35 362.6
Q 376.45 356.6 368.85 355.3 361.55 354.05 355.6 357.85 345.4 364.3 342 380.85 339.0068359375 394.8521484375 341.175 410.05 342.1568359375 416.922265625 344.2 424.05 349.8662109375 443.8568359375 362.95 463.275 363.2306640625 463.541796875 363.4 463.825 363.837109375 464.6533203125 363.275 465.65 362.5123046875 466.996484375 359.05 472.375 355.5958984375 477.751171875 352.25 483.3 357.1330078125 483.6658203125 362.25 484.8 380.55 488.85 396.1 501.25 409.15 511.7 421.3 528.7 428.540625 538.7984375 440.175 558.625
L 440 558.85
M 387.575 351.75
Q 383.927734375 355.82890625 381.1 363.1 380.7501953125 364.0009765625 380.425 364.9
M 469.7 303
Q 461.6 309.65 457.6 319.5 453.85 328.55 453.85 339.4 453.9 349.3 457 359.75 460.55 371.95 467.4 381.45 474.85 391.85 485 397.25 495.9 402.95 508.4 401.35 521.4 399.7 529 390.85 534.3 384.7 536.4 375.6 538.2 367.75 537.6 358.25 536.8 347.05 533.45 337.1 529.9 326.45 523.6 318 517.1 309.2 508 303.3 498.5607421875 297.2568359375 488.7 295.25 478.141015625 296.0572265625 469.7 303 Z
M 508.125 251.9
Q 531.0345703125 250.4451171875 554.6 253.75 575.243359375 256.6154296875 594.35 262.85
L 595 262.5
Q 598.2 261.15 600.75 257.65 602.4 255.4 604.6 250.85
L 608.35 243.1
Q 610.55 238.8 612.35 237.1 613.85 235.9 615.7 235.65 617.65 235.35 619.1 236.25 621.2 237.75 621.35 240.6 621.55 242.65 620.6 245.6 616.95 257.65 609.1 267
L 608.25 267.925
Q 613.0201171875 269.86640625 617.7 272.025
M 594.35 262.85
Q 601.3984375 265.162109375 608.25 267.925
M 540.1 230.45
Q 540.1 233.25 538.1 235.25 536.1 237.25 533.3 237.25 530.5 237.25 528.5 235.25 526.5 233.25 526.5 230.45 526.5 227.65 528.5 225.65 530.5 223.65 533.3 223.65 536.1 223.65 538.1 225.65 540.1 227.65 540.1 230.45 Z
M 565.15 228.15
Q 565.15 229.6 564.15 230.6 563.15 231.6 561.7 231.6 560.25 231.6 559.25 230.6 558.25 229.6 558.25 228.15 558.25 226.7 559.25 225.7 560.25 224.7 561.7 224.7 563.15 224.7 564.15 225.7 565.15 226.7 565.15 228.15 Z
M 458.425 262.125
Q 476.4875 265.33671875 493.65 274.45 511.8 284.05 526.4 298.9 541.15 313.9 550.1 332.1 551.31328125 334.571875 552.425 337.075
M 555.475 344.45
Q 562.6384765625 363.2478515625 564.65 384.125 579.75 392.9 600.25 398.85 605.7 400.4 609.15 400.8 614.15 401.35 618 400 624.25 397.95 628 391.45 631.4 385.55 631.5 378.25
M 455.7 225.925
Q 458.68203125 192.61640625 481.8 167.625
M 304.35 31.95
Q 307.205859375 32.762890625 309.325 34.675 311.4455078125 36.58984375 311.75 39.85 312.0595703125 43.121484375 311.9 45.525 311.7408203125 47.9169921875 311.05 50.025 310.3529296875 52.144140625 309.1 53.75 308.45 54.6 306.6 56.55 302.85 60.4 300.75 61.7 296.8 63.9 291.5 64.7 286.25 65.4 283.6 64.3 281.4 63.35 279.85 61.1 278.45 59.05 277.85 56.45 276.75 51.35 278.55 46.05 280.35 40.85 284.35 37.3 288.35 33.8052734375 293.625 31.8 298.9 29.7837890625 304.35 31.95 Z
M 127.6 0
Q 113.75 5.25 101.8 14.6 89.9 24 81.35 36.35 79.45 39.2 78.65 41.15 77.5 43.95 77.75 46.35 78.1 50.15 81.5 52.85 84.75 55.4 88.85 55.6 92.5 55.85 96.65 54.5 99.65 53.55 104 51.25 109.85 48.2 111 47.65 115.1 45.8 118.5 45.25 106.9 51.9 99.25 63.35 91.55 74.85 89.85 88.1 88.5 98.65 91.75 105.6 93.7 109.9 97.25 112.75 101 115.75 105.35 116.1 110.6 116.45 115.7 113.05 120.05 110.15 123.75 105 123.85 104.85 129.8 95.4 132.7052734375 90.7595703125 135.35 87.825 144.3677734375 37.218359375 163.85 -0.6
M 135.35 87.825
Q 134.53203125 92.40390625 133.8 97.1 127.75 136.2 126 200.6 125.1 234.85 123.8 303.75 122.35 364.5 119.3 406.85 110.85 523.6 82.5 607.75 80.4 613.95 60.95 666.05 47.75 701.3 42 725.1
M 341.175 410.05
Q 322.933203125 401.03125 300.1 403.7 278.9 406.15 259.35 417.85 242.8 427.8 226.15 444.95 214.95 456.5 198 477.85 181.9447265625 498.1439453125 170.225 514.475
L 172.35 514.1
Q 179.2 512.85 184.6 512.55 191.2 512.15 196.85 513.1 209.5 515.25 223.5 525.6 232.05 532.1 240.85 541.4 247.5 548.4 256.1 559.1
M 183.75 648.1
Q 219.83828125 604.30859375 254.3 562.85 273.063671875 540.251171875 291.35 518.35 301.25 506.55 307.05 501 316.5 492 326 487.75 338.1724609375 482.2947265625 352.25 483.3
M 254.3 562.85
L 256.75 562.85
Q 271.6 561.9 285.65 568.35 299.8 574.85 308.85 586.75 318.05 598.85 324.75 623.7 330 643.15 330.15 643.65 333.5 654.95 337.35 662.85 340.45 669.3 345.85 677.4 348.95 682.1 355.45 691.35 367.25 708.7 370.6 721
M 170.225 514.475
Q 163.687890625 523.5787109375 158.5 531.45 138.45 561.85 127.25 589.75 114.1 622.25 111.8 654.5 109.3 689.65 120.25 719.5
M 564.65 384.125
Q 565.377734375 391.504296875 565.45 399.15 589.075 405.4865234375 605.95 424.95 608.13671875 427.46484375 610.1 430.05
L 612 429.5
Q 624.05 426.5 637 431.15 645.2076171875 434.11015625 652.025 439.475
M 610.1 430.05
Q 623.31015625 447.6322265625 625.75 468.85
M 565.45 399.15
Q 565.51640625 404.9779296875 565.2 410.95 563.05 451.55 544.5 489.85
M 417.15 367.375
Q 410.992578125 380.148046875 411.4 397.8 411.7 410.5 416.25 432.75
M 455.425 589.75
Q 462.65625 608.0578125 466.6 627.75 468.1 635.55 468.35 640.8 468.6 648.05 466.75 653.75 464.8 659.6 460 665.6 456.9 669.45 450.5 675.6 439.9 685.8 425.8 698.6 420.65 703.3 400.75 721.1
M 697.7 646.35
Q 669.8076171875 654.727734375 639.2 654.85 631.6568359375 654.880078125 624.275 654.4 607.169140625 653.3076171875 590.9 649.525 595.95 659 597.5 669.45 599.05 680.05 596.75 690.1
M 631.075 639.8
L 624.275 654.4
M 540.425 630.25
L 546 633.1
Q 567.587890625 644.0814453125 590.9 649.525"/>
</defs>

<g transform="matrix( 1, 0, 0, 1, 0,0) ">
<use xlink:href="#Layer1_0_FILL"/>
</g>

<g transform="matrix( 1, 0, 0, 1, 0,0) ">
<use xlink:href="#Layer0_0_1_STROKES"/>
</g>
</svg>
