
<svg xmlns="http://www.w3.org/2000/svg" version="1.1" xmlns:xlink="http://www.w3.org/1999/xlink" preserveAspectRatio="none" x="0px" y="0px" width="1280px" height="720px" viewBox="0 0 1280 720">
<defs>
<g id="Layer2_0_FILL">
<path fill="#FFFFFF" stroke="none" d="
M 1280 720
L 1280 0 0 0 0 720 1280 720 Z"/>
</g>

<g id="Layer1_0_FILL">
<path fill="#F7C181" stroke="none" d="
M 413.5 494.05
Q 412.6 494.05 411.85 494.55 411.05 495.1 410.85 495.9 410.55 497.05 411.85 498.65 414.15 501.6 418.85 504.55 423.95 507.65 431 510.05 431.5 510.25 432.1 510.45 436.05 511.75 442.8 513.6 437.3 514 433.1 514.15 428.15 514.25 424.85 514.1 414.9 513.7 407.5 510.9 405.4 510.1 404.75 510.9 404.15 511.5 404.35 512.8 405.1 517.35 412.85 520.15 424.25 524.25 436.1 525.3 439.5 525.6 443 525.65 439.85 526.6 436.65 527.45 426.25 530 415.5 530.9 412.65 531.2 412.25 532.55 411.95 533.5 412.75 534.55 414.1 536.2 417.85 536.9 422.1 537.45 429.7 536.5 435.4 535.8 438.9 535.7 440.05 535.6 444.55 534.4 440.1 536.1 439.15 536.6 433.3 539.65 424.85 544.15 423.15 545.05 423.6 546.05 423.9 546.65 424.85 546.65 430.1 547.75 436.6 546 438.5 545.45 441.2 544.45 444.15 543.35 448 541.65 455.35 538.55 459.4 537.6 465.95 536 471.2 537.3
L 471.25 537.3
Q 474.3 534.95 476.75 531.8 479.8 527.9 481.1 523.3 482.4 518.7 481.85 513.8 481.3 508.9 479 504.65 476.6 500.25 467.95 492.05 467.75 491.8 467.6 491.65 459.5 483.95 457.35 478.15 456.8 476.5 455.85 475.55 454.7 474.4 453.5 475.05 452.7 475.5 452.5 477.05 451.5 481.95 453.25 486.55 453.8 488.1 455.65 491.6 457.3 494.75 457.85 496.65 458.45 499 458.35 502.75 458.35 503.3 458.35 503.8 448.2 505.25 436.95 502.45 433.35 501.6 429.4 500.2 423.55 498.15 416.85 495.05 414.65 494.05 413.5 494.05
M 727.6 140.15
Q 725.75 136.5 723.1 134.3 720.3 132 715.8 130.75 713.9 130.2 707.6 129.05 698.5 127.4 695.75 127.25 689.05 126.85 684.55 129.5 680 132.15 677.9 137.45 675.8 142.5 673.45 150.45 669.9 147.25 660.7 141.85 651.45 136.45 647.65 134.1 643.85 131.7 637.35 129.2 630.85 126.65 625.65 128.4 620.4 130.1 616.4 133.55 612.35 137 608.55 142.05 604.75 147.05 603.1 151.5 601.4 155.9 600.5 159.8 599.6 163.7 602.3 168.55 605 173.4 615.05 184.5 624.15 194.55 640.5 205.65 628.4 206 623.05 206.45 612.65 207.35 604.5 205.8 593.15 203.55 583.75 196.2 582.8 195.45 581.85 194.65 576.65 194.85 571.75 193.15 568.05 191.9 564.05 189.4 563.5 189.05 562.85 188.65 559.2 212.45 560.6 239 564.7 242.6 570.55 245.5 575.3 247.9 584.55 251.3 587.55 243.55 593 232.3 595.7 226.8 597.6 224.05 600.55 219.8 604.25 217.8 608.9 215.3 615.35 215.95 620.2 216.4 626.85 218.8 645.25 225.4 658.25 234.75 673.65 245.9 680.05 261.65 680.9 263.05 681.7 264.7 683.1 267.5 685.35 273.3 688.6 281.9 690.4 288.1 690.7 289.15 691 290.15 692.15 294.45 692.65 299.9 692.95 302.95 693 306.35 693.2 315.8 688.65 321.5 684.1 327.2 678.25 330.5 672.35 333.8 662.65 335.85 658.05 336.8 652.6 336.45 647.45 336.1 641.5 334.6 640.4 334.3 639.3 334 625.7 330.1 614.4 323.1 603.05 316.1 594.35 305.4 585.65 294.7 579.45 280.85 579 275.95 579.55 270.7 575.8 274.45 571.25 276.9 568.4 278.4 565.4 279.35 566.6 286.25 568.15 293.35 575.25 325.95 594.95 383.4 603.25 390.35 613.95 396.3 625.45 402.65 642.1 408.75 648.25 411 655.15 413.25 664.4 416.2 675 419.15 680.85 420.75 685.85 422 696.35 424.6 702.85 425.6 716.8 427.75 728.1 425.9 729.5 425.7 730.85 425.4 740.45 423.45 750.65 418 759.45 413.25 768.75 405.9 771.1 404.05 773.4 402.1 796.6 382.45 811.3 357.15 828.45 327.45 830.1 296.05 831.35 272.8 823.7 250.2 821.05 242.25 817.3 235.3 812.15 225.65 805.4 214.65 803.7 211.95 801.85 209
L 788.4 208.35
Q 790.85 212.2 793.35 216.95 793.4 217.1 793.55 217.3
L 793.6 217.4
Q 800.25 231.2 804.1 247.65 806.2 256.5 806.75 264.15 806.8 264.65 806.85 265.35 807.45 274.95 805.5 283.15 805.05 285.1 804.45 287 802.3 293.85 798.05 299.7 792.6 307.1 784.6 310.1 776.6 313.1 767.15 312.1 766.75 312.05 766.35 312 760 311.15 756.05 308.25 754.5 307.05 753.3 305.6 748.85 300.1 746.15 292.35 743.45 284.55 740.95 276.75 738.45 268.9 736.4 261.2 734.5 254.1 734.85 248.65 734.3 235.75 737.2 224.3 740.05 212.8 746.6 196.9 748.15 193.2 749.2 191.5 750.95 188.65 753.25 187.3 755.95 185.65 759.75 185.85 762.9 186.05 766.5 187.55 773.05 190.35 778.9 196.15 783.75 192.35 786.7 186.3 776.5 171.75 765.55 160.85 758.5 153.75 750.95 147.8 749.9 151.3 746.45 161.15 742.95 170.95 732.65 184.8 735.35 165.7 730.25 147.15 729 142.85 727.6 140.15
M 705.6 146.65
Q 707.95 146.65 710.1 147.65 712.25 148.6 713.75 150.3 715.9 152.55 716.85 156.05 717.75 158.45 718.15 162.95 715.3 161.35 712.7 160.65 710.2 160 707.6 160.3 704.9 160.75 703.55 160.8 701.2 160.95 699.85 159.9 698.4 158.85 698.05 156.65 697.75 154.7 698.35 152.65 698.7 151.65 699.1 150.85 699.15 150.75 699.2 150.65 700.15 148.7 701.35 147.8 703.25 146.65 705.6 146.65
M 655.5 173.55
Q 651.3 174.7 649.15 175.3 645.35 176.35 643.5 178.15 642.85 178.8 642 180 640.85 181.6 640.35 181.6 640.25 179.8 640.2 176.95 640.1 172.2 640.1 172.15 640.4 166.2 642.5 163.05 644.05 160.7 647.35 158.65 650.5 156.7 653.25 156.55 655.65 156.35 657.85 157.6 659.95 158.8 661.1 160.9 662.25 162.95 662.05 165.5 661.9 168.05 660.5 169.9 658.85 172.2 655.5 173.55
M 685.25 362.5
Q 685.05 361.1 685.1 359.6 685.3 353.55 689.6 348.85 708.35 353.2 728.05 352.35 741.35 351.8 754.15 348.75 760.3 347.3 766.4 345.3 769.6 348.5 769.25 353.85 769.2 354.5 769.1 355.2 768.45 359.5 765.6 362.9 762.8 366.25 757.95 368.55 755.45 369.75 752.1 370.8 750.45 371.3 748.6 371.8 724.65 377.9 700 374.05 692.5 373.1 689.1 370.05 685.8 367.2 685.25 362.5
M 519.2 293.9
Q 517.2 294.35 516.6 295.85 515.9 297.35 516.1 305.8 516.2 314.3 520.8 328.45 525.4 342.55 534.1 354.3 542.05 365.3 552.3 367.3 556.4 357.2 558.65 346.15 560.85 335.05 559 321.65 557.1 308.2 549.45 301.7 541.75 295.15 531.45 294.3 521.2 293.4 519.2 293.9
M 981.6 385.15
Q 985.25 381.3 986.35 377.8 986.7 376.75 986.55 375.75 986.4 374.6 985.6 374.15 984.05 373.25 976 379.4 967.9 385.55 947.8 398.9 957.35 388.9 960.8 385.1 968.1 377 972.35 369.3 973.45 367.6 973.6 365.8 973.6 364.85 973.2 364.05 972.8 363.15 972 362.8 970.25 362.05 967.75 364.05 964.3 366.75 959.85 371.65 952.55 379.6 952.35 379.8 947.95 384.35 944 387 939 390.35 933.95 391.35 932.8 389.3 932.35 388.05 931.5 385.55 931.35 382.05 931.35 378 931.35 375.9 931.15 368 927.85 364.4 926.3 362.85 925 363.05 924.1 363.1 923.35 363.85 922.65 364.55 922.35 365.55 921.95 366.9 922.25 369.4 922.5 375.15 920.8 380.75 919.15 386.3 915.55 391.25 918.9 392.85 921.75 395.15 929.1 401.15 931.7 410.9 933.55 417.7 931.5 426.25 935.4 428.3 941.1 425.8 942.3 425.25 945.5 423.4 948.25 421.85 950 421.15 954.45 419.5 964.9 419.65 974.8 419.75 979.5 417.55 980.85 416.9 981.6 415.85 982.5 414.65 982 413.55 981.25 412.25 978.75 412.05 970.85 411.5 957.45 412.65 971.9 409.65 976.6 407.75 983.75 404.9 988.1 400.55 988.9 399.75 989.2 398.9 989.6 397.85 989.1 397.15 988.35 396.25 985.9 396.75 983.45 397.25 973.95 399.45 964.4 401.6 952.35 408.3 964.25 400.15 969.5 396.3 974.75 392.4 981.6 385.15 Z"/>

<path fill="#FAB9EE" stroke="none" d="
M 681 652.15
Q 681.1 662.55 678.9 673.1 677.45 680.05 673.85 691.9 671.2 700.75 667.5 720
L 750.95 720
Q 746.25 672.2 744.9 658.55 733 663.8 716.35 662.9 697 661.9 681 652.15 Z"/>

<path fill="#FF0F9F" stroke="none" d="
M 774.55 612.5
Q 773.3 620.75 770.95 627.8 764.7 646.35 751 655.15 748.1 657.05 744.9 658.55 746.25 672.2 750.95 720
L 775.95 720 773.8 669.1
Q 785.25 697.35 804.4 718.9
L 774.55 612.5
M 654.6 582.7
Q 660.5 564.75 663.1 555.8 667.6 540.15 668.85 523.7 670.05 507.3 670.15 491.5 614.6 511.05 574.35 524.75 564.55 528.1 555.7 531.1 554.65 531.45 553.6 531.8 509.95 546.35 495.25 546.1 480.9 545.8 471.25 537.3
L 471.2 537.3
Q 465.95 536 459.4 537.6 455.35 538.55 448 541.65 444.15 543.35 441.2 544.45 450.1 578.9 453.1 602.4 458 639.45 452.05 671.45 446.95 698.8 434.35 720
L 667.5 720
Q 671.2 700.75 673.85 691.9 677.45 680.05 678.9 673.1 681.1 662.55 681 652.15 677.3 649.9 673.8 647.2 653.85 631.9 651.5 610.05 650.25 598.4 654.6 582.7
M 766.85 472.65
Q 755.45 474.25 744.95 476.7 752.4 489.8 758.15 503.85 759.35 506.85 760.5 509.9 763.5 501.65 764.9 493.6 766.25 485.55 766.85 472.7 774.5 490.2 778.2 501.8 781.55 512.35 783.2 523.45 783.2 523.25 783.25 523.05 784.65 511.4 784.6 496.75 784.55 487.45 783.8 470.75 778.65 471.2 774.55 471.65 770.7 472.05 766.85 472.65
M 787.15 428.45
Q 781.9 414.05 773.4 402.1 771.1 404.05 768.75 405.9 759.45 413.25 750.65 418 752.1 425.3 749 432.85 746.15 439.85 740.35 445.15 736.65 448.55 731.85 451.35 731.15 451.75 730.45 452.15 754.85 442 787.15 428.45
M 649.15 175.3
Q 651.3 174.7 655.5 173.55 658.85 172.2 660.5 169.9 661.9 168.05 662.05 165.5 662.25 162.95 661.1 160.9 659.95 158.8 657.85 157.6 655.65 156.35 653.25 156.55 650.5 156.7 647.35 158.65 644.05 160.7 642.5 163.05 640.4 166.2 640.1 172.15 640.1 172.2 640.2 176.95 640.25 179.8 640.35 181.6 640.85 181.6 642 180 642.85 178.8 643.5 178.15 645.35 176.35 649.15 175.3
M 710.1 147.65
Q 707.95 146.65 705.6 146.65 703.25 146.65 701.35 147.8 700.15 148.7 699.2 150.65 699.15 150.75 699.1 150.85 698.7 151.65 698.35 152.65 697.75 154.7 698.05 156.65 698.4 158.85 699.85 159.9 701.2 160.95 703.55 160.8 704.9 160.75 707.6 160.3 710.2 160 712.7 160.65 715.3 161.35 718.15 162.95 717.75 158.45 716.85 156.05 715.9 152.55 713.75 150.3 712.25 148.6 710.1 147.65
M 723.85 84
Q 709.5 83.35 695.6 86.7 706.1 73.45 712.1 57.65 701.9 59.5 692.5 65.45 682.55 71.7 677.25 81.15 671.95 90.55 668.95 101.65 668.05 104.95 667.45 108.35 657.1 107.6 646.85 106.6 643.5 102.85 640.3 98.7 632.65 88.7 619.8 67.3 619 67.75 618.6 68.6 617.6 70.85 617.95 74.4 618.9 83.6 623.2 92.85 614.15 95.3 605.3 100.95 572.9 95.4 539.2 85.75 548.65 89.8 553.95 93.2 560.65 97.5 559.55 100.15 558.4 102.75 539.55 102.95 520.65 103.15 485.65 101.6 492.1 104.2 499.7 110.05 492.6 111.1 486.65 114.2 479.35 118 470.45 125.6 476.55 124 483.25 123.6 489.95 123.15 497.45 123.8 484.8 127.1 475.2 138.8 468.3 147.2 460.25 163.4
L 416.1 251.8
Q 404.7 274.6 394.7 286.4 380.15 303.55 361.6 308.05 383 307.8 401.7 298.65 397.95 313.75 390.35 326.7 382.25 340.4 370.6 351.05 388.1 346.55 404.7 338.7 419.45 331.7 433.5 320.5 400.85 376.65 421.25 468.55 422.8 475.45 429.4 500.2 433.35 501.6 436.95 502.45 448.2 505.25 458.35 503.8 458.35 503.3 458.35 502.75 458.45 499 457.85 496.65 457.3 494.75 455.65 491.6 453.8 488.1 453.25 486.55 451.5 481.95 452.5 477.05 452.7 475.5 453.5 475.05 454.7 474.4 455.85 475.55 456.8 476.5 457.35 478.15 459.5 483.95 467.6 491.65 467.75 491.8 467.95 492.05 488.45 479.15 515.65 474.55 520.35 473.75 525.3 473.15 537.75 471.65 555.15 471 565.2 470.6 585.1 470.15 585.2 470.15 585.3 470.15 628.25 468.9 671.5 462.85 671.375 462.8083984375 671.25 462.8
L 671.2 462.8
Q 670.85 462.75 670.55 462.7 667.5 462.15 664.6 461.4 657.85 459.5 651.85 456.1 642.15 450.6 636.35 442.05 630.35 433.05 631.1 426.45 631.8 419.85 636.2 414.4 638.6 411.35 642.1 408.75 625.45 402.65 613.95 396.3 603.25 390.35 594.95 383.4 575.25 325.95 568.15 293.35 566.6 286.25 565.4 279.35 563 280.05 560.6 280.4 556.25 281.25 552.85 279.9 549.5 278.55 547.3 274.6 545.8 271.95 544.35 266.9 543.55 263.75 545.1 262.9 545.5 262.7 546.2 262.75 546.6 262.75 547.35 262.9 554.55 264.65 562 263.65 562.45 263.6 562.9 263.55 562.45 260.15 562.05 256.8 560.9 256.35 559.6 255.9 552.15 253.3 549 251.8 543.4 249.1 539.65 245.3 535.35 240.85 534.35 235.65 533.75 232.4 534.4 228.55 534.9 225.7 536.25 221.65 537.7 217.1 539.25 214.9 540.5 213.15 541.6 213.15 542.95 213.35 544.1 215.05 544.55 215.75 550.85 226.5 554.9 233.45 558.6 237.15 559.55 238.1 560.6 239 559.2 212.45 562.85 188.65 563.5 189.05 564.05 189.4 568.05 191.9 571.75 193.15 576.65 194.85 581.85 194.65 582.8 195.45 583.75 196.2 593.15 203.55 604.5 205.8 612.65 207.35 623.05 206.45 628.4 206 640.5 205.65 624.15 194.55 615.05 184.5 605 173.4 602.3 168.55 599.6 163.7 600.5 159.8 601.4 155.9 603.1 151.5 604.75 147.05 608.55 142.05 612.35 137 616.4 133.55 620.4 130.1 625.65 128.4 630.85 126.65 637.35 129.2 643.85 131.7 647.65 134.1 651.45 136.45 660.7 141.85 669.9 147.25 673.45 150.45 675.8 142.5 677.9 137.45 680 132.15 684.55 129.5 689.05 126.85 695.75 127.25 698.5 127.4 707.6 129.05 713.9 130.2 715.8 130.75 720.3 132 723.1 134.3 725.75 136.5 727.6 140.15 729 142.85 730.25 147.15 735.35 165.7 732.65 184.8 742.95 170.95 746.45 161.15 749.9 151.3 750.95 147.8 760.45 138.25 764.75 125.4 767.55 116.6 765.25 111.05 763.95 108.05 761 105.5 758.85 103.55 755.1 101.4 741.35 93.95 726.65 92.75 736.2 88.75 752.75 87.4 736.25 84.55 723.85 84
M 516.6 295.85
Q 517.2 294.35 519.2 293.9 521.2 293.4 531.45 294.3 541.75 295.15 549.45 301.7 557.1 308.2 559 321.65 560.85 335.05 558.65 346.15 556.4 357.2 552.3 367.3 542.05 365.3 534.1 354.3 525.4 342.55 520.8 328.45 516.2 314.3 516.1 305.8 515.9 297.35 516.6 295.85 Z"/>

<path fill="#E08732" stroke="none" d="
M 718.7 536
Q 713.85 540.7 707.95 544.35 709.25 546.1 710.45 547.9 722.2 541.85 735.3 538.4 748.45 535 768.1 533.75 767.3 530.75 766.45 527.75 766.15 526.7 765.85 525.7 738.8 528.6 718.7 536 Z"/>

<path fill="#69FFAC" stroke="none" d="
M 721.1 532.95
Q 721.2 533.2 721.05 533.4 721 533.55 720.75 533.8 719.7 534.9 718.7 536 738.8 528.6 765.85 525.7 764.25 520.4 762.45 515.25 745.9 517.75 733 522.15 720.2 526.55 709.2 533.15 714.55 532.5 720 532.5 720.95 532.5 721.1 532.95 Z"/>

<path fill="#9540DE" stroke="none" d="
M 699.3 527.9
Q 701 531.1 702.3 534.3 705.75 533.6 709.2 533.15 720.2 526.55 733 522.15 745.9 517.75 762.45 515.25 761.5 512.55 760.5 509.9 759.35 506.85 758.15 503.85 742.1 507.1 727.4 513.25 712.6 519.35 699.3 527.9 Z"/>

<path fill="#E8DD6D" stroke="none" d="
M 693.05 523
Q 691.15 530.25 690.3 537.05 684.6 537.55 678.4 538.5 676.6 538.85 675.8 539.05 674.3 539.35 673.15 539.75 672.6 539.95 672.5 540.3 672.35 540.7 673.05 541.15 674.55 542.15 676.75 543.05 677.95 543.6 680.75 544.6 682.9 545.35 689.15 547.4 686.65 554.65 685.4 562.05 685.2 563.35 685.9 563.6 686.45 563.75 687.2 563.15 688.55 562.15 690.1 560.75 691.1 559.85 692.75 558.1 694.5 556.4 695.55 555.3 697 553.75 698.15 552.45 703.85 555.1 708.6 557 710.6 557.8 711.85 558.2 713.7 558.8 715.25 558.95 716.1 559 716.4 558.7 716.55 558.45 716.5 558.15 716.45 557.95 716.25 557.65 713.65 552.65 710.45 547.9 709.25 546.1 707.95 544.35 713.85 540.7 718.7 536 719.7 534.9 720.75 533.8 721 533.55 721.05 533.4 721.2 533.2 721.1 532.95 720.95 532.5 720 532.5 714.55 532.5 709.2 533.15 705.75 533.6 702.3 534.3 701 531.1 699.3 527.9 697.9 525.2 696.2 522.5 695.35 521.15 694.45 521.25 693.5 521.35 693.05 523 Z"/>

<path fill="#EF455F" stroke="none" d="
M 890 387.9
Q 882.65 388.9 873.8 392.1 869.5 393.6 858.25 398.4 818.85 415.1 787.15 428.45 754.85 442 730.45 452.15 731.15 451.75 731.85 451.35 736.65 448.55 740.35 445.15 746.15 439.85 749 432.85 752.1 425.3 750.65 418 740.45 423.45 730.85 425.4 729.5 425.7 728.1 425.9 716.8 427.75 702.85 425.6 696.35 424.6 685.85 422 680.85 420.75 675 419.15 664.4 416.2 655.15 413.25 648.25 411 642.1 408.75 638.6 411.35 636.2 414.4 631.8 419.85 631.1 426.45 630.35 433.05 636.35 442.05 642.15 450.6 651.85 456.1 657.85 459.5 664.6 461.4 667.5 462.15 670.55 462.7 670.85 462.75 671.2 462.8
L 671.25 462.8
Q 671.375 462.8083984375 671.5 462.85 628.25 468.9 585.3 470.15 585.2 470.15 585.1 470.15 565.2 470.6 555.15 471 537.75 471.65 525.3 473.15 520.35 473.75 515.65 474.55 488.45 479.15 467.95 492.05 476.6 500.25 479 504.65 481.3 508.9 481.85 513.8 482.4 518.7 481.1 523.3 479.8 527.9 476.75 531.8 474.3 534.95 471.25 537.3 480.9 545.8 495.25 546.1 509.95 546.35 553.6 531.8 554.65 531.45 555.7 531.1 564.55 528.1 574.35 524.75 614.6 511.05 670.15 491.5 670.05 507.3 668.85 523.7 667.6 540.15 663.1 555.8 660.5 564.75 654.6 582.7 650.25 598.4 651.5 610.05 653.85 631.9 673.8 647.2 677.3 649.9 681 652.15 697 661.9 716.35 662.9 733 663.8 744.9 658.55 748.1 657.05 751 655.15 764.7 646.35 770.95 627.8 773.3 620.75 774.55 612.5 775.95 603.15 775.85 592.3 775.65 562.65 768.1 533.75 748.45 535 735.3 538.4 722.2 541.85 710.45 547.9 713.65 552.65 716.25 557.65 716.45 557.95 716.5 558.15 716.55 558.45 716.4 558.7 716.1 559 715.25 558.95 713.7 558.8 711.85 558.2 710.6 557.8 708.6 557 703.85 555.1 698.15 552.45 697 553.75 695.55 555.3 694.5 556.4 692.75 558.1 691.1 559.85 690.1 560.75 688.55 562.15 687.2 563.15 686.45 563.75 685.9 563.6 685.2 563.35 685.4 562.05 686.65 554.65 689.15 547.4 682.9 545.35 680.75 544.6 677.95 543.6 676.75 543.05 674.55 542.15 673.05 541.15 672.35 540.7 672.5 540.3 672.6 539.95 673.15 539.75 674.3 539.35 675.8 539.05 676.6 538.85 678.4 538.5 684.6 537.55 690.3 537.05 691.15 530.25 693.05 523 693.5 521.35 694.45 521.25 695.35 521.15 696.2 522.5 697.9 525.2 699.3 527.9 712.6 519.35 727.4 513.25 742.1 507.1 758.15 503.85 752.4 489.8 744.95 476.7 755.45 474.25 766.85 472.65 770.7 472.05 774.55 471.65 778.65 471.2 783.8 470.75 796.75 469.55 816.45 468.35 842.1 466.75 859.6 464.2 877.1 461.65 900.35 454.55 923.6 447.45 929 434.05 930.6 429.95 931.5 426.25 933.55 417.7 931.7 410.9 929.1 401.15 921.75 395.15 918.9 392.85 915.55 391.25 911.5 389.3 906.7 388.3 898.7 386.65 890 387.9 Z"/>

<path fill="#13EB00" stroke="none" d="
M 676 295.05
Q 677.5 295.5 678.55 296.85 679.5 298.15 679.75 299.8 686.8 298.05 692.65 299.9 692.15 294.45 691 290.15 690.7 289.15 690.4 288.1 680.75 285.55 671 288.75 661.55 291.85 654.75 299.15 648.3 305.95 644.9 315.55 641.7 324.45 641.5 334.6 647.45 336.1 652.6 336.45 652.3 330.2 653.7 324.6 655.05 319.2 658.25 314.55 659.55 312.65 661.1 310.95 661.05 310.85 661 310.8 659.2 308.4 660.1 305.05 660.95 302.25 663.7 299.85 665.7 298.1 669.25 296.3 671.25 295.35 672.55 295 674.5 294.55 676 295.05 Z"/>

<path fill="#D7FEB2" stroke="none" d="
M 680.05 261.65
Q 678.4 258.9 676.6 256.9 672.8 252.7 666.6 249.55 662.3 247.4 654.75 244.9 639.55 239.7 627 237.55 614.45 235.35 606 241.8 597.5 248.25 591.05 258.45 584.6 268.6 579.45 280.85 585.65 294.7 594.35 305.4 603.05 316.1 614.4 323.1 625.7 330.1 639.3 334 640.4 334.3 641.5 334.6 641.7 324.45 644.9 315.55 648.3 305.95 654.75 299.15 661.55 291.85 671 288.75 680.75 285.55 690.4 288.1 688.6 281.9 685.35 273.3 683.1 267.5 681.7 264.7 680.9 263.05 680.05 261.65 Z"/>

<path fill="#02FD0D" stroke="none" d="
M 806.85 265.35
Q 806.8 264.65 806.75 264.15 799.75 261.95 792.55 263 785.4 264.05 779.5 267.8 770.55 273.4 763.1 286.65 759.85 292.45 758.2 297.05 756.1 302.9 756.05 308.25 760 311.15 766.35 312 766.35 301.95 771.05 292.8 771.6 291.75 772.15 290.75 771.6 290.5 771.1 290.05 769.4 288.35 769.85 284.8 770.4 281.3 772.75 278.4 775.1 275.45 778.35 274.15 781.1 273.05 783 274.05 784.55 275 785.05 277 791.35 272.9 796.1 274.8 799.05 275.85 801.05 279.25 802.4 281.55 804.45 287 805.05 285.1 805.5 283.15 807.45 274.95 806.85 265.35 Z"/>

<path fill="#D1FEA8" stroke="none" d="
M 793.35 216.95
Q 785.6 211.05 778.45 207.1 771.3 203.15 764.15 205 756.95 206.8 752.15 212.7 747.3 218.55 742.5 227.4 739.3 233.25 737.4 237.55 735.5 241.8 734.9 247.65 734.85 248.15 734.85 248.65 734.5 254.1 736.4 261.2 738.45 268.9 740.95 276.75 743.45 284.55 746.15 292.35 748.85 300.1 753.3 305.6 754.5 307.05 756.05 308.25 756.1 302.9 758.2 297.05 759.85 292.45 763.1 286.65 770.55 273.4 779.5 267.8 785.4 264.05 792.55 263 799.75 261.95 806.75 264.15 806.2 256.5 804.1 247.65 800.25 231.2 793.6 217.4
L 793.55 217.3
Q 793.4 217.1 793.35 216.95 Z"/>
</g>

<g id="Layer0_0_FILL">
<path fill="#F7C181" stroke="none" d="
M 562.05 256.8
Q 562.45 260.15 562.9 263.55 568.4 262.75 570.7 259.6 567.15 258.65 562.05 256.8 Z"/>

<path fill="#000000" stroke="none" d="
M 571.25 276.9
Q 575.8 274.45 579.55 270.7 580.3 263.55 582.9 255.75 583.6 253.7 584.55 251.3 575.3 247.9 570.55 245.5 564.7 242.6 560.6 239 559.55 238.1 558.6 237.15 554.9 233.45 550.85 226.5 544.55 215.75 544.1 215.05 542.95 213.35 541.6 213.15 540.5 213.15 539.25 214.9 537.7 217.1 536.25 221.65 534.9 225.7 534.4 228.55 533.75 232.4 534.35 235.65 535.35 240.85 539.65 245.3 543.4 249.1 549 251.8 552.15 253.3 559.6 255.9 560.9 256.35 562.05 256.8 567.15 258.65 570.7 259.6 568.4 262.75 562.9 263.55 562.45 263.6 562 263.65 554.55 264.65 547.35 262.9 546.6 262.75 546.2 262.75 545.5 262.7 545.1 262.9 543.55 263.75 544.35 266.9 545.8 271.95 547.3 274.6 549.5 278.55 552.85 279.9 556.25 281.25 560.6 280.4 563 280.05 565.4 279.35 568.4 278.4 571.25 276.9
M 688.65 321.5
Q 693.2 315.8 693 306.35 692.95 302.95 692.65 299.9 686.8 298.05 679.75 299.8 679.75 299.85 679.75 299.9 680.1 303.1 678 306.05 676.3 308.45 673.35 310.55 669.9 313.1 667.25 313.55 665.5 313.75 663.9 313 662.25 312.2 661.1 310.95 659.55 312.65 658.25 314.55 655.05 319.2 653.7 324.6 652.3 330.2 652.6 336.45 658.05 336.8 662.65 335.85 672.35 333.8 678.25 330.5 684.1 327.2 688.65 321.5
M 676.6 256.9
Q 678.4 258.9 680.05 261.65 673.65 245.9 658.25 234.75 645.25 225.4 626.85 218.8 620.2 216.4 615.35 215.95 608.9 215.3 604.25 217.8 600.55 219.8 597.6 224.05 595.7 226.8 593 232.3 587.55 243.55 584.55 251.3 583.6 253.7 582.9 255.75 580.3 263.55 579.55 270.7 579 275.95 579.45 280.85 584.6 268.6 591.05 258.45 597.5 248.25 606 241.8 614.45 235.35 627 237.55 639.55 239.7 654.75 244.9 662.3 247.4 666.6 249.55 672.8 252.7 676.6 256.9
M 785.25 278.3
Q 785.5 280.8 784.55 283.3 783.65 285.75 781.75 287.55 780.85 288.5 779.8 289.2 779.45 289.4 779.1 289.6 778.3 290.05 776.75 290.6 775.15 291.1 773.65 291.05 772.15 290.95 772.25 290.9 772.3 290.8 772.15 290.75 771.6 291.75 771.05 292.8 766.35 301.95 766.35 312 766.75 312.05 767.15 312.1 776.6 313.1 784.6 310.1 792.6 307.1 798.05 299.7 802.3 293.85 804.45 287 802.4 281.55 801.05 279.25 799.05 275.85 796.1 274.8 791.35 272.9 785.05 277 785.2 277.6 785.25 278.3
M 766.5 187.55
Q 762.9 186.05 759.75 185.85 755.95 185.65 753.25 187.3 750.95 188.65 749.2 191.5 748.15 193.2 746.6 196.9 740.05 212.8 737.2 224.3 734.3 235.75 734.85 248.65 734.85 248.15 734.9 247.65 735.5 241.8 737.4 237.55 739.3 233.25 742.5 227.4 747.3 218.55 752.15 212.7 756.95 206.8 764.15 205 771.3 203.15 778.45 207.1 785.6 211.05 793.35 216.95 790.85 212.2 788.4 208.35 785.3 203.4 782.3 199.9 780.65 197.9 778.9 196.15 773.05 190.35 766.5 187.55
M 769.1 355.2
Q 769.2 354.5 769.25 353.85 769.6 348.5 766.4 345.3 760.3 347.3 754.15 348.75 755 352.6 754.35 356.4 754.2 358.35 753.55 359.15 752.9 359.9 750.05 360.45 749.45 360.55 748.5 360.75 751 360.3 751.3 361.25 751.65 362.15 751.75 363 751.85 363.8 752 366.1 752.15 368.35 752.1 370.8 755.45 369.75 757.95 368.55 762.8 366.25 765.6 362.9 768.45 359.5 769.1 355.2
M 817.85 191.3
Q 817.05 190.6 815.25 191.8 806.2 197.85 795.65 199.5 794.6 197.9 793.5 196.3 799.7 192.65 803.1 188.4 807.85 182.35 807.85 176.4 808.05 169.45 802.25 162.55 800 159.95 796.7 157.35 794.85 155.85 790.5 152.8 790.95 160.15 790.95 164.6 790.85 171.05 789.85 176.3 788.8 181.9 786.7 186.3 783.75 192.35 778.9 196.15 780.65 197.9 782.3 199.9 785.3 203.4 788.4 208.35
L 801.85 209
Q 805.8 209.15 810.85 209.4 813.15 209.4 813.9 209.3 815.55 209.05 816.7 208 817.85 206.9 818.05 203.9 818.5 198.2 818.3 194.9 818.1 191.55 817.85 191.3 Z"/>
</g>

<path id="Layer0_0_1_STROKES" stroke="#000000" stroke-width="1" stroke-linejoin="round" stroke-linecap="round" fill="none" d="
M 935.8 406.25
Q 937.25 404.5 937.55 401.8 937.85 399.35 936.85 396.9 936.25 395.4 934.55 392.5 934.2 391.9 933.95 391.35 932.8 389.3 932.35 388.05 931.5 385.55 931.35 382.05 931.35 378 931.35 375.9 931.15 368 927.85 364.4 926.3 362.85 925 363.05 924.1 363.1 923.35 363.85 922.65 364.55 922.35 365.55 921.95 366.9 922.25 369.4 922.5 375.15 920.8 380.75 919.15 386.3 915.55 391.25 918.9 392.85 921.75 395.15 929.1 401.15 931.7 410.9 933.55 417.7 931.5 426.25 935.4 428.3 941.1 425.8 942.3 425.25 945.5 423.4 948.25 421.85 950 421.15 954.45 419.5 964.9 419.65 974.8 419.75 979.5 417.55 980.85 416.9 981.6 415.85 982.5 414.65 982 413.55 981.25 412.25 978.75 412.05 970.85 411.5 957.45 412.65 971.9 409.65 976.6 407.75 983.75 404.9 988.1 400.55 988.9 399.75 989.2 398.9 989.6 397.85 989.1 397.15 988.35 396.25 985.9 396.75 983.45 397.25 973.95 399.45 964.4 401.6 952.35 408.3 964.25 400.15 969.5 396.3 974.75 392.4 981.6 385.15 985.25 381.3 986.35 377.8 986.7 376.75 986.55 375.75 986.4 374.6 985.6 374.15 984.05 373.25 976 379.4 967.9 385.55 947.8 398.9 957.35 388.9 960.8 385.1 968.1 377 972.35 369.3 973.45 367.6 973.6 365.8 973.6 364.85 973.2 364.05 972.8 363.15 972 362.8 970.25 362.05 967.75 364.05 964.3 366.75 959.85 371.65 952.55 379.6 952.35 379.8 947.95 384.35 944 387 939 390.35 933.95 391.35
M 786.7 186.3
Q 788.8 181.9 789.85 176.3 790.85 171.05 790.95 164.6 790.95 160.15 790.5 152.8 794.85 155.85 796.7 157.35 800 159.95 802.25 162.55 808.05 169.45 807.85 176.4 807.85 182.35 803.1 188.4 799.7 192.65 793.5 196.3 794.6 197.9 795.65 199.5 806.2 197.85 815.25 191.8 817.05 190.6 817.85 191.3 818.1 191.55 818.3 194.9 818.5 198.2 818.05 203.9 817.85 206.9 816.7 208 815.55 209.05 813.9 209.3 813.15 209.4 810.85 209.4 805.8 209.15 801.85 209 803.7 211.95 805.4 214.65 812.15 225.65 817.3 235.3 821.05 242.25 823.7 250.2 831.35 272.8 830.1 296.05 828.45 327.45 811.3 357.15 796.6 382.45 773.4 402.1 781.9 414.05 787.15 428.45 818.85 415.1 858.25 398.4 869.5 393.6 873.8 392.1 882.65 388.9 890 387.9 898.7 386.65 906.7 388.3 911.5 389.3 915.55 391.25
M 749.9 121.25
Q 753.95 135.6 750.95 147.8 760.45 138.25 764.75 125.4 767.55 116.6 765.25 111.05 763.95 108.05 761 105.5 758.85 103.55 755.1 101.4 741.35 93.95 726.65 92.75 736.2 88.75 752.75 87.4 736.25 84.55 723.85 84 709.5 83.35 695.6 86.7 706.1 73.45 712.1 57.65 701.9 59.5 692.5 65.45 682.55 71.7 677.25 81.15 671.95 90.55 668.95 101.65 668.05 104.95 667.45 108.35 666.05 115.65 666.85 124.05 656.1 116.9 646.85 106.6 643.5 102.85 640.3 98.7 632.65 88.7 619.8 67.3 619 67.75 618.6 68.6 617.6 70.85 617.95 74.4 618.9 83.6 623.2 92.85 614.15 95.3 605.3 100.95 601.15 103.55 596.9 106.6 587.9 113.1 572.8 125.8 555.9 140.05 548.85 145.4 536.6 154.75 525.5 162.7 532.2 162.65 538.35 161.35 543.35 160.3 549.45 158.4 531.2 175.95 517.8 198.1 537.95 191.05 556.55 184.95 560.45 187 562.85 188.65 563.5 189.05 564.05 189.4 568.05 191.9 571.75 193.15 576.65 194.85 581.85 194.65 573.85 187.7 569.35 178.3
M 786.7 186.3
Q 776.5 171.75 765.55 160.85 758.5 153.75 750.95 147.8 749.9 151.3 746.45 161.15 742.95 170.95 732.65 184.8 735.35 165.7 730.25 147.15 729 142.85 727.6 140.15 725.75 136.5 723.1 134.3 720.3 132 715.8 130.75 713.9 130.2 707.6 129.05 698.5 127.4 695.75 127.25 689.05 126.85 684.55 129.5 680 132.15 677.9 137.45 675.8 142.5 673.45 150.45 669.9 147.25 660.7 141.85 651.45 136.45 647.65 134.1 643.85 131.7 637.35 129.2 630.85 126.65 625.65 128.4 620.4 130.1 616.4 133.55 612.35 137 608.55 142.05 604.75 147.05 603.1 151.5 601.4 155.9 600.5 159.8 599.6 163.7 602.3 168.55 605 173.4 615.05 184.5 624.15 194.55 640.5 205.65 628.4 206 623.05 206.45 612.65 207.35 604.5 205.8 593.15 203.55 583.75 196.2 582.8 195.45 581.85 194.65
M 718.15 162.95
Q 717.75 158.45 716.85 156.05 715.9 152.55 713.75 150.3 712.25 148.6 710.1 147.65 707.95 146.65 705.6 146.65 703.25 146.65 701.35 147.8 700.15 148.7 699.2 150.65 699.15 150.75 699.1 150.85 698.7 151.65 698.35 152.65 697.75 154.7 698.05 156.65 698.4 158.85 699.85 159.9 701.2 160.95 703.55 160.8 704.9 160.75 707.6 160.3 710.2 160 712.7 160.65 715.3 161.35 718.15 162.95 Z
M 640.35 181.6
Q 640.85 181.6 642 180 642.85 178.8 643.5 178.15 645.35 176.35 649.15 175.3 651.3 174.7 655.5 173.55 658.85 172.2 660.5 169.9 661.9 168.05 662.05 165.5 662.25 162.95 661.1 160.9 659.95 158.8 657.85 157.6 655.65 156.35 653.25 156.55 650.5 156.7 647.35 158.65 644.05 160.7 642.5 163.05 640.4 166.2 640.1 172.15 640.1 172.2 640.2 176.95 640.25 179.8 640.35 181.6 Z
M 778.9 196.15
Q 773.05 190.35 766.5 187.55 762.9 186.05 759.75 185.85 755.95 185.65 753.25 187.3 750.95 188.65 749.2 191.5 748.15 193.2 746.6 196.9 740.05 212.8 737.2 224.3 734.3 235.75 734.85 248.65 734.85 248.15 734.9 247.65 735.5 241.8 737.4 237.55 739.3 233.25 742.5 227.4 747.3 218.55 752.15 212.7 756.95 206.8 764.15 205 771.3 203.15 778.45 207.1 785.6 211.05 793.35 216.95 790.85 212.2 788.4 208.35 785.3 203.4 782.3 199.9 780.65 197.9 778.9 196.15 783.75 192.35 786.7 186.3
M 734.85 248.65
Q 734.5 254.1 736.4 261.2 738.45 268.9 740.95 276.75 743.45 284.55 746.15 292.35 748.85 300.1 753.3 305.6 754.5 307.05 756.05 308.25 756.1 302.9 758.2 297.05 759.85 292.45 763.1 286.65 770.55 273.4 779.5 267.8 785.4 264.05 792.55 263 799.75 261.95 806.75 264.15 806.2 256.5 804.1 247.65 800.25 231.2 793.6 217.4
L 793.55 217.3
Q 793.4 217.1 793.35 216.95
M 788.4 208.35
L 801.85 209
M 804.45 287
Q 805.05 285.1 805.5 283.15 807.45 274.95 806.85 265.35 806.8 264.65 806.75 264.15
M 785.05 277
Q 784.55 275 783 274.05 781.1 273.05 778.35 274.15 775.1 275.45 772.75 278.4 770.4 281.3 769.85 284.8 769.4 288.35 771.1 290.05 771.6 290.5 772.15 290.75 772.3 290.8 772.25 290.9 772.15 290.95 773.65 291.05 775.15 291.1 776.75 290.6 778.3 290.05 779.1 289.6 779.45 289.4 779.8 289.2 780.85 288.5 781.75 287.55 783.65 285.75 784.55 283.3 785.5 280.8 785.25 278.3 785.2 277.6 785.05 277 791.35 272.9 796.1 274.8 799.05 275.85 801.05 279.25 802.4 281.55 804.45 287 802.3 293.85 798.05 299.7 792.6 307.1 784.6 310.1 776.6 313.1 767.15 312.1 766.75 312.05 766.35 312 760 311.15 756.05 308.25
M 772.15 290.75
Q 771.6 291.75 771.05 292.8 766.35 301.95 766.35 312
M 679.75 299.8
Q 679.5 298.15 678.55 296.85 677.5 295.5 676 295.05 674.5 294.55 672.55 295 671.25 295.35 669.25 296.3 665.7 298.1 663.7 299.85 660.95 302.25 660.1 305.05 659.2 308.4 661 310.8 661.05 310.85 661.1 310.95 662.25 312.2 663.9 313 665.5 313.75 667.25 313.55 669.9 313.1 673.35 310.55 676.3 308.45 678 306.05 680.1 303.1 679.75 299.9 679.75 299.85 679.75 299.8 686.8 298.05 692.65 299.9 692.15 294.45 691 290.15 690.7 289.15 690.4 288.1 680.75 285.55 671 288.75 661.55 291.85 654.75 299.15 648.3 305.95 644.9 315.55 641.7 324.45 641.5 334.6 647.45 336.1 652.6 336.45 652.3 330.2 653.7 324.6 655.05 319.2 658.25 314.55 659.55 312.65 661.1 310.95
M 690.4 288.1
Q 688.6 281.9 685.35 273.3 683.1 267.5 681.7 264.7 680.9 263.05 680.05 261.65 678.4 258.9 676.6 256.9 672.8 252.7 666.6 249.55 662.3 247.4 654.75 244.9 639.55 239.7 627 237.55 614.45 235.35 606 241.8 597.5 248.25 591.05 258.45 584.6 268.6 579.45 280.85 585.65 294.7 594.35 305.4 603.05 316.1 614.4 323.1 625.7 330.1 639.3 334 640.4 334.3 641.5 334.6
M 560.6 239
Q 564.7 242.6 570.55 245.5 575.3 247.9 584.55 251.3 587.55 243.55 593 232.3 595.7 226.8 597.6 224.05 600.55 219.8 604.25 217.8 608.9 215.3 615.35 215.95 620.2 216.4 626.85 218.8 645.25 225.4 658.25 234.75 673.65 245.9 680.05 261.65
M 652.6 336.45
Q 658.05 336.8 662.65 335.85 672.35 333.8 678.25 330.5 684.1 327.2 688.65 321.5 693.2 315.8 693 306.35 692.95 302.95 692.65 299.9
M 752.1 370.8
Q 750.45 371.3 748.6 371.8 724.65 377.9 700 374.05 692.5 373.1 689.1 370.05 685.8 367.2 685.25 362.5 685.05 361.1 685.1 359.6 685.3 353.55 689.6 348.85 708.35 353.2 728.05 352.35 741.35 351.8 754.15 348.75 760.3 347.3 766.4 345.3 769.6 348.5 769.25 353.85 769.2 354.5 769.1 355.2 768.45 359.5 765.6 362.9 762.8 366.25 757.95 368.55 755.45 369.75 752.1 370.8 752.15 368.35 752 366.1 751.85 363.8 751.75 363 751.65 362.15 751.3 361.25 751 360.3 748.5 360.75 745.7 361.2 740.85 361.95 734.5 362.9 727.55 363.5 706.2 365.4 685.25 362.5
M 732.5 317.05
Q 735.5 313.05 738.35 312.95 741.15 312.85 742.25 314.65 743.35 316.45 743.35 320.3 743.65 325.95 743.5 328.05
M 754.15 348.75
Q 755 352.6 754.35 356.4 754.2 358.35 753.55 359.15 752.9 359.9 750.05 360.45 749.45 360.55 748.5 360.75
M 931.5 426.25
Q 930.6 429.95 929 434.05 923.6 447.45 900.35 454.55 877.1 461.65 859.6 464.2 842.1 466.75 816.45 468.35 796.75 469.55 783.8 470.75 784.55 487.45 784.6 496.75 784.65 511.4 783.25 523.05 783.2 523.25 783.2 523.45 781.55 512.35 778.2 501.8 774.5 490.2 766.85 472.7 766.25 485.55 764.9 493.6 763.5 501.65 760.5 509.9 761.5 512.55 762.45 515.25 764.25 520.4 765.85 525.7 766.15 526.7 766.45 527.75 767.3 530.75 768.1 533.75 775.65 562.65 775.85 592.3 775.95 603.15 774.55 612.5
L 804.4 718.9
Q 785.25 697.35 773.8 669.1
L 775.95 720
M 773.4 402.1
Q 771.1 404.05 768.75 405.9 759.45 413.25 750.65 418 752.1 425.3 749 432.85 746.15 439.85 740.35 445.15 736.65 448.55 731.85 451.35 731.15 451.75 730.45 452.15 754.85 442 787.15 428.45
M 750.65 418
Q 740.45 423.45 730.85 425.4 729.5 425.7 728.1 425.9 727.35 438.9 731.85 451.35
M 783.8 470.75
Q 778.65 471.2 774.55 471.65 770.7 472.05 766.85 472.65
L 766.85 472.7
M 766.85 472.65
Q 755.45 474.25 744.95 476.7 752.4 489.8 758.15 503.85 759.35 506.85 760.5 509.9
M 739.85 468.15
Q 742.2 471.85 744.35 475.7 744.65 476.2 744.95 476.7
M 728.1 425.9
Q 716.8 427.75 702.85 425.6 696.35 424.6 685.85 422 684.85 425.85 685.6 430.7 686.2 434.35 688 439.4 692.2 450.75 699.05 460.5 715.15 457.85 730.45 452.15
M 685.85 422
Q 680.85 420.75 675 419.15 664.4 416.2 655.15 413.25 653.05 419.05 652.9 425.65 652.7 432.05 654.35 438.55 656.75 448.85 664.6 461.4 667.5 462.15 670.55 462.7 670.85 462.75 671.2 462.8
L 671.25 462.8
Q 685.4029296875 462.749609375 699.05 460.5
M 671.25 462.8
Q 671.375 462.8083984375 671.5 462.85 628.25 468.9 585.3 470.15 585.2 470.15 585.1 470.15 565.2 470.6 555.15 471 537.75 471.65 525.3 473.15 520.35 473.75 515.65 474.55 488.45 479.15 467.95 492.05 476.6 500.25 479 504.65 481.3 508.9 481.85 513.8 482.4 518.7 481.1 523.3 479.8 527.9 476.75 531.8 474.3 534.95 471.25 537.3 480.9 545.8 495.25 546.1 509.95 546.35 553.6 531.8 554.65 531.45 555.7 531.1 564.55 528.1 574.35 524.75 614.6 511.05 670.15 491.5 670.05 507.3 668.85 523.7 667.6 540.15 663.1 555.8 660.5 564.75 654.6 582.7 650.25 598.4 651.5 610.05 653.85 631.9 673.8 647.2 677.3 649.9 681 652.15 697 661.9 716.35 662.9 733 663.8 744.9 658.55 748.1 657.05 751 655.15 764.7 646.35 770.95 627.8 773.3 620.75 774.55 612.5
M 655.15 413.25
Q 648.25 411 642.1 408.75 638.6 411.35 636.2 414.4 631.8 419.85 631.1 426.45 630.35 433.05 636.35 442.05 642.15 450.6 651.85 456.1 657.85 459.5 664.6 461.4
M 768.1 533.75
Q 748.45 535 735.3 538.4 722.2 541.85 710.45 547.9 713.65 552.65 716.25 557.65 716.45 557.95 716.5 558.15 716.55 558.45 716.4 558.7 716.1 559 715.25 558.95 713.7 558.8 711.85 558.2 710.6 557.8 708.6 557 703.85 555.1 698.15 552.45 697 553.75 695.55 555.3 694.5 556.4 692.75 558.1 691.1 559.85 690.1 560.75 688.55 562.15 687.2 563.15 686.45 563.75 685.9 563.6 685.2 563.35 685.4 562.05 686.65 554.65 689.15 547.4 682.9 545.35 680.75 544.6 677.95 543.6 676.75 543.05 674.55 542.15 673.05 541.15 672.35 540.7 672.5 540.3 672.6 539.95 673.15 539.75 674.3 539.35 675.8 539.05 676.6 538.85 678.4 538.5 684.6 537.55 690.3 537.05 691.15 530.25 693.05 523 693.5 521.35 694.45 521.25 695.35 521.15 696.2 522.5 697.9 525.2 699.3 527.9 712.6 519.35 727.4 513.25 742.1 507.1 758.15 503.85
M 699.3 527.9
Q 701 531.1 702.3 534.3 705.75 533.6 709.2 533.15 720.2 526.55 733 522.15 745.9 517.75 762.45 515.25
M 710.45 547.9
Q 709.25 546.1 707.95 544.35 713.85 540.7 718.7 536 719.7 534.9 720.75 533.8 721 533.55 721.05 533.4 721.2 533.2 721.1 532.95 720.95 532.5 720 532.5 714.55 532.5 709.2 533.15
M 718.7 536
Q 738.8 528.6 765.85 525.7
M 681 652.15
Q 681.1 662.55 678.9 673.1 677.45 680.05 673.85 691.9 671.2 700.75 667.5 720
M 723.75 691.05
Q 720.45 703.8 719.9 720
M 744.9 658.55
Q 746.25 672.2 750.95 720
M 644.85 37.4
Q 634.6 33.85 630.85 32.65 625.15 30.6 622.5 32.55 621.4 33.35 620.9 34.75 620.4 36.05 620.5 37.55 620.5 38.75 620.95 40.25 621 40.35 621.85 42.9 624.65 49.35 629.1 56.85 631.9 61.65 639.45 70.1 630.6 66.85 626.4 66.65 622.2 66.45 619.8 67.3
M 605.3 100.95
Q 572.9 95.4 539.2 85.75 548.65 89.8 553.95 93.2 560.65 97.5 559.55 100.15 558.4 102.75 539.55 102.95 520.65 103.15 485.65 101.6 492.1 104.2 499.7 110.05 492.6 111.1 486.65 114.2 479.35 118 470.45 125.6 476.55 124 483.25 123.6 489.95 123.15 497.45 123.8 484.8 127.1 475.2 138.8 468.3 147.2 460.25 163.4
L 416.1 251.8
Q 404.7 274.6 394.7 286.4 380.15 303.55 361.6 308.05 383 307.8 401.7 298.65 397.95 313.75 390.35 326.7 382.25 340.4 370.6 351.05 388.1 346.55 404.7 338.7 419.45 331.7 433.5 320.5 400.85 376.65 421.25 468.55 422.8 475.45 429.4 500.2 433.35 501.6 436.95 502.45 448.2 505.25 458.35 503.8 458.35 503.3 458.35 502.75 458.45 499 457.85 496.65 457.3 494.75 455.65 491.6 453.8 488.1 453.25 486.55 451.5 481.95 452.5 477.05 452.7 475.5 453.5 475.05 454.7 474.4 455.85 475.55 456.8 476.5 457.35 478.15 459.5 483.95 467.6 491.65 467.75 491.8 467.95 492.05
M 579.45 280.85
Q 579 275.95 579.55 270.7 575.8 274.45 571.25 276.9 568.4 278.4 565.4 279.35 566.6 286.25 568.15 293.35 575.25 325.95 594.95 383.4 603.25 390.35 613.95 396.3 625.45 402.65 642.1 408.75
M 579.55 270.7
Q 580.3 263.55 582.9 255.75 583.6 253.7 584.55 251.3
M 560.6 239
Q 559.55 238.1 558.6 237.15 554.9 233.45 550.85 226.5 544.55 215.75 544.1 215.05 542.95 213.35 541.6 213.15 540.5 213.15 539.25 214.9 537.7 217.1 536.25 221.65 534.9 225.7 534.4 228.55 533.75 232.4 534.35 235.65 535.35 240.85 539.65 245.3 543.4 249.1 549 251.8 552.15 253.3 559.6 255.9 560.9 256.35 562.05 256.8 567.15 258.65 570.7 259.6 568.4 262.75 562.9 263.55 562.45 263.6 562 263.65 554.55 264.65 547.35 262.9 546.6 262.75 546.2 262.75 545.5 262.7 545.1 262.9 543.55 263.75 544.35 266.9 545.8 271.95 547.3 274.6 549.5 278.55 552.85 279.9 556.25 281.25 560.6 280.4 563 280.05 565.4 279.35
M 515.65 474.55
Q 526.85 438.75 548.7 407.3 535.4 410.2 523.5 416.15 539 396.6 550 372.55 551.2 369.9 552.3 367.3 542.05 365.3 534.1 354.3 525.4 342.55 520.8 328.45 516.2 314.3 516.1 305.8 515.9 297.35 516.6 295.85 517.2 294.35 519.2 293.9 521.2 293.4 531.45 294.3 541.75 295.15 549.45 301.7 557.1 308.2 559 321.65 560.85 335.05 558.65 346.15 556.4 357.2 552.3 367.3
M 562.05 256.8
Q 562.45 260.15 562.9 263.55
M 594.95 383.4
Q 581 371.65 573.85 356 581.65 386.75 586 406.7 590.3 426.65 589.55 441.35 588.75 456 585.3 470.15
M 562.85 188.65
Q 559.2 212.45 560.6 239
M 574.35 524.75
Q 573.55 540.7 576.25 556.8 579.9 578.7 589.35 599.7 576.55 587.55 567.5 569.4 563.5 561.45 559.75 550.8 557.6 544.75 553.6 531.8
M 429.4 500.2
Q 423.55 498.15 416.85 495.05 414.65 494.05 413.5 494.05 412.6 494.05 411.85 494.55 411.05 495.1 410.85 495.9 410.55 497.05 411.85 498.65 414.15 501.6 418.85 504.55 423.95 507.65 431 510.05 431.5 510.25 432.1 510.45 436.05 511.75 442.8 513.6 437.3 514 433.1 514.15 428.15 514.25 424.85 514.1 414.9 513.7 407.5 510.9 405.4 510.1 404.75 510.9 404.15 511.5 404.35 512.8 405.1 517.35 412.85 520.15 424.25 524.25 436.1 525.3 439.5 525.6 443 525.65 439.85 526.6 436.65 527.45 426.25 530 415.5 530.9 412.65 531.2 412.25 532.55 411.95 533.5 412.75 534.55 414.1 536.2 417.85 536.9 422.1 537.45 429.7 536.5 435.4 535.8 438.9 535.7 440.05 535.6 444.55 534.4 440.1 536.1 439.15 536.6 433.3 539.65 424.85 544.15 423.15 545.05 423.6 546.05 423.9 546.65 424.85 546.65 430.1 547.75 436.6 546 438.5 545.45 441.2 544.45 444.15 543.35 448 541.65 455.35 538.55 459.4 537.6 465.95 536 471.2 537.3
L 471.25 537.3
M 464.6 518.05
Q 461.8 517.5 460 514.65 458.45 512.1 458.25 508.8 458.2 507.95 458.35 503.8
M 432.1 510.45
Q 432.55 512.25 433.1 514.15
M 436.1 525.3
Q 436.35 526.35 436.65 527.45
M 438.9 535.7
Q 439 536.15 439.15 536.6
M 441.2 544.45
Q 450.1 578.9 453.1 602.4 458 639.45 452.05 671.45 446.95 698.8 434.35 720
M 667.45 108.35
Q 657.1 107.6 646.85 106.6"/>
</defs>

<g transform="matrix( 1, 0, 0, 1, 0,0) ">
<use xlink:href="#Layer2_0_FILL"/>
</g>

<g transform="matrix( 1, 0, 0, 1, 0,0) ">
<use xlink:href="#Layer1_0_FILL"/>
</g>

<g transform="matrix( 1, 0, 0, 1, 0,0) ">
<use xlink:href="#Layer0_0_FILL"/>

<use xlink:href="#Layer0_0_1_STROKES"/>
</g>
</svg>
