
<svg xmlns="http://www.w3.org/2000/svg" version="1.1" xmlns:xlink="http://www.w3.org/1999/xlink" preserveAspectRatio="none" x="0px" y="0px" width="1280px" height="720px" viewBox="0 0 1280 720">
<defs>
<g id="Layer2_0_FILL">
<path fill="#FFFFFF" stroke="none" d="
M 1280 720
L 1280 0 0 0 0 720 1280 720 Z"/>
</g>

<g id="Layer0_0_FILL">
<path fill="#000000" stroke="none" d="
M 547.25 279.6
Q 549.45 277.45 549.45 274.4 549.45 271.35 547.25 269.15 545.1 267 542.05 267 539 267 536.8 269.15 534.65 271.35 534.65 274.4 534.65 277.45 536.8 279.6 539 281.8 542.05 281.8 545.1 281.8 547.25 279.6
M 459.85 291.15
Q 461.85 289.15 461.85 286.3 461.85 283.45 459.85 281.45 457.85 279.45 455 279.45 452.15 279.45 450.15 281.45 448.15 283.45 448.15 286.3 448.15 289.15 450.15 291.15 452.15 293.15 455 293.15 457.85 293.15 459.85 291.15
M 682.5 288.6
Q 684.85 290.95 688.15 290.95 691.45 290.95 693.8 288.6 696.15 286.25 696.15 282.95 696.15 279.65 693.8 277.3 691.45 274.95 688.15 274.95 684.85 274.95 682.5 277.3 680.15 279.65 680.15 282.95 680.15 286.25 682.5 288.6
M 760.3 269.3
Q 762.25 271.25 765 271.25 767.75 271.25 769.7 269.3 771.65 267.35 771.65 264.6 771.65 261.85 769.7 259.9 767.75 257.95 765 257.95 762.25 257.95 760.3 259.9 758.35 261.85 758.35 264.6 758.35 267.35 760.3 269.3 Z"/>
</g>

<path id="Layer0_0_1_STROKES" stroke="#000000" stroke-width="1" stroke-linejoin="round" stroke-linecap="round" fill="none" d="
M 802.95 230.8
Q 824 216.4 838.4 202.4 855.75 185.5 866.25 167.35 877.9 146.85 880.45 124.6 883.2 100.7 874.5 80.75 865.3 59.6 844.45 48.05 822.9 36.05 801.6 41.75 788.55 45.3 775.65 55.85 769.33828125 61.0046875 761.35 69.45 757.9537109375 73.1234375 754.25 77.35 743.1369140625 90.1865234375 732.625 103.475 732.4443359375 103.6859375 732.275 103.9 723.7421875 114.651171875 715.6 125.7 737.8 115 761.7 114.35 785.7 113.65 807.1 122.75 814.95 126.2 818.6 130.1 820.95 132.75 821.95 136.1 823 139.7 822 142.75 820.45 147.35 815.05 149.9 810.8 151.9 804.375 152.65 811.958203125 158.7091796875 817.6 166.35 826.4 178.15 825.1 188.25 823.75 198.55 813.1 204.35 806.190625 208.096875 798.7 208.475 802.6 217.6 802.95 225.65 803.0802734375 228.2400390625 802.95 230.8 802.6984375 236.0923828125 801.35 241.25
M 206.7 722.75
Q 203.819921875 706.0177734375 207.95 690.85 205.9986328125 690.613671875 205.2 690.5 183.908984375 687.4740234375 170.45 672.225 156.9978515625 656.98203125 151.05 637.225 145.1005859375 617.4541015625 148.5 598.25 150.4 587.15 155.35 578.2 160.9 568.3 169.35 562.85 177.00546875 557.751953125 184.925 555.45 192.8375 553.14921875 212.35 551.425 231.844921875 549.683984375 246.6 549.325 261.366015625 548.9751953125 266.5 546.875 271.63359375 544.768359375 275.175 540.35 278.7068359375 535.9404296875 279.375 529.475 280.0490234375 523.001171875 279.5 514.85 275.996484375 463.2953125 262.575 413.6 249.1603515625 363.913671875 234.9 312.1 227 279.15 229.55 244.6 232.1 210 247.35 179.75 251.1826171875 172.0974609375 255.725 164.925 250.0994140625 168.05859375 245.175 169.35 240.25 170.6470703125 235.5 170 230.75 169.25 226.9 166.15 222.95 162.95 221.25 158.5 219.55 154 220.35 149.05 221.1 144.15 224.1 140.5 226.85 137.05 233.1 133.5 238.55 130.45 242.85 128.95 248.3 127 253.35 126.9 251.5787109375 125.1353515625 248.95 122.9 245.6990234375 120.1388671875 242.525 116.125 239.3501953125 112.103515625 240.5 106.75 241.15 103.3 244.4 101.2 247.6 99.15 251 100 253.7 100.65 256.3 103.15 257.3 104.1 260.6 108 271.55 120.75 288.1 127.4 288.45078125 127.1013671875 288.8 126.8 294.5005859375 121.8921875 300.475 117.55 322.042578125 101.84375 347.25 93.35 378.1 81.15 411 75.8 443.9 70.45 477 72.25 499.3 73.4 516.2 78.1 535.6494140625 83.562890625 551.1 95.35 557.2 86.2 568.3 73.6 582.45 57.6 586.5 53.5 609.85 29.9 633 27.5 641.85 26.65 652.55 28.8 660 30.3 671.6 34.1 717.45 48.9 761.35 69.45
M 643.8 52.75
L 635.3 76.85
Q 634.25 79.3 634.25 80 634.45 80.95 634.6 81.1 635.3 82.15 636.85 81.85 637.9 81.7 639.35 81.1
L 646.9 77.05
Q 648.797265625 76.1919921875 650.125 76.5 651.44921875 76.8001953125 652.475 77.8 653.50703125 78.8099609375 652.8 79.975
L 639.075 101.4 639 101.5
Q 638.437890625 102.2771484375 638.25 102.7 637.8 103.45 637.75 104 637.65 104.75 637.95 105.5 638.25 106.25 638.85 106.6 639.55 106.95 640.75 106.75 642.35 106.35 642.65 106.3
L 660.15 102.05
Q 664.1 101.35 665.375 101.775 666.6484375 102.1984375 667.125 102.775 667.6046875 103.3546875 667.775 104
L 674.4 124.9
Q 674.6 125.6 675.35 127 676.35 128 677.25 128.1 678.05 128.35 679.05 128.25
L 695.65 124.7 696.75 124.35
Q 697.4 123.7 697.25 122.85 697 122.1 696.6 121.5 696.033203125 120.413671875 695.7 119.875
L 695.675 119.8 683.525 102.075
Q 683.44453125 101.90546875 682.725 100.775 682.0041015625 99.6458984375 682.425 98.85 682.8486328125 98.0513671875 683.7 97.85
L 700.9 94.975
Q 701 94.981640625 701.7 94.8 702.402734375 94.6087890625 702.65 94.3 702.891796875 94.0009765625 702.775 93.575 702.6576171875 93.1435546875 702.225 92.675 701.7986328125 92.2056640625 701.3 91.9 700.79375 91.584375 699.1 90.7
L 673.275 77.05
Q 671.6203125 76.088671875 670.725 75.375 669.838671875 74.66015625 669.575 73.65 669.2982421875 72.6421875 669.8 71.95 670.308984375 71.261328125 671.6 71.35 672.8873046875 71.437109375 674.5 71.4
L 681.7 71.4
Q 683 71.25 683.6 70.85 684.6 70.15 684.25 69.25 684.15 69 683.85 68.75 683.5 68.5 683.35 68.35 679.6 66.35 678.3 65.85
L 651.3 51.8
Q 648.75 50.5 647.5 49.75 646.1888671875 49.3326171875 645.45 49.625 644.7115234375 49.91171875 644.325 51.075 643.9400390625 52.2478515625 643.8 52.75 Z
M 798.7 208.475
Q 795.28125 208.63125 791.75 208.1 782.7 206.8 771.4 201.05 758.7 193.95 752.25 190.6 736 182.2 718.8 178.65 700.6 174.9 680.7 177.1 675.76796875 185.03359375 671 193.1 660.60078125 210.8111328125 652.25 222.975 652.8580078125 222.7578125 653.475 222.55 660.28828125 220.2546875 670.95 219.55
M 715.6 125.7
Q 697.1755859375 150.6625 680.7 177.1
M 783.5 140.85
Q 793.65 144.6 802.45 151.15 803.4314453125 151.8861328125 804.375 152.65
M 739 199.25
Q 751.35 198.3 763.2 203.25 775 208.2 783.1 217.6
M 771.65 264.6
Q 771.65 267.35 769.7 269.3 767.75 271.25 765 271.25 762.25 271.25 760.3 269.3 758.35 267.35 758.35 264.6 758.35 261.85 760.3 259.9 762.25 257.95 765 257.95 767.75 257.95 769.7 259.9 771.65 261.85 771.65 264.6 Z
M 742.6 345.5
Q 748.3 347.65 754.55 347.65 760.75 347.65 766.5 345.6 771.9 343.7 775.5 339.85 779.55 335.5 779.5 330.5 779.5 330.41875 779.5 330.35 779.431640625 325.6619140625 775.5 320.6 772.2 316.65 767.85 314.3 763.2 311.8 758.35 311.6 752.65 311.25 746.15 314.1 744.0630859375 315.0330078125 741.325 316.6 738.51171875 318.209765625 734.95 320.475 731.4212890625 332.4998046875 721.6 342 706.3 356.8 684.7 356.8 663.1 356.8 647.8 342 632.5 327.2 632.5 306.3 632.5 285.4 647.8 270.6 663.1 255.8 684.7 255.8 706.3 255.8 721.6 270.6 724.4294921875 273.337109375 726.725 276.275 729.1384765625 261.615234375 741.4 250.6 756.65 236.95 778.2 236.95 799.75 236.95 815 250.6 830.25 264.3 830.25 283.65 830.25 291.2390625 827.9 297.95 851.75 311.65 865.8 334.95 879.9 358.3 880.35 384.35 880.9 410.5 867.8 434.4 854.7 458.25 832.35 471.925 838.9328125 472.498828125 845.5 473.35 855.5 474.65 861.6 476.75 870.2 479.75 875.1 485.25 881.15 491.95 881.75 502.25 882.3 511.7 878.25 520.75 874.75 528.4 867.8 536.4 863.756640625 541.1421875 854.225 551.925 858.09765625 553.7123046875 861.15 555.45 870.4 560.75 876.1 567.5 879.05 570.95 879.35 573.6 879.55 575.5 878.65 577.05 877.7 578.75 875.775 579.575 884.4880859375 587.3111328125 888.6 596.25 890.6 600.5 889.75 603.1 889.1537109375 604.84921875 887.425 605.8 885.6888671875 606.751953125 884.65 605.925 888.9154296875 611.5927734375 889.75 616.6 890.55 620.9 888.7 624.85 886.807421875 629.0337890625 883.025 630.5 889.325 635.7810546875 894.85 641.5 911.5 658.6 920.9 679.25 930.85 701.2 929.55 723.5
M 696.15 282.95
Q 696.15 286.25 693.8 288.6 691.45 290.95 688.15 290.95 684.85 290.95 682.5 288.6 680.15 286.25 680.15 282.95 680.15 279.65 682.5 277.3 684.85 274.95 688.15 274.95 691.45 274.95 693.8 277.3 696.15 279.65 696.15 282.95 Z
M 800.3 372.825
Q 796.06796875 371.155078125 791.325 369.75 775.4380859375 365.042578125 756.925 363.675 738.420703125 362.3037109375 721.25 365.925 710.453515625 367.9373046875 697.85 372.625 685.2478515625 377.3107421875 673.4 386.775 662.201171875 395.7259765625 656 409.175 724.2744140625 401.076953125 792.1 396.25 795.05 396 796.8 395.6 799.3 395 801 393.75 805.15 390.6 804.3 384.05 803.703515625 378.9302734375 800.3 372.825 810.2041015625 376.7376953125 817.25 382.1 828.7 390.75 834.35 402 840.65 414.25 838.65 428.1 836.55 442.55 826.35 450.6 819.55 455.9 808.95 458.05 801.7 459.5 789.5 459.85 752.55 460.85 748.1 461.15 737.7671875 461.853515625 728.7 463.275 728.33203125 463.3421875 727.975 463.4 716.8296875 465.1953125 707.6 468.1 700.25 470.5 696.5 471.7 689.85 473.8 685.2 474.7 672.35 477.15 663.85 472.35 660.88984375 470.68125 658.5 468.2 654.850390625 464.4548828125 652.5 458.85 649.1 450.75 649.1 440.75 649.05 425.25 655.3 410.75 655.6431640625 409.9537109375 656 409.175
M 800.25 333.15
Q 804 334.5 808.3 333.4 812.3 332.35 815.75 329.75 821.7 324.95 824.85 316
M 741.325 316.6
Q 738.76171875 314.281640625 736.625 311.8 736.1646484375 316.2939453125 734.95 320.475
M 726.725 276.275
Q 736.9 289.265234375 736.9 306.3 736.9 309.10859375 736.625 311.8
M 827.9 297.95
Q 824.2689453125 308.353515625 815 316.65 800.21171875 329.9353515625 779.5 330.35
M 799.175 534.125
Q 808.934375 534.899609375 814.6 532.35 818.7 530.4 821.2 526.65 823.8 522.65 823.35 518.5 822.4 510.45 811 504.5 803.65 500.75 794.2 497.95 787 495.85 776.6 493.75 745.272265625 487.415625 712.95 484.95 707.7453125 484.5552734375 702.525 484.25 710.263671875 491.9341796875 714 502.75 717.7390625 513.7181640625 716.25 524.775 733.7935546875 525.463671875 751.225 527.3 751.339453125 527.31328125 751.45 527.325 773.0693359375 529.5943359375 794.525 533.625 795.5380859375 533.7681640625 796.525 533.875 797.89140625 534.034765625 799.175 534.125 821.3306640625 538.9900390625 843.35 547.35 849.4208984375 549.678515625 854.225 551.925
M 852.9 565.15
Q 866.1 571.6 873.65 577.75 874.7482421875 578.651953125 875.775 579.575
M 658.5 468.2
Q 662.9 459.65 670.75 453.8 678.6 447.95 687.85 446.25 693.05 445.25 704.8 444 714.1 442.3 718.05 437 720.45 433.9 722.85 424.3 725 415.75 728.8 412.65 731.5 410.45 735.35 410 738.95 409.6 742.55 410.75 748.65 412.75 752.7 418.2 756.75 423.65 756.8 430 756.9 436.35 753.1 441.95 749.3 447.5 743.3 449.75 743 449.85 736.9 451.5 733.05 452.55 730.95 454.15 728.2 456.2 727.95 459.95 727.8505859375 461.9884765625 728.7 463.275
M 702.525 484.25
Q 702.38125 484.2419921875 702.25 484.225 669.3234375 482.4109375 635.4 484.55 626.148828125 485.1376953125 616.9 486.025 556.171484375 491.7734375 495.85 510 474.0283203125 516.64296875 457.05 523.725 452.03515625 525.8224609375 447.45 527.95 438.1705078125 532.2328125 429.85 536.975 415.41953125 545.2140625 403.85 554.85 397.25 560.4 393.2 565.35 388 571.65 385.85 578.1 383.5 585.55 385.35 593 387.3 600.9 395 604.3 394.7451171875 599.90390625 395.75 595.35 397.1 589.25 400.7 582.35 403.1 577.7 408 570.25
M 716.25 524.775
Q 693.362890625 523.889453125 670.3 524.95 662.55 547.65 644.05 568 629.4 584.15 605.85 601.35 593 610.9 582.7 616.75 569.622265625 624.2373046875 557.8 628.675 576.33125 633.244921875 598.825 639.55 603.1685546875 640.766015625 607.2 641.9 613.0951171875 643.541015625 618.325 644.975 634.4087890625 649.4220703125 644.275 652.025 650.97109375 653.7869140625 654.8 654.7 672.62265625 658.9580078125 688.5 661.525 714.8736328125 649.032421875 734.425 628.675 753.97265625 608.3056640625 759.625 587.8 765.27890625 567.2947265625 763.05 552.275 760.821484375 537.2662109375 751.45 527.325
M 794.525 533.625
Q 794.435546875 533.6123046875 794.35 533.6 811.3185546875 558.1546875 815.15 578.575 818.9908203125 599.001953125 815.625 616 812.2490234375 632.9876953125 801.35 643.55 790.45546875 654.112890625 776.45 658.6 762.44765625 663.0955078125 746.75 664.65 733.45 666 717.25 664.85 707.0470703125 664.1822265625 695.825 662.625 698.6185546875 677.348828125 708.25 693.5 714.35 703.6 728.1 721.35
M 712.95 484.95
Q 744.15625 474.66875 777 471.9 804.866796875 469.520703125 832.35 471.925
M 695.825 662.625
Q 692.2212890625 662.119140625 688.5 661.525
M 866.85 588.6
Q 874.85 594.75 881.6 602.25 883.3013671875 604.1203125 884.65 605.925
M 817.35 593.85
Q 856.85078125 608.4814453125 883.025 630.5
M 520.85 179.25
Q 538.05 180.05 557.6 193.35
M 551.1 95.35
Q 574.3 114.05 585.6 150.75 593.6 176.2 593.85 203.35 593.990234375 215.9958984375 592.45 228.35 665.8388671875 171.514453125 732.275 103.9
M 444.85 186
Q 433.35 188.9 424.15 197.05 414.9 205.2 411.55 216.5
M 512.6 354.25
Q 524.4 357.65 533.75 356 539.25 355.05 543.8 352.3 548.533984375 349.390625 551.275 345.125 551.312109375 345.0599609375 551.35 345 554.35 340.4 554.4 334.85 554.5 329.1 551.35 325 547.2 319.5 539 317.75 532.15 316.25 523.55 317.95 518.05 319.05 507.875 322.5 506.9248046875 325.628515625 505.55 328.6 501.44453125 337.5099609375 493.55 344.95 477.05 360.55 453.75 360.55 430.45 360.55 413.95 344.95 397.45 329.4 397.45 307.4 397.45 285.4 413.95 269.8 430.45 254.25 453.75 254.25 477.05 254.25 493.55 269.8 494.6451171875 270.835546875 495.675 271.9 499.7484375 263.8458984375 507.15 257.05 514.2435546875 250.558203125 522.6 246.85 486.75 223.8 457.55 197.45 428.25 170.95 403.2 141.7 402.05 199.75 387.15 258.35 386.263671875 261.841796875 385.325 265.325 395.051953125 273.118359375 406.75 277.25
M 461.85 286.3
Q 461.85 289.15 459.85 291.15 457.85 293.15 455 293.15 452.15 293.15 450.15 291.15 448.15 289.15 448.15 286.3 448.15 283.45 450.15 281.45 452.15 279.45 455 279.45 457.85 279.45 459.85 281.45 461.85 283.45 461.85 286.3 Z
M 381.5 280
Q 390.6 285.25 401.25 286.75
M 385.325 265.325
Q 371.1546875 318.511328125 347.4 368.45 336.6712890625 358.4361328125 325.9 353.25 325.2501953125 352.93515625 324.6 352.65 312.32265625 347.1150390625 301.35 350.25 298.4556640625 351.1005859375 295.85 352.5 288.9619140625 356.162109375 284.1 363.6 277.7 373.35 277.5 385.1 277 404.75 292.75 426.85 305.5 445.5 320.5 451.5 329.55 455.2 339.1 453.8 349.2 452.3 355.45 447.15 355.5603515625 447.350390625 355.675 447.55 357.5267578125 450.889453125 359.55 454.125 366.611328125 465.3810546875 375.8 475.35 385.3109375 485.6642578125 397.1 494.6 405.1744140625 500.705078125 413.65 505.675 433.102734375 517.0990234375 457.05 523.725
M 415.3 380.65
Q 415.3 388.3 409.1 393.7 402.95 399.15 394.25 399.15 385.55 399.15 379.35 393.7 373.2 388.3 373.2 380.65 373.2 373 379.35 367.55 385.55 362.15 394.25 362.15 402.95 362.15 409.1 367.55 415.3 373 415.3 380.65 Z
M 437.6 388.1
Q 433.8275390625 390.721484375 430.35 393.75 421.555078125 401.40234375 415.55 411.05 483.55 407.2 547.6 405.35 552.55 405.25 555.3 404.8 559.5 404.05 562.35 402.1 565.7 399.95 566.75 395.95 567.9 391.8 565.45 388.875 557.56640625 383.6123046875 548 380.05 520.73125 369.9013671875 497.175 371.05 473.63125 372.1984375 458.025 377.725 450.6056640625 380.3498046875 444 384.1 449.548046875 383.701171875 455.5 383.85 459.2 384.15 460.5 385.1 462.95 386.95 462.75 391.5 462.45 394.05 461.25 395.1 460.2 396.15 457.1 396.35 454 396.5 447.1 397 443.7 397.2 441.85 396.35 439.95 395.45 438.85 392.95 438.05 391.15 437.6 388.1 440.6951171875 385.958203125 444 384.1
M 503.45 381.4
Q 503.779296875 381.520703125 504.175 381.6 504.5828125 381.68515625 505.15 382 505.704296875 382.3044921875 506.1 383.1 506.650390625 384.3494140625 507 387.05 507.3478515625 389.75390625 506.325 391.075 505.30390625 392.38984375 502.825 392.675 500.3451171875 392.9638671875 495.85 393.025 491.3515625 393.0951171875 491.1 393.1 488.75 393.1 488 393 486.25 392.75 485.35 391.75 484.15 390.4 484.35 387 484.9 384.2 485.75 383.25 486.9 382.05 490.1 381.5 496.3919921875 380.5064453125 503.45 381.4 Z
M 598.5 241.85
Q 594.519921875 248.7541015625 587.675 252.8 587.2259765625 254.4470703125 586.3 256.55 586.575390625 256.7986328125 586.85 257.05 589.2748046875 259.2763671875 591.35 261.65 596.3 261 600.5 258.3 604.8 255.6 607.1 251.5
M 591.35 261.65
Q 593.492578125 264.0951171875 595.25 266.675 598.348828125 266.1693359375 601.4 265.325 615.11484375 261.566796875 627.75 251.1 633.769921875 246.1181640625 639.55 239.6 645.1650390625 233.2744140625 652.25 222.975
M 595.25 266.675
Q 603.35 278.604296875 603.35 293.6 603.35 315 586.85 330.1 571.8810546875 343.8443359375 551.275 345.125
M 584.35 254.5
Q 586.08671875 253.7208984375 587.675 252.8 590.9052734375 240.7212890625 592.45 228.35
M 627.75 251.1
Q 627.1 255.427734375 627.05 259.85
M 601.4 265.325
Q 609.2126953125 278.0919921875 610.6 293.6 612.040234375 309.0455078125 606.675 323.05 620.7185546875 337.4490234375 629.95 354.625 641.6646484375 376.4103515625 641.925 400.075 642.18515625 423.739453125 633.3 446.5 625.7173828125 465.89609375 613.075 481 614.53515625 483.80390625 616.9 486.025
M 549.45 274.4
Q 549.45 277.45 547.25 279.6 545.1 281.8 542.05 281.8 539 281.8 536.8 279.6 534.65 277.45 534.65 274.4 534.65 271.35 536.8 269.15 539 267 542.05 267 545.1 267 547.25 269.15 549.45 271.35 549.45 274.4 Z
M 522.6 246.85
Q 533.6884765625 241.95 547 241.95 569.961328125 241.95 586.3 256.55
M 495.675 271.9
Q 510.05 286.8603515625 510.05 307.4 510.05 315.3685546875 507.875 322.5
M 545.25 383.65
Q 544.9412109375 383.605859375 544.625 383.575 539.20078125 382.85 531.5 382.85 528.0001953125 382.8501953125 527.3 384 526.5990234375 385.1490234375 526.375 386.725 526.1505859375 388.3005859375 526.15 388.725 526.149609375 389.149609375 526.1 390.3 526.05 391.45 526.5 392.1 527.15 392.9 528.85 393.1 534.25 393.7 542.6 393.5 544.35 393.3 544.45 393.3 545.4 393.1 546 392.6 547.25 391.65 547.75 388.85 547.95 386.25 547.5 385.35 547.1 384.5 546.3 384 545.7740234375 383.659765625 545.25 383.65 Z
M 598.8 315.55
Q 602.909375 319.2052734375 606.675 323.05
M 615.65 354
Q 619.9 361.3 618.5 368.95 617.15 376.6 611.05 380.15 604.95 383.65 597.65 381 590.4 378.35 586.15 371.05 581.95 363.75 583.3 356.1 584.65 348.45 590.75 344.95 596.85 341.4 604.15 344.05 611.45 346.7 615.65 354 Z
M 630.1 328.6
Q 634.15 339.95 643.05 348.6 651.9 357.25 663.35 361.1
M 295.85 352.5
Q 277.5794921875 302.434765625 272.1 248.9 266.4595703125 194.17890625 274.675 140.375 264.13125 151.723046875 255.9 164.625 255.818359375 164.777734375 255.725 164.925
M 288.1 127.4
Q 280.9748046875 133.6140625 274.675 140.375
M 300.475 117.55
Q 284.36875 170.1189453125 294.85 238 299 264.85 308.05 297.75 313.1748046875 316.3033203125 324.6 352.65
M 207.95 690.85
Q 217.1693359375 690.81015625 222.725 689.575 228.2853515625 688.3423828125 233.875 685.6 239.4546875 682.8525390625 243.25 677.75 247.4 672.2 247.1 666.1 247 663.7 246.15 661.65 245.2021484375 659.35234375 242.15 658.15 239.093359375 656.9423828125 233.725 658.175 228.3552734375 659.40625 224.05 663.375 219.7482421875 667.346484375 216.175 672.975 212.59765625 678.601171875 210.85 682.8 209.10625 686.9953125 207.95 690.85 Z
M 415.55 411.05
Q 412.8716796875 415.3263671875 410.75 420 403.55 435.9 404.75 452 405.45 461.45 409.35 469.15 413.75 477.75 421.1 481.75 426.891796875 484.819140625 434.975 485.25 438.55 474.65 444.75 465.3 450.9 456.1 459.1 448.75 466.85 441.85 475.6 437.5 484.95 432.9 494.5 431.6 504.55 430.25 514.3 432.85 524.4 435.6 531.75 442 538 447.45 538.1 453.1 538.1 457.95 533.6 461.55 529.4 464.9 524 465.1 519.5 465.2 514 463.3 511.7 462.5 504.5 459.35 499.3525390625 457.248046875 495.75 456.4 494.2 457.55 493.2 459.25 492.2 460.8 492 462.75 491.65 466.05 493.6 470 495.1 472.9 497.85 476.125 524.4109375 472.1189453125 536.5 473 553.85 475.25 564.3 474.1 579.55 472.4 587.85 463.5 596.45 454.35 596.15 439.7 595.85 426.45 588.75 414.1 579.9923828125 398.5880859375 565.45 388.875
M 613.075 481
Q 610.889453125 483.6142578125 608.35 486.6
M 495.75 456.4
Q 495.1541015625 456.256640625 494.6 456.15 489 455 484.6 456.35
M 434.975 485.25
Q 435.0685546875 485.24609375 435.15 485.25 441.05 485.5 450 484.25 465.55 482.05 496.7 476.3 497.280078125 476.211328125 497.85 476.125
M 670.3 524.95
Q 656.5564453125 525.5787109375 642.75 526.9 564.8 534.3 493.1 563 468.5 572.75 453.8 585.3 434.9 601.45 433.35 621.5 433.15 623.75 431.5 625.85 429.9 627.9 427.5 628.35 425.2 628.8 422.8 627.95 420.5 627.1 418.75 625.35 415.65 622.35 414.1 616.85 411.5 608.6 413.1 601 414 596.95 416.1 593.55 418.3 590 421.5 587.75
M 359.55 454.125
Q 353.75 455.5 349.8 460.55 346.1 465.3 345.1 471.5 344.25 476.8 345.5 483.2 346.4 488.1 348.85 494.6 351 500.5501953125 353.6 506.1 355.9 494.15 359.75 487.35 362.4 482.85 366.2 479.8 370.3 476.5 375.8 475.35
M 429.85 536.975
Q 423.1220703125 535.155859375 416.6 536.5 410.45 537.8 404.75 541.1 403.7408203125 541.7005859375 402.75 542.35 397.01015625 546.15546875 392 551.75 389.131640625 554.9505859375 385.45 559.75
M 413.65 505.675
Q 409.3 507.5 406.35 512.05 403.75 516 402.5 521.35 400 531.15 402.75 542.35
M 353.6 506.1
Q 358.8001953125 517.2001953125 365.8 526.7 370.50703125 533.08671875 375.825 538.475 383.30859375 546.101953125 392 551.75
M 375.825 538.475
Q 377.75 560.15 373.55 581.05 369.3 601.95 359.5 620.5 354.15 630.6 344.05 645.3 328.9 667.4 327.5 669.55 308.7 698.7 307.35 721.85
M 395 604.3
Q 395.155078125 606.9025390625 395.75 609.45 397.5 616.85 402.5 621.35 405.6 624.15 409.5 625 413.75 625.9 416.75 623.75
M 514.1 724.85
Q 504.35 693.15 504.1 659.5 503.9 645.85 506.6 637.5 508.5 631.8 511.7 627.5 515.115625 622.9296875 519.65 620.45 506.5984375 618.3068359375 493.35 617.725 493.23359375 617.7296875 493.125 617.725 483.47578125 624.78046875 481.5 643.6 480.05 658 480.7 683.95 481.45 712.25 480.65 724.35
M 618.325 644.975
Q 621.7396484375 654.9873046875 624.65 666.8 626.5857421875 674.7189453125 628.3 683.45 630.85 696.5 636.8 723.4
M 557.8 628.675
L 557.75 628.7
Q 560.2173828125 643.5666015625 560.7 658.5
L 578.675 652.1 607.2 641.9
M 578.675 652.1
L 624.65 666.8
M 557.75 628.7
L 557.75 628.675
Q 540.5458984375 624.44765625 526.75 621.725 523.2037109375 621.0259765625 519.65 620.45
M 557.8 628.675
L 557.75 628.675
M 547.85 642.15
Q 547.85 643.1 547.15 643.75 546.5 644.45 545.55 644.45 544.6 644.45 543.9 643.75 543.25 643.1 543.25 642.15 543.25 641.2 543.9 640.5 544.6 639.85 545.55 639.85 546.5 639.85 547.15 640.5 547.85 641.2 547.85 642.15 Z
M 493.125 617.725
Q 492.531640625 617.6966796875 491.95 617.675 480.234765625 617.2294921875 468.35 618
M 533.1 623.4
Q 526.65 629.55 523.05 637.6 519.4 645.6 518.85 654.25 518.35 662.15 520.4 672.15 521.344140625 676.751953125 523.9 689.075 526.467578125 701.394140625 527.6 709.5 528.7265625 717.6078125 528 725.6
M 546.35 657.25
Q 548.65 659.85 552.85 660.5 555.65 661.1 560.25 660.35
M 560.7 658.5
Q 561.0099609375 667.7873046875 560.55 677.1 559.4 701.2 552.75 724.35
M 644.275 652.025
Q 667.716796875 687.9724609375 684.2 724.65"/>
</defs>

<g transform="matrix( 1, 0, 0, 1, 0,0) ">
<use xlink:href="#Layer2_0_FILL"/>
</g>

<g transform="matrix( 1, 0, 0, 1, 0,0) ">
<use xlink:href="#Layer0_0_FILL"/>

<use xlink:href="#Layer0_0_1_STROKES"/>
</g>
</svg>
