
<svg xmlns="http://www.w3.org/2000/svg" version="1.1" xmlns:xlink="http://www.w3.org/1999/xlink" preserveAspectRatio="none" x="0px" y="0px" width="1280px" height="720px" viewBox="0 0 1280 720">
<defs>
<g id="Layer2_0_FILL">
<path fill="#FFFFFF" stroke="none" d="
M 1280 720
L 1280 0 0 0 0 720 1280 720 Z"/>
</g>

<g id="Layer1_0_FILL">
<path fill="#FD5426" stroke="none" d="
M 583.6 554.1
Q 584.44921875 557.5255859375 585.45 561.45 589.5 577.35 590.25 586.5 592.1015625 607.448046875 586.05 627.95 580.0447265625 648.501171875 567.75 672.1 555.5041015625 695.757421875 546.85 707.35 541.5083984375 714.5974609375 535.3 720.95
L 676.75 720.95
Q 644.5064453125 685.0376953125 620.8 642.5 597.2142578125 600.17890625 583.6 554.1
M 762.4 561.7
Q 751.5015625 567.95 734 572.1 716.5447265625 576.3 687.15 573.3
L 720.35 649.6
Q 725.25 660.9 729.95 666.95 736.6 675.55 745.1 677.25 749.05 678 755.7 677.2 763.7 676.25 766.35 676.35 769.0115234375 676.3966796875 771.4 677.15 780.5552734375 641.248046875 782.45 604.2 783.92421875 575.1798828125 780.85 546.4 773.2865234375 555.4193359375 762.4 561.7 Z"/>

<path fill="#FED900" stroke="none" d="
M 828.65 92.3
Q 828.8171875 89.0146484375 828.75 87.85 828.6 85.8 828.3 84.65 827.85 82.85 826.85 81.85 825.6 80.6 823.4 80.4 822.05 80.25 819.1 80.5
L 750.45 88.8
Q 749.4947265625 88.9990234375 746.8 89.1 742.96328125 89.30390625 738.15 88 733.3953125 86.7490234375 729.25 82.6 725.75 79 722.65 73.6 720.6525390625 70.0556640625 716.3 60.55 711.9376953125 51.0732421875 705.7 36.8 699.474609375 22.583984375 698.7 20.7 697.9173828125 18.865234375 697.65 18.3 697.43125 17.7279296875 697.05 16.75 694.9 11.25 691.85 9.1 689.55 7.5 686.4 7.2 683.6 6.95 680.6 7.85 678.1 8.6 675.3 10.25 673.75 11.15 670.5 13.35 644.994140625 30.8396484375 620.4 50.7 619.6966796875 51.3728515625 616.55 53.4 613.403515625 55.4357421875 609.2 57.55 605.0478515625 59.6568359375 599.15 60.2 593.250390625 60.7986328125 587.3 58.05 581.4 55.35 571.2 49.75 553.6115234375 40.156640625 536.75 29.6 531.55 25.75 528.05 24.45 522.95 22.55 519.1 24.25 516.75 25.15 514.7 27.55 513.2 29.25 511.5 32.25 503.8 45.1 497.45 62.75 493.6546875 73.1826171875 490.55 83.65 487.4904296875 94.176171875 486.6 97.1 485.755078125 100.063671875 482.25 104.05 478.799609375 108.0455078125 472.3 110.15 467.9 111.55 460.25 112.5
L 396.5 120.75
Q 394.9 121 393.85 121.75 392.7732421875 122.4955078125 392.45 123.5 392.4572265625 123.738671875 392.45 123.95 391.0765625 142.0759765625 401.85 165 404.15 169.95 411.55 184.25 417.75 196.25 420.85 203.75 422.6 207.95 423.05 211.05 423.4509765625 213.621484375 423.1 215.95 422.7431640625 218.3177734375 421.45 220.75 420.1953125 223.1951171875 419.2 224.6 418.209375 226.0525390625 405.8 238.1 393.446484375 250.1873046875 370.55 267.15 388.9 292.85 417.15 309.2 442.8365234375 324.11171875 471.3 328 470.2 322.48515625 470.2 316.6 470.2 307.0974609375 473.05 298.7 477.3765625 285.9806640625 488.25 275.8 494.178125 270.249609375 500.9 266.5 501.3001953125 266.3171875 501.65 266.1 515.158984375 258.9 531.85 258.9 534.771484375 258.9 537.6 259.1 538.7177734375 259.2041015625 539.8 259.3 560.284765625 261.6009765625 575.45 275.8 577.4751953125 277.69609375 579.25 279.65 580.4466796875 259.7828125 592.8 244.35 595.578125 240.9208984375 598.9 237.7 612.8904296875 224.1701171875 631 220.2 638.4490234375 218.6 646.6 218.6 667.176953125 218.6 683.3 228.95 689.0900390625 232.6615234375 694.3 237.7 706.75859375 249.780078125 711.35 265 714.05 273.9134765625 714.05 283.9 714.05 310.95 694.3 330.05 674.55 349.2 646.6 349.2 619.389453125 349.2 599.95 331.05 594.883984375 333.8927734375 589.8 336.35 572.455859375 344.77578125 552.85 347.75 546 348.7 543.65 349.25 538.55 350.5 535.25 352.85 529.8 357.05 527.6 365.35 526.4578125 369.7802734375 526.55 374.1 511.2369140625 373.0181640625 498.6 365.35 501.168359375 390.4330078125 492.35 413.5 487.9 425.35 487.7 426.05 485.5 433.35 486.35 439 487.45 445.55 492.55 451 497.3 456.05 504.1 458.75 509.95 461 517.45 461.65 523.25 462.2 531.35 461.85 563.844140625 460.666015625 599.95 451.95 600.7 457.45 601.8 460.55 603.4 464.9 606.25 467.25 610.65 470.95 617.6 470.5 620.8029296875 470.2107421875 623.45 469.3
L 624.1 485.25
Q 622.862890625 484.977734375 621.6 484.75 605.9 481.95 594.75 490.1 584.95 497.15 581.25 510.7 578 522.6 580 536.5 580.6080078125 541.0599609375 582.5 549.3 583.010546875 551.5587890625 583.6 554.1 597.2142578125 600.17890625 620.8 642.5 644.5064453125 685.0376953125 676.75 720.95
L 834 720.95
Q 844.884765625 624.8875 832.5 529 830.2 511.6 827.35 500.75 823.4 485.55 816.6 474.6 808.7 461.75 796.45 454.4 783.205859375 446.453515625 767.8 448.15 765.2953125 428.5904296875 765.2 408.8 782.4080078125 415.4919921875 792.6 417.55 808.6 420.75 821 416.75 824.45 415.55 825.85 413.85 826.85 412.5 827.1 410.35 827.2451171875 408.994921875 826.6 396.4 825.96796875 383.8154296875 826.45 371.95 826.9638671875 360.122265625 827.15 359.75 827.4013671875 359.389453125 827.85 358.75 830.9044921875 354.5953125 836 352.45 841.089453125 350.363671875 849.5 347 857.9544921875 343.6873046875 863.9 340.4 869.9072265625 337.1521484375 872.05 335.6 874.249609375 334.098828125 876 332.5 878.3 330.5 879.6 328 881 325.25 880.75 322.5 880.5 320.6 879.35 318.4 878.7 317.2 877 314.75 871.91171875 307.644921875 869.45 303.6 867.0359375 299.5451171875 864.55 295.65 862.0638671875 291.7572265625 857.9 282.65 856.301953125 279.190234375 855.55 275.6 871.5630859375 254.657421875 878.05 242.15 884.591015625 229.637890625 886.6 224.45 888.655859375 219.265234375 890.75 212.6 891.5 210.15 891.65 208.75 891.951171875 206.5 891.05 203.7 890.1462890625 200.9 883.5 198.35 878.95 196.8 871.15 195.25 861.45 193.35 858.6 192.6 849.05 190.1 840.4 185.15 834.93359375 182.003515625 830.1 178 827.3345703125 175.7505859375 824.55 173.2 822.285546875 171.1830078125 821.5 169.35 820.85 167.8 820.9 165.65 820.95 164.7 821.35 161.85 824.0453125 146.0533203125 825.4 131.25 826.8091796875 116.4958984375 827.65 106.05 828.5392578125 95.64375 828.65 92.3
M 740.15 478.15
Q 745.432421875 478.15 749.7 480.6 750.8970703125 475.5736328125 754.55 471.65 760 465.9 767.7 465.9 769.2447265625 465.9 770.7 466.1 776.483203125 467.053515625 780.8 471.65 786.25 477.45 786.25 485.65 786.25 493.85 780.8 499.6 775.4 505.4 767.7 505.4 762.935546875 505.4 759 503.15 757.71875 507.88125 754 511.6 748.25 517.35 740.15 517.35 732.5466796875 517.35 727 512.25 725.596875 517.2833984375 721.45 521.2 715.2 527.15 706.35 527.15 697.5 527.15 691.2 521.2 691.175 521.176171875 691.15 521.15 689.79765625 523.804296875 687.65 526.1 681.9 532.3 673.7 532.3 670.9927734375 532.3 668.55 531.6 665.95546875 525.284765625 663.9 521.15 659.5703125 512.490625 654.5 505.85 655.7431640625 500.36640625 659.7 496.1 665.5 489.9 673.7 489.9 681.9 489.9 687.65 496.1 687.776171875 496.234765625 687.9 496.35 689.243359375 494.2626953125 691.2 492.4 697.5 486.45 706.35 486.45 715.0857421875 486.45 721.3 492.25 722.61015625 487.58984375 726.3 483.9 732.05 478.15 740.15 478.15
M 734 572.1
Q 751.5015625 567.95 762.4 561.7 773.2865234375 555.4193359375 780.85 546.4 783.92421875 575.1798828125 782.45 604.2 780.5552734375 641.248046875 771.4 677.15 769.0115234375 676.3966796875 766.35 676.35 763.7 676.25 755.7 677.2 749.05 678 745.1 677.25 736.6 675.55 729.95 666.95 725.25 660.9 720.35 649.6
L 687.15 573.3
Q 716.5447265625 576.3 734 572.1 Z"/>
</g>

<g id="Layer0_0_FILL">
<path fill="#000000" stroke="none" d="
M 589.8 336.35
Q 594.883984375 333.8927734375 599.95 331.05 599.42265625 330.556640625 598.9 330.05 595.7365234375 326.9908203125 593.05 323.7 592.564453125 329.8912109375 589.8 336.35
M 534.55 290.65
Q 531.5 287.6 527.2 287.6 522.9 287.6 519.85 290.65 516.8 293.7 516.8 298 516.8 302.3 519.85 305.35 522.9 308.4 527.2 308.4 531.5 308.4 534.55 305.35 537.6 302.3 537.6 298 537.6 293.7 534.55 290.65
M 662 239.55
Q 657.2 239.55 653.8 242.75 650.4 245.95 650.4 250.5 650.4 255.05 653.8 258.25 657.2 261.45 662 261.45 666.8 261.45 670.2 258.25 673.6 255.05 673.6 250.5 673.6 245.95 670.2 242.75 666.8 239.55 662 239.55 Z"/>
</g>

<path id="Layer0_0_1_STROKES" stroke="#000000" stroke-width="1" stroke-linejoin="round" stroke-linecap="round" fill="none" d="
M 767.1 372
Q 765.1201171875 390.49765625 765.2 408.8 782.4080078125 415.4919921875 792.6 417.55 808.6 420.75 821 416.75 824.45 415.55 825.85 413.85 826.85 412.5 827.1 410.35 827.2451171875 408.994921875 826.6 396.4 825.96796875 383.8154296875 826.475 371.975 826.9638671875 360.122265625 827.175 359.75 827.4013671875 359.389453125 827.85 358.75 830.9044921875 354.5953125 836 352.475 841.089453125 350.363671875 849.525 347.025 857.9544921875 343.6873046875 863.925 340.425 869.9072265625 337.1521484375 872.075 335.625 874.249609375 334.098828125 876 332.5 878.3 330.5 879.6 328 881 325.25 880.75 322.5 880.5 320.6 879.35 318.4 878.7 317.2 877 314.75 871.91171875 307.644921875 869.475 303.6 867.0359375 299.5451171875 864.55 295.65 862.0638671875 291.7572265625 857.9 282.65 856.301953125 279.190234375 855.55 275.6 871.5630859375 254.657421875 878.075 242.15 884.591015625 229.637890625 886.625 224.45 888.655859375 219.265234375 890.75 212.6 891.5 210.15 891.65 208.75 891.951171875 206.5 891.05 203.7 890.1462890625 200.9 883.5 198.35 878.95 196.8 871.15 195.25 861.45 193.35 858.6 192.6 849.05 190.1 840.4 185.15 834.93359375 182.003515625 830.1 178.025 827.3345703125 175.7505859375 824.55 173.2 822.285546875 171.1830078125 821.5 169.35 820.85 167.8 820.9 165.65 820.95 164.7 821.35 161.85 824.0453125 146.0533203125 825.425 131.275 826.8091796875 116.4958984375 827.675 106.075 828.5392578125 95.64375 828.675 92.325 828.8171875 89.0146484375 828.75 87.85 828.6 85.8 828.3 84.65 827.85 82.85 826.85 81.85 825.6 80.6 823.4 80.4 822.05 80.25 819.1 80.5
L 750.45 88.8
Q 749.4947265625 88.9990234375 746.825 89.125 742.96328125 89.30390625 738.175 88.025 733.3953125 86.7490234375 729.25 82.6 725.75 79 722.65 73.6 720.6525390625 70.0556640625 716.3 60.575 711.9376953125 51.0732421875 705.7 36.825 699.474609375 22.583984375 698.7 20.725 697.9173828125 18.865234375 697.675 18.3 697.43125 17.7279296875 697.05 16.75 694.9 11.25 691.85 9.1 689.55 7.5 686.4 7.2 683.6 6.95 680.6 7.85 678.1 8.6 675.3 10.25 673.75 11.15 670.5 13.35 644.994140625 30.8396484375 620.425 50.7 619.6966796875 51.3728515625 616.55 53.4 613.403515625 55.4357421875 609.225 57.55 605.0478515625 59.6568359375 599.15 60.225 593.250390625 60.7986328125 587.325 58.075 581.4 55.35 571.2 49.75 553.6115234375 40.156640625 536.75 29.6 531.55 25.75 528.05 24.45 522.95 22.55 519.1 24.25 516.75 25.15 514.7 27.55 513.2 29.25 511.5 32.25 503.8 45.1 497.45 62.75 493.6546875 73.1826171875 490.575 83.675 487.4904296875 94.176171875 486.625 97.125 485.755078125 100.063671875 482.275 104.05 478.799609375 108.0455078125 472.3 110.15 467.9 111.55 460.25 112.5
L 396.5 120.75
Q 394.9 121 393.85 121.75 392.7732421875 122.4955078125 392.475 123.525 392.4572265625 123.738671875 392.45 123.95 391.0765625 142.0759765625 401.85 165 404.15 169.95 411.55 184.25 417.75 196.25 420.85 203.75 422.6 207.95 423.05 211.05 423.4509765625 213.621484375 423.1 215.975 422.7431640625 218.3177734375 421.475 220.75 420.1953125 223.1951171875 419.2 224.625 418.209375 226.0525390625 405.825 238.125 393.446484375 250.1873046875 370.55 267.15 388.9 292.85 417.15 309.2 442.8365234375 324.11171875 471.3 328 470.2 322.48515625 470.2 316.6 470.2 307.0974609375 473.05 298.7 465.6322265625 295.7689453125 459.25 290.8 452.2 285.35 447.25 278.1
M 694.1 205.25
Q 692.55 212.55 689.5 218.75 687.46953125 222.76484375 683.3 228.95 689.0900390625 232.6615234375 694.3 237.7 706.75859375 249.780078125 711.35 265 717.800390625 260.5599609375 722.9 254.45 728.25 248.1 731.6 240.6
M 673.6 250.5
Q 673.6 255.05 670.2 258.25 666.8 261.45 662 261.45 657.2 261.45 653.8 258.25 650.4 255.05 650.4 250.5 650.4 245.95 653.8 242.75 657.2 239.55 662 239.55 666.8 239.55 670.2 242.75 673.6 245.95 673.6 250.5 Z
M 711.35 265
Q 714.05 273.9134765625 714.05 283.9 714.05 310.95 694.3 330.05 674.55 349.2 646.6 349.2 619.389453125 349.2 599.95 331.05 594.883984375 333.8927734375 589.8 336.35 572.455859375 344.77578125 552.85 347.75 546 348.7 543.65 349.25 538.55 350.5 535.25 352.85 529.8 357.05 527.6 365.35 526.4578125 369.7802734375 526.575 374.125 526.6421875 376.041796875 526.95 377.95 528 384.65 531.85 389.25 537.2 395.55 546.8 397.35 554.95 398.9 564.75 397.1 574.45 395.5 582.25 391.75 591.05 387.55 596.6 381
M 719.2 377.05
Q 720.333984375 377.134765625 721.5 377.35 726.310546875 378.201171875 729.8 380.875 731.034375 381.8302734375 732.1 383 735.35 386.6 737.1 392.15 737.3794921875 393.030078125 737.625 394
M 760.25 369.75
Q 769.55 373.5 779.75 370.25 790.05 367 795.35 358.6 800.8 350.15 799.45 339.45 798.05 328.75 790.75 322 783.45 315.15 772.7 314.5 761.9 313.85 753.85 319.85
M 765.575 335.4
Q 767.2068359375 332.676171875 768.75 331 770.95 328.7 773.55 327.45 775.397265625 326.542578125 777.25 326.3 778.247265625 326.1796875 779.25 326.25 783.6 326.4 787.5 329.85 787.778515625 330.087109375 788.075 330.35
M 777.25 326.3
Q 778.3 333.45 778.5 338.35 778.6 341.35 778.25 343.15 777.8212890625 345.37890625 776.65 346.875 776.4640625 347.1216796875 776.25 347.35
M 765.2 408.8
Q 765.2953125 428.5904296875 767.8 448.15 783.205859375 446.453515625 796.45 454.4 808.7 461.75 816.6 474.6 823.4 485.55 827.35 500.75 830.2 511.6 832.5 529 844.884765625 624.8875 834.025 720.95
M 629.85 465.5
Q 627.209765625 468.0228515625 623.45 469.3
L 624.1 485.275
Q 637.24921875 488.29765625 647.35 497.85 651.09609375 501.3947265625 654.5 505.875 655.7431640625 500.36640625 659.7 496.1 665.5 489.9 673.7 489.9 681.9 489.9 687.65 496.1 687.776171875 496.234765625 687.9 496.375 689.243359375 494.2626953125 691.2 492.4 697.5 486.45 706.35 486.45 715.0857421875 486.45 721.3 492.25 722.61015625 487.58984375 726.3 483.9 732.05 478.15 740.15 478.15 745.432421875 478.15 749.725 480.6 750.8970703125 475.5736328125 754.55 471.65 760 465.9 767.7 465.9 769.2447265625 465.9 770.7 466.125 768.95625 457.016796875 767.8 448.15
M 749.725 480.6
Q 752 481.9 754 483.9 759.75 489.65 759.75 497.75 759.75 500.611328125 759.025 503.175 762.935546875 505.4 767.7 505.4 775.4 505.4 780.8 499.6 786.25 493.85 786.25 485.65 786.25 477.45 780.8 471.65 776.483203125 467.053515625 770.7 466.125
M 721.3 492.25
Q 721.3693359375 492.3232421875 721.45 492.4 727.75 498.35 727.75 506.8 727.75 509.687890625 727.025 512.275 732.5466796875 517.35 740.15 517.35 748.25 517.35 754 511.6 757.71875 507.88125 759.025 503.175
M 687.9 496.375
Q 693.45 502.49140625 693.45 511.1 693.45 516.6416015625 691.15 521.15 691.175 521.176171875 691.2 521.2 697.5 527.15 706.35 527.15 715.2 527.15 721.45 521.2 725.596875 517.2833984375 727.025 512.275
M 674.85 548.1
Q 671.3787109375 538.547265625 668.55 531.625 665.95546875 525.284765625 663.9 521.15 659.5703125 512.490625 654.5 505.875
M 691.15 521.15
Q 689.79765625 523.804296875 687.65 526.1 681.9 532.3 673.7 532.3 670.9927734375 532.3 668.55 531.625
M 685.1 568.6
L 687.15 573.3
Q 716.5447265625 576.3 734.025 572.125 751.5015625 567.95 762.4 561.7 773.2865234375 555.4193359375 780.85 546.4 780.0046875 538.439453125 778.75 530.25
M 687.15 573.3
L 720.35 649.6
Q 725.25 660.9 729.95 666.95 736.6 675.55 745.1 677.25 749.05 678 755.7 677.2 763.7 676.25 766.35 676.35 769.0115234375 676.3966796875 771.4 677.15 780.5552734375 641.248046875 782.45 604.2 783.92421875 575.1798828125 780.85 546.4
M 771.4 677.15
Q 774.318359375 677.9484375 777.475 680.675 780.631640625 683.400390625 780.7 688.625 780.759375 693.855078125 775.95 696.55 771.141796875 699.234765625 763.85 699.9 756.5521484375 700.5654296875 751.45 702.2 746.35 703.8451171875 744.725 708.9 743.1001953125 713.948828125 746.625 718.65 747.614453125 719.9697265625 748.775 720.95
M 773.45 720.95
Q 773.6427734375 720.8466796875 773.85 720.75 776.3 719.65 781.05 716.9 785.35 714.6 788.6 714.25 792.1 713.75 795.55 715 799.05 716.2 801.35 718.75 802.4333984375 719.8333984375 803.075 720.95
M 526.575 374.125
Q 511.2369140625 373.0181640625 498.6 365.35 501.168359375 390.4330078125 492.35 413.5 487.9 425.35 487.7 426.05 485.5 433.35 486.35 439 487.45 445.55 492.55 451 497.3 456.05 504.1 458.75 509.95 461 517.45 461.65 523.25 462.2 531.35 461.85 563.844140625 460.666015625 599.95 451.95 618.7365234375 447.420703125 638.5 440.85 671 430.1 692.3 416.75 716.8216796875 401.3787109375 729.8 380.875
M 440.6 340.35
Q 441.7 341.35 444.25 341.85 452.15 343.75 460.25 341.8 467.6798828125 340.022265625 473.4 335.5 472.0697265625 331.8302734375 471.3 328
M 630.1 191
Q 628.55 197.35 629.05 205.55 629.399609375 210.7927734375 631 220.225 638.4490234375 218.6 646.6 218.6 667.176953125 218.6 683.3 228.95
M 574.25 221.85
Q 582.15234375 234.63046875 592.825 244.375 595.578125 240.9208984375 598.9 237.7 612.8904296875 224.1701171875 631 220.225
M 593.075 323.725
Q 579.15 306.6173828125 579.15 283.9 579.15 281.765625 579.275 279.675 577.4751953125 277.69609375 575.45 275.8 560.284765625 261.6009765625 539.825 259.325 538.7177734375 259.2041015625 537.6 259.125 534.771484375 258.9 531.85 258.9 515.158984375 258.9 501.675 266.125 501.3001953125 266.3171875 500.925 266.525 494.178125 270.249609375 488.25 275.8 477.3765625 285.9806640625 473.05 298.7
M 579.275 279.675
Q 580.4466796875 259.7828125 592.825 244.375
M 543.1 226.85
Q 540 234.85 538.6 243.75 537.543359375 250.7796875 537.6 259.125
M 537.6 298
Q 537.6 302.3 534.55 305.35 531.5 308.4 527.2 308.4 522.9 308.4 519.85 305.35 516.8 302.3 516.8 298 516.8 293.7 519.85 290.65 522.9 287.6 527.2 287.6 531.5 287.6 534.55 290.65 537.6 293.7 537.6 298 Z
M 486.6 238.1
Q 492.1900390625 252.73828125 501.675 266.125
M 498.6 365.35
Q 493.223828125 362.05703125 488.25 357.4 477.8072265625 347.6224609375 473.4 335.5
M 599.95 331.05
Q 599.42265625 330.556640625 598.9 330.05 595.7365234375 326.9908203125 593.075 323.725 592.564453125 329.8912109375 589.8 336.35
M 599.95 451.95
Q 600.7 457.45 601.8 460.55 603.4 464.9 606.25 467.25 610.65 470.95 617.6 470.5 620.8029296875 470.2107421875 623.45 469.3
M 624.1 485.275
Q 622.862890625 484.977734375 621.6 484.75 605.9 481.95 594.75 490.1 584.95 497.15 581.25 510.7 578 522.6 580 536.5 580.6080078125 541.0599609375 582.5 549.3 583.010546875 551.5587890625 583.625 554.1 597.2142578125 600.17890625 620.8 642.5 644.5064453125 685.0376953125 676.75 720.95
M 583.625 554.1
Q 584.44921875 557.5255859375 585.45 561.45 589.5 577.35 590.25 586.5 592.1015625 607.448046875 586.075 627.975 580.0447265625 648.501171875 567.775 672.125 555.5041015625 695.757421875 546.875 707.375 541.5083984375 714.5974609375 535.325 720.95"/>
</defs>

<g transform="matrix( 1, 0, 0, 1, 0,0) ">
<use xlink:href="#Layer2_0_FILL"/>
</g>

<g transform="matrix( 1, 0, 0, 1, 0,0) ">
<use xlink:href="#Layer1_0_FILL"/>
</g>

<g transform="matrix( 1, 0, 0, 1, 0,0) ">
<use xlink:href="#Layer0_0_FILL"/>

<use xlink:href="#Layer0_0_1_STROKES"/>
</g>
</svg>
