
<svg xmlns="http://www.w3.org/2000/svg" version="1.1" xmlns:xlink="http://www.w3.org/1999/xlink" preserveAspectRatio="none" x="0px" y="0px" width="1280px" height="720px" viewBox="0 0 1280 720">
<defs>
<g id="Layer2_0_FILL">
<path fill="#FFFFFF" stroke="none" d="
M 1280 720
L 1280 0 0 0 0 720 1280 720 Z"/>
</g>

<g id="Layer0_0_FILL">
<path fill="#000000" stroke="none" d="
M 772.75 334.6
Q 769.95 337.45 769.95 341.45 769.95 345.45 772.75 348.25 775.6 351.1 779.6 351.1 783.6 351.1 786.4 348.25 789.25 345.45 789.25 341.45 789.25 337.45 786.4 334.6 783.6 331.8 779.6 331.8 775.6 331.8 772.75 334.6
M 692.2 339.05
Q 689.25 342.05 689.25 346.3 689.25 350.55 692.2 353.5 695.2 356.5 699.45 356.5 703.7 356.5 706.65 353.5 709.65 350.55 709.65 346.3 709.65 342.05 706.65 339.05 703.7 336.1 699.45 336.1 695.2 336.1 692.2 339.05 Z"/>
</g>

<path id="Layer0_0_1_STROKES" stroke="#000000" stroke-width="1" stroke-linejoin="round" stroke-linecap="round" fill="none" d="
M 629.6 309.35
Q 637.7205078125 314.7357421875 647.05 316.825 650.6005859375 310.9494140625 655.8 305.75 672.25 289.3 695.5 289.3 709.866015625 289.3 721.625 295.575 741.30390625 264.0271484375 752.95 228.05 766.45 186.5 768.1 144.1 788.5 155.3 802.7 177.1 815.55 196.95 821.25 222.1 823.9400390625 234.105859375 825.2 248 835.1 232.4 838.65 213.4 842.1 195.05 839.25 176.15 836.4 157.25 827.7 140.8 818.65 123.7 804.6 111.75 783.15 93.45 750.4 85.25 724.85 78.9 689 78.1 610.45 76.2 552.85 96.6 548.6396484375 98.076171875 544.525 99.675 520.48671875 168.79765625 518.5 243.1 516.5818359375 314.8365234375 535.45 382.8 536.151953125 383.0642578125 536.85 383.35 547 387.5 555.4 396 563.25 403.9 569 414.75 588.4 409.6 608.85 394.95 621.1685546875 386.1439453125 643.125 366.175 639.35 356.594921875 639.35 345.45 639.35 338.113671875 641 331.45 630.5150390625 330.9650390625 621.75 325.35
M 768.25 209.25
Q 777.1 204.1 787.95 204.3 798.75 204.55 807.5 210
M 652.25 227.1
Q 655.7 221.75 660.8 217.9 665.85 213.95 671.85 212.1 678 210.2 684.4 210.45 690.8 210.65 696.6 213
M 709.65 346.3
Q 709.65 350.55 706.65 353.5 703.7 356.5 699.45 356.5 695.2 356.5 692.2 353.5 689.25 350.55 689.25 346.3 689.25 342.05 692.2 339.05 695.2 336.1 699.45 336.1 703.7 336.1 706.65 339.05 709.65 342.05 709.65 346.3 Z
M 789.25 341.45
Q 789.25 345.45 786.4 348.25 783.6 351.1 779.6 351.1 775.6 351.1 772.75 348.25 769.95 345.45 769.95 341.45 769.95 337.45 772.75 334.6 775.6 331.8 779.6 331.8 783.6 331.8 786.4 334.6 789.25 337.45 789.25 341.45 Z
M 721.625 295.575
Q 728.9142578125 299.4642578125 735.2 305.75 736.6130859375 307.1630859375 737.9 308.625 740.9583984375 303.6294921875 745.2 299.15 760.35 283.15 781.8 283.15 803.25 283.15 818.4 299.15 822.2703125 303.2375 825.15 307.75 826.4220703125 284.1111328125 826.3 270.4 826.169921875 258.6470703125 825.2 248
M 737.9 308.625
Q 751.65 324.197265625 751.65 345.45 751.65 361.69296875 743.625 374.625 744.388671875 375.4931640625 745.2 376.35 747.4 378.6734375 749.725 380.65 758.0333984375 374.509375 773.35 375.6 777.45 375.95 780.05 376.55 783.65 377.3 786.35 378.85 791 381.55 793.65 386.65 794.6443359375 388.5802734375 795.225 390.625 808.2359375 387.084375 818.4 376.35 823.123828125 371.361328125 826.375 365.725 833.55 353.3033203125 833.55 337.75 833.55 324.1880859375 828.1 313 826.784765625 310.30859375 825.15 307.75
M 743.625 374.625
Q 740.1576171875 380.1923828125 735.2 385.15 718.75 401.6 695.5 401.6 672.25 401.6 655.8 385.15 647.2353515625 376.5853515625 643.125 366.175 643.364453125 365.9642578125 643.6 365.75
M 832.75 326.1
Q 837.0552734375 325.9451171875 841.3 324.6 845.5337890625 323.2642578125 851.1 320
M 828.75 313.1
Q 837.75 310.65 844.35 304.35
M 843.3 411.2
Q 844.45 419.45 840.2 425.95 835.95 432.4 828.9 433.4 821.8 434.35 816.05 429.2 810.2 424.1 809.05 415.85 807.95 407.65 812.2 401.15 816.4 394.7 823.5 393.75 830.55 392.75 836.35 397.9 842.2 403 843.3 411.2 Z
M 826.375 365.725
Q 844.6556640625 388.6619140625 852.95 406.3 863.8 429.3 863.1 450.35 862.5 467.85 854.1 484.65 846.05 500.7 832.5 513.25 811.4447265625 532.7857421875 779.35 542.775 791.4 547.85 795.85 559.45 800 570.45 797 581.75 794.45 591.65 786.9 601.45 782.939453125 606.5671875 776.85 612.525 780.4203125 642.3716796875 789.75 671.2 798.255859375 697.437890625 811.1 721.65
M 754.25 412.75
Q 760.25 415.95 767.2 416.75 774.2 417.5 780.75 415.75 788 413.7 791.75 409.5 796.1 404.55 796.1 397.25 796.1609375 393.8033203125 795.225 390.625
M 683 438.7
Q 683.125390625 443.148046875 684.025 448.575 684.9189453125 454.0025390625 686.6 460.425 688.2890625 466.850390625 692.9 470.475 697.5017578125 474.0994140625 704.5 474.75 711.6 475.35 716.25 473 720.85 470.75 723.9 465.65 726.55 461.1 727.5 455.25 728.1 451.1 727.95 444.4 727.809375 435.916796875 727.85 433.75 727.57265625 433.844140625 727.3 433.925 718.7150390625 436.498046875 709.5 436.25 696.5712890625 435.858203125 685.8 430 685.5537109375 431.862109375 685 433.75 684.2642578125 436.339453125 683 438.7
L 682.975 438.75
Q 682.81640625 439.0353515625 682.65 439.325 682.498828125 439.6091796875 682.475 439.65 681.8044921875 440.8029296875 681 441.9 678.15 445.7 674.25 448.25
M 727.85 433.75
Q 727.8853515625 433.7392578125 727.925 433.725 731.127734375 432.744921875 734.25 431.35
M 677.35 407.5
Q 680.5 411.6 681.9 413.85 684.2 417.5 685.1 420.75 686.4248046875 425.297265625 685.8 430
M 672.95 425.3
Q 672.95 435.55 665.15 442.8 657.35 450.05 646.3 450.05 635.25 450.05 627.45 442.8 619.65 435.55 619.65 425.3 619.65 415.05 627.45 407.8 635.25 400.55 646.3 400.55 657.35 400.55 665.15 407.8 672.95 415.05 672.95 425.3 Z
M 706.7 436.55
L 707.45 457.25
M 611.25 546.25
Q 617.6462890625 552.2947265625 624.9 557.45 638.27109375 566.964453125 654.55 573.45 659.7013671875 575.5126953125 665 577.225
L 663.95 543.125
Q 659.9060546875 541.949609375 655.85 540.6 629.4966796875 531.799609375 606.625 516.8 595.491796875 516.3576171875 587.05 524.2 578.95 531.75 577.5 542.35 575 560.4 589.6 581.1 591.748046875 584.19609375 594.1 587.2 608.219921875 605.11015625 630.75 620.05 623.431640625 600.9484375 620.5 581.5 619.25 573.85 619.9 568.5 620.739453125 561.4390625 624.9 557.45
M 665 577.225
Q 672.25546875 579.5517578125 679.775 581.2 691.9150390625 583.857421875 704.75 584.75 710.8583984375 585.1501953125 716.5 585
L 715.6 551.525
Q 689.939453125 550.7318359375 663.95 543.125
M 679.775 581.2
Q 676.92421875 582.643359375 676.6 588.85 676.21015625 617.9921875 687.275 645.1 708.43046875 649.550390625 726.6 644.6 733.3982421875 642.791015625 740.35 639.425 749.9556640625 625.164453125 754.625 614.1 759.298046875 603.0451171875 761.25 591.35 762.35 585.4 761.1 581.5 760.3 578.95 758.55 577.15 756.68984375 575.2408203125 754.35 574.875 746.5208984375 579.983203125 736 582.55 727.068359375 584.733984375 716.5 585
M 754.35 574.875
Q 758.874609375 571.90859375 762.5 568.1
M 779.35 542.775
Q 774.4748046875 544.30234375 769.35 545.6 742.6578125 552.3505859375 715.6 551.525
M 740.35 639.425
Q 745.3109375 637.0359375 750.35 633.85 759.9 627.75 771.25 617.75 774.240234375 615.0587890625 776.85 612.525
M 764.1 663.35
L 764.325 666.7 765.725 686.8 766.95 704.725 768.125 721.65
M 630.75 620.05
Q 638.50625 625.13828125 648.25 630.25 668.8876953125 641.21953125 687.275 645.1
M 717.075 721.65
L 712.35 721.1 698.35 721 698.225 721.65
M 696.15 721.65
Q 692.856640625 714.203515625 691.425 711.45 689.69765625 708.13203125 688.475 707.075 687.2466796875 706.0044921875 685.325 706.25 683.410546875 706.5048828125 681.825 710.525 680.4861328125 713.909765625 679.15 721.65
M 766.95 704.725
Q 749.6302734375 710.5267578125 735.325 721.65
M 765.725 686.8
Q 751.95 691.35 737.4 701.4 728.65 707.45 712.35 721.1
M 764.325 666.7
Q 744.8921875 675.7064453125 728.5 689.2 712.15 702.7 698.35 721
M 606.625 516.8
Q 605.459375 516.0326171875 604.3 515.25 580.942578125 499.4548828125 563.55 478.475 550.530078125 486.8376953125 533.65 485.9 514.75 484.8 502.1 472.6 496.3 467 490.85 457.75 480.05 439.5 479.85 422.25 479.75 412.55 483.35 403.85 487.05 394.65 494 388.75 499.7505859375 383.912890625 507.125 381.725 486.540234375 310.8685546875 484.75 249.85 482.6501953125 177.5099609375 507.3 117.925 502.8232421875 120.6146484375 498.5 123.5 494.9798828125 125.86796875 491.55 128.35 479.2080078125 137.258984375 468.75 147.35 457.2603515625 158.459765625 448.05 171 447.6900390625 171.59296875 447.325 172.2 447.2671875 172.3103515625 447.2 172.425 447.0232421875 172.7078125 446.85 173 445.478515625 175.3724609375 444.2 177.8 444.173828125 177.8494140625 444.15 177.9 433.325 198.3943359375 429.775 222.575 425.6060546875 250.8953125 425.35 288 424.629296875 413.047265625 446.75 537.8 446.86015625 538.455078125 446.975 539.1 447.73515625 543.31484375 448.5 547.525 448.5369140625 547.765234375 448.575 548 450.2046875 558.8671875 449.725 567.75 449.05546875 580.1484375 442.85 590.35 438 598.4 427.45 605.3 426.65 605.8 408 616.35 392.8 625.05 381.15 636.15 368.4 648.25 360.85 662.35 352.7 677.5 351 694.15 349.4916015625 708.7724609375 353.325 721.85
M 544.525 99.675
Q 524.785546875 107.36015625 507.3 117.925
M 498.5 123.5
Q 485.05 113.45 467.8 111.05 450.5 108.6 434.85 114.6 421.6 119.55 417.85 128.6 416.55 131.95 416.9 135.25 417.3 138.85 419.6 141 422.25 143.65 427.5 143.85 430.8740234375 144.051953125 434.6 143.375 436.45078125 143.030078125 438.4 142.475 438.5951171875 142.4111328125 438.8 142.35 439.521484375 142.1427734375 440.25 141.9 440.7853515625 141.7255859375 441.375 141.525 441.5013671875 141.479296875 441.625 141.425 443.986328125 140.56640625 447.175 139.15 449.5357421875 138.103125 452.35 136.75
M 441.375 141.525
Q 435.810546875 145.5953125 433.85 147.85 429.85 152.55 429.85 157 429.8 160.6 431.95 163.85 433.95 166.85 437.25 168.85 441.1185546875 171.109765625 447.325 172.2
M 535.45 382.8
Q 525.3501953125 379.034375 514.55 380.25 510.6521484375 380.68671875 507.125 381.725
M 641 331.45
Q 642.9025390625 323.6783203125 647.05 316.825
M 594.1 587.2
Q 595.9 597.5 593.2 609.9 591.4 618.1 586.1 631.75 567.5345703125 678.5072265625 545.95 721.65
M 647.4 721.65
L 646.45 684.15"/>
</defs>

<g transform="matrix( 1, 0, 0, 1, 0,0) ">
<use xlink:href="#Layer2_0_FILL"/>
</g>

<g transform="matrix( 1, 0, 0, 1, 0,0) ">
<use xlink:href="#Layer0_0_FILL"/>

<use xlink:href="#Layer0_0_1_STROKES"/>
</g>
</svg>
