
<svg xmlns="http://www.w3.org/2000/svg" version="1.1" xmlns:xlink="http://www.w3.org/1999/xlink" preserveAspectRatio="none" x="0px" y="0px" width="1280px" height="720px" viewBox="0 0 1280 720">
<defs>
<g id="Layer2_0_FILL">
<path fill="#FFFFFF" stroke="none" d="
M 1280 720
L 1280 0 0 0 0 720 1280 720 Z"/>
</g>

<g id="Layer1_0_FILL">
<path fill="#F8CFB6" stroke="none" d="
M 642.6 365.7
L 642.55 365.7
Q 642.35 365.7 642.15 365.8 642.4453125 365.8984375 642.45 365.75
L 642.45 366.4 642.9 365.65
Q 642.75 365.65 642.6 365.7
M 628.2 330
L 627.8 329.5 627.8 330.35
Q 628.05 330.2 628.25 330.05
L 628.2 330
M 627.8 329.5
L 628.15 329.55 627.8 328.95 627.8 329.5
M 628.15 329.55
L 628.2 329.55 627.8 328.95 628.15 329.55
M 628.2 329.55
L 628.15 329.55 628.35 329.9 628.4 329.9 628.2 329.55
M 628.25 330.05
Q 628.3 329.95 628.35 329.95
L 628.15 329.55 627.8 329.5 628.2 330 628.25 330.05
M 628.35 329.95
L 628.35 329.9 628.15 329.55 628.35 329.95
M 628.4 329.9
Q 628.5 329.75 628.6 329.6
L 628.2 329.55 628.4 329.9
M 627.35 330.5
Q 627.5 330.45 627.6 330.45
L 626.35 329.85 626.85 330.55
Q 627.05 330.5 627.35 330.5
M 625.6 330.6
L 625.75 330.65
Q 625.890625 330.603125 626 330.6
L 625.6 330.6
M 614.05 278.35
L 613.9 278.05 613.9 278.9 614.05 278.35
M 614.25 278.15
L 614.2 278.1 614.15 278.6 614.25 278.85 614.25 278.15
M 614.2 278.1
Q 614.15 278.1 614.1 278.1
L 614.05 278.35 614.15 278.6 614.2 278.1
M 614.1 278.1
Q 614 278.05 613.9 278.05
L 614.05 278.35 614.1 278.1
M 613.45 278
Q 613.4 278 613.35 278
L 613.15 278.85 613.9 278.05
Q 613.7 278 613.45 278
M 597.2 295.25
L 596.95 295.7 596.35 296.2
Q 594.05 297.85 593.25 299.3 593.2 299.35 593.2 299.45
L 592.5 299.95
Q 591.95 300.45 591.75 300.95 591.4 301.1 591.15 301.4 590.7 302.15 590.4 302.45 589.75 302.95 589.45 303.2 588.05 304 587.05 305.05
L 585.45 307
Q 584.4 308.3 582.4 310.2 579.95 312.55 579.25 313.3 579 313.6 578.8 313.85 577.15 314.95 575.05 317.45
L 572.2 320.7
Q 571.4 321.1 571.1 321.45
L 570.8 322.1
Q 570.65 322.35 569.95 322.8 569.05 323.4 568.3 324.15 567.45 324.9 567.2 325.7 566.75 325.9 566.4 326.4 566.15 326.8 566.1 327.3
L 566.05 327.35
Q 566.05 327.3982421875 566.05 327.45
L 567 326.55 566.05 327.45
Q 566.05 327.6 566.05 327.8 566 327.85 566.1 328.1 566.15 328.45 566.3 328.8
L 566.3 328.85 566.35 328.9
Q 566.45 329.25 566.7 329.55 566.8 329.75 567 329.9 567.05 330 567.15 330.1
L 568.45 330.65 567.15 330.1
Q 567.95 331 569.4 331.8 570.6 332.5 571.55 332.8
L 572.65 333.3 573.55 333.9 576.4 336.3 577.2 336.95
Q 577.35 337.1 577.55 337.3
L 578.85 338.4 577.55 337.3
Q 578.45 338.3 579.15 339.5 579.75 340.45 580 340.7 580.4 341 580.8 341.15 581 341.15 581.2 341.2 581.6 341.2 582.05 341.05 583.15 340.6 583.25 339.4 583.25 339.25 583.25 339.05 583.95 338.65 584.6 337.7
L 585.15 336.95
Q 585.45 336.65 586.1 336.2
L 587.5 334.9
Q 588.2 334.3 589 333.85
L 595.2 330.3
Q 597.65 329 598.75 328.5 600.8 327.65 602.5 327.45 603.4 327.35 603.9 327.2 604.15 327.2 604.4 327.15 605.6 327.05 606.15 326.9
L 607.4 326.65 612.1 326.75
Q 613.55 326.85 613.85 326.95 614.3 327 615.1 327.3 617.7 328.2 620.15 329.65
L 621.5 330.35
Q 622.7 330.9 624 330.8 624.6 330.8 625.75 330.65
L 625.6 330.6 626 330.6 626.05 330.6
Q 626.35 330.55 626.85 330.55
L 626.35 329.85 627.6 330.45
Q 627.7 330.4 627.8 330.35
L 627.8 329.5 627.8 328.95 627.8 328.55 627.8 328.95 628.2 329.55 628.6 329.6
Q 628.75 329.3 628.8 328.95 628.85 328.8 628.85 328.65 628.9 327.95 628.5 327.45 628.35 327.25 628.1 327.05 628.2 326.55 628.15 325.95 627.8 325.05 627.65 324.55 627.55 324.35 627.3 322.85 626.95 321.45 626.3 320.6 625.85 319.9 625.75 319.7 625.75 319.65 625.6 318.7 625.55 318.25 625 316.65
L 623.9 313.5
Q 623.3 311.4 623.2 310.9 623.1 310 622.9 309.2 622.65 308.2 622.05 307.75 622 307.65 622 307.6
L 620.4 300.5
Q 619.9 299.4 619.75 298.85
L 619.55 297.3
Q 619.45 296.7 619.15 295.7 618.75 294.55 618.65 294.1
L 618.35 292.45
Q 618.3 292.3 617.75 289.7
L 617.15 287.3
Q 616.65 285.6 616.5 285.35
L 616.2 284.55
Q 616.0501953125 284.10078125 616.05 283.2 616.05 282.45 615.9 281.9 615.7 281.1 615.3 280.65 615.6 279.8 615.15 278.95 614.8 278.35 614.25 278.15
L 614.25 278.85 614.15 278.6 614.05 279.95 614.15 278.6 614.05 278.35 613.9 278.9 613.9 278.05 613.15 278.85 613.35 278
Q 612.55 278 611.7 278.7 610.85 279.65 610.4 280.15 608.5 282.15 607.65 283.25
L 605 287.1 605 287.15
Q 604.7 287.25 604.4 287.45 603.75 288.2 603.4 288.6 603.1 288.95 602.5 289.35 601.8 289.9 601.55 290.1 601.15 290.45 599.85 292.25 599.8 292.35 598.1 294.5 597.6 294.7 597.2 295.25
M 653.7 382.8
Q 652.05 380.3 651.45 379 650.7 377.35 650.55 377.15 650.1 376.55 649.6 376.25 647.95 372 645.15 367.35 644.55 366.35 644.15 366.05
L 644.6 366.55
Q 644.55 366.75 644.6 367 644.6 367.15 644.55 367.3 644.6 367.15 644.6 367 644.55 366.75 644.6 366.55
L 644.15 366.05
Q 643.75 365.8 643.35 365.7
L 643.35 366.3 643.35 365.7
Q 643.15 365.65 642.95 365.65
L 642.9 365.65 642.45 366.4 642.45 365.75
Q 642.4453125 365.8984375 642.15 365.8 641.9 365.85 641.7 366
L 641.7 367.2 642.1 367.5 642.35 367.5 642.1 367.5 641.7 367.2 641.7 366
Q 641.15 366.35 640.95 367 640.75 367.65 640.95 368.3 641 368.4 641.05 368.55 640.6 368.9 640.45 369.55 640.35 369.95 640.3 370.75
L 640.05 371.7 639.1 374
Q 638.8 374.1 638.5 374.3 637.9 374.75 637.3 376.05
L 636.1 378.55 633.65 381.6 632.75 382.5
Q 632.05 383.15 631.7 383.5 631.45 383.65 631.1 383.95 630.1 384.85 627.8 386.45 625.8 387.85 624.25 388.65 622.7 389.45 621.05 389.95 620.3 390.2 619.7 390.45 618.85 390.5 617.45 390.85 615.7 391.25 612.9 391.45 608.85 391.75 608.3 391.8 604.8 392.25 603.6 392.1 602.65 392 600.95 391.4 598.05 390.4 595.85 389.5 591.7 387.75 589.7 386.25 588.8 385.55 586.5 383.25 584.75 381.5 583.6 380.1 582.85 379.15 581.2 376.65
L 580.75 375.9
Q 580.8 375.55 580.75 375.2 580.6 374.25 579.8 373.8
L 577.3 372.65
Q 577.05 372.5 575.2 371.85 571.6 370.65 569.75 370.45 568.85 370.3 566.95 370.3 565.85 370.2 565 370.35 564.2 370.45 562.95 370.85
L 561.25 371.5
Q 560.15 372 559.65 372.35 559.1 372.7 558.45 373.55 557.55 374.85 557.2 375.55
L 555.8 378.4
Q 555.5 378.95 555.35 379.6 555.15 380.25 555.15 381.25 555.1 382.7 555.25 383.8 555 384.35 555.05 385.05 555.1 385.75 555.5 386.95 555.9 388.15 556.3 389.1 556 389.1 555.65 389.1
L 549 388.45
Q 546.55 387.85 544.9 386.95
L 543.6 386.3
Q 540.75 385.2 539.45 384.35
L 537.85 383.2
Q 537.15 382.85 537 382.7
L 536.3 381.95
Q 535.8 381.55 535.25 381.45
L 535.25 381.4
Q 535.2 380.75 534.8 380.25 534.35 379.7 533.7 379.6 533.05 379.45 532.45 379.7 531.85 380 531.5 380.55 531.3 380.9 530.95 381.65 530.85 381.75 530.2 382.15 529.8 382.35 529.45 382.65 529.3 382.8 529.15 382.95
L 528.8 383.35
Q 528.3 383.85 528.05 384.1
L 528 384.15
Q 527.8875 384.275 527.8 384.45
L 527.4 384.95 526.8 385.3
Q 526.45 385.55 525.7 386.5 525.1 387.25 523.8 388.7 523.5 389.1 523 389.9 522.5 390.5 521.3 391.5 520.65 392.3 520.6 392.95 520.45 393 520.3 393.1 519.95 393.3 519.45 393.9
L 517.65 396.05
Q 515.95 398.05 515.5 398.85
L 514.7 400.1
Q 514.55 400.3 513.7 401.15 510.55 404.2 508.9 408.15 508.65 408.8 508.55 409.3 508.25 409.7 507.8 410.4 507.5 410.9 505.95 413.2 504.8 414.9 504.3 416.1
L 503.35 418.95 502.05 421.65 498.35 432.75
Q 497.95 433.85 497.85 434.7 497.6 435.1 497.35 435.7 496.65 437.25 496.4 438.25 496.25 438.9 496.15 440.2
L 495.85 443.25
Q 495.35 449.15 495.35 452.2
L 495.35 454.55
Q 495.35 456.5 495.55 457.4 495.6 457.7 495.7 457.95 495.55 458.35 495.55 458.9 495.5 460.35 495.9 463.25 495.9 464.9 495.95 465.2 496.1 465.95 496.65 467.4 496.8 467.95 496.9 469.4 497 470.7 497.25 471.35 497.45 471.85 497.9 472.9
L 498.45 475.3 500 479.1
Q 500.95 481 501.7 482.25 502.4 483.45 502.95 483.8 503.05 483.85 503.1 483.9 503.2 484.65 503.7 485.55 505.15 488.5 508.3 492.15
L 510.9 495.35
Q 511.9 496.45 512.1 496.65
L 515.3 499.5
Q 516.5 500.65 518.35 502.05 519.1 502.7 519.65 502.95 520.3 503.2 520.35 503.3 520.45 503.4 520.7 504 520.8 504.2 521.8 504.8 522.2 505.1 522.85 505.8 523.3 506.1 524.3 506.5 525.1 506.8 525.8 506.9 526.1 507.4 526.85 507.8 527.25 508 528.1 508.35
L 535.85 512.15 546.1 515.9
Q 548.2 516.6 549.3 516.8
L 551.6 517
Q 552.4 517.15 553.9 517.6 555.4 518.05 556.15 518.15 557.1 518.3 558.65 518.35 560.55 518.35 561.15 518.4 562.3 518.5 562.65 518.4 563.2 518.25 563.55 518 564 518.1 564.55 518.15 566.1 518.25 569.2 518.15 570.05 518.15 571.65 518.35 576.4 518.8 581.1 518.35 581.3 518.35 584.05 518.05 589.2 517.45 592.9 516.8 595.6 516.35 600.2 515.4 601.15 515.2 601.55 514.95 601.75 514.8 601.9 514.7 602.05 514.65 602.25 514.65 602.75 514.65 603.85 514.55
L 605.95 514.3
Q 607 514.1 609.35 513.4
L 630.75 506.45
Q 631.8 506.15 632.35 505.75 633.65 505.6 635.35 504.95 637.1 504.3 638.6 503.6 639.2 503.35 639.55 503 639.95 502.7 640.15 502.3
L 643 501.2 644.05 500.65
Q 645.9 499.65 646.8 499.2 648.45 498.3 649.65 497.85 650.3 497.6 651.65 497.1
L 654.7 495.35
Q 655.95 494.75 656.45 494.6 657.35 494.4 657.75 494.2 658.4 493.9 658.65 493.2 658.85 493.15 659.05 493.05 660.2 492.6 662.4 491.5
L 670.55 487.65
Q 672.4 486.85 675.05 485.35 675.15 485.25 675.25 485.15 675.7 484.8 676.25 484.7 676.65 484.45 677.1 484.2 677.55 483.25 678.85 482.6 680.45 481.9 681.2 481.55 681.95 481.2 683.45 480.4
L 683.85 480.25
Q 685.2 479.5 686.1 479.05
L 693.2 475.15
Q 694.2 474.5 694.45 474.1 695 473.45 694.85 472.65 695.1 472.1 695.3 471.35 695.7 469.95 696.8 467.15 698.45 463.1 699.45 461.1 701.1 457.8 702.95 455.55
L 704.2 454.2
Q 704.95 452.95 705.5 452.45 706 452 706.25 451.8 707.55 450.2 707.95 449.8 708.8 449 710.8 447.8 714.8 445.45 717 445.2 717.65 445.15 719 444.95 720.15 444.75 720.65 444.1 720.9 443.75 721 443.35 721.5 442.85 722.05 441.9 723.3 439.45 723.9 437.45 724.3 436.2 724.8 433.25 725.45 428.95 725.5 427.4 725.45 424.85 725.5 423.55 725.5 421.1 725.45 420.6 725.3 419.45 724.9 418 723 411.2 719.4 407.35 717.3 405.05 714.6 403.65 711.75 402.2 708.85 402.15 707.05 402.15 705.05 402.55 701.9 403.2 700.2 404.05 697.8 405.15 693.95 408.4 692.95 409.3 692.15 410.05 691.25 411.55 690.35 412.3
L 689.85 412.7
Q 689.1 413.75 688.05 415.95
L 684.3 423.9
Q 684 424.45 683.85 424.95 683.65 424.8 683.45 424.7 682.95 424.35 682.65 424.1 681.5 422.75 680.9 422.05 680.55 421.7 680.2 421.35 680.05 421.25 679.9 421.15 679.55 420.85 679.2 420.3
L 679.15 420.25
Q 678.4947265625 419.593359375 678.1 419.1 677.6 418.55 675.3 415.2 674.45 414.1 673.75 413.2 673.4 412.85 673.2 412.6 673.15 412.45 673.1 412.35 672.5 411.6 672.1 411.1 669.55 407.85 666.9 403.5 665.8 401.7 665.15 400.8 663.75 399.15 663.1 398.25 661.85 396 661.15 394.9 660.7 394.15 659.25 392.5 658 391 657.45 390 657.35 389.85 655.9 386.65 655.25 385.3 653.7 382.8
M 525.4 395.65
Q 525.7 395.5 526.1 395.15
L 526.3 394.75
Q 526.6 394.2 527.4 393.6 527.6 393.3 527.6 393.25 527.9 392.9 529.05 392.1 530.75 390.9 531.75 390.6 532.45 390.4 532.8 390.45 533 390.5 533.35 390.6 533.5 390.55 533.75 390.45 534.5 390.4 535.2 391 535.6 391.4 535.9 392 536 392.15 536.15 392.4 536.6 393.2 536.9 394.5 537.05 395.25 537.35 396.75 537.4 397.05 537.5 397.3 537.2 397.65 537.05 398.1 536.95 398.5 536.95 399.3 536.8 400.35 536.35 401.25 535.5 403.2 534.05 405.6 532.9 407.6 532.1 408.3 531.85 408.55 529.8 409.8
L 529.7 409.85
Q 529.5 410.1 529.15 410.25 529 410.35 528.9 410.4
L 527.9 411.05 527.8 411.15
Q 527.3 411.65 526.4 412.1 526.1 412.25 525.8 412.35 524.8 412.95 523.95 413.25 523.15 413.5 522.75 413.7 522.5 413.65 522.25 413.65 520.95 413.65 520.3 413.55
L 519.8 413.35
Q 519.6 413.15 519.5 412.75
L 518.95 411.55
Q 518.75 411.05 518.65 410 518.45 408.35 518.6 407.55
L 519.2 404.6
Q 519.45 403.5 521 401.4
L 524.35 396.85
Q 524.75 396.3 524.95 395.85 525.15 395.75 525.4 395.65
M 627 393.05
Q 627.15 392.9 627.25 392.8 627.8 393.1 629 393.1
L 629.7 393.15
Q 629.9 393.05 630.1 393 630.7 392.85 631.45 393.05 631.65 393.1 632.05 393.2 633.15 393.25 634.1 393.4 634.25 393.45 637.6 394.6 638 394.7 638.2 394.9 638.3 395 638.65 395.55 638.75 395.7 638.85 395.8 639.1 396.1 639.5 396.3 639.65 396.35 639.85 396.4 640.15 396.4 640.3 396.5 640.4 396.55 640.55 397 640.6 397.2 640.7 397.4 641 397.7 641.25 398.05
L 641.75 398.8
Q 641.9 398.95 642.5 399.35 643 399.7 643.25 400.05 643.65 400.65 643.95 401.7
L 644.75 404.9
Q 645 405.6 645.05 406.3
L 644.75 411.45
Q 644.75 411.9 644.6 412.35 644.45 412.7 643.95 413.3 643.8 413.45 643.7 413.65 643.65 413.8 643.6 414.05 643.5 414.65 643.3 415 643.05 415.45 642.7 415.7 642.55 416 642.45 416.35 642.3 416.4 642.2 416.5
L 642 416.7
Q 641.5 417.2 641.45 417.85 641.05 418.1 640.65 418.55
L 639.7 419.5 639.25 419.75 639.2 419.75
Q 638.2 420.65 637.6 420.95 637.45 421.05 636.05 421.6 634.1 422.4 633.55 422.5 632.75 422.6 632.2 422.5 631.75 422.5 631.15 422.5 629.4 422.7 626.5 422.6 626.1 422.2 625.35 421.8 625.15 421.7 624.95 421.6 622 420 620.45 419.35 620.25 419.25 620.1 419.2 619.95 419.15 619.8 419.1 619.8 419 619.8 418.9 619.65 418.85 619.55 418.75 618.85 418.25 618.55 417.95 618.05 417.4 618.15 416.75 618.15 416.65 618.2 416.55 617.6 415.75 617.05 414.65 616.9 414.35 616.75 414.05
L 616.45 413.15
Q 616.25 412.7 616.1 412.25 616.05 412.15 616.05 412.1
L 615.45 410.5
Q 615.35 410.1 615.35 409.3 615.35 409.25 615.35 409.2 615.35 409 615.35 408.8
L 615.35 407.4
Q 615.385546875 407.1509765625 615.4 406.9 615.4 406.8365234375 615.4 406.75
L 615.45 405.4
Q 615.45 404.2 615.7 403.65 615.75 403.5 615.85 403.4 616 402.5 616.15 401.95 616.4 401.15 617.1 399.65 617.4 399 617.7 398.5 617.7 398.45 617.75 398.45
L 618.05 398.25 618.55 397.75 618.75 397.35
Q 618.8 397.2 618.85 397.1 619.15 396.85 619.55 396.6 620.95 395.75 623.3 394.75 623.8 394.45 624.35 394.2 625.3 393.75 626.25 393.55 626.8 393.25 627 393.05
M 611.45 419.1
Q 612.15 419.45 612.55 419.85 612.75 420.05 613.1 420.45 613.25 420.55 613.4 420.7 613.65 420.9 614.15 421.15 614.55 421.4 615.2 422.05 615.25 422.1 615.35 422.15 615.4 422.55 615.65 422.95 615.7 423.05 615.85 423.2 616.15 423.4 616.5 423.7
L 617.35 424.45
Q 618.15 424.95 619.05 425.85 619.8 426.5 620.1 426.9
L 620.2 427
Q 620.5 427.45 621.05 428.25 621.0763671875 428.2830078125 621.1 428.3
L 621.1 428.35
Q 621.63203125 428.985546875 622.7 430.1
L 623.8 431.45
Q 624.55 432.3 626.1 433.95 627.5 435.9 627.6 436 627.75 436.15 627.9 436.25 627.85 436.5 627.95 436.8 628.15 437.3 628.7 438.1 629.2 439 629.3 439.1 629.5 439.3 629.95 439.65
L 630.25 440.4
Q 630.4 441.05 631.05 441.9 631.85 442.95 632 443.25
L 632.65 444.8
Q 632.8 445.25 633.65 446.8 635.4 450.2 636.35 453.2 636.7 454.3 637.05 455 636.85 455.65 637.05 456.55 637.25 457.15 637.4 457.65 638 459.3 638.05 459.45 638.2 460.4 638.2 462.35 638.25 462.85 638.5 463.8 638.75 465.15 638.55 466.25
L 638.35 467.35
Q 638.45 468.3 638.35 469.1 638.3 469.3 638.25 469.55 638.25 469.95 638.3 470.45
L 638.05 471.85
Q 637.55 472.45 637.05 473.45 635.75 476.75 634.85 478.3 634.35 479.1 634 479.4 633.7 479.65 632.85 480.05 632.1 480.45 631.75 480.75 631.25 481.2 630.4 482.25 630.1 482.55 629.3 482.95
L 626.6 484.1
Q 625.75 484.45 625.3 484.8 625.05 484.65 624.75 484.6 624.45 484.55 622.8 484.8 622.55 484.85 622.25 484.95
L 622.05 485
Q 620.35 485.6 618.45 485.75 617.3 485.85 615.45 485.8 613.1 485.75 612.45 485.75 610.95 485.75 610.3 485.4 610.05 485.25 609.85 485.1 609.35 485.2 608.65 485.1 607.75 485 606.3 484.5 606.15 484.45 606 484.4
L 602.6 483.85
Q 599.2 483.15 597.55 482.65 597.4 482.6 597.3 482.6 596.65 482.05 595.5 481.55
L 594.45 481.15
Q 593.1 480.65 592.8 480.6 592.1 480.45 591.75 480.35 591.35 480.25 591.05 480.1
L 590.25 479.9
Q 589.25 479.55 588.9 479.3 588.85 479.3 588.8 479.35 587.15 478.5 585.45 478.15 585.1 478 584.75 477.85 582.95 477.15 582 476.9 581.9 476.85 580.1 476.45
L 576 475.65
Q 575.25 475.5 574 475.45
L 572 474.85 570.5 474.8
Q 570.15 474.7 569.1 474.55
L 568.2 474.25 567.95 474.25
Q 567.8 474.2 567.65 474.15 567.05 474.05 566.65 474.1
L 566.5 474.05
Q 565.3 473.95 562.85 473.95 561.45 474.05 560.8 474.05 560.05 474.05 558.5 473.95 557 473.85 556.2 473.85 554.75 473.8 552.4 474.05 549.55 474.35 548.55 474.4 546.55 474.4 545.55 474.4 543.8 474.4 542.6 474.75 541.4 475.15 540.8 475.25 539.1 475.35 538.25 475.45 537.1 475.5 534.3 476.25
L 528.5 477.65
Q 527.6 477.85 525.6 478 524.6 478.1 523.85 478.2 522.8 478.45 522.1 478.6 521.15 478.95 520.6 479.05 519.45 479.3 519.25 479.4 518.85 479.6 518.6 479.95 515.3 479.6 513.3 478.6 512.3 478.1 511 477.15 509.75 476.3 509.15 475.55 509.1 475.5 509.05 475.45 508.5 474.9 508.15 474.35 507.85 473.9 507.4 472.95
L 506.65 471.7
Q 506.45 471.4 506.25 471.15 506.2 471 506.15 470.8 505.85 469.95 505.7 469.5 504.8 467.2 504.9 463.05 504.85 462.8 504.85 462.55 504.8 461.15 504.9 458.35 504.95 457.35 505 456.45
L 505 454.75
Q 505.15 453.4 505.5 452.25 505.75 451.45 505.85 451 506 450.3 505.85 449.75 505.85 449.7 505.85 449.65 506.6 446.15 508.2 442.95 508.25 442.85 508.35 442.7 508.8 441.8 509.05 441.15 509.3 440.5 509.35 440 509.4 439.75 509.4 439.5 509.6 439.05 509.8 438.65 510.3 437.55 510.65 437
L 511.5 435.6
Q 514.5 431.3 515.65 429.85
L 517.8 427.05
Q 518.35 426.15 518.45 425.75 518.45 425.7 518.5 425.7 518.9 425.4 519.5 424.9 523 421.35 524.9 419.75 525.8 418.95 526.6 418.4
L 530.45 415.5 531.6 414.45 537.5 411.05
Q 538.2 410.7 538.55 410.35 538.65 410.25 538.75 410.15 539.3 410.05 540 409.8 540.05 409.8 540.1 409.8 540.55 409.6 541.1 409.4
L 541.35 409.05 541.55 408.85
Q 542.05 408.45 542.65 408.45 542.9 408.4 543.15 408.5 543.85 408.15 544.6 407.8 547.55 406.35 549.15 405.8 550.35 405.4 553.7 404.75
L 560.45 403.45
Q 561.85 403.2 563.8 403.2
L 570 403.5
Q 571.1 403.5 571.55 403.4 572.1 403.5 573.05 403.5 574.95 403.45 577.85 403.8
L 579.65 404.1 585.55 405.95
Q 586.75 406.4 587.5 406.3
L 593.25 408.5
Q 597.95 410.15 602.65 412.75
L 603.25 413.15 603.75 413.75
Q 604.25 414.3 605 414.5 605.3 414.85 605.75 415.25 606.2 415.6 607.15 416.15 607.6 416.45 608.65 417.3 609.6 418.1 610.2 418.45 610.6 418.7 611.45 419.1 Z"/>

<path fill="#78402C" stroke="none" d="
M 531.7 379.1
L 532.05 379.15
Q 532.1 379.05 532.15 378.95
L 531.7 379.1
M 532.25 378.6
L 532.2 378.6 531.7 379.1 532.15 378.95
Q 532.2 378.75 532.25 378.6
M 683.15 423.2
L 683.2 423.2 683.15 422.75 683.15 423.2
M 683.2 423.2
Q 683.3 423.2 683.4 423.2
L 683.15 422.75 683.2 423.2
M 683.55 423.15
L 683.55 422.45 683.4 423.2
Q 683.5 423.15 683.55 423.15
M 722.5 444.15
L 722.5 444.45
Q 722.6 444.65 722.75 444.8 722.75 444.7 722.7 444.6 722.65 444.4 722.5 444.15
M 742.8 454.9
Q 742.85 454.85 742.9 454.85
L 742.8 454.35 742.8 454.9
M 742.7 454.95
Q 742.75 454.95 742.8 454.9
L 742.65 454.7 742.7 454.95
M 742.65 455
L 742.7 454.95 742.65 454.7 742.65 455
M 742.65 454.7
L 742.65 454.05 742.3 454.05 742 455.2
Q 742.35 455.15 742.65 455
L 742.65 454.7
M 743.35 454.25
L 742.95 454.75
Q 743.1 454.6 743.2 454.45 743.3 454.35 743.35 454.25
M 725.7 300.7
Q 724.5 301.25 721.9 302.25 716.85 304.6 714.2 305.65 712.25 306.4 711.4 307.05 710.75 307.6 710.45 308.35
L 710.45 308.4
Q 710.4 308.55 710.35 308.7
L 710.35 308.75
Q 710.3 308.85 710.3 309 710.25 309.3 710.35 309.6 710.35 309.7 710.4 309.8
L 710.35 309.85
Q 710.25 310.05 710.2 310.35 710.1 310.85 710.25 311.55 710.45 313.65 711.45 317.2 712.55 321.15 712.8 322.75
L 713.05 324.6
Q 713.1 324.8 713.15 325 712.95 325.5 713.2 327.2 713.5 328.9 713.6 331.3 713.85 335.5 713.8 336.75
L 713.75 339.4
Q 713.7 340.95 713.8 342 713.85 342.4 713.9 342.7 713.8 342.85 713.75 343.05 713.6 343.45 713.6 344.75 713.9 348.5 713.85 353.6 713.8 356.55 713.65 362.45 713.65 363.45 713.8 364.1 713.7 364.65 713.75 365.55 713.95 368.95 713.85 370.7
L 713.65 372.65
Q 713.55 373.6 713.55 375.45
L 713.5 377.45
Q 713.5 377.5 713.5 377.6 713.4 377.75 713.3 377.95 713.1 378.45 713.1 379.5
L 713.15 385.25
Q 713.15 385.95 713.05 386.3
L 712.8 387
Q 712.65 387.3 712.55 388.5 712.5 389.1 712.5 389.6 712.5 389.85 712.45 390.25 712.35 391.55 712.35 392.35 712.35 394.05 712.25 394.85 712.25 395 711.8 397 711.75 397.3 711.7 397.6 711.5 398.8 711.5 400.05 711.5 400.9 711.75 401.45 712.25 402.5 713.45 402.6 713.95 402.65 714.35 402.5 714.6 402.85 715.05 403.2
L 717.85 405.35
Q 719.1 406.5 719.35 406.75 721.8 409.2 724.5 414.8 724.9 415.7 725.35 416.25 725.35 416.55 725.4 416.9 725.6 418.95 726.1 421.35 726.4 422.75 726.3 423.4
L 726 424.75
Q 725.85 425.55 725.9 427.1 725.9 428.7 725.75 429.45
L 725.3 431.25
Q 725.1 432.25 725.35 432.9
L 725.35 434.15
Q 725.3 434.9 724.9 436.3 723.6 440.25 722.75 441.8 722.6 442.15 722.3 442.8 722.2537109375 443.0775390625 722.25 443.3
L 722.25 443.35
Q 722.2 443.4 722.25 443.5 722.2 443.85 722.35 444.2 722.4 444.35 722.5 444.45
L 722.5 444.15
Q 722.65 444.4 722.7 444.6 722.75 444.7 722.75 444.8 722.85 444.9 723 445 723.5 445.35 724.15 445.4 724.4 445.4 724.65 445.35 724.75 445.4 724.85 445.5 725 445.65 725.65 445.95 725.7 445.95 725.8 446 729.9 447.5 731.35 448.3 731.7 448.5 734.1 449.95
L 735.05 450.55 736.4 451.45
Q 738 452.45 738.65 453.1
L 739.95 454.45
Q 740.7 455.05 741.3 455.2
L 741.3 454.8 741.3 455.2
Q 741.5 455.2 741.65 455.2 741.85 455.2 742 455.2
L 742.3 454.05 742.65 454.05 742.65 454.7 742.8 454.9 742.8 454.35 742.9 454.85
Q 742.9 454.8 742.95 454.75
L 743.35 454.25
Q 743.75 453.65 743.6 452.95 743.75 452.75 743.9 452.5 744.25 451.95 744.25 450.35 743.9 437.75 744.95 424.85 745 424 744.95 423.45 744.95 423.35 745 423.3 745.3 422.7 745.3 421.4 745.4 417.1 745.05 405.35
L 745 403.75
Q 744.85 402.65 744.8 402.45 744.7 402.25 744.6 402.1 744.65 401.7 744.65 401.15
L 744.6 397.75
Q 744.55 396.05 744.2 392.9 743.8 389.6 743.75 388.05 743.7 386.5 743.65 385.75 743.6 384.35 743.4 383.4
L 743.1 381.7
Q 742.95 380.95 742.95 380.2 742.9 379.05 742.6 378.55 742.6 378.5 742.6 378.45 742.55 378.1 742.2 377 742.05 376.55 741.8 374.3 741.6 371 740.75 366.8 740.5 365.35 740.15 364.25
L 739.55 362.6
Q 739.4 360.95 739.3 360.15 739 358.6 738.2 358.05 738.15 358.05 738.15 358 738.2 357.55 738.2 356.95 738.1 354.55 736.3 350.25
L 735.3 347.85
Q 734.95 346.8 734.5 346.1
L 733.85 345.05 733.35 343.75
Q 733.1 342.95 732.4 341.5 731.7 339.95 731.45 339.25
L 730.85 337.5
Q 729.95 335.65 729.55 334.7 729.3 333.95 729.1 333.55 729 333.3 728.85 333.1 730.25 333.1 730.65 333.2
L 731.9 333.6
Q 732.35 333.75 734.15 333.85 735.3 333.95 737.65 334.25 739.7 334.45 741.15 334.25 743.25 333.9 745.6 332.45 746.6 331.85 747.05 331.35 747.6 330.75 748.1 329.8 748.25 329.5 748.4 329.2 748.65 329.1 748.9 328.9
L 749.05 328.8 749.3 328.45 749.4 328.35 749.5 328.1 749.6 328
Q 749.55 327.95 749.6 327.85 749.85 327.25 749.5 326.6
L 749.5 326.5 749.35 326.3
Q 749.65 324.65 749.2 323.1 748.75 322 748.05 320.9 747.45 319.95 746.9 319.4 745.5 317.85 742.6 316.65 741.4 316.2 740.6 316.05 740.1 315.7 739.4 315.45 737.9 315 736.8 314.95 737.2 314.3 738.65 313.55
L 741.25 312.35
Q 743.05 311.45 743.85 310.7 744.95 309.65 746 307.15 746.5 306 746.6 305.25 746.9 303.55 746 301.1 745.55 299.95 744.95 299.45 744.75 299.25 743.5 298.5 742.8 298 742.4 297.85 742 297.7 740.2 297.7 738.6 297.45 737.8 297.5
L 735.6 297.95 733.75 298.1
Q 732.95 298.25 731.5 298.8 730 299.4 729.25 299.55
L 727.55 299.9
Q 727.2 300 725.7 300.7
M 666.35 278.9
L 664.55 278.35
Q 663.3 277.85 662.65 277.6 660.15 276.55 654.1 274.45
L 652.25 273.85
Q 649.75 273.3 648.55 272.9 647.35 272.55 646.9 272.5 646.4 272.4 645.95 272.5 645.8 272.2 645.5 272 645.05 271.65 644.05 271.45 642.95 271.2 641.45 271.1 640.4 271.1 639.95 270.95 639.15 270.45 638.7 270.35
L 637.65 270.35
Q 637.15 270.3 636.35 270 631.05 268.25 623.25 266.85
L 614.45 265.5
Q 613.15 265.3 612.45 265.6 612.2 265.7 612 265.85 611.45 265.7 610.7 265.7
L 604.3 264.9
Q 603.75 264.9 602.65 264.8
L 586.95 264.95
Q 585.9 265.05 585.25 265.4 584.9 265.15 584.45 265.1 584.05 265.05 582.15 265.55 581.15 265.85 579.5 265.95 577.45 266.1 576.8 266.2 574.65 266.65 574.5 266.65 573.15 266.85 572.5 267.05 572 267.2 571.6 267.5
L 568.35 268.1
Q 567.15 268.6 566.55 268.8
L 564.85 269.35
Q 563.15 269.85 561.25 270.65 559.65 271.3 555 273.55 553.8 274.15 553.25 274.55 552.9 274.8 551.7 275.85
L 549.85 277.5 549.1 277.9
Q 548.8 278.05 548.45 278.4 547.9 278.9 547.8 278.95
L 546.4 279.75
Q 545.8 280.1 544.8 281.2 543.35 282.55 541.8 283.55 540.6 284.3 540.3 284.8 540.2 285 540.1 285.25 539.8 285.4 539.55 285.75 539 286.25 538.1 287.35
L 532.8 293.4
Q 532.15 294.2 531.95 294.65 531.5 294.95 530.75 296.05 529.7 297.9 528.6 299.35
L 527.7 300.6
Q 526.95 301.6 526.15 303.2 525.65 304.05 525.5 304.8
L 525.2 305.15
Q 524.65 305.8 524.15 306.85 522.8 309.4 521.4 312.55 521 313.55 521 314.1 521 314.15 521 314.25 520.95 314.35 520.9 314.45
L 520.2 315.7
Q 520.05 316 519.55 317.35
L 517.5 323.5
Q 517.2 324.5 517.25 325.05 516.7 325.8 516.5 327.3 515.7 333.3 515.55 334.05 514.65 338.55 514.6 339.4 514.55 339.8 514.6 340.2 514.55 340.5 514.55 340.9 514.55 342.85 514.5 343.1
L 514.25 344.4 514.25 346.2
Q 514.25 346.8 514.05 348.1 513.9 349.65 513.95 352.85 513.85 354.4 514.1 354.95 514.1 355 514.15 355.1 514.1 355.5 514.35 357 514.75 359.55 514.9 363.6 515.1 369.45 515.15 370.2 515.25 371.5 515.6 372.05 515.9 372.45 516.25 372.7 516.3 373.15 516.4 373.75
L 518.95 384.9
Q 519.25 386.2 519.65 386.65 519.7 386.7 519.75 386.8 519.5 387.25 519.5 387.6 519.35 388.75 520.35 389.4 520.6 389.55 520.9 389.65 521.05 389.7 521.2 389.75 521.4 389.75 521.55 389.75 521.6 389.7 521.65 389.75 521.7 389.7 521.75 389.7 522 389.65 522.3 389.5 522.55 389.4 523.45 388.5
L 526.2 385.25
Q 526.35 385.05 526.5 384.9 527.1 384.85 527.7 384.4 527.7921875 384.35390625 528 384.15
L 528.05 384.1
Q 528.3 383.85 528.8 383.35
L 529.15 382.95
Q 529.3 382.8 529.45 382.65 529.6 382.45 529.7 382.3 530.1 381.8 530.2 381.7
L 530.6 381.45
Q 531.45 380.9 531.55 379.9 531.9 379.5 532.05 379.15
L 531.7 379.1 532.2 378.6 532.25 378.6
Q 532.35 377.75 531.7 377.05 531.5 376.8 531.3 376.65 531.25 376.3 531.05 375.9 530.95 375.75 530.15 374.8
L 528.6 372.05
Q 527.25 369.55 526.7 368.15 525.8 365.9 525.8 363.9 525.75 363.35 525.85 362.2 525.55 359 525.65 357.4 525.8 355.9 525.8 355.85 525.8 355.05 525.55 354.45 525.7 354 525.85 353.35 526.5 350.95 528.05 347.25
L 529.3 344.15
Q 529.65 343.25 529.7 342.75 530.15 342.5 530.45 341.95
L 530.65 341.65 530.95 341.45
Q 532.2 340.9 533.2 339.55 533.9 338.65 534.75 337 534.8 336.9 534.85 336.85 535 336.85 535.15 336.9 535.85 337 536.45 336.6 539.6 336.65 543.05 336.2
L 545.85 335.75
Q 551.05 334.85 553.65 333.7 554.35 333.4 554.85 332.9 555 332.7 555.15 332.55 555.85 332.55 556.4 332.1
L 556.55 332 556.65 331.9 557.65 331.6
Q 558.95 331.25 560.6 330.45 562.15 329.75 562.7 329.3
L 564.05 328.05
Q 565.15 326.95 565.5 326.35 566.9 325.95 567.35 324.85
L 567.65 324.1
Q 567.75 324 568.25 323.6 568.8 323.3 570.15 322.05
L 571.45 320.75
Q 572.45 319.85 572.9 319.35
L 574 317.9
Q 574.1 317.75 574.2 317.65 574.7 317.4 575.35 316.8
L 581.5 310.6 582.8 309.6
Q 584.05 308.6 584.85 307.35 585.25 306.75 585.45 306.3 585.75 306.05 586.1 305.65
L 590.05 301.8
Q 590.75 301.15 592.2 299.9 593.45 298.8 594.05 297.8 594.25 297.5 594.4 297.2 594.7 296.9 595.15 296.4 595.3 296.25 596.1 295.7 596.7 295.25 596.9 294.85
L 597.25 294.1
Q 597.5 293.7 598 293.3 600.6 291.1 603.1 288.4 603.6 287.9 603.8 287.4 603.85 287.3 603.9 287.25 604.1 287.15 604.3 287.05 604.75 286.8 605.85 285.35 606.35 284.6 607.5 283.4 608.65 282.05 609.15 281.4
L 609.45 281
Q 609.5 280.9 609.6 280.85
L 611.35 278.6
Q 611.65 278.25 612.05 277.85 613.35 276.65 613.85 276.05 614.05 275.75 614.2 275.7 614.3 275.65 614.7 275.65 614.8 276.3 615.15 277.25 615.45 278.2 615.85 279.95 616 280.55 616.1 281.05 615.95 281.4 615.9 281.9 616.05 282.45 616.05 283.2 616.0515625 283.253125 616.1 283.35 616.25 283.8 616.65 284.75 617.05 285.6 617.2 286.1 617.35 286.65 617.5 287.8
L 619.15 293.55 619.25 294.15 619.2 294.8
Q 619.15 295.5 619.85 297.9
L 620.4 299.55
Q 620.6 300 620.9 300.35 620.8 300.8 620.95 301.4 621 301.6 621.65 303.3 621.8 303.65 622.4 305.75 623.75 311.15 624 312.4 624.3 313.85 624.8 314.4 624.85 314.45 624.9 314.5 625.1 315.1 625.45 316.1
L 625.5 317.15
Q 625.6 318.05 626.1 319.25 626.4 319.95 626.95 321.3 627.45 322.55 628.15 325.9 628.3 326.75 628.5 327.45 628.9 327.95 628.85 328.65 629.15 329.65 629.55 330.4 629.8 330.85 630.3 331.7 630.55 332.15 630.9 332.95 630.95 333.3 631.2 333.8 631.25 333.85 631.25 333.95
L 631.15 333.95
Q 631.2 334 631.2 334.1
L 631.15 334.1 631.05 334.8
Q 631.0984375 334.8484375 631.1 334.8 631.1009765625 335.2015625 631.35 335.6
L 631.45 335.75 631.85 336.15
Q 632.35 336.5 632.75 336.55
L 632.8 336.55 632.9 336.75
Q 633.5 337.75 633.7 337.95
L 636.15 340.9
Q 636.5 341.3 636.95 341.55 637.05 341.75 637.2 341.95 639.05 344.85 640.75 349.5
L 641.15 350.8 641.2 351.75
Q 641.3 355.2 641.7 357.35 641.85 358.25 642.15 358.7 642.1 358.8 642.1 358.95 642.1 359.4 642.4 360.2 643.1 362.05 643.9 363.6 644.55 364.9 646 367.45 647.15 369.55 649.95 375.95 650.35 376.85 650.75 377.3 650.8 377.35 650.85 377.4 650.95 377.6 651.1 377.8
L 656.65 387.3
Q 657.55 388.75 658.15 390.05 658.75 391.25 659.35 391.8 659.5 392.1 659.8 392.7 661.9 396 663.15 397.5 663.45 397.8 663.95 398.5 664.4 399.05 665.1 400.35 665.5 401.05 666.75 402.7 668.2 404.7 669.65 407.2 670.4 408.5 671.1 409 671.15 409.15 671.2 409.25 671.45 409.75 672.2 410.7 672.5 411.25 673.1 412.35 673.15 412.45 673.2 412.6 673.4 412.85 673.75 413.2 674.1 413.55 674.65 414 675 414.35 675.6 415.25
L 679.05 420.1
Q 679.0953125 420.190625 679.15 420.25
L 679.2 420.3
Q 679.55 420.85 679.9 421.15 680.05 421.25 680.2 421.35 680.6 421.55 681.05 421.6 681.3 422.4 681.85 422.8 682.15 423.05 682.5 423.15 682.55 423.15 682.6 423.2
L 682.65 423.2
Q 682.8943359375 423.242578125 683.15 423.2
L 683.15 422.75 683.4 423.2 683.55 422.45 683.55 423.15
Q 683.6 423.1 683.65 423.1 683.85 423.05 684.05 422.95 684.7 422.55 684.9 421.8
L 685.1 421 687.25 415.7 687.75 414.85 689.25 413.15 689.85 412.7 690.35 412.3
Q 691.25 411.55 692.15 410.05 692.3 409.85 692.4 409.65 692.8 409 693 408.4 693.6 408.15 693.9 407.4 693.9 407.35 693.95 407.3 694.05 407.05 694.1 406.45 694.15 406.2 694.15 405.95
L 694.15 405.25 694.25 397.75 694.3 391.15
Q 694.3 390.85 694.3 390.6 694.4 390.2 694.5 389.65 694.55 389.4 694.55 389.1 694.6 388.2 694.65 386.95 694.7 384.2 694.7 379.55 694.7 373.45 694.95 370 695 368.7 694.8 368 694.8 367.65 694.8 367.2
L 694.85 352.25
Q 694.85 351.25 694.65 350.75 694.6 350.6 694.5 350.5 694.5 350.35 694.5 350.25 694.5 348.75 694.45 347.05 694.3 342.25 693.75 335.6 693.65 334.55 693.45 334.1 693.35 333.95 693.25 333.8 693.15 333.7 693.1 333.65 693.1 333.4 693.1 333.1
L 693.1 330.5 693.1 329.4
Q 693.1 328.25 692.75 327.65 692.65 327.45 692.5 327.3 692.2 327.05 692.15 326.85 692.05 326.7 692.05 326.35 692.1 325.7 692.1 325.35 692.1 324.75 691.95 324.4 691.85 324.15 691.7 323.9 691.7 323.6 691.65 323.2
L 691.2 319.85
Q 691.2 319.8 691.2 319.7 691 318.95 691 318.45
L 690.55 314.9 690.35 313.65
Q 690.25 312.85 690.05 312.4 689.9 312.05 689.7 311.85
L 689.3 311.4 689.1 310.8
Q 688.75 308.9 688.7 307.35 688.7 306.75 688.6 306.3 688.55 305.9 688.4 305.7
L 688.35 305.65 687.85 305.05 687.75 304.85
Q 687.8 304.65 687.8 304.45 687.8 303.95 687.6 303.15 686.5 299.05 685.35 295.45 685.1 294.7 684.85 293.95 684.75 293.6 684.65 293.25 684.4 292.5 684.1 291.8 683.4 290.2 683.15 289.4 682.75 288.25 682.5 287.85 682.5 287.15 682 286.55 681.55 286.05 680.9 285.7 676.75 283.1 670.85 280.85
L 666.35 278.9 Z"/>

<path fill="#6DFEE7" stroke="none" d="
M 763.45 487
L 763.85 487.2
Q 763.85 487.1 763.9 487
L 763.45 487
M 752.55 469.35
Q 752.35 468.9 752.1 468.65 751.8 467.95 751.3 467.55
L 750.7 467.1 750.1 466.35
Q 747.85 462.65 744.55 459.75 743.75 459.05 743.6 458.85 742.9 457.85 742.5 457.4 742.15 457 741.15 456.3 741.1 456.25 737.9 453.35
L 735.05 450.55 734.1 449.95
Q 731.7 448.5 731.35 448.3 729.9 447.5 725.8 446 725.7 445.95 725.65 445.95 724.5 445.7 723.25 445.6 722 445.5 718.3 445.45 716.85 445.45 716.2 445.8 715.95 445.95 715.8 446.15 714.9 446 713.35 446.75 711.5 447.65 709.4 448.85 707.9 449.8 707.3 450.6 706.8 451.3 706.5 451.6
L 706.25 451.8
Q 706 452 705.5 452.45 704.95 452.95 704.2 454.2 703.95 454.5 703.75 454.9 703.1 456.1 701.6 458.45 700.85 459.75 700.45 460.9 700.25 460.95 700.1 461.1 699.7 461.4 699.2 462.4 697.25 466.35 695.2 474.25
L 694.8 476.05 694.8 476.4
Q 694.75 476.5 694.7 476.6 694.35 477.45 694.15 478.15 694.15 477.85 693.95 477.5
L 693.95 477.4 693.55 476.85 693.4 476.7
Q 693.35 476.65 693.3 476.6 693.2 476.55 693.05 476.45 693 476.45 693 476.4 692.95 476.4 692.9 476.4 692.85 476.35 692.8 476.35
L 692.75 476.35
Q 692.3 476.2 692 476.25 691.4 476.25 690.9 476.65
L 690.7 476.85 690.55 477.1
Q 689.55 477.2 688.6 477.8 687.8 478.4 687.55 478.5 687.25 478.7 686.6 478.95
L 685.3 479.7 683.85 480.25 683.45 480.4
Q 681.95 481.2 681.2 481.55 680.45 481.9 678.85 482.6 677.55 483.25 677.1 484.2 677.05 484.25 677 484.35
L 676.8 484.6 676.5 484.65
Q 676.35 484.65 676.25 484.7 675.7 484.8 675.25 485.15 675.15 485.25 675.05 485.35 674.65 485.75 674.5 486.25 674.5 486.3 674.45 486.4 674.45 486.55 674.45 486.7 674.4 486.75 674.45 486.85 674.45 486.9 674.45 487.05 674.45 487.1 674.5 487.2 674.5 487.25 674.5 487.35
L 674.55 487.35 674.55 487.4 674.55 487.45
Q 674.6 487.5 674.6 487.55 674.9 488.25 675.55 488.5 676.1 488.75 677.4 488.65 681.25 488.3 682.7 488.25 685.65 488.1 688 488.25 688.5 488.3 688.9 488.25
L 688.95 488.3
Q 689.45 488.65 689.85 488.7 690.75 488.85 691.4 488.3
L 691.55 488.2 691.95 487.65 692 487.55 692.05 487.45 692.1 487.4
Q 692.05 487.35 692.1 487.25 692.15 487.15 692.15 487.1
L 692.15 487.05
Q 692.2 487 692.2 486.95
L 692.2 486.9
Q 692.25 486.55 692.1 486.2
L 692.1 486.15
Q 692.05 486.05 692 485.95
L 691.9 485.75 692.5 485.15 692.85 484.35 693.05 484.05
Q 692.9 484.75 692.5 486 692.35 486.6 692.4 487.05 692.4 487.65 692.7 488.05 693.15 488.8 694.05 488.95 694.95 489.05 695.6 488.45 696.15 488.7 696.95 488.6 697.8 488.6 699.5 488.4
L 722.95 488.55
Q 724.05 488.75 724.55 488.7 725.35 488.6 725.8 488
L 761.35 488.55
Q 762.2 488.55 762.55 488.4 763.05 488.25 763.4 487.95 763.7 487.65 763.85 487.2
L 763.45 487 763.9 487
Q 763.9 486.9 763.9 486.8 764 485.7 763.25 485.15 763.1 484.5 762.65 483.75 762.35 483.25 760.25 479.95
L 757.5 475.75
Q 756 473.45 755 472.4 754.35 471.75 754 471.4 753.4 470.8 753.1 470.3
L 752.55 469.35 Z"/>

<path fill="#99C1B4" stroke="none" d="
M 540.8 410.7
Q 540.8 411 541 411.35
L 541.7 411.35 541.25 410.85 540.8 410.7
M 542.95 410.8
L 543 410.6 541.15 410.5 541.6 410.8 542.95 410.8
M 543 410.8
L 542.95 410.8 542.75 411.6 542.75 412.15 543 410.8
M 543 410.8
L 543.05 410.6 543 410.6 542.95 410.8 543 410.8
M 543.05 410.6
L 543.1 410.2 543 410.6 543.05 410.6
M 543 410.8
L 544.05 410.8 544.15 410.7 543.05 410.6 543 410.8
M 544.05 410.2
L 543.1 410.2 543.05 410.6 544.15 410.7 544.4 410.35
Q 544.2 410.2 544.05 410.2
M 549.4 407.55
L 549.65 407.2 549.2 407.4
Q 549.25 407.5 549.4 407.55
M 549.5 407.55
L 549.45 407.6
Q 549.7 407.7 550.05 407.7
L 549.65 407.2
Q 549.55 407.4 549.5 407.55
M 549.4 407.55
Q 549.4 407.6 549.45 407.6
L 549.5 407.55
Q 549.55 407.4 549.65 407.2
L 549.4 407.55
M 549.45 407.6
Q 549.4 407.6 549.4 407.55
L 549 408 549.45 407.6
M 549.8 407.35
L 549.65 407.2 550.05 407.7 549.8 407.35
M 548.75 407.2
L 548.7 407.25 548.5 407.65 548.75 407.2
M 548.75 407.2
L 548.95 406.85
Q 548.55 406.7 548.25 406.75 547.7 406.75 547.25 407.1
L 546.7 407.35
Q 546.4 407.35 546.15 407.45
L 545.95 407.55
Q 545.85 407.55 545.75 407.55 545.15 407.55 544.65 407.95
L 544.45 408.15 544.4 408.25
Q 544.25 408.25 544.15 408.25 543.7 408.25 543.3 408.5 543.2 408.5 543.15 408.5 542.9 408.4 542.65 408.45 542.05 408.45 541.55 408.85
L 541.35 409.05 541.1 409.4 540.9 409.65
Q 541.05 409.8 540.85 409.8 540.95 409.9 540.85 409.95
L 540.75 410.65 541.15 410.5 543 410.6 543.1 410.2 541.65 410.2 543.1 409.75 541.95 409.75 543.1 409.75 541.65 410.2 543.1 410.2 544.05 410.2
Q 544.2 410.2 544.4 410.35
L 544.15 410.7 549.35 410.95 549.35 410.15 549.35 410.95 544.15 410.7 544.05 410.8 543 410.8 542.75 412.15 542.75 411.6 542.95 410.8 541.6 410.8 541.15 410.5 540.75 410.65 540.8 410.7 541.25 410.85 541.7 411.35 541 411.35
Q 541 411.4 541.05 411.45
L 541.15 411.6 541.55 412
Q 542.05 412.35 542.45 412.4 543.2 412.5 543.8 412.2 543.85 412.2 543.95 412.2 544.65 412.3 545.2 412 545.35 412.05 545.45 412.05 546.1 412.15 546.65 411.9 546.95 412.05 547.2 412.1 547.55 412.15 547.95 412.1 548.05 412.15 548.15 412.15 549 412.3 549.7 411.75
L 549.85 411.65 550.35 410.9 550.4 410.85
Q 550.35 410.8 550.4 410.7 550.65 410.1 550.3 409.45
L 550.3 409.35
Q 550.3 409.3 550.3 409.25 550.55 408.65 550.2 408
L 550.2 407.9 550.05 407.7
Q 549.7 407.7 549.45 407.6
L 549 408 549.4 407.55
Q 549.25 407.5 549.2 407.4
L 548.5 407.65 548.7 407.25 548.75 407.2
M 549 406.95
L 549.05 406.85
Q 549 406.85 548.95 406.85
L 549 406.95
M 549.05 406.85
L 549 406.95
Q 549 407.2 549.2 407.4
L 549.65 407.2
Q 549.45 407 549.05 406.85
M 548.75 407.2
L 549 406.95 548.95 406.85 548.75 407.2
M 549 406.95
L 548.75 407.2 548.5 407.65 549.2 407.4
Q 549 407.2 549 406.95
M 576.4 404.65
L 576.05 404.15 575.9 404
Q 575.7 403.8 575.3 403.65 574.85 403.5 574.5 403.55 574.15 403.55 573.85 403.7 573.45 403.65 572.8 403.7 571.1 403.85 567.7 403.85
L 566.65 403.75 565.85 403.5
Q 565.45 403.45 564.95 403.6
L 564.4 403.8
Q 564.1 403.9 563.75 403.8 562.15 403.6 561.45 404.1 560.7 404.7 560.5 406.45
L 560.25 408.3
Q 560.15 409.65 560.25 410.1
L 560.3 410.5 560.1 411
Q 559.9 411.55 560.05 412.15 560.2 412.8 560.65 413.15 561 413.45 561.7 413.75 563.15 414.25 563.45 414.35 563.8 414.45 565.3 414.7 567.9 415 568.1 415 568.8 415 569.15 415.1 569.5 415.15 570.15 415.4 570.8 415.6 571.75 415.5 573.1 415.4 573.95 415.1 575.55 414.4 576.05 413.1 576.15 412.85 576.25 411.7 576.5 407.15 576.5 406.6 576.5 406.45 576.5 406.3
L 576.5 406.25 576.55 406.2
Q 576.5 406.15 576.55 406.05 576.8 405.4 576.45 404.75
L 576.4 404.65
M 600.95 413.25
L 600.95 413.2 600.9 413.2 600.95 413.25
M 589.15 407.55
Q 589.15 407.7 589.15 408
L 588.2 408
Q 587.9 408.3 587.75 408.7 587.55 409.3 587.7 409.85
L 587.95 410.85
Q 588.05 411.25 587.85 412.05 587.7 412.8 587.75 413.2 587.9 414.25 589.1 414.8 589.75 415.1 591.2 415.2 592.45 415.3 598.35 415.4 599.15 415.4 599.55 415.3 600.05 415.15 600.4 414.85 600.6 414.65 600.75 414.35
L 598.4 413.95 600.75 414.35
Q 600.85 414.05 600.9 413.75 600.95 413.5 600.95 413.25
L 600.9 413.2 600.45 413 600.9 413.2 600.95 413.2
Q 600.9 412.95 600.8 412.7 600.55 412.15 600.1 411.85 599.8 411.6 599 411.4
L 597.45 410.9 596.9 410.65 596.5 410.15
Q 596.05 409.65 594.95 409.25
L 593.6 408.75
Q 592.9 408.65 592.55 408.5
L 591.7 408.05
Q 591.05 407.65 590.55 407.55 589.75 407.4 589.15 407.55
M 588.5 407.75
L 588.35 407.85 588.35 407.9 588.3 407.9
Q 588.2443359375 407.9556640625 588.2 408
L 589.15 408
Q 589.15 407.7 589.15 407.55 588.9 407.55 588.7 407.65 588.6 407.7 588.5 407.75 Z"/>

<path fill="#C58588" stroke="none" d="
M 577.45 467.55
L 573.5 465.95
Q 570.55 464.9 566.2 463.75 564.95 463.35 563.9 463.2 563 463.05 561.75 463.15 559.35 463.15 558.15 463.25 556.1 463.45 553.05 464.15 550 464.85 548.05 465.6 545.55 466.5 540.95 469.1 539.65 469.8 538.75 470.5 538 471.1 537.2 472
L 534.95 474.25
Q 534.25 475.1 533.6 475.4 533.45 475.65 533.25 475.85 532.65 476.5 530.45 476.8 528.55 477 525.6 477.75 524.6 478 523.85 478.2 524.6 478.1 525.6 478 527.6 477.85 528.5 477.65
L 534.3 476.25
Q 537.1 475.5 538.25 475.45 539.1 475.35 540.8 475.25 541.4 475.15 542.6 474.75 543.8 474.4 545.55 474.4 546.55 474.4 548.55 474.4 549.55 474.35 552.4 474.05 554.75 473.8 556.2 473.85 557 473.85 558.5 473.95 560.05 474.05 560.8 474.05 561.45 474.05 562.85 473.95 565.3 473.95 566.5 474.05
L 566.65 474.1
Q 567.05 474.05 567.65 474.15 567.8 474.2 567.95 474.25
L 568.2 474.25 569.1 474.55
Q 570.15 474.7 570.5 474.8
L 572 474.85 574 475.45
Q 575.25 475.5 576 475.65
L 580.1 476.45
Q 581.9 476.85 582 476.9 582.95 477.15 584.75 477.85 585.1 478 585.45 478.15 587.15 478.5 588.8 479.35 588.85 479.3 588.9 479.3 588.8 479.25 588.75 479.2 588.1 478.65 588.1 477.85 587.65 477.35 587 476.5 585.45 474.7 584.75 473.8
L 583.75 472.5
Q 582.5 471 579 468.5 578 467.8 577.45 467.55 Z"/>

<path fill="#703A4C" stroke="none" d="
M 611.3 420.1
Q 610.6 419.9 609.7 420 601.3 420.5 592.85 421.5
L 591 421.75
Q 589.2 421.85 588.3 421.9 587.9 421.95 587.55 421.95 587.3 421.9 587.1 421.95 586.9 421.95 586.75 422 586.45 421.95 586.05 421.9 584.85 421.75 582.35 421.75
L 568 421.45
Q 560.6 421.35 556.9 421.05 555.7 420.95 555.15 421.15 555.1 421.15 555.05 421.2 553.75 420.8 553 420.65 551.25 420.45 550.4 420.35 548.1 420.1 545 419.5
L 538 418.15
Q 536.65 417.95 535.3 417.45 534 417.05 533 416.4 531.8 415.75 531.7 415.7 530.65 415.45 529.85 416.1 529.55 416.35 529.4 416.65 528.6 416.8 528.15 417.5
L 527.85 418
Q 527.7 418.2 527.35 418.45 527.2 418.6 527.05 418.75 526.35 418.95 525.35 419.85
L 522.15 422.8
Q 521.35 423.5 520.65 424.3
L 519.4 425.9 518.55 426.75
Q 517.55 427.75 516.8 429.1 516.45 429.2 516.15 429.5 515.8 429.85 515.25 430.95
L 514.4 432.25
Q 511.8 436.1 510.7 438.05 509.75 439.65 509.05 441.15 508.8 441.8 508.35 442.7 508 443.45 507.75 444.2 507.35 445.5 507.3 446.1 507.3 446.5 507.4 446.8 507.1 447.25 506.85 448.15 506.45 449.5 505.55 452.15 505.15 453.85 505 456.45 504.95 457.35 504.9 458.35 504.8 461.15 504.85 462.55 504.85 462.8 504.9 463.05 504.95 463.55 505.1 463.95 504.95 464.45 504.95 465.1 504.95 465.85 505.2 466.7
L 506.1 469.75
Q 506.35 470.65 507.3 472.75 507.35 472.85 507.4 472.95 507.85 473.9 508.15 474.35 508.5 474.9 509.05 475.45 509.1 475.5 509.15 475.55 510.65 477 513.45 478.25 515.45 479.05 516.5 479.2 518.05 479.5 520.75 478.9 521.1 478.85 522.1 478.6 522.8 478.45 523.85 478.2 524.6 478 525.6 477.75 528.55 477 530.45 476.8 532.65 476.5 533.25 475.85 533.45 475.65 533.6 475.4 534.25 475.1 534.95 474.25
L 537.2 472
Q 538 471.1 538.75 470.5 539.65 469.8 540.95 469.1 545.55 466.5 548.05 465.6 550 464.85 553.05 464.15 556.1 463.45 558.15 463.25 559.35 463.15 561.75 463.15 563 463.05 563.9 463.2 564.95 463.35 566.2 463.75 570.55 464.9 573.5 465.95
L 577.45 467.55
Q 578 467.8 579 468.5 582.5 471 583.75 472.5
L 584.75 473.8
Q 585.45 474.7 587 476.5 587.65 477.35 588.1 477.85 588.1 478.65 588.75 479.2 588.8 479.25 588.9 479.3 589.25 479.55 590.25 479.9
L 591.05 480.1 591.65 480.25
Q 592.1 480.35 593.45 480.6 594.55 480.8 595.2 481
L 602.5 483.4 604 483.75
Q 604.4 483.85 606 484.4 606.15 484.45 606.3 484.5 607.75 485 608.65 485.1 609.35 485.2 609.85 485.1 610.05 485.25 610.3 485.4 610.95 485.75 612.45 485.75 613.1 485.75 615.45 485.8 617.3 485.85 618.45 485.75 620.35 485.6 622.05 485
L 622.25 484.95 624.15 484.15
Q 624.35 484.1 624.5 484 624.9 484.15 625.3 484.05
L 625.7 483.95
Q 626.5 483.7 626.95 483.3
L 627.1 483.15
Q 627.15 483.1 627.25 483 627.75 482.85 628.25 482.7 629.25 482.35 629.6 482.1 629.85 481.95 630.05 481.75 630.05 481.7 630.1 481.7 630.6 481.5 631.15 480.9 631.85 480.2 632.15 480
L 633.15 479.35
Q 633.4 479.1 633.85 478.3
L 635.3 476.35
Q 636.35 474.6 636.75 473.5 637.15 472.15 637.3 471.1 637.3 471.05 637.35 471 637.65 470.75 637.9 470.4 638.15 470 638.25 469.55 638.3 469.3 638.35 469.1 638.45 468.3 638.35 467.35 638.3 466.8 638.2 466.2 638 465.25 637.9 464.55 637.9 463.5 637.9 462.4 637.9 459.85 637.55 458.2 637.5 457.95 637.4 457.65 637.25 457.15 637.05 456.55 636.65 455.5 636.1 454.1 635.95 453.7 635.8 453.45 635.85 453.1 635.75 452.7 635.75 452.55 635.3 451.55
L 634.9 450.15
Q 634.75 449.55 634.25 448.45 632.75 445.3 632.1 444.1 630.8 441.7 629.45 440
L 628.6 438.9 624.9 433.25
Q 624.15 432.25 623.95 432.05 623.35 431.65 623.15 431.35
L 621.45 428.85
Q 621.2873046875 428.5650390625 621.1 428.35
L 621.1 428.3
Q 621.0763671875 428.2830078125 621.05 428.25 620.5 427.45 620.2 427
L 620.1 426.9
Q 620.070703125 426.870703125 620.05 426.85 619.8 426.6 618.45 425.35
L 617.35 424.45 616.5 423.7
Q 616.15 423.4 615.85 423.2 615.15 422.7 614.7 422.65
L 614.65 422.65 614.05 422.05 613.7 421.2
Q 613.55 420.9 613.4 420.7 613.25 420.55 613.1 420.45 612.55 420 611.75 420 611.5 420 611.3 420.1 Z"/>

<path fill="#F7AE9C" stroke="none" d="
M 624.35 394.2
Q 623.8 394.45 623.3 394.75 621.6 395.7 620.1 397.1
L 618.15 399
Q 617.4 399.9 616.95 401 616.8 401.35 616.5 402.1 616.3 402.55 615.85 403.4 615.75 403.5 615.7 403.65 615.45 404.2 615.45 405.4
L 615.4 406.75
Q 615.4 406.8365234375 615.4 406.9
L 615.35 408.8
Q 615.35 409 615.35 409.2 615.35 409.25 615.35 409.3 615.35 410.1 615.45 410.5
L 616.05 412.1
Q 616.05 412.15 616.1 412.25 616.25 412.7 616.45 413.15
L 616.75 414.05
Q 616.9 414.35 617.05 414.65 617.4 415.2 617.8 415.55 618.15 415.9 618.2 416.1 618.25 416.25 618.2 416.55 618.15 416.65 618.15 416.75 618.05 417.4 618.55 417.95 618.85 418.25 619.55 418.75 619.65 418.85 619.8 418.9 620.1 419.1 620.45 419.35 622 420 624.95 421.6 625.2 421.65 625.4 421.7
L 628.6 422.45
Q 628.9 422.5 631.15 422.5 631.75 422.5 632.2 422.5 632.75 422.6 633.55 422.5 634.1 422.4 636.05 421.6 637.45 421.05 637.6 420.95 638.2 420.65 639.2 419.75
L 639.25 419.75
Q 641.15 417.95 642.25 415.95 642.45 415.85 642.7 415.7 643.05 415.45 643.3 415 643.5 414.65 643.6 414.05 643.65 413.8 643.7 413.65 643.8 413.15 643.85 413.05
L 644.4 411.7
Q 644.6 411.1 644.7 409.9 645 404.9 642.1 399.4
L 641.75 398.8 641.25 398.05
Q 641 397.7 640.7 397.4 640.15 396.85 639.5 396.3 639.1 396.1 638.85 395.8 638.2 395.35 637.45 394.9 636.25 394.2 635.6 393.95 635.1 393.8 634.2 393.65 633 393.45 632.75 393.4 632.35 393.3 632.05 393.2 631.65 393.1 631.45 393.05 630.7 392.85 630.1 393 629.9 393.05 629.7 393.15 629.6 393.15 629.5 393.25 629.45 393.2 629.35 393.2 627.8 393.1 626.25 393.55 625.3 393.75 624.35 394.2
M 525.85 395.5
L 525.25 395.9
Q 524.6 396.35 524.05 397.5
L 523.65 398.25 523 398.9
Q 522.6 399.35 522 400.35 520.2 403.45 519.6 405.15 518.55 407.95 518.8 410.45 518.9 411.45 519.25 412.05 519.75 412.75 520.7 413 521.4 413.25 522.5 413.15 524.1 413 525.8 412.35 526.1 412.25 526.4 412.1 527.3 411.65 527.8 411.15
L 527.9 411.05 528.3 410.6
Q 528.6 410.55 528.9 410.4 529 410.35 529.15 410.25 529.5 410.1 529.7 409.85 529.9 409.65 530 409.45 530 409.4 530.05 409.4 530.95 408.95 531.6 408.3 532.3 407.45 532.65 407.05
L 533.65 405.95
Q 534.1 405.45 534.45 404.65
L 535.45 402.7
Q 536.15 401 536.65 397.3
L 536.8 395.45
Q 536.75 393.75 536.05 392.35 535.95 392.15 535.9 392 535.6 391.4 535.2 391 534.5 390.4 533.75 390.45 533.5 390.55 533.35 390.6 533.05 390.65 532.85 390.75 532.5 390.7 532.2 390.85
L 531.75 390.9
Q 531.3 391 530.2 391.65
L 528.5 392.75
Q 527.85 393.15 527.4 393.6 526.6 394.2 526.3 394.75
L 526.1 395.15 525.85 395.5 Z"/>

<path fill="#EE68C1" stroke="none" d="
M 684.8 289.2
Q 684.65 289.3 684.6 289.4
L 684.9 289.4 684.8 289.2
M 685.1 289.3
L 685.4 289.4
Q 685.2 289.3 685.1 289.05 685.15 289.2 685.1 289.3
M 684.9 289.4
Q 685.05 289.6 685.05 289.7 685.25 289.75 685.35 289.75
L 684.9 289.4
M 685.1 289.3
Q 685.0515625 289.396875 684.9 289.4
L 685.4 289.4 685.1 289.3
M 684.9 289.4
Q 685.0515625 289.396875 685.1 289.3
L 684.9 289.25
Q 684.9 289.3 684.9 289.4
M 685.4 289.8
L 685.4 289.4 684.9 289.4 685.35 289.75 685.4 289.8
M 684.6 289.4
Q 684.2 289.75 684.05 290.4
L 685 290.4 684.9 289.4 684.6 289.4
M 685.15 289.05
L 685.1 289.05
Q 685.2 289.3 685.4 289.4 685.35 289.15 685.15 289.05
M 685.75 288.85
Q 685.4 288.9 685.15 289.05 685.35 289.15 685.4 289.4
L 686.3 289.85 686.45 289.85
Q 686.65 290 686.85 290.15 686.65 290 686.45 289.85
L 686.3 289.85 685.4 289.4 685.4 289.8 685.9 290.25 685.4 289.8 685.35 289.75
Q 685.25 289.75 685.05 289.7 685.05 289.6 684.9 289.4
L 685 290.4 684.05 290.4
Q 683.85 291.55 684.6 292.45 684.6 292.55 684.6 292.75 684.6 293 684.65 293.25 684.75 293.6 684.85 293.95 685.1 294.7 685.35 295.45 685.55 295.85 685.9 296.45 686.65 297.75 686.75 298.6
L 686.9 299.7
Q 686.95 300.2 687.25 301.2 687.45 301.95 687.55 302.75 687.8 303.85 687.9 304.05 687.95 304.15 688 304.2 688 304.55 688.15 305.1 688.2 305.25 688.35 305.65
L 688.4 305.7
Q 688.55 305.9 688.6 306.3 688.7 306.45 688.75 306.65 689.15 307.55 689.3 308.2 689.45 308.75 689.6 309.9 690 311.3 690 311.55
L 690.05 312.4
Q 690.25 312.85 690.35 313.65
L 690.55 314.9
Q 690.85 315.85 690.95 316.25 691.05 316.95 691 318.3 691 318.35 691 318.45 691 318.95 691.2 319.7 691.2 319.8 691.2 319.85 691.6 322.25 691.95 323.4 692.1 324 692.35 324.4 692.35 324.55 692.35 324.75
L 692.75 327.65
Q 693.1 328.25 693.1 329.4
L 693.1 330.5
Q 693.15 331.3 693.2 332.25 693.2 333.3 693.25 333.8 693.35 333.95 693.45 334.1 693.65 334.55 693.75 335.6 694.3 342.25 694.45 347.05
L 694.6 348.9
Q 694.7 349.85 694.9 350.3 695 350.45 695.1 350.6 695 351.1 695 351.75
L 695.15 356.05
Q 695.3 360.5 695.6 365 695.55 365.05 695.5 365.15 695.3 365.7 695.3 366.85
L 695.45 372.15
Q 695.55 373.5 695.4 374.6
L 695.15 376.2
Q 695.05 376.8 695.05 377.9
L 695 386.45
Q 694.75 386.7 694.65 386.95 694.6 388.2 694.55 389.1 694.55 389.4 694.5 389.65 694.6 392.2 694.35 395.9 694.3 396.9 694.25 397.75
L 694.15 405.25
Q 694.55 405.8 695.3 405.95
L 695.3 405.5
Q 695.5 405.3 695.55 405.25 695.5 405.3 695.3 405.5
L 695.3 405.95
Q 695.35 405.95 695.4 405.95 696.5 406.1 697.3 405.15 697.35 405.05 697.4 405 697.95 404.95 698.7 404.65 699.55 404.3 700.05 404 700.45 403.6 700.7 403.45
L 705.25 401.9
Q 707.05 401.25 708.2 401.35 708.75 401.4 709.8 401.5 710.25 401.45 710.65 401.25
L 710.6 401.2 709.7 401.2 710.6 401.2 710.65 401.25
Q 710.8 401.15 710.9 401.05 711.35 400.65 711.5 400.05 711.5 398.8 711.7 397.6 711.7 397.45 711.7 397.35
L 711.9 395.15
Q 712 392.75 712.2 391.55 712.35 390.75 712.45 390.25 712.5 389.85 712.5 389.6 712.45 389.5 712.45 389.4 712.35 388.9 712.1 388.55 712.2 387.9 712.35 387.25 712.65 386.05 712.7 385.4 712.8 384.8 712.8 383.55 712.8 382.05 713.05 379 713.25 375.95 713.25 374.4 713.25 373.5 713.1 373.05 713.05 372.95 713 372.9 713.05 372.65 713.05 372.4 713 369.95 713.15 368.75
L 713.4 366.75 713.6 352.3
Q 713.6 351.3 713.45 350.85 713.35 350.6 713.2 350.35 713.3 347.2 713.4 344.4 713.4 343.4 713.5 342.95
L 713.65 341.45
Q 713.6 340.95 713.4 340.6 713.4 340.2 713.4 339.75 713.4 336.1 713.3 334.25 713.2 332.65 712.7 328.65 712.3 325.1 712.25 323.1 712.25 321.65 711.95 321.15 711.8 320.75 711.5 320.5
L 711.35 319.05
Q 711.25 318.25 710.85 316.65
L 710.3 314.6
Q 709.5 311.4 708.7 309.25 708 307.6 707.4 306.45 707.05 305.8 706.8 305.5 706.9 304.8 706.65 304.3
L 705.95 303.45
Q 704.9 302.35 702.55 300.55 700.15 298.65 699.15 297.65
L 698.3 296.85
Q 697.8 296.4 696.8 295.8
L 693.8 293.85
Q 691.6 292.2 691.3 292.05
L 690 291.45
Q 689.55 291.2 689 290.7
L 688.05 289.8
Q 686.8 288.75 685.75 288.85
M 684.85 289.15
Q 684.9 289.15 684.9 289.25
L 685.1 289.3
Q 685.15 289.2 685.1 289.05 684.95 289.1 684.85 289.15
M 684.9 289.25
Q 684.9 289.15 684.85 289.15 684.85 289.2 684.8 289.2
L 684.9 289.4
Q 684.9 289.3 684.9 289.25 Z"/>
</g>

<g id="Layer0_0_FILL">
<path fill="#000000" stroke="none" d="
M 586.15 341.15
Q 585.1 339.8 583.9 339.1 582.4 340.9 581.2 342.85 577.3 349.3 576.8 357.2 578.5 358.5 580.65 358.5 583.9 358.5 586.15 355.5 588.45 352.55 588.45 348.35 588.45 344.15 586.15 341.15
M 533.75 343.75
Q 532.6 342.05 531.2 341.25 525.65 348.8 525.65 358.7 525.65 360.45 525.85 362.1 527 362.7 528.4 362.7 531.55 362.7 533.75 359.45 536 356.2 536 351.6 536 347 533.75 343.75 Z"/>
</g>

<path id="Layer1_0_1_STROKES" stroke="#EE68C1" stroke-width="1" stroke-linejoin="round" stroke-linecap="round" fill="none" d="
M 684.05 290.4
L 684.3 288.8
Q 684.15 288.55 684 288.55
L 683.5 288.55
Q 683.45 288.25 683.35 288.2 683.15 287.9 683.25 287.9
L 683.8 287.9
Q 683.7 287.85 683.55 287.6
M 684.8 289.2
L 684.9 289.4
Q 684.9 289.3 684.9 289.25 684.9 289.15 684.85 289.15 684.85 289.2 684.8 289.2
L 684.3 288.8 684.5 288.85 684.5 288.25 684.5 288.2 684.15 288.2 683.8 287.9 684.4 287.9 684.5 288.2
M 684.5 288.25
L 684.7 288.9 685.1 289 685.15 289.05
M 685.1 289.05
L 685.1 289
M 685.15 289.05
Q 685.35 289.15 685.4 289.4
L 686.3 289.85 686.45 289.85
Q 686.65 290 686.85 290.15
M 685.1 289.05
Q 685.2 289.3 685.4 289.4
L 685.1 289.3
Q 685.0515625 289.396875 684.9 289.4
L 685.4 289.4 685.4 289.8 685.9 290.25
M 684.8 289.2
L 684.7 288.9 684.5 288.85
M 684.9 289.4
L 685.35 289.75 685.4 289.8
M 684.9 289.4
Q 685.05 289.6 685.05 289.7 685.25 289.75 685.35 289.75
M 684.05 290.4
L 685 290.4 684.9 289.4 684.6 289.4
M 684.9 289.25
L 685.1 289.3
Q 685.15 289.2 685.1 289.05
M 695.3 405.95
L 695.3 405.5
Q 695.5 405.3 695.55 405.25
M 709.7 401.2
L 710.6 401.2 710.65 401.25
M 695.3 405.95
L 695 406.45
Q 694.95 406.6 694.7 406.4
L 694.7 405.75
Q 694.65 406 694.6 406.05
L 694.55 406.05 694.45 406.25 694.45 406.75 693.95 407.3
M 710.65 401.25
L 711.55 401.5
Q 711.35 401.5 711.2 401.5
L 710.65 401.25 Z
M 694.1 406.45
L 694.45 406.25 694.45 406.05 694.55 406.05 694.7 405.75"/>

<path id="Layer1_0_2_STROKES" stroke="#78402C" stroke-width="1" stroke-linejoin="round" stroke-linecap="round" fill="none" d="
M 710.2 310.35
L 709.6 309.25 709.6 308.7 710.35 309.6
M 710.3 309
L 709.3 307.35 709.5 307.8 709.5 308.25 708.65 307.6 708.65 307.15 708.3 305.8 708.25 305.7 708.25 305.1 709.3 307.35 708.3 305.8
M 743.35 454.25
L 743.35 455.2 742.95 455.2 742.95 456.7 742.8 455.55 742.65 455.55 742.65 456.2 742 456.2 741.3 455.2
M 710.45 308.4
L 709.55 307.05
Q 709.6 307.2 709.7 307.4
L 710.2 308.4 710.35 308.7
M 710.3 309
L 710.2 308.4 710.35 308.75
M 722.25 443.3
L 722.25 443.35
Q 722.2 443.4 722.25 443.5
M 722.5 444.45
L 722.5 444.15
Q 722.65 444.4 722.7 444.6 722.75 444.7 722.75 444.8
M 743.35 454.25
L 742.95 454.75
M 742.65 455
L 742.65 454.7 742.65 454.05 742.3 454.05 742 455.2
M 742.7 454.95
L 742.65 454.7 742.8 454.9 742.8 454.35 742.9 454.85
M 742.95 454.75
L 742.95 455.2 742.8 454.95 742.8 455.55 742.7 454.95
M 742.9 454.85
L 742.95 455.2
M 741.3 454.8
L 741.3 455.2
M 742 455.2
L 741.9 455.55 742.65 455.55 742.65 455
M 742.8 454.95
L 742.8 454.9
M 684.05 422.95
L 683.55 423.45 683.45 423.95 683.45 424.7
M 722.25 443.35
L 721.55 444 721.9 443.7 721.9 444.4 722.35 444.2
Q 722.1 444 722.25 443.9
L 722.2 443.6 722.25 443.5
M 721.9 444.4
L 721.9 444.45 722.5 444.45
M 721.05 444.7
L 721.9 444.4
M 682.5 423.15
Q 682.55 423.15 682.6 423.2
L 682.675 423.225
M 683.15 423.2
L 683.15 422.75 683.4 423.2 683.55 422.45 683.55 423.15
M 683.4 423.2
L 683.55 423.45 683.55 423.15
M 683.4 423.2
L 683.25 423.8
Q 683.4 424 683.4 424.15
L 683.45 423.95
M 683.15 423.2
L 683.15 423.8 683.35 424.25 683.4 424.15
M 683.25 423.8
L 683.2 423.2 683.15 422.75
M 683.35 424.25
L 683.15 424.45 683.15 423.8 682.9 423.25 682.675 423.225
M 521.75 389.7
L 521.55 390 521.55 389.75
M 521.2 389.75
L 520.9 390.35 520.9 389.65
M 532.7 378.6
L 532.25 378.6
M 521.55 390
L 521.65 389.75
M 532.25 378.6
L 532.2 378.6 531.7 379.1 532.15 378.95
M 532.05 379.15
L 532.45 378.85 532.15 378.95
M 531.7 379.1
L 532.05 379.15"/>

<path id="Layer1_0_3_STROKES" stroke="#6DFEE7" stroke-width="1" stroke-linejoin="round" stroke-linecap="round" fill="none" d="
M 763.9 487
L 764.45 487.5 764.45 487.95 763.4 487.95
M 692.15 487.1
L 692.4 487.05
M 692 487.55
L 691.95 487.65
M 674.55 487.45
L 674.1 487.45 674 487.45 673.5 487.55 672.3 487.8
M 763.9 487
L 763.45 487 763.85 487.2 764.45 487.5
M 692.75 476.35
L 692.85 476.25 693.1 476.15 693.35 475.85 693.75 475.85 693.6 476.1 693.8 476 693.3 476.6
M 674.45 486.4
L 673.5 486.4 673.1 486.7 674.45 486.7
M 674.45 486.85
L 674.15 487 674.45 487.05
M 673.5 487.55
L 673.95 487.45 674 487.45 674.5 487.35
M 674.55 487.35
L 674.1 487.45 674.55 487.4
M 672 487.4
L 674.5 487.2
M 692.9 476.4
L 693.1 476.15 693.75 475.85 693.3 476.25 693.6 476.1 693.3 476.6
M 692.85 476.25
Q 692.8 476.303125 692.8 476.35
M 693.05 476.45
L 693.3 476.25 693 476.4
M 692.5 486
L 692.1 486.15
M 692.4 487.05
L 692.15 487.05
M 692.1 486.2
L 692.5 486
M 692.2 486.9
L 692.3 486.9 692.2 486.95"/>

<path id="Layer1_0_4_STROKES" stroke="#F8CFB6" stroke-width="1" stroke-linejoin="round" stroke-linecap="round" fill="none" d="
M 631.2 334.1
L 630.65 333.8 630.55 333.7 629.3 333 629.6 333 629.6 332.75 629.5 332.55
Q 629.4091796875 332.55 629.35 332.425
L 629.35 332.4 629.2 332.4 626.6 330.95 625.75 330.65
M 581.2 341.2
L 581 341.7 580.8 341.15
M 576.4 336.3
L 577.55 337.3
M 567 329.9
L 565.65 329.9
Q 565.9625 329.890625 566.15 329.75
L 565.85 329.45 563.95 329.15 564.35 329.15
Q 564.35 329.05 564.25 328.85
L 564.55 328.6 564.35 328.55 564.8 328.4 565.05 328.1 565.4 328.1 564.9 328.45 565.4 328.45 566.075 327.35 566.1 327.3
M 613.55 276.85
L 613.35 278
M 613.9 278.05
L 614.25 277.3 614.25 277
M 614.25 277.3
L 614.25 277.4 614.25 278.15
M 614.1 278.1
L 614.25 277.4 614.2 278.1
M 614.25 278.15
L 614.25 278.85 614.15 278.6 614.05 279.95
M 614.2 278.1
L 614.15 278.6 614.05 278.35 613.9 278.9 613.9 278.05 613.15 278.85 613.35 278
M 613.9 278.05
L 614.05 278.35 614.1 278.1
M 566.1 328.1
L 565.85 328.1
Q 565.75 328.35 565.75 328.4
L 565.75 328.95 566.3 328.8
M 566.05 327.8
Q 566 327.85 566.1 328.1
M 565.75 328.95
L 565.75 329.35 566.7 329.55
M 566.35 328.9
L 566.1 329 566.3 328.85
M 565.75 329.35
L 565.85 329.45 566.7 329.55
M 564.25 328.85
L 564.7 328.7 564.7 328.6 564.55 328.6 564.8 328.4 565.4 328.1
M 564.7 328.6
L 564.9 328.45
M 565.4 328.45
L 564.7 328.85
Q 564.85 329.1 564.9 329.1
L 565.75 328.95
M 564.25 328.85
L 564.7 328.85 564.7 328.7 565.4 328.45
M 641.7 366
L 642.15 365.3 642.3 362.9 642.275 362.825 642.1 362.5 642.1 361.9 642.275 362.825 642.3 362.85 642.3 362.9 642.55 363.3
Q 642.6 363.3 642.85 363.3
L 642.85 363.65 643.15 364.05 643.15 364.25
Q 643.3 364.2 643.35 364.55
L 643.35 364.6 643.65 365.1 643.65 365.5
Q 644 365.6 644.05 365.6 644.2 365.9 644.15 366.05
M 643.35 365.7
L 643.35 366.3
M 626.025 330.6
L 625.6 330.6 625.75 330.65
M 626.05 330.6
L 626.025 330.6
M 626.85 330.55
L 626.35 329.85 627.6 330.45
M 627.8 330.35
L 627.8 329.5 627.8 328.95 627.8 328.55
M 627.35 330.5
L 627.7 330.5 627.6 330.45
M 627.35 330.5
L 627.8 330.6 627.8 330.55 627.7 330.5 627.8 330.45 627.8 330.35
M 628.25 330.05
L 628.2 330 627.8 329.5 628.15 329.55 627.8 328.95 628.2 329.55 628.6 329.6
M 626.85 330.55
L 627.2 331.1 627.25 331.15 627.8 331.3 627.8 330.6 628.05 330.65 627.8 330.55 627.8 330.45 628.5 330.4 628.25 330.05
M 628.35 329.95
L 628.15 329.55 628.2 329.55 628.4 329.9
M 628.6 329.6
Q 628.7 329.8 628.75 330
L 628.75 329.9
Q 629 330 629.05 330.05
L 629.5 331.6 629.55 331.75 629.6 331.8 630.65 333.4 630.65 333.8
M 626.05 330.6
L 626.6 330.95 627.25 331.15
M 628.5 330.15
L 628.45 330.1 628.75 330.75 628.75 330.7 628.65 330.4 628.5 330.15 628.35 329.9
M 628.35 329.95
L 628.45 330.1 628.25 330.05
M 628.4 329.9
L 628.55 330.15 628.65 330.2 628.65 330.35 628.65 330.4 628.75 330.55 628.75 330
Q 628.8 330.2 628.8 330.45
L 628.9 330.75 629.5 331.6 629.5 331.65 629.55 331.75 629.5 331.7 629.1 331.7 629.6 332.5 630 333 630.2 333 630.65 333.4 630.1 333.2 629.6 333 630.55 333.7
M 628.65 330.35
L 628.55 330.15 628.5 330.15
M 628.35 329.9
L 628.15 329.55
M 628.45 330.7
L 628.1 330.65 628.05 330.65 628.45 330.7 628.5 330.4 628.75 330.75 628.45 330.7 629 331.7 629.1 331.7 628.95 331.3 628.8 330.85 628.75 330.75 628.8 330.75 628.75 330.7 628.75 330.55 628.8 330.6
Q 628.8 330.5 628.8 330.45
M 628.8 330.85
L 628.85 330.85 628.8 330.8 628.8 330.85 Z
M 628.9 330.75
L 628.95 330.95 629.35 331.5 628.9 330.75 628.8 330.6
Q 628.7515625 330.6484375 628.75 330.7
M 628.8 330.75
L 628.9 330.75
M 628.75 330.75
L 628.8 330.8 628.8 330.75
M 628.95 331
L 628.85 330.85 628.95 331.1 628.95 331 628.95 330.95 628.85 330.85 628.95 331.3
M 629.5 331.7
L 629.35 331.5 628.95 331
M 629.5 331.7
L 629.5 331.65 629.35 331.5
M 629.5 332.55
L 629.45 332.45
Q 629.3806640625 332.45 629.35 332.425
M 629.5 332.55
Q 629.55 332.55 629.6 332.5 629.5 332.5 629.45 332.45
L 629 331.7 627.8 331.3 629.2 332.4
M 627.8 331.3
L 628.3 331.3 628.45 330.7
M 629.6 333
L 630 333 630.1 333.2
M 629.6 332.75
L 629.6 332.5
M 628.95 331.1
L 629.1 331.7
M 567.15 330.1
L 568.45 330.65
M 577.55 337.3
L 578.85 338.4
M 643.15 364.25
L 643.35 364.6 643.35 365.675 643.35 365.7
M 642.9 365.65
L 642.45 366.4 642.45 365.75
Q 642.4453125 365.8984375 642.15 365.8
M 641.7 366
L 641.7 367.2 642.1 367.5 642.35 367.5
M 642.55 365.7
L 642.55 364.8
Q 642.35 364.95 642.35 365 642.25 365.15 642.15 365.3
L 642.15 365.8
M 642.55 365.7
L 642.6 365.7
Q 642.75 365.65 642.9 365.65
L 643.15 365.25
Q 643.34375 365.44375 643.35 365.675
M 642.55 363.3
L 642.55 364.05 642.55 364.8
M 642.3 362.9
L 642.55 364.05
M 644.15 366.05
L 644.6 366.55
Q 644.55 366.75 644.6 367 644.6 367.15 644.55 367.3
M 567 326.55
L 566.05 327.45"/>

<path id="Layer1_0_5_STROKES" stroke="#99C1B4" stroke-width="1" stroke-linejoin="round" stroke-linecap="round" fill="none" d="
M 549.05 406.85
L 549.3 406.5 549.65 406.5
M 588.375 407.875
L 588.5 407.75 588.7 407.2 588.7 407.65
M 600.95 413.2
L 603.55 414.4 604.05 414.85 600.4 414.85
M 588.2 408
L 588.15 408 588.3 407.925
M 588.2 408
L 589.15 408
Q 589.15 407.7 589.15 407.55
M 600.95 413.25
L 601.4 414.1 601.75 414.1
M 600.95 413.2
L 600.9 413.2 600.95 413.25
M 600.75 414.35
L 601.2 414.4 603.55 414.4
M 600.9 413.2
L 600.45 413
M 600.75 414.35
L 598.4 413.95
M 549.2 407.4
Q 549 407.2 549 406.95
L 548.75 407.2 548.5 407.65 549.2 407.4 549.65 407.2
M 549.05 406.85
L 549 406.95 548.95 406.85 548.75 407.2 548.7 407.25 548.5 407.65
M 550.05 407.7
L 550.05 406.95 549.65 407.2 550.05 406.5 550.05 406.95
M 549.45 407.6
Q 549.4 407.6 549.4 407.55
L 549 408 549.45 407.6 549.5 407.55
Q 549.55 407.4 549.65 407.2
L 549.4 407.55
Q 549.25 407.5 549.2 407.4
M 541 411.35
L 539.6 411.35 538.45 411
Q 538.4 411 538.3 410.65
L 540.75 410.65 540.85 409.95 540.1 409.8
M 549.45 407.6
Q 549.7 407.7 550.05 407.7
L 549.65 407.2
M 549.35 410.15
L 549.35 410.95 544.15 410.7 544.05 410.8 543 410.8 542.75 412.15 542.75 411.6 542.95 410.8 541.6 410.8 541.15 410.5 540.75 410.65 540.8 410.7 541.25 410.85 541.7 411.35 541 411.35
M 544.15 410.7
L 544.4 410.35
Q 544.2 410.2 544.05 410.2
L 543.1 410.2 543.05 410.6 544.15 410.7 Z
M 541.15 410.5
L 543 410.6 543.1 410.2 541.65 410.2 543.1 409.75 541.95 409.75
M 543.05 410.6
L 543 410.8 542.95 410.8 543 410.6 543.05 410.6 Z"/>

<path id="Layer0_0_1_STROKES" stroke="#000000" stroke-width="1" stroke-linejoin="round" stroke-linecap="round" fill="none" d="
M 640.85 333.5
Q 636.1 333.85 630.75 332.75 631.4 334.5 632.1 336.35 632.15 336.4 632.25 336.5 632.35 336.6 632.45 336.7 641.8 346.15 641.8 359.55 658.1 395.05 683.8 425.4 686.35 417.75 688.05 415.25 690.85 411.05 693.8 408.3 694.95 383.25 695.15 371.7 695.4 352.5 693.85 337.25 691.1 310.95 682.4 286.45 678.5 284.35 674.35 282.4 651.25 271.6 621.35 266.75 604.65 264.15 591.95 264.5 576.05 264.95 563.45 269.85 547.45 276.1 535.2 290.15 523.5 303.65 518.2 320.85 513.15 337.15 513.95 355.65 514.7 372.85 520.95 391.75 526.35 385.45 532.9 379.2
M 693.8 408.3
Q 694.05 408 694.35 407.75 698.2 404.25 702.85 402.75 707.35 401.3 711.5 402.15 714.15 372.35 713.6 339.35 713.2 327.3 712 320.3 710.2 310.05 705.9 302.9 705.75 302.75 705.65 302.7 695.45 293.55 682.4 286.45
M 710.6 307
Q 718.65 303.3 722.15 301.85 728.75 299.15 734.2 297.85 742.45 296.1 745.45 300 746.8 301.85 746.55 304.55 746.3 307.05 744.85 309.1 743.55 310.85 741.25 312.45 740.45 313 737.1 315 742.95 315.45 746.35 318.35 748.3 320.05 749.25 322.4 750.25 324.9 749.7 327.25 749 330.05 746.4 331.95 744 333.7 740.95 334.1 738.4 334.55 735.15 334.05 733.45 333.8 729 333 739.9 354.2 743.45 382.7 746.85 410.1 743.6 458.25 743.8 458.4 743.95 458.6 756.15 471.7 765.65 488.6
L 692.1 488.6 669.55 488.15
Q 659.1 493.7 648.9 498.7 626.65 509.65 602.6 515 571.65 521.65 548.2 516.25 534.3 513.15 522.95 505.65 510.85 497.75 503.95 486.35 496.3 474 495.25 458.1 494.25 443.2 499.2 428.5 505.35 409.85 520.95 391.75
M 729 333
Q 724 323.3 717.45 315.1 712.2 308.6 705.9 302.9
M 743.6 458.25
Q 740.35 454.85 737.85 452.7 734.35 449.7 730.85 448 726.95 445.95 722.8 445.4 720.8 445.15 718.85 445.3 716.6 445.4 714.45 446.1 705.65 449.2 699.85 461.35 696.75 467.6 694.85 474.2 692.75 481.2 692.1 488.6
M 718.85 445.3
Q 723.5 442.95 724.95 434 726.95 423.2 724.6 415.5 723.25 410.85 720.1 407.35 716.8 403.6 712.45 402.35 711.95 402.2 711.5 402.15
M 669.55 488.15
Q 682 481.55 694.85 474.2
M 531.2 341.25
Q 532.6 342.05 533.75 343.75 536 347 536 351.6 536 356.2 533.75 359.45 531.55 362.7 528.4 362.7 527 362.7 525.85 362.1 526.85 372.35 534.4 379.9 543.2 388.7 555.65 388.7 555.9 388.7 556.15 388.7 555.3 386.95 554.95 384.85 554.1 379.3 556.95 375.35 558.7 372.9 561.75 371.45 564.7 370.1 567.95 370.1 573.7 370.1 580 374 576.7 367.45 576.7 359.55 576.7 358.35 576.8 357.2 577.3 349.3 581.2 342.85 579.85 340.7 578.1 338.75 577.5 338.1 576.85 337.45 570.6 331.2 562.55 329.45
L 562.5 329.45
Q 556.4 332.95 549.5 334.9 542.2 336.95 534.8 337.1 534.6 337.25 534.4 337.45 532.6 339.25 531.2 341.25 525.65 348.8 525.65 358.7 525.65 360.45 525.85 362.1
M 528.25 336.9
Q 532.7 337.1 534.8 337.1
M 562.5 329.45
Q 562.544140625 329.405859375 562.6 329.4 589.2 304.3 614.7 275.6 620.45 304.8 630.75 332.75 628.35 332.25 625.9 331.45 629.15 333.45 632.1 336.35
M 562.55 329.45
Q 562.55 329.40625 562.6 329.4
M 530.85 391.15
Q 529.95 391.75 527.45 393.85 524.95 395.9 521.85 400.2 518.7 404.5 518.7 410.1 518.7 412.05 519.7 412.85 520.85 413.8 522.95 413.35 525.9 412.8 528.6 410.95 531.2 409.2 533.1 406.6 537.6 400.85 537.1 394.25 536.8 392.1 535.8 391.25 534.75 390.35 533.25 390.45 531.75 390.55 530.85 391.15 Z
M 556.15 388.7
Q 556.9 390.25 558.1 391.5 561.15 394.55 566.6 395.25 568.6 395.5 571.3 395.35 572.1 395.3 575.95 395
M 515.6 343.35
Q 520.9 346.6 526.95 347.35
M 516.7 336.25
Q 522.45 340.7 530.1 341.85
M 601.45 319.25
Q 608.05 323.25 610.65 324.75 613.65 326.45 616.35 327.75 618.65 328.5 621.05 329.45 623.4 330.4 625.9 331.45
M 583.9 339.1
Q 584.95 337.75 586.2 336.5 595.75 327 609.25 327 612.95 327 616.35 327.75
M 583.9 339.1
Q 585.1 339.8 586.15 341.15 588.45 344.15 588.45 348.35 588.45 352.55 586.15 355.5 583.9 358.5 580.65 358.5 578.5 358.5 576.8 357.2
M 581.2 342.85
Q 582.4 340.9 583.9 339.1
M 641.8 359.55
Q 641.8 373.05 632.25 382.55 622.75 392.1 609.25 392.1 595.75 392.1 586.2 382.55 582.85 379.2 580.7 375.35 580.3 374.65 580 374
M 644.85 407.75
Q 644.85 413.9 640.5 418.25 636.15 422.6 630 422.6 623.85 422.6 619.5 418.25 615.15 413.9 615.15 407.75 615.15 401.6 619.5 397.25 623.85 392.9 630 392.9 636.15 392.9 640.5 397.25 644.85 401.6 644.85 407.75 Z
M 587.85 406.85
Q 587.85 410.85 587.7 412.85 587.7 414 588.1 414.5 588.6 415 589.7 415 598.1 415.6 605.95 415.45 587 402.8 565.95 403.35 558.05 403.55 550.7 405.6
L 550.6 410.5
Q 550.6 411.35 550.35 411.75 549.8 412.25 549.1 412.25 546.6 412.6 541.85 412.1
L 536.7 411.55
Q 533.8 413.15 531.05 415.15 535.6 417.75 541.8 419.1 546.25 420.05 553.35 420.6 582.7 423.1 611.9 419.8 609.75 418.05 607.45 416.45 606.7 415.95 605.95 415.45
M 560.95 404.1
Q 560.6 406.75 559.95 410.1 559.7 412.15 560.1 412.85 560.45 413.45 561.15 413.85 561.35 413.95 562.45 414.5 565.7 415.4 570.85 415.6 574.15 415.9 575.6 414.5 576.3 413.7 576.4 412.9 576.45 412.1 576.5 409.4 576.5 406.65 576.6 404.5
M 533.4 476.3
Q 541.05 474.9 546.45 474.3 564.85 472.35 579.2 476 582.85 476.95 588.45 478.85 584.15 471.9 576.95 467.65 569.8 463.45 561.7 463 553.6 462.65 546.05 466.05 538.4 469.5 533.4 476.3 528.3 477.25 522.2 478.6 521.45 478.85 520.85 479 520.2 479.15 519.35 479.4 518.45 479.65 517.15 479.6 515.85 479.5 514.25 478.9 510.2 477.35 507.7 473.75 503.85 467.65 504.95 457.5 507.2 435.6 525.4 419.65 528.15 417.2 531.05 415.15
M 588.45 478.85
Q 592.85 480.35 598.5 482.45 610.05 486.25 618.2 485.75 623.2 485.35 627.35 483.5 631.95 481.4 634.6 477.85 638.6 472.6 638.3 464.75 638.1 458.25 635.1 450.75 627.6 432.35 611.9 419.8
M 550.7 405.6
Q 550.65 405.65 550.55 405.65 543.35 407.7 536.7 411.55
M 640.95 350.75
Q 647.15 352 653.35 350.85
M 638.95 345.25
Q 645.2 345.6 651.85 344.6"/>
</defs>

<g transform="matrix( 1, 0, 0, 1, 0,0) ">
<use xlink:href="#Layer2_0_FILL"/>
</g>

<g transform="matrix( 1, 0, 0, 1, 0,0) ">
<use xlink:href="#Layer1_0_FILL"/>

<use xlink:href="#Layer1_0_1_STROKES"/>

<use xlink:href="#Layer1_0_2_STROKES"/>

<use xlink:href="#Layer1_0_3_STROKES"/>

<use xlink:href="#Layer1_0_4_STROKES"/>

<use xlink:href="#Layer1_0_5_STROKES"/>
</g>

<g transform="matrix( 1, 0, 0, 1, 0,0) ">
<use xlink:href="#Layer0_0_FILL"/>

<use xlink:href="#Layer0_0_1_STROKES"/>
</g>
</svg>
