
<svg xmlns="http://www.w3.org/2000/svg" version="1.1" xmlns:xlink="http://www.w3.org/1999/xlink" preserveAspectRatio="none" x="0px" y="0px" width="1280px" height="720px" viewBox="0 0 1280 720">
<defs>
<g id="Layer2_0_FILL">
<path fill="#FFFFFF" stroke="none" d="
M 1280 720
L 1280 0 0 0 0 720 1280 720 Z"/>
</g>

<g id="Layer0_0_FILL">
<path fill="#000000" stroke="none" d="
M 586.15 341.15
Q 585.1 339.8 583.9 339.1 582.4 340.9 581.2 342.85 577.3 349.3 576.8 357.2 578.5 358.5 580.65 358.5 583.9 358.5 586.15 355.5 588.45 352.55 588.45 348.35 588.45 344.15 586.15 341.15
M 533.75 343.75
Q 532.6 342.05 531.2 341.25 525.65 348.8 525.65 358.7 525.65 360.45 525.85 362.1 527 362.7 528.4 362.7 531.55 362.7 533.75 359.45 536 356.2 536 351.6 536 347 533.75 343.75 Z"/>
</g>

<path id="Layer0_0_1_STROKES" stroke="#000000" stroke-width="1" stroke-linejoin="round" stroke-linecap="round" fill="none" d="
M 640.85 333.5
Q 636.1 333.85 630.75 332.75 631.4 334.5 632.1 336.35 632.15 336.4 632.25 336.5 632.35 336.6 632.45 336.7 641.8 346.15 641.8 359.55 658.1 395.05 683.8 425.4 686.35 417.75 688.05 415.25 690.85 411.05 693.8 408.3 694.95 383.25 695.15 371.7 695.4 352.5 693.85 337.25 691.1 310.95 682.4 286.45 678.5 284.35 674.35 282.4 651.25 271.6 621.35 266.75 604.65 264.15 591.95 264.5 576.05 264.95 563.45 269.85 547.45 276.1 535.2 290.15 523.5 303.65 518.2 320.85 513.15 337.15 513.95 355.65 514.7 372.85 520.95 391.75 526.35 385.45 532.9 379.2
M 693.8 408.3
Q 694.05 408 694.35 407.75 698.2 404.25 702.85 402.75 707.35 401.3 711.5 402.15 714.15 372.35 713.6 339.35 713.2 327.3 712 320.3 710.2 310.05 705.9 302.9 705.75 302.75 705.65 302.7 695.45 293.55 682.4 286.45
M 710.6 307
Q 718.65 303.3 722.15 301.85 728.75 299.15 734.2 297.85 742.45 296.1 745.45 300 746.8 301.85 746.55 304.55 746.3 307.05 744.85 309.1 743.55 310.85 741.25 312.45 740.45 313 737.1 315 742.95 315.45 746.35 318.35 748.3 320.05 749.25 322.4 750.25 324.9 749.7 327.25 749 330.05 746.4 331.95 744 333.7 740.95 334.1 738.4 334.55 735.15 334.05 733.45 333.8 729 333 739.9 354.2 743.45 382.7 746.85 410.1 743.6 458.25 743.8 458.4 743.95 458.6 756.15 471.7 765.65 488.6
L 692.1 488.6 669.55 488.15
Q 659.1 493.7 648.9 498.7 626.65 509.65 602.6 515 571.65 521.65 548.2 516.25 534.3 513.15 522.95 505.65 510.85 497.75 503.95 486.35 496.3 474 495.25 458.1 494.25 443.2 499.2 428.5 505.35 409.85 520.95 391.75
M 729 333
Q 724 323.3 717.45 315.1 712.2 308.6 705.9 302.9
M 743.6 458.25
Q 740.35 454.85 737.85 452.7 734.35 449.7 730.85 448 726.95 445.95 722.8 445.4 720.8 445.15 718.85 445.3 716.6 445.4 714.45 446.1 705.65 449.2 699.85 461.35 696.75 467.6 694.85 474.2 692.75 481.2 692.1 488.6
M 718.85 445.3
Q 723.5 442.95 724.95 434 726.95 423.2 724.6 415.5 723.25 410.85 720.1 407.35 716.8 403.6 712.45 402.35 711.95 402.2 711.5 402.15
M 669.55 488.15
Q 682 481.55 694.85 474.2
M 531.2 341.25
Q 532.6 342.05 533.75 343.75 536 347 536 351.6 536 356.2 533.75 359.45 531.55 362.7 528.4 362.7 527 362.7 525.85 362.1 526.85 372.35 534.4 379.9 543.2 388.7 555.65 388.7 555.9 388.7 556.15 388.7 555.3 386.95 554.95 384.85 554.1 379.3 556.95 375.35 558.7 372.9 561.75 371.45 564.7 370.1 567.95 370.1 573.7 370.1 580 374 576.7 367.45 576.7 359.55 576.7 358.35 576.8 357.2 577.3 349.3 581.2 342.85 579.85 340.7 578.1 338.75 577.5 338.1 576.85 337.45 570.6 331.2 562.55 329.45
L 562.5 329.45
Q 556.4 332.95 549.5 334.9 542.2 336.95 534.8 337.1 534.6 337.25 534.4 337.45 532.6 339.25 531.2 341.25 525.65 348.8 525.65 358.7 525.65 360.45 525.85 362.1
M 528.25 336.9
Q 532.7 337.1 534.8 337.1
M 562.5 329.45
Q 562.544140625 329.405859375 562.6 329.4 589.2 304.3 614.7 275.6 620.45 304.8 630.75 332.75 628.35 332.25 625.9 331.45 629.15 333.45 632.1 336.35
M 562.55 329.45
Q 562.55 329.40625 562.6 329.4
M 530.85 391.15
Q 529.95 391.75 527.45 393.85 524.95 395.9 521.85 400.2 518.7 404.5 518.7 410.1 518.7 412.05 519.7 412.85 520.85 413.8 522.95 413.35 525.9 412.8 528.6 410.95 531.2 409.2 533.1 406.6 537.6 400.85 537.1 394.25 536.8 392.1 535.8 391.25 534.75 390.35 533.25 390.45 531.75 390.55 530.85 391.15 Z
M 556.15 388.7
Q 556.9 390.25 558.1 391.5 561.15 394.55 566.6 395.25 568.6 395.5 571.3 395.35 572.1 395.3 575.95 395
M 515.6 343.35
Q 520.9 346.6 526.95 347.35
M 516.7 336.25
Q 522.45 340.7 530.1 341.85
M 601.45 319.25
Q 608.05 323.25 610.65 324.75 613.65 326.45 616.35 327.75 618.65 328.5 621.05 329.45 623.4 330.4 625.9 331.45
M 583.9 339.1
Q 584.95 337.75 586.2 336.5 595.75 327 609.25 327 612.95 327 616.35 327.75
M 583.9 339.1
Q 585.1 339.8 586.15 341.15 588.45 344.15 588.45 348.35 588.45 352.55 586.15 355.5 583.9 358.5 580.65 358.5 578.5 358.5 576.8 357.2
M 581.2 342.85
Q 582.4 340.9 583.9 339.1
M 641.8 359.55
Q 641.8 373.05 632.25 382.55 622.75 392.1 609.25 392.1 595.75 392.1 586.2 382.55 582.85 379.2 580.7 375.35 580.3 374.65 580 374
M 644.85 407.75
Q 644.85 413.9 640.5 418.25 636.15 422.6 630 422.6 623.85 422.6 619.5 418.25 615.15 413.9 615.15 407.75 615.15 401.6 619.5 397.25 623.85 392.9 630 392.9 636.15 392.9 640.5 397.25 644.85 401.6 644.85 407.75 Z
M 587.85 406.85
Q 587.85 410.85 587.7 412.85 587.7 414 588.1 414.5 588.6 415 589.7 415 598.1 415.6 605.95 415.45 587 402.8 565.95 403.35 558.05 403.55 550.7 405.6
L 550.6 410.5
Q 550.6 411.35 550.35 411.75 549.8 412.25 549.1 412.25 546.6 412.6 541.85 412.1
L 536.7 411.55
Q 533.8 413.15 531.05 415.15 535.6 417.75 541.8 419.1 546.25 420.05 553.35 420.6 582.7 423.1 611.9 419.8 609.75 418.05 607.45 416.45 606.7 415.95 605.95 415.45
M 560.95 404.1
Q 560.6 406.75 559.95 410.1 559.7 412.15 560.1 412.85 560.45 413.45 561.15 413.85 561.35 413.95 562.45 414.5 565.7 415.4 570.85 415.6 574.15 415.9 575.6 414.5 576.3 413.7 576.4 412.9 576.45 412.1 576.5 409.4 576.5 406.65 576.6 404.5
M 533.4 476.3
Q 541.05 474.9 546.45 474.3 564.85 472.35 579.2 476 582.85 476.95 588.45 478.85 584.15 471.9 576.95 467.65 569.8 463.45 561.7 463 553.6 462.65 546.05 466.05 538.4 469.5 533.4 476.3 528.3 477.25 522.2 478.6 521.45 478.85 520.85 479 520.2 479.15 519.35 479.4 518.45 479.65 517.15 479.6 515.85 479.5 514.25 478.9 510.2 477.35 507.7 473.75 503.85 467.65 504.95 457.5 507.2 435.6 525.4 419.65 528.15 417.2 531.05 415.15
M 588.45 478.85
Q 592.85 480.35 598.5 482.45 610.05 486.25 618.2 485.75 623.2 485.35 627.35 483.5 631.95 481.4 634.6 477.85 638.6 472.6 638.3 464.75 638.1 458.25 635.1 450.75 627.6 432.35 611.9 419.8
M 550.7 405.6
Q 550.65 405.65 550.55 405.65 543.35 407.7 536.7 411.55
M 640.95 350.75
Q 647.15 352 653.35 350.85
M 638.95 345.25
Q 645.2 345.6 651.85 344.6"/>
</defs>

<g transform="matrix( 1, 0, 0, 1, 0,0) ">
<use xlink:href="#Layer2_0_FILL"/>
</g>

<g transform="matrix( 1, 0, 0, 1, 0,0) ">
<use xlink:href="#Layer0_0_FILL"/>

<use xlink:href="#Layer0_0_1_STROKES"/>
</g>
</svg>
