
<svg xmlns="http://www.w3.org/2000/svg" version="1.1" xmlns:xlink="http://www.w3.org/1999/xlink" preserveAspectRatio="none" x="0px" y="0px" width="1280px" height="720px" viewBox="0 0 1280 720">
<defs>
<g id="Layer1_0_FILL">
<path fill="#FFFFFF" stroke="none" d="
M 1280 720
L 1280 0 0 0 0 720 1280 720 Z"/>
</g>

<g id="Layer0_0_FILL">
<path fill="#000000" stroke="none" d="
M 626.35 194.75
Q 625.65 195.45 625.65 196.4 625.65 197.35 626.35 198.05 627.05 198.75 628 198.75 628.95 198.75 629.65 198.05 630.35 197.35 630.35 196.4 630.35 195.45 629.65 194.75 628.95 194.05 628 194.05 627.05 194.05 626.35 194.75
M 595.2 195.3
Q 595.2 196.35 595.9 197.05 596.65 197.8 597.7 197.8 598.75 197.8 599.45 197.05 600.2 196.35 600.2 195.3 600.2 194.25 599.45 193.5 598.75 192.8 597.7 192.8 596.65 192.8 595.9 193.5 595.2 194.25 595.2 195.3
M 671.45 333.45
Q 671.05 333.05 670.45 333.05 669.85 333.05 669.4 333.45 669 333.9 669 334.5 669 335.1 669.4 335.5 669.85 335.95 670.45 335.95 671.05 335.95 671.45 335.5 671.9 335.1 671.9 334.5 671.9 333.9 671.45 333.45
M 585.2 220.6
Q 585.35 220.45 585.35 220.2 585.35 219.95 585.2 219.8 585.05 219.65 584.8 219.65 584.55 219.65 584.4 219.8 584.25 219.95 584.25 220.2 584.25 220.45 584.4 220.6 584.55 220.75 584.8 220.75 585.05 220.75 585.2 220.6
M 579.55 219.25
Q 579.7 219.1 579.7 218.9 579.7 218.7 579.55 218.55 579.4 218.4 579.2 218.4 579 218.4 578.85 218.55 578.7 218.7 578.7 218.9 578.7 219.1 578.85 219.25 579 219.4 579.2 219.4 579.4 219.4 579.55 219.25
M 582.5 216
Q 582.5 215.75 582.3 215.55 582.15 215.4 581.9 215.4 581.65 215.4 581.45 215.55 581.3 215.75 581.3 216 581.3 216.25 581.45 216.4 581.65 216.6 581.9 216.6 582.15 216.6 582.3 216.4 582.5 216.25 582.5 216
M 642 221.2
Q 642.2 221.4 642.5 221.4 642.8 221.4 643 221.2 643.2 221 643.2 220.7 643.2 220.4 643 220.2 642.8 220 642.5 220 642.2 220 642 220.2 641.8 220.4 641.8 220.7 641.8 221 642 221.2
M 639.15 218.6
Q 639.35 218.45 639.35 218.2 639.35 217.95 639.15 217.75 639 217.6 638.75 217.6 638.5 217.6 638.3 217.75 638.15 217.95 638.15 218.2 638.15 218.45 638.3 218.6 638.5 218.8 638.75 218.8 639 218.8 639.15 218.6
M 644.45 214.9
Q 644.45 214.65 644.3 214.5 644.15 214.35 643.9 214.35 643.65 214.35 643.5 214.5 643.35 214.65 643.35 214.9 643.35 215.15 643.5 215.3 643.65 215.45 643.9 215.45 644.15 215.45 644.3 215.3 644.45 215.15 644.45 214.9 Z"/>
</g>

<path id="Layer0_0_1_STROKES" stroke="#000000" stroke-width="1" stroke-linejoin="round" stroke-linecap="round" fill="none" d="
M 659.5 103.5
Q 671.35 102 682.35 106.5 687.35 108.6 691.15 111.75 695.35 115.25 697.5 119.6 700.7 126.002734375 700.075 135.825 699.4529296875 145.639453125 697.55 154.325 695.8599609375 162.01953125 693.825 172.05 693.5853515625 173.2736328125 693.325 174.525 696.4947265625 172.7833984375 698.6 172 701.6 170.8 704.55 170.75 707.85 170.7 710.35 172.1 712.2 173.3 712.75 174.85 713.15 176.25 712.5 178.35 710.9 182.95 706.25 186.05 702.1 188.85 696.6 189.85 693.92578125 190.4294921875 691.5 190.375 691.15 205.6 693.4 224.25 694.75 235.6 698.5 257.75 700.2462890625 268.253515625 701.8 275.8 703.3599609375 283.3416015625 707.775 290.125 712.19296875 296.901953125 719.7 301.85 727.19609375 306.8111328125 732.05 309.75 724.7 311.4341796875 718.625 311.175 712.55 310.9158203125 706.45 307.2 714.15 319.45 719.6 332.85 723.5 342.55 724.7 350.3 726.25 360.05 723.75 368 722.85 370.55 721.5 370.35 720.3 370.25 719.5 368.25 717.269921875 362.175 716.3 356.05 717.35 372.6 714.7 387.5 711.8 403.95 704 416.85 695.7 430.8 682.1 439.3 667.8 448.3 652.675 448.35
L 657.1 569.9
Q 662.4984375 569.5345703125 667.75 569.575 670.99921875 569.6013671875 672.325 570.35 673.1583984375 570.8265625 673.25 571.575 673.48671875 573.5296875 673.525 575.225 673.558984375 576.921484375 673.65 585.225 673.7412109375 593.5294921875 673.475 604.75 673.20390625 615.9642578125 672.775 619.975 672.6994140625 620.6875 672.6 621.4 672.4955078125 621.9984375 672.375 622.6 672.50859375 630.0552734375 672.525 637.425 672.5400390625 644.8052734375 672.275 645.225 672.00859375 645.640234375 668.4 645.7 664.7947265625 645.7576171875 661.25 645.55 657.70234375 645.3447265625 656.75 645.225 655.7990234375 645.1015625 655.3 644.45 654.75 643.7 654.75 643
M 645.35 76.35
Q 642.9884765625 78.81875 641.225 81.85 646.1537109375 84.1650390625 649.85 87.75 656.2 93.8 658.9 103.5 661.2 111.95 660.6 122.1 660.2552734375 127.9171875 658.6 137.4 661.6138671875 137.9609375 664.75 137.35
M 655.1 135.85
Q 655.5 136.6 657.25 137.1 657.926953125 137.2853515625 658.6 137.4 658.3470703125 138.9330078125 658.05 140.55 655.830078125 152.575 655.2 158 657.6845703125 159.25078125 660.25 160.6 670.2048828125 165.94375 674.625 167.95 675.3337890625 168.265234375 675.9 168.5 685 172.25 693.825 172.05
M 655.2 158
Q 644.57421875 152.7302734375 635.3 149.45 632.43359375 148.4388671875 629.625 147.6 642.9017578125 163.782421875 649.375 180.6 649.487890625 180.198046875 649.6 179.75 650 178 650.1 177.1
M 603.5 165.75
Q 602.5 164.9 601 164 600.55 163.75 600.05 163.8 599.02578125 169.2689453125 597.425 174.65 602.0578125 175.86484375 605.65 179.95 607.4970703125 182.06875 608.675 184.5 609.8982421875 182.5220703125 611.6 180.75 617.65 174.5 626.2 174.5 634.75 174.5 640.8 180.75 643.2662109375 183.31796875 644.725 186.3 647.4 185.25 648.6 182.85 648.9583984375 182.1333984375 649.375 180.6 650.7689453125 184.2048828125 651.85 187.85 653.9501953125 187.7078125 656.1 187.25
M 651.85 187.85
Q 652.7953125 191.0333984375 653.5 194.25 655.6 203.95 656.1 218.9 656.4818359375 230.0470703125 656.7 236.225 656.94765625 242.966015625 657 243.75 658.3 261.7 663.65 279.2 668.95 296.55 677.85 312.5
M 664.5 195
Q 665.1466796875 197.3048828125 665.9 201.1 667.65 197.5 670.1 195.75 672.6 193.95 675.6 193.75 677.7 193.5 679.5 194.5 681.5 195.55 682.85 198.5 686.2 206.05 682.85 216.5 680.95 222 678.6 224.6 675.2 228.7 670.6 228.85
M 693.325 174.525
Q 693.2677734375 174.5625 693.2 174.6 688.95 176.95 687.85 177.5 681.3 180.85 676.05 179.85 676.7841796875 181.228515625 677.75 182.6 681.65 187.65 685.85 189.25 688.4830078125 190.303125 691.5 190.375
M 674.625 167.95
Q 673.2 171.3 674.3 175.5 674.8830078125 177.678515625 676.05 179.85
M 678.95 222.2
Q 678.95 223.7 677.9 224.75 676.85 225.8 675.35 225.8 673.85 225.8 672.8 224.75 671.75 223.7 671.75 222.2 671.75 220.7 672.8 219.65 673.85 218.6 675.35 218.6 676.85 218.6 677.9 219.65 678.95 220.7 678.95 222.2 Z
M 665.9 201.1
Q 666.8849609375 205.9681640625 668.05 213.275 670.1267578125 226.3 670.1 233.5
M 595.6 220.75
Q 593.08046875 217.8841796875 592.15 213.8 585.7677734375 213.3587890625 581.125 208.075 576.994921875 213.808984375 572.125 218.95 572.9525390625 229.5037109375 576.05 238.55 579.5 248.75 585.6 256.35 591.9 263.95 598.5 266.35 604.4841796875 268.762890625 611.825 267.75 612.082421875 267.7162109375 612.35 267.675 616.168359375 267.0994140625 620.35 265.6 626.8390625 263.3181640625 633.15 259.175 644.53984375 251.6771484375 655.35 238.1
L 656.7 236.225
M 639.5 291.85
Q 644.25 288.75 650 287.55 652.109375 287.09140625 654.325 286.875 651.47421875 279.0775390625 647.725 271.5 645.9771484375 271.8962890625 644.7 272.6 642.9107421875 273.5826171875 642.6 274.15
L 642.6 274.025
Q 642.421875 274.738671875 642.15 275.5 641.7 276.8 640 280.35 639.5453125 281.29296875 639.125 282.25
L 639.15 282.25
Q 638.951171875 287.369140625 639.5 291.85 639.8087890625 294.51328125 640.375 297.075 641.909375 304.005859375 649.975 323.55 650.0955078125 323.8615234375 650.225 324.175 654.4763671875 334.46484375 654.35 342.35 659.1 339.2 666 341.25 668.6 342 671.55 343.6 673.5 344.7 676.9 346.875 677.759375 340.155078125 676.575 335.45 675.9923828125 333.1322265625 674.7 328.55 669.3 326.75 663.5 327.15 657.75 327.55 652.85 330.1
M 654.325 286.875
Q 658.1435546875 286.5201171875 662.275 286.9 661.5478515625 284.519140625 660.85 282.25 659.4505859375 277.35625 657.175 274.075 654.9009765625 270.7916015625 650.975 271.05 649.1849609375 271.1673828125 647.725 271.5
M 654.325 286.875
Q 657.25234375 294.9 659.225 303.175 663.5357421875 302.7318359375 667.525 304.3 664.74296875 294.9869140625 662.275 286.9
M 644.6 308.75
Q 646.2 307.45 650.35 305.6 655.65 303.6 658.5 303.25 658.86484375 303.199609375 659.225 303.175 661.932421875 314.483203125 662.85 326.25
M 671.9 334.5
Q 671.9 335.1 671.45 335.5 671.05 335.95 670.45 335.95 669.85 335.95 669.4 335.5 669 335.1 669 334.5 669 333.9 669.4 333.45 669.85 333.05 670.45 333.05 671.05 333.05 671.45 333.45 671.9 333.9 671.9 334.5 Z
M 674.7 328.55
Q 673.0064453125 322.6337890625 670.125 312.95 668.7982421875 308.495703125 667.525 304.3
M 654.35 342.35
Q 654.2302734375 349.5361328125 650.475 354.725 650.3255859375 354.92734375 650.175 355.125 650.41015625 376.7330078125 650.9 398.7 654.8861328125 393.9296875 658.425 388.35 662.39765625 382.0888671875 668.9 369.275 675.3958984375 356.4578125 676.65 348.6 676.79140625 347.7185546875 676.9 346.875
M 649.975 323.55
Q 650.0064453125 339.090625 650.175 354.825 650.3234375 354.7755859375 650.475 354.725
M 650.175 354.825
Q 650.1734375 354.9751953125 650.175 355.125
M 715.85 352.35
Q 716.0232421875 354.198046875 716.3 356.05
M 650.9 398.7
L 652.675 448.35
M 673.1 578.5
Q 664.95 583.15 650.85 582 648.1 581.7 647 582.5 645.4 583.6 645.6 586.6 645.6 588.85 646.75 590 647.85 591 650.75 591 652.7 591.05 656.55 591.25 660 591.4 662.35 591.25 669 590.85 673.35 588
M 657.1 569.9
Q 657.1 571.5 657 572.25 656.75 573.75 656 574.85
M 606.9 452.35
Q 610.6892578125 456.9396484375 617.375 458.475 624.0634765625 460.0126953125 631.05 459.55 630.397265625 515.7689453125 633.375 543.275 636.357421875 570.780859375 636.525 571.55 636.692578125 572.31640625 636.85 572.975 637.0041015625 573.6455078125 637.225 574.2 637.4474609375 574.75 638 574.875 642.6 575.0130859375 651.6 575.25 658.8 575.35 662.6 574.85 668.65 574.05 672.75 571.5
M 659.35 606.55
Q 659.35 608.05 658.25 609.1 657.2 610.2 655.7 610.2 654.2 610.2 653.1 609.1 652.05 608.05 652.05 606.55 652.05 605.05 653.1 603.95 654.2 602.9 655.7 602.9 657.2 602.9 658.25 603.95 659.35 605.05 659.35 606.55 Z
M 638 574.875
Q 634.830859375 574.7908203125 633.75 574.75 632.2 574.6 631.65 574.4 630.6 574.05 630.25 573.25 630.081640625 572.9134765625 630.05 572.575 629.8427734375 572.7134765625 629.6 572.85
L 629.575 578.75 629.525 603.475
Q 632.416015625 600.7955078125 635.25 600 637 599.5 638.7 599.7 640.5 599.9 641.75 600.85 644.15 602.65 644.85 607.35 645 608.6 645.2 611.05 645.45 613.2 646 614.6 651.4 612.95 654.75 613.5 657 613.9 658.6 615.5 660.35 617.2 660.35 619.35 665.65 619.35 672 620
M 639.55 615.25
Q 636.75 614.55 633.35 614.6 631.25 614.6 627.2 615 625.466796875 615.1703125 623.6 615.375 621.7203125 615.5873046875 616.5 616.775 611.2841796875 617.9607421875 606.725 620.275 602.17109375 622.589453125 599.075 625.825 595.970703125 629.068359375 596.825 635.1 597.6896484375 641.12890625 599.6 642.55 601.49921875 643.9833984375 601.925 644.2 604.987109375 645.6751953125 610.1 645.85 621.8 646.7 631.25 646.35 645.4 646.15 654.1 642.75 659.75 640.55 664.05 636.85 668.7 632.8 670.85 627.6 671.851171875 625.1916015625 672.375 622.6
M 638.6 87.5
Q 639.688671875 84.4654296875 641.225 81.85 635.0703125 78.965234375 627 78.05 617.1 76.95 600.5 78.85 592.190234375 79.8927734375 586.575 81.025 584.7986328125 85.8841796875 584.6 91
M 591.5 72.1
Q 588.4 76.05 586.6 80.95 586.5880859375 80.9826171875 586.575 81.025 583.3056640625 81.669140625 580.95 82.35 578.3986328125 83.06875 576.1 83.95 575.989453125 86.6740234375 576.35 91
M 579.35 73.85
Q 576.85 77.1 576.25 82.1 576.1384765625 82.908984375 576.1 83.95 568.7908203125 86.7873046875 564 91.35 557.7 97.2 554.35 106.85 553.794921875 108.4521484375 553.325 110.2 555.4287109375 111.1341796875 557.6 111.85
M 546.35 105.25
Q 546.75 106.35 548.75 107.85 550.998046875 109.15703125 553.325 110.2 551.5009765625 116.7515625 550.75 125.25 549.85 135.2 551.15 142.3 552.7220703125 151.289453125 557.825 156.9 557.8736328125 156.9443359375 557.925 157 568.0341796875 148.927734375 581.7 145.45 591.4533203125 142.97421875 601.85 143.125 605.3162109375 143.162890625 608.85 143.5 618.9025390625 144.370703125 629.625 147.6
M 557.925 157
L 557.95 157
Q 551.12890625 171.318359375 549.275 188.075 547.416015625 204.8396484375 548.35 221.425 549.29453125 238.0025390625 551.75 262.45 555.2669921875 284.030078125 553.1 295.175 550.9330078125 306.319921875 547.75 320.75 546.05 333.45 548.65 344.7 554.95 332.95 558.6 326.95 554.9599609375 354.111328125 554.825 372.75 554.6953125 391.3947265625 556.85 400.75 559.0076171875 410.1056640625 562.9 418.95 566.79296875 427.7951171875 574.425 434.45 582.05234375 441.1025390625 591.25 443.1
L 593.95 443.7
Q 594.042578125 440.5099609375 594.15 437.325 594.917578125 414.9775390625 596.5 393 594.75 390.65 593.1 387.45 592.1 385.5 590.35 381.5 578.9359375 354.4818359375 577.825 332.75 577.7775390625 331.922265625 577.75 331.1 577.273828125 320.3849609375 579.25 310.325 579.769140625 307.718359375 580.45 305.15 582.815234375 296.066015625 587.05 288.375 589.0076171875 284.8384765625 591.35 281.6 597.9 272.8 604.9 274.05 607.6640625 271.577734375 611.825 267.75
M 600.2 195.3
Q 600.2 196.35 599.45 197.05 598.75 197.8 597.7 197.8 596.65 197.8 595.9 197.05 595.2 196.35 595.2 195.3 595.2 194.25 595.9 193.5 596.65 192.8 597.7 192.8 598.75 192.8 599.45 193.5 600.2 194.25 600.2 195.3 Z
M 592.15 213.8
Q 591.6 211.4130859375 591.6 208.6 591.6 205.45 593 204.5 594.6 203.45 597.75 205 601.389453125 206.941015625 604.375 209.35 605.0279296875 208.7134765625 605.65 208 606.756640625 206.7416015625 607.625 205.375 605.55 201.08046875 605.55 195.9 605.55 191.1767578125 607.275 187.175 607.8705078125 185.797265625 608.675 184.5
M 597.425 174.65
Q 595.9841796875 179.5005859375 594.075 184.275 597.5 183.8 600.85 184.5 604.15 185.25 606.85 187.1
M 594.075 184.275
Q 593.6740234375 185.2921875 593.25 186.3 588.3189453125 198.084765625 581.125 208.075
M 613.6 167.1
Q 618.95 163.2 623.25 162.6 630.1 161.6 638 167
M 630.35 196.4
Q 630.35 197.35 629.65 198.05 628.95 198.75 628 198.75 627.05 198.75 626.35 198.05 625.65 197.35 625.65 196.4 625.65 195.45 626.35 194.75 627.05 194.05 628 194.05 628.95 194.05 629.65 194.75 630.35 195.45 630.35 196.4 Z
M 644.725 186.3
Q 646.85 190.657421875 646.85 195.9 646.85 204.75 640.8 211 634.75 217.3 626.2 217.3 617.65 217.3 611.6 211 609.0916015625 208.40859375 607.625 205.375
M 607.275 187.175
Q 616.195703125 183.700390625 626.05 183.75 636 183.85 644.85 187.6
M 601.85 143.125
Q 601.957421875 153.604296875 600.05 163.8
M 644.45 214.9
Q 644.45 215.15 644.3 215.3 644.15 215.45 643.9 215.45 643.65 215.45 643.5 215.3 643.35 215.15 643.35 214.9 643.35 214.65 643.5 214.5 643.65 214.35 643.9 214.35 644.15 214.35 644.3 214.5 644.45 214.65 644.45 214.9 Z
M 639.35 218.2
Q 639.35 218.45 639.15 218.6 639 218.8 638.75 218.8 638.5 218.8 638.3 218.6 638.15 218.45 638.15 218.2 638.15 217.95 638.3 217.75 638.5 217.6 638.75 217.6 639 217.6 639.15 217.75 639.35 217.95 639.35 218.2 Z
M 643.2 220.7
Q 643.2 221 643 221.2 642.8 221.4 642.5 221.4 642.2 221.4 642 221.2 641.8 221 641.8 220.7 641.8 220.4 642 220.2 642.2 220 642.5 220 642.8 220 643 220.2 643.2 220.4 643.2 220.7 Z
M 603.25 230
Q 610.05 231 616.9 229.4 623.7 227.8 629.35 223.85
M 605.75 210.5
Q 605.0806640625 209.9072265625 604.375 209.35
M 582.5 216
Q 582.5 216.25 582.3 216.4 582.15 216.6 581.9 216.6 581.65 216.6 581.45 216.4 581.3 216.25 581.3 216 581.3 215.75 581.45 215.55 581.65 215.4 581.9 215.4 582.15 215.4 582.3 215.55 582.5 215.75 582.5 216 Z
M 585.35 220.2
Q 585.35 220.45 585.2 220.6 585.05 220.75 584.8 220.75 584.55 220.75 584.4 220.6 584.25 220.45 584.25 220.2 584.25 219.95 584.4 219.8 584.55 219.65 584.8 219.65 585.05 219.65 585.2 219.8 585.35 219.95 585.35 220.2 Z
M 572.125 218.95
Q 570.2443359375 220.9482421875 568.25 222.85
M 604.9 274.05
Q 603.817578125 275.0392578125 602.95 275.85 598.15 280.4 594.85 284.6 592.790234375 287.312890625 591.225 290.025 586.5119140625 298.1505859375 585.65 306.15
L 590.4 306.15
Q 594.1166015625 306.5013671875 599.575 305.725 605.033984375 304.9474609375 605.9 304.575 606.1294921875 304.5283203125 606.35 304.475 605.1576171875 302.5189453125 604.6 300.35 603.6 295.8 605.5 288.5 606.6 284.15 607.95 281.3 609.7 277.5 612.35 275.1
L 612.35 267.675
M 587.05 288.375
Q 587.4404296875 288.4181640625 588.35 288.6 589.5 288.9 590.75 289.75 590.85 289.75 591 289.85 591.069921875 289.9548828125 591.225 290.025
M 633.15 259.175
L 633.15 261.5
Q 637.2 263.45 639.2 265.05 642.15 267.5 642.75 270.5 643.0314453125 272.04765625 642.6 274.15
M 612.35 275.1
L 612.35 279.8
M 605.35 290.25
Q 606.7 292.6 610.35 293.5 613.55 294.5 616.25 294.85
M 633.15 261.5
L 633.25 274.1
Q 634.1650390625 273.1671875 635.1 272.25
M 606.35 304.475
Q 607.2416015625 304.2671875 607.975 303.975 611.00078125 302.7556640625 613.15 300.15 613.7 299.45 616.6 295.25 623.8033203125 283.761328125 633.25 274.1
M 639.15 282.25
Q 634.47265625 296.3705078125 634.2 304.725 633.9189453125 313.08828125 632.85 313.65 631.7884765625 314.2095703125 625.975 313.8 620.153515625 313.394140625 615.325 311.5 610.499609375 309.6015625 608.05 306.8 607.080078125 305.678125 606.35 304.475
M 649.25 322.5
Q 644.75 326.4 637.35 327.9 632.5 328.85 623.85 329 612.15 329.25 605.15 328.3 604.3779296875 328.19453125 603.625 328.075 604.040625 331.6177734375 605.1 334.1 606.2953125 336.854296875 608.9 338.775 611.515625 340.6923828125 613.2 341.175 614.8775390625 341.6603515625 614.825 358.5 614.8232421875 359.1076171875 614.825 359.725 619.4201171875 359.9794921875 624.1 359.75 637.0609375 359.15859375 650.175 354.825
M 624 340.1
Q 628.2 339.45 631.85 337.3 635.6 335.05 638 331.6
M 590.4 306.15
Q 588.67265625 312.570703125 588.1 316.15 587.5470703125 319.6337890625 587.55 322.6 594.346484375 326.576171875 603.625 328.075 603.35 325.762109375 603.35 323 603.726953125 314.28125 605.9 304.575
M 587.55 322.6
Q 587.55703125 324.9935546875 587.925 327.05 588.748828125 331.6658203125 593.125 336.175 594.695703125 337.797265625 595.8 339.575 597.7671875 342.7232421875 598.575 347.4 599.050390625 350.158203125 598.825 357.25 606.698046875 359.2513671875 614.825 359.725 614.7419921875 375.5572265625 613.825 392.1 618.4927734375 392.9541015625 623.35 393.25 637.2 394.1 650.35 390.25
M 579.6 345.1
Q 586.15 342.95 595.8 339.575
M 577.825 332.75
Q 583.2 329.9 588 328.5
M 579.25 310.325
Q 584.05 309.1 589 310.25
M 594.15 437.325
Q 598.2158203125 436.6951171875 601.75 433.75 605.046875 430.953125 608.05 426.125 611.0646484375 421.29296875 612.15 415.875 612.635546875 413.41953125 612.85 411.85 612.78515625 410.627734375 613.775 392.975 613.799609375 392.5404296875 613.825 392.1 605.082421875 390.5197265625 596.95 387 596.68359375 390.648046875 596.5 393
M 598.825 357.25
Q 598.6841796875 362.17890625 598.2 369.2 597.43671875 380.290234375 596.95 387
M 612.85 411.85
Q 612.7701171875 415.329296875 613.4 417.75 614.9 423.3 617 427.5 619.35 432.5 622.85 436.2 626.65 440.25 631.25 442.1 639.75 445.7 651.25 442.35
M 629.6 572.85
Q 627.55 573.85 623.85 573.85 620.4501953125 573.91875 617.6 573.95 610.09609375 574.0587890625 606.4 573.95 601.944140625 573.8357421875 597.95 573.45 593.285546875 572.974609375 589.25 572.125 588.853125 596.2048828125 589.25 609.5 589.45 612.1 588.6 613.35 588.359375 613.726171875 587.975 613.975 593.5990234375 613.3677734375 598.5 614.25
M 589.25 572.125
Q 589.246875 571.940625 589.25 571.75 589.1 571.05 589.7 570.5 590.2 570.1 591 569.85 594.4 569.3 597.35 569.5
M 629.575 578.75
Q 625.45 580.6 620 581 616.35 581.25 610.1 580.85 607.85 580.85 606.85 581.5 605.35 582.5 605.35 585.75 605.15 587.9 606 588.85 606.35 589.3 607.6 589.85 608.65 590.25 610.05 590.5 610.9 590.65 612.6 590.85 621.25 591.45 629.25 588.5
M 615.25 458.6
Q 612.96171875 513.3490234375 617.2 568.525 617.2119140625 568.6888671875 617.225 568.85 622.3197265625 568.5029296875 628.1 568.75 630.9265625 568.75 631.25 570.325 631.5201171875 570.13203125 631.85 570 633.25 569.5 636 570
M 631.25 570.325
L 631.25 570.35
Q 631.316796875 570.699609375 630.925 571.425 630.5263671875 572.159375 630.05 572.575
M 617.225 568.85
Q 617.367578125 570.7935546875 617.6 573.95
M 593.95 443.7
Q 592.18828125 505.741796875 597.95 573.45
M 629.525 603.475
L 629.525 607.05
Q 629.5466796875 607.9158203125 629.55 608.725 629.5623046875 610.1373046875 629.525 611.4 629.4515625 613.89921875 628.55 614.425 628.146484375 614.658984375 627.825 614.8 627.4494140625 614.96953125 627.2 615
M 627.825 614.8
Q 626.874609375 614.764453125 626.15 613.75 625.45 612.75 625.45 611.3 625.45 609.85 626.15 608.8 626.9 607.8 627.9 607.8 628.8662109375 607.8 629.55 608.725
M 589.5 599.1
Q 592.95 596 598 595.8 603 595.55 606.75 598.35 608.9 599.9 609.6 602 610 603.15 609.95 605.9 609.9 608.5 610.5 609.75 614.25 607.75 618.35 609.1 620.25 609.8 621.75 611.2 623.25 612.65 624 614.5
M 587.975 613.975
Q 586.8345703125 614.1802734375 586.05 614.3 585.2623046875 614.4283203125 579.55 615.375 573.84296875 616.325 566.825 619.4 559.7970703125 622.462109375 558.6 624.9 557.4056640625 627.348046875 556.85 629.8 556.300390625 632.2513671875 556.925 636.15 557.54609375 640.0490234375 559.55 641.6 561.5517578125 643.1501953125 564.55 643.5 583.1435546875 646.748828125 601.925 644.2
M 645.6 187.5
Q 648.66953125 188.0416015625 651.85 187.85"/>

<path id="Layer0_0_2_STROKES" stroke="#000000" stroke-width="0.9" stroke-linejoin="round" stroke-linecap="round" fill="none" d="
M 579.7 218.9
Q 579.7 219.1 579.55 219.25 579.4 219.4 579.2 219.4 579 219.4 578.85 219.25 578.7 219.1 578.7 218.9 578.7 218.7 578.85 218.55 579 218.4 579.2 218.4 579.4 218.4 579.55 218.55 579.7 218.7 579.7 218.9 Z"/>
</defs>

<g transform="matrix( 1, 0, 0, 1, 0,0) ">
<use xlink:href="#Layer1_0_FILL"/>
</g>

<g transform="matrix( 1, 0, 0, 1, 0,0) ">
<use xlink:href="#Layer0_0_FILL"/>

<use xlink:href="#Layer0_0_1_STROKES"/>

<use xlink:href="#Layer0_0_2_STROKES"/>
</g>
</svg>
