
<svg xmlns="http://www.w3.org/2000/svg" version="1.1" xmlns:xlink="http://www.w3.org/1999/xlink" preserveAspectRatio="none" x="0px" y="0px" width="1280px" height="720px" viewBox="0 0 1280 720">
<defs>
<g id="Layer1_0_FILL">
<path fill="#FFFFFF" stroke="none" d="
M 1280 720
L 1280 0 0 0 0 720 1280 720 Z"/>
</g>

<g id="Layer0_0_FILL">
<path fill="#000000" stroke="none" d="
M 615.05 186.6
Q 613.75 185.1 611.9 185.1 610.05 185.1 608.7 186.6 607.4 188.1 607.4 190.25 607.4 192.4 608.7 193.9 610.05 195.4 611.9 195.4 613.75 195.4 615.05 193.9 616.4 192.4 616.4 190.25 616.4 188.1 615.05 186.6
M 659.05 184.9
Q 660.4 186.55 662.35 186.55 664.3 186.55 665.65 184.9 667 183.25 667 180.95 667 178.65 665.65 177 664.3 175.35 662.35 175.35 660.4 175.35 659.05 177 657.7 178.65 657.7 180.95 657.7 183.25 659.05 184.9 Z"/>
</g>

<path id="Layer0_0_1_STROKES" stroke="#000000" stroke-width="1" stroke-linejoin="round" stroke-linecap="round" fill="none" d="
M 547.85 175.6
Q 552.4 178.7 555.5 179.85 555.831640625 179.96640625 556.175 180.075 556.137109375 179.9619140625 556.1 179.85 549.5 160 548.25 143.35 546.85 123.6 553.1 106.2 559.85 87.2 574.1 76.25 584.1 68.65 598.35 64.85 610 61.7 625.25 61 650.1802734375 59.7796875 670.825 66.125 674.84453125 58.3642578125 686.1 54.1 692 51.95 697.4 51.95 703.65 51.95 708.25 54.85 710.6 56.45 710.6 58.25 710.8 60.15 708.1 61.75 705.748828125 63.2375 701.65 64 706.95 63.95 711.75 64.1 713.75 64.1 715.25 64.75 717.85 65.95 718.25 69 718.4 71.8 716.35 73.85 715 75.05 712.85 75.75 705.7 78.5 694.275 76.95 707.5939453125 85.8560546875 714.75 99.25 717.6 104.4 719.9 111.4 721.2 115.45 723.5 124.1 747.2 213.9 767.75 303.75
L 769.325 310.625
Q 773.144921875 315.0251953125 777.85 320.6 780.2 323.15 779.6 325 778.9 327.15 774.75 327.35 761.9 328 751.55 326.9 739.2 325.65 729.1 321.85 717.75 317.75 709.05 310.3 701.087109375 303.5654296875 696.7 295.175 697.4912109375 298.45 698.5 303.1 703.559375 327.515625 710.15 351.45 728.2361328125 417.1234375 757.85 479.1 759.4 482.35 759.85 484.6 760.4 487.8 759 490 757.937109375 491.4576171875 755.725 492.475 757.3044921875 492.4982421875 759.35 493.5 762.85 494.6 764.6 496.25 765.35 496.9 765.25 497.5 765.25 497.7 764.6 498.35 762.7 499.45 758.675 498.85 759.228125 499.258984375 759.6 499.8 760.25 500.75 760 501.6 759.8 502.7 758.5 503 757.45 503.35 756.25 503.1 752.3 502.7 747.6 500.85 744.8 499.8 739.35 497.075 735.9638671875 497.90390625 732.55 498.675 729.0818359375 499.4546875 726.1 499.925 724.2 503.2 721.35 505.6 719.95 506.8 718.85 507.25 718.15 507.6 717.1 507.6 716.35 507.6 716 507.35 715.8359375 507.303125 715.625 507.125 702.314453125 514.6634765625 688 519.95 684.85 523.05 683.7 524.25 681.5 526.55 679.35 527.85 676.95 529.4 674.15 529.9 671.15 530.4 668.6 529.5 653.25 536.05 639.35 549.15 635.5 552.8 616.1 573.6 601.15 589.9 580.9 608.95 569.3 619.85 544 642.6
L 500.85 681.25
M 694.275 76.95
Q 686.5728515625 71.798828125 676.8 68.15 673.8552734375 67.0529296875 670.825 66.125
M 701.65 64
Q 701.4755859375 64.0197265625 701.3 64.05 694.5 65.25 694.1 65.35
M 677.35 147.25
Q 675.5 151.9 671.85 155.6 668.2 159.25 663.425 161.325 664.0248046875 161.9154296875 664.575 162.525 668.65 162.9 675.25 160.75 677.6 159.8 678.55 159.35 680.3 158.45 681.35 157.35
M 567.85 186.1
Q 562.8421875 186.339453125 558.1 185.5 562.3068359375 197.0076171875 570.75 216.8 572.69296875 210.148046875 577.55 205.55 576.88671875 205.0205078125 576.25 204.45 568.55 197.55 568.55 187.75 568.55 177.95 576.25 171.05 583.95 164.15 594.8 164.15 605.65 164.15 613.35 171.05 614.4345703125 172.021875 615.375 173.05 616.78671875 165.7287109375 623.05 160.2 631.2 153.05 642.65 153.05 654.1 153.05 662.2 160.2 662.834765625 160.75703125 663.425 161.325
M 666.8 145.05
Q 664.4400390625 148.0662109375 660.775 150.15 657.1123046875 152.230078125 651.7 152.9 646.2875 153.565234375 638.25 150.85 633.09765625 149.37109375 625.725 145.25 625.5451171875 145.501171875 625.375 145.75 617.7896484375 156.8111328125 609.35 167.35
M 667 180.95
Q 667 183.25 665.65 184.9 664.3 186.55 662.35 186.55 660.4 186.55 659.05 184.9 657.7 183.25 657.7 180.95 657.7 178.65 659.05 177 660.4 175.35 662.35 175.35 664.3 175.35 665.65 177 667 178.65 667 180.95 Z
M 664.575 162.525
Q 670.35 168.9513671875 670.35 177.5 670.35 187.65 662.2 194.8 654.1 201.95 642.65 201.95 631.2 201.95 623.05 194.8 621.7107421875 193.6177734375 620.6 192.35 619.633203125 197.015234375 616.65 200.925 619.327734375 201.458203125 621.75 202.75
M 570.75 216.8
Q 570.0755859375 219.1453125 569.75 221.75 568.6 231.2 572.5 240 575.8123046875 247.296875 582.225 253.75 588.66328125 260.228515625 598.25 265.85 615.35 275.75 629.85 275.75 640.519921875 275.75 651.425 270.825 659.6541015625 267.127734375 668.025 260.625 668.209765625 260.47421875 668.4 260.325 669.0724609375 259.7994140625 669.75 259.25 682.2 249.2 691.7 235.7 700.9939453125 222.4087890625 706.5 207.125 703.2208984375 199.825 697.25 187.85 673.1 138.85 657.6 87.6 644.2568359375 118.028125 625.725 145.25
M 714.85 240.35
Q 714.8 228.1 709.15 213.4 708.1802734375 210.882421875 706.5 207.125
M 656.85 210.5
Q 657.8 213.95 660.35 216.75 660.9111328125 217.355078125 661.5 217.9 663.637109375 219.775 666.25 220.75
M 673.4 265.85
Q 673.6216796875 265.7828125 673.85 265.725 673.7046875 265.6955078125 673.55 265.675 673.4724609375 265.760546875 673.4 265.85 672.2517578125 266.1810546875 671.175 266.7 668.0275390625 268.2322265625 665.5 271.4 662 275.8 661 281.5 660.15 286.35 660.9 292.4 661.4 296.3 663 303.25 667.6 323.5 677 364 678.357421875 369.9087890625 679.675 375.6
L 679.7 375.65
Q 695.4712890625 365.5126953125 710.15 351.45
M 668.025 260.625
Q 668.959375 261.6669921875 669.85 263.3 669.95 263.5 671.35 266.25
M 696.7 295.175
Q 695.9087890625 291.8046875 695.35 289.9 693.2 282.65 690 277.6 686.1 271.55 680.25 268.2 677.2642578125 266.497265625 674.3 265.825 674.074609375 265.7703125 673.85 265.725
M 673.55 265.675
Q 677.5923828125 261.245703125 684.65 260.1 691.1 259.05 699 260.75 721.4 265.55 743.25 284 751.8 291.25 761.25 301.55 764.6017578125 305.1787109375 769.325 310.625
M 651.425 270.825
Q 655.6134765625 278.7330078125 660.5 287.4 655.4 308.8 660.55 331.95 665.6431640625 355.16875 679.675 375.6
L 679.675 375.65 679.7 375.65
M 747 327.25
Q 751.225 334.70546875 755.15 341.65 765.732421875 360.3203125 774.175 375.225 792.341796875 407.2794921875 800.6 421.85 804.405078125 428.5951171875 806.1 431.6 811.55 441.15 813.55 447.25 816.5 456.3 814.5 463.6 812.55 470.6 806.25 476.1 800.75 480.9 792.85 483.75 788 485.6 778.05 487.95 768.05 490.4 757.55 492
M 729.35 409.5
Q 740.4 404.95 751 397.1 756.85 392.65 763.4 386.35 767.4021484375 382.3955078125 774.175 375.225
M 717.5 374.85
Q 728.85 368.85 738.55 360.2 748.0037109375 351.8126953125 755.15 341.65
M 771.1 328.25
Q 776.65 355.2 780.6 385.75
M 744.1 447.6
Q 763.15 444.9 775.25 439.85 791.2482421875 433.3431640625 800.6 421.85
M 739.35 497.075
Q 744.2455078125 495.8630859375 749.075 494.525 750.7150390625 494.0705078125 752.35 493.6 753.9255859375 493.2140625 755.175 492.7 755.462109375 492.593359375 755.725 492.475
M 688 519.95
Q 683.9931640625 518.098046875 680.875 514.775 677.7689453125 511.4484375 672.475 502.3 667.2419921875 493.26875 659.7 479.7 654.6 479.05 649.5 482.25 645.8291015625 484.3751953125 642.1 489.25 642.8501953125 490.7556640625 643.875 492.825 645.5005859375 496.097265625 649.675 503.35 653.849609375 510.6021484375 660.35 521 662.45 524.4 663.9 526.05 666.1 528.55 668.6 529.5
M 697.5 455.6
Q 679.35 465.95 659.5 479.35 659.596875 479.5244140625 659.7 479.7
M 659.35 479.1
Q 657.4029296875 475.75625 653.675 474.5 652.98671875 474.2611328125 652.25 474.1 647.95 473.35 643.6 475.25 640.7 476.7 639.75 478.35 638.3267578125 480.6669921875 639.35 483.2 639.359765625 483.2384765625 639.375 483.275 640.4357421875 485.8439453125 641.35 487.7 641.6826171875 488.3810546875 642.1 489.25
M 696.35 449.25
Q 673.9078125 461.1458984375 653.675 474.5
M 722.6 393
Q 707.15 406.55 688.85 415.5 699.8625 463.3951171875 705.6 488.1 706.45078125 492.1009765625 706.6 495.125 706.745703125 498.1443359375 708.55 499.2 710.3583984375 500.2611328125 716.425 500.6 720.3990234375 500.8205078125 726.1 499.925
M 582.225 253.75
Q 590.623828125 274.196484375 595.35 296.4 600.2 318.95 599 341.75 598.9 343.65 597.95 355.5 597.3 363.95 597.3 369.35 597.25 385.15 602.6 395.5 608.2 406 621 414.85 636.75 425.85 654.9 428.6 674.45 431.6 690.25 423.75
M 715.75 500.85
Q 714.65 501.9 714.45 503.55 714.25 505.2 715.1 506.5 715.3921875 506.8984375 715.625 507.125
M 758.675 498.85
Q 758.4076171875 498.6619140625 758.1 498.5 755.1671875 496.7103515625 749.075 494.525
M 679.675 375.65
Q 684.641015625 397.259375 688.85 415.5
M 544.35 180.6
Q 550.9306640625 184.2658203125 558.1 185.5 556.9880859375 182.5107421875 556.175 180.075 558.78046875 180.90234375 562.05 181.3 564.25 181.6 568.75 181.85
M 590.85 148.6
Q 585.85 148.25 581.75 152.6 579.15 155.1 576 161
M 616.4 190.25
Q 616.4 192.4 615.05 193.9 613.75 195.4 611.9 195.4 610.05 195.4 608.7 193.9 607.4 192.4 607.4 190.25 607.4 188.1 608.7 186.6 610.05 185.1 611.9 185.1 613.75 185.1 615.05 186.6 616.4 188.1 616.4 190.25 Z
M 620.6 192.35
Q 614.95 185.9716796875 614.95 177.5 614.95 175.1984375 615.375 173.05
M 615.1 237.6
Q 623.15 239.1 634.85 234.25 649.1 228.35 661.5 217.9
M 616.65 200.925
Q 616.0046875 200.78671875 615.35 200.7 611.9 200.25 608.6 201 606.1 201.45 605 202.75 603.2 204.65 603.5 208.85 603.5294921875 209.477734375 603.6 210.05 604.03984375 213.3955078125 606 215.1 608 216.75 611.6 216.75 617.5 216.9 622.75 215.25
M 603.6 210.05
Q 599.49765625 211.35 594.8 211.35 584.8470703125 211.35 577.55 205.55
M 639.35 483.2
Q 620.4 492.55 604.25 508.6 593.95 518.8 576.75 539.25 528.7076171875 595.539453125 469.025 665.85 482.2408203125 673.086328125 495.85 678.6 498.75 679.85 499.85 680.85 500.75 681.65 501.2 682.75 501.65 683.9 501.35 685 501.05 686.25 499.25 687.85 495.78125 690.9080078125 493.275 692.85 493.1529296875 692.94921875 493.025 693.05 492.9154296875 693.13671875 492.8 693.225 493.3849609375 710.1318359375 489.85 722.85
M 641.5 489.55
Q 629.7 495.6 617.65 506.65 610.05 513.6 597.35 528.1
L 474.75 667.85
M 437.45 687.25
Q 434.0806640625 688.87109375 431.1 690.275 431.01875 690.317578125 430.95 690.35 430.925 690.46796875 430.9 690.575
L 436.925 692.35 436.925 692.325
Q 437.16796875 691.319921875 437.3 690 437.45 688.25 437.45 687.25 439.8013671875 686.1154296875 442.35 684.875 443.7181640625 684.203125 445.1 683.35 447.4525390625 681.97421875 451.325 679.3 454.493359375 677.1013671875 457.075 674.475 457.655078125 673.901171875 458.2 673.3 460.2076171875 669.96953125 461.35 666.675 461.65 665.76328125 461.9 664.85 462.3 663.35 463.1 663.25 463.95 662.95 465.25 663.75 467.128515625 664.8171875 469.025 665.85
M 430.9 690.575
Q 430.1171875 694.2451171875 429.6 695.75 429.5076171875 696.11953125 429.4 696.475 431.62890625 696.9646484375 433.95 696.4 435.944140625 695.7533203125 436.95 692.35
L 436.85 692.6
Q 436.883984375 692.4748046875 436.925 692.35
L 436.95 692.35
M 436.925 692.325
Q 438.45 692.8 439.2 692.85 440.45 693.05 441.35 692.6 443.2 691.7 443.5 689.1 443.6 687.6 442.85 685
M 493.025 693.05
Q 488.083203125 691.7607421875 483.4 690 485.37109375 690.8861328125 485.575 691.85 485.853515625 693.14375 482.85 696.65 479.8390625 700.168359375 472.625 707.8 465.414453125 715.425390625 459.85 721
M 483.4 690
Q 482.612890625 689.6900390625 481.825 689.375 468.3525390625 683.97109375 457.075 674.475
M 411.65 705.8
Q 404.15 704.65 397.55 702.5 389.3 699.8 386.85 699.25 383 698.15 380 699 378.618359375 699.3455078125 377.5 700.125 387.2587890625 709.25234375 397.35 721.35 404.043359375 714.790234375 405.5 713.275 406.96171875 711.765234375 407.875 710.5 408.7869140625 709.2365234375 409.25 708.7 409.7107421875 708.1607421875 410.2 707.35 410.692578125 706.5400390625 411.65 705.8 409.6091796875 701.6900390625 409.725 699.15 408.800390625 699.3671875 408.35 699.3 395.080859375 698.783984375 382.6 695.85 380.45 695.3 379.45 695.2 377.65 694.95 376.25 695.35 375.0072265625 695.7005859375 373.725 696.675 375.624609375 698.36796875 377.5 700.125 376.0443359375 701.16015625 375.05 702.95 373.6759765625 705.3447265625 373.975 707.775 381.2369140625 714.0275390625 387.95 720.55
M 373.725 696.675
Q 372.9935546875 697.23828125 372.25 698 369.65 700.8 370.1 703.5 370.535546875 704.5572265625 371.45 705.325 372.35859375 706.0982421875 373.1 706.9 373.852734375 707.690234375 373.975 707.775
M 430.95 690.35
Q 426.7083984375 692.3298828125 423.25 693.875 423.232421875 694.08359375 423.2 694.3 426.4572265625 695.632421875 428 696.1 428.720703125 696.3126953125 429.4 696.475 428.8783203125 698.316796875 426.25 699.2 424.8734375 699.77734375 421.925 699.15 421.2771484375 700.6001953125 418.6 702.15 417.5490234375 702.73671875 414.7 701.975 413.783984375 703.7509765625 412.35 705.25 411.85 705.75 411.65 705.8
M 423.25 693.875
Q 422.9978515625 693.9884765625 422.75 694.1 422.983984375 694.1974609375 423.2 694.3 422.9373046875 696.79453125 421.925 699.15 419.002734375 698.5123046875 416.225 696.975 415.881640625 699.7056640625 414.7 701.975 414.6515625 701.9642578125 414.6 701.95 411.7259765625 701.1572265625 409.775 699.125 409.7546875 699.1435546875 409.725 699.15
M 422.75 694.1
Q 419.015234375 695.7716796875 416.225 696.9 416.2201171875 696.941796875 416.225 696.975
M 416.225 696.9
Q 411.8533203125 698.6734375 409.775 699.125"/>
</defs>

<g transform="matrix( 1, 0, 0, 1, 0,0) ">
<use xlink:href="#Layer1_0_FILL"/>
</g>

<g transform="matrix( 1, 0, 0, 1, 0,0) ">
<use xlink:href="#Layer0_0_FILL"/>

<use xlink:href="#Layer0_0_1_STROKES"/>
</g>
</svg>
