
<svg xmlns="http://www.w3.org/2000/svg" version="1.1" xmlns:xlink="http://www.w3.org/1999/xlink" preserveAspectRatio="none" x="0px" y="0px" width="1280px" height="720px" viewBox="0 0 1280 720">
<defs>
<g id="Layer1_0_FILL">
<path fill="#FFFFFF" stroke="none" d="
M 1280 720
L 1280 0 0 0 0 720 1280 720 Z"/>
</g>

<g id="Layer0_0_FILL">
<path fill="#000000" stroke="none" d="
M 710 107.8
Q 709.2 108.6 709.2 109.7 709.2 110.8 710 111.6 710.8 112.4 711.9 112.4 713 112.4 713.8 111.6 714.6 110.8 714.6 109.7 714.6 108.6 713.8 107.8 713 107 711.9 107 710.8 107 710 107.8
M 735.7 112.25
Q 735.7 111.1 734.9 110.3 734.1 109.5 732.95 109.5 731.8 109.5 731 110.3 730.2 111.1 730.2 112.25 730.2 113.4 731 114.2 731.8 115 732.95 115 734.1 115 734.9 114.2 735.7 113.4 735.7 112.25 Z"/>
</g>

<path id="Layer0_0_1_STROKES" stroke="#000000" stroke-width="1" stroke-linejoin="round" stroke-linecap="round" fill="none" d="
M 773.75 22.5
Q 774.25 19.15 773.85 17.6 773.4 14.75 771.5 13.35 769.8 12.1 767.25 12.1 764.7779296875 12.347265625 763.05 13.325 767.280078125 15.8681640625 770.75 19.5 778.6 27.8 782.25 41.4 784.85 51.15 785.75 66.75 786.3375 77.581640625 786.475 88.25 786.8111328125 112.989453125 786.1 137
L 785.95 138.95
Q 786.7099609375 137.51484375 787.6 136.1 791.05 130.7 794.75 131 796.65 131 798.35 132.5 799.8 133.75 800.85 135.85 803.55 140.9 803.35 147.35 803.15 153.3 800.5 159 797.85 164.35 794.35 167.1 791.1958984375 169.381640625 787.95 169.9
L 788.1 170.6
Q 790.1802734375 176.6765625 791.825 182.85 793.4646484375 189.017578125 796.725 198.65 799.994921875 208.294140625 801.45 213.45 802.48828125 217.2408203125 802.875 220.775 821.2 258.35 832 287.5 845.6974609375 324.347265625 851.875 359.65 856.210546875 384.40546875 856.5 406.6 856.61484375 416.057421875 856 425.05 853.9380859375 455.15 845.5 477.4
L 845.5 479.85
Q 851.6267578125 527.2595703125 852.7 572.925 845.841796875 575.2287109375 838.95 577.35
L 838 627.875
Q 828.7767578125 632.0083984375 819.3 635.325 816.5400390625 642.9865234375 813.65 650.65 807.725 666.31953125 801.225 682.025 797.8208984375 690.2490234375 794.25 698.4 761.3701171875 711.441796875 715 707 703.45 705.9 695.75 703.6 685.5 700.55 678.85 694.75 677.9533203125 693.9681640625 677.25 693.15
L 675.5 693.35
Q 657.8 695.8 643.6 696.55 626.4 697.45 611.5 696.1 601.1 695.15 593.3 693.05 583.75 690.45 576.6 685.75 573.15 683.4 571.55 680.15 569.7 676.4 571.85 673.85 573.7 671.9 578.5 671.6 590.6853515625 671.647265625 597.925 674.3 605.1609375 676.955859375 607 676.875 607.1755859375 676.8669921875 607.35 676.85 609.0130859375 676.715625 610.6 676 605.6 671.05 604.1 665.75 602.85 661.1 605.25 659.35 606.25 658.55 607.9 658.55 608.9 658.6 610.85 659 618.75 661.05 629.1 663.6 631.9 664.3 633.35 665 635.55 666 636.6 667.6 638.1 669.8 637.65 673.1 637.3 675.35 635.85 678.75 661 683.15 685.5 677.1
M 608.85 658
Q 609.1806640625 651.2783203125 609.375 644.6 609.530859375 639.2736328125 609.6 633.975 585.3240234375 630.3546875 562.9 621.125
L 564.15 590.225
Q 549.645703125 587.20234375 535.275 583.375 524.9490234375 510.9330078125 542 438.6
L 540.1 438.25
Q 517.2 434.6 501.3 429.4 480.75 422.65 466.35 411.75 449.85 399.2 441.75 380.8 441.4669921875 380.1533203125 441.2 379.5 437.1939453125 369.876171875 436.425 360.55 435.691015625 351.5099609375 438 342.75 438.607421875 340.378125 439.4 338.225 442.73125 329.20625 449.35 324 453.9 320.5 459.5 319.65 465.4001953125 318.7486328125 471.7 320.95 474.907421875 322.072265625 477 324.1
L 477 323.35
Q 476.45 317.25 478.95 311.35 481.45 305.45 486.25 301.6 490.4 298.1 494.85 297.75 497.4 297.55 499.65 298.4 502.05 299.3 503.5 301.1 506.05 304.6 505.1 311.25 504.75 313.45 501.3 325.3 499.4900390625 331.61640625 499.375 336.35 516.2 339.35 528.4 338.8 544.15 338.05 555.35 331.35 555.7427734375 331.1197265625 556.125 330.875 561.5595703125 327.54375 567.2 321.95 570.8 318.45 577.5 310.6 610.7 271.6 639.25 238.25
L 641.275 235.5
Q 634.318359375 217.658203125 638 199.25 640.45 186.6 648.95 171.5 653.85 162.75 664.85 145.75 685.9060546875 111.5078125 697.225 72.75 684.6865234375 70.490625 673.9 63.05 663.05 55.6 656.5 44.6 652.6 38.05 652.2 31.5 651.75 23.85 656.6 19.85 660.55 16.65 666.35 17.35 671.75 18 676.1 21.6 676.64765625 22.0537109375 677.2 22.55 695.1 34.85 703.85 41 704.1783203125 41.229296875 704.5 41.45 705.8146484375 30.68203125 713.05 21.85 720.3 12.95 730.6 9.5 741.05 6.1 752.15 8.9 758.114453125 10.377734375 763.05 13.325
M 736.1 85.5
Q 744.3 91.65 754.35 95.1
M 704.5 41.45
Q 718.887109375 51.4435546875 731.5 57.75 740.95 62.45 760.45 70.9 777.2 78.95 786.475 88.25
M 677.2 22.55
Q 680.11640625 25.290234375 682.9 29.55 683.55 30.55 688.35 38.75 695.5 50.7 704.3 59.85 713.95 69.85 725.1 75.85 737.05 82.35 750.2 83.85 764 85.45 776.25 81.25
M 720.5 139.75
Q 714.55 141.75 706.75 143.6 705.55 143.9 705.1 143.35 704.75 143.1 704.75 142.25 704.5 137.7 704.75 134.75 705.1 130.65 706.35 127.5 706.8212890625 126.3529296875 707.425 125.325 701.964453125 124.769921875 697.95 120.45 693.4 115.5 693.4 108.5 693.4 101.5 697.95 96.55 702.55 91.6 709.05 91.6 715.55 91.6 720.1 96.55 721.488671875 98.0443359375 722.45 99.725 727.162109375 95.75 733.6 95.75 740.6 95.75 745.5 100.45 750.45 105.2 750.45 111.85 750.45 118.5 745.5 123.2 740.6 127.95 733.6 127.95 726.6 127.95 721.65 123.2 720.5181640625 122.1142578125 719.65 120.925 716.75 116.9638671875 716.75 111.85 716.75 105.2 721.65 100.45 722.0474609375 100.07265625 722.45 99.725
M 702.25 81.25
Q 706 81.9 709.8 81.1 713.55 80.3 716.75 78.25
M 701.25 57.5
Q 699.41875 65.2076171875 697.225 72.75
M 714.6 109.7
Q 714.6 110.8 713.8 111.6 713 112.4 711.9 112.4 710.8 112.4 710 111.6 709.2 110.8 709.2 109.7 709.2 108.6 710 107.8 710.8 107 711.9 107 713 107 713.8 107.8 714.6 108.6 714.6 109.7 Z
M 717.35 118.35
Q 713.75 118.7 710.7 121.35 708.7455078125 123.064453125 707.425 125.325
M 693.6 143.35
Q 695.0380859375 146.071484375 696.475 148.3 698.3103515625 151.115234375 700.15 153.15 704.5 157.9 709.6 159.25 710.7169921875 159.5353515625 711.85 159.675 714.877734375 160.02421875 718.075 159.325 721.08125 158.684375 724.25 157.1 728.8 154.75 736.35 148.5
L 737.05 147.75
Q 737.2123046875 143.760546875 738.1 139.85
M 697 136.6
Q 695.2 139.6 694.4 141.1 692.95 143.65 692.25 145.75 690.45 150.8 690.85 156.1
M 698.75 143.1
L 703.1 148.35
M 682 176.75
Q 680.4 176.6 677.85 177.5 675.1 178.35 672 180
M 673 189
Q 675.95 185.5 680.35 182.85
M 711.85 159.675
Q 710.75 161.25 710.25 164.5 709.35 169.05 709.05 174.75 709.391796875 174.7943359375 709.75 174.85 710.8 175.05 711.1 175.05 711.85 175.1 712.35 174.85 713.1 174.4 714.25 172.5 717 165.8 718.075 159.325
M 706.1 158.25
Q 705.4 164.9 705 172.5 705 173.35 705.25 173.75 705.4 173.95 705.75 174.1 705.95 174.15 706.35 174.25 707.316796875 174.46015625 709.05 174.75
M 696.475 148.3
Q 695.377734375 164.6953125 699.85 180.1 702.4 188.55 705.85 193.1 708.2 196.15 711.2 198 714.45 200 718 200.35 723.3 200.8 728.3 197.4 732.95 194.2 735.5 189 737.75 184.55 738.8 178.45 739.5 174.5 740 167.35
L 739.925 166
Q 738.682421875 162.7140625 737.975 159.225 730.15 162.45 724.8 169.2 719.4 176 718 184.35 718.6439453125 184.35 719.35 184.35 720.75 184.35 721.25 184.85 721.65 185.15 722 186.25 724.05 192.55 726.5 197.6
M 718 184.35
Q 714.9056640625 184.37578125 713.25 184.5 712 184.75 711.85 184.85 710.95 185.6 711.25 187.5 711.75 192.3 711.75 197.75
M 725.35 143.85
Q 725.35 148.1 725.25 150.1
M 735.7 112.25
Q 735.7 113.4 734.9 114.2 734.1 115 732.95 115 731.8 115 731 114.2 730.2 113.4 730.2 112.25 730.2 111.1 731 110.3 731.8 109.5 732.95 109.5 734.1 109.5 734.9 110.3 735.7 111.1 735.7 112.25 Z
M 729.1 146.85
Q 729.55 146.25 729.75 145.75 730.6 144.1 732.5 140.85
M 753.35 188.85
Q 755.5 193.5 758 197.25
M 739.925 166
Q 741.128125 169.2212890625 742.85 172.25
M 737.05 147.75
Q 736.8498046875 152.078515625 737.5 156.5 737.695703125 157.878125 737.975 159.225
M 784.75 170
Q 786.36171875 170.164453125 787.95 169.9
M 785.95 138.95
Q 782.690625 145.2146484375 782 152
M 641.275 235.5
Q 643.944921875 242.3642578125 648.2 249.15 663.1 273 688.35 281.85 712.8 290.4 740 283.35 766.3 276.55 785.85 257.85 801.5 243.1 803 228 803.3103515625 224.5353515625 802.875 220.775
M 752.35 199.1
Q 752.75 204.6 755.75 209.1
M 697.85 226.85
Q 696.2525390625 227.99921875 694.65 229.2 699.99765625 232.4423828125 707.85 233.1 711.75 233.35 716.6 232.9 719.2 232.65 725.35 231.75
M 683.1 212
Q 684.030859375 215.1490234375 685.225 217.8 687.2908203125 222.4267578125 690.15 225.525 692.8474609375 224.4447265625 695.85 223.5
M 690.15 225.525
Q 690.91640625 226.3697265625 691.75 227.1 693.096875 228.2658203125 694.65 229.2 690.56640625 232.3234375 686.5 235.85
M 677.6 217.1
Q 680.4 217.65 685.225 217.8
M 681.6 230.25
Q 684.15 228.25 687.6 226.6 688.8359375 226.0470703125 690.15 225.525
M 591.85 382.5
Q 591.05 384 591.95 385.65 592.9 387.35 594.6 387.6 596.2 387.95 597.8 387 599.3 386.1 600 384.5 600.1 386.9 600.2 387.65 600.45 389.45 601.1 390.75 601.8 392.25 603.15 393.15 604.6 394.2 606.1 394 608.8 393.8 610.75 390.1 612.15 387.7 613.1 383.95 614.05 379.55 614.6 377.35 617.3 367.15 623.5 359.1 627.8 353.4 632.25 351.5 635.794921875 349.995703125 639.875 350.125 643.96484375 350.2623046875 646.95 352.85 649.9349609375 355.4375 651.425 359.35 652.9048828125 363.2541015625 652.35 367 651.6498046875 371.201953125 649.5 375.675 647.3576171875 380.148828125 638.325 386.55 629.2892578125 392.946875 621.75 396.825 614.22265625 400.7119140625 612.6 402 610.9654296875 403.2765625 608.825 405.9 606.6951171875 408.5302734375 602.95 416.425 599.196484375 424.303515625 594.85 438.35 592.4 446.55 591.8 452.6 591.05 460.5 593.1 466.75 593.85 469.05 595.25 470.6 596.85 472.35 598.85 472.35 602.95 472.35 604.85 465.1 606.65 467.85 610.3 467.85 613.95 467.85 615.75 465.1 616.5 466.35 616.475 469.85 616.45 473.35 616.725 475.325 617 477.3 618.725 479.35 620.45 481.4 622.75 480.85 626.1 480.25 627.35 474.5 628.6 469.2 629.5 459.05 630.5 448.35 631.5 443.5 633.15 435.05 637.05 428.75 641.55 421.5 648.25 418.6 669.4 410.25 681.8 388.9 694.2 367.5 690 345 687.6 332.05 680.6 324.6 676.3 320.15 670.05 317.3 664.35 314.75 657.6 313.75 638.8 310.85 620.7 319.85 602.6 328.85 593.6 345.6
M 775.35 293.7
Q 760.42265625 338.049609375 755.65 384.725
L 756.85 386.1
Q 766.5146484375 395.9509765625 778.4 400.6 790.2888671875 405.24921875 802.9 407.175 815.503515625 409.1001953125 829.85 409 839.55 408.95 856.5 406.6
M 747.25 195.1
Q 746.9 199.85 747.75 205.75
M 813 534.5
Q 814.2203125 537.206640625 815.8 539.675 819.2779296875 545.0900390625 824.5 549.35 827.8 552.15 830.6 553.1 832.95 554.05 834.6 553.25 836.5 552.35 837.25 549.6 838.25 545.9 836.75 541.4 835.75 538.3 833.15 533.6 836.9 526.15 838.1 517.25 839.25 508.4 837.475 499.75 841.226953125 488.6361328125 845.5 477.4
M 838.95 577.35
Q 834.42578125 578.741015625 829.875 580.05 830.2158203125 582.2578125 830.5 584.475 832.1044921875 597.4046875 831.5 610.5 831.25 613.7 830.9 615.25 830.35 617.85 829.1 619.5 826.9 622.6 821.25 624.75 805.15 631.1 787.85 633.45 770.75625 635.72265625 754.25 633.9
L 754.25 596.25
Q 724.12734375 600.5115234375 693.4 601.45 685.3306640625 601.69609375 677.3 601.725
L 671.95 638.725
Q 682.2625 641.8064453125 692.725 643.925 704.930859375 646.3978515625 717.35 647.575 736.348046875 649.3568359375 755.85 648.1 788.8990234375 645.934765625 819.3 635.325
M 797.25 535.5
Q 797.9 545.1 799.75 550.25 802.5 558.35 808.6 562.1 810.85 563.35 813 563.65 815.5 563.95 817.25 562.75 819.9 561.1 820.35 556.6 820.7 552.6 819.05 547.9 818.0615234375 544.934765625 815.8 539.675
M 783.7 539.35
Q 785.9 547.75 788.55 552.85 788.764453125 553.27109375 789 553.675 789.2080078125 553.9951171875 789.35 554.35 793.0515625 560.9939453125 798.1 564.6 802.05 567.5 805.6 567.5 807.65 567.6 809.5 566.65 811.5 565.65 812.5 563.85
M 789 553.675
Q 789.1298828125 553.943359375 789.275 554.2 789.3154296875 554.2732421875 789.35 554.35 790.990234375 558.2109375 791.55 563.3 792.1041015625 568.390234375 787.075 570.65 782.048828125 572.906640625 777.45 565.175 772.8501953125 557.44765625 762.6 522.25 752.3 487.05 753.5 421.15 753.820703125 402.75859375 755.65 384.725
M 829.875 580.05
Q 794.5015625 590.2779296875 758.225 595.675 768.80234375 604.5638671875 777.25 608.1 789.2 613.4 800.1 610.75 809 608.65 817.25 600.6 822.75 595.25 830.5 584.475
M 754.25 596.25
Q 756.2421875 595.9685546875 758.225 595.675
M 800.75 682.35
Q 785.59921875 687.8033203125 769.275 689.65 752.9517578125 691.489453125 737.85 687.9 738.88984375 684.764453125 738.5 679.5 738.103125 674.2466796875 735.875 673 733.65546875 671.7392578125 730.6 670.75 727.546875 669.75546875 722.85 668.6 722.471875 668.5244140625 716.1 667 714.032421875 666.4962890625 711.35 665.85 707.5 664.8 706.1 666.5 705.25 667.6 705.75 670.5 706.8 676.15 709.85 682.35 710.0326171875 682.366796875 710.225 682.375 717.60390625 683.129296875 723.85 686.35
M 717.35 647.575
Q 717.35 651.441796875 717.15 655.375 738.0509765625 664.1802734375 765.35 661.5 776.45 660.4 789.65 657.2 799 654.95 813.65 650.65
M 723.85 694
Q 715.2146484375 688.048046875 704.85 684.425 704.6798828125 684.362109375 704.5 684.3
L 702.85 683.575
Q 701.3201171875 683.2369140625 699.25 682.6 692.03828125 680.6373046875 684.95 681.225 684.2751953125 681.2716796875 683.6 681.35 680.5 681.7 678.3 682.95 675.6 684.5 675.1 687 674.7 688.95 675.9 691.2 676.440234375 692.19921875 677.25 693.15
M 692.725 643.925
Q 689.790625 661.339453125 685.6 679
L 684.95 681.225
M 717.15 655.375
Q 716.9109375 660.411328125 716.35 665.6
L 716.1 667
M 710.225 682.375
Q 708.417578125 684.148046875 705.15 683.95 704.21171875 683.8796875 702.85 683.575
M 609.375 644.6
Q 629.85 649.4 650.9 649.3 671.95 649.2 692.1 644.25
M 439.4 338.225
Q 447.9310546875 333.950390625 458 334.1 462.85 334.1 466.95 335.45 471.6 337 474.6 340 475.248828125 340.648828125 475.8 341.35
L 477.6 339.75
Q 482.00078125 334.54453125 480 328.85 479.0615234375 326.1783203125 477.175 324.275 477.0896484375 324.18671875 477 324.1
M 436.425 360.55
L 437.1 360
Q 448 351.75 458 351.1 463.85 350.7 469.15 353.2 472.9275390625 354.95390625 475.35 357.7
L 476.5 356.35
Q 479.25 353 478.55 348.05 478.027734375 344.233984375 475.8 341.35
M 475.35 357.7
Q 476.50390625 359.037890625 477.35 360.6 479.55 364.35 478.6 367.6 477.95 369.55 476.05 371.2 474.85 372.25 472.25 373.85
L 470.4 374.85
Q 470.5064453125 374.92265625 470.6 375 473.6 377.45 474.35 380 475.1 382.2 474.25 384.65 473.4 386.95 471.5 388.5 468.15 391.45 462.5 391 458.6 390.7 453.5 388
M 441.2 379.5
Q 442.780078125 375.78125 446.3 373.2 449.95 370.6 454.35 370 458.6 369.45 462.95 370.8 467.0359375 372.11328125 470.4 374.85
M 556.125 330.875
Q 561.4466796875 332.687890625 566.85 337.85 570.1794921875 341.1794921875 575 347.625 595.4794921875 307.1732421875 625 272.35
M 499.5 339.5
Q 499.3302734375 338.0240234375 499.375 336.35
M 497.75 367
Q 500.9 372.5 501.1 382.1 501.1 386.95 500.5 390.4 499.75 394.9 497.85 398.25 495.8 401.95 492.25 404.25 488.5 406.7 484.5 406.5
M 591.5 382.35
Q 590.75 383.6 589.8 385.95 588.8 388.6 588.25 389.6 587.1 391.45 585.4 392.45 583.5 393.6 581.75 393 580.75 392.65 579.95 391.7 579.15 390.75 578.85 389.6 578.3 387.95 578.65 385.65 578.8 384.4 579.6 381.6 583.35 369 585.4 363.35 589.05 353.3 593.35 346
M 613.25 522.75
Q 613.2626953125 523.068359375 613.35 523.35 613.6310546875 524.1654296875 614.6 524.65 615.8 525.25 617 524.85 619.15 524.15 620.1 521.1 620.35 520.15 620.5 518.65 620.7 516.5 620.75 516.1 620.85 515.15 622.8 507.15 624.1 501.8 623 498.5 622.15 496.2 620.35 494.35 618.65 492.55 616.35 491.5 612.45 489.7 606.75 489.5 601.4 489.3 597.25 490.7 592.3 492.45 590.1 496.25 588.7 498.75 588.75 501.8 588.8 504.85 590.25 507.35 591.55 509.9 593.95 511.8 596.2 513.6 599.1 514.5 599.75 514.75 601.1 515.25 602.3 515.75 602.75 516.5 603.2 517.3 603 519.5 602.85 521.55 602.35 526.75 602.15 530.5 602.5 532.1 602.9 533.5 603.8 534.55 604.8 535.7 606.1 536 608 536.55 609.85 535.1 611.5 533.75 612.25 531.6 612.75 530.1 612.95 527.55 613.2 524.3 613.35 523.35
M 575 347.625
Q 558.01640625 381.178125 547.25 418.6 544.3654296875 428.605078125 542 438.6
M 672.35 633.6
Q 644.65 638.1 616.55 634.9 613.055078125 634.497265625 609.6 633.975
M 610.6 676
Q 615.3 675.7 620 677.05 624.65 678.45 628.6 681.25
M 607.35 676.85
Q 613.8 679.5 617.5 681.5
M 564.15 590.225
Q 619.744140625 601.838671875 677.3 601.725"/>
</defs>

<g transform="matrix( 1, 0, 0, 1, 0,0) ">
<use xlink:href="#Layer1_0_FILL"/>
</g>

<g transform="matrix( 1, 0, 0, 1, 0,0) ">
<use xlink:href="#Layer0_0_FILL"/>

<use xlink:href="#Layer0_0_1_STROKES"/>
</g>
</svg>
