
<svg xmlns="http://www.w3.org/2000/svg" version="1.1" xmlns:xlink="http://www.w3.org/1999/xlink" preserveAspectRatio="none" x="0px" y="0px" width="1280px" height="720px" viewBox="0 0 1280 720">
<defs>
<g id="Layer2_0_FILL">
<path fill="#FFFFFF" stroke="none" d="
M 1280 720
L 1280 0 0 0 0 720 1280 720 Z"/>
</g>

<g id="Layer0_0_FILL">
<path fill="#000000" stroke="none" d="
M 543.55 315.65
Q 542.45 315.1 541.2 315.1 538.35 315.1 536.35 317.95 534.35 320.9 534.35 325 534.35 329.05 536.35 331.95 538.35 334.9 541.2 334.9 542.35 334.9 543.4 334.4 544.35 329.7 544.35 324.6 544.35 319.95 543.55 315.65
M 462.15 313.85
Q 458.85 313.85 456.45 316.6 454.1 319.4 454.1 323.35 454.1 327.25 456.45 330 458.85 332.8 462.15 332.8 463.6 332.8 464.9 332.3 465.35 329 465.35 325.5 465.35 319.55 463.95 314.1 463.1 313.85 462.15 313.85
M 783.6 325.35
Q 781.15 332.769140625 781.15 341.2 781.15 344.045703125 781.4 346.75 784.9955078125 346.5244140625 787.6 343.6 790.45 340.4 790.45 335.85 790.45 331.3 787.6 328.1 785.825390625 326.107421875 783.6 325.35
M 705.75 318.8
Q 703.7884765625 316.383203125 701.25 315.65 698.2 323.57734375 698.2 332.75 698.2 335.8681640625 698.55 338.85 698.7494140625 338.85 698.95 338.85 702.95 338.85 705.75 335.4 708.55 331.95 708.55 327.1 708.55 322.25 705.75 318.8 Z"/>
</g>

<path id="Layer0_0_1_STROKES" stroke="#000000" stroke-width="1" stroke-linejoin="round" stroke-linecap="round" fill="none" d="
M 1013.5 221.25
Q 1016.194921875 216.4744140625 1015.05 210.6 1013.9 204.7 1009.85 200.75 1005.85 196.8 999.9 195.9 993.9 194.95 987.55 196.85 999.848046875 209.7935546875 1013.475 221.225
L 1013.5 221.25
Q 1021.7595703125 228.1498046875 1030.1 234.25 1048.85 248.1 1053.85 252.8 1066.3 264.35 1070.1 276.75 1076.45 296.8 1062.75 319.6 1052.95 335.9 1030.9 356.075 1033.6123046875 357.2869140625 1036.35 358.5 1044.35 361.85 1048.8 364.05 1055.5 367.35 1060.5 371 1066.2 375.1 1069.05 380.4 1072.4 386.6 1070.25 392 1068.8 395.55 1065.2 397.9 1061.9560546875 400.005078125 1058.2 400.175 1054.4314453125 400.3341796875 1050.725 399.725 1047.024609375 399.12109375 1040.45 396.85 1048.133984375 409.2029296875 1052.4 423.5 1058 442.1 1057 461.1 1056.2 474.7 1049.1 478.5 1045.5 480.5 1040.9 479.55 1036.55 478.65 1033.1 475.6 1030.2 473.1 1027.65 469 1026.21015625 466.66640625 1023.3 458.2 1022.712890625 470.0009765625 1019.55 478.25 1015.9 487.85 1009.5 495.75 1003.1 503.65 994.45 509.25 985.8201171875 514.8048828125 976.15 517.3 976.47734375 518.0298828125 976.8 518.775 976.965234375 519.1595703125 977.125 519.55 978.489453125 522.7525390625 979.9 526.4
L 993.575 561.475 1015.75 618.35
Q 1020.55 630.85 1021.75 638.85 1023.45 650.55 1019.1 658.85 1016.8896484375 663.07578125 1013.525 666.2 1018.8 680.35 1021.2 694.55 1022.5 702.3 1024.5 720.25
M 701.25 315.65
Q 704.6748046875 306.7017578125 712 299.35 719.2857421875 292.090625 728.15 288.65 728.8439453125 288.3806640625 729.55 288.125 729.8953125 288.0056640625 730.25 287.9 729.076953125 278.1373046875 728.6 268.375 695.6796875 257.5837890625 669.1 236.3 642.55 215.05 625.1 186.5 615 169.95 613.1 154.05 610.85 135.1 621.75 123.85 633.95 111.15 655.75 114.9 673.1 117.9 692.75 130.25 716.265625 144.99765625 744.35 165.85 754.55234375 173.425390625 765.35 181.8 769.2017578125 184.7849609375 773.675 188.275 796.4890625 206.1671875 835.3 237.45 876.8 270.25 906.7 290.25 944.5134765625 315.4904296875 979.2 332.2 997.0384765625 310.8134765625 1005.525 289.3 1014.0083984375 267.78984375 1015.625 251.675 1017.248828125 235.5541015625 1013.475 221.225
M 1030.9 356.075
Q 1005.8806640625 344.90546875 983.025 333.9 981.7125 333.2875 980.4 332.65 979.855078125 332.3916015625 979.3 332.125 979.2517578125 332.163671875 979.2 332.2 979.16328125 332.2255859375 979.125 332.25
L 979.1 332.275
Q 978.8015625 332.520703125 978.5 332.75 966.8416015625 341.5837890625 950.4 339.4 946.4962890625 338.8826171875 942.7 338.1 926.35 354.45 918.4 374.15 910.45 393.85 912.5 414.25 913.15 420.65 915.5 425.05 918.35 430.5 923.25 431.6 927.65 432.7 931.95 429.7 935.95 426.9 937.75 422.25 939.1603515625 418.5361328125 939.25 413.625 939.25 413.316796875 939.25 413 939.25 412.80546875 939.25 412.6 939.205078125 409.37578125 938.5 403.5
M 978.5 332.75
Q 978.7697265625 332.375390625 979.2 332.2
M 987.55 196.85
Q 976.1283203125 184.875390625 965.85 171.6 954.4 156.3 948.6 148.5 938.1439453125 134.6056640625 923.425 118.075 908.7177734375 101.532421875 886.575 94.925 864.421875 88.318359375 841.875 94.7 819.3365234375 101.0912109375 794.325 112.325 769.321875 123.565234375 756.525 132.55 743.7205078125 141.5296875 737.05 159.85
M 840.25 114.35
Q 842.25 112.85 843.35 112.25 844.35 111.75 844.85 111.75 845.95 111.9 846.35 113 846.5 113.75 846.7 115.1
L 851.55 142.35
Q 851.75 143.85 851.75 144.25 851.95 146.15 851.35 146.75 850.85 147.25 849.85 147.25 849.248828125 147.2537109375 848.1 146.7 846.9529296875 146.138671875 845.75 145.5
L 841.35 142.6
Q 841 142.5 840.775 142.4 840.544921875 142.3 840.225 142.375 839.9146484375 142.45 839.6 142.975 839.2802734375 143.5 839.35 144.85
L 842.9 166.2
Q 843.2212890625 167.7259765625 843.125 168.525 843.028125 169.3298828125 842.55 170.25 842.070703125 171.171875 840.6 170.825 839.1310546875 170.469140625 837.45 169.4
L 829.8 164.3
Q 828.85 163.65 827.85 163.5 826.852734375 163.4970703125 826.375 163.975 825.8916015625 164.458203125 825.7 165 825.5111328125 165.5388671875 825.35 166.7
L 821.5 186
Q 821.15 187.75 820.975 188.45 820.8 189.15 820.325 189.85 819.85 190.55 818.1 191 817.25 191.25 815.35 191.2
L 796.05 189.6
Q 794.65 189.5 794.05 189 793.45 188.5 793.25 187.75 792.9 186.3 793.85 184.85 794.25 184.25 795.2 183.1
L 809.65 165.55
M 809.85 165.35
L 811 163.75
Q 811.25 163.15 811.25 162.75 811.25 162.5 811.2 162.1 810.935546875 161.5443359375 809.9 161.5
L 796.8 161.5
Q 795.82734375 161.5953125 794.6 161.5 793.3669921875 161.403515625 792.85 160.55 792.3443359375 159.698828125 793 158.85 793.3 158.4 794.25 157.75 794.9 157.4 798.55 155.25
L 815.7 142.8
Q 817.05 141.9 817.35 141.6 818.2 140.85 818.4 140.05 818.7 138.95 818.35 138.5 818.05 137.9 817 137.6
L 810.45 139.35
Q 809.85 139.4 809.6 139.4 809.15 139.4 808.85 139.25 808.094140625 138.9 808 138.05 807.9169921875 137.2 808.375 136.675 808.8271484375 136.15 809.65 135.7
L 840.05 114.5
M 744.35 165.85
Q 731.45 163.2 718.35 164.15 705.15 165.1 693 169.75 687 172.05 683.85 174.85 679.25 179.1 679.25 184 679.25 187 680.95 189.8 682.55 192.5 685.25 194.1 689.75 197 697 197.6 699.7646484375 197.815625 702.475 197.75 714.20546875 197.409765625 724.85 191.6
M 730.25 287.9
Q 732.6162109375 287.115625 735.1 286.6 740.0353515625 285.55 745.4 285.55 764.95 285.55 778.75 299.35 785.543359375 306.143359375 789 314.3 791.803125 310.096875 795.6 306.3 810.05 291.85 830.5 291.85 850.95 291.85 865.4 306.3 879.85 320.75 879.85 341.2 879.85 354.6478515625 873.6 365.5 870.3478515625 371.1521484375 865.4 376.1 850.95 390.55 830.5 390.55 810.05 390.55 795.6 376.1 788.0513671875 368.5513671875 784.45 359.375 781.9732421875 362.88828125 778.75 366.1 773.86640625 371.001171875 768.275 374.175 772.7498046875 375.6216796875 776.85 378.25
M 702.475 197.75
Q 693.781640625 202.11171875 689.7 204.7 682.9 208.95 679.25 214.1 674.9 220.15 675.15 227.7 675.4 235.7 681 239.75 684.1 242 688.85 242.75 692.25 243.25 697.6 243 713.506640625 242.03984375 728.725 237.55 737.300390625 235.0349609375 745.65 231.4 768.8333984375 221.3072265625 788.125 205.025 781.1017578125 196.94140625 773.675 188.275
M 736.75 250.75
Q 744.9 242.5 756.6 239.1 768.3 235.75 779.6 238.35
M 728.6 268.375
Q 727.8787109375 253.6310546875 728.725 237.55
M 701.25 315.65
Q 703.7884765625 316.383203125 705.75 318.8 708.55 322.25 708.55 327.1 708.55 331.95 705.75 335.4 702.95 338.85 698.95 338.85 698.7494140625 338.85 698.55 338.85 699.3904296875 345.9197265625 702.225 352.175 722.35 347.55 743.05 348.9 763.75 350.25 783.45 356.55 781.9533203125 351.86328125 781.425 346.775 781.15 344.045703125 781.15 341.2 781.15 332.769140625 783.6 325.35 785.53984375 319.51171875 789 314.3
M 698.55 338.85
Q 698.2 335.8681640625 698.2 332.75 698.2 323.57734375 701.25 315.65
M 776.85 400.7
Q 771.05 405.05 763.45 406.45 756.05 407.8 749.1 405.35 744.95 403.85 742.6 401.5 738.85 397.9 738.25 391.75 737.85 386.8 740.05 382.2 740.66328125 380.91875 741.4 379.8 724.415234375 378.515234375 712 366.1 705.641796875 359.741796875 702.225 352.175
M 783.6 325.35
Q 785.825390625 326.107421875 787.6 328.1 790.45 331.3 790.45 335.85 790.45 340.4 787.6 343.6 784.9955078125 346.5244140625 781.425 346.775
M 768.275 374.175
Q 764.2138671875 372.8556640625 759.85 372.5 751.7 371.8 746.35 375 743.4041015625 376.8185546875 741.4 379.8
M 784.45 359.375
Q 783.9029296875 357.980859375 783.45 356.55 805.9 352.65 828.65 354.85 851.4 357.05 873.6 365.5
M 821.1 251.25
Q 824.7287109375 250.2693359375 828.475 250.325 810.33515625 230.59296875 788.125 205.025
M 942.7 338.1
Q 929.9994140625 335.505859375 918.6 330 906.01171875 323.803125 894.275 315.075 882.525 306.3396484375 851.7 274.85 841.068359375 263.987109375 828.475 250.325
M 865 391.5
Q 876.3 385.85 885.25 369.6 891.65 357.7 892.1 347.05
M 949.25 387.5
Q 953.55 393.35 955.45 396.3 958.65 401.35 960.25 405.85 963.1 413.7 960 418.5 958.25 421.25 954.7 422.25 951.2 423.25 947.85 422.1 944.75 421 942.3 418.4 940.365625 416.2974609375 939.25 413.625
M 941.6 474.05
Q 937.5275390625 480.4634765625 932.675 485.55 941.0630859375 484.2767578125 949.65 487.375 958.2494140625 490.4755859375 963.175 496.05 967.959765625 501.47890625 971.7 508.225 971.798046875 508.4134765625 971.9 508.6 973.9689453125 512.3837890625 976.15 517.3
M 939.65 471
Q 943.8 476.45 951.25 478.2 958.2970703125 479.8 965.475 478.625 972.65703125 477.4560546875 979 474.3 985.3435546875 471.135546875 992.575 464.1 999.801953125 457.058203125 1003.6 450 1007.4033203125 442.9564453125 1008.85 433.375 1010.2984375 423.7953125 1007.25 413.7 1003.95 403 996.35 396.35 988.25 389.4 977 389.3 965.45 389.15 956.9 397.85
M 859.6 466.775
Q 870.7091796875 459.4232421875 876.1 450.35 880.4 443.25 880.9 435.1 881.45 426.45 877.35 419.75 873.05 412.75 864.6 410.5 856.6595703125 408.3427734375 849.65 411
L 859.6 466.775
Q 856.092578125 469.0953125 852 471.25 831.2 482.2 807.15 484.15 801.2712890625 484.6255859375 795.5 484.55 777.6103515625 484.2705078125 760.75 478.6 753.044140625 476.06171875 746.7 472.7 735.5474609375 466.7953125 728.6 458.35 721.3 449.6 720.6 440.35 720.35 435.2 722.3 430.6 724.35 425.7 728.35 423 734.25 418.95 743.7 420.15 744.241796875 420.2125 747.2 420.875 751.3568359375 421.7796875 760.25 423.85 775.1486328125 427.4994140625 793.05 425.675 798.93671875 425.08828125 805.15 423.9 821 420.85 848.4 411.5 849.0193359375 411.2251953125 849.65 411
M 852.725 545.475
Q 854.2318359375 544.0666015625 855.6 542.6 861.58984375 536.1548828125 864.675 528.525 855.394921875 531.7232421875 845.75 533.85 830.7849609375 537.1076171875 815.6 537.65 817.7 542.25 822.5 545.05 826.95 547.65 832.35 548.1 836.9 548.55 842.5 547.65 846.1 547.05 852.725 545.475 851.8794921875 546.2455078125 851 547 842.65 554.15 831.1 559.1 825.885546875 561.27734375 821.35 562.275
L 821.8 576.55
Q 839.1453125 576.0248046875 853.75 575.35 860.6 575.1 864.35 575.55 870.2 576.3 874.1 578.85 874.5970703125 579.175 875.075 579.525 884.0216796875 586.269921875 884.35 604.1 893.61953125 607.63125 900 614.35 901.4 615.75 903.95 618.6 906.35 621 908.5 622.1 911.8 623.85 916.55 623.65 919.1 623.55 925 622.5 940.1802734375 619.72421875 955.575 618.875
L 943.75 586.05 942.625 582.9
Q 938.3576171875 580.960546875 934.275 577.475 930.194140625 573.9919921875 926.225 565.25 922.2517578125 556.5025390625 922.2 542.85 922.1 529.15 928.1 517.35 932.35 509.25 938.8 504.35 946.15 498.8 954 499.5 958.5 499.9 963.4 502.55 966.991015625 504.5177734375 971.7 508.225
M 707.5 362
Q 688.35 386.5 680.1 409.6 670 437.8 677 461.85 682.3 479.75 697.15 494.95 710.3 508.4 729.25 518.25 740.903515625 524.340625 753.3 528.55 756.7375 529.71484375 760.225 530.725 772.7966796875 534.402734375 786.1 536.2 788.93046875 536.57890625 791.75 536.875 799.1677734375 537.6279296875 806.525 537.75 806.7626953125 537.75390625 807 537.75 811.0583984375 537.8130859375 815.1 537.675 815.346484375 537.666796875 815.6 537.65
M 807 537.75
Q 804.95 544.45 806.95 551.35 808.994140625 558.280078125 814.625 563.075 815.7802734375 563.0619140625 817 562.95 819.0908203125 562.7544921875 821.35 562.275
M 804.6 696.6
L 799.25 697.25
Q 798.15 697.35 797.7 697.35 796.8 697.35 796.25 697 794.45 696.1 794.25 692.5 793.75 687.15 794.25 684.35 794.85 679.8 797.925 676.95 794.6572265625 662.2908203125 793.1 643.8 792.7775390625 640.04453125 792.475 635.15 789.8 634.2 788.25 632.7 786.8 631.25 786.1 629.25 784.85 625.5 786.5 621.35 787.7 617.8 791.45 614.6 791.3484375 612.125 791.25 609.5 790.85 600.5 791.8 595.25 793.2 587.5 797.75 583.25 801.6 579.5 808.3 577.95 812.45 577 820.5 576.6 821.1515625 576.5802734375 821.8 576.55
M 791.45 614.6
Q 805.95 600.15 819.35 599.85 828.8 599.7 840.1 606.5 842.95 608.25 849.3 612.65 855.2037109375 616.7556640625 859.925 619.325 864.63828125 621.882421875 868.125 621.3
L 867 604.1
Q 866.7 598.8 866.7 597.2 866.7 593.3 867.35 590.35 868.15 586.8 870.05 584 872.1375 580.9681640625 875.075 579.525
M 868.125 621.3
L 884.425 619.75
Q 884.5 618.743359375 884.5 617.6 884.5998046875 614.004296875 884.5 609.2 883.25 611.25 880.6 611.85 877.7052734375 612.5951171875 875.8 611.6 873.8896484375 610.6140625 873.475 608.95 873.0498046875 607.29140625 872.875 604.675 872.6892578125 602.0501953125 872.65 599.225 872.627734375 596.4044921875 872.925 594.575 873.2060546875 592.7478515625 874.5 591.25 875.7 589.65 877.9 589.25 880.05 588.8 881.85 589.75
M 993.575 561.475
Q 986.9337890625 559.7275390625 980.1 560.6 969.4 562 959.25 569.75 950.05 576.65 943.75 586.05
M 929.8 547.35
L 942.625 582.9
M 864.675 528.525
Q 883.523828125 522.0087890625 900.85 511.05 919.7107421875 499.14375 932.675 485.55
M 747.2 420.875
L 746.7 472.7
M 793.05 425.675
L 795.5 484.55
M 543.4 334.4
Q 540.8 346.35 531.75 355.55 531.35 355.95 530.95 356.35 536.15 364.2 539 370.85 543.2 380.6 546.1 391.2 551 409 549.4 427.4 547.75 445.8 539.75 460 531.7 474.2 517.6 487.65 513.9013671875 491.165625 509.525 494.4 513.703515625 499.2228515625 514.6 506.1 527.1 511 544.2 524.6 566.65 542.4 572.35 546.25 600.75 565.35 635.5 571.15 670.2435546875 576.8990234375 706.575 568.05 707.99375 566.500390625 709.5 565 719.45 554.95 727.5 557.75 729.935546875 558.50859375 731.825 560.5 742.05 544.75 753.3 528.55
M 739.5 622.85
Q 737.9 618.25 738.1 613.3 738.2392578125 608.7078125 739.975 604.5 736.0943359375 604.8501953125 734.6 604.9 731.95 605 729.85 604.5 727.45 603.9 725.6 602.45 724.3125 601.4765625 723.55 600.275 723.1103515625 599.5498046875 722.85 598.75 722.2087890625 596.705859375 722.7 594.525 722.4453125 594.4017578125 722.2 594.25 720.15 593 719 591 718.8408203125 590.7056640625 718.7 590.4 716.15 592.45 713.5 593.5 710.85 594.6 708.1 594.5
M 718.7 590.4
Q 717.04765625 586.8783203125 717.6 582 718.4 576.55 721.6 572.1
M 731.825 560.5
Q 732.3068359375 561.0158203125 732.75 561.6 734.086328125 563.36015625 734.9 565.475 735.321484375 566.6142578125 735.6 567.85 735.8412109375 568.8669921875 735.975 569.975 736.2482421875 572.092578125 736.15 574.55 736.05 577.1 735.5 581.35 735.4533203125 581.91015625 735.4 582.45 735.291015625 583.39375 735.15 584.275
L 735.15 584.3
Q 735.0220703125 585.030859375 734.875 585.725 743.95 585.9 751.475 581.625 751.4984375 581.4796875 751.525 581.325 751.66015625 580.5994140625 751.85 579.875
L 752.4 578.15
Q 752.261328125 578.0353515625 752.125 577.925 749.3107421875 575.50546875 748.1 572.6 747.72265625 571.6466796875 747.5 570.575 747.449609375 570.3392578125 747.4 570.1 747.2279296875 569.09765625 747.175 568 747.151953125 567.554296875 747.15 567.1 747.1443359375 566.0265625 747.25 564.875 747.3435546875 563.790625 747.525 562.625 747.3275390625 562.619140625 747 562.5 744.25 560.7 740.6 561.1 737.35 561.7 734.35 563.5
M 747.525 562.625
Q 747.71015625 561.5248046875 747.975 560.35 748.0390625 560.1052734375 748.1 559.85 750.947265625 548.4111328125 760.225 530.725
M 734.875 585.725
Q 734.861328125 585.773828125 734.85 585.825 734.6998046875 586.465234375 734.525 587.075 734.0330078125 588.7541015625 733.35 590.1 732.35 592.2 730.6 593.65 728.65 595.15 726.5 595.35 724.55703125 595.5265625 722.7 594.525
M 761.1 583.35
Q 755.95 580.85 753.55 579.05 753.4244140625 578.959375 752.4 578.15
M 739.975 604.5
Q 740.10546875 604.1751953125 740.25 603.85 742.2 599.5 745.75 595.95 749.0091796875 592.73671875 753.025 590.825 752.3720703125 589.565234375 752 588.35 751.1474609375 585.7408203125 751.325 582.95 751.331640625 582.860546875 751.35 582.775 751.35625 582.6833984375 751.375 582.6 751.4056640625 582.1181640625 751.475 581.625
M 758.5 598
Q 755.9 595.15 754.65 593.45 753.6923828125 592.114453125 753.025 590.825
M 791.75 536.875
Q 793.4517578125 545.254296875 795.3 549.7 798.15 556.45 803 559.75 807.825 563.137109375 814.625 563.075
M 852.1 634.6
Q 850.85 629.4 848.05 625 845.05 620.45 840.85 617.5 836.45 614.45 831.15 613.7 825.7 613 821 615 813.75 618.15 809.85 626.85 807.2 633.35 806.75 643.1 805.8 658.2 812.5 665.35 817.85 671.5 828.1 672.35 838.2353515625 673.3486328125 847.625 668.525 847.6361328125 668.45703125 847.65 668.4 848.49453125 664.823046875 851.45 663.4 849.8443359375 662.17265625 848.7 660.75 846.8 658.35 846.25 655.6 845.7 652.65 846.9 649.8 848.0591796875 646.950390625 851.05 645.1 848.5693359375 642.7564453125 848.75 640 848.9 637 852.1 635 854.3 633.85 858 633.1
L 868.75 630.7 868.125 621.3
M 792.475 635.15
Q 791.9365234375 626.608984375 791.45 614.6
M 723.25 600.35
Q 720.9 602.7 720.65 606.2 720.4 609.65 722.25 612.5 723.2236328125 614.017578125 724.675 615.15 725.75390625 616.008984375 727.1 616.65 729.7673828125 617.9392578125 732.75 618.075 733.123046875 618.1 733.5 618.1 735 618.1 737.85 617.85
M 825.8 719.85
L 825.8 709.15
Q 824.0568359375 708.9576171875 822.225 708.675 817.4666015625 707.9552734375 811.95 703.975 806.4453125 699.9978515625 802.85 692.35 802.53828125 691.698046875 802.225 691 799.8732421875 685.5966796875 798.1 677.75 798.008984375 677.3494140625 797.925 676.95
M 706.575 568.05
Q 694.6263671875 581.2529296875 689.8 598.275 688.775390625 601.8958984375 688.075 605.45 689.412109375 607.1890625 691.65 608.6 693.2 609.6 696 610.85 701.171484375 613.0765625 705.5 614.5 707.186328125 615.06328125 708.75 615.5 713.55 616.9 716.9 617 721.5 617.2 724.675 615.15
M 705.5 614.5
Q 704.8603515625 625.866796875 699 635.75 697.3021484375 638.4416015625 695.65 639.5 693.996875 640.5669921875 692.05 640.025 690.1009765625 639.4828125 689.275 638.225 688.451953125 636.958203125 687.95 634.4 685.0892578125 620.5544921875 688.075 605.45
M 514.6 506.1
Q 507.5 505 499.85 509.4 492.65 513.5 488.35 520.75 484.7 527.1 483 535.75 481.7 542.4 481.35 552 481.3029296875 554.1201171875 481.325 556.175 495.7763671875 580.013671875 508.4 596.9 509.4017578125 598.244921875 510.4 599.55 520.8953125 613.3501953125 532.35 624.9 539.4404296875 632.057421875 546.9 638.35 557.699609375 647.4587890625 570.15 654.25 580.2001953125 659.743359375 591.325 663.725 616.2365234375 672.641015625 634.925 672.825 653.60078125 673.0005859375 666.475 669.95 679.365625 666.9099609375 689.15 658.35 698.9373046875 649.790234375 704.575 637.725 710.2064453125 625.6587890625 710.1 616.4
M 707.85 630.6
Q 718.25 640.75 724.85 646.75
M 732.75 618.075
Q 729.1884765625 632.114453125 726.725 646.25 720.150390625 683.9283203125 721.35 722.5
M 1013.525 666.2
Q 1009.33671875 670.090234375 1003.375 672.3 992.5841796875 676.2876953125 963.8 677.825 935.0208984375 679.36640625 899 674.9 893.6275390625 677.5265625 890.4 678.85 891.2626953125 682.6638671875 890.45 686.525 889.7537109375 689.918359375 887.75 693.35 883.7041015625 700.2544921875 877.025 703.525 870.342578125 706.7802734375 863.525 708.15 856.69609375 709.5271484375 846.025 709.625 835.3615234375 709.72734375 831.175 709.575 828.596484375 709.4728515625 825.8 709.15
M 884.5 609.2
Q 884.4498046875 606.8009765625 884.35 604.1
M 868.75 630.7
L 873.6 629.75
Q 876.95 629.05 878.8 628.25 881.5 627.05 882.85 625.1 884.1263671875 623.2046875 884.425 619.75
M 823.95 631.45
L 833.45 631.45
Q 838.45 631.45 838.45 636.45
L 838.45 655.55
Q 838.45 660.55 833.45 660.55
L 823.95 660.55
Q 818.95 660.55 818.95 655.55
L 818.95 636.45
Q 818.95 631.45 823.95 631.45 Z
M 847.625 668.525
Q 846.8251953125 671.948046875 848.35 674.85 851.1 680.35 858.75 682.6 867.85 685.25 879.1 682.5 883.55 681.5 888.9 679.45 889.58359375 679.194921875 890.4 678.85
M 802.225 691
Q 810.55 684.9 822.5 684.6 833.05 684.35 844.1 688.6 847.05 689.75 852.9 692.15 858.1 694.1 862 694.5 864.2970703125 694.853515625 866.725 694.95 869.1583984375 695.0390625 872.9 694.35
L 872.85 684
M 873.9 648.5
Q 865.55 649.55 861.5 649.25 855.4 648.8 851.6 645.6 851.3064453125 645.3544921875 851.05 645.1
M 851.45 663.4
Q 852.2201171875 663.946875 853.25 664.5 857.8 667 864.5 667 869 667.15 874.8 666.1
M 872.9 694.35
L 890.45 686.525
M 955.575 618.875
Q 966.8060546875 618.2494140625 978.15 618.65
M 1040.45 396.85
Q 1038.12578125 393.139453125 1035.5 389.6
M 353.75 291.5
Q 357.3 295.65 362.1 298.45 366.75 301.1 371.9 302.2 371.95 302.05 372.05 302 375.25 296.95 379.95 292.55 394.65 278.9 415.35 278.9 431.2 278.9 443.55 286.9 465.1 265.25 480.85 238.65 496.7 211.8 505.25 182.25 511.65 188.75 514.55 192.55 528.45 210.1 531.15 238.1 531.75 243.95 531.8 250.6 531.8 256.25 531.45 262.5 531.405078125 263.4001953125 531.35 264.375 541.636328125 257.4546875 548.05 246.15 554.6 234.65 556.2 220.3 557.8 206.35 554.5 192.4 551.15 178.15 543.35 166.85 528.5 145.3 501.4 131.95 477.95 120.4 447.75 116.1 409.7 110.6 371.2 116.3 368.238671875 116.7421875 365.3 117.25 333.35 138.25 315.85 163 303.15 181 295.9 204.25 289.4 225.25 287.6 249.6 286.05 270.05 287.6 295.6 288.4974609375 311.0068359375 291.725 341.425 293.8357421875 343.04765625 295.85 344.95 302.55 351.25 307.35 359.75 322.8 356.45 337.2 351.15 350.8 346.15 366.45 337.7
M 394.05 226.7
Q 402.6 218.45 413.35 213.35 424.2 208.2 436.15 207.75
M 443.55 286.9
Q 443.65 286.95 443.8 287.05 447.4 289.45 450.7 292.55 458.05 299.4 461.7 307.6 464.85 300 471.05 293.7 483.6 280.85 501.4 280.85 514.5 280.85 524.8 287.9 525.4 288.3 526.4 289 527.55 289.85 528.9 291 529.2 288.2 529.4 286.95 529.9 282 530.3 277.75 531.0224609375 269.887890625 531.35 264.375
M 380.5 291.7
Q 373.4 287.95 369.55 280.45
M 459.75 361.7
Q 464.6 357.25 470.45 354.95 465.05 349.25 462.1 342.55 458.4 351.3 450.7 358.45 436.1 372.15 415.35 372.15 394.65 372.15 379.95 358.45 365.35 344.8 365.35 325.5 365.35 312.55 371.9 302.2
M 378.55 386.25
Q 378.55 394.7 372.85 400.7 367.25 406.65 359.25 406.65 351.3 406.65 345.6 400.7 340 394.7 340 386.25 340 377.8 345.6 371.85 346.1 371.35 346.6 370.9
L 346.6 370.85
Q 351.95 365.85 359.2 365.85 366.5 365.85 371.85 370.85 372.35 371.35 372.85 371.85 378.55 377.8 378.55 386.25 Z
M 356 427.7
Q 363.05 425.95 368.85 422.15 370.5 421.05 372 419.9 375.9 416.65 378.15 413.8 379.9 411.75 382.1 408.3 382.95 406.95 384.2 404.2 386.55 398.8 387.05 393.2 387.45 389.35 386.95 385.55 386.75 383.7 386.25 381.8 384.75 376.05 381.4 371.65 381.3 371.5 381.2 371.45
M 382.1 408.3
Q 400.7 421.15 423.6 426.1 445.95 430.9 468.95 428.85 475.75 428.2 480.7 426.95 487 425.4 491.7 422.55 495.65 420.15 498.45 416.8 491.9 416.7 485.65 416.1 482.6 415.85 481.7 414.3 481.25 413.55 481.25 412.45 481.25 411.95 481.5 410.5 482.45 406.2 483.6 402.1 481.05 402.5 478.05 402.95 471.25 404.15 464.4 404.15 465.15 408.35 464.4 412.8 463.8 415.4 462.75 416.35 462.05 417 460.85 417.2 460.35 417.3 458.7 417.4 453.55 417.4 453.25 417.4 450.2 417.3 447.9 417 444.5 416.45 443.15 414.7 442.45 413.75 442.25 412.35 442.1 411.45 442.1 409.7
L 442.15 401.35
Q 438.9 400.5 435.65 399.4 431.25 397.8 423.5 394.4 421.95 393.7 420.55 393.1 421.55 397 421.65 400.85 421.9 405.75 419.55 407.5 418.4 408.35 416.55 408.35 415.4 408.35 413.3 407.9 404.25 406.2 399.8 405.25 398.35 404.95 397.65 404.65 396.5 404.2 395.9 403.4 395.2 402.55 395.05 401.25 394.95 400.4 395.05 398.75
L 396 385.4
Q 391.2 384.9 386.95 385.55
M 461.7 307.6
Q 463.1 310.7 463.95 314.1 465.35 319.55 465.35 325.5 465.35 329 464.9 332.3 464.1 337.65 462.1 342.55
M 464.9 332.3
Q 463.6 332.8 462.15 332.8 458.85 332.8 456.45 330 454.1 327.25 454.1 323.35 454.1 319.4 456.45 316.6 458.85 313.85 462.15 313.85 463.1 313.85 463.95 314.1
M 420.55 393.1
Q 414.4 390.45 411.4 389.35 403.05 386.15 396 385.4
M 470.45 354.95
Q 472.4 354.15 474.45 353.65 479.25 352.45 483.85 352.95 488.85 353.5 492.55 356.05 495.45 358 497.2 361.1 498.95 364.3 498.95 367.8 498.95 368.05 498.9 368.3 500.15 368.35 501.4 368.35 517.45 368.35 529.25 357.9 530.1 357.15 530.95 356.35
M 498.9 368.3
Q 498.6 371.4 496.5 375.1 496.05 375.8 495.6 376.45 493.85 378.85 491.4 380.75 488.3 383.2 484.65 384.35 480.2 385.75 474.5 385.3 470.55 385 464.2 383.55
M 500.7 229
Q 508.5 229 516.1 233.75 521.5 237.05 528.45 244
M 528.9 291
Q 530.25 292.15 531.75 293.7 538.75 300.8 541.9 309.6 544 308.9 545.95 307.85 547.85 306.8 549.4 305.1 551 303.4 551.25 302.3
M 543.4 334.4
Q 542.35 334.9 541.2 334.9 538.35 334.9 536.35 331.95 534.35 329.05 534.35 325 534.35 320.9 536.35 317.95 538.35 315.1 541.2 315.1 542.45 315.1 543.55 315.65 542.95 312.55 541.9 309.6
M 543.55 315.65
Q 544.35 319.95 544.35 324.6 544.35 329.7 543.4 334.4
M 536.35 386.85
Q 536.35 393.7 532.1 398.5 527.85 403.3 521.85 403.3 515.85 403.3 511.6 398.5 507.35 393.7 507.35 386.85 507.35 380 511.6 375.15 514.5 371.9 518.15 370.85 519.9 370.35 521.85 370.35 523.8 370.35 525.55 370.85 529.2 371.9 532.1 375.15 536.35 380 536.35 386.85 Z
M 536.85 299.2
Q 542.45 294.35 545.35 287.6
M 247.4 151.6
Q 240.9 152.75 234.7 152.9 233.891015625 152.91171875 233.1 152.875 232.93515625 152.881640625 232.775 152.875 230.5205078125 153.8228515625 228.7 155.55 226.75 157.4 225.6 159.75 224.55 161.8 224.4 164 224.2 166.35 225.1 168.35 226.25 170.75 229 172.2 231.4 173.401171875 233.95 173.725 236.5 174.046484375 240.25 173.975 243.95 173.9056640625 246.15 173.65 264.392578125 155.1419921875 292.5 141.025 271.35 135.35 260.75 133.65 243.3 130.9 229.35 133 222.6 133.95 219.35 136.6 217.2 138.35 216.35 141.05 215.4 143.9 216.5 146.25 217.9 149.25 222.75 151 227.415625 152.6927734375 232.775 152.875
M 361.1 721.05
Q 360.6423828125 704.2677734375 365.1 688.9 360.1283203125 694.3390625 353.5 698.25 331.4 711.35 296.6 706.1 275.8 702.8 260 693.8 241.75 683.45 233.85 667.35 228.55 656.55 227.65 642.6 226.9 631.1 229.1 616.6 234.85 579.25 253.9 545.7 273 512.1 303.55 487.5 303.4650390625 482.9408203125 304.35 478.45 306.446875 467.4662109375 313.725 460.775 299.0537109375 441.9650390625 290.25 418.3 278.6 419.6 270 418.5 258.9 417.15 251.15 411.75 241.7 405.25 237.15 392.75 233 381.55 233.65 368.4 234.5 353.9 240.75 345.3 246.75 336.95 257.55 333.9 263.2345703125 332.36953125 268.45 332.5 268.5048828125 331.8837890625 268.35 330.6 265.15 300.9 264.9 278.45 264.55 250.25 268.6 226.5 273.25 199.4 283.9 176.45 295.45 151.5 314.775 131.175 306.2853515625 134.4580078125 298 138.35 295.209765625 139.6650390625 292.5 141.025
M 246.15 173.65
Q 246.0703125 173.728515625 246 173.8 238.7111328125 181.2234375 233 189.35 214.8 215.25 208.75 254.65 204.9984375 278.8123046875 203.925 301.6 202.855078125 324.4005859375 203.075 359.6 203.2986328125 394.7904296875 201.175 438.025 199.048828125 481.2546875 196.5 493.45 192.7953125 511.1544921875 184 521.825 175.2138671875 532.4861328125 157.025 546.85 138.8359375 561.215234375 128.175 573.625 117.505078125 586.041015625 113.85 610.975 110.1978515625 635.9173828125 120.25 657.225 130.3015625 678.5369140625 153.1 689.6 175.8244140625 700.6177734375 198.5 697.75 199.4373046875 690.153125 204.125 684 208.8009765625 677.8376953125 213.3 675.6 217.8080078125 673.36640625 219.85 673.6 222.45 673.6 223.6 675.1 224.75 676.45 224.5 678.45 224.25 680.25 223 682 221 684.85 216.65 688.4 208.6751953125 694.956640625 198.5 697.75 198.0033203125 705.362109375 198.2 709.15 198.55 715.6 200.6 720.35
M 291.725 341.425
Q 285.3751953125 336.5416015625 278.2 334.25 274.602734375 333.14453125 270.975 332.775 269.9212890625 332.665625 268.45 332.5
M 313.725 460.775
Q 317.2228515625 465.2478515625 321.05 469.45 336.913671875 486.7947265625 356.05 498.325 361.4732421875 501.6001953125 367.15 504.4 389.5513671875 515.4302734375 414.2 518.275 418.491796875 518.75546875 422.85 519 444.095703125 520.2080078125 463.75 515.275 471.757421875 513.274609375 479.5 510.25 481.04921875 509.658203125 482.55 509.05 498.2685546875 502.694921875 509.525 494.4
M 303.55 487.5
Q 303.6330078125 493.245703125 305.25 499.1 307.6 508.05 313.45 517.95 314.6931640625 520.06171875 316.45 522.725 319.8248046875 527.8796875 325.1 535.1 330.630859375 542.660546875 335.325 548.225 334.22734375 542.213671875 332.25 530.35 331.25 524.6 330.95 521.75 330.5 516.95 331 513.1 331.7 508.45 333.75 504.85 336.1 500.8 339.825 498.675 334.7275390625 494.1001953125 330.25 488.85
M 365.1 688.9
Q 369.8150390625 683.7650390625 373.05 677.25 373.11328125 677.12578125 373.175 677
L 373.2 676.95
Q 377.1109375 668.9892578125 378.05 661.1 378.045703125 661.0611328125 378.05 661.025 378.7732421875 654.7421875 377.6 648.5 373.9904296875 648.6626953125 370.4 648.55 370.3607421875 657.574609375 368.4 664.725 366.4275390625 671.8732421875 363.825 675.6 361.2318359375 679.3341796875 359.25 680.95 357.2701171875 682.573046875 355.15 682.65 353.0205078125 682.7240234375 350.2 681.075 347.3890625 679.419921875 345.2 675.1 343.0033203125 670.79296875 341.9 661.9 341.05 655.35 341.85 645.5 342.95 632.9 345.35 623.8 348.4 612.25 354.1 604 357.673046875 598.965234375 362.05 595.1 348.468359375 592.9505859375 328.2 592.125 307.9361328125 591.2994140625 298.525 591 296.028515625 590.9205078125 293.35 591 285.923046875 591.243359375 277.1 592.75 262.5 595.15 251.8 602.75
M 316.45 522.725
Q 298.8013671875 553.591796875 293.35 591
M 276.6 701.6
Q 275.8 703 275.3 705.1 275.05 706 274.6 708.75 273.6 717.25 273.5 721.6
M 368.85 422.15
Q 371.9 427.6 375.6 432.5 385.5 429.15 396.55 428.95 406.05 428.8 414.7 431 424 433.35 431.4 438.2 439.35 443.3 444.75 450.85 450.15 458.25 453.15 466.65 464.6 464.9 476.5 458.6 496.15 448.15 506 429.55 509.15 423.55 509.8 418.1 510.5 411.5 507.3 407.1 505.8 405 503.6 403.65 503.6 404.35 503.55 405.05 503.15 409.75 500.3 414.25 499.45 415.6 498.45 416.8
M 503.6 403.65
Q 499.9 401.35 494.25 401.2 490.85 401.1 483.6 402.1
M 464.4 404.15
Q 460.5 404.15 456.6 403.85 449.25 403.2 442.15 401.35
M 375.6 432.5
Q 384.6 444.55 397.25 453.2 415.5 465.6 436.05 467.2 444.15 467.8 453.15 466.65
M 356.05 498.325
L 356.35 510.825
Q 358.4853515625 512.111328125 360.7 513.3 378.35 522.8 397.85 525.25 406.6798828125 526.2958984375 413.2 524.925 413.758203125 524.8078125 414.3 524.675
L 414.2 518.275
M 339.825 498.675
Q 347.4048828125 505.5044921875 356.35 510.825
M 335.325 548.225
Q 339.881640625 553.602734375 343.65 557.1 355.35 567.95 367.75 570.25 370.53828125 570.7802734375 373.5 570.9 379.2013671875 571.15 385.55 569.9 392.95 568.5 402.85 564.6 405.465625 563.5681640625 408.05 562.475 413.808984375 552.703515625 415.5 544 417.3302734375 533.1669921875 413.2 524.925
M 373.5 570.9
L 373.25 587.75
Q 383.1 582.9 391.35 584.25 396.2 585.05 400 587.95 403.993359375 590.994921875 404.95 597.225 409.2078125 597.1791015625 412.6 599.1 415.9 601.1 416.6 603.85 417.15 605.9 416.45 608 415.75 610.05 414.1 611.5 413.0548828125 612.4662109375 411.675 613.2 413.4 616.4 412.9 620.1 412.45 623.7 410.25 626.5 409.054296875 627.9837890625 407.5 629.05 408.5 633.2 406.7 636.95 404.95 640.4 401.75 642.75 396.7 646.2 387.5 647.6 382.53125 648.3021484375 377.6 648.5
M 408.05 562.475
Q 428.6201171875 553.7046875 447.1 540.6 455.9234375 534.3642578125 464 527.35
L 463.75 515.275
M 464 527.35
Q 473.8337890625 518.7806640625 482.55 509.05
M 414.3 524.675
Q 420.4111328125 523.1474609375 424.35 519.35
M 481.325 556.175
Q 481.3986328125 567.0869140625 483.225 576.3 485.3873046875 587.2560546875 489.675 594.25 493.9673828125 601.2490234375 498.05 602.075 502.134765625 602.8916015625 504.95 601.375 507.45859375 600.017578125 508.4 596.9
M 472.25 634.35
Q 473.25 635.1 474.75 637.1 477.6525390625 641.79921875 478.675 646.875 478.8298828125 646.789453125 478.975 646.7 483.0228515625 644.19765625 487.7 643.3 492.75 642.4 497.7 643.575 499.6373046875 641.266015625 502.4 639.75 506.65 637.45 511 638.1 519.65 639.3 526.6 651.75 527.85 653.9 528.45 654.8 529.65 656.45 530.85 657.25 532.65 658.45 535.15 658.75 537 659 539.75 658.75 536.8015625 641.69609375 532.35 624.9
M 411.675 613.2
Q 409.537109375 614.3048828125 406.6 614.85 401.4 615.8 395.6 614.65
M 478.675 646.875
Q 478.775390625 647.3138671875 478.85 647.75 479.85 653.75 478.1 659 477.3291015625 661.4228515625 475.65 664.25 477.6 666.6 480.05 668.2 482.65 669.9 485.5 670.25 488.4 670.65 491.3 669.8 494.3 668.95 496.5 667
M 471.6 692.35
Q 471.8349609375 692.0384765625 472.05 691.725 474.0146484375 688.9755859375 475.275 685.85 476.6125 682.5380859375 477.15 678.8 478.1880859375 671.2369140625 475.65 664.25 475.1453125 665.11875 474.55 666 473.25 667.95 469.75 672.35
M 475.275 685.85
Q 478.9544921875 687.35234375 480.45 688.1 482.314453125 689.0830078125 483.35 689.9 483.8865234375 690.1 484.1 690.1 489.15 690.7 494.5 689.5 499.8392578125 688.4240234375 502.85 685.625 502.917578125 685.5794921875 502.975 685.525
L 503 685.5
Q 503.68671875 684.848046875 504.25 684.1 505.95 681.75 506.4 678.2 506.578515625 676.9755859375 506.625 675.25 506.648046875 673.5935546875 506.55 671.475 506.046484375 671.658984375 505.5 671.75 502.15 672.35 499.05 669.6 496.3 667.15 495 663.25 493.45 658.9 493.65 654.4 493.71953125 653.105859375 493.925 651.875 491.9 650.85 489.55 650.85 487.2 650.8 485.25 651.75
M 483.35 689.9
Q 484.3185546875 690.7703125 484.85 691.35 487.194921875 694.2029296875 488.625 699.8 489.188671875 701.9884765625 489.35 704.125 494.525 705.09765625 497.25 704.85 501.8 704.4 504.35 701.5 505.7 699.95 506.25 697.65 506.8 695.5 506.5 693.25 505.903515625 689.7623046875 503.325 686.025
L 503.3 686
Q 503.1451171875 685.762890625 502.975 685.525
M 393.25 599.5
Q 399.85 597.6 403 597.35 403.9951171875 597.2404296875 404.95 597.225
M 373.05 677.25
Q 384.5 678.35 395.5 677.6 399.6 677.4 401.35 675.85 402.85 674.65 403.45 672.4 403.85 670.8 403.85 668.1 403.65 664.8 402.5 663.5 401.5 662.25 399.55 661.7 398.3 661.35 396 661.25 385.1466796875 661.0033203125 378.05 661.1
M 342.35 643.6
Q 356.20859375 648.1361328125 370.4 648.55
M 407.5 629.05
Q 403.6365234375 631.65 397.55 631.65
M 506.55 671.475
Q 508.5947265625 670.8041015625 510.15 668.85 511.95 666.55 512.25 663.6 512.5 661.1 511.85 658 511.45 655.95 510.35 652.5
M 497.7 643.575
Q 496.7501953125 644.6953125 496 646 494.4845703125 648.70625 493.925 651.875
M 506.625 675.25
Q 506.9 676.05 507.75 676.75 511 679.85 515.5 680.25
M 570.15 654.25
Q 563.65 656.7 555.2 657.7 549.8 658.35 539.75 658.75
M 726.725 646.25
Q 676.379296875 678.0365234375 629.775 689.15 582.25703125 700.4916015625 544.75 702.05 545.35 712.7619140625 545.35 723.5
M 489.35 704.125
Q 489.589453125 707.4298828125 488.85 710.6
M 504.35 701.5
Q 524.58515625 702.8806640625 544.75 702.05
M 373.25 587.75
Q 367.11328125 590.644140625 362.05 595.1
M 365.3 117.25
Q 339.1525390625 121.737890625 314.775 131.175"/>
</defs>

<g transform="matrix( 1, 0, 0, 1, 0,0) ">
<use xlink:href="#Layer2_0_FILL"/>
</g>

<g transform="matrix( 1, 0, 0, 1, 0,0) ">
<use xlink:href="#Layer0_0_FILL"/>

<use xlink:href="#Layer0_0_1_STROKES"/>
</g>
</svg>
