
<svg xmlns="http://www.w3.org/2000/svg" version="1.1" xmlns:xlink="http://www.w3.org/1999/xlink" preserveAspectRatio="none" x="0px" y="0px" width="1280px" height="720px" viewBox="0 0 1280 720">
<defs>
<g id="Layer1_0_FILL">
<path fill="#FFFFFF" stroke="none" d="
M 1280 720
L 1280 0 0 0 0 720 1280 720 Z"/>
</g>

<g id="Layer0_0_FILL">
<path fill="#000000" stroke="none" d="
M 597.15 163.8
Q 588.7 172.25 588.7 184.2 588.7 196.15 597.15 204.6 599.5251953125 206.9751953125 602.15 208.65 606.7708984375 207.6953125 610 209.25 612.36171875 210.430859375 613.85 212.85 615.662109375 213.05 617.55 213.05 629.5 213.05 637.95 204.6 646.4 196.15 646.4 184.2 646.4 172.25 637.95 163.8 629.5 155.35 617.55 155.35 605.6 155.35 597.15 163.8
M 595.85 171.45
Q 597.45 169.85 599.7 169.85 601.95 169.85 603.55 171.45 605.15 173.05 605.15 175.3 605.15 177.55 603.55 179.15 601.95 180.75 599.7 180.75 597.45 180.75 595.85 179.15 594.25 177.55 594.25 175.3 594.25 173.05 595.85 171.45
M 557.55 187.65
Q 548.05 178.15 534.65 178.15 521.25 178.15 511.75 187.65 502.25 197.15 502.25 210.55 502.25 223.95 511.75 233.45 521.25 242.95 534.65 242.95 548.05 242.95 557.55 233.45 567.05 223.95 567.05 210.55 567.05 197.15 557.55 187.65
M 520.35 203.9
Q 520.35 206.6 518.4 208.5 516.5 210.45 513.8 210.45 511.1 210.45 509.15 208.5 507.25 206.6 507.25 203.9 507.25 201.2 509.15 199.25 511.1 197.35 513.8 197.35 516.5 197.35 518.4 199.25 520.35 201.2 520.35 203.9 Z"/>
</g>

<path id="Layer0_0_1_STROKES" stroke="#000000" stroke-width="1" stroke-linejoin="round" stroke-linecap="round" fill="none" d="
M 430.6 82.5
Q 425.85 107.05 430.6 131.6 431.5 136.35 433.4 145.85 434.65 154.05 433.6 160.1 432.1 169.65 424.85 176.9 419.6390625 182.1109375 413.225 184.4 411.75 199.45 417.45 217 421.55 229.45 431.1 247.6 446.05 275.9 462.6 301.85
L 464.25 304.25
Q 464.5490234375 304.253515625 464.85 304.25 473.25 304.15 489.55 306.4
L 512.2 255.575
Q 506.4279296875 252.178515625 501.4 246.9 487.4 232.15 487.4 211.3 487.4 190.45 501.4 175.7 515.45 160.95 535.25 160.95 555.05 160.95 569.05 175.7 570.4677734375 177.18828125 571.75 178.75 573.284375 163.2587890625 584.65 151.85 597.85 138.7 616.5 138.7 635.15 138.7 648.3 151.85 661.5 165.05 661.5 183.7 661.5 199.1974609375 652.375 210.9 669.2158203125 228.441796875 677 239.3 689.25 256.35 692.75 272.75 698.6 300.25 682 327.65 676.0740234375 337.4125 668.45 345.45 676.41640625 349.58515625 681.85 356.55 682.528125 357.4109375 683.15 358.3
L 685.1 358.2
Q 723.278125 354.725 758.6 338.85 763.3 336.75 765.9 334.75 766.905078125 333.965234375 767.85 333.075 770.3072265625 330.7572265625 772.325 327.75 772.307421875 327.5001953125 772.3 327.25 767.7 321.55 763.45 313.7 760.75 308.85 756.25 299.25 752.3 291.05 750.75 286.8 748.05 279.75 747.5 273.75 747.05 270.2 748 267.4 749.05 264.05 751.75 263.1 754.3 262.2 757 263.85 759.45 265.3 761 268 762 269.6 763.2 272.4 764.8 276.15 765.25 277 768.1 282.4 771.6 284.25 773.9 285.4 776.55 285 779.25 284.55 780.6 282.6
M 652.85 156.25
Q 655.65 155.15 657.8 152.9 659.95 150.7 661 147.85
M 794.6 306.1
Q 795.55 303.5 795.3 300.55 795.1 297.7 793.85 295.1 791.7 290.55 786.6 286.75 784.75 285.45 783.85 284.75 782.3 283.6 781.35 282.5 780.25 281.15 779.75 279.6 779.25 277.85 779.75 276.35 780.18671875 275.0978515625 781.3 274.25
L 780.6 274.1
Q 776.15 272.8 773.35 268.75 772.05 267.2 772.25 265.5 772.3 264.1 773.65 263 774.8 262.05 776.35 261.6 778.119140625 261.083203125 780.1 260.975
L 779.5 260.1
Q 778.15 257.7 779 254.75 779.6 252.55 781 251.5 782.85 249.8 786.35 250.25 790.45 250.7 794.05 253.8 797.35 256.65 799.25 260.85 800.75 264.5 801.4 269.3 801.520703125 270.1984375 801.625 271.25 801.890234375 274.11171875 802 278.1
M 801.625 271.25
L 800.75 270.35
Q 798.05 267.2 794.35 264.9 790.7 262.65 786.6 261.6 783.105859375 260.816796875 780.1 260.975
M 810.5 304.5
Q 811.9 299.2 810.85 293.6 809.85 288.15 806.75 283.6 803.65 279.1 798.8 276.2 794.5859375 273.6802734375 789.925 272.925 788.8462890625 272.85 787.75 272.85 786.75 272.85 784.05 273.05 783.9388671875 273.057421875 783.825 273.075 783.5369140625 273.1484375 783.25 273.25 782.1015625 273.6466796875 781.3 274.25
M 789.925 272.925
Q 789.2146484375 272.8220703125 788.5 272.75 785.9908203125 272.441796875 783.825 273.075
M 652.375 210.9
Q 650.53125 213.2771484375 648.3 215.5 635.15 228.7 616.5 228.7 614.6201171875 228.7 612.8 228.575 611.5359375 230.48203125 609.75 232.35 607.8 234.3 604.7 236.75 601.1 239.5 599.35 240.85
M 652.1 210.6
Q 652.2427734375 210.7486328125 652.375 210.9
M 675.3 254.1
Q 675.3 255.5 674.3 256.45 673.35 257.45 671.95 257.45 670.55 257.45 669.55 256.45 668.6 255.5 668.6 254.1 668.6 252.7 669.55 251.7 670.55 250.75 671.95 250.75 673.35 250.75 674.3 251.7 675.3 252.7 675.3 254.1 Z
M 675.85 267.6
Q 675.85 268.2 675.4 268.65 674.95 269.1 674.35 269.1 673.75 269.1 673.3 268.65 672.85 268.2 672.85 267.6 672.85 267 673.3 266.55 673.75 266.1 674.35 266.1 674.95 266.1 675.4 266.55 675.85 267 675.85 267.6 Z
M 656.1 240.5
Q 654.05 247.4 654.5 255 654.95 262.4 657.6 269.35 659.27578125 273.699609375 661.475 277.025 665.1380859375 282.5380859375 670.25 285.25
M 542.5 321.75
Q 544.359375 322.3376953125 546.3 322.775 552.9287109375 315.6767578125 561.5 310.8 570.3 305.85 580 303.85 589.6 301.8 599.65 302.85 609.2009765625 303.905859375 618.025 307.675 621.8666015625 305.7380859375 625.65 303.6 644.75 292.8 660.6 277.85
L 661.475 277.025
M 533.75 283.35
Q 533.859765625 283.2693359375 533.975 283.2 533.8978515625 283.031640625 533.825 282.875 529.3078125 285.9171875 527.15 291.9 525.3 297.15 525.5 303.75 525.55 306.35 526.5 315.5 527.25 322.75 526.75 327.25 526.6 329 525.2 336.65 524.15 342.4 524.5 346 525 351 528.45 354.6 532.15 358.5 536.6 357.6 538.95 357.1 541.2 355.1 542.6 353.9 544.85 351.1 549.55 345.7 553.2 343 558.35 339.15 563.5 338.75 568.35 338.3 577.1 341.55 586.25 344.95 590.75 344.85 596.5 344.6 602 340.6 605.7 337.95 611.35 331.7 618 324.3 620.6 322 626.1 317.05 631.5 315.5 634 314.8 640.35 314.25 646.05 313.7 649.1 312.5 657.25 309.3 659.5 299.35 661.75 289.75 657 281.75
M 651.1 371.1
Q 656.7 373.8 659.65 375.65 664.15 378.55 666.85 382 670.7 386.85 672.1 394.5 673 399.5 673.1 408.5
M 668.45 345.45
Q 661.150390625 353.1392578125 652.3 359.25 653.2873046875 361.73984375 652.9 364.8 652.4 368.45 650.1 371.6 648.15 374.25 644.85 376.55 642.4 378.2 638.5 380.1 617.88828125 390.0208984375 588.9 392.4 583.995703125 392.8119140625 578.85 393 565.2 393.55 555.35 391.95 553.1607421875 391.59375 551.075 391.125 546.68359375 395.662890625 544.5 402.65 542.5 408.95 542.5 416.5 542.7 426.35 546 433
M 683.15 358.3
Q 687.7650390625 364.8525390625 689 372.35 690.5 381.85 686.35 391.8 682.5 401.05 674.85 408.1 673.9921875 408.9068359375 673.075 409.7 673.670703125 412.3548828125 675.75 414.85 677.4 416.85 680.5 419.25 682.105078125 420.510546875 683.75 421.725
L 685.25 421.6
Q 714.1 421.1 728.4 419.85 752.3 417.75 770.6 412.1
M 772.325 327.75
Q 772.434375 329.1990234375 773 330.65 774.2 333.7 776.65 335.5 783.05 341.1 792.6 342.75 799.15 344 810.25 344
M 785.25 312.1
Q 782.7 312.4 779.5 315.1 773.7 320 772.6 324.75 772.282421875 325.9994140625 772.3 327.25
M 776.65 335.5
Q 774.7521484375 362.0626953125 775 392.1 775.1 397.45 776.65 401.1 778.6 405.7 782.5 406.1 787.2 406.6 791.75 400.5 804.75 383.6 809.1 357.5 810.2171875 350.9083984375 810.85 342.6 811.9138671875 328.6091796875 811.6 309.75 811.6 307.8 811.75 306.85 812 305.25 812.75 304.25 814.45 301.95 819.6 301.75 832.5 301.35 844.2 304.75 856.8 308.35 866.1 315.85 875.95 323.95 880.9 335.55 886.1 347.7 884.1 359.6 882.65 368.5 877.3 376.9 872.35 384.5 864.75 390.85 858.25 396.25 849.15 401.25 843.15 404.55 832.25 409.6 819 415.6 810.45 418.15 798.05 421.8 787.6 421.1 779.1 420.65 774.85 416.75 771.756640625 413.9453125 769.625 409.825 767.4833984375 405.7140625 765.75 386.125 764.0220703125 366.53125 767.85 333.075
M 889.35 594.15
Q 889.9341796875 576.598828125 888 558.75 887.4 553.1 886.6 549.8 885.45 544.95 883.35 541.5 880.8 537.45 876.8 535.2 872.45 532.8 868.25 533.6 863.25 534.55 859.45 539.7 856.7 543.45 854.25 550 848.775390625 564.6138671875 845.275 578.7 841.823828125 592.6328125 840.3 606.05 839.912109375 609.4439453125 839.65 612.8 838.6248046875 625.8818359375 839.5 638.075 840.934765625 657.704296875 847.3 675.05 851.9455078125 676.92265625 855.4 677.6 862.75 678.95 867.85 675.85 871.2 673.75 873.7 669.5 875.3 666.65 877.25 661.35 883.6494140625 642.6916015625 886.725 622.7 887.631640625 616.7568359375 888.25 610.7 889.085546875 602.4578125 889.35 594.15
L 908.625 602.1
Q 909.223828125 588.394921875 911.95 574.55 918.95 538.95 938.6 509.6 945.3 499.6 952 499.5 958 499.5 961.85 505.85 965 510.95 966 518.6 969.65 546.15 963.8 573.85 957.95 601.5 943.5 625.25 940.390625 630.3966796875 937.7 632.775 935.0185546875 635.1453125 930.775 637.325
L 930.75 637.325
Q 930.45546875 637.4505859375 930.15 637.55 926.381640625 638.7484375 921 637.15 915.1662109375 635.4166015625 910.025 633.05
L 886.725 622.7
M 843.25 536.25
Q 843.42421875 536.437109375 843.575 536.65 844.3380859375 536.565625 845.1 536.5 844.546875 536.3435546875 843.95 536.175 843.71640625 536.09765625 843.475 536.025 832.9802734375 532.855078125 810 523.7 788.5939453125 515.1279296875 775.4 512.7 775.3029296875 512.6826171875 775.2 512.65
L 775.15 512.65
Q 761.4224609375 520.346875 749.725 527.35 738.0189453125 534.350390625 716.625 555.05 695.2439453125 575.750390625 682.05 584.65 663.55 597 645.875 602.9 645.964453125 602.9251953125 646.05 602.95 667.3279296875 611.0490234375 692.6 620.75 699.3 623.2 702.2 624.1 707.6 625.8 712 626.35 714.0185546875 626.6220703125 715.925 626.7 721.4005859375 608.359375 733.775 593.775 747.43828125 577.664453125 765.95 565 801.55625 540.6404296875 843.575 536.65
M 845.1 536.5
Q 846.1 537.85 846.25 539.8 846.35 541.85 845.5 543.85 844.65 545.4 843.05 547.1 842.1 548.1 840 549.95 830 558.35 818.75 565.5
M 845.275 578.7
L 836.975 574.75
Q 833.5365234375 575.472265625 830.6 580.35 825.3611328125 589.13125 825 598.95
L 840.3 606.05
M 768.65 462.15
Q 768.65 463.75 767.15 464.85 765.7 466 763.65 466 761.6 466 760.1 464.85 758.65 463.75 758.65 462.15 758.65 460.55 760.1 459.4 761.6 458.3 763.65 458.3 765.7 458.3 767.15 459.4 768.65 460.55 768.65 462.15 Z
M 745.9 452.05
Q 745.9 452.7 745.4 453.15 744.95 453.65 744.3 453.65 743.65 453.65 743.15 453.15 742.7 452.7 742.7 452.05 742.7 451.4 743.15 450.9 743.65 450.45 744.3 450.45 744.95 450.45 745.4 450.9 745.9 451.4 745.9 452.05 Z
M 735.9 451.95
Q 735.9 452.7 735.35 453.2 734.85 453.75 734.1 453.75 733.35 453.75 732.8 453.2 732.3 452.7 732.3 451.95 732.3 451.2 732.8 450.65 733.35 450.15 734.1 450.15 734.85 450.15 735.35 450.65 735.9 451.2 735.9 451.95 Z
M 790.6 516.15
L 792.6 513.85
Q 800.85 504.3 801.3 490.4 801.75 476.95 794.85 465.75 788.35 455.15 776.6 448.2 765.65 441.65 752.35 439.6 731.28828125 436.524609375 705.525 444.525
L 704.75 445.85
Q 701.55 451.2 701 454.75 700.6 457.35 701.25 459.65 702 462.15 703.85 463.6 705.65 464.95 708.45 465.2 710.35 465.35 713.5 465 723.4 464.1 728.95 464.95 737.4 466.25 741.5 471.6 742.9 473.45 745.65 480.05 747.95 485.5 750.75 487.6 754.9 490.85 763.6 490.1 773.1 489.3 782.35 485.9 791.45 482.6 799.5 477.1
M 761.45 474.65
Q 761.45 476 760.2 476.95 759 477.95 757.25 477.95 755.5 477.95 754.25 476.95 753.05 476 753.05 474.65 753.05 473.3 754.25 472.3 755.5 471.35 757.25 471.35 759 471.35 760.2 472.3 761.45 473.3 761.45 474.65 Z
M 673 409.25
Q 673.037890625 409.4701171875 673.075 409.7 666.8609375 415.0599609375 658.35 419.25 657.500390625 419.6748046875 656.625 420.1 658.6982421875 431.4814453125 658.25 439.25 657.4 450.5 651.85 461.2 646.45 458.275 640.15 458.975 638.05 459.2125 635.85 459.85 633.45 460.7 632.15 461.4 630.15 462.4 628.85 463.75 625.5 467.3 625.5 473.35 625.3447265625 476.7984375 626.35 479.3 626.95859375 480.826171875 628 482 630.2 484.25 634.05 484.8 636.8 485.2 641.1 484.75
L 642.225 484.525
Q 646.540625 479.126171875 651.75 474.25 661.5880859375 465.0810546875 673.95 458
L 673.1 458.45
Q 668.8927734375 459.2630859375 662.6 458.85 659.959375 458.6908203125 659.875 457.175 659.7998046875 455.6552734375 660.85 451.5 661.8974609375 447.346484375 662.125 443.4 662.354296875 439.4513671875 662.275 438.025 662.194921875 436.5994140625 662.5 435.35 662.9 433.7 664.2 432.65 665.55 431.55 667 432 668 432.35 669.6 433.85 671.45 435.65 674 436.45 676.45 437.25 679.1 437 681.65 436.65 683.85 435.2 686.1 433.75 687.5 431.5 684.6 431.3 682 429.4 679.6 427.6 678 424.85 676.6 422.65 675.6 419.35 675.1 417.85 674.1 413.5
M 640.15 458.975
L 643.35 455.1
Q 646.9 450.8 648.7 445.35 650.5 439.9 650.25 434.25
L 650.2 432.875
Q 646.9900390625 439.774609375 641.2 446.7 635.8 453.15 620.85 466.75 596.6 488.8 582.55 508.45 564.65 533.5 559.75 558.85
L 559.425 560.2
Q 564.0927734375 562.8232421875 569.35 565.6 572.3 567.15 573.9 567.65 576.55 568.45 578.6 567.85 581.3 567.2 583.4 564.25 584.8 562.3 586.35 558.5 593.8 541.05 605.2 525.7 616.65 510.3 631.25 498.1
L 634.625 495.6
Q 637.9955078125 489.811328125 642.225 484.525
M 650.2 432.875
Q 652.648828125 427.6029296875 653.6 422.35
L 653.825 421.35
Q 648.773046875 423.54765625 642.725 425.525 641.191796875 426.0158203125 639.6 426.5 638.2525390625 426.91171875 636.9 427.3
L 634.7 430.1
Q 624.5 442.6 607.75 458.6 588.65 476.05 579.75 485.35 564.75 501.2 557.4 517.2 548.5 536.45 551.75 554
L 552.15 556.025
Q 555.588671875 558.0619140625 559.425 560.2
M 656.625 420.1
Q 655.2685546875 420.7380859375 653.825 421.35
M 673.95 458
Q 674.11953125 457.9029296875 674.3 457.8 686.74765625 450.72578125 701.75 445.75 703.655859375 445.1068359375 705.525 444.525
M 726 453.25
Q 726 455.4 723.65 456.9 721.3 458.45 717.95 458.45 714.6 458.45 712.25 456.9 709.9 455.4 709.9 453.25 709.9 451.1 712.25 449.55 714.6 448.05 717.95 448.05 721.3 448.05 723.65 449.55 726 451.1 726 453.25 Z
M 683.75 421.725
Q 700.1087890625 433.8166015625 719.25 440.5
M 780.25 509.7
Q 777.8 511 775.2 512.65
M 761.35 569.3
L 790.925 583.075 825 598.95
M 839.5 638.075
L 791.275 617.875
Q 783.4791015625 620.2306640625 778.85 627 776.75 630.25 775.8 634.15 774.85 638.05 775.25 642
L 775.275 642.725 842.6 673
Q 845.0841796875 674.1615234375 847.3 675.05
M 715.925 626.7
Q 724.9041015625 627.0400390625 731.5 623
M 720.05 617.3
L 775.275 642.725
M 908.625 602.1
Q 907.4828125 617.66484375 910.025 633.05
M 760.5 604.6
Q 778.198046875 596.92265625 790.925 583.075
M 733.775 593.775
L 791.275 617.875
M 789.3 552.8
L 836.975 574.75
M 583.25 75.75
Q 583.25 77.3 582.1 78.4 581 79.55 579.45 79.55 577.9 79.55 576.75 78.4 575.65 77.3 575.65 75.75 575.65 74.2 576.75 73.05 577.9 71.95 579.45 71.95 581 71.95 582.1 73.05 583.25 74.2 583.25 75.75 Z
M 551.225 50
Q 550.35234375 54.6943359375 550.5 57.55 550.75 61.85 553 64.35 555.05 66.6 561.1 68.25 567.25 69.85 569.35 72.1 571.05 74.05 572.5 79.4 573.9 84.55 575.85 86.5 578.55 89.25 587.3 90.15 595.5 91.05 597.85 94.5 597.962109375 94.670703125 598.075 94.85 599.048828125 96.5474609375 599.5 99.3 599.75 101 600.25 104.5 600.95 107.2 603.1 108.9 605.4 110.75 607.6 109.6
L 608.6 109.125
Q 605.2259765625 98.389453125 599.95 88.75 586.7 64.55 565 54.6 558.4701171875 51.623828125 551.225 50 537.771875 46.975390625 521.85 48.6 502.6 50.5 478.1 59.5 446.1 71.1 425 85.85 401.1 102.6 377.25 133 365.8068359375 147.6615234375 357.975 161.275 353.7658203125 168.5861328125 350.6 175.6 339.9125 199.312890625 340.2 221.25 340.2111328125 222.3021484375 340.25 223.35 340.75 236.2 345.25 251.25 345.4390625 251.8904296875 345.65 252.55
L 347.35 253.5
Q 353.65 257 361.15 253.05 368.2 249.35 371.35 242.1 373.9 236.5 374.8 227.7 375.5 217.7 376.1 212.75 376.9240234375 205.8283203125 379.25 200.425 379.7369140625 199.2822265625 380.3 198.2 384.2 190.85 390.6 188.25 393.9 186.9 399.2 186.5 407.75 185.8 408 185.75 410.7 185.3 413.225 184.4
M 562.6 113.1
Q 570.05 109.5 579.2 109.7 586.0892578125 109.823046875 593.05 112.025 587.9009765625 106.0603515625 582 100.8 563.55 84.25 541.5 78.25 539.2 77.6 537.85 77.5 535.85 77.35 534.35 78 531.1 79.25 530.1 83.7 529.4 87.05 530 91.85 533.9 126 530.75 160.1
M 506.35 135.6
Q 501.75 136.55 499.1 137.4 495.15 138.6 492.35 140.35 487 143.9 483.1 151.25 480.8 155.9 478.1 164.6
M 567.05 210.55
Q 567.05 223.95 557.55 233.45 548.05 242.95 534.65 242.95 521.25 242.95 511.75 233.45 502.25 223.95 502.25 210.55 502.25 197.15 511.75 187.65 521.25 178.15 534.65 178.15 548.05 178.15 557.55 187.65 567.05 197.15 567.05 210.55 Z
M 614 137.6
Q 612.7794921875 122.5103515625 608.6 109.125
M 641.35 145.75
Q 642.15 145.15 643 143.85 645.7 139.45 645.85 134.35
M 605.15 175.3
Q 605.15 177.55 603.55 179.15 601.95 180.75 599.7 180.75 597.45 180.75 595.85 179.15 594.25 177.55 594.25 175.3 594.25 173.05 595.85 171.45 597.45 169.85 599.7 169.85 601.95 169.85 603.55 171.45 605.15 173.05 605.15 175.3 Z
M 602.175 208.675
Q 599.5251953125 206.9751953125 597.15 204.6 588.7 196.15 588.7 184.2 588.7 172.25 597.15 163.8 605.6 155.35 617.55 155.35 629.5 155.35 637.95 163.8 646.4 172.25 646.4 184.2 646.4 196.15 637.95 204.6 629.5 213.05 617.55 213.05 615.662109375 213.05 613.85 212.85 614.203125 213.3875 614.5 214 616 217.1 615.75 220.5 615.3802734375 224.6345703125 612.8 228.575
M 610.35 138.25
Q 603.15859375 123.76796875 593.05 112.025
M 395.95 130.65
Q 395.95 131.45 395.4 132 394.85 132.55 394.05 132.55 393.25 132.55 392.7 132 392.15 131.45 392.15 130.65 392.15 129.85 392.7 129.3 393.25 128.75 394.05 128.75 394.85 128.75 395.4 129.3 395.95 129.85 395.95 130.65 Z
M 357.975 161.275
L 355.6 160.35
Q 350.7 158.5 346.4 153.75 343.3 150.35 339.6 144.25 337.15 140.3 336.2 138.9 334.2 136.05 332.1 134.25 329.65 132.05 326.65 131.2 323.4 130.2 320.5 131.1 317.85 132 315.9 134.5 314.1 136.85 313.5 139.75 312.35 144.5 314.6 151.25 317.7 160.6 325.95 169.85 331.0765625 175.513671875 341.825 184.65 332.45 186.55 324.85 194.1 319.15 199.5 313.5 210 311.75 213.3 310.95 215.55 309.8 218.65 309.75 221.35 309.75 226.65 312.6 229.35 315 231.75 319.6 232 324.25 232.15 329.3 229.4 332.75 227.55 337.85 223.35
L 340.2 221.25
M 409.8 154.55
Q 409.8 157.35 408.05 159.3 406.3 161.25 403.85 161.25 401.4 161.25 399.65 159.3 397.9 157.35 397.9 154.55 397.9 151.75 399.65 149.8 401.4 147.85 403.85 147.85 406.3 147.85 408.05 149.8 409.8 151.75 409.8 154.55 Z
M 386.6 152.05
Q 386.6 152.5 386.25 152.8 385.95 153.15 385.5 153.15 385.05 153.15 384.7 152.8 384.4 152.5 384.4 152.05 384.4 151.6 384.7 151.25 385.05 150.95 385.5 150.95 385.95 150.95 386.25 151.25 386.6 151.6 386.6 152.05 Z
M 474.35 198.5
Q 476.9 200.85 480.6 201.5 483.55 201.95 487.6 201.75
M 359.15 214.25
Q 359.15 217.7 357.85 220.1 356.6 222.55 354.8 222.55 353 222.55 351.7 220.1 350.45 217.7 350.45 214.25 350.45 210.8 351.7 208.35 353 205.95 354.8 205.95 356.6 205.95 357.85 208.35 359.15 210.8 359.15 214.25 Z
M 345.65 252.55
Q 348.76171875 262.747265625 355.1 278.1 371.9 318.75 392.5 358.25 401.2 374.95 403.75 385.5 407.65 401.4 401.35 412.6 397.45 419.65 387.45 426.65 387.1 426.9 378.9 432.35 373.7 435.8 370.6 438.35 356 450.45 351.25 470.3 346.6 489.9 353.75 507.75 360.85 525.35 377.45 536.8 393.85 548.15 413.1 549
L 415.225 549.05
Q 414.1451171875 537.989453125 419.1 529.1 424.35 519.55 435.35 515.75 435.7787109375 515.60078125 436.2 515.475
L 435 514
Q 429.4 507.1 429.25 496.1 429.1 487.95 432.1 476.25 437.7 454.45 445.6 433.1 448.65 424.8 451.4 419.95 455.35 413.05 460.6 409.35
M 379.25 200.425
Q 385.6310546875 230.95859375 401.8 258.5 418.05 286.3 442 307.1
L 443.575 308.525
Q 452.3548828125 304.4935546875 464.25 304.25
M 443.575 308.525
Q 443.08515625 308.7599609375 442.6 309 431.65 314.35 425.55 325.85 419.45 337.45 421.25 349.6 422.95 361.7 432.05 371.1 441.15 380.45 453.25 382.5
M 512.1 373.6
Q 513.15 371.5 512.65 369 512.2 366.55 510.5 364.75 507.45 361.35 501.75 361.35 497.85 361.55 494 363.8 490.55 365.85 487.6 369.25 485.35 371.8 482.85 376 480.05 380.9 478.6 383.25 476.35 387.05 474.65 386.75 472.5 386.3 472.25 383.1 472.05 380.1 473.25 377.25 474.3 374.85 476.35 372.25 477.55 370.8 480.35 367.85 482.85 365.15 484.2 363.3 486.15 360.65 487 358.1 488.2 354 486.6 351.6 485.7 350.1 483.75 349.3 481.95 348.55 480 348.75 476.7 349.05 473 351.85 465.5 357.1 460.9 365.3 456.35 373.55 455.85 382.6 453.9515625 395.95 459.675 406.525 465.3994140625 417.1 471.5 426.25 471.747265625 426.6185546875 472 426.975 477.31484375 434.9646484375 479.85 439.7 484.55 446.3 487 450.2 487.1923828125 450.488671875 490.75 457.025 490.82578125 457.163671875 490.9 457.3 490.964453125 457.2583984375 491.025 457.225
L 491.05 457.2
Q 496.1044921875 453.9119140625 500.05 449.15 504.4 443.85 506.75 437.5 507.8794921875 434.5083984375 508.325 431.725 508.3666015625 431.4552734375 508.4 431.175 508.4435546875 430.8548828125 508.475 430.525 508.6 429.3697265625 508.6 428.25 508.55 426.4 508 423.4 507.4 419.65 507.25 418.5 506.6 412.45 508.4 406.3 510.2 400.3 514 395.35 515.25 393.7 518 390.35 520.35 387.35 521.35 385 521.7236328125 384.003515625 521.9 383 522.30078125 380.787890625 521.75 378.55 520.9 375.05 518.1 373.85 513.5 371.9 507.1 377.5 496.25 387.15 491 400.35
M 602.175 208.675
Q 606.7708984375 207.6953125 610 209.25 612.36171875 210.430859375 613.85 212.85
M 650 255.6
Q 645.7 251.05 642.8 248.8 638.5 245.4 634.25 244.1 629.95 242.8 626.35 244.25 623.8 245.25 621.55 248 620.05 249.8 618.1 253.35
M 571.75 178.75
Q 583.1 192.55390625 583.1 211.3 583.1 212.5732421875 583.05 213.825 583.82265625 214.67265625 584.65 215.5 585.92421875 216.77421875 587.25 217.925 588.8650390625 216.3498046875 590.1 215.3 595 211.1 599.75 209.35 601.0068359375 208.934375 602.175 208.675
M 587.25 217.925
Q 584.9388671875 220.17578125 581.775 223.475 578.8021484375 236.662109375 569.05 246.9 555.05 261.65 535.25 261.65 522.5357421875 261.65 512.2 255.575
M 583.05 213.825
Q 582.8392578125 218.83828125 581.775 223.475
M 555.5 270.35
Q 555.7 271.45 555.5 274.35 555.5 276.8 556.85 278 557.85 278.65 559.5 278.85 565.55 279.6 569.1 278.85 574.75 277.8 577.25 273.85 578.75 271.45 578.95 267.85 579.1 265.5 578.6 261.35
M 593.8 256.9
Q 592.4310546875 257.1916015625 591.05 257.5 559.3869140625 264.56953125 533.975 283.2 537.4923828125 290.85546875 539.525 299.75 562.082421875 299.2251953125 584.05 292.6 606 286 625.25 273.85 628.45 271.8 630.3 270.3 632.85 268.15 634.5 265.85 636.35 263.3 636.95 260.25 637.55 256.95 636.35 254.175 629.6197265625 253.64140625 622.85 253.725 622.5 254.75 622.1 257.45 621.7 259.8 621 261 619.95 262.6 617.1 264 609.65 267.45 601.25 266.85 598.85 266.65 597.5 265.75 594.35 263.85 593.8 256.9 608.413671875 253.90703125 622.85 253.725
M 520.35 203.9
Q 520.35 206.6 518.4 208.5 516.5 210.45 513.8 210.45 511.1 210.45 509.15 208.5 507.25 206.6 507.25 203.9 507.25 201.2 509.15 199.25 511.1 197.35 513.8 197.35 516.5 197.35 518.4 199.25 520.35 201.2 520.35 203.9 Z
M 529.25 274.5
Q 531.782421875 278.4806640625 533.825 282.875
M 546.3 322.775
Q 554.4236328125 324.6650390625 563.95 324.1 573.75 323.5 585.5 320.25 602.3216796875 315.59296875 618.025 307.675
M 539.525 299.75
Q 543.4849609375 317.135546875 541.75 339.25
M 515.55 329.3
Q 515.55 331.5 513.6 333.05 511.7 334.65 508.95 334.65 506.2 334.65 504.25 333.05 502.35 331.5 502.35 329.3 502.35 327.1 504.25 325.5 506.2 323.95 508.95 323.95 511.7 323.95 513.6 325.5 515.55 327.1 515.55 329.3 Z
M 588.9 392.4
L 589.25 381.675
Q 586.310546875 382.0744140625 583.3 382.4 559.7 384.9 524.6 383.1
L 521.9 383
M 551.075 391.125
Q 541.186328125 388.8921875 533.75 384.1
M 652.3 359.25
Q 646.0359375 363.5693359375 639 367.1 617.44609375 377.831640625 589.25 381.675
M 476.1 216.5
Q 481.55 217.4 486.85 215.25
M 641.85 407.6
Q 644.95 415.75 643 424.35
L 642.725 425.525
M 636.9 427.3
Q 627.1791015625 430.1375 617.275 432.025 596.971484375 444.1546875 579.95 460.8 561.75 478.55 548.75 500
L 547.4 502.175
Q 544.0818359375 513.0455078125 533.9 522.5 525.4 530.35 510.85 538.25
L 509.55 538.875
Q 510.023828125 544.2193359375 510.1 544.6 511.85 552.4 522.2 559.95 525.05 562 530.95 566.1 535.1587890625 569.214453125 537.8 572.05 537.913671875 572.1775390625 538.025 572.3 565.35 593.55 595.95 601.4 622.6494140625 608.216796875 645.825 602.875
L 645.875 602.9
M 572.5 566.1
Q 571.65 559.7 573.75 552.25 575.35 546.5 579.1 539.1 596.65 504.7 623.3 481.6
L 626.35 479.3
M 617.275 432.025
Q 598.4490234375 435.59375 578.95 435.75 547.75 436 518.25 427.5
L 517.25 427.2
Q 519.9556640625 429.7646484375 521.9 431.75 529.4 439.3 534.25 446.35 541.95 457.75 546.35 472.5 550.85 488.4 548 500 547.736328125 501.1 547.4 502.175
M 507.85 418.6
Q 513.3431640625 423.5025390625 517.25 427.2
M 490.9 457.3
Q 493.5 462.3 495.45 465.05 500.7 472.45 508.5 477.55 516.3 482.65 525.2 484.45 528.65 485.15 530.35 484.3 532.55 483.25 533.45 480.3 534.6 476.75 533.45 472.1 532.7 469.2 530.35 464.05 524.5 452 521.15 446.45 515.4 437 508.4 431.175
M 542.6 512.85
Q 538.2 522.95 537.1 529.5 535.45 539 539.5 545.5 541.4 548.55 545 551.35 547.3 553.1 551.85 555.85 551.997265625 555.9373046875 552.15 556.025
M 509.55 538.875
Q 509.3908203125 537.208203125 509.2 535.05 508.75 529.35 506.35 526.6 503.7 523.6 498.85 523.1 494.85 522.7 490 524 484.45 525.85 481.6 526.6 476.65 527.85 473 527.1 469.2 526.35 464.2 522.75 457.1 517.55 455.85 516.85 446.9060546875 512.04140625 436.2 515.475
M 415.225 549.05
Q 415.262890625 549.3740234375 415.3 549.7 416.5 560.65 423 569.6 429.1 577.95 438.85 583.8 447.7 589.05 458.75 591.85 479.45 596.9 500.9 591.6 520.451953125 586.7119140625 535.45 574.475 536.752734375 573.4212890625 538.025 572.3
M 624.35 524.25
Q 626.35 510.25 633.8 497.05 634.2044921875 496.3248046875 634.625 495.6
M 472 426.975
L 471.6 428
Q 461.9 451.15 446.6 470.5
M 653.85 256.6
Q 645.1349609375 254.85703125 636.35 254.175"/>
</defs>

<g transform="matrix( 1, 0, 0, 1, 0,0) ">
<use xlink:href="#Layer1_0_FILL"/>
</g>

<g transform="matrix( 1, 0, 0, 1, 0,0) ">
<use xlink:href="#Layer0_0_FILL"/>

<use xlink:href="#Layer0_0_1_STROKES"/>
</g>
</svg>
