
<svg xmlns="http://www.w3.org/2000/svg" version="1.1" xmlns:xlink="http://www.w3.org/1999/xlink" preserveAspectRatio="none" x="0px" y="0px" width="1280px" height="720px" viewBox="0 0 1280 720">
<defs>
<g id="Layer2_0_FILL">
<path fill="#FFFFFF" stroke="none" d="
M 1280 720
L 1280 0 0 0 0 720 1280 720 Z"/>
</g>

<g id="Layer0_0_FILL">
<path fill="#000000" stroke="none" d="
M 597.65 385.85
Q 595.5 388 595.5 391 595.5 394 597.65 396.15 599.8 398.3 602.8 398.3 605.8 398.3 607.95 396.15 610.1 394 610.1 391 610.1 388 607.95 385.85 605.8 383.7 602.8 383.7 599.8 383.7 597.65 385.85
M 722.75 384.55
Q 724.6 382.5 724.6 379.6 724.6 376.7 722.75 374.65 720.95 372.6 718.35 372.6 715.75 372.6 713.9 374.65 712.1 376.7 712.1 379.6 712.1 382.5 713.9 384.55 715.75 386.6 718.35 386.6 720.95 386.6 722.75 384.55 Z"/>
</g>

<path id="Layer0_0_1_STROKES" stroke="#000000" stroke-width="1" stroke-linejoin="round" stroke-linecap="round" fill="none" d="
M 470.65 722.55
Q 470.621484375 722.430859375 470.6 722.3
L 413.05 722.7
Q 386.5 677.9 378 625.4 369.5263671875 573.1623046875 381.525 522.9 369.0892578125 516.85859375 359.325 514.475 342.2939453125 510.3048828125 340.45 509.85 337.1 509 334.85 507.5 332.1 505.75 330.85 502.75 329.55 499.55 330.75 496.85 331.10625 496.0625 331.675 495.375 329.3 492.75 329.9 489.2 330.45 485.85 333 483.5 335.1 481.45 338.5 480.2 339.782421875 479.72890625 341.7 479.25 342.2912109375 468.097265625 353.6 464.125 364.9 460.153515625 376.85 461.5 382.4 462.15 398.3 466.15 399.1103515625 466.3533203125 399.9 466.55 424.3515625 432.60859375 461.45 396.825 498.5494140625 361.0470703125 505.6 353.15 517.15 340.1 524.25 328.1 529.6 319 536.55 302.5 544.65 283.25 548.1 276.5 559.4443359375 254.4052734375 577.15 236.35 594.867578125 218.2826171875 617.65 206.75 640.428515625 195.222265625 665.975 191.325 691.5146484375 187.431640625 709.55 189.15 727.59140625 190.866015625 736.975 193.425 746.3474609375 195.99296875 761.375 201 776.4076171875 206.001953125 784.95 209.9 793.324609375 213.7203125 802.125 217.675 813.708203125 208.3578125 832.1 202.85 840.85 200.3 844.5 203.75 845.95 205.2 846.4 207.45 846.85 209.6 846.25 211.75 845.4 214.8 842 219 837.911328125 223.7701171875 832.05 225.35
L 837.35 225.35
Q 843.7 225.55 844.85 225.6 849.05 225.85 852.25 226.5 860.8 228.25 865.5 233.1 868.95 236.4 868.5 239.75 868.15 242.75 864.6 245.1 861.4 247.35 857.45 248.25 853.840625 249.0169921875 850.35 248.475 852.1408203125 250.0404296875 853.9 251.65 853.994921875 251.753515625 854.1 251.85 861.04609375 258.2447265625 877.025 273.525 893.0115234375 288.8158203125 906.325 300.1 919.6345703125 311.37890625 941.025 325.2 941.0845703125 322.43828125 942.325 319.725 944.604296875 314.731640625 950.1 313.7 955.60234375 312.681640625 963.25 319.15 970.885546875 325.60625 973.8 327.9 976.7185546875 330.194921875 979.75 328.7 982.7708984375 327.208203125 986.6 325.25 1014.9970703125 310.8392578125 1033.1 298.85 1051.1978515625 286.8552734375 1062.825 283.4 1074.4576171875 279.941015625 1074.85 287.45 1075.2216796875 287.26484375 1075.6 287.1 1082.0529296875 284.35078125 1085.4 286.2 1088.741015625 288.047265625 1089.9 291.775 1090.926953125 295.070703125 1090.05 298.375 1092.6990234375 297.908203125 1095.05 298.3 1097.8 298.75 1099.45 300.3 1101.4 302.15 1101.65 305.3 1101.9 308.25 1100.6 310.9 1099.5 313.15 1097.3 315.5 1096.05 316.85 1087.7 324.75 1079.353515625 332.6041015625 1071.475 340.875 1063.58515625 349.1380859375 1062.375 350.375 1061.1666015625 351.607421875 1060.95 351.775 1060.7365234375 351.9490234375 1056.65 356.225 1052.5662109375 360.498828125 1047.725 368.7 1042.8056640625 377.024609375 1040.3 383.2 1039.4876953125 385.1982421875 1038.875 386.9 1060.95 395.85 1071.35 403.15 1086.9 414.05 1091.85 428.35 1094.2 435.15 1094.5 444.1 1094.75 449.85 1094 460.25 1093.965625 460.7298828125 1093.9 461.35 1123.14921875 512.0888671875 1121.85 584.75 1121.25 623.45 1112.25 651.85 1105.6 673.05 1093.5 692 1081.4 711 1063.4 725.8
L 944.4 721.7 933.4 721.6 868.75 721.6 804.25 721.75 793.25 721.1 745.6 721.1 744.8 721.1 744.775 721.05 737.5 721.05 700.5 722.05 665.35 721 470.6 722.3
Q 468.6361328125 714.1572265625 466.475 708.225 464.2875 702.20078125 463.45 700.425 462.6037109375 698.65078125 461.25 697.25 459.7 695.55 457.6 694.85 455.35 694.1 453.35 694.75 449.2 696.15 448 702.75 447.595703125 712.6986328125 449.5 722
M 1027.85 323.1
Q 1034.633984375 319.163671875 1050.15 305.9 1065.6703125 292.630078125 1074.85 287.45
M 1022.4 320.55
Q 1034.8478515625 327.549609375 1048.625 330.95 1055.4048828125 326.4453125 1060.7 321.45 1062.35 319.9 1069.7 312.1 1080.9 300.25 1089.95 298.4 1090.005078125 298.38984375 1090.05 298.375
M 1026.25 342
Q 1013.95 348.25 1008.25 358.35 1005.15 363.85 1004.5 370 1003.75 376.4 1006.1 382.65
M 1038.875 386.9
Q 1037.596484375 390.4404296875 1037.2 392.65 1058 402.65 1073.85 417.75 1076.15 420 1077.2 421.55 1078.8 423.8 1078.85 426 1079.0560546875 428.4015625 1078 430.8 1076.9314453125 433.194921875 1073.7 434.625 1070.468359375 436.0544921875 1063.925 435.95 1057.3935546875 435.849609375 1050.5 434.45 1045.123828125 433.3560546875 1037 430.9 1034.698046875 430.205078125 1032.175 429.4 1020.7490234375 425.752734375 1001.05 417 993.4849609375 413.2453125 986.625 409.3 979.7541015625 405.3533203125 975.5 398.65 970.784765625 401.741015625 969.8 406.85 968.7455078125 412.3552734375 968.1 419.6 966.5 437.85 963.1 474.35 961.5716796875 492.40234375 961.5 501.75 961.5 502.1806640625 961.5 502.6 961.5458984375 517.0001953125 964.45 528.325 964.714453125 529.35234375 965 530.35
M 1048.625 330.95
Q 1053.0384765625 332.0322265625 1057.6 332.75
M 802.125 217.675
Q 802.31796875 217.7681640625 802.5 217.85 808.8435546875 220.67421875 814.925 223.95 833.34609375 233.8138671875 849.475 247.7 849.9107421875 248.091796875 850.35 248.475
M 399.9 466.55
Q 412.14765625 469.5 419.85 469.5 424.24609375 469.3533203125 428.525 469.3 432.81171875 469.2396484375 435.225 466.55 437.634375 463.863671875 438.45 457.7 440.25 451.75 441.25 448.85 443.05 443.95 446.2 440.95 449.85 437.4 454.1 438 457.8 438.55 460.25 442.2 462.5044921875 445.6046875 462.65 449.325 462.7861328125 453.0359375 461.975 456.575 461.1626953125 460.112890625 459.925 468.675 458.6984375 477.248828125 460.65 489.6 462.587890625 501.94765625 469.6 512 509.06953125 560.365625 553.6 601.05 577.475390625 599.4302734375 598.875 587.825 585.8900390625 580.45078125 575.375 571.425 555.5447265625 554.3986328125 547.025 530.8 538.5060546875 507.2029296875 545.35 481.475 552.191796875 455.74609375 568.5 436.8 551.3 418.816796875 551.3 393.65 551.3 367.7 569.6 349.35 587.95 331.05 613.9 331.05 621.6537109375 331.05 628.725 332.675 658.31015625 312.989453125 682.9 287.4 707.5 261.75 725.5 231.6 730.0109375 248.6396484375 736.2 265.025 738.7958984375 266.121875 742.1 268.6 745.55 271.1 748.85 274.5
M 709.85 271
Q 716.75 265.3 725.25 264 731.3 263.15 735.75 264.85 735.9759765625 264.936328125 736.2 265.025 748.8310546875 298.43046875 768.45 329.15 777.644140625 343.5373046875 788.025 356.775 790.3734375 354.96640625 792.45 352.75 796.95 347.95 799.35 342
M 628.725 332.675
Q 645.31796875 336.51796875 658.15 349.35 663.2173828125 354.4173828125 666.875 360.075 671.2046875 352.890234375 677.75 346.6 697.05 328.1 724.3 328.1 751.55 328.1 770.8 346.6 790.1 365.1 790.1 391.25 790.1 392.8603515625 790.025 394.45 788.911328125 418.5392578125 770.8 435.9 751.55 454.4 724.3 454.4 697.05 454.4 677.75 435.9 673.5583984375 431.8716796875 670.275 427.475 668.9556640625 426.7568359375 667.6 426.1 661.085546875 422.9490234375 653 421.7 652.62109375 421.6662109375 652.25 421.65 643.78125 420.997265625 637.7 423.2 633.9 424.5 630.85 426.85 627.6 429.3 625.8 432.6 623.05 437.75 624 444.1 624.925 450.088671875 628.75 454.6 628.8451171875 454.729296875 628.95 454.85 632.7 459.15 638.55 461.4 644.15 463.55 650.3 463.35 661.45 462.8 672.95 454.45
M 670.275 427.475
Q 669.2833984375 426.1576171875 668.375 424.8 667.158203125 422.9748046875 666.1 421.1 658.5 407.6787109375 658.5 391.25 658.5 373.9912109375 666.875 360.075
M 724.6 379.6
Q 724.6 382.5 722.75 384.55 720.95 386.6 718.35 386.6 715.75 386.6 713.9 384.55 712.1 382.5 712.1 379.6 712.1 376.7 713.9 374.65 715.75 372.6 718.35 372.6 720.95 372.6 722.75 374.65 724.6 376.7 724.6 379.6 Z
M 788.025 356.775
Q 793.244921875 363.444140625 798.775 369.825 804.22890625 367.7228515625 808.35 363.85
M 782.25 360.35
Q 785.316796875 358.8298828125 788.025 356.775
M 787.5 371.75
Q 793.15 371.95 798.7 369.85 798.73828125 369.8353515625 798.775 369.825 817.2232421875 391.0978515625 839.1 409.175 841.3583984375 405.3916015625 844.45 402.3 844.562890625 402.1859375 844.675 402.075 845.996484375 343.1748046875 842.25 311.5 836.15 259.75 814.925 223.95
M 666.1 421.1
Q 693 402.55 725.75 395.6 758.1361328125 388.734765625 790.025 394.45
M 598.875 587.825
Q 604.13671875 590.792578125 609.8 593.5 616.5380859375 596.73515625 623.85 599.575 628.4337890625 601.3552734375 633.225 602.775 652.2810546875 608.4265625 674.55 608.35 681.6259765625 608.3271484375 689.025 607.725 703.2271484375 606.5685546875 716.8 603.25 738.11015625 598.0435546875 757.85 587.5 764.62890625 583.8759765625 771.1 579.75 794.4109375 564.9564453125 813.875 543.775 819.73671875 537.3982421875 824.9 530.7 838.7830078125 512.708203125 847.6 492.45 848.1939453125 491.0529296875 848.775 489.65 858.1802734375 491.5755859375 867.55 489 878.3 486.1 886.35 478 889.3701171875 475.039453125 891.95 471.5 891.9744140625 471.46015625 892 471.425 895.8763671875 466.0751953125 898.75 459.4 904.15 446.95 904.15 433.7 904.1 419 897.05 408.9 891.85 401.45 883.7 397.2 879.2 394.85 874.5 393.85 872.3 393.35 870 393.1 869.175 393.0271484375 868.35 393 862.45390625 392.742578125 857.05 394.5 856.7 394.6 856.4 394.7 849.844140625 396.9505859375 844.675 402.075
M 853.9 251.65
Q 868.8 279.75 871 320.5 872.430859375 346.1078125 868.35 393
M 975.5 398.65
Q 974.31640625 384.7470703125 969.475 370.5 964.6345703125 356.242578125 957.075 348.6 949.5111328125 340.959375 946.3 337.475 943.0962890625 333.996875 941.75 329.85 940.9751953125 327.508203125 941.025 325.2
M 892 471.425
Q 903.5177734375 474.9498046875 912.375 484.225 921.2439453125 493.5 926.7 506.85 930.4365234375 506.8443359375 934.1 506.75 943.1 506.55 949.15 505.5 954.68671875 504.548828125 959.2 502.75 960.3876953125 502.2744140625 961.5 501.75
M 839.1 409.175
Q 838.8494140625 409.6033203125 838.6 410.05 837.3 412.35 836.25 415
M 907.35 503.5
Q 905.8736328125 504.6423828125 904.4 505.85 910.6158203125 506.424609375 915.225 506.6 914.129296875 499.106640625 905.15 495.85 896.35 492.7 887 495.35 874.60625 498.980078125 863.1 508.575 858.91640625 512.0703125 854.85 516.35 846.918359375 524.6822265625 836.225 540.15 833.5732421875 543.975390625 830.75 548.25 801.6 592.75 788.9 616.9 787.1017578125 620.3236328125 785.4 623.725 774.2779296875 645.9794921875 767.65 666.75 763.8291015625 678.72421875 761.5 690.2
L 776.5 688
Q 780.95 687.35 783.4 687.45 785.9158203125 687.548046875 787.85 688.275 788.88359375 688.678125 789.75 689.25 792 690.75 793.7 693.7 794.498046875 695.151171875 795.4 697.425 796.2408203125 693.7677734375 797.225 690.05 798.018359375 687.0939453125 798.9 684.1 799.272265625 682.8357421875 799.65 681.575 806.7544921875 658.386328125 819.45 632.85 830.2 611.2 854.35 571.1 868.7 547 877.85 534.6 890.7203125 517.1685546875 904.4 505.85
M 847.6 492.45
Q 849.0177734375 494.346875 852.8 495.975 856.5865234375 497.60234375 858.925 499.225 861.254296875 500.84921875 862.25 502.6 863.043359375 503.894921875 863.15 505.55 863.2587890625 507.2033203125 863.175 507.625 863.108984375 507.95234375 863.1 508.575
M 824.9 530.7
Q 828.576953125 531.522265625 831.65 533.775 834.7115234375 536.0203125 836.225 540.15
M 799.65 681.575
Q 803.029296875 677.9115234375 811.575 667.625 824.8 651.7 839.15 636.35 861.85 612.05 887.4 598.4
L 887.15 587.9
Q 875.383984375 583.8224609375 864 578.75
M 959.2 502.75
Q 956.1 511.85 955.1 518.2 953.8 526.85 955.85 533.75
M 915.225 506.6
Q 921.0482421875 506.8326171875 926.7 506.85
M 808.15 471.65
Q 808.15 480.2 802.1 486.25 796.05 492.3 787.5 492.3 778.95 492.3 772.9 486.25 766.85 480.2 766.85 471.65 766.85 463.1 772.9 457.05 778.95 451 787.5 451 796.05 451 802.1 457.05 808.15 463.1 808.15 471.65 Z
M 693.95 547.7
Q 699 537.15 708.75 530.85 715.055078125 526.9033203125 719.925 526.275 724.78359375 525.6365234375 732.5 526.825 740.223828125 528.0232421875 742.9 528.65
L 742.925 528.625
Q 743.005859375 528.6431640625 743.075 528.65 748.06640625 529.80078125 751.95 531.9 752.9576171875 532.433984375 753.875 533.025 759.0185546875 536.3373046875 761.1 541.35 762.05 543.5 762 545.65 762 548 760.75 549.6 759.8 550.95 758.05 551.9 756.9 552.55 754.75 553.25 752.1 554.15 738.7 557.7 737.127734375 558.123046875 735.65 558.55 727.9162109375 560.7888671875 723 563.1
L 713.8 568.05
Q 708.3 571.05 704.25 572.1 697.2 573.85 693.75 570.35 691.4 568.15 691.1 562.75 690.798828125 554.88828125 693.95 547.7 700.2 548.35 707.1 547 712.6 545.95 719.6 543.5 727.55 540.8 732.65 537.8 739.3091796875 533.9029296875 742.9 528.65 742.993359375 528.65 743.075 528.65
M 753.875 533.025
Q 749.65 533.65 744.85 538 739.65 542.75 737.35 547 734.2 552.95 735.65 558.55
M 716.8 603.25
L 722.75 612.35
Q 725.321484375 611.7576171875 727.85 611 740.8 607.05 752 599.25 758.358984375 594.79296875 763.675 589.1 767.6845703125 584.7775390625 771.1 579.75
M 763.675 589.1
Q 768.783203125 590.6271484375 773.1 594.75 777.2 598.65 779.85 604.1 782.15 608.8 783.65 615 784.4626953125 618.250390625 785.4 623.725
M 767.65 666.75
Q 746.5111328125 679.8484375 719.525 679 718.1822265625 678.958203125 716.85 678.9 705.7193359375 678.307421875 695.1 675.725 705.8826171875 687.461328125 719.45 696.45 721.83046875 695.9890625 724.5 695.6
L 737 693.775 742.4 692.975 761.5 690.2
M 722.75 612.35
Q 712.3140625 614.7712890625 701.35 614.45 699.852734375 614.4064453125 698.375 614.3 694.95 617.7 693.6 623.05 692.44453125 627.6021484375 694.025 636.8 695.6181640625 645.9931640625 701.525 657.175 707.4216796875 668.358984375 716.85 678.9
M 695.1 675.725
Q 680.628515625 672.20703125 667.1 665 655.86953125 659.0080078125 647.55 653.25 647.389453125 653.1392578125 647.225 653.025 646.900390625 652.8009765625 646.575 652.575 643.5716796875 650.4630859375 640.975 648.375 644.5890625 655.2232421875 649.525 662.1 652.434765625 665.9671875 655.75 670 656.15078125 670.4708984375 656.55 670.95 662.35 677.95 674.35 691
L 693.05 711.35
Q 695.2537109375 711.3640625 698.625 711.3 699.2791015625 707.74140625 703 704.15 707.8583984375 699.4529296875 712.75 698.025 715.73828125 697.154296875 719.45 696.45
M 674.55 608.35
Q 686.1791015625 613.429296875 698.375 614.3
M 700.5 722.05
Q 698.9259765625 718.1375 698.525 713.5 698.4310546875 712.401953125 698.625 711.3
M 693.05 711.35
Q 684.6048828125 711.34375 676.6 709.6 672.35 708.7 669.85 707.25 666.4 705.35 664.825 701.975 663.85 701.8 663 702.35 662.25 702.85 661.75 703.75 661.15 705.2 661.35 707.5 661.9 714 665.35 721
M 784.4 700.9
L 792.6 720.6
M 868.75 721.6
Q 883.95 711.55 896.75 699 900.3 695.55 902.2 693.1 904.9 689.65 906.1 686.25 906.5677734375 684.9384765625 906.85 683.5 908.136328125 677.073046875 905.85 668.05 902 655.7 901.1 649.5 900.474609375 646.0478515625 899.825 642.175 899.1712890625 638.298046875 898.4 635.25 897.631640625 632.209765625 894.95 629.45 892.263671875 626.68828125 888.075 626.05
L 888.35 638.05 888.4 640.5
Q 888.678515625 642.46796875 884.225 650.7 879.7568359375 658.9326171875 867.6 668.825 855.453125 678.7181640625 847.7 683.625 839.937109375 688.5390625 829.925 692.925 821.8541015625 696.4529296875 816.55 698.175 815.28671875 698.590234375 814.175 698.9 808.4447265625 700.501171875 802.75 701 801.6033203125 701.0376953125 800.5 701.025 798.5177734375 701.0232421875 796.675 700.875
L 804.25 721.75
M 795.4 697.425
Q 795.7431640625 698.2755859375 796.1 699.25
L 796.675 700.875
M 737 693.775
L 731.35 706.55 737.5 721.05
M 779.4 700.5
L 738.55 704.1 744.775 721.05 745.6 721.1
M 655.75 670
L 664.825 701.975
M 703.5 708.8
L 731.35 706.55
M 785.35 694.9
L 787.85 688.275
M 742.4 692.975
L 738.55 704.1
M 970.1 603.95
Q 968.440234375 603.8224609375 967.1 603.75 960.2033203125 603.3619140625 953.35 602.65 935.39375 615.03828125 926.925 620.9 918.454296875 626.7587890625 917.2 627.85 915.9466796875 628.948828125 914.75 630.5 913.270703125 632.472265625 912.85 634.05
L 912.85 634.75
Q 914.95 636.7 918.15 637.95 921.1 639.15 924.35 638.75 927.2 638.4 930.4 636.95 932.6 635.95 936 633.85 944.25 628.8 954.25 621.3 957.68515625 618.7125 968.925 609.95 970.225 608.9419921875 971.625 607.85
L 970.1 603.95
Q 991.2978515625 604.8060546875 1008.35 601.65 1030.3 597.55 1045.85 586.6 1059.6 577.05 1069.65 561.45 1078.7 547.4 1084.1 529.5 1088.5 514.6 1090.95 495.2 1092.27265625 484.177734375 1093.9 461.35
M 971.625 607.85
L 987.75 642.75
Q 989.6 646.85 990.25 648.6 991.5029296875 651.945703125 992.7 656.35 993.88515625 660.7619140625 990.425 665.2 986.974609375 669.6419921875 983.1 673.05 979.221875 676.4521484375 976.15 678.95 973.0654296875 681.4470703125 966.175 686.55 959.296484375 691.641796875 953.3 695.875 952.6119140625 696.360546875 951.975 696.8 947.0240234375 700.1904296875 944.925 700.8 942.5521484375 701.4955078125 940.6 701.25 935.5 700.8 932.35 692.35 921.571484375 665.1939453125 914.25 639.6
L 912.85 634.75
M 906.85 683.5
Q 914.7232421875 682.862890625 921.3 686.55 927.9 690.2 931.1 696.6 933.75 702 934 709.15 934.1763671875 713.8646484375 933.4 721.6
M 953.35 602.65
Q 933.721484375 600.6197265625 914.45 595.95 900.5521484375 592.56875 887.15 587.9
M 925.1 683.25
L 887.475 601.075 887.85 617.325 888.075 626.05
M 887.4 598.4
L 887.475 601.075
M 887.85 617.325
Q 860.8552734375 635.1609375 839.475 656.425 818.0873046875 677.69609375 800.5 701.025
M 986.8 670.3
Q 988.69609375 672.794921875 989.575 675.65 990.016015625 677.0771484375 990.2 678.6 990.8 683.15 989.1 687.25 987.55 690.85 984.25 694.2 981.75 696.7 977.5 699.75 970.1474609375 705.0986328125 962.6 709.575 956.200390625 713.3748046875 947.55 719.45 946.0154296875 720.541015625 944.4 721.7
M 929.35 645.7
L 947.4 694.95
M 888.35 638.05
Q 848.6 663.85 816.55 698.175
M 1037.2 392.65
Q 1036.392578125 397.0255859375 1036.5 400.35 1036.7037109375 406.1400390625 1036.725 406.35 1036.7361328125 406.5689453125 1036.725 411.975 1036.716796875 417.3748046875 1037 430.9
M 1027.4 720.8
Q 1020.55 711.35 1018.6 699.75 1016.7 688.1 1019.15 680.95 1021.6 673.8 1023.8 672.8 1025.95 671.8 1028.4 672.85 1030.45 673.65 1032.35 675.5 1039.85 683.75 1040.5 697 1040.75 702.15 1039.95 708.55 1039.45 712.2 1037.75 720 1037.6 720.5 1037.25 721.35
M 593 278.25
Q 596.1 271.3 600.85 268.35 606.8 264.65 615.75 266.1 624.25 267.65 631 273
M 530.25 370.35
Q 534.6 374.7 540.3 377.15 546.05 379.65 552.1 379.75
M 544.6 348.1
Q 546.75 353.4 550.05 357.15 553.8 361.45 558.5 363.1
M 610.1 391
Q 610.1 394 607.95 396.15 605.8 398.3 602.8 398.3 599.8 398.3 597.65 396.15 595.5 394 595.5 391 595.5 388 597.65 385.85 599.8 383.7 602.8 383.7 605.8 383.7 607.95 385.85 610.1 388 610.1 391 Z
M 628.75 454.6
Q 621.663671875 456.25 613.9 456.25 587.95 456.25 569.6 437.9 569.04765625 437.34765625 568.5 436.8
M 580 479.1
Q 579.05 486.75 574.8 491.85 570.55 496.85 565.45 496.35 560.3 495.8 557.25 490.05 554.2 484.2 555.1 476.55 555.95 468.9 560.3 463.9 564.55 458.8 569.7 459.35 574.8 459.85 577.85 465.7 580.85 471.45 580 479.1 Z
M 571.1 523.7
Q 576.7728515625 536.1119140625 585.05 547.7 593.3271484375 559.2880859375 603.25 568.25
M 563.35 530.25
Q 567.55 544.85 578.6 555.75
M 392.25 480.75
Q 380.7 477.55 368.75 476.95 356.6 476.35 345 478.5 343.0697265625 478.88125 341.7 479.25
M 381.25 497.1
Q 371.9 492.8 361.4 491.3 351 489.85 340.75 491.35 334.16875 492.40625 331.675 495.375
M 381.525 522.9
Q 390.7955078125 527.4240234375 401.55 533.975 408.5482421875 538.240234375 414.9 543.25 418.6337890625 546.2001953125 422.15 549.4 413.2 565.5 412.6 583.35 412.4 591.65 416.5 594.25 419.05 595.85 422.5 595 426.19609375 594.2052734375 429.8 591.9 433.4103515625 589.5826171875 440.975 578.275 442.2283203125 576.403125 443.525 574.35 450.0109375 564.0056640625 457.4 549.075 466.2498046875 531.186328125 469.6 512
M 402.5 498.1
Q 409.55 497.9 415.85 499.55 422.6 501.3 427.85 505 433.45 509.05 436.75 514.95 440.04765625 520.74453125 440.25 526.85 440.25 527.2244140625 440.25 527.6
M 414.9 543.25
Q 401.1150390625 566.803515625 401.525 594.7 401.9328125 622.5955078125 417.05 644.7 432.1625 666.8033203125 455.525 681.3 478.89609375 695.798828125 506.35 703.35 526.544140625 708.796875 546.775 710.6 567.0173828125 712.4087890625 585.975 707.425 604.936328125 702.4388671875 620.775 690.3 636.615234375 678.1681640625 649.525 662.1
M 633.225 602.775
Q 629.9513671875 605.331640625 630.25 612.1 630.65 622.05 635.75 633.35 639.0125 640.468359375 646.575 652.575
M 609.8 593.5
Q 609.3619140625 607.737890625 615.275 617.825 621.1875 627.9068359375 631.825 639.875 635.539453125 644.058984375 640.975 648.375
M 553.6 601.05
Q 558.2716796875 605.383984375 563.6 609.5"/>
</defs>

<g transform="matrix( 1, 0, 0, 1, 0,0) ">
<use xlink:href="#Layer2_0_FILL"/>
</g>

<g transform="matrix( 1, 0, 0, 1, 0,0) ">
<use xlink:href="#Layer0_0_FILL"/>

<use xlink:href="#Layer0_0_1_STROKES"/>
</g>
</svg>
