
<svg xmlns="http://www.w3.org/2000/svg" version="1.1" xmlns:xlink="http://www.w3.org/1999/xlink" preserveAspectRatio="none" x="0px" y="0px" width="1280px" height="720px" viewBox="0 0 1280 720">
<defs>
<g id="Layer2_0_FILL">
<path fill="#FFFFFF" stroke="none" d="
M 1280 720
L 1280 0 0 0 0 720 1280 720 Z"/>
</g>

<path id="Layer0_0_1_STROKES" stroke="#000000" stroke-width="1" stroke-linejoin="round" stroke-linecap="round" fill="none" d="
M 476.9 297.8
Q 481.3 298.3 486.05 297.15 488.1 296.7 492.4 295 492.35 294.8 492.35 294.65 492 292.1 492 289.45 492 273.7 503.3 262.55 505.6 260.25 508.15 258.45 510.2 214.05 525.2 184.15 534.05 166.4 547.55 153.3 562 139.25 579.3 132.9 602.35 124.5 631.15 129.5 654.35 133.55 682.05 146.5 714.15 161.55 736.3 180.1 755.8 196.5 767.5 215.7 768.4 217.1 769.25 218.6 769.55 219.15 769.85 219.75 774.25 217.95 779.75 218.3 784.05 218.6 789.7 220.25 803.6 224.5 808.95 232.25 811.45 235.75 810.8 238.65 810.35 240.75 808.4 242.1 806.5 243.35 804.2 243.25 801.85 243.25 798.45 241.3 801.9 245.8 802.55 248.5 803.05 250.45 802.5 252.35 801.85 254.4 800.3 255.4 798.25 256.55 794.45 255.9 787.5 254.5 782.3 250.4 781.5 249.8 781.1 249.3 782.6 255.15 783.5 259.8 787.65 280.45 785.95 304 784.65 323.05 779.35 347.75 778.7 350.7 769.05 390.9 755.95 444.6 747.95 500.9 746.4 511.35 746.75 517.8 747.3 527.1 751.1 532.55 754.9 537.95 760.05 542.5 762.9 545 766.65 548.35 782.75 562.2 793.05 580.45 803.3 598.65 800.55 618.75 797.6 639.5 781.65 654.65 765.4 670.15 744.45 670.15 742.65 671.75 740.85 673.25 741.35 684.45 737.25 695.05 733.15 705.65 725.45 713.65 720.2 719.05 714.95 720.9
M 769.85 219.75
Q 776.55 232.6 780.1 245.55 780.6 247.5 781.1 249.3
M 798.45 241.3
Q 798.05 241 796.55 239.65
M 767.5 215.7
Q 768.55 252.55 760.95 287.3 753.45 321.45 737.8 352.25 740 354.65 741.55 357.65 745.8 365.65 744.5 376 743.3 385.3 738.05 394.25 733.8 401.4 728.45 406.15 720.4 413.25 709.1 414.65 698.35 416 689.05 411.6 678.1 421.9 665.5 430.15 672.05 428.6 678.6 432.65 683.7 435.85 686.6 440.95 690.15 441.1 693.55 441.85 701.05 443.55 707.85 448.15 717.05 454.35 723.45 464.15 729 472.8 732.65 484.35 735.55 493.55 737.7 506.15 741.75 531.1 741.55 554.3 755.95 563.4 763.95 579.2 764 579.3 764.05 579.4 764.1 579.55 764.2 579.65 765.6 582.5 766.8 585.55 767.8 588.1 768.6 590.65 769.95 594.95 770.8 599.3 773.2 612.5 770.45 625.9 766.4 645.65 752.3 662 750.45 664.15 748.55 666.15 748.3 666.35 748.1 666.6
L 747.8 666.9
Q 747.6 667.05 747.45 667.25 747.4 667.3 747.3 667.4 745.9 668.8 744.45 670.15
M 736.3 180.1
Q 745.05 203.35 744.45 235.5 743.95 263.55 737.7 291.1 731.45 318.3 719.95 343.5 724.5 343.9 729.05 346 734.25 348.4 737.8 352.25
M 516.2 245.75
Q 523.85 249.4 528.95 251.5 529.6 251.75 530.2 252 537.3 254.8 542.65 256 549.2 253.1 552.25 251.7 581.8 238.05 607.95 221.2 637.6 202.15 665.6 177.8 657.85 223.55 663.4 269.45 668.95 315.3 692.25 355 703.35 346 712.05 344 716 343.1 719.95 343.5
M 630.05 246.25
Q 624.45 248.95 618.75 251.05 624.55 254 629.45 259.1 641.05 271.15 641.05 288.15 641.05 296.05 638.55 302.9 638.4 303.2 638.3 303.55 639.65 304.25 641.55 304.5 642.75 304.65 645.2 304.65 646.4 304.6 648.75 304.45 650.75 304.3 652.2 303.9
M 665.85 362.2
Q 665.85 371.75 660.3 378.45 654.8 385.2 646.95 385.2 639.1 385.2 633.6 378.45 628.05 371.75 628.05 362.2 628.05 352.65 633.6 345.9 639.1 339.2 646.95 339.2 654.8 339.2 660.3 345.9 665.85 352.65 665.85 362.2 Z
M 686.6 440.95
Q 687.2 442 687.7 443.15 689.1 446.3 689.75 449.9 696.2 461.25 699.25 470 701.5 476.3 704.45 494.2 707.35 512.05 708.4 529.2 709.15 541.25 708.9 553.25
L 718.25 552.3
Q 718.75 525.2 715.3 499.25 711.2 468.9 693.55 441.85
M 689.75 449.9
Q 690.1 451.9 690.3 454.05 690.3 454.6 690.35 455.15 690.35 455.7 690.35 456.25
M 690.3 456.6
Q 690 464.8 688.8 470.5 686.8 480.5 682.65 492.45 680 500.1 674.55 513.75 667.9 530.7 655.05 564.45 676.75 567.6 698.8 564.8 703.65 564.2 708.45 563.35 708.75 558.3 708.9 553.25
M 655.05 564.45
Q 652.4 571.35 649.5 578.95 663.5 618.55 686.3 653.9 688.75 657.6 687.55 659.65 686.75 661.1 683.7 661.9 677.05 663.4 671.9 663.15 665.45 662.85 661.05 659.75 658.8 658.2 656.75 655.45 655.55 669.7 644.75 680.9 642.15 683.6 639.1 686.1 639.5 688.25 639.9 690.45 659.9 696 679.8 695.2 681.05 695.15 682.35 695.1 702.35 693.85 719.45 686.25 730.05 681.6 738.95 674.7 739 674.65 739.05 674.65 739.15 674.55 739.25 674.5 740.05 673.85 740.85 673.25
M 708.45 563.35
Q 713.5 562.4 717.95 561.45 718.15 556.85 718.25 552.3
M 763.95 579.2
Q 761.7 579.2 755.95 579.7 750.2 580.2 748.8 582.2 747.4 584.2 747.7 587.9 747.8 590 747.95 592.45
L 768.6 590.65
M 717.95 561.45
Q 730.2 558.5 741.55 554.3
M 747.95 592.45
Q 748.15 596.25 748.4 600.85
L 755.95 600.25 755 592.2
M 748.4 600.85
Q 749.05 612.1 750 628.15 750.6 649.25 747.85 665 747.75 665.5 747.7 665.95 747.65 666.25 747.3 667.4
M 755.95 600.25
L 770.8 599.3
M 649.5 578.95
Q 646.5 570.55 643.95 562 642.65 557.65 642.15 554.8 641.5 551.3 641.55 548.3 636.8 555.65 631.8 562.9 626.45 570.75 621.6 576.75 625.6 594.4 631.55 608 637.5 621.6 641.5 629.5 645.45 637.4 652.3 648.65 654.9 652.95 656.15 654.65 656.45 655.05 656.75 655.45
M 493.85 353.2
Q 491.55 360.8 486.9 365.25 482.3 369.75 478.1 368.5 473.85 367.2 472.45 360.9 471.05 354.65 473.35 347.05 475.6 339.5 480.25 335 484.85 330.5 489.1 331.8 493.3 333.05 494.7 339.35 496.1 345.65 493.85 353.2 Z
M 567.2 252.9
Q 570.45 255.85 575.7 256.95 579.7 257.75 585.55 257.5 602.7 256.85 618.75 251.05
M 562.2 254.5
Q 558.25 257.55 551.5 257.35 554.85 259.55 557.9 262.55 562.3 266.85 565 271.85 567.85 264.9 573.45 259.1 574.55 257.95 575.7 256.95
M 542.65 256
Q 544.15 256.35 544.8 256.5 548.4 257.25 551.5 257.35
M 492.35 294.65
Q 495.85 296.8 499.5 298.6 512.4 304.85 527.1 306.35 527.65 306.4 528.25 306.45 528.55 305.8 528.9 305.2 530.85 301.95 534.05 300.5 536.95 299 542.05 299 548.1 299.1 553.05 301.55 555 302.5 556.6 303.75 560.2 302.65 563.8 301.25 561.85 295.1 561.85 288.15 561.85 279.35 565 271.85
M 508.15 258.45
Q 517.25 251.9 528.95 251.5
M 556.6 303.75
Q 559.45 305.9 561.7 309.45 563.45 307.1 564.8 304 564.3 302.7 563.8 301.25 581.2 308.85 600.75 309.15 620.2 309.45 638.55 302.9
M 641.05 311.75
Q 637.8 311.7 634.8 310.45 632.55 314 629.45 317.2 617.85 329.25 601.45 329.25 585.05 329.25 573.45 317.2 568.45 312 565.6 305.9 565.2 305 564.8 304
M 528.25 306.45
Q 527.05 309.05 526.95 312 526.85 315.5 528.4 318.85 529.95 322.15 532.7 324.5 534.45 326.05 536.5 327.1 540.55 329.25 545.7 329.5 551.5 329.95 555.15 327.85
M 536.5 327.1
Q 533.65 327.5 530.65 327.5 514.6 327.5 503.3 316.35 497.05 310.15 494.25 302.55 493.2 303.05 491.95 303.5 489.45 304.3 486.95 304.7 458.4 337.7 457.05 368.5 456.05 390.25 468.15 410.75 479.7 430.35 499.2 442.5 511.05 449.95 525.2 454.3 532.55 456.55 540.5 457.95 558.35 461.1 577.65 459.7 581.3 459.45 585.05 459 614.3 455.6 641.4 443.35 641.7 443.2 642 443.1 654.35 437.4 665.5 430.15
M 530.55 346.25
Q 536.7 341.6 545 340.8 552.95 340 560.55 342.9 565.1 344.65 570.15 348 573.4 350.15 578.95 354.5
M 494.25 302.55
Q 493.95 301.75 493.7 300.9 493.25 299.5 492.95 298.05 491.75 299.4 491.55 299.6 489.15 302.15 486.95 304.7 482.85 305.35 478.7 304.9
M 494.25 302.55
Q 497.55 301 499.5 298.6
M 638.05 303.4
Q 638.15 303.45 638.3 303.55 636.9 307.15 634.8 310.45 634.6 310.35 634.4 310.25 631.15 308.8 628.8 306.25
M 492.95 298.05
Q 492.6 296.55 492.4 295
M 577.65 459.7
Q 579.05 460.7 579.95 461.9 580.95 463.25 581.4 465.25 581.7 466.45 581.95 469 582.15 476.2 581.2 481.15 581.2 481.5 580.5 483.8 584.75 480.55 588.85 480.2 588.8 477.45 589.9 474.5 590.9 471.65 593.3 470 595.6 468.35 598.6 468.05 601.4 467.75 604.3 468.65 608.05 469.8 611.55 473 626 457.95 642 443.1
M 525.2 454.3
Q 521.45 457.8 520 462.45 518.7 466.8 519.2 471.5 519.55 475.6 521.1 480.5 522.05 483.4 524.25 488.65 530 489.2 536.3 491.9 542.75 494.65 553.9 501.65 555.2 502.5 556.55 503.3 560.4 497.9 563.7 495 568.4 491 573.45 490.65 573.6 490.65 573.8 490.65 577.2 486.35 580.5 483.8
M 573.8 490.65
Q 577.7 490.45 581.75 492.65 585.35 494.65 588.7 498.25 592.6 502.45 593.2 506 594 510.4 590.9 514.25 587.8 518.1 583.3 518.4 580.55 518.6 578.15 517.5 577.6 517.25 577.1 517 576.25 516.4 575.5 515.9 575.3 515.75 575.15 515.6 574.45 515 573.85 514.35
L 556.55 503.3
M 588.85 480.2
Q 589.3 480.2 589.7 480.2 594.85 480.25 599.7 483.5 606.2 488.1 608.05 494 608.55 495.45 608.75 496.9 610.5 497.3 612.3 496.9 615.4 496.05 617.35 493.05 619.15 490.15 619.05 486.75 618.9 480.8 613.55 475 612.55 473.9 611.55 473
M 489.45 436.25
Q 486.25 438.25 484.55 443.9 483.35 448.4 483.25 452.9 483.05 459.55 485.3 466.15 489 477.25 497.7 489.4 503.1 489.5 508.15 491.6 512.8 489.25 517.8 488.65 520.9 488.3 524.25 488.65
M 483.25 452.9
Q 478.6 453.8 475.2 455.8 471.2 458.15 469.45 461.65 467.1 466.35 468.7 473.25 469.9 479.25 473 484.7 476.05 490 480.5 494.05 485.1 491.15 490.85 490 494.35 489.3 497.7 489.4
M 435.05 514.75
Q 443.4 506.8 449 503.15 457.35 497.7 465.3 497.25 471.65 496.9 478.2 499.6 484.05 502.1 490.65 507.8 494.55 502.25 498.8 498.2 503.3 493.95 508.15 491.6
M 608.75 496.9
Q 609 498.85 608.7 500.85 608.15 504.4 605.95 506.9 603.65 509.55 600.05 510.3 596.3 511 593.55 509.15
M 573.85 514.35
Q 571.35 511.65 570.8 508
M 621.6 576.75
Q 617.85 581.4 614.35 584.9 603.55 595.9 591.8 600.65 583.6 603.95 573 604.95 565.1 605.7 553.55 605.25 537.3 604.55 522.7 602.75 522.15 605.45 519.35 607.45 517.1 609.15 514.2 609.75 514.6 610.45 514.6 611.3 514.6 612.6 513.65 613.5 512.75 614.45 511.45 614.45 510.15 614.45 509.2 613.5 508.3 612.6 508.3 611.3 508.3 610.55 508.65 609.9 505.2 609.4 502.6 607.45 499.15 604.9 499.15 601.3 499.15 599.95 499.65 598.75 497.3 598.1 495.35 597.4 488.2 594.85 483.45 590.75 483 590.4 482.6 590 480.5 593.7 479.95 598.1 479.75 599.55 479.8 601.05
L 482 603.25
M 468.55 474.15
Q 464.25 477.25 427.95 503.75 421.15 508.65 417.8 511.6 412.4 516.2 409.05 520.9 403.5 528.6 401.5 539.05 399.65 548.6 401.05 559 402.05 567.65 405.1 574.6 408.55 582.55 414.3 587.5 420.35 592.65 428.8 594.65 436.55 596.5 445.2 595.5 451.2 594.85 458.3 592.8 459.65 592.4 461.05 591.95 466.35 590.25 478 584.4 475.65 580.65 474.25 576 472.2 569.2 472.2 560.9 472.35 539.7 485.45 516.15 487.95 511.6 490.65 507.8
M 482.6 590
Q 482.05 589.5 481.55 589 479.55 586.9 478 584.4
M 475.3 498.25
Q 477.7 495.85 480.5 494.05
M 474.4 595.8
L 479.8 601.05
Q 479.75 603.75 480.3 606.5 482.2 614.75 488.7 621.15 487.9 622.15 487.15 623.2 486.95 623.45 486.8 623.7 480.85 632.1 478.3 643.7 478.25 643.9 478.25 644.1 477.4 647.85 476.95 651.9 476.3 657.5 476.35 664.2
L 479.2 666.1
M 487.15 623.2
Q 480.15 617.3 473.95 610.5 472.9 609.45 472.45 609.25 471.4 608.7 470.45 609.25 469.65 609.95 470.1 611.65 470.5 613.3 471.1 617.25 471.7 621.2 471.75 623.35 469.45 621.75 468.15 621.2 466.85 620.6 465.9 620.95 464.9 621.25 464.5 622.25 464.1 623.25 464.55 625.15 464.95 627 467.7 630.9 468.75 632.4 469.9 633.85
L 472.25 632.65
M 465.05 636.25
L 469.9 633.85
Q 473.6 638.75 478.3 643.7
M 471.2 660.8
L 476.35 664.2
Q 476.35 666.3 476.4 668.55 476.55 674 477.35 683.65 479.3 685.4 481.5 687.1 482.7 688 483.95 688.9 496.25 697.65 512.55 703 533.25 709.9 555.15 710.4 560.05 688.05 557.6 667.8 557.5 666.9 557.4 666.05
L 554.15 666.8
M 458.3 592.8
Q 454.75 617 454.9 630.15 455.15 651 462.95 665.65 468.25 675.55 477.35 683.65
M 481.5 687.1
Q 479.6 703.4 478.8 721.9
M 559.4 640.55
L 560.95 641.7
Q 563.65 639.1 566.05 636.5 567.6 635.05 568.45 633.4 568.9 632.05 568.45 631.25 568.1 630.6 567.2 630.4 565.5 629.8 562.8 630.2 559.15 630.7 557.95 631 558.15 630.4 559.2 627.7 560.25 625 560.55 622.6 560.85 620.2 560.45 619.5 560.1 618.85 559.4 618.65 558.7 618.4 558.2 618.65 557.7 618.85 554.25 620.85 550.75 622.85 545.3 624.65
M 548.7 605.5
Q 549.65 611.45 547.95 617.55 546.4 623.2 542.9 627.7 542.65 628 542.45 628.25 549.25 637.35 553.15 648.4 557.55 644.9 560.95 641.7
L 564.1 644
M 514.2 609.75
Q 512.7 610.05 511 610.05 509.75 610.05 508.65 609.9
M 522.7 602.75
Q 517 602.05 511.55 601.15 504.7 600.1 499.65 598.75
M 504.55 624.65
Q 505.05 627 506.4 628.85 507.8 630.85 509.8 631.75 512 632.8 514.35 632.5 516.75 632.2 518.45 630.65
M 553.15 648.4
Q 556.05 656.7 557.4 666.05
L 563.15 664.7
M 555.15 710.4
Q 555.25 710.4 555.35 710.4 561.4 710.55 567.5 710.2 596 708.6 621.3 696.9 631.5 692.2 639.1 686.1
M 639.9 690.45
Q 642.85 706.5 644.3 722.75
M 675.45 486.25
Q 660.75 518.3 641.55 548.3"/>
</defs>

<g transform="matrix( 1, 0, 0, 1, 0,0) ">
<use xlink:href="#Layer2_0_FILL"/>
</g>

<g transform="matrix( 1, 0, 0, 1, 0,0) ">
<use xlink:href="#Layer0_0_1_STROKES"/>
</g>
</svg>
