
<svg xmlns="http://www.w3.org/2000/svg" version="1.1" xmlns:xlink="http://www.w3.org/1999/xlink" preserveAspectRatio="none" x="0px" y="0px" width="400px" height="400px" viewBox="0 0 400 400">
<defs>
<g id="Layer4_0_FILL">
<path fill="#FFFFFF" stroke="none" d="
M 0 400
L 400 400 400 0 0 0 0 400 Z"/>
</g>

<g id="Layer1_0_FILL">
<path fill="#000000" stroke="none" d="
M 102.55 199.7
Q 102.5 199.35 102.45 199 101.55 199.55 100.45 199.9 101.5 199.85 102.55 199.7
M 135.8 205.8
L 135.7 205.8
Q 135.75 205.85 135.8 205.85
L 135.8 205.8
M 111.35 196.5
Q 108.75 196.1 106.25 195.5 104.7 197.7 102.45 199 102.5 199.35 102.55 199.7 105.5 199.3 108.3 198.05 109.95 197.3 111.35 196.5
M 115.75 184.35
Q 114.35 184.85 112.95 185.5 111.4 186.15 109.75 187 112.7 190.4 115.65 193.75 118.7 193.45 121.8 193.15 121.95 193.1 122.15 193.1 129.5 192.35 136.95 191.45 137 191.45 137.1 191.45 139.95 191.1 142.9 190.75 142.85 190.65 142.8 190.6 139.25 186.5 135.55 184.45 134.9 184.1 134.3 183.8 131.15 182.25 128.05 181.8 125.1 181.4 119.9 182.95 119.7 183 119.5 183.05 118.25 183.4 116.9 183.9 116.3 184.15 115.75 184.35
M 99.6 193.3
Q 98.7 193.9 97.8 194.65 97.7 194.65 97.65 194.75
L 97.8 194.75 103 194.5 106.9 194.4
Q 106.6 194.95 106.25 195.5 108.75 196.1 111.35 196.5 113.35 195.25 114.65 193.85 115.15 193.75 115.65 193.75 112.7 190.4 109.75 187 106.8 188.5 103.5 190.65 101.6 191.85 99.6 193.3
M 246.85 183.6
Q 246.8 183.55 246.75 183.55 247.05 184.95 247.2 186.4 247.25 186.4 247.3 186.4 250 186.15 252.7 185.95 249.85 184.7 247 183.65 246.9 183.6 246.85 183.6
M 192.7 193.65
Q 194.75 193.45 196.55 193 196.55 191.5 196.65 190 194.4 191.85 192.7 193.65
M 198.95 180.8
Q 198.25 182.5 197.75 184.35 197.1 186.5 196.8 188.6
L 198.4 188.6
Q 197.5 189.3 196.65 190 196.55 191.5 196.55 193 201.25 191.8 203.4 188.85 203.95 188.8 204.55 188.8 215.65 188.45 226.8 187.85 236.7 187.25 246.65 186.45 246.9 186.4 247.2 186.4 247.05 184.95 246.75 183.55 246.7 183.55 246.65 183.55 246.6 183.5 246.55 183.45 246.3 183.35 246.25 183.35 240.45 181.2 234.65 179.75 232.9 179.35 231.2 178.95 230.8 178.85 230.4 178.8 226.65 178 222.9 177.55 219 177 215.7 177.05 211 176.7 207.6 177.45 207.3 177.5 207 177.55 206.6 177.65 206.25 177.75 202.85 178.7 200.2 180.1 199.55 180.45 198.95 180.8
M 198.95 180.8
Q 197.75 181.45 196.8 182.35 196.3 182.7 195.8 183.2 192.95 185.7 190.75 188.6
L 196.8 188.6
Q 197.1 186.5 197.75 184.35 198.25 182.5 198.95 180.8 Z"/>

<path fill="#FFFFFF" stroke="none" d="
M 137.1 191.45
Q 137 191.45 136.95 191.45 141.55 195.8 143.55 202.45 144.85 203.05 144.9 203.95 144.95 204.65 144.2 205.3 144.25 205.5 144.3 205.7 145.2 211.05 143.65 215.65 142.95 217.7 141.95 219.2 144.55 216.05 145.85 211.5 148.45 202.45 144.1 193.05 143.5 191.85 142.9 190.75 139.95 191.1 137.1 191.45
M 115.65 193.75
Q 116.55 194.8 117.95 196.1 115.45 196.6 111.35 196.5 109.95 197.3 108.3 198.05 105.5 199.3 102.55 199.7 102.7 202 103.3 204.25 103.5345703125 204.3439453125 103.7 204.4 103.5375 204.35 103.35 204.35 104 206.95 105.2 209.55 107.95 215.3 112.25 219.2 112.3 219.2 112.35 219.25 112.55 219.05 112.7 218.9 112.55 219.05 112.35 219.25 113.9 220.6 115.7 221.7 115.8 221.55 115.9 221.45 115.8 221.55 115.7 221.7
L 115.75 221.75
Q 117 222.5 118.35 223.2 127.2 227.45 135.25 224 137.45 223.1 139.25 221.75 138.2 222.35 137 222.65 132.25 223.85 127.5 219.8 122.85 215.65 120.9 208.6 120.65 207.7 120.45 206.75 120.4 206.65 120.35 206.55 120.35 206.35 120.3 206.2 120.3 206.05 120.2 205.35 119.35 200.2 120.8 195.8 121.2 194.5 122.15 193.1 121.95 193.1 121.8 193.15 118.7 193.45 115.65 193.75
M 204.55 188.8
Q 203.95 188.8 203.4 188.85 201.25 191.8 196.55 193 196.65 199.15 199.55 204.9 204.5 214.35 214.5 216.9 224.5 219.45 233.7 213.65 236.1 212.05 238.1 210.2 238 210.05 237.9 209.95 238 210.05 238.1 210.2 240.35 208.05 242.15 205.45 242.15 205.35 242.2 205.3 242.25 205.3 242.25 205.25 244.75 201.45 246.05 196.75 247.55 191.4 247.2 186.4 246.9 186.4 246.65 186.45 236.7 187.25 226.8 187.85 229.4 191.8 230.2 197.2 230.3 197.75 230.35 198.3 231.8 199.1 231.8 200.15 231.8 201.15 230.45 201.9 230.3 206.65 228.1 210.65 225 216.55 219.4 217.3 213.8 218.05 209.05 213.15 204.55 208.5 203.35 201.35
L 203.35 201.3
Q 203.3 201 203.25 200.75 202.25 194.15 204.55 188.8 Z"/>
</g>

<g id="Layer0_0_FILL">
<path fill="#000000" stroke="none" d="
M 135.15 203.9
Q 134.7 202.95 134.1 202.2 132.95 200.65 131.85 200.9 130.8 201.05 130.45 202.85 130.25 203.7 130.5 206
L 130.5 206.05
Q 130.65 206.75 130.65 206.95 131.25 209.3 132.45 210.8 133.6 212.3 134.7 212.15 135.75 211.95 136.05 210.15 136.45 208.35 135.85 206 135.8 205.9 135.8 205.85 135.75 205.85 135.7 205.8
L 135.8 205.8
Q 135.55 204.75 135.15 203.9
M 218.4 196.8
Q 217.4 195.2 216.35 195.3 215.25 195.35 214.75 197.1 214.2 198.6 214.4 200.65
L 214.4 200.75
Q 214.4 200.95 214.45 201.2 214.75 203.55 215.7 205.25 216.75 206.8 217.8 206.75 218.9 206.6 219.45 204.95 220 203.2 219.7 200.8 219.6 200.5 219.6 200.2 219.6 200.1 219.6 200.05 219.25 198.1 218.4 196.8 Z"/>

<path fill="#FFFFFF" stroke="none" d="
M 143.55 205.7
Q 143.95 205.5 144.2 205.3 144.95 204.65 144.9 203.95 144.85 203.05 143.55 202.45 143.45 202.45 143.3 202.4 141.75 201.8 139.7 201.95 137.65 202.1 136.3 202.9 135.4 203.35 135.15 203.9 135.55 204.75 135.8 205.8
L 135.8 205.85
Q 136.1 206.05 136.5 206.2 138.05 206.8 140.1 206.65 142.15 206.5 143.55 205.7
M 231.8 200.15
Q 231.8 199.1 230.35 198.3 230.2 198.2 230 198.1 228.25 197.35 225.75 197.35 223.25 197.35 221.45 198.15 219.7 198.95 219.6 200.05 219.65 200.4 219.7 200.8 220.05 201.6 221.45 202.2 223.25 202.95 225.75 202.95 228.25 202.95 230 202.15 230.25 202.05 230.45 201.9 231.8 201.15 231.8 200.15 Z"/>
</g>

<path id="Layer1_0_1_STROKES" stroke="#000000" stroke-width="1" stroke-linejoin="round" stroke-linecap="round" fill="none" d="
M 338.6 0.15
Q 337.55 3.05 336.75 7.3 335.95 11.6 336.1 15.65 336.3 19.75 333.75 23.2 331.2 26.6 324.15 31.3 317.1 36 306.8 39.35 316.65 49.8 322.05 63.4 330.8 76.3 334.1 93 342.7 117.3 343.05 142.5 343.35 167.65 339 184.05 334.65 200.45 331.3 207.65 331.2 207.8 331.15 207.9 327.75 214.95 323.4 220.85 319 226.85 312.9 231.25 309.6 233.6 306.55 235.5 303.5 237.35 300.05 239.2 299.35 239.6 298.4 240.05 294.2 242.25 292.2 243.4 296.6 244.3 299.75 246.45 309.85 253.2 315.05 264 320.2 274.75 320.8 286.8 321.4 298.75 319.4 307.45 317.4 316.1 315.9 319.45 315.65 319.95 315.45 320.4 322.9 322.6 330.05 325.15 337.55 327.75 339.5 329.05 341.4 330.35 341.75 331.6 347.15 331.85 352.35 334.55 359.9 338.55 365.1 343.7 370.3 348.8 373.35 355.75 376.35 362.7 379.45 377.2 382.55 391.65 381.35 412.6 381.4 412.8 381.45 412.95 382.15 415.15 383.2 419.05
L 384 421.05 311.4 419.9 298.35 420.9 291.6 419.45 164.65 420.35 156.05 419.3 95.6 420.45 74.15 420.65
Q 76.2 411.2 82.5 404.55 83.85 403.1 85.4 401.75 84.55 398.3 84.8 393.95 85.15 387.25 87.8 384.2 90.4 381.15 93 378.85 95.6 376.55 97.65 374.7 99.6 372.85 100.65 370.2 101.65 367.6 104.4 360.3 107.1 353.1 111.9 345.9 111.9 345.7 111.9 345.55 112 337.35 112.7 330.75 113.35 324 114.75 317.65 115.15 315.8 115.75 314.05 116.15 313 116.65 311.65 117.1 310.25 117.9 308.7 118.25 307.9 118.9 307.15 119.05 306.85 119.3 306.6 115.75 303.35 112.35 298.35 109 293.35 105.45 285.7 101.9 278 99.95 269.15 99.2 266.05 98.35 261.45 92.2 251 88.65 239.4 83.45 222.4 81.85 210.6 80.2 198.8 80.2 194.05 79.9 193.75 79.25 193.15 69.5 183.4 64.85 168.7 54.95 137.55 65.25 103.8 75.3 70.95 99.95 47.7 124.6 24.4 158.15 13.15 167.75 9.9 177.75 7.9 174.6 5.05 172.05 1.6 171.6 0.9 171.1 0.2
M 280.25 16.75
Q 280.95 16.9 281.6 17.05 290.45 18.55 299.55 18.5 309.45 18.4 319 16.35 319.45 16.2 319.9 16.15 325.05 15 328.35 13.35 331.35 11.8 333.2 9.75
M 334.1 93
Q 334.75 96.2 335.2 99.5 337.85 120.2 332.8 137.25 327.75 154.25 321.9 160.7 316.15 167.15 310.35 169.6 304.55 172.05 301.35 172.55
M 322.05 150.65
Q 317.7 156.2 314.05 159.7 310.35 163.1 306.1 164.95 301.85 166.85 297.75 167.45 293.65 168.15 289.55 166.75 285.4 165.4 282.3 162.7 281.9 162.3 281.5 161.95 281.5 161.0125 281.525 160.075 281.38515625 162.9078125 281.25 165.7 286 171.7 293.7 173.25 288.45 174.35 284.9 174 282.95 173.8 281 173.4 280.95 174.1 280.95 174.7 280.9 174.8 280.9 175 280.7 176.95 280.6 178.5
L 280.5 179.95
Q 282.9 181.4 286.05 182.45 288.95 183.35 292.65 183.85 293.3 183.9 294 184 294.15 183.9 294.35 183.85 296.45 183.05 298.4 183.05 300.6 183 302.25 183.95 303.6 184.7 304.4 185.9 305.25 187.15 306.8 191.05 308.35 194.95 310.35 199.2 312.4 203.5 313.35 205.95 313.4 206.2 313.45 206.45 316.55 204.35 321.4 199.05 326.15 193.75 330.5 184.45 334.8 175.1 336.65 166.95 338.5 158.7 338.55 149.3
M 331.15 207.9
Q 330.55 208.85 329.2 210.8 327.75 212.7 324.65 216.3 321.5 219.85 319 221.65 316.5 223.4 314.1 223.95
M 315.45 320.4
Q 313.7 324 311.45 326.6 308.65 329.75 304.25 332.45 300.9 334.4 295.7 336.65 289.9 339.15 283.9 341.15 283.75 341.35 283.6 341.6 274.35 355.85 268 369.8 261.1 384.85 258.75 400.95 275.1 401.35 291.55 401.5 291.7 399.75 292.2 396.4 292.8 392.35 295.25 383.15 297.7 373.95 305.15 362.2 312.65 350.5 320.05 343.4 327.45 336.3 331.2 334.3 334.95 332.2 336.75 331.9 338.55 331.5 341.75 331.6
M 344.7 343.35
Q 343.65 343.4 342.65 343.6 337.9 344.65 332.15 348.75 326.35 352.9 317.75 363.35 309.15 373.8 303.8 389.35 299.1 403.05 298.35 418.9
L 298.35 420.9
M 272.65 6.75
Q 275.65 6.85 280.25 5.75 284.75 4.7 289.25 2.95 293.65 1.25 295.5 0
M 319 16.35
Q 317.5 19.55 314.85 22.25 312.15 24.85 309.45 26.65 306.7 28.45 301.85 30.95
M 235.9 5.85
Q 254.05 8.05 271.35 15.3 288.55 22.5 302.1 34.75 304.55 36.95 306.8 39.35
M 261.3 45.6
Q 272 61.25 277 84.35 278.55 91.5 279.6 99.3 282.15 100.6 284.65 101 287.8 101.55 291.4 100.75 294.65 100 297.75 98.2 300 96.95 304.15 92.6 309.05 85.95 311.25 73.95 313.2 63.65 311.9 53.7
M 322.05 63.4
Q 322.2 63.8 322.35 64.15 322.35 64.3 322.45 64.4 322.5 64.5 322.5 64.55 322.7 65.2 323 65.85 328.85 82.25 325.1 99.35
M 323.05 78.6
Q 323.5 87.3 322.55 94.95 321.05 106.8 316.6 117.9 312.05 129.05 305.75 135.4 301.9 139.3 297.2 141.55 293.7 143.3 290.2 143.95
M 279.6 99.3
Q 280.3 104.7 280.85 110.4 284.1 109.6 286.7 108.45 295 104.75 302 95.5 302.15 95.3 304.15 92.6
M 206 16.65
Q 222.7 24.1 234.7 39.15 246.8 54.15 254.6 72.25 262.4 90.3 267.1 117.95 271.85 145.6 277.05 158.2 278.8 162.55 281.25 165.7
M 185.55 0.1
Q 187.2 1.8 189.55 3.35 190.95 4.25 193.35 5.5 210.65 3.65 228.8 5.3
M 172.65 34.45
Q 177.15 39.3 179.7 46.35 185.25 61.5 186.9 75.95 188.6 90.4 189.45 107.3 190.25 124.15 190.75 131.75
L 191.25 137.3
Q 191.3 138.2 191.55 141.5 191.8 144.75 192.75 152.2 193.7 159.6 194.1 161.45
L 194.1 161.5
Q 196.3 165.05 198.8 168.3 203.15 168.65 207.6 169.3 209.55 169.6 211.55 170 210.9 168.7 210.35 167.4 210.05 166.75 209.75 166.1 209.3 164.95 208.85 163.8 208.65 163.4 208.5 162.95 208.25 162.4 208.05 161.85 206.3 157.5 204.35 152 202.15 145.7 201.55 140.25 201.1 135.55 201.35 130.5
M 193.35 5.5
Q 185.45 6.3 177.75 7.9
M 173.8 131.75
Q 177.9 130.9 182.15 130.9 186.3 130.85 190.25 131.65 190.45 131.7 190.75 131.75
M 136.95 47.65
Q 134.4 57.45 134.35 67.6 134.2 81 136.15 95.35 138.15 109.65 143.1 120.2 148 130.65 155.75 137.5 156.25 137.95 158.15 139.4 159.95 140.75 162.3 141.9 163.5 142.45 164.75 142.65 164.95 142.65 165.15 142.7
M 176.5 138.15
Q 183.5 136.85 190.65 137.25 190.7 137.25 191.25 137.3
M 194.1 161.5
Q 194.75 164.95 195.55 168.1 197.15 168.15 198.8 168.3 200.9 171.05 203.2 173.6 205 175.65 207 177.55 207.3 177.5 207.6 177.45 211 176.7 215.7 177.05 213.4 173.75 211.55 170 214.65 170.55 217.8 171.3 216.3 170.15 214.9 168.9 213.45 167.6 212.2 166.3 209.9 164 208.05 161.85
M 186.1 167.95
Q 190.85 167.85 195.55 168.1 197.2 174.3 199.7 179.1 199.95 179.6 200.2 180.1 202.85 178.7 206.25 177.75 206.6 177.65 207 177.55
M 176.3 156.75
Q 177.9 164 180.05 171.05 182.85 174.55 186.5 177.45 190.8 180.9 195.8 183.2 196.3 182.7 196.8 182.35 197.75 181.45 198.95 180.8 199.55 180.45 200.2 180.1
M 172 162.55
Q 172.8 165.6 173.6 168 175.5 173.75 178.8 179.5 182.1 185.25 186.5 190.1 186.85 190.55 187.2 190.95 183.1 181.15 180.05 171.05
M 196.8 188.6
Q 197.1 186.5 197.75 184.35 198.25 182.5 198.95 180.8
M 196.8 188.6
L 198.4 188.6
Q 197.5 189.3 196.65 190 196.55 191.5 196.55 193 201.25 191.8 203.4 188.85 203.95 188.8 204.55 188.8 215.65 188.45 226.8 187.85 236.7 187.25 246.65 186.45 246.9 186.4 247.2 186.4 247.05 184.95 246.75 183.55
M 246.65 183.55
Q 246.6 183.5 246.55 183.45 246.3 183.35 246.25 183.35 240.45 181.2 234.65 179.75 232.9 179.35 231.2 178.95 230.8 178.85 230.4 178.8 226.65 178 222.9 177.55 219 177 215.7 177.05
M 196.65 190
Q 194.4 191.85 192.7 193.65 194.75 193.45 196.55 193
M 237.9 209.95
Q 238 210.05 238.1 210.2
M 195.8 183.2
Q 192.95 185.7 190.75 188.6
L 196.8 188.6
M 131.85 155.5
Q 133.4 160.25 136.35 165.25 138.3 168.45 140.7 172.85 149.95 184.25 159.35 189.35 168.8 194.35 178.65 195.55 188.25 196.75 195.35 195.85 191.2 195.1 187.2 190.95
M 215.2 136.8
Q 217.8 149.65 226 160.85 227.2 162.45 228.4 164 236.15 173.6 244.95 178.85 245.05 178.9 245.45 179.1 245.75 179.3 246.2 179.55
L 246.2 179.6
Q 247.9 180.5 251.25 182.35 256.9 185.5 267.15 187.25 272.8 188.25 277.95 187.95 278.95 187.95 279.85 187.85 279.9 187.85 279.95 187.85 282.55 187.55 285 187 282.5 186 280.15 184.5 276.2 182.05 272.65 178.35 270.85 176.5 269.25 174.6 268.6 173.8 267.95 173 265.1 169.5 262.75 165.75 262.15 164.75 261.6 163.85 258.15 158.15 255.9 152.9 253.2 146.8 249.35 137.05
M 217.8 171.3
Q 218.4 171.45 218.95 171.6 230.7 174.5 241.35 179.55 243 179.3 244.95 178.85
M 226.8 187.85
Q 229.4 191.8 230.2 197.2 230.3 197.75 230.35 198.3
M 230.45 201.9
Q 230.3 206.65 228.1 210.65 225 216.55 219.4 217.3 213.8 218.05 209.05 213.15 204.55 208.5 203.35 201.35
L 203.35 201.3
Q 203.3 201 203.25 200.75 202.25 194.15 204.55 188.8
M 217.8 171.3
Q 220.55 173.45 223.75 175.2 228.65 177.9 231.2 178.95
M 234.65 179.75
Q 235.6 179.9 236.6 179.9 238.65 179.95 241.35 179.55 243.9 180.8 246.45 182.15 246.55 182.15 246.6 182.25 246.4 180.8 246.2 179.6
M 248.2 87.15
Q 251.6 96.25 252.95 104.25 254.45 113.2 256.85 132.6 259.25 151.9 262.55 160.2 263.8 163.4 264.75 165.5 269.7 169.3 273.95 171.15 277.35 172.6 280.75 173.35 280.9 173.35 281 173.4
M 280.85 110.4
Q 281.9 123.05 281.8 137.2 281.75 147.25 281.65 154.8 281.6 156.7 281.55 158.55
L 281.525 160.075
M 247.2 186.4
Q 247.25 186.4 247.3 186.4 250 186.15 252.7 185.95 249.85 184.7 247 183.65 246.9 183.6 246.85 183.6 246.7 182.9 246.6 182.25 249.6 183.85 252.7 185.95
M 242.15 205.45
Q 242.3 205.8 242.45 206.2
M 280.5 179.95
L 280.15 184.5
M 279.15 199.25
Q 280.8 196.75 282.7 194.15 283.05 193.7 283.4 193.25 282 192.25 280.65 190.95 280.25 190.55 279.8 190.05 279.5 194.8 279.15 199.25 278.15 211.4 276.1 221.15 273.55 233 271.2 239.05 273.65 238.45 278.35 239.85 283.05 241.25 285 240.9 286.95 240.5 288.6 238.85 290.25 237.1 292.75 234.75 295.15 232.35 299.6 228.85 304.1 225.35 305.95 223.75 307.8 222.15 309 220.85 310.1 219.55 311.7 217.55 313.25 215.5 313.75 211.95 314.15 208.75 313.45 206.45
M 279.95 187.85
L 279.8 189.15
Q 279.8 189.55 279.8 190.05
M 279.85 187.85
Q 279.85 188.5 279.8 189.15
M 264.75 165.5
Q 267.15 170.85 269.25 174.6
M 283.4 193.25
Q 285.7 190.1 287.8 188.15 290.75 185.3 294 184
M 140.45 36.05
Q 140.35 36.2 139.7 37.1 139.1 38 137.4 40.75 135.7 43.55 134.9 45.15 134.1 46.75 133.3 48.9 128.4 69.9 129.75 83.6 131.1 97.35 135.1 108.75 139.1 120.2 144.55 127.1 150.05 134 155.75 137.5
M 133.3 48.9
Q 125.75 64.85 122.3 78.45 115.6 104.75 118.2 129.15 118.6 133.35 119.35 137.4 121.05 137 122.95 136.85 126.15 136.55 128.05 137.35 129.1 137.9 130.1 139.05 130.65 139.7 131.7 141.2 132.5 142.25 133.3 143.3 133.35 143.35 133.4 143.5 135.65 146.55 137.45 149.45
M 67.15 156.4
Q 69.1 162.85 72.6 168.95 75.75 174.35 78.95 178.25 80.7 180.3 82.5 181.95 87.5 186.65 89.55 187.95 91.6 189.25 91.7 189.3 95 191.35 98.7 192.8 101.1 188.7 105.55 185 106.2 184.45 106.9 183.9 107.1 183.7 107.3 183.4 103.05 176.65 99.75 168.65 95.35 157.85 92.9 144.75 88.75 122.55 96.25 100.7
M 119.35 137.4
Q 119.8 140.4 120.45 143.3 120.5 143.4 120.5 143.6 122 143.4 124.55 143.25 127.1 143.05 133.4 143.5
M 117.1 144.25
Q 118.8 143.8 119.65 143.7
L 120.5 143.6
Q 123.5 157.15 129.3 168.5 130.15 170.15 131.05 171.75 131.45 172.5 131.9 173.2 141.6 189.4 158.4 195.85 153.6 193 150.65 189.3 147.6 185.55 143.5 177.85 142.3 175.7 141.2 173.75 140.95 173.3 140.7 172.85
M 113.8 139.1
Q 115.5 138.4 117.3 137.9 118.3 137.6 119.35 137.4
M 108.7 169.75
Q 109.1 171 109.6 172.3 109.65 172.5 109.75 172.7 111.05 176.05 113 179 113.2 179.35 113.4 179.6 114.3 179.05 115.35 178.55 115.15 178.35 115 178.15 114.7 177.8 114.35 177.45 111.2 173.8 110.15 172.15 109.05 170.5 108.7 169.75 107.5 166.2 107 163 106.7 161.6 106.6 160.2
M 109.75 187
Q 106.8 188.5 103.5 190.65 101.6 191.85 99.6 193.3 98.7 193.9 97.8 194.65
M 97.8 194.75
L 103 194.5 106.9 194.4
Q 106.6 194.95 106.25 195.5 108.75 196.1 111.35 196.5 113.35 195.25 114.65 193.85 115.15 193.75 115.65 193.75 112.7 190.4 109.75 187 108.55 185.3 107.45 183.55 107.15 183.75 106.9 183.9
M 97.8 194.65
Q 98.15 193.65 98.7 192.8 99.1 193.05 99.6 193.3
M 127.8 173.8
Q 125.9 173.95 125.05 174.2 121.8 175.2 117.35 177.45 117.1 177.6 116.9 177.7 116.1 178.15 115.35 178.55 117.85 181.45 119.5 183.05 119.7 183 119.9 182.95 125.1 181.4 128.05 181.8 131.15 182.25 134.3 183.8 133.6 182.1 133.05 180.55 131.55 176.45 130.55 173.2 130.2 172.1 129.95 171.1 129.6 169.8 129.3 168.5
M 119.5 183.05
Q 118.25 183.4 116.9 183.9 116.3 184.15 115.75 184.35 114.35 184.85 112.95 185.5 111.4 186.15 109.75 187
M 113.4 179.6
Q 114.95 181.9 116.9 183.9
M 112.95 185.5
Q 111.25 183.75 109.6 181.95 108.45 182.75 107.45 183.55 107.35 183.45 107.3 183.4
M 99.75 168.65
Q 101.4 171.4 103.25 173.95 106.05 177.9 109.2 181.5 109.45 181.75 109.6 181.95 111.4 180.8 113.4 179.6
M 103 194.5
Q 104.65 195.05 106.25 195.5 104.7 197.7 102.45 199 102.5 199.35 102.55 199.7 105.5 199.3 108.3 198.05 109.95 197.3 111.35 196.5 115.45 196.6 117.95 196.1 116.55 194.8 115.65 193.75 118.7 193.45 121.8 193.15 121.95 193.1 122.15 193.1 129.5 192.35 136.95 191.45 137 191.45 137.1 191.45 139.95 191.1 142.9 190.75 142.85 190.65 142.8 190.6 139.25 186.5 135.55 184.45 134.9 184.1 134.3 183.8
M 141.95 219.2
Q 140.8 220.8 139.25 221.75
M 115.7 221.7
Q 115.45 221.85 115.25 222
M 139.25 221.75
Q 138.2 222.35 137 222.65 132.25 223.85 127.5 219.8 122.85 215.65 120.9 208.6 120.65 207.7 120.45 206.75 120.4 206.65 120.35 206.55 120.35 206.35 120.3 206.2 120.3 206.05 120.2 205.35 119.35 200.2 120.8 195.8 121.2 194.5 122.15 193.1
M 78.95 178.25
Q 81.4 185.9 86.45 192.1 91.55 198.3 97.8 201.9 95.1 196.2 91.7 189.3
M 144.2 205.3
Q 144.25 205.5 144.3 205.7 145.2 211.05 143.65 215.65 142.95 217.7 141.95 219.2
M 152.5 223.65
Q 151.2 225.95 149.45 228.15
M 103.35 204.35
Q 100.25 203.9 98.45 203.65 100.5 207.65 102.1 211.1 104 215.15 105.6 218.9 108.5 225.55 110.6 231.2 114 240.15 117.05 250.05 120.15 259.85 125.1 265.6 130.15 271.35 136.7 275.45 143.2 279.55 150.55 283.25
L 150.55 283.2
Q 150.8 283.1 151.05 283 152.3 282.45 153.25 282.5 154.05 282.55 155.05 283 155.45 283.25 156.6 284 157.7 284.8 159.55 286.2 161.45 287.6 168.95 293.65 169.45 294 170.1 294.5 169.95 293.7 170.05 293.15 170.4 290.95 171.25 289.4 172.05 287.95 173.2 287.6 174.15 287.15 175.35 287.4 176.45 287.65 177.25 288.4 178.45 289.4 179.55 292 181 295.7 181.45 299.6 182.4 300.25 185.4 301.95 188.3 303.6 190.1 303.55 191.8 303.55 203.95 296.15 204.15 296.05 204.35 295.9 216.85 288.25 225.65 282.4 234.5 276.65 236.25 275.3 238 274 238.5 273.65 238.95 273.3 239.15 273.05
M 102.55 199.7
Q 101.5 199.85 100.45 199.9 101.55 199.55 102.45 199
M 103.35 204.35
Q 103.3 204.3 103.3 204.25 99.85 203.1 97.8 201.9
M 103.3 204.25
Q 103.5345703125 204.3439453125 103.725 204.4 103.5375 204.35 103.35 204.35
M 105.6 218.9
Q 105.6 219.3 105.6 219.75 105.65 232.8 106.05 240.5 106.65 251.35 108.1 260.65 111.75 269.2 116.55 277.05 116.5 276.55 116.7 276.1 117.05 275.45 117.8 275.2 118.5 274.9 119.5 275 120.5 275.15 121.9 275.95 123.3 276.75 124.55 277.7 124.3 276.75 124.2 276.2 124.1 275.15 124.6 274.55 125.6 273.45 128.05 274.25 130.8 275.2 134 276.95 135.8 277.9 139.6 280.3 142.15 281.95 142.5 283.4 142.65 284.3 142.35 284.75
L 142.35 284.8
Q 143.5 285.95 144.65 287.25 145 286.95 145.45 286.6 146.8 285.6 149.55 283.8 149.7 283.7 149.85 283.6
L 149.9 283.55
Q 150 283.5 150 283.45 150.15 283.4 150.2 283.4 150.35 283.3 150.55 283.25
M 112.35 219.25
Q 112.3 219.3 112.25 219.3 112.05 219.45 111.9 219.6
M 112.7 218.9
Q 112.55 219.05 112.35 219.25
M 115.9 221.45
Q 115.8 221.55 115.7 221.7
M 98.15 220.65
Q 99.8 240.1 107.15 258.35 107.6 259.5 108.1 260.65
M 122.3 282.05
Q 120.05 280.85 118.55 279.8 118.25 279.6 117.95 279.35 122.7 286.8 129.65 294.25 120.15 288.1 112.6 280.3 113.4 285.25 115.35 291.05 117.3 296.8 121.1 304.65 123.2 302.8 126.85 300.1
L 136.2 293.35
Q 128.8 288.1 126.5 286.6 124.25 285.05 123.6 284.4 122.95 283.7 122.5 282.5 122.4 282.25 122.3 282.05 122.1 281 122.5 279.8 122.85 278.45 124.55 277.7
M 117.95 279.35
Q 117.25 278.8 116.9 278.2 116.55 277.65 116.55 277.05
M 98.35 261.45
Q 101.15 266.3 104.6 270.9 108.25 275.85 112.6 280.3
M 142.35 284.8
Q 141.7 285.75 139.95 285.75 138.45 285.7 136 284.1 133.5 282.5 131.65 281.55 130.6 280.95 128.9 280
M 136.2 293.35
L 144.1 287.6
Q 144.35 287.45 144.65 287.25
M 118.9 307.15
Q 119.25 307 119.7 306.9 120.9 306.6 122.1 306.25 132.7 303.4 139.3 301.1 146.8 298.5 149.5 297.7 152.15 296.95 153.95 297.7 155.75 298.4 157.4 300.1 159.05 301.85 161.7 304.4 165.3 307.75 169.05 309.55 170.9 310.45 172.8 310.95 178.45 312.5 182.3 311.05 183.9 310.4 184.95 309.75 186.35 308.8 186.65 307.85 187.15 306.1 185.55 304.75 184.2 303.55 181.55 302.1 180.95 301.75 179.1 300.6 177.25 299.5 170.1 294.5
M 163.65 342.45
Q 163.5 342.8 163.4 343.15 163.3 343.7 163.25 344.2 163.2 344.4 163.2 344.65 163.05 346.65 163.85 349 164.15 349.85 164.7 351.1 165.05 351.05 165.3 350.95 165.8 350.8 166.45 350.2 167.1 349.55 167.15 346.05 167.2 342.45 167.35 338.75 167.5 335.05 167.5 334.1 167.5 331.6 167.45 329.45 167.4 327.2 166.1 325.65 164.75 324.1 160.85 321.5 156.9 318.9 154.95 317.15 152.95 315.4 151.55 314.55 150.2 313.7 149.1 313.25 147.55 312.6 145.45 312.8 144.15 312.9 141.7 313.5 136.85 314.8 121.35 318.85
M 131.2 355
Q 134.7 352.25 137.15 348.75 139.7 345.3 139.35 342.55 139.25 342.6 139.15 342.6 137.35 343.15 135.2 343.45 134.7 343.5 134.1 343.6 133.45 343.65 132.7 343.7
M 164.7 351.1
Q 164.25 351.15 163.6 351.15 162.4 351.15 160.85 350.1 159.3 348.95 158.15 346.5 158.05 346.4 158 346.25 157.9 346.15 157.9 346.05 156.85 347.6 156.55 348.75 156.2 349.75 156.05 351.55 155.9 353.55 155.75 354.3 155.35 355.75 154.3 356.8 153.5 357.6 152.6 357.85 152.2 357.9 151.8 357.9 149.9 357.75 148.45 355.35 146.35 351.65 147.45 345.55 147.55 344.95 147.95 343.4 147.9 343.4 147.85 343.4 146.3 341.65 144.55 339.95 142.9 341.2 140.8 342.05 140.35 342.25 139.8 342.45 139.7 342.45 139.6 342.5 139.45 342.5 139.35 342.55
M 142.35 325.65
Q 139.9 326.45 135.25 328.05 130.15 329.75 121.9 333.15
M 157.9 346.05
Q 157.9 346 157.9 345.95 158.55 345.05 159.8 343.25 162.1 339.8 161.1 338.15 160.1 336.5 158.7 335.3 157.35 334 156.55 333.2 155.7 332.3 152.6 329.25 149.5 326.2 147.85 325.3 147.75 325.25 147.7 325.25 147.65 325.2 147.6 325.2 147.4 325.1 147.15 325.05
M 146.75 337.8
Q 146.4 338.25 145.95 338.7 145.8 338.85 145.65 338.95 145.3 339.3 144.95 339.65 144.8 339.75 144.65 339.85 144.6 339.9 144.55 339.95
M 151 343.75
Q 150.6 343.6 150.2 343.6 149.85 343.5 149.45 343.5 148.6 343.35 147.95 343.4
M 119.3 306.6
Q 119.75 306.05 120.3 305.45 120.7 305 121.1 304.65
M 107.95 375.6
Q 107.95 375.85 108 376.1 108 376.95 108.1 377.85 108.6 382.85 110.35 388.8 112 381.35 111.65 368.35 108.95 368.6 106.6 370.2 104.2 371.8 102.45 374.2 99.95 377.5 97.65 384.2 95.75 390 94.4 396.05 93.5 400.2 92.85 404.4 92.8 404.75 92.75 405.1
M 111.65 368.35
Q 111.75 366.15 111.8 363.8 111.75 353.55 111.9 345.9
M 153.95 349.6
Q 153.8 349.9 153.6 350.25 152.8 351.9 152.55 353.4 152.15 355.8 152.6 357.85
M 156.05 419.3
Q 157.45 416.95 158.85 414.6 161.15 410.65 162.7 408.15 163.35 407 163.85 406.15 165.5 403.35 166.7 400.95 167.65 399.1 168.3 397.5 170.2 392.65 170.3 388.25 170.45 383.2 168 378.9 167.6 378.2 166.95 377.55 166.4 378 165.35 378.6 164.25 379.2 161.15 380.45 160.95 380.5 160.75 380.55 158.4 384.3 157.1 387.05 155.05 391.2 153.85 395.4 160.05 391.15 161.9 388.9 162.55 388.15 162.9 387.35 163.3 386.25 163.25 385.15
M 148.4 388
Q 148.75 387.6 149.1 387.2 152.1 383.65 155.05 382.7 157.85 381.7 160.75 380.55
M 153.85 395.4
Q 153.8 395.45 153.25 395.85 146.65 400.3 135.8 404.65 131.9 406.25 129.15 406.7 125.4 407.35 122.45 406.3 117.85 404.6 114.4 398.25 111.55 393.05 110.35 388.8
M 140.85 355.25
Q 142.1 360.65 142.7 366.9 143.05 370.7 143.4 377.25
M 300.35 198.65
Q 299 199.8 298.5 200.25 295.45 202.55 293.65 204.55 293.45 204.7 293.35 204.9 294.05 205.65 294.6 206.75 295 207.6 295.25 208.65 295.45 209.7 295.55 211.25 295.55 211.35 295.55 213.85
M 293.35 204.9
Q 291.6 206.75 290.1 208.9 288.4 211.3 288.5 212.7 288.5 212.8 288.55 212.9 288.65 214.15 289.05 215.35 289.45 216.65 289.3 218.15 289.1 219.6 287.5 220.8 285.85 222 283.6 223.3
M 300.05 239.2
Q 298.1 240.05 295.2 241 290.25 242.5 284.8 244.1 279.3 245.7 275.95 248.4
M 247.3 186.4
Q 248.7 198.5 249.65 212.9 250.55 227.3 249.75 242.75 248.95 258.2 247.25 267.85 246.2 273.2 244.85 277.8 243.25 283.15 241.75 287.55 239.6 293.7 237.6 298 237.55 298.05 237.5 298.05 237.45 298.25 237.35 298.4 232.65 308.4 224.05 316.35 237 307.25 244.65 293.9 249 287.35 255.3 273.25 255.35 273.05 255.45 272.85 255.75 272.15 256.05 271.45 256.7 269.95 257.2 268.35 261.5 255.85 261.25 239.6
M 271.2 239.05
L 270.9 240.3
Q 270.65 250.6 271.05 256.4 271.15 258.65 271.45 260.75 275.3 256.05 278.3 253.35 281.25 250.7 282.25 250.05 286.05 247.15 292.2 243.4
M 282.25 250.05
Q 283.15 252.6 283.25 254.6
L 283.25 254.65
Q 283.25 254.9 283.25 255.1 283.25 255.25 283.25 255.35 283.25 255.55 283.25 255.75
M 282.5 259.45
Q 281.55 262 279.7 264.55 277.65 267.4 273.65 270.95 273.6 271 273.55 271.05 272.95 271.6 272.35 272.15 256.8 286.1 244.65 293.9
M 271.45 260.75
Q 272.15 266.25 273.65 270.95
M 270.9 240.3
Q 265.55 258.6 255.45 272.85
M 238.1 210.2
Q 238.3 210.6 238.5 211
M 173.15 265.1
Q 173.45 265.1 175 265.3
M 237.5 298.05
Q 237.15 298.25 236.8 298.4 223.05 305.7 217.95 307.2 214.2 308.3 210.2 309 208.9 309.15 207.4 309.3 202.1 309.9 196.7 307.6 195 306.85 193.5 305.9
M 198.5 328.85
Q 198.6 328.8 198.65 328.8 199.55 329.1 200.95 329.45 202.35 329.75 203.55 329.85 204.75 329.9 205.5 329.4 206.3 328.85 205.4 327.35 204.5 325.85 201.6 323.7 201.55 323.6 201.55 323.55 200.85 323.95 200.3 324.5 199.15 325.55 198.75 327.3 198.55 328.05 198.5 328.85 196.7 329.2 194.45 328.8 191.65 328.3 188.8 326.7 187.8 326.15 186.8 325.6 184.9 324.55 183.1 323.45 182.35 327.2 181.85 330.7 181.65 331.9 181.45 333.5 181.6 333.95 181.7 334.3 182 335.35 181.9 336.15 181.7 337.35 180.8 338.2 180.4 340.7 180.05 343.85 178.7 355.2 176.55 362.25 176.4 362.7 176.3 363.2 182.45 368.15 193.4 370.45 204.25 372.7 220.3 369.3 236.3 365.9 248.65 358.45 260.9 351 267.9 345.55 275.45 339.45 285.35 330.5
M 184.95 309.75
Q 186.1 310.7 187.85 311.7 189.45 312.7 193.6 315.35 193.75 315.45 193.85 315.5 197.7 318 199.9 320.85 201.05 322.3 201.55 323.55
M 186.8 325.6
Q 186.75 321.6 188.45 319.25 190.15 316.95 191.6 316.2 193.05 315.5 193.85 315.5
M 173.8 304.05
Q 175.1 305.5 176.9 306.6 179.4 308.1 182.1 308.6 182.35 308.6 182.55 308.65
M 181.55 302.1
Q 181.55 300.85 181.45 299.6
M 169.05 309.55
Q 170.75 311.8 172.25 314.55 173.05 315.95 173.8 317.45 175.1 318.4 178 320.25 180.9 322.05 183.1 323.45
M 173.8 317.45
Q 174.6 319.05 175.3 320.85 176.65 324.3 178.85 328.7 181 333.05 181.45 333.5
M 173 330
Q 173.15 330.35 173.3 330.75 173.75 331.8 174.35 332.75 175 333.8 175.8 334.75 176.45 335.5 177.2 336.15 177.4 336.35 177.6 336.5
M 180.8 338.2
Q 180.65 338.35 180.4 338.5 179.2 339.4 177.65 339.55 175.25 339.85 172 337.95 169.3 336.25 167.5 334.1
M 166.95 377.55
Q 170.95 374.9 174.5 367.6 175.45 365.7 176.3 363.2
M 290.1 327.85
Q 291.4 326.55 293.85 325.4 298.25 323.3 301.9 322.35 302.35 322.2 302.8 322.1
M 267.9 345.55
Q 275.85 343.8 283.9 341.15
M 247.25 267.85
Q 242.45 279.55 234.6 288.85 227.65 297 217.1 302.85 230.9 298.05 241.75 287.55
M 203.95 296.15
Q 207.7 302.65 210.2 309
M 136.95 191.45
Q 141.55 195.8 143.55 202.45
M 80.2 194.05
Q 88.9 202.15 98.45 203.65
M 318.4 402.8
Q 314.35 410.25 311.7 418.9
L 311.4 419.9
M 291.55 401.5
Q 291.55 402.75 291.45 404.1 291.35 405.55 291.45 409.95 291.55 414.35 291.6 419.45
M 162.7 408.15
Q 163.15 409.45 163.55 410.75 164.8 414.75 165.2 418.95
L 164.65 420.35
M 166.7 400.95
Q 213.2 400.05 258.75 400.95
M 94.4 396.05
Q 89.5 398.25 85.4 401.75
M 93.5 414.35
Q 93.5 414.7 93.6 414.95 94.05 417.25 94.5 418.45 94.55 418.6 94.7 418.8
L 95.6 420.45
M 375.15 396.25
Q 378.35 403.45 381.35 412.6"/>

<path id="Layer0_0_1_STROKES" stroke="#000000" stroke-width="1" stroke-linejoin="round" stroke-linecap="round" fill="none" d="
M 219.6 200.05
Q 219.25 198.1 218.4 196.8 217.4 195.2 216.35 195.3 215.25 195.35 214.75 197.1 214.2 198.6 214.4 200.65
L 214.4 200.75
Q 214.4 200.95 214.45 201.2 214.75 203.55 215.7 205.25 216.75 206.8 217.8 206.75 218.9 206.6 219.45 204.95 220 203.2 219.7 200.8 219.65 200.4 219.6 200.05 Z
M 135.15 203.9
Q 135.55 204.75 135.8 205.8
L 135.7 205.8
Q 135.75 205.85 135.8 205.85 135.8 205.9 135.85 206 136.45 208.35 136.05 210.15 135.75 211.95 134.7 212.15 133.6 212.3 132.45 210.8 131.25 209.3 130.65 206.95 130.65 206.75 130.5 206.05
M 130.5 206
Q 130.25 203.7 130.45 202.85 130.8 201.05 131.85 200.9 132.95 200.65 134.1 202.2 134.7 202.95 135.15 203.9"/>
</defs>

<g transform="matrix( 1, 0, 0, 1, 0,0) ">
<use xlink:href="#Layer4_0_FILL"/>
</g>

<g transform="matrix( 1, 0, 0, 1, 0,0) ">
<use xlink:href="#Layer1_0_FILL"/>

<use xlink:href="#Layer1_0_1_STROKES"/>
</g>

<g transform="matrix( 1, 0, 0, 1, 0,0) ">
<use xlink:href="#Layer0_0_FILL"/>

<use xlink:href="#Layer0_0_1_STROKES"/>
</g>
</svg>
