
<svg xmlns="http://www.w3.org/2000/svg" version="1.1" xmlns:xlink="http://www.w3.org/1999/xlink" preserveAspectRatio="none" x="0px" y="0px" width="1280px" height="720px" viewBox="0 0 1280 720">
<defs>
<g id="Layer2_0_FILL">
<path fill="#FFFFFF" stroke="none" d="
M 1280 720
L 1280 0 0 0 0 720 1280 720 Z"/>
</g>

<g id="Layer0_0_FILL">
<path fill="#000000" stroke="none" d="
M 539.5 699.45
Q 535.3 697.65 532.35 694.95 529.15 692.05 528.25 688.7 524.2 690.75 520.45 693.2 514.95 696.8 512.9 700.15 511.6 702.4 511.45 704.65 511.35 707.2 512.75 709.1 514.8 712.2 519.1 713.3 523.4 714.4 535 714.9 546.45 715.35 560 714.95 573.5 714.5 583.8 713.2 594.1 711.85 598.75 710.55 603.4 709.2 607.85 707.15 614.85 704.45 614.85 700.25 614.85 699.75 614.7 699.3
L 614.7 699.2
Q 613.95 696.15 608.05 693.1 607.5 692.8 607 692.5 605.9 696 598.7 697.9 577.8 703.25 557.25 702.45 546.1 701.9 539.5 699.45
M 512.6 278.4
Q 511.1 280 511.1 282.1 511.1 284.25 512.6 285.75 514.15 287.3 516.35 287.3 518.6 287.3 520.15 285.75 521.7 284.25 521.7 282.1 521.7 280 520.15 278.4 518.6 276.9 516.35 276.9 514.15 276.9 512.6 278.4
M 576.9 280.4
Q 574.15 280.4 572.2 282 570.3 283.55 570.3 285.85 570.3 288.15 572.2 289.75 574.15 291.3 576.9 291.3 579.6 291.3 581.55 289.75 583.55 288.15 583.55 285.85 583.55 283.55 581.55 282 579.6 280.4 576.9 280.4
M 717.05 701.9
Q 706.35 701.9 701 701.7 692.1 701.25 685.05 700 667.3 696.4 657.6 687.25 646.3 694.3 640.15 702.25 643.25 703.9 649.3 706.05 670.9 713.7 689.1 717.1 711.1 721.25 730.45 719.5 740.8 718.6 743.95 714.2 746.45 710.65 743.95 705.9 741.9 702.2 737.25 698.35 736.05 697.35 734.75 696.4 732.75 699.7 727.3 701.05 723.45 701.9 717.05 701.9 Z"/>

<path fill="#EAB554" stroke="none" d="
M 578.6 649.4
Q 579.15 649.6 580.2 649.8 580.1 644.55 580.2 643.35 578.6 643.25 577.35 644.35 576 645.55 576.25 646.95 576.45 648.45 578.6 649.4 Z"/>
</g>

<path id="Layer0_0_1_STROKES" stroke="#000000" stroke-width="1" stroke-linejoin="round" stroke-linecap="round" fill="none" d="
M 782.9 116.15
Q 784.05 116.25 785.2 116.3 794.15 115.75 802.95 116.8 814.35 118.05 827.95 122.3 836.3 124.85 851.9 130.75 862.85 135.05 868.2 138.1 876.7 142.85 880.15 148.85 884.8 156.8 881.4 166.35 878.2 175.3 869.5 181.35 854.65 191.3 828.5 191.8 812.55 192.2 795.3 189.05 795.55 190.05 795.75 191 812.4 264.25 805.85 314.65 799.3 364.9 800.65 378.75 801.95 392.5 806.3 403.4 810.65 414.25 821.6 421.15 832.55 428.1 849.05 439.7 865.5 451.25 873.75 460.1 882 468.9 883.45 480.95 884.95 492.95 879.65 505.6 874.3 518.25 857.15 530.45 843.15 540.45 812.8 544.05 812.4 544.1 811.95 544.15 813.45 547.85 812.8 552.95 812.2 559.6 809.1 565.7 806 571.95 800.75 576.75 795.45 581.8 788.35 585 781.25 588.15 773.5 589.1 772.3 591.6 770.6 594.25 765.15 602.2 756.2 606.4 757.5 608 757.95 608.8 758.85 610.4 758.45 611.35 758.15 612.35 756.4 613 754.7 613.5 753 612.85 751.25 612.1 750.1 608.65 749.8 608.75 749.55 608.9 747.6 609.35 745.6 609.75 746.25 611.95 745.6 615.05 744.9 617.05 744.25 617.65 743.25 618.7 741.65 619 740.1 619.3 738.55 618.75 736.1 617.65 735.6 615.3 735.05 614 735.05 611.05 732.5 611.1 729.75 611.05 730.45 614.15 730.05 615.65 729.75 618.2 727.75 619.6 726.65 620.35 725.35 620.7 723.95 621 722.7 620.55 720.2 619.7 719.2 616.4 718.35 614.3 717.75 609.95 717.7 609.95 717.65 609.95 714.55 609.45 711.65 608.65 711.65 611.5 711 613.5 709.85 615.85 707.5 616.85 706.2 617.3 704.8 617.05 703.3 616.85 702.45 616 701.7 615.35 701.1 613.95 700.15 611.5 699.85 608.8 688.15 617.35 669.6 620.45
L 668.9 633.55
Q 677.7 633.55 685.75 636.6 693.85 639.6 699.45 645 703.05 648.45 704.35 652.2 705.75 657 702.8 660.2 700.55 662.75 695.9 663.8 695 664 694 664.1 696.75 665.65 698.65 668.15 700.55 670.55 701.1 673.3 701.7 675.8 701.6 678.95 701.5 679.75 701.45 680.95 707.15 682.2 712.75 684.3 724.45 688.85 734.75 696.4 736.05 697.35 737.25 698.35 741.9 702.2 743.95 705.9 746.45 710.65 743.95 714.2 740.8 718.6 730.45 719.5 711.1 721.25 689.1 717.1 670.9 713.7 649.3 706.05 643.25 703.9 640.15 702.25 640.15 702.2 640.1 702.2 635.3 699.7 632.6 696.5 629.35 692.75 628.65 687.45 628.6 690.3 627.9 692.4 627.4 695.1 624.9 696.95 623.15 698.35 620.1 698.85 618.5 699.15 614.7 699.3 614.85 699.75 614.85 700.25 614.85 704.45 607.85 707.15 603.4 709.2 598.75 710.55 594.1 711.85 583.8 713.2 573.5 714.5 560 714.95 546.45 715.35 535 714.9 523.4 714.4 519.1 713.3 514.8 712.2 512.75 709.1 511.35 707.2 511.45 704.65 511.6 702.4 512.9 700.15 514.95 696.8 520.45 693.2 524.2 690.75 528.25 688.7 541.85 681.55 557.75 679.4 558.45 675.6 560.5 672.35 563.4 667.75 568.3 664.7 567.65 664.5 567.05 664.4 562.95 663.2 560.75 661.15 558.6 659.15 557.7 655.45 556.85 651.65 560.4 647.45 563.85 643.25 569 640.9 574 638.6 580.45 637.85 581.05 627.05 582.3 616.35 579.5 615.55 578 614.95 572.15 612.3 571.7 598.05 571.65 598.35 571.25 598.85 570.95 599.3 570.5 599.5 570.05 599.65 569 599.65 568 599.65 567.65 599.5 567.35 599.3 566.8 598.2 566.9 598.8 566.95 599.45 566.95 600.3 566.8 601.05 566.6 602.2 566.05 602.7 565.25 604.05 563.15 604.35 561.25 604.75 559.55 604 557.95 603.3 557.15 601.8 556.4 600.3 556.6 598.75 556.35 599.35 556 599.85 555.05 601.25 552.85 601.7 550.8 602.2 548.9 601.5 546.4 600.85 545.45 599.25 544.5 597.65 544.4 595.3 544.25 592.85 545.15 588.75 540.5 585.4 537.7 580.45 534.2 574.1 533.85 566.85 533.4 560.55 535 552.85 535.95 548 538.65 539.15 548.4 508.1 556.9 485.5 567.85 456.75 580 433.1 582.55 427.85 584.55 424.9 587.45 420.5 591 417.55 595.1 414.2 600.2 412.6 602.3 411.9 604.5 411.9 607.95 411.9 611.7 413.55
L 611.7 406.05
Q 593.1 407.85 574.1 405.95 543.8 402.7 525.95 391.55 503.3 377.5 499.45 351.85 495.65 326.25 515.6 307.85 505.4 299.05 505.4 286.8 505.4 280.95 507.75 275.95 502 274.85 498.4 271.8
M 707.05 119.7
Q 707.05 127.5 709.35 135.5 715.1 135.95 718.8 138.4 720.2 137.45 721.7 136.6 724.4 96.8 726.5 77.05 727.55 66.75 727.1 61.25 726.25 52.5 722.05 46.5 716.05 38.35 700.45 32.2 682.65 25.1 662.7 23.15 643.95 21.6 632.9 26.6 630.45 27.65 628.2 29.1 642.25 30.75 652.5 49.3 656.55 56.7 660.25 65.15 665.95 78.45 670.7 94.2 673.75 104.15 677.65 120.4 679.85 129.7 682.45 141.1 688.4 138.2 694.95 136.7 691.3 123.4 690.05 112.3
M 660.25 65.15
Q 654.75 81.4 658.55 95.15 660.75 102.8 665.45 109.15 670.45 115.95 677.65 120.4
M 694.95 136.7
Q 698.25 135.95 701.65 135.55 705.9 135.2 709.35 135.5
M 682.45 141.1
Q 681.15 141.7 679.8 142.5 685.9 144.3 691.75 146.85 696.65 149 701.1 151.55 701.3 151.35 701.5 151.15 705.9 147.35 709.2 144.95 713.9 141.5 718.8 138.4
M 504.2 262.4
Q 504.35 262.95 505.55 264.3 508.2 267.3 512.15 269.2 513.95 267.05 516.25 265.2 517.25 264.3 518.35 263.65 514.5 250.65 513.85 240.5 513 228.25 515.6 217.8 515.65 217.4 515.75 217 503 203.4 507.3 185.8 511.3 169.2 526.65 158.15 540.2 148.55 560.65 143.6 576.8 139.65 599.35 138.3 632.45 136.45 665 139.15 665.3 139.15 665.65 139.2 672.65 140.3 679.4 142.3 655.9 132.75 638.9 115.65 621.4 98.25 614.85 77.05 610.1 61.1 613.4 48.85 615.5 41.75 620.35 35.95 623.85 31.85 628.2 29.1
M 679.4 142.3
Q 679.6 142.35 679.8 142.5
L 679.7 142.5
Q 679.5 142.45 679.4 142.3 Z
M 701.1 151.55
Q 705 153.65 707.55 155.25 710.05 156.9 711.15 157.4 712.15 157.95 712.65 158.3 731.2 167.9 746.45 174.3 758.3 179.3 768.05 182.4 782 186.75 795.3 189.05
M 712.65 158.3
Q 712.9 158.8 713.15 159.4 726.45 188.55 728.15 227.4 729.15 252.15 724.65 298.95 732.45 296.95 739.25 298 742.4 298.5 745.25 299.65 755.7 259.95 755.65 230.7 755.55 201.5 746.45 174.3
M 785.2 116.3
Q 791.7 116.9 797.6 119.95 804.65 123.6 808.1 129.4 811.65 135.25 810.95 142 810.1 148.8 805.3 153.75 804 155.35 802.25 156.6 793.7 163.15 777 165.35 775.05 165.5 773.2 165.75 758.45 166 742 163.25 733.1 161.75 724.45 158.95 716.8 156.45 701.5 151.15
M 802.25 156.6
Q 783.5 150.35 762.85 151 752.95 151.35 743.6 153.2 733.7 155.2 724.45 158.95
M 721.7 136.6
Q 734.6 128.9 748.7 123.8 767.25 117.2 785.2 116.3
M 654.5 262.85
Q 652.5 266.05 649.3 268.35 645.75 270.75 641.65 271.3 644.4 274.95 645.9 279.05 649.35 278.55 652.5 277.6 654.3 277.2 657.65 275.5
M 645.9 279.05
Q 647.45 283.45 647.45 288.45 647.45 296.6 643.25 303.3 667.9 317.75 695.8 323.5 697 316.15 703.25 310.15 708.85 304.8 717.4 301.3 721.1 299.85 724.65 298.95
M 735.85 360.5
Q 729.2 350.75 724.25 345 723.8 344.45 723.35 344 723.1 344.45 722.9 345 718.25 354.15 713.85 363.5 708.5 374.45 702.35 385.05 698.6 391.3 702.15 393.8 704 395.1 708.15 394.9 721.35 394.7 729.3 394.4 741 393.9 750.25 392.7 753.9 392.05 754.6 390.7 755.35 389.3 753.6 386.85 743.35 371.7 735.85 360.5 742.15 358.2 747.3 354.55 755.7 348.5 759.9 339.7 764.05 330.8 762.65 321.65 761.3 313.15 755.15 306.6 750.8 301.95 745.25 299.65
M 664.4 341.2
Q 664.4 348.35 658.25 353.4 652.2 358.5 643.5 358.5 634.8 358.5 628.65 353.4 622.55 348.35 622.55 341.2 622.55 334 628.65 328.9 634.8 323.85 643.5 323.85 652.2 323.85 658.25 328.9 664.4 334 664.4 341.2 Z
M 611.7 406.05
Q 630.2 404.15 648.15 398.4 649 398.15 649.75 397.9 685.6 386.1 705.9 362.4 709.8 363.2 713.85 363.5
M 649.75 397.9
L 650.5 411.25
Q 655.75 410.7 661 411.55 665.5 412.25 670 413.9 670.7 414.2 671.4 414.4 680.95 418.2 688.75 425.1 690.95 427 693.1 429.2 697.45 433.6 701.5 439.25 705.6 444.95 711.65 455.1
L 754.95 526.5
Q 763.5 540.6 768.9 550.45 774.15 560.35 776 571.9 777.45 580.7 773.5 589.1
M 661 411.55
Q 655.65 413.25 651.3 417.2 647.35 420.9 644.95 425.65 643.05 429.8 641.95 435.25 641.25 438.75 640.5 445.15 645 446.35 650.45 447 651.55 437.45 656.3 428.75 661 420.05 670 413.9
M 650.45 447
Q 654.85 447.5 660.25 447.2 670.85 446.5 679.7 441.75 688.95 436.85 693.1 429.2
M 578.05 461.2
Q 580.25 474.05 573.55 490.9 569.7 500.65 559.95 519.75 552.2 536.25 552.15 550.2 552.05 567.35 563.6 577.75 567.65 581.4 573.7 584.3 582.25 588.45 594.8 591 616.95 595.3 639.85 593.4 661.95 591.55 681.65 584.3 677.25 576.7 674.4 567.3 671.35 557.3 668.35 537.7 661.5 492.1 658 469.35
M 811.95 544.15
Q 797.25 545.7 790.05 540.15 787 537.6 787.9 535.45 788.25 534.4 789.65 533.7 790.95 533.1 792.6 533 794.85 533 798.25 534.1 803.6 535.8 806 537.35 808.3 538.75 809.85 540.65 811.3 542.4 811.95 544.15 Z
M 756.2 606.4
Q 753.35 607.7 750.1 608.65
M 745.6 609.75
Q 740.6 610.8 735.05 611.05
M 699.85 608.8
Q 699.9 608.75 699.95 608.65 701.9 607.3 703.6 605.75 694.9 601.7 688.65 594.3 684.75 589.85 681.65 584.3
M 711.65 608.65
Q 707.4 607.55 703.6 605.75
M 582.3 616.35
Q 590.15 618.4 608.1 620.8 608.45 620.8 608.75 620.9 623.5 622.95 639.35 622.8 650 622.7 661.25 621.55 665.65 621.15 669.6 620.45
M 639.35 622.8
L 638.45 639.85
Q 642.8 644.75 649.3 647.9 655.85 651.1 663.2 651.9 665.8 652.25 668.15 652.3
L 668.9 633.55
M 701.45 680.95
Q 693.55 679.2 685.3 679.2 670.95 679 658.8 686.45 658.2 686.8 657.6 687.25 667.3 696.4 685.05 700 692.1 701.25 701 701.7 706.35 701.9 717.05 701.9 723.45 701.9 727.3 701.05 732.75 699.7 734.75 696.4
M 668.15 652.3
Q 673.15 652.35 677.9 651.45 685.3 650.05 691.4 646.7
M 694 664.1
Q 691.1 664.4 686.95 664.1
M 729.75 611.05
Q 724 610.9 717.75 609.95
M 515.75 217
Q 518.75 205.75 525.8 196.5 533.7 186.2 544.05 180.75 547.85 202.8 559.35 223.35 570.35 243.1 588.35 259.55 596.95 255.55 607.6 255.55 624.1 255.55 635.75 265.2 639.2 268.05 641.65 271.3
M 606.15 217.1
Q 610.45 216.6 614.8 217.25 619.15 218 622.9 219.85 630.65 223.55 633.8 230.6
M 518.35 263.65
Q 528.55 256.2 542.45 256.2 557.75 256.2 568.6 265.2 571.75 267.75 573.95 270.65 576.2 267.75 579.35 265.2 583.6 261.7 588.35 259.55
M 583.55 285.85
Q 583.55 288.15 581.55 289.75 579.6 291.3 576.9 291.3 574.15 291.3 572.2 289.75 570.3 288.15 570.3 285.85 570.3 283.55 572.2 282 574.15 280.4 576.9 280.4 579.6 280.4 581.55 282 583.55 283.55 583.55 285.85 Z
M 515.6 307.85
Q 515.9 308.1 516.25 308.4 527.15 317.4 542.45 317.4 557.75 317.4 568.6 308.4 570.85 306.55 572.65 304.55 567.7 297.3 567.7 288.45 567.7 278.5 573.95 270.65
M 546.3 217.9
Q 542.45 217.7 538.6 218.8 534.7 219.9 531.85 222.05 528.75 224.25 526.95 227.25 525.1 230.3 524.85 233.55
M 521.7 282.1
Q 521.7 284.25 520.15 285.75 518.6 287.3 516.35 287.3 514.15 287.3 512.6 285.75 511.1 284.25 511.1 282.1 511.1 280 512.6 278.4 514.15 276.9 516.35 276.9 518.6 276.9 520.15 278.4 521.7 280 521.7 282.1 Z
M 507.75 275.95
Q 509.35 272.35 512.15 269.2
M 531.6 336.45
Q 531.6 341.1 527.95 344.35 524.4 347.65 519.3 347.65 514.25 347.65 510.65 344.35 507.1 341.1 507.1 336.45 507.1 331.85 510.65 328.6 514.25 325.3 519.3 325.3 524.4 325.3 527.95 328.6 531.6 331.85 531.6 336.45 Z
M 643.25 303.3
Q 640.5 307.85 635.75 311.7 624.1 321.4 607.6 321.4 591.05 321.4 579.35 311.7 575.3 308.35 572.65 304.55
M 609.2 332.25
Q 607.6 334.7 607.65 337.8 607.65 338.7 607.85 339.75 608.65 343.35 610.75 347.05 612.4 350.05 613.55 351.5 615.4 353.85 617.75 355.1
M 549.8 344.45
Q 563.9 348.45 580.05 346.65 596.05 344.8 607.65 337.8
M 604.5 411.9
Q 604 418.85 609.2 425.85 613.8 432 621.8 436.9 630.35 442.25 640 444.95 640.3 445 640.5 445.15
M 545.15 588.75
Q 546.7 589.85 548.5 590.75 551.95 592.55 556.1 593.15 560.25 593.75 565.1 593.25 568.15 592.95 570.2 591.9 571.05 591.5 571.7 590.85 574.15 588.75 573.7 584.3
M 571.7 590.85
Q 571.7 591.2 571.7 591.55 571.5 595.05 571.7 598.05
M 638.45 639.85
Q 631.95 639.05 628.2 643.25 627 644.6 626.1 646.3 625.7 647.15 625.4 648.15 624.5 651 625.25 653.75 625.65 655.2 626.5 656.65 627.65 658.4 629.5 660.05 632.15 662.25 635.65 663.75 636.25 664 636.95 664.25
M 580.45 637.85
Q 580.25 640.6 580.2 643.35 580.1 644.55 580.2 649.8 582.5 650.3 586.95 650.5 593.2 650.85 600.75 649.25 603.1 648.75 605.4 648 605.6 640.25 606.35 633.15 607 626.8 608.1 620.8
M 580.2 649.8
Q 579.15 649.6 578.6 649.4 576.45 648.45 576.25 646.95 576 645.55 577.35 644.35 578.6 643.25 580.2 643.35
M 568.3 664.7
Q 572.8 665.85 578.4 666.15 582.7 666.45 590.35 666.7
M 626.5 656.65
Q 625.2 659.35 622.45 661.15 621.2 662.1 619.75 662.7 625.7 666.2 627.75 673.45 628.45 676.3 628.55 679.95 628.55 680.95 628.65 685.1 628.65 681.3 628.9 680.05 629.55 676.4 631.55 671.9 632.85 669.15 635.65 663.75
M 619.75 662.7
Q 617.4 663.6 614.45 663.9
M 628.65 685.1
L 628.65 687.45
M 614.4 643.05
Q 610.2 646.2 605.4 648
M 606.35 633.15
Q 616.95 636.45 622.45 641.3 624.8 643.5 626.1 646.3
M 556.1 593.15
Q 556.15 594.45 556.65 596.7 556.8 597.9 556.6 598.75
M 557.75 679.4
Q 558.85 679.3 560 679.35 584.75 681.9 607 692.5 607.5 692.8 608.05 693.1 613.95 696.15 614.7 699.2
L 614.7 699.3
M 528.25 688.7
Q 529.15 692.05 532.35 694.95 535.3 697.65 539.5 699.45 546.1 701.9 557.25 702.45 577.8 703.25 598.7 697.9 605.9 696 607 692.5
M 566.8 598.2
Q 566.45 595.55 565.85 593.7
M 657.6 687.25
Q 646.3 694.3 640.15 702.25"/>
</defs>

<g transform="matrix( 1, 0, 0, 1, 0,0) ">
<use xlink:href="#Layer2_0_FILL"/>
</g>

<g transform="matrix( 1, 0, 0, 1, 0,0) ">
<use xlink:href="#Layer0_0_FILL"/>

<use xlink:href="#Layer0_0_1_STROKES"/>
</g>
</svg>
