
<svg xmlns="http://www.w3.org/2000/svg" version="1.1" xmlns:xlink="http://www.w3.org/1999/xlink" preserveAspectRatio="none" x="0px" y="0px" width="1280px" height="720px" viewBox="0 0 1280 720">
<defs>
<g id="Layer1_0_FILL">
<path fill="#FFFFFF" stroke="none" d="
M 1280 720
L 1280 0 0 0 0 720 1280 720 Z"/>
</g>

<g id="Layer0_0_FILL">
<path fill="#000000" stroke="none" d="
M 623.4 192.65
Q 622.05 194 622.05 195.95 622.05 197.9 623.4 199.25 624.75 200.6 626.7 200.6 628.316015625 200.6 629.5 199.65 628.83828125 195.27265625 627.05 191.3 626.88984375 191.3 626.7 191.3 624.75 191.3 623.4 192.65
M 672.6 170.8
Q 671.986328125 171.0806640625 671.45 171.55 670.25 172.65 670.25 174.15 670.25 175.65 671.45 176.7 672.65 177.8 674.35 177.8 675.305078125 177.8 676.1 177.45 674.799609375 173.9591796875 672.6 170.8 Z"/>
</g>

<path id="Layer0_0_1_STROKES" stroke="#000000" stroke-width="1" stroke-linejoin="round" stroke-linecap="round" fill="none" d="
M 615.75 90
Q 635 104.8 645 118.75 651.25 127.35 654.9 136.65 656.057421875 139.617578125 656.9 142.575
L 657.1 141.35
Q 659 128 655.15 114.35 651.45 101.25 643.15 89.95 634.8 78.7 623.35 71.35 611.4 63.7 598.1 61.6 584.75 59.45 568.9 62.3 556.3 64.55 540.35 70.35 503.75 83.75 476.9 103.95 473.5771484375 106.448828125 470.425 109.025 460.16953125 151.45546875 474.75 195 489.55 239.25 524.1 267
L 534 274.2
Q 547.8349609375 262.078515625 554.55 255.6 566.6 244 573.25 232.5
M 676.1 177.45
Q 675.305078125 177.8 674.35 177.8 672.65 177.8 671.45 176.7 670.25 175.65 670.25 174.15 670.25 172.65 671.45 171.55 671.986328125 171.0806640625 672.625 170.825 670.9265625 168.3765625 668.7 166.15 664.443359375 161.893359375 659.4 159.575 653.3408203125 156.8 646.15 156.8 632.95 156.8 623.6 166.15 618.4322265625 171.3177734375 616.125 177.65 618.02578125 179.12578125 619.8 180.9 624.5470703125 185.6470703125 627.075 191.325 628.83828125 195.27265625 629.525 199.675 629.95 202.446484375 629.95 205.4 629.95 210.678515625 628.575 215.375 630.6685546875 216.79296875 632.925 217.825 633.737890625 214.74140625 634.65 212.6 636.2 208.9 638.5 206.6 641.35 203.75 645.4 202.9 649.55 202.05 653.25 203.6 656.9 205.1 659.05 208.75 661.15 212.45 660.6 216.35 660.524609375 216.844921875 660.425 217.325 664.8779296875 215.0720703125 668.7 211.25 676.9462890625 203.0037109375 677.925 191.775 678.05 190.258203125 678.05 188.7 678.05 182.6748046875 676.1 177.45 674.799609375 173.9591796875 672.625 170.825
M 674.35 157.1
Q 675 159.6 673.85 162.75 673.15 164.85 671.25 167.85
M 665.6 152
Q 666.1 153.9 665.6 156.75 665.1 159.05 664.1 161.35
M 656.9 142.575
Q 658.93359375 149.602734375 659.25 156.6
L 659.4 159.575
M 545.85 320
Q 564.151953125 331.026171875 585.025 336.15 591.9646484375 337.850390625 599.2 338.9 612.65546875 340.8453125 625.8 340.325 641.0337890625 339.7419921875 655.85 335.85 678.35 330.05 695.9 317.2 714.9 303.25 723.6 284 732.95 263.25 727.65 240.5 724.7919921875 228.2625 718.45 219.3 712.588671875 211.0001953125 703.75 205.5 701.3142578125 204.080859375 698.85 202.7 689.0734375 197.2220703125 678.85 192.35
L 677.925 191.775
M 700.05 205.75
Q 696.35 204.3 694.15 205.8 691.95 207.25 691.35 209.7 690.4 213.6 693.35 218.95 697.95 226.5 704.5 229.05 707.05 230.15 709.1 229.8 711.9 229.25 713.25 227.15 714.6 224.85 713.35 220.65 711.6 215.4 707.7 211.3 703.75 207.15 700.05 205.75 Z
M 680.1 206.75
Q 680.671484375 210.7833984375 681.95 214.575 684.505859375 222.0775390625 689.85 228.65 691.2904296875 230.4146484375 692.85 232 696.896875 236.16015625 701.725 239.15 705.31640625 241.4041015625 709.35 243
M 606.85 271.85
Q 631.35 275.4 655.05 264.7 678.7 253.95 692.1 233.25
L 692.85 232
M 592.85 240.6
Q 597.2 246 598.75 248.2 599.6490234375 249.4759765625 600.425 250.7 610.1 252.6 620.05 251.8 629.85 251 639.1 247.6 640.0923828125 247.2228515625 641.075 246.825 647.5923828125 244.121484375 654.1 240 665.2251953125 233.142578125 674.3 223.7 677.6666015625 220.204296875 680.75 216.35
L 681.95 214.575
M 660.425 217.325
Q 659.48046875 221.36953125 656 224.85 654.55 226.3 652.25 227.95 649.5 229.8 648.1 230.75
M 641.075 246.825
L 645.6 254.1
Q 646.3 255.15 646.6 255.5 647.2 256.2 647.85 256.35 648.95 256.6 650.85 255.5 652.85 254.4 665 247.35 667.25 246.15 667.85 245 669.4 242.5 667.25 239.1 666.75 238.3 665.35 236.55 664.15 235 663.6 234
M 674.3 223.7
Q 675.1 224.85 678 229.5 679.2 231.45 680.25 232 681.3 232.55 682.65 232.2 683.8 231.9 684.85 231.1 686.25 230.1 688.25 227.6
M 701.725 239.15
Q 698.19765625 254.5677734375 688.25 267.45 678.2 280.45 664 287.6 659.4400390625 289.9525390625 654.65 291.6 644.5810546875 295.07734375 633.5 295.45 617.15 296 602.3 289.5 601.289453125 291.52734375 600.05 293.5 596.6 298.95 591.85 303.35
M 622 252.1
Q 622.6 255 622.6 259.1 622.6 260.85 622 261.75 621.4 262.6 620.15 262.85 619.4 263 617.85 263 610.25 262.85 606.5 262.85
L 605.625 262.9
Q 606.2892578125 265.83984375 606.5 269 606.8353515625 275.13359375 605.375 281.225 617.55 276 631.2 278.7 644.8 281.4 654 290.85
L 654.65 291.6
M 689.95 397
Q 691.37734375 399.4322265625 692.725 401.9
L 693.35 402.1
Q 693.5927734375 402.174609375 693.825 402.25 716.46484375 409.124609375 739.6 409.1 740.3498046875 409.1078125 741.1 409.1 742.35 409.15 743.15 409.15 743.35 409.15 743.5 409.15 768.5 408.75 791.35 398.5 797.5 395.85 801.65 393 806.85 389.4 809.85 385 814.8 377.95 815.35 367.25 815.65 359.95 813.75 347.9 813.18515625 344.3841796875 812.475 341.25 810.676953125 333.3037109375 807.95 327.85 807.4994140625 326.953125 807.025 326.125 803.2845703125 319.586328125 797.85 316.75 797.7728515625 316.7091796875 797.7 316.675 797.153125 316.388671875 796.6 316.15 795.3423828125 315.6083984375 794 315.25 789 313.9 782.65 315.35 778.95 316.15 771.5 319 749.2193359375 327.487890625 726.275 334.075 716.7822265625 336.8177734375 707.175 339.225 707.2328125 339.3478515625 707.3 339.475 698.052734375 341.7841796875 688.7 343.775 688.74921875 344.255859375 688.8 344.75 689.75 354.25 686.75 365.25 683.6 375.7 679 381.6 673.75 388.3 664.65 392.2 656.9 395.6 646.85 396.75 637.840234375 397.6908203125 628.8 396.725 625.3541015625 396.3494140625 621.9 395.7 609.4 393.3 598.25 387.5
L 595.45 385.75
Q 596.5041015625 388.4423828125 596.75 391.25
M 758.1 322.75
Q 758.85 318 757.85 313.25 757.35 310.75 756 310.5 754.6 310.25 753 312.6 751.5 315.15 749 318.6 746.65 321.9 744.35 323.1 741.3 324.6 736.75 323.5 735.45 323.15 733.05 322.3 730.6 321.4 729.5 321.1 727.45 320.45 725.8 320.65 723.85 320.8 722.85 322.1 722 323.25 722.05 324.95 722.15 326.4 722.85 327.85 723.2 328.5 724.4 330.35 725.45 331.95 725.85 333
L 726.275 334.075
M 698.5 315.6
Q 701.26875 327.96015625 707.175 339.225
M 560 335.75
Q 573.7 341.95 585.55 345.6 599.5 349.85 612.35 351.1 626.55 352.6 639.7 350.3 649.96484375 348.52265625 658.825 344.55 662.192578125 343.062109375 665.35 341.25
M 658.825 344.55
Q 663.0671875 348.4126953125 665.5 354.3 667.75 359.7 668.35 366.25 668.8 371.7 668.05 378.45 667.5 383 666.1 390.6
M 723.25 346.75
Q 718.75 350.25 716.6 355.5 716.2 356.5 715.4 358.55 714.6 360.2 713.5 361 711.55 362.4 707.5 362.1 704 362.1 700 362.5 697.95 362.7 697.35 363.6 696.7958984375 364.9525390625 697.25 366.975 697.712109375 368.9921875 700.525 371.775 703.3376953125 374.5576171875 704.25 376.95 705.15390625 379.347265625 704.2 384.8 703.1 391.2 703.35 393.5 703.65 395.95 704.85 396.75 706.2 397.45 708.5 396.75 710.8 395.95 715.15 392.9 719.4720703125 389.7072265625 721.925 390.5 724.3833984375 391.29453125 727.6 393.95 730.80546875 396.6017578125 732.15 397.15 733.55 397.85 735 397.8 736.55 397.8 737.5 396.9 739.05 395.35 738.75 392.5 738.6 391.3 737.35 386.6 736.4 383 736.65 380.75 737 377.9 739.1 375.05 740.5 373.15 743.5 370.4 745 369 745.6 368.1 746.6 366.7 746.5 365.25 746.35 363.25 744.15 362.05 742.25 361 739.75 361 736.75 361.3 735.25 361.3 732.75 361.35 731.15 360.4 728.65 359 727 353.85 725.2 348.35 723.25 346.75 Z
M 681.1 326.75
Q 687.3609375 333.25 688.7 343.775
M 797.85 316.75
Q 799.9482421875 315.726171875 800.8 312.65 801.45 308.65 801.85 306.75 803.05 301.75 806.75 300.35 808.75 299.6 810.8 300.45 812.95 301.35 813.5 303.35 813.8 304.35 813.6 305.9 813.5 306.75 813.25 308.5 813.15 309.95 813.65 311.15 814.3 312.45 815.5 312.75 816.6 313.1 818 312.35 823.95 310.55 830.15 310.9 836.45 311.25 842 313.75 845.15 315.35 844.85 317.35 844.7 318.45 843.45 319.1 842.65 319.5 841 319.85 831.65 321.4 829.35 321.85 835.8 321.7 842.35 324.5 844.694921875 325.50234375 845.7 326.8 846.71484375 328.0923828125 846.675 329.35 846.6349609375 330.607421875 845.9 331.65 845.1548828125 332.6974609375 842.35 333 835.75 333.55 829.9 334.25 831 334.8 833.6 336.1 837.2 337.8 837.85 338.25 840.05 339.65 840.9 342.1 841.8 344.7 840.1 346.1 838.3 347.65 834.1 346.6 822.1 343.75 813.6 341.6
L 812.475 341.25
M 819.85 329.75
Q 818 327.5 814.25 326.6 811.85 326 807.85 326
L 807.025 326.125
M 780.6 348.85
Q 777.75 350.55 775.95 356.35 773.9 362.9 772.1 364.85 770.55 366.5 767.15 368.05 763.1 369.95 761.85 370.85 760.2 372.1 759.45 373.8 758.55 375.7 759.25 377.35 759.85 378.85 761.6 379.65 763.15 380.35 765.1 380.35 766.25 380.35 768.55 380.25 770.65 380.25 772.5 380.45
L 772.5 389
Q 772.7 391.25 773.6 391.75 774.7 392.5 776.6 391.35 779.25 389.85 780.85 387.25 781.3 386.65 782.05 385.35 782.75234375 384.248046875 784.05 383.375 785.34296875 382.505859375 787.925 382.8 790.50703125 383.094140625 793.975 383.175 797.44765625 383.251953125 798.25 383.1 799.6 382.85 800.25 382 801.05 381 800.85 379.55 800.65 378.25 799.85 376.9 799.05 375.55 798.325 374.55 797.600390625 373.551171875 796.85 371.675 796.098828125 369.796484375 798.225 364.9 800.3546875 360.0140625 800.625 357.95 800.8953125 355.8859375 799.475 354.825 798.0515625 353.7546875 794.6 355.85 792.85 356.95 792 357.3 790.45 357.95 789.25 357.6 787.85 357.2 786.85 355.6 786.5 355 785.35 352.5 784.65 350.8 783.25 349.8 781.7 348.65 780.6 348.85 Z
M 739.6 409.1
Q 751.15 429.35 747.35 453.7 743.55 478 726.5 493.5 723.45 496.2 722.6 497.1 720.5 499.2 719.35 501.25 718.05 503.5 717.4 506.95
L 716.5 513.1
Q 714.3 526.35 705.6 537.3 696.8 548.25 684.35 553.25
M 692.725 401.9
Q 698.3998046875 412.40546875 702.45 423.625 703.3 423.1 704.05 421.8 704.45 421.1 705.25 419.6 705.9 418.45 706.85 417.325 707.8 416.2 708.975 416.6 710.15 417 710.65 419.175 711.15 421.35 711.4 424.65 711.85 427.45 713.35 428.5 714.25 429.05 715.6 429.25 715.85 429.3 718 429.5 721.2 429.65 724.85 430.85 727 431.6 727.5 433 727.65 433.65 727.4 434.4 727.25 434.85 726.75 435.75 724.45 439.45 722.35 441.35 720.4 443.3 719.5 444.3 718 446 717.5 447.6 716.75 450.05 717.75 454.25 718.45 458.65 717.5 460.85 716.7 462.4 715 463.05 713.25 463.75 711.85 462.85
M 682.6 438.85
Q 682.6 440.25 683.1 440.85 683.3 441.15 683.8 441.45 684.1 441.65 684.7 442 688.35 443.35 693.6 445.6 695.3 446.4 696.45 446.1 697.9501953125 445.49296875 698.675 443 699.3990234375 440.5177734375 699.05 439 698.55 437 696.7 436.35 696.4 436.25 695.45 436.15 694.704296875 436.10625 693.525 435.8 692.3390625 435.48046875 692.175 433.15 692.005078125 430.8212890625 691.575 424.95 691.1580078125 419.0892578125 691 417.85 690.8451171875 416.60234375 689.825 415.35 688.8009765625 414.0962890625 687.5 413.475 686.1986328125 412.8548828125 681.25 413
L 682.6 438.85 Z
M 569.35 415.25
L 566.35 415.25
Q 563.696875 415.4546875 561.05 415.725 562.4044921875 418.8796875 562.65 423.15 562.85 426 562.5 431 562.1287109375 431.137890625 561.775 431.3 564.053125 432.505859375 565.2 435.35 566.25 437.95 566.25 441.5 566.3 443.5 566.25 447.6 566.45 451.1 567.6 453.35 568.25 454.7 569.65 456.2 570.45 457.05 572.1 458.6 573.5 460 576.5 463.75 577.15 464.8 577.35 465.25 577.7 466.15 577.6 466.85 577.55 468.4 575.95 469.35 574.65 470.15 572.75 470.35 570.1 470.55 569.3 470.7 567.4 471.1 566.5 472.25 565.35 473.7 565.55 478.2 565.75 482.3 564 483.35 563 484 561.75 483.85 560.6 483.7 559.6 483 558.1 482.05 554.95 477.7 552.3802734375 474.1419921875 549.9 473.6 543.7076171875 484.72421875 546.2 498.75 548.65 512.45 557.95 522.75 558.0470703125 522.85546875 558.15 522.95 566.6994140625 532.1654296875 579.8 537.9 591.4 542.95 605.85 545 626.4 547.9 647.1 544.4 667.9 540.95 685.05 529.5 685.5328125 529.1779296875 686 528.85 693.44375 523.671484375 699.975 515.75 706.9185546875 507.313671875 709.65 496.725 712.391796875 486.144921875 711.7 470.15 710.9 450.95 705.3 432.25 703.993359375 427.8826171875 702.45 423.625
M 661.45 434.325
Q 661.5931640625 435.5572265625 661.8 436.35 662.3 438.1 663.35 439.1 664.6 440.15 667.5 440.85 672 441.75 677.25 441.75 679.398046875 441.7470703125 680.25 440.9 681.10546875 440.05859375 681.225 438.55 681.3443359375 437.0412109375 680.85 435.125 680.3517578125 433.202734375 679.4 432.95 678.45 432.7 677.25 433.025 676.05 433.35 675.5 433.35 673.8 433.35 673.25 432 672.95 431.3 673.15 430.65 673.35 429.95 674 429.5 674.6 429.1 676.25 429 677.75 428.95 678.35 428.35 679 427.75 679 425.6 679 422.25 677.35 421.35 676.6 420.9 675.35 420.95 673.9474609375 421.0517578125 673.1 421.175 672.25859375 421.2966796875 671.675 420.6 671.0896484375 419.9078125 671.1 418.675 671.1068359375 417.43203125 672.025 417.125 672.9400390625 416.813671875 674.825 417.05 676.708984375 417.2974609375 677.675 416.2 678.6447265625 415.100390625 678.525 413.625 678.4013671875 412.15 677.775 411.1 677.1498046875 410.05 675.85 409.25 673.75 407.9 670.35 408.1 663.9 407.85 659.35 407.85 660.2421875 417.748046875 661.05 429.05 661.2849609375 430.8703125 661.375 432.3 661.466015625 433.730859375 661.45 434.325 661.04296875 436.8173828125 659.6 438.1 658.6 439.2 656.8 439.7 655.55 440 653.5 440.1 648.5 440.1 643.75 439.1 641.894140625 438.6541015625 641.05 437.8 640.217578125 436.937109375 639.25 429.975 638.282421875 423.0126953125 638.075 416.225 637.855859375 409.445703125 638.25 408.7 638.8 407.7 639.85 407.75 644.6 407 647.35 407.1 651.75 407.5 654.25 410 656.7 412.55 656.5 416.65 656.25 420.6 653.75 423.5 655.45 423.3 657.1 424.15 658.65 424.9 659.75 426.35 660.60234375 427.548046875 661.05 429.05
M 645.6 415.25
Q 645.6 415.6 645.85 418.1 645.85 418.35 646.1 419.6 646.1 420 646.35 420.25 646.5 420.35 647 420.35 647.4 420.35 648.05 420.4 648.6 420.35 649 420.1 649.85 419.7 650.25 418.85 651.15 417.1 650.1 415.5 649.2 414.35 648 414.35 646.9 414.25 645.6 415.25 Z
M 648 433.75
Q 648 434.35 648.25 434.6 648.35 434.75 648.75 434.75
L 650.1 434.85
Q 651.698828125 434.8982421875 652.275 433.575 652.8501953125 432.250390625 652.25 431 652.1 430.7 652.05 430.55 651.9 430.3 651.75 430.25 651.35 429.85 650.75 429.85 649.6341796875 429.5822265625 648 429.9
L 648 433.75 Z
M 690.6 474.25
Q 683.6 463.7 670.55 458.65 658.15 453.85 644.75 455.6 632.45 457.3 620.35 464.15 609.55 470.3 599.6 480.1 600.8201171875 482.2595703125 600.1 485.5 599.6318359375 487.2162109375 598.475 489.975 606.13828125 481.01015625 619 473.35 630.75 466.35 642.2 463.8 655.45 460.85 666.5 464.35 672.75 466.35 677.95 470.2 683.25 474.05 686.85 479.35
M 605.5 493.25
Q 612.8 485.55 622.05 480.15 631.25 474.75 641.5 472.1 653.5 469.1 662.75 470.75 674.55 472.85 681.25 480.75
M 610.85 498
Q 614.85 494 620.9 490.65 625.25 488.25 632.35 485.35 637.65 483.1 641.3 482 646.25 480.5 650.5 480.25 656.75 479.75 664.35 481.7 669 482.85 677.75 486.1
M 690 502.35
Q 691.5 500.95 692.75 498.75 693.5 497.1 693.6 496.35 693.85 494.95 693.1 493.85 692.25 492.85 691.1 492.85 689.85 492.85 689 493.85 688.25 494.7 688.25 496.6 688.25 499.9 689.775 503.025 693.43125 504.518359375 697.2 503.05 701.05 501.6 702.75 498.1 704.35 494.7 703.1 490.8 701.9 486.85 698.6 484.85 698.85 484.2 699.7 483.4 700.15 482.95 701.1 482.1 702.5 480.6 702.55 478.4 702.6 476.25 701.25 474.6 699.95 472.95 697.8 472.5 695.65 472.05 693.75 473 691.85 473.8 690.7 475.75 689.6 477.6 689.6 479.75 686.702734375 479.2462890625 683.8 480.25 680.89296875 481.261328125 679.625 482.6 678.3529296875 483.93515625 678.275 486.4 678.20546875 488.8626953125 682.35 490.9 678.9 491.6 677.75 495.1 676.55 498.5 678.25 501.35 680 504.15 683.65 504.65 687.2087890625 505.088671875 689.625 502.95 689.703515625 502.9837890625 689.775 503.025
M 686 528.85
L 685.75 531.1
Q 680.3244140625 586.7998046875 685.3 643
L 684 643.25
Q 651.8333984375 648.2013671875 619.25 645.975 619.4380859375 649.2138671875 619.575 652.45 626.0205078125 655.7041015625 633.3 655.95 640.8 656.25 647.5 653.35
M 647.25 647.25
Q 647.9 650.3 648.1 655.25 648.4 662.05 648.5 663.25 649 667.7 650.6 671.15 652.4 675.15 655.5 677.25 657.9 678.9 661.6 679.6 663.75 680 668.25 680.25 678.75 680.75 684.6 681.1 689.4 681.35 691.75 681.65 695.75 682.2 698.75 683.35 702.2 684.85 704.6 687.5 707.2 690.35 707.75 693.75 708.5 699.2 704 704 699.95 708.3 693.75 710.35 681.75 714.5 665.85 712.5 655.8798828125 711.20390625 637.85 706.025 637.7671875 706.7283203125 637.6 707.45 636.4955078125 712.006640625 632.725 715.025 628.9630859375 718.0328125 617 719.2 606.21328125 719.971875 594.35 718.45 582.4810546875 716.9330078125 573.95 713.025 565.430078125 709.106640625 562.325 707.225 559.2033203125 705.3513671875 557.6 702.25 556.45 699.95 556 696.9 555.75 694.85 555.75 691.25 555.75 672.585546875 557.225 654.35 557.9751953125 645.1166015625 559.1 636
M 568.35 149.85
Q 563.3 152.85 560.15 158 557 163.2 556.6 169
M 626.6 108.75
Q 629 108.9 631.1 108.35 631.5 108.35 632.35 108.1
L 634.5 107.35
M 615 90.25
Q 615.65 98.3 616.6 113.25 617.6 126.75 617.5 133.5 616.95 151.85 609.85 171.35
L 608.85 173.4
Q 612.696484375 175.0294921875 616.125 177.65
M 550.6 201.1
Q 550.9 202.1 552.35 203.1 556 205.35 559.85 205
L 560.75 204.9
Q 560.9263671875 190.87265625 570.85 180.9 581 170.8 595.35 170.8 602.646875 170.8 608.85 173.4
M 629.525 199.675
Q 628.316015625 200.6 626.7 200.6 624.75 200.6 623.4 199.25 622.05 197.9 622.05 195.95 622.05 194 623.4 192.65 624.75 191.3 626.7 191.3 626.88984375 191.3 627.075 191.325
M 430 158.4
Q 425.2416015625 157.613671875 419.7 158.6 415 159.5 409.1 161.85 399.15 165.75 396.75 171.85 395.55 175.4 397.1 177.85 399.05 180.75 404.35 180.75 405.75 180.7 408.45 180.45 410.85 180.4 412.5 180.85 406.4 180.85 403.1 184.5 401.25 186.45 400.85 189.1 400.4 191.9 401.85 194 403.2 196 405.95 196.9 408.35 197.7 411.25 197.5 412.45 197.4 416.5 196.8 419.1837890625 196.387109375 421.025 196.35 420.986328125 195.0837890625 421 193.85 421 183.9 423.65 174.2 425.9306640625 165.8515625 430 158.4 430.334375 157.7708984375 430.7 157.175 431.062109375 156.5974609375 431.45 156.05 439.0603515625 141.36171875 450.425 128.325 459.285546875 118.174609375 470.425 109.025
M 450.425 128.325
L 450.25 129.6
Q 445.95 148.55 448.6 169.45 451.05 188.9 459.25 208.1 472.95 240.3 504.5 274
L 505.75 275.3
Q 513.28671875 273.287109375 525.1 276.5 527.35 277.05 529.05 276.85 531.25 276.55 532.5 275.5 533.256640625 274.8392578125 534 274.2
M 430.6 158.5
Q 430.2962890625 158.4423828125 430 158.4
M 421.75 196.35
Q 421.4015625 196.3412109375 421.025 196.35 421.1947265625 204.316796875 423.05 213.55 424.55 221.15 428 232.85 442.7 284.05 464.35 332.25
L 465.6 335.05
Q 469.887109375 335.9046875 474.9 337 476.1904296875 337.282421875 477.45 337.55 475.54296875 335.89296875 475 335.35 474.4 334.75 474.2 334.05 474 333.25 474.35 332.6 475.2 331.5 477.25 331.75 478.25 331.85 481.85 332.95 484.7 333.8 486.5 333.35 488.1 332.95 490.15 331 492.65 328.65 493.6 328.1 495.1 327.4 496.1 327.85 497.25 328.5 497.25 330.1 497.25 330.4 496.85 333.6 496.55 335.7 497.35 336.75 498.15 337.7 499.6 338.1 499.9 338.2 503.95 338.95 506.55 339.4 507.4 340.7 507.35 341.75 506.4 342.4 505.35 343.05 504.25 343.275 509.6986328125 344.3873046875 514 345.225 527.7142578125 347.893359375 535.475 350.225 532 343.0521484375 532 335.25 532 330.2 533.7 327.75 523.4396484375 332.3474609375 514.5 330 509.85 328.75 505.8 325.45 502 322.35 499.25 318 494.45 310.25 493.35 299.25 492.2 285.35 498.85 279 501.675 276.385546875 505.75 275.3
M 428.6 339.5
Q 425.85 340.05 422.85 338.95 420.15 337.95 417.75 335.85 416 334.4 413.65 331.65 410.45 327.8 409.75 327.1 406.4 323.55 403.75 323.85 401.75 324.05 400.4 325.85 399.15 327.55 399.25 329.6 399.25 333.05 402.6 336.6 403.55 337.55 405.6 339.35 407.65 341.1 408.6 342.1 394.55 344.25 382.6 352.1 377.55 355.4 377.75 358.85 377.75 361.7 380.7 363.25 383.6 364.7 386.5 363.75 393.2 358.6 400.5 355.85
M 386.5 363.75
L 385.75 364.25
Q 384.4 365.15 383 367 382 368.5 381.8 370 381.55 371.75 382.5 372.85 384.05 374.95 388 374.1 395.3841796875 372.861328125 401.05 368.3 401.323828125 368.08359375 401.6 367.85
L 403.65 365.85
M 401.05 368.3
Q 399 371.1 396.2 375.9 394.8 378.6 394.7 379.9 394.25 382.5 395.8 383.8 397.7 385.5 400.95 384.55 404.5 383.55 410.25 378.75 415.95 373.9 419.5 372.5 426.642578125 369.5818359375 433.875 368.075 440.828125 366.6212890625 448.025 367.975 447.9349609375 367.7923828125 447.85 367.6
M 465.6 335.05
Q 448.158203125 331.608203125 442.7 332.25 433.15 333.4 428.85 339.6
M 426 354
Q 423.2 353.65 420.4 354.4 417.6 355.2 415.35 357
M 432.6 368.75
Q 435 378.9 436.75 384.55 439.4 393.2 442.85 399.75 445.1 403.9 447.75 403.6 449.7 403.6 450.85 401.25 451.75 399.5 451.75 397.1
M 429.25 339.5
Q 436.1890625 341.09765625 440.4 347.1 444.6025390625 353.096484375 445.9 356.5 447.19140625 359.9109375 447.825 363.775 448.463671875 367.6384765625 448.55 368.1 451.338671875 374.9185546875 452.05 382.6 452.75 389.05 451.95 396.45
M 448.025 367.975
Q 448.2888671875 368.035546875 448.55 368.1
M 461.95 389.05
Q 460.75 389.9 460.85 391.25 461 392.3 461.9 393.4 462.2 393.75 463.6 395.25 466.15 397.5 465.85 399.6 465.75 400.75 464.1 402.6 462.652734375 405.005859375 462.85 406.75 463.039453125 408.4822265625 464.125 409.125 465.2126953125 409.778515625 466.775 409.6 468.344921875 409.411328125 470.5 408.5 472.35 407.7 472.7 407.6 473.95 407.2 475 407.35 476.55 407.5 478.3 409.05 480.85 411.3 481.35 411.6 482.5 412.4 483.8 412.55 485.2 412.65 486.1 411.85 487.4 410.75 487.4 408.1 487.35 404.2 487.5 403.6 487.95 401.55 490.5 399.4 494.15 396.3 494.6 395.75 495.8 394.1 495.6 392.85 495.35 391.4 493.65 390.7 492.2 390.1 490.35 390.25 487.5 390.4 486.95 390.35 485.1 390.15 484.1 389.1 483.45 388.4 483.2 387 483 385.3 482.85 384.5 482.65 383.15 481.95 382.2 481.1 381.1 480 381.1 479.05 381.1 478.1 382.1 477.7 382.45 476.6 384 474.549609375 387.0537109375 471.2 388.325 467.852734375 389.5837890625 466.025 389.225 464.195703125 388.8732421875 464.05 388.85 463.9013671875 388.833984375 463.8 388.775 462.995703125 388.2970703125 461.95 389.05 Z
M 632.5 219.5
Q 632.7068359375 218.6310546875 632.925 217.825
M 628.575 215.375
Q 626.21640625 223.465234375 619.8 229.85 609.7 240 595.35 240 581 240 570.85 229.85 560.75 219.75 560.75 205.4 560.75 205.14921875 560.75 204.9
M 597.6 268.9
Q 597.6 276.2 591.9 281.35 586.25 286.55 578.25 286.55 570.25 286.55 564.55 281.35 558.9 276.2 558.9 268.9 558.9 261.6 564.55 256.4 570.25 251.25 578.25 251.25 586.25 251.25 591.9 256.4 597.6 261.6 597.6 268.9 Z
M 600.425 250.7
Q 602.328515625 253.730859375 603.5 256.5 604.85625 259.5580078125 605.625 262.9
M 605.375 281.225
Q 605.3166015625 281.4857421875 605.25 281.75 604.176171875 285.7201171875 602.3 289.5
M 552.5 215.1
Q 553.2 216 554.5 216.6 557.95 218.35 561.85 217.35
M 533.7 327.75
Q 539.39765625 325.192578125 545.5 320.5
M 566.35 338.95
L 566.35 339.6
Q 565.25 351.2 568.5 362.6
M 528.65 361.25
Q 525.5 366.05 524.1 367.1 521.1 369.35 515.45 368.65 506.35 367.6 505.85 367.6 502.85 367.9 502 369.5 501.55 370.3 501.75 371.45 501.95 372.5 502.6 373.35 503.3 374.35 506.75 377.35 509.4 379.6 509.75 381.75 509.99375 383.2 509.825 385 509.6681640625 386.799609375 508.425 389.3 507.1755859375 391.800390625 505.85 394.85 505.65 396.9 506.5 397.75 507.65 398.9 510.1 398.1 520.15 395.1 520.35 395.05 526.25 393.85 530.1 396.1 531.3 396.8 533 398.35 535.05 400.2 535.75 400.75 537.4 401.85 539.2 402.15 541.2 402.45 542.6 401.5 544.1 400.35 544.4 398.2 544.65 396.4 544.1 394.25 543.35 390.85 543.25 390.25 542.95 388.05 543.6 386.5 544.4 384.75 547.25 382.5
L 555.25 376.5
Q 556.15 375.7 556.45 375.35 557 374.6 557 373.85 556.85 372.55 554.25 371.6 549.1 370.4 544.25 371 540.65 371.5 539.1 370.75 537.1546875 369.6560546875 536.275 364.625 535.3857421875 359.58125 533.25 357.25 531.1056640625 357.5171875 528.65 361.25 Z
M 595.45 385.75
Q 591.41015625 375.33671875 575.35 366.75 557.930078125 357.37578125 535.675 350.275 535.5716796875 350.2556640625 535.475 350.225
M 585.025 336.15
L 585 344.9
M 618 352.35
Q 624.45 361.6 627.3 372.85 630.15 383.95 629 395.25
L 628.8 396.725
M 625.75 350.8
L 625.8 340.325
M 504.25 343.275
Q 493.20703125 340.99140625 477.45 337.55
M 629.225 441.35
Q 629 438.6 628 436.6 627.45 435.9 627.4 435.9 627.05 435.55 626.75 435.6 626.05 435.6 625.85 436.1 625.5 436.45 625.5 437 624.7 439.95 624.85 442.6 623.55 444.25 621.4 444.9 619.35 445.55 617.25 445.35 615.9 445.15 615.25 444.5 614.85 443.85 614.85 442.5 615.2 421 615.35 416.6 615.35 414.85 615.75 414 616.3 412.75 617.85 412 618.85 411.5 620.85 411 626.7 409.6 629.25 411.75 630.3 412.8 631.35 415.6 636.45 429.6 638.6 437.6 639.15 439.55 638.5 440.35 638 441.15 636.6 441.35 633.1654296875 442.20859375 629.225 441.35 Z
M 624.45 416.5
Q 623.85 416.4 622.5 416.6 622.35 419 622.35 423.75 622.35 424.25 622.6 424.5 622.75 424.85 623.6 424.85 624.05 424.95 624.75 424.9
L 625.85 424.85
Q 626.1515625 424.75 626.35 424.6 626.547265625 424.45 626.6 423.4 626.653125 422.35 626.325 420.475 625.998828125 418.6 625.825 417.55 625.65 416.5 624.45 416.5 Z
M 598.5 421.6
Q 598.85 423.6 598.35 427.85 598.2 428.7 597.85 429.35 597.65 429.65 597.25 429.8 596.85 429.95 596.5 429.75 596.15 429.5 595.85 428.6 595.25 426.1 594.85 424.75 594.7 424.05 594.25 423.75 593.6 423.45 592.6 424.25
L 587.35 428.35
Q 586.2 435.65 584.6 454.1 584.6 455.65 584.85 456.1 585.65 457 587.5 457 591 456.6 593.75 454.25
L 594 450
Q 594 448.25 594.25 447.5 594.74609375 446.5078125 596.375 446.25 596.85 446.5 596.85 448 596.85 449.25 597 451.75 597 452.35 597.1 452.6 597.5 453 598.5 453 601.4892578125 452.6263671875 603.9 451.2 604.046875 451.123828125 604.175 451.05 604.6 450.6974609375 604.6 449.85 604.7 449.05 604.5 446.85 604.5 446.4 604.25 444.5 604.25 444.1 604.35 444
L 604.75 443.75
Q 605.625 443.53125 606.625 443.4 606.75625 443.390625 606.9 443.375 607 443.5072265625 607 443.75
L 607.1 448.1
Q 607.1 448.85 607.35 449.1 607.6 449.25 608.1 449.25 608.7 449.35 610.5 448.5 611.9138671875 447.8501953125 613 446.8 611.8638671875 433.9541015625 611.675 425.275 611.496484375 416.598828125 609.85 415.8 608.201171875 415.0001953125 605 416.775 601.8 418.55 598.5 421.6 Z
M 579.6 487
Q 580.3560546875 486.8740234375 581.025 486.775 580.89140625 486.073046875 580.65 485.175 579.5546875 486.575390625 579.1 487.1 578.65 487.65 576.1 490.35 574.25 492.3 573.35 493.75 572.15 495.8 572.1 498 572 500.4 573.35 502 574.7 503.7 577.3 504.15 579.15 504.5 582.1 504.25 580.75 504.6 579.85 505.8 578.95 506.9 578.75 508.35 578.45 510.6 579.85 513.85 582.25 518.95 585.6 519.75 587.4 520.3 589.35 519.7 591.15 519.15 592.6 517.75 595.1 515.25 596.1 511.1 599.15 513.25 603.35 511.8 607.35 510.45 609.5 507 611.45 503.65 611.1 500.85 610.9 498.8 609.45 496.95 608.1 495.2 606.1 494.1 603.25 492.55 597.75 491.6 598.134765625 490.7423828125 598.475 489.975
M 581.025 486.775
Q 581.4158203125 488.784375 581.75 489.75 582.2 491.6 583 492.5 584.25 493.75 585.85 493.75 587.6 493.75 588.5 492.1 588.85 491.35 588.85 489.85 588.4 487.5 587.1 486.85 586.25 486.35 584.25 486.35 583.0158203125 486.462109375 581.025 486.775 Z
M 599.6 480.1
Q 599.2798828125 479.5697265625 598.85 479.1 597 477.25 593.6 477.25 588.5 477 584.5 480.6 583.3 481.7 581.7 483.8 581.1142578125 484.566015625 580.65 485.175
M 561.775 431.3
Q 557.05546875 433.4734375 554.5 440.35 553.65 443 552.35 443.5 551.25 444.1 549.8 443.25 548.6 442.6 547.6 441.25 546.5 439.55 545.75 438.9 544.6 437.75 543.25 437.75 541.3 437.75 540.3 440 539.4 442 539.75 444.35 540.1 447.6 541.75 451.35 542.05 452.05 542.7 453.5 543.2 454.8 543.1 455.75 542.95 457 541.85 458.45 540.5 460 539.85 460.75 536.75 464.3 537.1 468.35 537.4 470.5 538.85 472.15 540.35 473.85 542.35 474.1 543.55 474.3 546.1 473.8 548.55 473.35 549.85 473.6
L 549.9 473.6
M 561.05 415.725
Q 532.6779296875 418.5416015625 505.1 428.1 499.1703125 430.1279296875 495.45 431.375 496.05 431.35 496.55 431.9 497 432.4 497.1 433 497.1 433.7 496.25 435.5 495.45 437 495.75 437.85 495.95 438.75 496.8 439.3 497.65 439.85 498.6 439.75 500.3 439.75 501.85 438.1 503.5 436.5 503.55 436.5 504.5 435.65 505.35 435.35 506.65 434.95 508.25 435.35 509.35 435.65 511.1 436.5 514.7 438.25 516.85 437.25 518.55 436.3 519 434.1 519.35 432.8 518.85 430.25 518.4 427.75 517.1 425
M 419.85 372.85
Q 420.95 385.6 427.5 397.95 433.55 409.4 443.5 419.1 445.5724609375 421.1244140625 447.65 422.9 460.6431640625 433.9791015625 473.75 435.1 480.7 435.7 489.6 433.25 490.7462890625 432.9423828125 495.45 431.375
M 558.15 522.95
L 556.85 525.35
Q 554.4 530 552.3 536 550.85 540.05 548.85 547 537.65 585.35 527.85 625.5 556.78828125 636.56171875 586.85 642.025 587.2240234375 642.0828125 587.6 642.15 603.4771484375 644.9076171875 619.25 645.975
M 447.65 422.9
L 445.85 423.85
Q 429.75 433.25 420.9 450.05 411.7544921875 467.4013671875 414.425 485.9 417.0861328125 504.3958984375 432.575 517.05 448.0255859375 529.6705078125 469.375 525.675
L 469.4 525.675
Q 470.553125 520.5921875 471.4 518.45 473 514.65 475 512.75 477.5 510.25 481.35 509.6 484.6 509.4 485.35 511.1 485.9 512.15 485.5 513.6 484.95 516.05 483.15 518.2 481.5 520.2 479.1 521.6 477.1 522.85 474.4 523.9 472.70859375 524.4970703125 469.4 525.675 469.4517578125 525.6591796875 469.5 525.65 466.1408203125 539.4404296875 472.325 550.85 478.5068359375 562.25703125 489.3 570.05 500.09765625 577.8474609375 512.1 581.95 524.6 586.2 537.1 585
M 557.225 654.35
Q 563.3 658.5 570.65 659.7 578.026171875 660.8880859375 584.875 658.8 585.426953125 651.253125 586.6 643.75
L 586.85 642.025
M 637.85 706.025
Q 638.3658203125 702.137890625 636.5 699 633.95 694.4 626 691.5 622.5533203125 690.2279296875 619 689.275 609.529296875 686.781640625 599.25 686.6 594.45 686.6 592.15 686.15 588.25 685.4 586.35 683.1 584.35 680.4 584.35 674.6 584.2732421875 666.6763671875 584.875 658.8
M 619.575 652.45
Q 620.27421875 670.7763671875 619 689.275"/>
</defs>

<g transform="matrix( 1, 0, 0, 1, 0,0) ">
<use xlink:href="#Layer1_0_FILL"/>
</g>

<g transform="matrix( 1, 0, 0, 1, 0,0) ">
<use xlink:href="#Layer0_0_FILL"/>

<use xlink:href="#Layer0_0_1_STROKES"/>
</g>
</svg>
