
<svg xmlns="http://www.w3.org/2000/svg" version="1.1" xmlns:xlink="http://www.w3.org/1999/xlink" preserveAspectRatio="none" x="0px" y="0px" width="1280px" height="720px" viewBox="0 0 1280 720">
<defs>
<g id="Layer2_0_FILL">
<path fill="#FFFFFF" stroke="none" d="
M 1280 720
L 1280 0 0 0 0 720 1280 720 Z"/>
</g>

<g id="Layer1_0_FILL">
<path fill="#F7D629" stroke="none" d="
M 789.05 717
Q 788.359765625 714.8041015625 784.65 713.5 780.9966796875 712.2486328125 776.25 713.25 771.55546875 714.198828125 766.05 716.8 767.08046875 719.044921875 768.3 721
L 789.05 721
Q 789.6103515625 718.783203125 789.05 717
M 766.95 669.25
Q 766.0736328125 671.916796875 764.25 677.1 759.6 692.55 763.1 707.75 763.7810546875 710.7626953125 764.7 713.4 768.73671875 711.4140625 771 710.45 775.5 708.5 779.35 707.85 783.9 707 788.15 707.7 792.8 708.5 796.1 711.1 799.7 713.9 800.85 718.4 801.19296875 719.74296875 801.25 721
L 820.7 722.3 959.35 722.3
Q 939.116796875 629.4375 906.8 539.75 892.991796875 578.06953125 873.35 613.85 863.95 631 855.65 641.2 844.35 655.05 831.25 661.6 828.415625 663.03125 825.45 664.15 825.798828125 684.162890625 826.95 704.6 800.433984375 691.4349609375 766.95 669.25
M 281.85 722
L 284.3 722.3 459 722.3 462.35 721.3
Q 466.9595703125 716.222265625 471.85 711.35 477.90078125 716.4091796875 484.1 721.3
L 498 722.3 704.95 722.3 760.85 721
Q 760.3451171875 720.3244140625 759.85 719.6 755.25 712.6 754.25 702.5 753.15 692.05 755.5 681.1 755.8 679.8 758.3 671.15 759.3404296875 667.5826171875 759.9 664.7 756.6396484375 662.522265625 755.15 661.5 754.86640625 661.271484375 754.55 661.05 724.6419921875 640.114453125 670.05 596 666.965625 597.05 663.45 597.05 654.25 597.05 647.7 590.05 645.9884765625 588.219921875 644.7 586.2 643.2580078125 588.4919921875 641.2 590.55 634 597.75 623.8 597.75 613.6 597.75 606.4 590.55 601.858203125 586.008203125 600.15 580.25 599.5232421875 580.9482421875 598.8 581.6 590.75 588.9 579.35 588.9 567.95 588.9 559.85 581.6 553.0875 575.4673828125 552 567.2 544.7376953125 572 535.25 572 523.25 572 514.75 564.35 506.3 556.7 506.3 545.85 506.3 540.5869140625 508.3 536.05 502.751953125 539.05 495.85 539.05 485.45 539.05 478.1 532.3 470.8 525.6 470.8 516.1 470.8 515.4359375 470.8 514.75 465.51484375 514.5638671875 461.1 512 406.5041015625 555.231640625 360.7 606.1 316.0353515625 655.7541015625 281.85 722
M 640.75 141.3
Q 630.5923828125 141.623046875 620.75 139.65 624.012109375 147.3537109375 623.65 155.5 623.34375 163.646875 621.35 169.65 620.4291015625 172.5958984375 619.1 175.5 615.6 183.3 609.3 191.3 604.9767578125 196.6712890625 598.5 203.15 598.4716796875 203.2279296875 598.4 203.25 603.437109375 212.8 604.4 224.1 605.4470703125 236.41875 602 247.95 598.6021484375 259.481640625 592.5 268.25 586.38828125 277.058984375 581.1 281.35 577.907421875 278.5373046875 576 277.15 570 272.75 563.6 270.85 556.65 268.85 549.65 270 542.3 271.2 537 275.6 526.25 284.8 525.75 306.1 525.5 317.5 528.75 325.5 531.1 331.15 535.55 335.6 540.05 340.05 545.75 342.35 547.1201171875 342.8908203125 548.65 343.4 540.9634765625 372.760546875 530.6 399.45 527.63515625 406.983984375 524.7 413.8 510.4826171875 446.8162109375 491.35 477.05 494.7 482.8095703125 494.7 490.05 494.7 491.637890625 494.5 493.3 495.1951171875 493.15 495.85 493.15 506.25 493.15 513.55 499.85 520.9 506.6 520.9 516.1 520.9 520.226953125 519.5 523.8 526.4376953125 519.7 535.25 519.7 547.25 519.7 555.7 527.35 563.15390625 534.05859375 564.05 543.2 570.7775390625 539.1 579.35 539.1 590.75 539.1 598.8 546.4 603.7693359375 550.8787109375 605.7 556.45 606.0357421875 556.1142578125 606.4 555.75 613.6 548.55 623.8 548.55 634 548.55 641.2 555.75 643.2962890625 557.8462890625 644.75 560.2 646.0251953125 558.2037109375 647.7 556.4 654.25 549.45 663.45 549.45 666.2234375 549.45 668.75 550.05 669.2556640625 544.0322265625 671.3 534.9 674.3013671875 521.791796875 678.2 512.25 682.0919921875 502.70625 688.45 491.85 696.0423828125 490.2376953125 699 490.05 704.9 489.65 709.35 488.25 714.7 486.65 718.75 483.35 723.15 479.75 724.75 475 726.3 470.65 725.35 465.8 724.5 461.1 721.6 457.25 719.55 454.75 718.65 453.4 717.05 451.1 717 449.1 716.85 446.85 718.25 444.5 719.25 442.85 721.5 440.6 728.7587890625 433.7404296875 736.95 426.8 752.9234375 433.2501953125 765.1 437.25 800.5 448.95 830.75 450.75 831.9505859375 450.8142578125 833.1 450.85 839.993359375 451.121484375 845.05 450.65 852.75 449.95 858.75 447.5 861.0001953125 446.5966796875 863 445.4 867.1767578125 443.025390625 870.4 439.5 871.1677734375 438.6568359375 871.85 437.75 872.209375 440.43203125 873.1 443 874.8798828125 447.86484375 878.35 451.7 877.7916015625 452.0767578125 877.25 452.45 870.5 457.1 869.25 463.85 868.55 468.3 870.35 472.9 872.05 477.2 875.5 480.75 880.65 485.9 891.25 490.5 904.993359375 496.6568359375 919.15 500.8 916.583203125 510.15546875 913.7 519.35 915.062890625 519.323046875 916.7 519.3 922.5 519.2 925.9 518.9 936.3 517.85 941.85 512.75 947.65 507.6 949.75 496.85 951.95 484.3 947 473.6 944.7443359375 468.699609375 940.9 464.5 942.3634765625 462.95078125 943.6 461.35 949.25 454 950.65 445.35 952.15 435.95 947.85 428.75 945.4123046875 424.63125 940.95 421.4 945.022265625 418.5951171875 947.4 413.45 950.3 407.1 949.25 400.35 948.25 393.9 943.85 388.35 939.75 383.05 933.6 379.75 927.17109375 376.267578125 919.15 375.25 913.7517578125 374.5548828125 907.6 375 891.2 376.25 880.25 384.75 877.319140625 386.9783203125 874.95 389.65 872.4318359375 392.498828125 870.55 395.85 869.189453125 398.2669921875 868.25 400.75 867.6697265625 399.6630859375 867 398.5 863.5826171875 392.458984375 860.55 386.3 850.4701171875 365.6912109375 844.85 343.75 842.6638671875 344.1181640625 840.3 344.3 838.299609375 344.4509765625 835.95 344.45 837.457421875 332.862109375 830.35 325.1 827.3 321.7 822.45 319.05 818.9 317.15 813.25 315.1 805.2 312.25 791.35 308.55 774.4 304.05 769.25 302.45 756.99296875 298.6822265625 747.5 293.85 742.61640625 298.7478515625 736.6 302.85 735.4498046875 303.6375 734.3 304.35 717.6765625 314.9228515625 698.75 315.25 679.45 315.6 659.75 305.85 645.65 298.95 635.35 288.45 624.2 277.1 619.5 263.5 614.45 248.85 617.2 233 618.421484375 226.0640625 620.95 219.85 624.253125 211.8654296875 629.75 205.1 635.3873046875 198.3369140625 642.6 193.7 646.273046875 191.3693359375 650.35 189.55 662.4396484375 184.253515625 674.3 183.55 675.055078125 183.5052734375 675.8 183.45 686.8455078125 182.9626953125 696.9 184.65 707.253125 186.4259765625 721.75 190.95 722.3703125 191.150390625 723 191.35 736.55 195.35 746.65 195.95 747.5236328125 196.0029296875 748.35 196 761.397265625 210.36171875 765.6 229.45 769.845703125 225.0921875 774.25 221.75 784.1 214.15 795.5 211.45 803.523828125 209.5177734375 810.95 210.4 813.39140625 212.7763671875 816.25 215.05 820.3224609375 218.2650390625 827.55 222.7 833.78984375 226.569140625 842.4 231.35 855.8302734375 238.8236328125 863.55 244.2 866.284765625 246.11171875 868.3 247.75 875.541796875 253.646484375 880 260.35 884.0232421875 245.05078125 884.9 235.45 885.7642578125 225.888671875 885.9 223.75 886.81640625 210.004296875 885.75 196.75 883.41640625 195.3 881.5 194.35 862.9 185.2 854.1 172.6 851.309375 168.5953125 849.1 163.7 839.8189453125 163.92578125 831.6 163.1 806.3 160.6 789.25 147.85 780 140.95 771.5 129.45 771.209375 129.0607421875 770.9 128.65 765.43671875 131.8150390625 759.3 133.85 740 140.25 720.85 136.5 710.3 134.5 698.1 128.6 692.3525390625 125.68671875 688.25 122.5 681.4779296875 130.8189453125 668 135.85 654.95 140.85 640.75 141.3
M 607.65 404
Q 613 398.3 621.25 396 639.3 390.9 662.25 396.8 676.45 400.5 702.25 412 707.4154296875 414.309765625 712.3 416.45 705.05234375 422.62421875 698.75 431.5 693.9 438.2 689.05 447.25 687.26796875 450.5466796875 684.7 455.75 674.6154296875 452.469921875 664.65 448.85 648.7462890625 443.038671875 633.2 436.35 625.2267578125 432.9158203125 617.35 429.25 612 426.7 609.15 424.5 605 421.3 603.75 417.35 603.15078125 415.38125 603.2 413.45 603.3619140625 408.6095703125 607.65 404 Z"/>

<path fill="#0C9D99" stroke="none" d="
M 873.1 443
Q 872.209375 440.43203125 871.85 437.75 871.1677734375 438.6568359375 870.4 439.5 867.1767578125 443.025390625 863 445.4 861.0001953125 446.5966796875 858.75 447.5 852.75 449.95 845.05 450.65 839.993359375 451.121484375 833.1 450.85 831.9796875 461.721875 830 472.55 825.6890625 496.0001953125 817.55 518.05 807.4837890625 512.513671875 796.5 509 795.4451171875 508.676171875 794.35 508.35 785.8 505.85 779.1 505.55 770.7 505.15 764.25 508.1 758.85 510.55 753.9 515.8 750.5 519.35 745.75 526.1 728.7 550.5 721.05 572.05 711.55 598.85 716.1 622.25 716.9 626.15 718 628.6 718.159375 628.9626953125 718.3 629.3 719.713671875 632.1142578125 721.85 633.85 723.8158203125 635.476953125 726.5 636.15 729.7482421875 638.7896484375 732.45 640.85 741.0013671875 647.41328125 749.15 652.35 754.465625 654.2904296875 760.25 653.15 760.729296875 655.6466796875 760.65 658.35 760.6533203125 659.6951171875 760.5 661.1 760.317578125 662.7419921875 759.9 664.7 759.3404296875 667.5826171875 758.3 671.15 755.8 679.8 755.5 681.1 753.15 692.05 754.25 702.5 755.25 712.6 759.85 719.6 760.3451171875 720.3244140625 760.85 721
L 768.3 721
Q 767.08046875 719.044921875 766.05 716.8 771.55546875 714.198828125 776.25 713.25 780.9966796875 712.2486328125 784.65 713.5 788.359765625 714.8041015625 789.05 717 789.6103515625 718.783203125 789.05 721
L 801.25 721
Q 801.19296875 719.74296875 800.85 718.4 799.7 713.9 796.1 711.1 792.8 708.5 788.15 707.7 783.9 707 779.35 707.85 775.5 708.5 771 710.45 768.73671875 711.4140625 764.7 713.4 763.7810546875 710.7626953125 763.1 707.75 759.6 692.55 764.25 677.1 766.0736328125 671.916796875 766.95 669.25 767.0138671875 669.1564453125 767.05 669.05 768.5365234375 664.7705078125 769.1 661.55 784.7623046875 667.5251953125 797.05 668.2 812.5359375 669.053515625 825.45 664.15 828.415625 663.03125 831.25 661.6 844.35 655.05 855.65 641.2 863.95 631 873.35 613.85 892.991796875 578.06953125 906.8 539.75 910.4513671875 529.648046875 913.7 519.35 916.583203125 510.15546875 919.15 500.8 904.993359375 496.6568359375 891.25 490.5 880.65 485.9 875.5 480.75 872.05 477.2 870.35 472.9 868.55 468.3 869.25 463.85 870.5 457.1 877.25 452.45 877.7916015625 452.0767578125 878.35 451.7 874.8798828125 447.86484375 873.1 443
M 887 284.3
Q 887.0279296875 287.9798828125 886.5 291.85 886.452734375 292.193359375 886.4 292.55 885.5265625 298.3404296875 883.5 304.6 879.4 317.6 872.25 326.9 864 337.55 853 341.6 849.2849609375 343.0392578125 844.85 343.75 850.4701171875 365.6912109375 860.55 386.3 863.5826171875 392.458984375 867 398.5 867.6697265625 399.6630859375 868.25 400.75 869.189453125 398.2669921875 870.55 395.85 872.4318359375 392.498828125 874.95 389.65 877.319140625 386.9783203125 880.25 384.75 891.2 376.25 907.6 375 913.7517578125 374.5548828125 919.15 375.25 916.58203125 352.6853515625 910.5 330.35 905 310.95 897.4 298.05 892.6978515625 290.1408203125 887 284.3 Z"/>

<path fill="#9CCE52" stroke="none" d="
M 462.35 721.3
L 463.9 722.3 483.5 722.3 484.1 721.3
Q 477.90078125 716.4091796875 471.85 711.35 466.9595703125 716.222265625 462.35 721.3 Z"/>

<path fill="#E53317" stroke="none" d="
M 491.35 477.05
Q 489.9673828125 474.6787109375 488 472.55 481.3 465.3 471.8 465.3 462.3 465.3 455.6 472.55 448.9 479.8 448.9 490.05 448.9 500.3 455.6 507.55 458.1509765625 510.316796875 461.1 512 465.51484375 514.5638671875 470.8 514.75 470.8 515.4359375 470.8 516.1 470.8 525.6 478.1 532.3 485.45 539.05 495.85 539.05 502.751953125 539.05 508.3 536.05 506.3 540.5869140625 506.3 545.85 506.3 556.7 514.75 564.35 523.25 572 535.25 572 544.7376953125 572 552 567.2 553.0875 575.4673828125 559.85 581.6 567.95 588.9 579.35 588.9 590.75 588.9 598.8 581.6 599.5232421875 580.9482421875 600.15 580.25 601.858203125 586.008203125 606.4 590.55 613.6 597.75 623.8 597.75 634 597.75 641.2 590.55 643.2580078125 588.4919921875 644.7 586.2 645.9884765625 588.219921875 647.7 590.05 654.25 597.05 663.45 597.05 666.965625 597.05 670.05 596 675.1337890625 594.3751953125 679.15 590.05 685.7 583.1 685.7 573.25 685.7 563.4 679.15 556.4 674.609375 551.5451171875 668.75 550.05 666.2234375 549.45 663.45 549.45 654.25 549.45 647.7 556.4 646.0251953125 558.2037109375 644.75 560.2 643.2962890625 557.8462890625 641.2 555.75 634 548.55 623.8 548.55 613.6 548.55 606.4 555.75 606.0357421875 556.1142578125 605.7 556.45 603.7693359375 550.8787109375 598.8 546.4 590.75 539.1 579.35 539.1 570.7775390625 539.1 564.05 543.2 563.15390625 534.05859375 555.7 527.35 547.25 519.7 535.25 519.7 526.4376953125 519.7 519.5 523.8 520.9 520.226953125 520.9 516.1 520.9 506.6 513.55 499.85 506.25 493.15 495.85 493.15 495.1951171875 493.15 494.5 493.3 494.7 491.637890625 494.7 490.05 494.7 482.8095703125 491.35 477.05 Z"/>

<path fill="#FFFFFF" stroke="none" d="
M 620.95 219.85
Q 618.421484375 226.0640625 617.2 233 614.45 248.85 619.5 263.5 624.2 277.1 635.35 288.45 645.65 298.95 659.75 305.85 679.45 315.6 698.75 315.25 717.6765625 314.9228515625 734.3 304.35 735.4498046875 303.6375 736.6 302.85 742.61640625 298.7478515625 747.5 293.85 756.99296875 298.6822265625 769.25 302.45 774.4 304.05 791.35 308.55 805.2 312.25 813.25 315.1 818.9 317.15 822.45 319.05 827.3 321.7 830.35 325.1 837.457421875 332.862109375 835.95 344.45 838.299609375 344.4509765625 840.3 344.3 842.6638671875 344.1181640625 844.85 343.75 849.2849609375 343.0392578125 853 341.6 864 337.55 872.25 326.9 879.4 317.6 883.5 304.6 885.5265625 298.3404296875 886.4 292.55 886.452734375 292.193359375 886.5 291.85 887.0279296875 287.9798828125 887 284.3 887.036328125 277.11875 885 270.75 883.40625 265.7525390625 880 260.35 875.541796875 253.646484375 868.3 247.75 866.284765625 246.11171875 863.55 244.2 855.8302734375 238.8236328125 842.4 231.35 833.78984375 226.569140625 827.55 222.7 820.3224609375 218.2650390625 816.25 215.05 813.39140625 212.7763671875 810.95 210.4 803.523828125 209.5177734375 795.5 211.45 784.1 214.15 774.25 221.75 769.845703125 225.0921875 765.6 229.45 761.397265625 210.36171875 748.35 196 747.5236328125 196.0029296875 746.65 195.95 736.55 195.35 723 191.35 722.3703125 191.150390625 721.75 190.95 707.253125 186.4259765625 696.9 184.65 686.8455078125 182.9626953125 675.8 183.45 675.055078125 183.5052734375 674.3 183.55 662.4396484375 184.253515625 650.35 189.55 646.273046875 191.3693359375 642.6 193.7 635.3873046875 198.3369140625 629.75 205.1 624.253125 211.8654296875 620.95 219.85
M 694.65 242.35
Q 694.65 239.15 697.05 236.85 699.5 234.6 702.95 234.6 706.4 234.6 708.8 236.85 711.25 239.15 711.25 242.35 711.25 245.55 708.8 247.8 706.4 250.1 702.95 250.1 699.5 250.1 697.05 247.8 694.65 245.55 694.65 242.35
M 845.65 290.95
Q 843.35 288.65 843.35 285.4 843.35 282.15 845.65 279.8 848 277.5 851.25 277.5 854.5 277.5 856.8 279.8 859.15 282.15 859.15 285.4 859.15 288.65 856.8 290.95 854.5 293.3 851.25 293.3 848 293.3 845.65 290.95 Z"/>

<path fill="#D43317" stroke="none" d="
M 618.35 411.75
Q 614.7 410.7 610.8 411.1 606.85 411.45 603.2 413.45 603.15078125 415.38125 603.75 417.35 605 421.3 609.15 424.5 612 426.7 617.35 429.25 625.2267578125 432.9158203125 633.2 436.35 648.7462890625 443.038671875 664.65 448.85 663.7 441.5 660.35 435.6 657 429.65 651.85 425.35 646.75 421 640.4 418.7 634.029296875 416.410546875 626.85 416.9 626.03984375 416.055078125 625.1 415.3 622.05 412.9 618.35 411.75 Z"/>

<path fill="#3163D6" stroke="none" d="
M 971 -0.75
Q 971.458984375 -1.862109375 971.9 -3
L 552.9 -3 552.3 -2.85
Q 552.3138671875 -2.1005859375 552.35 -1.35 552.8298828125 9.2404296875 555.6 19.3 553.0087890625 21.957421875 550.15 25.1 537.9 38.6 533.5 56.85 530.1 70.55 531.75 83.35 532.8736328125 92.9751953125 536.85 101.85 514.486328125 127.6494140625 509.85 153.5 506.85 169.75 511.3 185.2 512.628125 189.7857421875 514.45 194 506.0921875 202.834765625 500.9 214.15 495.6 225.75 494.35 238.25 493.25 250.7 496.25 263.05 499.0548828125 274.5966796875 505.15 284.6 505.1861328125 284.6865234375 505.2 284.75 496.28359375 300.740625 494.1 319.4 491.95 338.1 497 355.85 501.6 372 511.6 384.35 519.887109375 394.52578125 530.6 399.45 540.9634765625 372.760546875 548.65 343.4 547.1201171875 342.8908203125 545.75 342.35 540.05 340.05 535.55 335.6 531.1 331.15 528.75 325.5 525.5 317.5 525.75 306.1 526.25 284.8 537 275.6 542.3 271.2 549.65 270 556.65 268.85 563.6 270.85 570 272.75 576 277.15 577.907421875 278.5373046875 581.1 281.35 586.38828125 277.058984375 592.5 268.25 598.6021484375 259.481640625 602 247.95 605.4470703125 236.41875 604.4 224.1 603.437109375 212.8 598.4 203.25 598.4716796875 203.2279296875 598.5 203.15 604.9767578125 196.6712890625 609.3 191.3 615.6 183.3 619.1 175.5 620.4291015625 172.5958984375 621.35 169.65 623.34375 163.646875 623.65 155.5 624.012109375 147.3537109375 620.75 139.65 630.5923828125 141.623046875 640.75 141.3 654.95 140.85 668 135.85 681.4779296875 130.8189453125 688.25 122.5 692.3525390625 125.68671875 698.1 128.6 710.3 134.5 720.85 136.5 740 140.25 759.3 133.85 765.43671875 131.8150390625 770.9 128.65 771.209375 129.0607421875 771.5 129.45 780 140.95 789.25 147.85 806.3 160.6 831.6 163.1 839.8189453125 163.92578125 849.1 163.7 851.309375 168.5953125 854.1 172.6 862.9 185.2 881.5 194.35 883.41640625 195.3 885.75 196.75 886.81640625 210.004296875 885.9 223.75 885.7642578125 225.888671875 884.9 235.45 884.0232421875 245.05078125 880 260.35 888.03671875 258.266796875 894.1 254 901.5 248.75 906 241.75 916.55 225.1 911.25 196.35 911.05625 195.3931640625 910.5 193.6 912.2806640625 191.75 914.1 189.75 918.5 184.9 920.55 182.35 923.95 178.1 926.1 174.35 931.45 165.25 932.7 153.45 933.8 142.9 931.5 131.25 930.3333984375 125.4771484375 929.15 118.85 933.86328125 110.9677734375 941.25 99.25 946.9 90.2 949.3 85.45 953.35 77.5 954.85 70.5 956.75 61.75 955.3 51.1 954.15 42.95 950.75 31.85 950.3373046875 30.5232421875 950.1 29.75 964.1830078125 15.7783203125 971 -0.75 Z"/>
</g>

<g id="Layer0_0_FILL">
<path fill="#000000" stroke="none" d="
M 843.35 285.4
Q 843.35 288.65 845.65 290.95 848 293.3 851.25 293.3 854.5 293.3 856.8 290.95 859.15 288.65 859.15 285.4 859.15 282.15 856.8 279.8 854.5 277.5 851.25 277.5 848 277.5 845.65 279.8 843.35 282.15 843.35 285.4
M 621.25 396
Q 613 398.3 607.65 404 603.3619140625 408.6095703125 603.2 413.45 606.85 411.45 610.8 411.1 614.7 410.7 618.35 411.75 622.05 412.9 625.1 415.3 626.03984375 416.055078125 626.85 416.9 634.029296875 416.410546875 640.4 418.7 646.75 421 651.85 425.35 657 429.65 660.35 435.6 663.7 441.5 664.65 448.85 674.6154296875 452.469921875 684.7 455.75 687.26796875 450.5466796875 689.05 447.25 693.9 438.2 698.75 431.5 705.05234375 422.62421875 712.3 416.45 707.4154296875 414.309765625 702.25 412 676.45 400.5 662.25 396.8 639.3 390.9 621.25 396
M 697.05 236.85
Q 694.65 239.15 694.65 242.35 694.65 245.55 697.05 247.8 699.5 250.1 702.95 250.1 706.4 250.1 708.8 247.8 711.25 245.55 711.25 242.35 711.25 239.15 708.8 236.85 706.4 234.6 702.95 234.6 699.5 234.6 697.05 236.85 Z"/>
</g>

<path id="Layer0_0_1_STROKES" stroke="#000000" stroke-width="1" stroke-linejoin="round" stroke-linecap="round" fill="none" d="
M 613.25 137.6
Q 617.016796875 138.7708984375 620.75 139.65 630.5923828125 141.623046875 640.75 141.3 654.95 140.85 668 135.85 681.4779296875 130.8189453125 688.25 122.5 692.3525390625 125.68671875 698.1 128.6 710.3 134.5 720.85 136.5 740 140.25 759.3 133.85 765.43671875 131.8150390625 770.9 128.65 771.209375 129.0607421875 771.5 129.45 780 140.95 789.25 147.85 806.3 160.6 831.6 163.1 839.8189453125 163.92578125 849.1 163.7 851.309375 168.5953125 854.1 172.6 862.9 185.2 881.5 194.35 883.41640625 195.3 885.75 196.75 886.81640625 210.004296875 885.9 223.75 885.7642578125 225.888671875 884.9 235.475 884.0232421875 245.05078125 880 260.35 888.03671875 258.266796875 894.1 254 901.5 248.75 906 241.75 916.55 225.1 911.25 196.35 911.05625 195.3931640625 910.5 193.6 912.2806640625 191.75 914.1 189.75 918.5 184.9 920.55 182.35 923.95 178.1 926.1 174.35 931.45 165.25 932.7 153.45 933.8 142.9 931.5 131.25 930.3333984375 125.4771484375 929.15 118.85 933.86328125 110.9677734375 941.25 99.25 946.9 90.2 949.3 85.45 953.35 77.5 954.85 70.5 956.75 61.75 955.3 51.1 954.15 42.95 950.75 31.85 950.3373046875 30.5232421875 950.1 29.75 964.1830078125 15.7783203125 971 -0.75 971.458984375 -1.862109375 971.9 -3
M 552.9 -3
L 552.3 -2.85
Q 552.3138671875 -2.1005859375 552.35 -1.35 552.8298828125 9.2404296875 555.6 19.3 553.0087890625 21.957421875 550.15 25.1 537.9 38.6 533.5 56.85 530.1 70.55 531.75 83.35 532.8736328125 92.9751953125 536.875 101.85 514.486328125 127.6494140625 509.85 153.5 506.85 169.75 511.3 185.2 512.628125 189.7857421875 514.45 194 506.0921875 202.834765625 500.9 214.15 495.6 225.75 494.35 238.25 493.25 250.7 496.25 263.05 499.0548828125 274.5966796875 505.15 284.625 505.1861328125 284.6865234375 505.225 284.75 496.28359375 300.740625 494.1 319.4 491.95 338.1 497 355.85 501.6 372 511.6 384.35 519.887109375 394.52578125 530.6 399.45 540.9634765625 372.760546875 548.65 343.4 547.1201171875 342.8908203125 545.75 342.35 540.05 340.05 535.55 335.6 531.1 331.15 528.75 325.5 525.5 317.5 525.75 306.1 526.25 284.8 537 275.6 542.3 271.2 549.65 270 556.65 268.85 563.6 270.85 570 272.75 576 277.15 577.907421875 278.5373046875 581.1 281.35 586.38828125 277.058984375 592.5 268.275 598.6021484375 259.481640625 602.025 247.95 605.4470703125 236.41875 604.4 224.1 603.437109375 212.8 598.425 203.275 598.4716796875 203.2279296875 598.525 203.175 604.9767578125 196.6712890625 609.3 191.3 615.6 183.3 619.1 175.5 620.4291015625 172.5958984375 621.375 169.65 623.34375 163.646875 623.675 155.5 624.012109375 147.3537109375 620.75 139.65
M 625.7 176.075
Q 631.369921875 183.830859375 638.55 190.3 640.537890625 192.0736328125 642.6 193.725 646.273046875 191.3693359375 650.35 189.575 662.4396484375 184.253515625 674.3 183.55 675.055078125 183.5052734375 675.8 183.475 669.83203125 169.66953125 667.75 154.6
M 781 361.6
Q 791.3671875 367.27421875 803.45 368.475 815.537109375 369.6818359375 824.5 364.125 833.454296875 358.5560546875 835.7 346.1 835.8458984375 345.276953125 835.95 344.475 837.457421875 332.862109375 830.35 325.1 827.3 321.7 822.45 319.05 818.9 317.15 813.25 315.1 805.2 312.25 791.35 308.55 774.4 304.05 769.25 302.45 756.99296875 298.6822265625 747.5 293.85 742.61640625 298.7478515625 736.6 302.85 735.4498046875 303.6375 734.3 304.375 717.6765625 314.9228515625 698.75 315.25 679.45 315.6 659.75 305.85 645.65 298.95 635.35 288.45 624.2 277.1 619.5 263.5 614.45 248.85 617.2 233 618.421484375 226.0640625 620.975 219.875 612.7138671875 215.8923828125 605.6 209.925
M 620.975 219.875
Q 624.253125 211.8654296875 629.75 205.1 635.3873046875 198.3369140625 642.6 193.725
M 586.1 286.85
Q 583.0953125 283.126953125 581.1 281.35
M 551.45 292.65
Q 555.5765625 294.030078125 559.35 296.5 559.45 296.5666015625 559.55 296.625 564.81953125 300.197265625 568.5 305.35 569.72265625 307.10234375 571.5 310.25
M 559.55 296.625
Q 559.271875 296.7783203125 559.05 296.9 555.8 298.7 553.85 300.75 550.6 304.3 548.85 310.75 548.362109375 312.8349609375 548.075 315.55
M 548.65 343.4
Q 552.9763671875 344.5759765625 557.8 344.5 564.15 344.45 570.1 343.35
M 689.85 722.3
Q 671.973828125 650.371484375 670.5 608 670.2796875 601.642578125 670.075 596.025 666.965625 597.05 663.45 597.05 654.25 597.05 647.7 590.05 645.9884765625 588.219921875 644.725 586.2 643.2580078125 588.4919921875 641.2 590.55 634 597.75 623.8 597.75 613.6 597.75 606.4 590.55 601.858203125 586.008203125 600.175 580.275 599.5232421875 580.9482421875 598.8 581.6 590.75 588.9 579.35 588.9 567.95 588.9 559.85 581.6 553.0875 575.4673828125 552 567.225 544.7376953125 572 535.25 572 523.25 572 514.75 564.35 506.3 556.7 506.3 545.85 506.3 540.5869140625 508.3 536.075 502.751953125 539.05 495.85 539.05 485.45 539.05 478.1 532.3 470.8 525.6 470.8 516.1 470.8 515.4359375 470.825 514.775 465.51484375 514.5638671875 461.125 512.025 406.5041015625 555.231640625 360.725 606.1 316.0353515625 655.7541015625 281.875 722
L 284.325 722.3
M 712.325 416.45
Q 707.4154296875 414.309765625 702.25 412 676.45 400.5 662.25 396.8 639.3 390.9 621.25 396 613 398.3 607.65 404 603.3619140625 408.6095703125 603.2 413.45 606.85 411.45 610.8 411.1 614.7 410.7 618.35 411.75 622.05 412.9 625.1 415.3 626.03984375 416.055078125 626.875 416.9 634.029296875 416.410546875 640.4 418.7 646.75 421 651.85 425.35 657 429.65 660.35 435.6 663.7 441.5 664.675 448.85 674.6154296875 452.469921875 684.7 455.75 687.26796875 450.5466796875 689.05 447.25 693.9 438.2 698.75 431.5 705.05234375 422.62421875 712.325 416.45 725.60390625 422.253515625 736.975 426.825 752.9234375 433.2501953125 765.1 437.25 800.5 448.95 830.75 450.75 831.9505859375 450.8142578125 833.1 450.85 839.993359375 451.121484375 845.05 450.65 852.75 449.95 858.75 447.5 861.0001953125 446.5966796875 863.025 445.425 867.1767578125 443.025390625 870.4 439.5 871.1677734375 438.6568359375 871.85 437.775 875.6505859375 432.876171875 876.5 427.1 877.0939453125 423.15078125 876.2 418.7 875.7439453125 416.47109375 874.925 414.125 874.609375 413.2458984375 874.25 412.35 872.7130859375 408.5736328125 868.275 400.75 867.6697265625 399.6630859375 867 398.5 863.5826171875 392.458984375 860.575 386.3 850.4701171875 365.6912109375 844.85 343.75 842.6638671875 344.1181640625 840.3 344.3 838.299609375 344.4509765625 835.95 344.475
M 603.2 413.45
Q 603.15078125 415.38125 603.75 417.35 605 421.3 609.15 424.5 612 426.7 617.35 429.25 625.2267578125 432.9158203125 633.2 436.35 648.7462890625 443.038671875 664.675 448.85
M 626.875 416.9
Q 628.7201171875 418.782421875 630 421.1 631.6390625 424.1369140625 632.4 428.15
M 530.6 399.45
Q 527.63515625 406.983984375 524.7 413.8 510.4826171875 446.8162109375 491.35 477.075 494.7 482.8095703125 494.7 490.05 494.7 491.637890625 494.5 493.3 495.1951171875 493.15 495.85 493.15 506.25 493.15 513.55 499.85 520.9 506.6 520.9 516.1 520.9 520.226953125 519.525 523.825 526.4376953125 519.7 535.25 519.7 547.25 519.7 555.7 527.35 563.15390625 534.05859375 564.075 543.225 570.7775390625 539.1 579.35 539.1 590.75 539.1 598.8 546.4 603.7693359375 550.8787109375 605.7 556.475 606.0357421875 556.1142578125 606.4 555.75 613.6 548.55 623.8 548.55 634 548.55 641.2 555.75 643.2962890625 557.8462890625 644.775 560.2 646.0251953125 558.2037109375 647.7 556.4 654.25 549.45 663.45 549.45 666.2234375 549.45 668.75 550.075 669.2556640625 544.0322265625 671.325 534.9 674.3013671875 521.791796875 678.2 512.25 682.0919921875 502.70625 688.45 491.85 696.0423828125 490.2376953125 699 490.05 704.9 489.65 709.35 488.25 714.7 486.65 718.75 483.35 723.15 479.75 724.75 475 726.3 470.65 725.35 465.8 724.5 461.1 721.6 457.25 719.55 454.75 718.65 453.4 717.05 451.1 717 449.1 716.85 446.85 718.25 444.5 719.25 442.85 721.5 440.6 728.7587890625 433.7404296875 736.975 426.825
M 461.125 512.025
Q 458.1509765625 510.316796875 455.6 507.55 448.9 500.3 448.9 490.05 448.9 479.8 455.6 472.55 462.3 465.3 471.8 465.3 481.3 465.3 488 472.55 489.9673828125 474.6787109375 491.35 477.075
M 508.3 536.075
Q 510.398828125 531.2892578125 514.75 527.35 517.0080078125 525.3177734375 519.525 523.825
M 564.075 543.225
Q 564.2 544.51484375 564.2 545.85 564.2 556.7 555.7 564.35 553.930859375 565.9515625 552 567.225
M 605.7 556.475
Q 606.9 560.019140625 606.9 564 606.9 573.38046875 600.175 580.275
M 470.825 514.775
Q 471.3103515625 506.128125 478.1 499.85 484.987109375 493.571875 494.5 493.3
M 482.5 701.325
Q 480.4341796875 703.1578125 478.4 705.05 475.0607421875 708.157421875 471.85 711.35 477.90078125 716.4091796875 484.1 721.3
L 498 722.3
M 471.85 711.35
Q 466.9595703125 716.222265625 462.375 721.3
L 463.925 722.3
M 459 722.3
L 462.375 721.3
M 483.5 722.3
L 484.1 721.3
M 675.8 183.475
Q 686.8455078125 182.9626953125 696.925 184.675 707.253125 186.4259765625 721.75 190.95 718.6818359375 176.9029296875 717.95 162.35
M 721.75 190.95
Q 722.3703125 191.150390625 723 191.35 736.55 195.35 746.65 195.95 747.5236328125 196.0029296875 748.375 196.025 760.4125 196.39921875 768.35 191.45
M 748.375 196.025
Q 761.397265625 210.36171875 765.6 229.475 769.845703125 225.0921875 774.25 221.75 784.1 214.15 795.5 211.45 803.523828125 209.5177734375 810.95 210.4 802.3177734375 201.9908203125 798.85 192.25
M 765.6 229.475
Q 765.927734375 230.9451171875 766.2 232.45 769.95 253.45 762.1 272.1 756.9005859375 284.4404296875 747.5 293.85
M 711.25 242.35
Q 711.25 245.55 708.8 247.8 706.4 250.1 702.95 250.1 699.5 250.1 697.05 247.8 694.65 245.55 694.65 242.35 694.65 239.15 697.05 236.85 699.5 234.6 702.95 234.6 706.4 234.6 708.8 236.85 711.25 239.15 711.25 242.35 Z
M 842.05 206.2
Q 835.83515625 215.1689453125 827.55 222.725 833.78984375 226.569140625 842.4 231.35 855.8302734375 238.8236328125 863.575 244.225 872.8048828125 238.9150390625 880.975 232.05
M 810.95 210.4
Q 813.39140625 212.7763671875 816.25 215.05 820.3224609375 218.2650390625 827.55 222.725
M 859.15 285.4
Q 859.15 288.65 856.8 290.95 854.5 293.3 851.25 293.3 848 293.3 845.65 290.95 843.35 288.65 843.35 285.4 843.35 282.15 845.65 279.8 848 277.5 851.25 277.5 854.5 277.5 856.8 279.8 859.15 282.15 859.15 285.4 Z
M 880 260.35
Q 883.40625 265.7525390625 885 270.75 887.036328125 277.11875 887.025 284.325 892.6978515625 290.1408203125 897.4 298.05 905 310.95 910.5 330.35 916.58203125 352.6853515625 919.175 375.25 927.17109375 376.267578125 933.6 379.75 939.75 383.05 943.85 388.35 948.25 393.9 949.25 400.35 950.3 407.1 947.4 413.45 945.022265625 418.5951171875 940.95 421.425 945.4123046875 424.63125 947.85 428.75 952.15 435.95 950.65 445.35 949.25 454 943.6 461.35 942.3634765625 462.95078125 940.925 464.5 944.7443359375 468.699609375 947 473.6 951.95 484.3 949.75 496.85 947.65 507.6 941.85 512.75 936.3 517.85 925.9 518.9 922.5 519.2 916.7 519.3 915.062890625 519.323046875 913.7 519.35 910.4513671875 529.648046875 906.8 539.775 939.116796875 629.4375 959.375 722.3
M 887.025 284.325
Q 887.0279296875 287.9798828125 886.5 291.85 886.452734375 292.193359375 886.4 292.55 885.5265625 298.3404296875 883.5 304.6 879.4 317.6 872.25 326.9 864 337.55 853 341.6 849.2849609375 343.0392578125 844.85 343.75
M 863.575 244.225
Q 866.284765625 246.11171875 868.3 247.75 875.541796875 253.646484375 880 260.35
M 860.575 386.3
Q 864.2685546875 382.58203125 868.375 378.3 872.1369140625 374.3380859375 876.25 369.9 876.3 369.85390625 876.35 369.8 876.9462890625 369.1509765625 877.55 368.5
M 868.375 378.3
Q 871.5818359375 384.037890625 874.95 389.65 877.319140625 386.9783203125 880.25 384.75 891.2 376.25 907.6 375 913.7517578125 374.5548828125 919.175 375.25
M 868.275 400.75
Q 869.189453125 398.2669921875 870.55 395.85 872.4318359375 392.498828125 874.95 389.65
M 871.85 437.775
Q 872.209375 440.43203125 873.1 443 874.8798828125 447.86484375 878.35 451.725 883.919140625 448.2498046875 891.1 447.25 899.55 446.15 908.45 447.75 916.95 449.25 925 453.1 934.899609375 457.9275390625 940.925 464.5
M 874.925 414.125
Q 879.66484375 412.9705078125 884.6 412.25 905.1 409.3 924.75 414.35 934.7791015625 417.0166015625 940.95 421.425
M 833.1 450.85
Q 831.9796875 461.721875 830 472.55 825.6890625 496.0001953125 817.575 518.05 823.19453125 521.128125 828.55 524.85 830.3177734375 526.083984375 833.05 528.2
L 832.5 527.725
Q 838.7875 532.4876953125 844.35 537.95 845.5552734375 533.680859375 846.9 529.05 855.4 499.65 858.5 484.85 862.819140625 463.7841796875 863.025 445.425
M 913.7 519.35
Q 916.583203125 510.15546875 919.15 500.825 904.993359375 496.6568359375 891.25 490.5 880.65 485.9 875.5 480.75 872.05 477.2 870.35 472.9 868.55 468.3 869.25 463.85 870.5 457.1 877.25 452.45 877.7916015625 452.0767578125 878.35 451.725
M 856 551.25
Q 850.6404296875 544.1505859375 844.35 537.95
M 817.575 518.05
Q 807.4837890625 512.513671875 796.525 509.025 803.082421875 519.8380859375 801.45 535.3 800.05 548.7 792.5 565.25 782.05 587.95 768.35 608.1 761.15 618.6 754.85 624.6 746.45 632.65 737.25 635.5 733 636.8 729.2 636.55 727.7666015625 636.4533203125 726.5 636.15 729.7482421875 638.7896484375 732.45 640.85 741.0013671875 647.41328125 749.175 652.35 754.465625 654.2904296875 760.275 653.15 764.0546875 652.396875 768.05 650.35 768.4650390625 650.1375 768.9 649.9 776.9166015625 645.3033203125 791.025 628.725 805.8857421875 611.2541015625 818.675 582.775 831.464453125 554.2984375 833.05 528.2
M 906.6 539.2
Q 906.701953125 539.482421875 906.8 539.775 892.991796875 578.06953125 873.35 613.85 863.95 631 855.65 641.2 844.35 655.05 831.25 661.6 828.415625 663.03125 825.45 664.15 825.798828125 684.162890625 826.975 704.625 827.478515625 713.421484375 828.15 722.3
M 926.95 502.3
Q 922.809765625 501.904296875 919.15 500.825
M 684.7 455.75
Q 692.0642578125 458.1404296875 699.5 460.35
M 668.75 550.075
Q 674.609375 551.5451171875 679.15 556.4 685.7 563.4 685.7 573.25 685.7 583.1 679.15 590.05 675.1337890625 594.3751953125 670.075 596.025 724.6419921875 640.114453125 754.55 661.05 754.86640625 661.271484375 755.175 661.5 756.6396484375 662.522265625 759.925 664.7 760.317578125 662.7419921875 760.5 661.1 760.6533203125 659.6951171875 760.675 658.35 753.689453125 655.086328125 749.175 652.35
M 796.525 509.025
Q 795.4451171875 508.676171875 794.35 508.35 785.8 505.85 779.1 505.55 770.7 505.15 764.25 508.1 758.85 510.55 753.9 515.8 750.5 519.35 745.75 526.1 728.7 550.5 721.05 572.05 711.55 598.85 716.1 622.25 716.9 626.15 718 628.6 718.159375 628.9626953125 718.325 629.3 719.713671875 632.1142578125 721.85 633.85 723.8158203125 635.476953125 726.5 636.15
M 784.2 532.3
Q 784.2 534.45 782.7 535.95 781.2 537.45 779.05 537.45 776.9 537.45 775.4 535.95 773.9 534.45 773.9 532.3 773.9 530.15 775.4 528.65 776.9 527.15 779.05 527.15 781.2 527.15 782.7 528.65 784.2 530.15 784.2 532.3 Z
M 757.55 545
Q 757.55 546.85 756.25 548.15 754.95 549.45 753.1 549.45 751.25 549.45 749.95 548.15 748.65 546.85 748.65 545 748.65 543.15 749.95 541.85 751.25 540.55 753.1 540.55 754.95 540.55 756.25 541.85 757.55 543.15 757.55 545 Z
M 758.85 569.4
Q 758.85 571.45 757.4 572.9 755.95 574.35 753.9 574.35 751.85 574.35 750.4 572.9 748.95 571.45 748.95 569.4 748.95 567.35 750.4 565.9 751.85 564.45 753.9 564.45 755.95 564.45 757.4 565.9 758.85 567.35 758.85 569.4 Z
M 739.75 586.3
Q 739.75 588.55 738.15 590.1 736.6 591.7 734.35 591.7 732.1 591.7 730.5 590.1 728.95 588.55 728.95 586.3 728.95 584.05 730.5 582.45 732.1 580.9 734.35 580.9 736.6 580.9 738.15 582.45 739.75 584.05 739.75 586.3 Z
M 764.1 595.7
Q 764.1 597.8 762.6 599.3 761.1 600.8 759 600.8 756.9 600.8 755.4 599.3 753.9 597.8 753.9 595.7 753.9 593.6 755.4 592.1 756.9 590.6 759 590.6 761.1 590.6 762.6 592.1 764.1 593.6 764.1 595.7 Z
M 786.65 558.4
Q 786.65 560.45 785.2 561.85 783.8 563.3 781.75 563.3 779.7 563.3 778.25 561.85 776.85 560.45 776.85 558.4 776.85 556.35 778.25 554.9 779.7 553.5 781.75 553.5 783.8 553.5 785.2 554.9 786.65 556.35 786.65 558.4 Z
M 736.25 615.6
Q 736.25 617.8 734.65 619.35 733.1 620.95 730.9 620.95 728.7 620.95 727.1 619.35 725.55 617.8 725.55 615.6 725.55 613.4 727.1 611.8 728.7 610.25 730.9 610.25 733.1 610.25 734.65 611.8 736.25 613.4 736.25 615.6 Z
M 768.9 649.9
Q 769.96953125 655.728125 769.25 660.85 769.1955078125 661.191796875 769.125 661.55 784.7623046875 667.5251953125 797.05 668.2 812.5359375 669.053515625 825.45 664.15
M 760.275 653.15
Q 760.729296875 655.6466796875 760.675 658.35
M 826.975 704.625
Q 800.433984375 691.4349609375 766.975 669.275 766.0736328125 671.916796875 764.25 677.1 759.6 692.55 763.1 707.75 763.7810546875 710.7626953125 764.725 713.425 768.73671875 711.4140625 771 710.45 775.5 708.5 779.35 707.85 783.9 707 788.15 707.7 792.8 708.5 796.1 711.1 799.7 713.9 800.85 718.4 801.19296875 719.74296875 801.25 721
L 820.7 722.3
M 759.925 664.7
Q 759.3404296875 667.5826171875 758.3 671.15 755.8 679.8 755.5 681.1 753.15 692.05 754.25 702.5 755.25 712.6 759.85 719.6 760.3451171875 720.3244140625 760.875 721
L 768.3 721
Q 767.08046875 719.044921875 766.075 716.8 765.3384765625 715.184375 764.725 713.425
M 769.125 661.55
Q 768.5365234375 664.7705078125 767.05 669.05 767.0138671875 669.1564453125 766.975 669.275
M 768.3 721
L 789.075 721
Q 789.6103515625 718.783203125 789.05 717 788.359765625 714.8041015625 784.675 713.525 780.9966796875 712.2486328125 776.25 713.25 771.55546875 714.198828125 766.075 716.8
M 789.075 721
L 801.25 721
M 704.975 722.3
L 760.875 721
M 644.775 560.2
Q 648.4 565.91953125 648.4 573.15 648.4 580.434375 644.725 586.2"/>
</defs>

<g transform="matrix( 1, 0, 0, 1, 0,0) ">
<use xlink:href="#Layer2_0_FILL"/>
</g>

<g transform="matrix( 1, 0, 0, 1, 0,0) ">
<use xlink:href="#Layer1_0_FILL"/>
</g>

<g transform="matrix( 1, 0, 0, 1, 0,0) ">
<use xlink:href="#Layer0_0_FILL"/>

<use xlink:href="#Layer0_0_1_STROKES"/>
</g>
</svg>
