
<svg xmlns="http://www.w3.org/2000/svg" version="1.1" xmlns:xlink="http://www.w3.org/1999/xlink" preserveAspectRatio="none" x="0px" y="0px" width="1280px" height="720px" viewBox="0 0 1280 720">
<defs>
<g id="Layer2_0_FILL">
<path fill="#FFFFFF" stroke="none" d="
M 1280 720
L 1280 0 0 0 0 720 1280 720 Z"/>
</g>

<g id="Layer0_0_FILL">
<path fill="#000000" stroke="none" d="
M 731.7 292
Q 733.45 290.3 733.45 287.85 733.45 285.4 731.7 283.65 730 281.95 727.55 281.95 725.1 281.95 723.35 283.65 721.65 285.4 721.65 287.85 721.65 290.3 723.35 292 725.1 293.75 727.55 293.75 730 293.75 731.7 292
M 795.9 267.2
Q 795.9 265 794.3 263.4 792.75 261.85 790.55 261.85 788.35 261.85 786.75 263.4 785.2 265 785.2 267.2 785.2 269.4 786.75 270.95 788.35 272.55 790.55 272.55 792.75 272.55 794.3 270.95 795.9 269.4 795.9 267.2 Z"/>
</g>

<path id="Layer0_0_1_STROKES" stroke="#000000" stroke-width="1" stroke-linejoin="round" stroke-linecap="round" fill="none" d="
M 667.75 272.1
Q 673.453515625 271.6572265625 679.725 270.75 685.4712890625 269.9216796875 691.7 268.7 701.05 266.9 715.35 263.35 719.94609375 262.39765625 722.7 261.075
L 722.725 261.075
Q 735.052734375 230.6837890625 740.25 199.5 745.4 168.4 742.85 137.1 765.619140625 149.54453125 780.55 171.15 784.6478515625 177.05390625 788.15 183.65 792.1931640625 191.229296875 795.05 198.95 794.15 150.95 776.75 127.35 764.15 110.35 742.85 100.4 723.15 91.25 700.1 89.85 679.85 88.75 656.4 93.25 638.05 96.8 613.75 104.75 579.3 115.95 556.4 128.6 554.856640625 129.4525390625 553.35 130.325 543.4021484375 180.0123046875 554.3 241.8 561.09765625 280.536328125 583.275 353.2 590.6892578125 354.125390625 598.3 357.5 607.75 361.7 616.625 369.325 631.146875 362.97734375 645.95 350 655.294921875 341.7544921875 672.225 323.375 666.45 313.7375 666.45 301.7 666.45 296.2953125 667.625 291.375 662.55 293.5 657.35 294.6 655.1 295.1 653.75 294.85
M 780.55 171.15
Q 772.85 172.8 767.8 176.95 763.5 180.45 759.85 185.85 757.75 189.1 753.95 196.25 750.25 203.2 748 206.5
M 737.875 270.075
Q 738.61953125 270.76953125 739.35 271.5 751.85 284 751.85 301.7 751.85 306.42109375 750.95 310.775 756.42265625 315.451953125 762.85 317.8 764.7484375 316.2294921875 766 315.35 772.5 310.85 778.25 310.85 781.85 310.8 785.15 312.5 788.5 314.25 790.5 317.25 790.66171875 317.4865234375 790.825 317.725 798.662109375 314.815234375 805.05 308.4 811.309375 302.1671875 814.225 294.55 816.8 287.85703125 816.8 280.1 816.8 263.5 805.05 251.75 803.8587890625 250.5587890625 802.625 249.5 801.843359375 248.8205078125 801.05 248.2 790.60625 240.05 776.75 240.05 760.15 240.05 748.4 251.75 740.4015625 259.7826171875 737.875 270.075 731.033984375 263.7921875 722.725 261.075
L 722.7 261.1 722.7 261.075
M 733.45 287.85
Q 733.45 290.3 731.7 292 730 293.75 727.55 293.75 725.1 293.75 723.35 292 721.65 290.3 721.65 287.85 721.65 285.4 723.35 283.65 725.1 281.95 727.55 281.95 730 281.95 731.7 283.65 733.45 285.4 733.45 287.85 Z
M 795.9 267.2
Q 795.9 269.4 794.3 270.95 792.75 272.55 790.55 272.55 788.35 272.55 786.75 270.95 785.2 269.4 785.2 267.2 785.2 265 786.75 263.4 788.35 261.85 790.55 261.85 792.75 261.85 794.3 263.4 795.9 265 795.9 267.2 Z
M 801.05 248.2
Q 803.758203125 222.448046875 795.05 198.95
M 652.25 283
Q 656 284.4 661.05 284.45 664.2 284.5 670.2 283.9 673.2876953125 277.1623046875 678.95 271.5 679.3291015625 271.1208984375 679.725 270.75
M 667.625 291.375
Q 668.543359375 287.486328125 670.2 283.9
M 722.725 261.075
Q 723.2658203125 260.7888671875 723.75 260.5 725.8 259.3 727.2 257.6 728.7 255.7 729 253.6
M 750.95 310.775
Q 748.516015625 322.733984375 739.35 331.9 726.85 344.4 709.15 344.4 691.45 344.4 678.95 331.9 674.9509765625 327.9009765625 672.225 323.375
M 700.95 378
Q 700.95 387.95 693.4 394.95 685.85 402 675.2 402 664.55 402 657 394.95 649.45 387.95 649.45 378 649.45 368.05 657 361 664.55 354 675.2 354 685.85 354 693.4 361 700.95 368.05 700.95 378 Z
M 709.5 359.5
Q 711.7513671875 363.32734375 712.7 367.85 735.35 360.95 746.7 358.2 765.7 353.6 781.35 352.6 784.8 352.35 787.05 352.5 790.15 352.65 792.6 353.5 795.4 354.5 797.45 356.5 799.7 358.65 800.25 361.25 800.8 364 799.5 366.95 798.3 369.6 796 371.6 792.7 374.35 785.5 376.75 777.2 379.4 745.55 386.95 720.882421875 392.8421875 706.25 398.875 704.5669921875 401.971875 702.5 405.25
M 712.7 367.85
Q 713.025390625 369.3654296875 713.2 370.95 713.85 376.85 712.5 383.1 710.916015625 390.2458984375 706.25 398.875
M 727.1 368.5
Q 725.6 369 725.1 369.6 724.85 370.05 724.85 371.6 724.85 372.4 725.25 377.75 725.4 378.4 725.4 378.45 725.55 378.8 725.85 378.85 726.1 379 726.6 379 733.7 377.9 738.75 376.5 739.8 376.2 740.1 375.85 740.9 375.05 740.35 372.85 739.45 369.95 739 367.85 738.8 366.3005859375 738.35 366.025 737.899609375 365.7462890625 737.175 365.825 736.450390625 365.90703125 736.075 365.9 731.9453125 366.8849609375 727.1 368.5 Z
M 790.825 317.725
Q 792.585546875 320.545703125 793 324 793.4 327.75 792 331.1 790.45 334.9 786.9 337.8 783.6 340.45 779.35 341.85 775.65 343 770.9 343.45 767.9 343.75 762.35 343.85
M 841 342.15
Q 841 350.15 835.3 355.8 829.65 361.5 821.65 361.5 813.65 361.5 807.95 355.8 802.3 350.15 802.3 342.15 802.3 334.15 807.95 328.45 813.65 322.8 821.65 322.8 829.65 322.8 835.3 328.45 841 334.15 841 342.15 Z
M 755.75 323.6
Q 757.4 322.4 760.9 319.45 761.951171875 318.5443359375 762.85 317.8
M 756.1 363.1
Q 754.75 363.45 754.35 363.75 753.85 364.25 753.85 366
L 753.85 370.6
Q 753.85 371.1 754 371.35 754.1 371.6 754.75 371.6 759.7 371.85 764.25 370.75 766.3625 370.54375 766.975 369.75 767.591796875 368.9609375 766.95 366.425 766.30546875 363.8763671875 765.65 361.85 765.394140625 361.6689453125 764.825 361.6 764.258203125 361.537109375 764.05 361.625 763.827734375 361.706640625 763.625 361.675
L 756.1 363.1 Z
M 790.025 358.825
Q 783.25 358.4 780.25 358.85 778.6 359.15 778 359.85 777.5 360.5 777.5 361.85 777.4927734375 363.35390625 777.425 365.375 777.3650390625 367.39375 777.75 368.15 778.1294921875 368.908203125 779.25 369 780.45 369.2 783.5 369 785.35 368.75 788.85 368.35 789.75 368.35 790.1 368 790.4 367.75 790.55 367.35 790.7 366.85 790.75 366.6 791.25 363.75 791.275 361.95 791.3021484375 360.1447265625 791.025 359.425 790.743359375 358.7154296875 790.025 358.825 Z
M 802.625 249.5
Q 809.2 248.6 813.6 245.75 816.95 243.55 817.6 241
M 814.225 294.55
Q 853.05 333.95 854.5 370.35 855.3 393.95 841.4 415.9 828.2 436.7 806.35 449.1 797.11953125 454.39765625 786.7 458.1 789.8244140625 459.74140625 791.75 463.25 793.85 467.05 793.75 471.6 793.65 475.55 792.05 480.1 791.05 483 788.6 488 780.65 503.8 772.35 514 771.6076171875 514.9103515625 770.85 515.775 773.1576171875 532.219921875 780.05 550.25 781.9697265625 555.3017578125 784.7 561.525 788.7201171875 570.6712890625 794.5 582.35 806.35 606.45 809.6 614 811.648046875 618.7052734375 813.4 623.2 818.3685546875 636.02578125 820.85 647.1 824.85 665.3 822.85 682.15 821.478125 693.52109375 817.475 703.1 822.648046875 709.66953125 824.85 714.6 825.5 715.95 826.15 717.95 826.4724609375 718.876953125 827 720.525
M 809.85 256.75
Q 818.9 255.35 826.35 250
M 786.7 458.1
Q 774.578515625 462.40078125 760.85 464.55 744.0533203125 467.162890625 725.25 466.45
L 725.15 488.475
Q 739.366015625 487.6625 752.825 483.375 757.9630859375 481.7474609375 763 479.6
M 752.825 483.375
Q 756.2712890625 485.2865234375 758.55 489.2 760.65 492.8 761.25 497.25 762.0060546875 504.144140625 760.425 510.55 758.8302734375 516.9662109375 757.35 521.925 755.8787109375 526.879296875 754.9 529.825 763.3734375 524.4994140625 770.85 515.775
M 644.6 463.75
Q 648.6193359375 466.9197265625 652.85 469.7 666.7009765625 478.7587890625 682.8 483.525
L 682.9 460.85
Q 672.4755859375 458.3083984375 663.05 454.65 651.9615234375 450.359765625 642.75 444.475 638.199609375 445.2322265625 635.4 445.95 629.3 447.45 624.85 449.85 619.6 452.75 616.3 457.3 612.7 462.2 612.5 467.6 612.35 472.45 615 477.75 616.95 481.55 621.1 486.75 626.6587890625 493.5833984375 633 499.675 639.734375 506.1181640625 647.35 511.725
L 644.85 494.5
Q 644.1 488.05 644.15 484.95 644.25 479.65 646.25 476 648.40390625 471.8359375 652.85 469.7
M 725.25 466.45
Q 718.8658203125 466.22109375 712.25 465.6 696.699609375 464.2044921875 682.9 460.85
M 682.8 483.525
Q 690.6904296875 485.85078125 699.125 487.15 700.3873046875 487.3306640625 701.65 487.5 713.6478515625 489.1244140625 725.15 488.475
M 754.9 529.825
Q 754.8205078125 529.874609375 754.75 529.925 751.9720703125 531.6376953125 749.1 533 736.3 539.1 720.05 538.85 710.115625 538.67578125 699.475 536.2 694.8548828125 535.1142578125 690.1 533.6 670 527.25 652.2 515.15 649.732421875 513.4794921875 647.35 511.725
M 699.125 487.15
Q 692.5751953125 494.3654296875 693.5 509.6 694.2412109375 523.091796875 699.475 536.2
M 665.95 558
Q 666.1341796875 565.32109375 666.45 572.675 673.7748046875 576.8625 683.6 578.5 691.45 579.8 702 579.6 731.829296875 579.11171875 760.375 568.75 760.3419921875 568.3302734375 760.3 567.9 759.6333984375 558.733203125 759.9 549.55
M 760.3 567.9
Q 766.561328125 569.671875 773.15 568 779.8 566.3 784.7 561.525
M 813.4 623.2
Q 804.35 629.35 795.1 631.6 784.4599609375 634.3091796875 775.525 631.575
L 775.525 631.6
Q 779.31015625 641.5677734375 783.85 651.25 790.5 665.15 792.2 669.65 796.2 680.35 795.85 689.1 795.8275390625 689.949609375 795.75 690.8 802.237890625 692.986328125 809.25 691.9 816.3 690.8 821.85 686.75
M 775.525 631.575
Q 775.3841796875 631.5421875 775.35 631.7 775.437109375 631.645703125 775.525 631.6
M 795.75 690.8
Q 795.7349609375 691.164453125 795.7 691.525 794.9453125 699.78359375 790.5 708.5 787.4951171875 714.3244140625 780.475 720.275
M 760.375 568.75
Q 761.6390625 585.003125 765.85 601.25 769.855859375 616.7359375 775.525 631.575
M 666.45 572.675
Q 667.555859375 597.21328125 670.25 622 670.9064453125 628.2349609375 672.125 639.125 697.5 647.85 724.7 645.85 751.798828125 643.9072265625 775.35 631.7
M 672.125 639.125
Q 672.1716796875 639.59609375 672.225 640.075 672.6333984375 643.7109375 673.1 647.85 674.6 662.95 674.75 673.85 674.9568359375 687.3142578125 673.175 698.9 672.9146484375 700.6017578125 672.6 702.275 702.674609375 711.7763671875 734.95 709 767.474609375 706.2021484375 795.7 691.525
M 672.6 702.275
Q 670.826171875 712.04140625 667.575 720.4
M 817.475 703.1
Q 814.89921875 709.2140625 811.25 714.6
M 481.55 178.25
Q 480.0548828125 179.2642578125 476.8 180.9 476.5888671875 180.9943359375 476.375 181.1
L 476.2 181.2
Q 474.071875 182.3662109375 472.05 184.3 470.05 186.25 468.75 189 467.05 192.4 467.25 195.35 467.45 197.15 468.25 198.5 469.15 200 470.6 200.6 472.4 201.3 475.5 200.85 485.5841796875 199.30234375 493.475 192.375 500.2900390625 178.402734375 509.25 167.1 511.601171875 164.1326171875 514.175 161.275 515.4787109375 159.794921875 516.85 158.35 504.25 151 489.05 151.9 473.75 152.8 462.35 161.5 456.8 165.85 455 170.25 453.85 172.95 454.15 175.85 454.45 178.9 456.25 181 458.45 183.45 462.15 184.05 465.4001953125 184.5466796875 468.45 184.025 471.4994140625 183.5099609375 475.65 181.475 475.933203125 181.3359375 476.2 181.2
M 553.35 130.325
Q 531.75859375 142.728125 516.85 158.35
M 493.475 192.375
Q 489.527734375 200.463671875 486.3 209.45 478.8 230.25 474.85 256.75 468.7 297.85 471.25 346.05 473.35 385.25 481.75 435.25 484.75 453.5 484.85 462.95 485 478.45 479.35 489.25 473.95 499.65 459.9 510.1 458.85 510.9 447.9 518.65 440.6 523.8 436.25 527.6 426.05 536.3 418.9 547.95 411.8 559.55 408.5 572.6 405.2 585.65 406.55 598.1 407.95 611.65 414.6 622 421.65 633.05 433.85 638.5 446.40390625 644.057421875 462 644.25 462.1302734375 644.248828125 462.25 644.25 464.963671875 637.0126953125 471.25 628.475 477.5453125 619.945703125 486.75 619.5 489.45 619.4 491.75 620.65 494.3 622.1 494.75 624.5 495.25 626.9 493.5 629.5 491.15 633.15 486.25 636.25 475.5033203125 643.4634765625 462.25 644.3 460.3517578125 666.5333984375 471.6 687.9 482.605859375 708.7931640625 501.75 720.475
M 583.275 353.2
Q 580.3763671875 352.8359375 577.5 352.85 572.0046875 352.898828125 566.95 354.4 561.6583984375 355.978515625 556.85 359.15 547 365.6 544.1 375.75 541.05 385.95 546 401.6 550.35 415.8 557.75 424.1 563.55 430.7 572.05 434.4 580.3 438.05 589.35 438.25 598.2 438.45 606.8 435.4 615.25 432.45 622.35 426.85 631.0296875 436.9576171875 642.75 444.475
M 514.175 161.275
Q 513.35 212.25 526.85 261.45 540.3 310.5 566.95 354.4
M 633 499.675
Q 616.791796875 530.8828125 602.275 562.8 605.4650390625 568.53359375 615 572.6 626.7 577.95 639.75 579.7 652.7 581.4 666.3 579.35
M 462.25 644.25
L 462.25 644.3
Q 462.1107421875 644.3169921875 461.975 644.325 461.9927734375 644.2861328125 462 644.25
M 576.5 624.6
Q 585.15 633.25 597.55 638.35 608.95 643.05 622.25 644.25 633.75 645.3 647.5 643.9 657.914453125 642.8634765625 672.225 640.075
M 602.275 562.8
Q 585.08046875 600.5771484375 570.25 639.35 565.35 652.15 563 660.25 559.55 671.9 558.6 681.85 558.3431640625 684.84296875 558.325 687.75 584.2 702.75 614.7 705.75 645.1568359375 708.691015625 673.175 698.9
M 558.325 687.75
Q 558.2421875 696.158984375 560.1 703.85 562.3646484375 713.2380859375 567.275 720.5"/>
</defs>

<g transform="matrix( 1, 0, 0, 1, 0,0) ">
<use xlink:href="#Layer2_0_FILL"/>
</g>

<g transform="matrix( 1, 0, 0, 1, 0,0) ">
<use xlink:href="#Layer0_0_FILL"/>

<use xlink:href="#Layer0_0_1_STROKES"/>
</g>
</svg>
